<?xml version="1.0" encoding="UTF-8" standalone="no"?>
<svg
   xmlns:dc="http://purl.org/dc/elements/1.1/"
   xmlns:cc="http://creativecommons.org/ns#"
   xmlns:rdf="http://www.w3.org/1999/02/22-rdf-syntax-ns#"
   xmlns:svg="http://www.w3.org/2000/svg"
   xmlns="http://www.w3.org/2000/svg"
   xmlns:sodipodi="http://sodipodi.sourceforge.net/DTD/sodipodi-0.dtd"
   xmlns:inkscape="http://www.inkscape.org/namespaces/inkscape"
   version="1.1"
   width="914.680mm"
   height="661.240mm"
   viewBox="0 0 914.680 661.240"
   id="svg258"
   sodipodi:docname="jack_of_hearts_extend.svg"
   inkscape:version="0.92.2 5c3e80d, 2017-08-06">
  <metadata
     id="metadata264">
    <rdf:RDF>
      <cc:Work
         rdf:about="">
        <dc:format>image/svg+xml</dc:format>
        <dc:type
           rdf:resource="http://purl.org/dc/dcmitype/StillImage" />
      </cc:Work>
    </rdf:RDF>
  </metadata>
  <defs
     id="defs262" />
  <sodipodi:namedview
     pagecolor="#ffffff"
     bordercolor="#666666"
     borderopacity="1"
     objecttolerance="10"
     gridtolerance="10"
     guidetolerance="10"
     inkscape:pageopacity="0"
     inkscape:pageshadow="2"
     inkscape:window-width="1371"
     inkscape:window-height="725"
     id="namedview260"
     showgrid="false"
     inkscape:zoom="1.0603355"
     inkscape:cx="1754.9428"
     inkscape:cy="1267.6275"
     inkscape:window-x="0"
     inkscape:window-y="0"
     inkscape:window-maximized="0"
     inkscape:current-layer="svg258" />
  <title
     id="title2">jack_of_hearts</title>
  <path
     style="fill:none;stroke:#000000;stroke-width:0.40000001px"
     d="m 433.77166,218.56 v 16"
     id="path4"
     inkscape:connector-curvature="0" />
  <path
     style="fill:none;stroke:#000000;stroke-width:0.40000001px"
     d="m 413.17166,218.56 h 20.6"
     id="path6"
     inkscape:connector-curvature="0" />
  <path
     style="fill:none;stroke:#000000;stroke-width:0.40000001px"
     d="m 397.41166,217.44 15.76,1.12"
     id="path8"
     inkscape:connector-curvature="0" />
  <path
     style="fill:none;stroke:#000000;stroke-width:0.40000001px"
     d="m 378.25166,216.12 19.16,1.32"
     id="path10"
     inkscape:connector-curvature="0" />
  <path
     style="fill:none;stroke:#000000;stroke-width:0.40000001px"
     d="m 349.33166,205 28.92,11.12"
     id="path12"
     inkscape:connector-curvature="0" />
  <path
     style="fill:none;stroke:#000000;stroke-width:0.40000001px"
     d="m 319.21166,208.72 30.12,-3.72"
     id="path14"
     inkscape:connector-curvature="0" />
  <path
     style="fill:none;stroke:#000000;stroke-width:0.40000001px"
     d="M 319.56,287.64 V 208.72"
     id="path16"
     inkscape:connector-curvature="0" />
  <path
     style="fill:none;stroke:#000000;stroke-width:0.40000001px"
     d="m 340.04,293.88 -20.48,-6.24"
     id="path18"
     inkscape:connector-curvature="0" />
  <path
     style="fill:none;stroke:#000000;stroke-width:0.40000001px"
     d="m 359.68,305.68 -19.64,-11.8"
     id="path20"
     inkscape:connector-curvature="0" />
  <path
     style="fill:none;stroke:#000000;stroke-width:0.40000001px"
     d="m 359.68,305.68 17,8.68"
     id="path22"
     inkscape:connector-curvature="0" />
  <path
     style="fill:none;stroke:#000000;stroke-width:0.40000001px"
     d="m 376.68,314.36 12.8,-2.96"
     id="path24"
     inkscape:connector-curvature="0" />
  <path
     style="fill:none;stroke:#000000;stroke-width:0.40000001px"
     d="m 389.48,311.4 15.48,3.28"
     id="path26"
     inkscape:connector-curvature="0" />
  <path
     style="fill:none;stroke:#000000;stroke-width:0.40000001px"
     d="m 404.96,314.68 v 23.4"
     id="path28"
     inkscape:connector-curvature="0" />
  <path
     style="fill:none;stroke:#000000;stroke-width:0.40000001px"
     d="m 404.96,338.08 25.8,7.4"
     id="path30"
     inkscape:connector-curvature="0" />
  <path
     style="fill:none;stroke:#000000;stroke-width:0.40000001px"
     d="m 430.76,345.48 v 25.4"
     id="path32"
     inkscape:connector-curvature="0" />
  <path
     style="fill:none;stroke:#000000;stroke-width:0.40000001px"
     d="m 430.76,370.88 14.92,-2.64"
     id="path34"
     inkscape:connector-curvature="0" />
  <path
     style="fill:none;stroke:#000000;stroke-width:0.40000001px"
     d="m 445.68,368.24 11.92,8.64"
     id="path36"
     inkscape:connector-curvature="0" />
  <path
     style="fill:none;stroke:#000000;stroke-width:0.40000001px"
     d="m 457.6,376.88 16.96,2.4"
     id="path38"
     inkscape:connector-curvature="0" />
  <path
     style="fill:none;stroke:#000000;stroke-width:0.40000001px"
     d="m 474.56,379.28 18.4,19.76"
     id="path40"
     inkscape:connector-curvature="0" />
  <path
     style="fill:none;stroke:#000000;stroke-width:0.40000001px"
     d="m 492.96,399.04 5.08,4.4"
     id="path42"
     inkscape:connector-curvature="0" />
  <path
     style="fill:none;stroke:#000000;stroke-width:0.40000001px"
     d="m 498.04,403.44 v 17.8"
     id="path44"
     inkscape:connector-curvature="0" />
  <path
     style="fill:none;stroke:#000000;stroke-width:0.40000001px"
     d="m 498.04,421.24 26.28,2.32"
     id="path46"
     inkscape:connector-curvature="0" />
  <path
     style="fill:none;stroke:#000000;stroke-width:0.40000001px"
     d="m 524.32,423.56 11.88,2.52"
     id="path48"
     inkscape:connector-curvature="0" />
  <path
     style="fill:none;stroke:#000000;stroke-width:0.40000001px"
     d="M 536.2,426.08 566,432.4"
     id="path50"
     inkscape:connector-curvature="0" />
  <path
     style="fill:none;stroke:#000000;stroke-width:0.40000001px"
     d="m 566,432.4 14.44,-1"
     id="path52"
     inkscape:connector-curvature="0" />
  <path
     style="fill:none;stroke:#000000;stroke-width:0.40000001px"
     d="m 580.44,431.4 6.2,10.68"
     id="path54"
     inkscape:connector-curvature="0" />
  <path
     style="fill:none;stroke:#000000;stroke-width:0.40000001px"
     d="m 586.64,442.08 35.88,-1.88"
     id="path56"
     inkscape:connector-curvature="0" />
  <path
     style="fill:none;stroke:#000000;stroke-width:0.40000001px"
     d="m 622.52,440.2 12.88,4.4"
     id="path58"
     inkscape:connector-curvature="0" />
  <path
     style="fill:none;stroke:#000000;stroke-width:0.40000001px"
     d="m 635.4,444.6 33.76,7.8"
     id="path60"
     inkscape:connector-curvature="0" />
  <path
     style="fill:none;stroke:#000000;stroke-width:0.40000001px"
     d="M 669.16,452.4 676.8,452"
     id="path62"
     inkscape:connector-curvature="0" />
  <path
     style="fill:none;stroke:#000000;stroke-width:0.40000001px"
     d="m 676.8,452 11.16,-1.16"
     id="path64"
     inkscape:connector-curvature="0" />
  <path
     style="fill:none;stroke:#000000;stroke-width:0.40000001px"
     d="m 687.96,450.84 21.72,5.4"
     id="path66"
     inkscape:connector-curvature="0" />
  <path
     style="fill:none;stroke:#000000;stroke-width:0.40000001px"
     d="m 377.16,302.92 -17.48,2.76"
     id="path68"
     inkscape:connector-curvature="0" />
  <path
     style="fill:none;stroke:#000000;stroke-width:0.40000001px"
     d="m 377.16,353.32 v -50.4"
     id="path70"
     inkscape:connector-curvature="0" />
  <text
     style="font-size:3.52777767px"
     id="text73"
     x="-433.77155"
     y="234.56"
     transform="scale(-1,1)">35</text>
  <text
     style="font-size:3.52777767px"
     id="text75"
     x="-433.77155"
     y="234.56"
     transform="scale(-1,1)">smer0.38</text>
  <text
     style="font-size:3.52777773px;"
     id="text77"
     x="377.16"
     y="353.32001">1</text>
  <text
     style="font-size:3.52777773px;"
     id="text79"
     x="377.16"
     y="302.92001">2</text>
  <text
     style="font-size:3.52777773px;"
     id="text81"
     x="359.67999"
     y="305.67999">3</text>
  <text
     style="font-size:3.52777773px;"
     id="text83"
     x="687.96002"
     y="450.84">5</text>
  <text
     style="font-size:3.52777773px;"
     id="text85"
     x="676.79999"
     y="452">6</text>
  <text
     style="font-size:3.52777773px;"
     id="text87"
     x="669.15997"
     y="452.39999">7</text>
  <text
     style="font-size:3.52777773px;"
     id="text89"
     x="635.40002"
     y="444.60001">8</text>
  <text
     style="font-size:3.52777773px;"
     id="text91"
     x="622.52002"
     y="440.20001">9</text>
  <text
     style="font-size:3.52777773px;"
     id="text93"
     x="586.64001"
     y="442.07999">10</text>
  <text
     style="font-size:3.52777773px;"
     id="text95"
     x="580.44"
     y="431.39999">11</text>
  <text
     style="font-size:3.52777773px;"
     id="text97"
     x="566"
     y="432.39999">12</text>
  <text
     style="font-size:3.52777773px;"
     id="text99"
     x="536.20001"
     y="426.07999">13</text>
  <text
     style="font-size:3.52777773px;"
     id="text101"
     x="524.32001"
     y="423.56">14</text>
  <text
     style="font-size:3.52777773px;"
     id="text103"
     x="498.04001"
     y="421.23999">15</text>
  <text
     style="font-size:3.52777773px;"
     id="text105"
     x="498.04001"
     y="403.44">16</text>
  <text
     style="font-size:3.52777773px;"
     id="text107"
     x="492.95999"
     y="399.04001">17</text>
  <text
     style="font-size:3.52777773px;"
     id="text109"
     x="474.56"
     y="379.28">18</text>
  <text
     style="font-size:3.52777773px;"
     id="text111"
     x="457.60001"
     y="376.88">19</text>
  <text
     style="font-size:3.52777773px;"
     id="text113"
     x="445.67999"
     y="368.23999">20</text>
  <text
     style="font-size:3.52777773px;"
     id="text115"
     x="430.76001"
     y="370.88">21</text>
  <text
     style="font-size:3.52777773px;"
     id="text117"
     x="430.76001"
     y="345.48001">22</text>
  <text
     style="font-size:3.52777773px;"
     id="text119"
     x="404.95999"
     y="338.07999">23</text>
  <text
     style="font-size:3.52777773px;"
     id="text121"
     x="404.95999"
     y="314.67999">24</text>
  <text
     style="font-size:3.52777773px;"
     id="text123"
     x="389.48001"
     y="311.39999">25</text>
  <text
     style="font-size:3.52777773px;"
     id="text125"
     x="376.67999"
     y="314.35999">26</text>
  <text
     style="font-size:3.52777773px;"
     id="text127"
     x="340.04001"
     y="293.88">27</text>
  <text
     style="font-size:3.52777773px;"
     id="text129"
     x="319.56"
     y="287.64001">28</text>
  <text
     style="font-size:3.52777767px"
     id="text131"
     x="-319.21158"
     y="208.72"
     transform="scale(-1,1)">29</text>
  <text
     style="font-size:3.52777767px"
     id="text133"
     x="-349.33157"
     y="205"
     transform="scale(-1,1)">30</text>
  <text
     style="font-size:3.52777767px"
     id="text135"
     x="-378.25156"
     y="216.12"
     transform="scale(-1,1)">31</text>
  <text
     style="font-size:3.52777767px"
     id="text137"
     x="-397.41153"
     y="217.44"
     transform="scale(-1,1)">32</text>
  <text
     style="font-size:3.52777767px"
     id="text139"
     x="-413.17154"
     y="218.56"
     transform="scale(-1,1)">33</text>
  <text
     style="font-size:3.52777767px"
     id="text141"
     x="-433.77155"
     y="218.56"
     transform="scale(-1,1)">34</text>
  <text
     style="font-size:3.52777773px;"
     id="text143"
     x="709.67999"
     y="456.23999">sump</text>
  <circle
     style="fill:none;stroke:#000000;stroke-width:0.05px"
     id="jack_of_hearts.35"
     cx="-433.77155"
     cy="234.56001"
     r="1.131"
     transform="scale(-1,1)" />
  <path
     style="fill:none;stroke:#000000;stroke-width:0.05px"
     d="m 434.57166,233.76 -1.6,1.6 m 0,-1.6 1.6,1.6"
     id="path147"
     inkscape:connector-curvature="0" />
  <circle
     style="fill:none;stroke:#000000;stroke-width:0.05px"
     id="circle149"
     cx="-433.77155"
     cy="234.56001"
     r="1.131"
     transform="scale(-1,1)" />
  <path
     style="fill:none;stroke:#000000;stroke-width:0.05px"
     d="m 434.57166,233.76 -1.6,1.6 m 0,-1.6 1.6,1.6"
     id="path151"
     inkscape:connector-curvature="0" />
  <circle
     style="fill:none;stroke:#000000;stroke-width:0.05px"
     id="jack_of_hearts.1"
     cx="377.16"
     cy="353.31998"
     r="1.131" />
  <path
     style="fill:none;stroke:#000000;stroke-width:0.05px"
     d="m 376.36,352.52 1.6,1.6 m 0,-1.6 -1.6,1.6"
     id="path154"
     inkscape:connector-curvature="0" />
  <circle
     style="fill:none;stroke:#000000;stroke-width:0.05px"
     id="jack_of_hearts.2"
     cx="377.16"
     cy="302.91998"
     r="1.131" />
  <path
     style="fill:none;stroke:#000000;stroke-width:0.05px"
     d="m 376.36,302.12 1.6,1.6 m 0,-1.6 -1.6,1.6"
     id="path157"
     inkscape:connector-curvature="0" />
  <circle
     style="fill:none;stroke:#000000;stroke-width:0.05px"
     id="jack_of_hearts.3"
     cx="359.67999"
     cy="305.67999"
     r="1.131" />
  <path
     style="fill:none;stroke:#000000;stroke-width:0.05px"
     d="m 358.88,304.88 1.6,1.6 m 0,-1.6 -1.6,1.6"
     id="path160"
     inkscape:connector-curvature="0" />
  <circle
     style="fill:none;stroke:#000000;stroke-width:0.05px"
     id="jack_of_hearts.5"
     cx="687.96002"
     cy="450.84"
     r="1.131" />
  <path
     style="fill:none;stroke:#000000;stroke-width:0.05px"
     d="m 687.16,450.04 1.6,1.6 m 0,-1.6 -1.6,1.6"
     id="path163"
     inkscape:connector-curvature="0" />
  <circle
     style="fill:none;stroke:#000000;stroke-width:0.05px"
     id="jack_of_hearts.6"
     cx="676.79999"
     cy="452"
     r="1.131" />
  <path
     style="fill:none;stroke:#000000;stroke-width:0.05px"
     d="m 676,451.2 1.6,1.6 m 0,-1.6 -1.6,1.6"
     id="path166"
     inkscape:connector-curvature="0" />
  <circle
     style="fill:none;stroke:#000000;stroke-width:0.05px"
     id="jack_of_hearts.7"
     cx="669.15997"
     cy="452.39999"
     r="1.131" />
  <path
     style="fill:none;stroke:#000000;stroke-width:0.05px"
     d="m 668.36,451.6 1.6,1.6 m 0,-1.6 -1.6,1.6"
     id="path169"
     inkscape:connector-curvature="0" />
  <circle
     style="fill:none;stroke:#000000;stroke-width:0.05px"
     id="jack_of_hearts.8"
     cx="635.40002"
     cy="444.60001"
     r="1.131" />
  <path
     style="fill:none;stroke:#000000;stroke-width:0.05px"
     d="m 634.6,443.8 1.6,1.6 m 0,-1.6 -1.6,1.6"
     id="path172"
     inkscape:connector-curvature="0" />
  <circle
     style="fill:none;stroke:#000000;stroke-width:0.05px"
     id="jack_of_hearts.9"
     cx="622.52002"
     cy="440.20001"
     r="1.131" />
  <path
     style="fill:none;stroke:#000000;stroke-width:0.05px"
     d="m 621.72,439.4 1.6,1.6 m 0,-1.6 -1.6,1.6"
     id="path175"
     inkscape:connector-curvature="0" />
  <circle
     style="fill:none;stroke:#000000;stroke-width:0.05px"
     id="jack_of_hearts.10"
     cx="586.64001"
     cy="442.07999"
     r="1.131" />
  <path
     style="fill:none;stroke:#000000;stroke-width:0.05px"
     d="m 585.84,441.28 1.6,1.6 m 0,-1.6 -1.6,1.6"
     id="path178"
     inkscape:connector-curvature="0" />
  <circle
     style="fill:none;stroke:#000000;stroke-width:0.05px"
     id="jack_of_hearts.11"
     cx="580.44"
     cy="431.39999"
     r="1.131" />
  <path
     style="fill:none;stroke:#000000;stroke-width:0.05px"
     d="m 579.64,430.6 1.6,1.6 m 0,-1.6 -1.6,1.6"
     id="path181"
     inkscape:connector-curvature="0" />
  <circle
     style="fill:none;stroke:#000000;stroke-width:0.05px"
     id="jack_of_hearts.12"
     cx="566"
     cy="432.39999"
     r="1.131" />
  <path
     style="fill:none;stroke:#000000;stroke-width:0.05px"
     d="m 565.2,431.6 1.6,1.6 m 0,-1.6 -1.6,1.6"
     id="path184"
     inkscape:connector-curvature="0" />
  <circle
     style="fill:none;stroke:#000000;stroke-width:0.05px"
     id="jack_of_hearts.13"
     cx="536.20001"
     cy="426.07999"
     r="1.131" />
  <path
     style="fill:none;stroke:#000000;stroke-width:0.05px"
     d="m 535.4,425.28 1.6,1.6 m 0,-1.6 -1.6,1.6"
     id="path187"
     inkscape:connector-curvature="0" />
  <circle
     style="fill:none;stroke:#000000;stroke-width:0.05px"
     id="jack_of_hearts.14"
     cx="524.32001"
     cy="423.56"
     r="1.131" />
  <path
     style="fill:none;stroke:#000000;stroke-width:0.05px"
     d="m 523.52,422.76 1.6,1.6 m 0,-1.6 -1.6,1.6"
     id="path190"
     inkscape:connector-curvature="0" />
  <circle
     style="fill:none;stroke:#000000;stroke-width:0.05px"
     id="jack_of_hearts.15"
     cx="498.04001"
     cy="421.23999"
     r="1.131" />
  <path
     style="fill:none;stroke:#000000;stroke-width:0.05px"
     d="m 497.24,420.44 1.6,1.6 m 0,-1.6 -1.6,1.6"
     id="path193"
     inkscape:connector-curvature="0" />
  <circle
     style="fill:none;stroke:#000000;stroke-width:0.05px"
     id="jack_of_hearts.16"
     cx="498.04001"
     cy="403.44"
     r="1.131" />
  <path
     style="fill:none;stroke:#000000;stroke-width:0.05px"
     d="m 497.24,402.64 1.6,1.6 m 0,-1.6 -1.6,1.6"
     id="path196"
     inkscape:connector-curvature="0" />
  <circle
     style="fill:none;stroke:#000000;stroke-width:0.05px"
     id="jack_of_hearts.17"
     cx="492.95999"
     cy="399.03998"
     r="1.131" />
  <path
     style="fill:none;stroke:#000000;stroke-width:0.05px"
     d="m 492.16,398.24 1.6,1.6 m 0,-1.6 -1.6,1.6"
     id="path199"
     inkscape:connector-curvature="0" />
  <circle
     style="fill:none;stroke:#000000;stroke-width:0.05px"
     id="jack_of_hearts.18"
     cx="474.56"
     cy="379.28"
     r="1.131" />
  <path
     style="fill:none;stroke:#000000;stroke-width:0.05px"
     d="m 473.76,378.48 1.6,1.6 m 0,-1.6 -1.6,1.6"
     id="path202"
     inkscape:connector-curvature="0" />
  <circle
     style="fill:none;stroke:#000000;stroke-width:0.05px"
     id="jack_of_hearts.19"
     cx="457.60001"
     cy="376.88"
     r="1.131" />
  <path
     style="fill:none;stroke:#000000;stroke-width:0.05px"
     d="m 456.8,376.08 1.6,1.6 m 0,-1.6 -1.6,1.6"
     id="path205"
     inkscape:connector-curvature="0" />
  <circle
     style="fill:none;stroke:#000000;stroke-width:0.05px"
     id="jack_of_hearts.20"
     cx="445.67999"
     cy="368.23999"
     r="1.131" />
  <path
     style="fill:none;stroke:#000000;stroke-width:0.05px"
     d="m 444.88,367.44 1.6,1.6 m 0,-1.6 -1.6,1.6"
     id="path208"
     inkscape:connector-curvature="0" />
  <circle
     style="fill:none;stroke:#000000;stroke-width:0.05px"
     id="jack_of_hearts.21"
     cx="430.76001"
     cy="370.88"
     r="1.131" />
  <path
     style="fill:none;stroke:#000000;stroke-width:0.05px"
     d="m 429.96,370.08 1.6,1.6 m 0,-1.6 -1.6,1.6"
     id="path211"
     inkscape:connector-curvature="0" />
  <circle
     style="fill:none;stroke:#000000;stroke-width:0.05px"
     id="jack_of_hearts.22"
     cx="430.76001"
     cy="345.47998"
     r="1.131" />
  <path
     style="fill:none;stroke:#000000;stroke-width:0.05px"
     d="m 429.96,344.68 1.6,1.6 m 0,-1.6 -1.6,1.6"
     id="path214"
     inkscape:connector-curvature="0" />
  <circle
     style="fill:none;stroke:#000000;stroke-width:0.05px"
     id="jack_of_hearts.23"
     cx="404.95999"
     cy="338.07999"
     r="1.131" />
  <path
     style="fill:none;stroke:#000000;stroke-width:0.05px"
     d="m 404.16,337.28 1.6,1.6 m 0,-1.6 -1.6,1.6"
     id="path217"
     inkscape:connector-curvature="0" />
  <circle
     style="fill:none;stroke:#000000;stroke-width:0.05px"
     id="jack_of_hearts.24"
     cx="404.95999"
     cy="314.67999"
     r="1.131" />
  <path
     style="fill:none;stroke:#000000;stroke-width:0.05px"
     d="m 404.16,313.88 1.6,1.6 m 0,-1.6 -1.6,1.6"
     id="path220"
     inkscape:connector-curvature="0" />
  <circle
     style="fill:none;stroke:#000000;stroke-width:0.05px"
     id="jack_of_hearts.25"
     cx="389.48001"
     cy="311.39999"
     r="1.131" />
  <path
     style="fill:none;stroke:#000000;stroke-width:0.05px"
     d="m 388.68,310.6 1.6,1.6 m 0,-1.6 -1.6,1.6"
     id="path223"
     inkscape:connector-curvature="0" />
  <circle
     style="fill:none;stroke:#000000;stroke-width:0.05px"
     id="jack_of_hearts.26"
     cx="376.67999"
     cy="314.35999"
     r="1.131" />
  <path
     style="fill:none;stroke:#000000;stroke-width:0.05px"
     d="m 375.88,313.56 1.6,1.6 m 0,-1.6 -1.6,1.6"
     id="path226"
     inkscape:connector-curvature="0" />
  <circle
     style="fill:none;stroke:#000000;stroke-width:0.05px"
     id="jack_of_hearts.27"
     cx="340.04001"
     cy="293.88"
     r="1.131" />
  <path
     style="fill:none;stroke:#000000;stroke-width:0.05px"
     d="m 339.24,293.08 1.6,1.6 m 0,-1.6 -1.6,1.6"
     id="path229"
     inkscape:connector-curvature="0" />
  <circle
     style="fill:none;stroke:#000000;stroke-width:0.05px"
     id="jack_of_hearts.28"
     cx="319.56"
     cy="287.63998"
     r="1.131" />
  <path
     style="fill:none;stroke:#000000;stroke-width:0.05px"
     d="m 318.76,286.84 1.6,1.6 m 0,-1.6 -1.6,1.6"
     id="path232"
     inkscape:connector-curvature="0" />
  <circle
     style="fill:none;stroke:#000000;stroke-width:0.05px"
     id="jack_of_hearts.29"
     cx="-319.21158"
     cy="208.72002"
     r="1.131"
     transform="scale(-1,1)" />
  <path
     style="fill:none;stroke:#000000;stroke-width:0.05px"
     d="m 320.01166,207.92 -1.6,1.6 m 0,-1.6 1.6,1.6"
     id="path235"
     inkscape:connector-curvature="0" />
  <circle
     style="fill:none;stroke:#000000;stroke-width:0.05px"
     id="jack_of_hearts.30"
     cx="-349.33157"
     cy="205.00002"
     r="1.131"
     transform="scale(-1,1)" />
  <path
     style="fill:none;stroke:#000000;stroke-width:0.05px"
     d="m 350.13166,204.2 -1.6,1.6 m 0,-1.6 1.6,1.6"
     id="path238"
     inkscape:connector-curvature="0" />
  <circle
     style="fill:none;stroke:#000000;stroke-width:0.05px"
     id="jack_of_hearts.31"
     cx="-378.25153"
     cy="216.12001"
     r="1.131"
     transform="scale(-1,1)" />
  <path
     style="fill:none;stroke:#000000;stroke-width:0.05px"
     d="m 379.05166,215.32 -1.6,1.6 m 0,-1.6 1.6,1.6"
     id="path241"
     inkscape:connector-curvature="0" />
  <circle
     style="fill:none;stroke:#000000;stroke-width:0.05px"
     id="jack_of_hearts.32"
     cx="-397.41153"
     cy="217.44002"
     r="1.131"
     transform="scale(-1,1)" />
  <path
     style="fill:none;stroke:#000000;stroke-width:0.05px"
     d="m 398.21166,216.64 -1.6,1.6 m 0,-1.6 1.6,1.6"
     id="path244"
     inkscape:connector-curvature="0" />
  <circle
     style="fill:none;stroke:#000000;stroke-width:0.05px"
     id="jack_of_hearts.33"
     cx="-413.17154"
     cy="218.56001"
     r="1.131"
     transform="scale(-1,1)" />
  <path
     style="fill:none;stroke:#000000;stroke-width:0.05px"
     d="m 413.97166,217.76 -1.6,1.6 m 0,-1.6 1.6,1.6"
     id="path247"
     inkscape:connector-curvature="0" />
  <circle
     style="fill:none;stroke:#000000;stroke-width:0.05px"
     id="jack_of_hearts.34"
     cx="-433.77155"
     cy="218.56001"
     r="1.131"
     transform="scale(-1,1)" />
  <path
     style="fill:none;stroke:#000000;stroke-width:0.05px"
     d="m 434.57166,217.76 -1.6,1.6 m 0,-1.6 1.6,1.6"
     id="path250"
     inkscape:connector-curvature="0" />
  <circle
     style="fill:none;stroke:#000000;stroke-width:0.05px"
     id="jack_of_hearts.sump"
     cx="709.67999"
     cy="456.23999"
     r="1.131" />
  <path
     style="fill:none;stroke:#000000;stroke-width:0.05px"
     d="m 708.88,455.44 1.6,1.6 m 0,-1.6 -1.6,1.6"
     id="path253"
     inkscape:connector-curvature="0" />
</svg>
