0
SECTION
2
HEADER
9
$EXTMIN
10
0.000000
20
0.000000
30
0.000000
9
$EXTMAX
10
120.100000
20
146.000000
30
13.730000
9
$PDMODE
70
3
9
$PDSIZE
40
  0.80
0
ENDSEC
0
SECTION
2
TABLES
0
TABLE
2
LTYPE
70
10
0
LTYPE
2
CONTINUOUS
70
64
3
Continuous
72
65
73
0
40
0.0
0
LTYPE
2
DASHED
70
64
3
Dashed
72
65
73
2
40
2.5
49
1.25
49
-1.25
0
ENDTAB
0
TABLE
2
LAYER
70
10
0
LAYER
2
CentreLine
70
64
62
5
6
CONTINUOUS
0
LAYER
2
Stations
70
64
62
7
6
CONTINUOUS
0
LAYER
2
Labels
70
64
62
7
6
CONTINUOUS
0
LAYER
2
Surface
70
64
62
5
6
DASHED
0
LAYER
2
SurfaceStations
70
64
62
7
6
CONTINUOUS
0
LAYER
2
SurfaceLabels
70
64
62
7
6
CONTINUOUS
0
LAYER
2
Grid
70
64
62
7
6
CONTINUOUS
0
ENDTAB
0
ENDSEC
0
SECTION
2
ENTITIES
0
LINE
8
Grid
10
100.00
20
  0.00
30
0
11
100.00
21
146.00
31
0
0
LINE
8
Grid
10
  0.00
20
100.00
30
0
11
120.10
21
100.00
31
0
0
LINE
8
CentreLine
10
 50.34
20
 94.29
30
  4.94
11
 50.00
21
 93.34
31
  4.84
0
LINE
8
CentreLine
10
 50.34
20
 94.29
30
  4.94
11
 50.34
21
 94.26
31
  4.49
0
LINE
8
CentreLine
10
 50.34
20
 94.29
30
  4.94
11
 51.78
21
 96.00
31
  4.83
0
LINE
8
CentreLine
10
 50.34
20
 94.29
30
  4.94
11
 50.42
21
 94.32
31
  5.79
0
LINE
8
CentreLine
10
 50.34
20
 94.29
30
  4.94
11
 56.40
21
 86.10
31
  3.29
0
LINE
8
CentreLine
10
 56.40
20
 86.10
30
  3.29
11
 56.58
21
 86.04
31
  2.53
0
LINE
8
CentreLine
10
 56.40
20
 86.10
30
  3.29
11
 55.74
21
 85.69
31
  3.27
0
LINE
8
CentreLine
10
 56.40
20
 86.10
30
  3.29
11
 58.33
21
 86.57
31
  3.22
0
LINE
8
CentreLine
10
 56.40
20
 86.10
30
  3.29
11
 56.40
21
 86.09
31
  3.49
0
LINE
8
CentreLine
10
 56.40
20
 86.10
30
  3.29
11
 62.90
21
 77.39
31
  2.49
0
LINE
8
CentreLine
10
 56.40
20
 86.10
30
  3.29
11
 62.65
21
 77.71
31
  2.52
0
LINE
8
CentreLine
10
 62.65
20
 77.71
30
  2.52
11
 62.37
21
 76.74
31
  2.47
0
LINE
8
CentreLine
10
 62.65
20
 77.71
30
  2.52
11
 62.72
21
 77.67
31
  1.78
0
LINE
8
CentreLine
10
 62.65
20
 77.71
30
  2.52
11
 64.10
21
 78.71
31
  2.52
0
LINE
8
CentreLine
10
 62.65
20
 77.71
30
  2.52
11
 62.76
21
 77.66
31
  3.44
0
LINE
8
CentreLine
10
 62.65
20
 77.71
30
  2.52
11
 69.12
21
 74.92
31
  0.99
0
LINE
8
CentreLine
10
 69.12
20
 74.92
30
  0.99
11
 68.03
21
 73.50
31
  0.00
0
LINE
8
CentreLine
10
 69.12
20
 74.92
30
  0.99
11
 67.41
21
 72.85
31
  0.54
0
LINE
8
CentreLine
10
 69.12
20
 74.92
30
  0.99
11
 68.08
21
 73.65
31
  1.46
0
LINE
8
CentreLine
10
 69.12
20
 74.92
30
  0.99
11
 70.10
21
 69.84
31
  0.60
0
LINE
8
CentreLine
10
 70.10
20
 69.84
30
  0.60
11
 69.34
21
 69.92
31
  0.15
0
LINE
8
CentreLine
10
 70.10
20
 69.84
30
  0.60
11
 68.29
21
 70.17
31
  0.66
0
LINE
8
CentreLine
10
 70.10
20
 69.84
30
  0.60
11
 69.45
21
 70.08
31
  1.86
0
LINE
8
CentreLine
10
 70.10
20
 69.84
30
  0.60
11
 66.25
21
 65.03
31
  1.75
0
LINE
8
CentreLine
10
 66.25
20
 65.03
30
  1.75
11
 65.48
21
 63.99
31
  1.61
0
LINE
8
CentreLine
10
 66.25
20
 65.03
30
  1.75
11
 62.79
21
 70.63
31
  1.66
0
LINE
8
CentreLine
10
 66.25
20
 65.03
30
  1.75
11
 66.06
21
 65.49
31
  0.00
0
LINE
8
CentreLine
10
 66.25
20
 65.03
30
  1.75
11
 66.89
21
 66.95
31
  1.55
0
LINE
8
CentreLine
10
 66.25
20
 65.03
30
  1.75
11
 66.30
21
 65.07
31
  3.03
0
LINE
8
CentreLine
10
 66.25
20
 65.03
30
  1.75
11
 69.59
21
 60.43
31
  1.28
0
LINE
8
CentreLine
10
 69.59
20
 60.43
30
  1.28
11
 68.78
21
 60.18
31
  0.16
0
LINE
8
CentreLine
10
 69.59
20
 60.43
30
  1.28
11
 67.49
21
 59.95
31
  1.14
0
LINE
8
CentreLine
10
 69.59
20
 60.43
30
  1.28
11
 68.87
21
 60.34
31
  2.52
0
LINE
8
CentreLine
10
 69.59
20
 60.43
30
  1.28
11
 61.96
21
 50.00
31
 13.00
0
LINE
8
CentreLine
10
 61.96
20
 50.00
30
 13.00
11
 60.62
21
 53.01
31
 13.61
0
LINE
8
CentreLine
10
 61.96
20
 50.00
30
 13.00
11
 60.53
21
 52.99
31
 13.61
0
LINE
8
CentreLine
10
 61.96
20
 50.00
30
 13.00
11
 61.13
21
 53.10
31
 13.73
000
ENDSEC
000
EOF
