0
SECTION
2
HEADER
9
$EXTMIN
10
0.000000
20
0.000000
30
0.000000
9
$EXTMAX
10
154.810000
20
141.820000
30
49.000000
9
$PDMODE
70
3
9
$PDSIZE
40
  0.80
0
ENDSEC
0
SECTION
2
TABLES
0
TABLE
2
LTYPE
70
10
0
LTYPE
2
CONTINUOUS
70
64
3
Continuous
72
65
73
0
40
0.0
0
LTYPE
2
DASHED
70
64
3
Dashed
72
65
73
2
40
2.5
49
1.25
49
-1.25
0
ENDTAB
0
TABLE
2
LAYER
70
10
0
LAYER
2
CentreLine
70
64
62
5
6
CONTINUOUS
0
LAYER
2
Stations
70
64
62
7
6
CONTINUOUS
0
LAYER
2
Labels
70
64
62
7
6
CONTINUOUS
0
LAYER
2
Surface
70
64
62
5
6
DASHED
0
LAYER
2
SurfaceStations
70
64
62
7
6
CONTINUOUS
0
LAYER
2
SurfaceLabels
70
64
62
7
6
CONTINUOUS
0
LAYER
2
Grid
70
64
62
7
6
CONTINUOUS
0
ENDTAB
0
ENDSEC
0
SECTION
2
ENTITIES
0
LINE
8
Grid
10
100.00
20
  0.00
30
0
11
100.00
21
141.82
31
0
0
LINE
8
Grid
10
  0.00
20
100.00
30
0
11
154.81
21
100.00
31
0
0
LINE
8
CentreLine
10
 51.01
20
 50.00
30
 47.20
11
 50.00
21
 50.47
31
 47.18
0
LINE
8
CentreLine
10
 51.01
20
 50.00
30
 47.20
11
 57.28
21
 50.11
31
 47.20
0
LINE
8
CentreLine
10
 57.28
20
 50.11
30
 47.20
11
 58.39
21
 53.75
31
 47.80
0
LINE
8
CentreLine
10
 58.39
20
 53.75
30
 47.80
11
 70.63
21
 57.49
31
 46.91
0
LINE
8
CentreLine
10
 70.63
20
 57.49
30
 46.91
11
 79.69
21
 57.49
31
 49.00
0
LINE
8
CentreLine
10
 79.69
20
 57.49
30
 49.00
11
 79.69
21
 57.49
31
 33.89
0
LINE
8
CentreLine
10
 79.69
20
 57.49
30
 33.89
11
 86.88
21
 57.11
31
 33.01
0
LINE
8
CentreLine
10
 86.88
20
 57.11
30
 33.01
11
 86.88
21
 57.11
31
 21.38
0
LINE
8
CentreLine
10
 86.88
20
 57.11
30
 21.38
11
 84.71
21
 58.81
31
 17.44
0
LINE
8
CentreLine
10
 84.71
20
 58.81
30
 17.44
11
 83.55
21
 72.10
31
 14.36
0
LINE
8
CentreLine
10
 83.55
20
 72.10
30
 14.36
11
 82.29
21
 76.77
31
 13.68
0
LINE
8
CentreLine
10
 82.29
20
 76.77
30
 13.68
11
 78.94
21
 84.32
31
 11.62
0
LINE
8
CentreLine
10
 78.94
20
 84.32
30
 11.62
11
 77.88
21
 91.82
31
  8.87
0
LINE
8
CentreLine
10
 77.88
20
 91.82
30
  8.87
11
 82.30
21
 91.43
31
  3.58
0
LINE
8
CentreLine
10
 82.30
20
 91.43
30
  3.58
11
 87.71
21
 88.55
31
  2.94
0
LINE
8
CentreLine
10
 87.71
20
 88.55
30
  2.94
11
 93.45
21
 88.35
31
  1.29
0
LINE
8
CentreLine
10
 93.45
20
 88.35
30
  1.29
11
 95.98
21
 84.75
31
  1.83
0
LINE
8
CentreLine
10
 95.98
20
 84.75
30
  1.83
11
 98.93
21
 88.39
31
  1.00
0
LINE
8
CentreLine
10
 98.93
20
 88.39
30
  1.00
11
 98.93
21
 88.39
31
  0.00
0
LINE
8
CentreLine
10
 98.93
20
 88.39
30
  0.00
11
101.90
21
 88.39
31
  1.94
0
LINE
8
CentreLine
10
101.90
20
 88.39
30
  1.94
11
103.96
21
 91.02
31
  3.86
0
LINE
8
CentreLine
10
103.96
20
 91.02
30
  3.86
11
104.81
21
 91.82
31
  7.68
0
LINE
8
CentreLine
10
104.81
20
 91.82
30
  7.68
11
104.26
21
 89.22
31
  7.96
0
LINE
8
CentreLine
10
104.26
20
 89.22
30
  7.96
11
104.26
21
 89.22
31
  8.96
0
TEXT
8
Labels
10
104.26
20
 89.22
30
  8.96
40
  0.60
1
electric_dreams.25
0
POINT
8
Stations
10
104.26
20
 89.22
30
  8.96
0
TEXT
8
SurfaceLabels
10
104.26
20
 89.22
30
  8.96
40
  0.60
1
karstaway.26
0
POINT
8
SurfaceStations
10
104.26
20
 89.22
30
  8.96
0
TEXT
8
Labels
10
 50.00
20
 50.47
30
 47.18
40
  0.60
1
electric_dreams.1
0
POINT
8
Stations
10
 50.00
20
 50.47
30
 47.18
0
TEXT
8
Labels
10
 51.01
20
 50.00
30
 47.20
40
  0.60
1
electric_dreams.2
0
POINT
8
Stations
10
 51.01
20
 50.00
30
 47.20
0
TEXT
8
Labels
10
 57.28
20
 50.11
30
 47.20
40
  0.60
1
electric_dreams.3
0
POINT
8
Stations
10
 57.28
20
 50.11
30
 47.20
0
TEXT
8
Labels
10
 58.39
20
 53.75
30
 47.80
40
  0.60
1
electric_dreams.4
0
POINT
8
Stations
10
 58.39
20
 53.75
30
 47.80
0
TEXT
8
Labels
10
 70.63
20
 57.49
30
 46.91
40
  0.60
1
electric_dreams.5
0
POINT
8
Stations
10
 70.63
20
 57.49
30
 46.91
0
TEXT
8
Labels
10
 79.69
20
 57.49
30
 49.00
40
  0.60
1
electric_dreams.6
0
POINT
8
Stations
10
 79.69
20
 57.49
30
 49.00
0
TEXT
8
Labels
10
 79.69
20
 57.49
30
 33.89
40
  0.60
1
electric_dreams.7
0
POINT
8
Stations
10
 79.69
20
 57.49
30
 33.89
0
TEXT
8
Labels
10
 86.88
20
 57.11
30
 33.01
40
  0.60
1
electric_dreams.8
0
POINT
8
Stations
10
 86.88
20
 57.11
30
 33.01
0
TEXT
8
Labels
10
 86.88
20
 57.11
30
 21.38
40
  0.60
1
electric_dreams.9
0
POINT
8
Stations
10
 86.88
20
 57.11
30
 21.38
0
TEXT
8
Labels
10
 84.71
20
 58.81
30
 17.44
40
  0.60
1
electric_dreams.10
0
POINT
8
Stations
10
 84.71
20
 58.81
30
 17.44
0
TEXT
8
Labels
10
 83.55
20
 72.10
30
 14.36
40
  0.60
1
electric_dreams.11
0
POINT
8
Stations
10
 83.55
20
 72.10
30
 14.36
0
TEXT
8
Labels
10
 82.29
20
 76.77
30
 13.68
40
  0.60
1
electric_dreams.12
0
POINT
8
Stations
10
 82.29
20
 76.77
30
 13.68
0
TEXT
8
Labels
10
 78.94
20
 84.32
30
 11.62
40
  0.60
1
electric_dreams.13
0
POINT
8
Stations
10
 78.94
20
 84.32
30
 11.62
0
TEXT
8
Labels
10
 77.88
20
 91.82
30
  8.87
40
  0.60
1
electric_dreams.14
0
POINT
8
Stations
10
 77.88
20
 91.82
30
  8.87
0
TEXT
8
Labels
10
 82.30
20
 91.43
30
  3.58
40
  0.60
1
electric_dreams.15
0
POINT
8
Stations
10
 82.30
20
 91.43
30
  3.58
0
TEXT
8
Labels
10
 87.71
20
 88.55
30
  2.94
40
  0.60
1
electric_dreams.16
0
POINT
8
Stations
10
 87.71
20
 88.55
30
  2.94
0
TEXT
8
Labels
10
 93.45
20
 88.35
30
  1.29
40
  0.60
1
electric_dreams.17
0
POINT
8
Stations
10
 93.45
20
 88.35
30
  1.29
0
TEXT
8
Labels
10
 95.98
20
 84.75
30
  1.83
40
  0.60
1
electric_dreams.18
0
POINT
8
Stations
10
 95.98
20
 84.75
30
  1.83
0
TEXT
8
Labels
10
 98.93
20
 88.39
30
  1.00
40
  0.60
1
electric_dreams.19
0
POINT
8
Stations
10
 98.93
20
 88.39
30
  1.00
0
TEXT
8
Labels
10
 98.93
20
 88.39
30
  0.00
40
  0.60
1
electric_dreams.20
0
POINT
8
Stations
10
 98.93
20
 88.39
30
  0.00
0
TEXT
8
Labels
10
101.90
20
 88.39
30
  1.94
40
  0.60
1
electric_dreams.21
0
POINT
8
Stations
10
101.90
20
 88.39
30
  1.94
0
TEXT
8
Labels
10
103.96
20
 91.02
30
  3.86
40
  0.60
1
electric_dreams.22
0
POINT
8
Stations
10
103.96
20
 91.02
30
  3.86
0
TEXT
8
Labels
10
104.81
20
 91.82
30
  7.68
40
  0.60
1
electric_dreams.23
0
POINT
8
Stations
10
104.81
20
 91.82
30
  7.68
0
TEXT
8
Labels
10
104.26
20
 89.22
30
  7.96
40
  0.60
1
electric_dreams.24
0
POINT
8
Stations
10
104.26
20
 89.22
30
  7.96
000
ENDSEC
000
EOF
