<?xml version="1.0" encoding="utf-8" standalone="no"?>
<!-- Generated by Therion 5.4.1+? (compiled on 2018-06-25) -->
<!DOCTYPE svg PUBLIC "-//W3C//DTD SVG 1.1//EN" "http://www.w3.org/Graphics/SVG/1.1/DTD/svg11.dtd">
<svg width="2.706cm" height="6.057cm" viewBox="-41.392 -140.383 76.693 171.693" xmlns="http://www.w3.org/2000/svg" xmlns:xlink="http://www.w3.org/1999/xlink">
<defs>
<g id="F_aaaaaaa_balamory.svg">
</g>
<g id="G_aaaaaaa_balamory.svg">
</g>
<g id="B_aaaaaaa_balamory.svg">
</g>
<g id="I_aaaaaaa_balamory.svg">
</g>
<g id="E_aaaaaaa_balamory.svg">
<path fill="none" stroke="#000000" stroke-width="0.500" d="M13.050 2.960L6.640 14.080" />
<path fill="none" stroke="#000000" stroke-width="0.500" d="M13.050 2.960L13.050 2.960" />
<path fill="none" stroke="#000000" stroke-width="0.500" d="M13.050 2.960L13.050 2.960" />
<path fill="none" stroke="#000000" stroke-width="0.500" d="M6.640 14.080L4.030 27.460" />
<path fill="none" stroke="#000000" stroke-width="0.500" d="M6.640 14.080L13.050 2.960" />
<path fill="none" stroke="#000000" stroke-width="0.500" d="M4.030 27.460L3.180 32.330" />
<path fill="none" stroke="#000000" stroke-width="0.500" d="M4.030 27.460L6.640 14.080" />
<path fill="none" stroke="#000000" stroke-width="0.500" d="M3.180 32.330L6.810 48.090" />
<path fill="none" stroke="#000000" stroke-width="0.500" d="M3.180 32.330L4.030 27.460" />
<path fill="none" stroke="#000000" stroke-width="0.500" d="M6.810 48.090L2.950 53.990" />
<path fill="none" stroke="#000000" stroke-width="0.500" d="M6.810 48.090L3.180 32.330" />
<path fill="none" stroke="#000000" stroke-width="0.500" d="M2.950 53.990L12.030 66.910" />
<path fill="none" stroke="#000000" stroke-width="0.500" d="M2.950 53.990L6.810 48.090" />
<path fill="none" stroke="#000000" stroke-width="0.500" d="M12.030 66.910L10.210 87.550" />
<path fill="none" stroke="#000000" stroke-width="0.500" d="M12.030 66.910L2.950 53.990" />
<path fill="none" stroke="#000000" stroke-width="0.500" d="M10.210 87.550L11.690 109.040" />
<path fill="none" stroke="#000000" stroke-width="0.500" d="M10.210 87.550L12.030 66.910" />
<path fill="none" stroke="#000000" stroke-width="0.500" d="M11.690 109.040L11.690 109.040" />
<path fill="none" stroke="#000000" stroke-width="0.500" d="M11.690 109.040L10.210 87.550" />
<path fill="none" stroke="#000000" stroke-width="0.500" d="M11.690 109.040L11.690 109.040" />
<path fill="none" stroke="#000000" stroke-width="0.350" d="M11.050 2.960L15.050 2.960" />
<path fill="none" stroke="#000000" stroke-width="0.350" d="M13.050 0.960L13.050 4.960" />
<path fill="#ffffff" stroke="none" d="M13.850 2.960C13.850 3.172 13.766 3.376 13.616 3.526C13.466 3.676 13.262 3.760 13.050 3.760C12.838 3.760 12.634 3.676 12.484 3.526C12.334 3.376 12.250 3.172 12.250 2.960C12.250 2.748 12.334 2.544 12.484 2.394C12.634 2.244 12.838 2.160 13.050 2.160C13.262 2.160 13.466 2.244 13.616 2.394C13.766 2.544 13.850 2.748 13.850 2.960Z" />
<path fill="none" stroke="#000000" stroke-width="0.500" d="M13.050 2.960h0.001" />
<path fill="none" stroke="#000000" stroke-width="0.350" d="M11.050 2.960L15.050 2.960" />
<path fill="none" stroke="#000000" stroke-width="0.350" d="M13.050 0.960L13.050 4.960" />
<path fill="#ffffff" stroke="none" d="M13.850 2.960C13.850 3.172 13.766 3.376 13.616 3.526C13.466 3.676 13.262 3.760 13.050 3.760C12.838 3.760 12.634 3.676 12.484 3.526C12.334 3.376 12.250 3.172 12.250 2.960C12.250 2.748 12.334 2.544 12.484 2.394C12.634 2.244 12.838 2.160 13.050 2.160C13.262 2.160 13.466 2.244 13.616 2.394C13.766 2.544 13.850 2.748 13.850 2.960Z" />
<path fill="none" stroke="#000000" stroke-width="0.500" d="M13.050 2.960h0.001" />
<path fill="none" stroke="#000000" stroke-width="0.350" d="M4.640 14.080L8.640 14.080" />
<path fill="none" stroke="#000000" stroke-width="0.350" d="M6.640 12.080L6.640 16.080" />
<path fill="#ffffff" stroke="none" d="M7.440 14.080C7.440 14.292 7.356 14.496 7.206 14.646C7.056 14.796 6.852 14.880 6.640 14.880C6.428 14.880 6.224 14.796 6.074 14.646C5.924 14.496 5.840 14.292 5.840 14.080C5.840 13.868 5.924 13.664 6.074 13.514C6.224 13.364 6.428 13.280 6.640 13.280C6.852 13.280 7.056 13.364 7.206 13.514C7.356 13.664 7.440 13.868 7.440 14.080Z" />
<path fill="none" stroke="#000000" stroke-width="0.500" d="M6.640 14.080h0.001" />
<path fill="none" stroke="#000000" stroke-width="0.350" d="M2.030 27.460L6.030 27.460" />
<path fill="none" stroke="#000000" stroke-width="0.350" d="M4.030 25.460L4.030 29.460" />
<path fill="#ffffff" stroke="none" d="M4.830 27.460C4.830 27.672 4.746 27.876 4.596 28.026C4.446 28.176 4.242 28.260 4.030 28.260C3.818 28.260 3.614 28.176 3.464 28.026C3.314 27.876 3.230 27.672 3.230 27.460C3.230 27.248 3.314 27.044 3.464 26.894C3.614 26.744 3.818 26.660 4.030 26.660C4.242 26.660 4.446 26.744 4.596 26.894C4.746 27.044 4.830 27.248 4.830 27.460Z" />
<path fill="none" stroke="#000000" stroke-width="0.500" d="M4.030 27.460h0.001" />
<path fill="none" stroke="#000000" stroke-width="0.350" d="M1.180 32.330L5.180 32.330" />
<path fill="none" stroke="#000000" stroke-width="0.350" d="M3.180 30.330L3.180 34.330" />
<path fill="#ffffff" stroke="none" d="M3.980 32.330C3.980 32.542 3.896 32.746 3.746 32.896C3.596 33.046 3.392 33.130 3.180 33.130C2.968 33.130 2.764 33.046 2.614 32.896C2.464 32.746 2.380 32.542 2.380 32.330C2.380 32.118 2.464 31.914 2.614 31.764C2.764 31.614 2.968 31.530 3.180 31.530C3.392 31.530 3.596 31.614 3.746 31.764C3.896 31.914 3.980 32.118 3.980 32.330Z" />
<path fill="none" stroke="#000000" stroke-width="0.500" d="M3.180 32.330h0.001" />
<path fill="none" stroke="#000000" stroke-width="0.350" d="M4.810 48.090L8.810 48.090" />
<path fill="none" stroke="#000000" stroke-width="0.350" d="M6.810 46.090L6.810 50.090" />
<path fill="#ffffff" stroke="none" d="M7.610 48.090C7.610 48.302 7.526 48.506 7.376 48.656C7.226 48.806 7.022 48.890 6.810 48.890C6.598 48.890 6.394 48.806 6.244 48.656C6.094 48.506 6.010 48.302 6.010 48.090C6.010 47.878 6.094 47.674 6.244 47.524C6.394 47.374 6.598 47.290 6.810 47.290C7.022 47.290 7.226 47.374 7.376 47.524C7.526 47.674 7.610 47.878 7.610 48.090Z" />
<path fill="none" stroke="#000000" stroke-width="0.500" d="M6.810 48.090h0.001" />
<path fill="none" stroke="#000000" stroke-width="0.350" d="M0.950 53.990L4.950 53.990" />
<path fill="none" stroke="#000000" stroke-width="0.350" d="M2.950 51.990L2.950 55.990" />
<path fill="#ffffff" stroke="none" d="M3.750 53.990C3.750 54.202 3.666 54.406 3.516 54.556C3.366 54.706 3.162 54.790 2.950 54.790C2.738 54.790 2.534 54.706 2.384 54.556C2.234 54.406 2.150 54.202 2.150 53.990C2.150 53.778 2.234 53.574 2.384 53.424C2.534 53.274 2.738 53.190 2.950 53.190C3.162 53.190 3.366 53.274 3.516 53.424C3.666 53.574 3.750 53.778 3.750 53.990Z" />
<path fill="none" stroke="#000000" stroke-width="0.500" d="M2.950 53.990h0.001" />
<path fill="none" stroke="#000000" stroke-width="0.350" d="M10.030 66.910L14.030 66.910" />
<path fill="none" stroke="#000000" stroke-width="0.350" d="M12.030 64.910L12.030 68.910" />
<path fill="#ffffff" stroke="none" d="M12.830 66.910C12.830 67.122 12.746 67.326 12.596 67.476C12.446 67.626 12.242 67.710 12.030 67.710C11.818 67.710 11.614 67.626 11.464 67.476C11.314 67.326 11.230 67.122 11.230 66.910C11.230 66.698 11.314 66.494 11.464 66.344C11.614 66.194 11.818 66.110 12.030 66.110C12.242 66.110 12.446 66.194 12.596 66.344C12.746 66.494 12.830 66.698 12.830 66.910Z" />
<path fill="none" stroke="#000000" stroke-width="0.500" d="M12.030 66.910h0.001" />
<path fill="none" stroke="#000000" stroke-width="0.350" d="M8.210 87.550L12.210 87.550" />
<path fill="none" stroke="#000000" stroke-width="0.350" d="M10.210 85.550L10.210 89.550" />
<path fill="#ffffff" stroke="none" d="M11.010 87.550C11.010 87.762 10.926 87.966 10.776 88.116C10.626 88.266 10.422 88.350 10.210 88.350C9.998 88.350 9.794 88.266 9.644 88.116C9.494 87.966 9.410 87.762 9.410 87.550C9.410 87.338 9.494 87.134 9.644 86.984C9.794 86.834 9.998 86.750 10.210 86.750C10.422 86.750 10.626 86.834 10.776 86.984C10.926 87.134 11.010 87.338 11.010 87.550Z" />
<path fill="none" stroke="#000000" stroke-width="0.500" d="M10.210 87.550h0.001" />
<path fill="none" stroke="#000000" stroke-width="0.350" d="M9.690 109.040L13.690 109.040" />
<path fill="none" stroke="#000000" stroke-width="0.350" d="M11.690 107.040L11.690 111.040" />
<path fill="#ffffff" stroke="none" d="M12.490 109.040C12.490 109.252 12.406 109.456 12.256 109.606C12.106 109.756 11.902 109.840 11.690 109.840C11.478 109.840 11.274 109.756 11.124 109.606C10.974 109.456 10.890 109.252 10.890 109.040C10.890 108.828 10.974 108.624 11.124 108.474C11.274 108.324 11.478 108.240 11.690 108.240C11.902 108.240 12.106 108.324 12.256 108.474C12.406 108.624 12.490 108.828 12.490 109.040Z" />
<path fill="none" stroke="#000000" stroke-width="0.500" d="M11.690 109.040h0.001" />
<path fill="none" stroke="#000000" stroke-width="0.350" d="M9.690 109.040L13.690 109.040" />
<path fill="none" stroke="#000000" stroke-width="0.350" d="M11.690 107.040L11.690 111.040" />
<path fill="#ffffff" stroke="none" d="M12.490 109.040C12.490 109.252 12.406 109.456 12.256 109.606C12.106 109.756 11.902 109.840 11.690 109.840C11.478 109.840 11.274 109.756 11.124 109.606C10.974 109.456 10.890 109.252 10.890 109.040C10.890 108.828 10.974 108.624 11.124 108.474C11.274 108.324 11.478 108.240 11.690 108.240C11.902 108.240 12.106 108.324 12.256 108.474C12.406 108.624 12.490 108.828 12.490 109.040Z" />
<path fill="none" stroke="#000000" stroke-width="0.500" d="M11.690 109.040h0.001" />
</g>
<g id="X_aaaaaaa_balamory.svg">
<text font-family="cmss10" font-size="6.974" fill="black" stroke="none" transform="matrix(1.000 0.000 -0.000 -1.000 10.925 0.835)">&#x32;</text>
<text font-family="cmss10" font-size="6.974" fill="black" stroke="none" transform="matrix(1.000 0.000 -0.000 -1.000 10.925 0.835)">&#x31;</text>
<text font-family="cmss10" font-size="6.974" fill="black" stroke="none" transform="matrix(1.000 0.000 -0.000 -1.000 4.515 11.955)">&#x33;</text>
<text font-family="cmss10" font-size="6.974" fill="black" stroke="none" transform="matrix(1.000 0.000 -0.000 -1.000 1.905 25.335)">&#x34;</text>
<text font-family="cmss10" font-size="6.974" fill="black" stroke="none" transform="matrix(1.000 0.000 -0.000 -1.000 1.055 30.205)">&#x35;</text>
<text font-family="cmss10" font-size="6.974" fill="black" stroke="none" transform="matrix(1.000 0.000 -0.000 -1.000 4.685 45.965)">&#x36;</text>
<text font-family="cmss10" font-size="6.974" fill="black" stroke="none" transform="matrix(1.000 0.000 -0.000 -1.000 0.825 51.865)">&#x37;</text>
<text font-family="cmss10" font-size="6.974" fill="black" stroke="none" transform="matrix(1.000 0.000 -0.000 -1.000 9.905 64.785)">&#x38;</text>
<text font-family="cmss10" font-size="6.974" fill="black" stroke="none" transform="matrix(1.000 0.000 -0.000 -1.000 8.085 85.425)">&#x39;</text>
<text font-family="cmss10" font-size="6.974" fill="black" stroke="none" transform="matrix(1.000 0.000 -0.000 -1.000 9.565 106.915)">&#x31;&#x30;</text>
<text font-family="cmss10" font-size="6.974" fill="black" stroke="none" transform="matrix(1.000 0.000 -0.000 -1.000 9.565 106.915)">&#x31;&#x31;</text>
</g>
<clipPath id="clip_viewBox">
<path d="M-41.392 -31.310L35.301 -31.310L35.301 140.383L-41.392 140.383z" />
</clipPath>
</defs>
<g transform="scale(1,-1)" fill="#000000" stroke="#000000" stroke-linecap="round" stroke-linejoin="round" stroke-miterlimit="10" fill-rule="evenodd" clip-rule="evenodd" clip-path="url(#clip_viewBox)">
<use x="-13.046" y="-2.964" xlink:href="#E_aaaaaaa_balamory.svg" />
<use x="-10.046" y="0.036" xlink:href="#X_aaaaaaa_balamory.svg" />
</g>
</svg>
