<?xml version="1.0" encoding="utf-8" standalone="no"?>
<!-- Generated by Therion 5.4.1+? (compiled on 2018-06-25) -->
<!DOCTYPE svg PUBLIC "-//W3C//DTD SVG 1.1//EN" "http://www.w3.org/Graphics/SVG/1.1/DTD/svg11.dtd">
<svg width="15.864cm" height="23.272cm" viewBox="-31.433 -34.276 449.693 659.693" xmlns="http://www.w3.org/2000/svg" xmlns:xlink="http://www.w3.org/1999/xlink">
<defs>
<g id="F_aaaaaaa_highway32.svg">
</g>
<g id="G_aaaaaaa_highway32.svg">
</g>
<g id="B_aaaaaaa_highway32.svg">
</g>
<g id="I_aaaaaaa_highway32.svg">
</g>
<g id="E_aaaaaaa_highway32.svg">
<path fill="none" stroke="#000000" stroke-width="0.500" d="M3.090 597.070L21.060 541.740" />
<path fill="none" stroke="#000000" stroke-width="0.500" d="M21.060 541.740L14.090 539.190" />
<path fill="none" stroke="#000000" stroke-width="0.500" d="M21.060 541.740L3.090 597.070" />
<path fill="none" stroke="#000000" stroke-width="0.500" d="M14.090 539.190L22.870 531.590" />
<path fill="none" stroke="#000000" stroke-width="0.500" d="M14.090 539.190L21.060 541.740" />
<path fill="none" stroke="#000000" stroke-width="0.500" d="M22.870 531.590L15.840 519.460" />
<path fill="none" stroke="#000000" stroke-width="0.500" d="M22.870 531.590L14.090 539.190" />
<path fill="none" stroke="#000000" stroke-width="0.500" d="M15.840 519.460L48.670 477.450" />
<path fill="none" stroke="#000000" stroke-width="0.500" d="M15.840 519.460L22.870 531.590" />
<path fill="none" stroke="#000000" stroke-width="0.500" d="M48.670 477.450L49.290 442.190" />
<path fill="none" stroke="#000000" stroke-width="0.500" d="M48.670 477.450L15.840 519.460" />
<path fill="none" stroke="#000000" stroke-width="0.500" d="M49.290 442.190L47.310 385.490" />
<path fill="none" stroke="#000000" stroke-width="0.500" d="M49.290 442.190L48.670 477.450" />
<path fill="none" stroke="#000000" stroke-width="0.500" d="M47.310 385.490L55.070 370.980" />
<path fill="none" stroke="#000000" stroke-width="0.500" d="M47.310 385.490L49.290 442.190" />
<path fill="none" stroke="#000000" stroke-width="0.500" d="M55.070 370.980L44.020 323.130" />
<path fill="none" stroke="#000000" stroke-width="0.500" d="M55.070 370.980L47.310 385.490" />
<path fill="none" stroke="#000000" stroke-width="0.500" d="M44.020 323.130L41.810 301.980" />
<path fill="none" stroke="#000000" stroke-width="0.500" d="M44.020 323.130L55.070 370.980" />
<path fill="none" stroke="#000000" stroke-width="0.500" d="M41.810 301.980L72.480 278.850" />
<path fill="none" stroke="#000000" stroke-width="0.500" d="M41.810 301.980L44.020 323.130" />
<path fill="none" stroke="#000000" stroke-width="0.500" d="M72.480 278.850L91.130 146.080" />
<path fill="none" stroke="#000000" stroke-width="0.500" d="M72.480 278.850L41.810 301.980" />
<path fill="none" stroke="#000000" stroke-width="0.500" d="M91.130 146.080L120.330 127.140" />
<path fill="none" stroke="#000000" stroke-width="0.500" d="M91.130 146.080L72.480 278.850" />
<path fill="none" stroke="#000000" stroke-width="0.500" d="M120.330 127.140L147.820 90.630" />
<path fill="none" stroke="#000000" stroke-width="0.500" d="M120.330 127.140L91.130 146.080" />
<path fill="none" stroke="#000000" stroke-width="0.500" d="M147.820 90.630L178.150 73.110" />
<path fill="none" stroke="#000000" stroke-width="0.500" d="M147.820 90.630L120.330 127.140" />
<path fill="none" stroke="#000000" stroke-width="0.500" d="M178.150 73.110L164.600 81.280" />
<path fill="none" stroke="#000000" stroke-width="0.500" d="M178.150 73.110L209.450 14.320" />
<path fill="none" stroke="#000000" stroke-width="0.500" d="M178.150 73.110L147.820 90.630" />
<path fill="none" stroke="#000000" stroke-width="0.500" d="M209.450 14.320L231.730 2.930" />
<path fill="none" stroke="#000000" stroke-width="0.500" d="M209.450 14.320L178.150 73.110" />
<path fill="none" stroke="#000000" stroke-width="0.500" d="M231.730 2.930L260.020 7.410" />
<path fill="none" stroke="#000000" stroke-width="0.500" d="M231.730 2.930L209.450 14.320" />
<path fill="none" stroke="#000000" stroke-width="0.500" d="M260.020 7.410L279.750 27.190" />
<path fill="none" stroke="#000000" stroke-width="0.500" d="M260.020 7.410L231.730 2.930" />
<path fill="none" stroke="#000000" stroke-width="0.500" d="M279.750 27.190L275.270 55.480" />
<path fill="none" stroke="#000000" stroke-width="0.500" d="M279.750 27.190L260.020 7.410" />
<path fill="none" stroke="#000000" stroke-width="0.500" d="M275.270 55.480L279.750 27.190" />
<path fill="none" stroke="#000000" stroke-width="0.500" d="M164.600 81.280L195.220 75.890" />
<path fill="none" stroke="#000000" stroke-width="0.500" d="M164.600 81.280L178.150 73.110" />
<path fill="none" stroke="#000000" stroke-width="0.500" d="M195.220 75.890L215.230 41.140" />
<path fill="none" stroke="#000000" stroke-width="0.500" d="M195.220 75.890L164.600 81.280" />
<path fill="none" stroke="#000000" stroke-width="0.500" d="M215.230 41.140L219.030 23.400" />
<path fill="none" stroke="#000000" stroke-width="0.500" d="M215.230 41.140L195.220 75.890" />
<path fill="none" stroke="#000000" stroke-width="0.500" d="M219.030 23.400L234.110 8.880" />
<path fill="none" stroke="#000000" stroke-width="0.500" d="M219.030 23.400L215.230 41.140" />
<path fill="none" stroke="#000000" stroke-width="0.500" d="M234.110 8.880L243.750 10.070" />
<path fill="none" stroke="#000000" stroke-width="0.500" d="M234.110 8.880L219.030 23.400" />
<path fill="none" stroke="#000000" stroke-width="0.500" d="M243.750 10.070L256.790 31.790" />
<path fill="none" stroke="#000000" stroke-width="0.500" d="M243.750 10.070L234.110 8.880" />
<path fill="none" stroke="#000000" stroke-width="0.500" d="M256.790 31.790L288.080 30.140" />
<path fill="none" stroke="#000000" stroke-width="0.500" d="M256.790 31.790L243.750 10.070" />
<path fill="none" stroke="#000000" stroke-width="0.500" d="M288.080 30.140L313.420 20.390" />
<path fill="none" stroke="#000000" stroke-width="0.500" d="M288.080 30.140L256.790 31.790" />
<path fill="none" stroke="#000000" stroke-width="0.500" d="M313.420 20.390L323.460 28.210" />
<path fill="none" stroke="#000000" stroke-width="0.500" d="M313.420 20.390L288.080 30.140" />
<path fill="none" stroke="#000000" stroke-width="0.500" d="M323.460 28.210L384.910 69.660" />
<path fill="none" stroke="#000000" stroke-width="0.500" d="M323.460 28.210L313.420 20.390" />
<path fill="none" stroke="#000000" stroke-width="0.500" d="M384.910 69.660L323.460 28.210" />
<path fill="none" stroke="#000000" stroke-width="0.350" d="M1.090 597.070L5.090 597.070" />
<path fill="none" stroke="#000000" stroke-width="0.350" d="M3.090 595.070L3.090 599.070" />
<path fill="#ffffff" stroke="none" d="M3.890 597.070C3.890 597.282 3.806 597.486 3.656 597.636C3.506 597.786 3.302 597.870 3.090 597.870C2.878 597.870 2.674 597.786 2.524 597.636C2.374 597.486 2.290 597.282 2.290 597.070C2.290 596.858 2.374 596.654 2.524 596.504C2.674 596.354 2.878 596.270 3.090 596.270C3.302 596.270 3.506 596.354 3.656 596.504C3.806 596.654 3.890 596.858 3.890 597.070Z" />
<path fill="none" stroke="#000000" stroke-width="0.500" d="M3.090 597.070h0.001" />
<path fill="none" stroke="#000000" stroke-width="0.350" d="M19.060 541.740L23.060 541.740" />
<path fill="none" stroke="#000000" stroke-width="0.350" d="M21.060 539.740L21.060 543.740" />
<path fill="#ffffff" stroke="none" d="M21.860 541.740C21.860 541.952 21.776 542.156 21.626 542.306C21.476 542.456 21.272 542.540 21.060 542.540C20.848 542.540 20.644 542.456 20.494 542.306C20.344 542.156 20.260 541.952 20.260 541.740C20.260 541.528 20.344 541.324 20.494 541.174C20.644 541.024 20.848 540.940 21.060 540.940C21.272 540.940 21.476 541.024 21.626 541.174C21.776 541.324 21.860 541.528 21.860 541.740Z" />
<path fill="none" stroke="#000000" stroke-width="0.500" d="M21.060 541.740h0.001" />
<path fill="none" stroke="#000000" stroke-width="0.350" d="M12.090 539.190L16.090 539.190" />
<path fill="none" stroke="#000000" stroke-width="0.350" d="M14.090 537.190L14.090 541.190" />
<path fill="#ffffff" stroke="none" d="M14.890 539.190C14.890 539.402 14.806 539.606 14.656 539.756C14.506 539.906 14.302 539.990 14.090 539.990C13.878 539.990 13.674 539.906 13.524 539.756C13.374 539.606 13.290 539.402 13.290 539.190C13.290 538.978 13.374 538.774 13.524 538.624C13.674 538.474 13.878 538.390 14.090 538.390C14.302 538.390 14.506 538.474 14.656 538.624C14.806 538.774 14.890 538.978 14.890 539.190Z" />
<path fill="none" stroke="#000000" stroke-width="0.500" d="M14.090 539.190h0.001" />
<path fill="none" stroke="#000000" stroke-width="0.350" d="M20.870 531.590L24.870 531.590" />
<path fill="none" stroke="#000000" stroke-width="0.350" d="M22.870 529.590L22.870 533.590" />
<path fill="#ffffff" stroke="none" d="M23.670 531.590C23.670 531.802 23.586 532.006 23.436 532.156C23.286 532.306 23.082 532.390 22.870 532.390C22.658 532.390 22.454 532.306 22.304 532.156C22.154 532.006 22.070 531.802 22.070 531.590C22.070 531.378 22.154 531.174 22.304 531.024C22.454 530.874 22.658 530.790 22.870 530.790C23.082 530.790 23.286 530.874 23.436 531.024C23.586 531.174 23.670 531.378 23.670 531.590Z" />
<path fill="none" stroke="#000000" stroke-width="0.500" d="M22.870 531.590h0.001" />
<path fill="none" stroke="#000000" stroke-width="0.350" d="M13.840 519.460L17.840 519.460" />
<path fill="none" stroke="#000000" stroke-width="0.350" d="M15.840 517.460L15.840 521.460" />
<path fill="#ffffff" stroke="none" d="M16.640 519.460C16.640 519.672 16.556 519.876 16.406 520.026C16.256 520.176 16.052 520.260 15.840 520.260C15.628 520.260 15.424 520.176 15.274 520.026C15.124 519.876 15.040 519.672 15.040 519.460C15.040 519.248 15.124 519.044 15.274 518.894C15.424 518.744 15.628 518.660 15.840 518.660C16.052 518.660 16.256 518.744 16.406 518.894C16.556 519.044 16.640 519.248 16.640 519.460Z" />
<path fill="none" stroke="#000000" stroke-width="0.500" d="M15.840 519.460h0.001" />
<path fill="none" stroke="#000000" stroke-width="0.350" d="M46.670 477.450L50.670 477.450" />
<path fill="none" stroke="#000000" stroke-width="0.350" d="M48.670 475.450L48.670 479.450" />
<path fill="#ffffff" stroke="none" d="M49.470 477.450C49.470 477.662 49.386 477.866 49.236 478.016C49.086 478.166 48.882 478.250 48.670 478.250C48.458 478.250 48.254 478.166 48.104 478.016C47.954 477.866 47.870 477.662 47.870 477.450C47.870 477.238 47.954 477.034 48.104 476.884C48.254 476.734 48.458 476.650 48.670 476.650C48.882 476.650 49.086 476.734 49.236 476.884C49.386 477.034 49.470 477.238 49.470 477.450Z" />
<path fill="none" stroke="#000000" stroke-width="0.500" d="M48.670 477.450h0.001" />
<path fill="none" stroke="#000000" stroke-width="0.350" d="M47.290 442.190L51.290 442.190" />
<path fill="none" stroke="#000000" stroke-width="0.350" d="M49.290 440.190L49.290 444.190" />
<path fill="#ffffff" stroke="none" d="M50.090 442.190C50.090 442.402 50.006 442.606 49.856 442.756C49.706 442.906 49.502 442.990 49.290 442.990C49.078 442.990 48.874 442.906 48.724 442.756C48.574 442.606 48.490 442.402 48.490 442.190C48.490 441.978 48.574 441.774 48.724 441.624C48.874 441.474 49.078 441.390 49.290 441.390C49.502 441.390 49.706 441.474 49.856 441.624C50.006 441.774 50.090 441.978 50.090 442.190Z" />
<path fill="none" stroke="#000000" stroke-width="0.500" d="M49.290 442.190h0.001" />
<path fill="none" stroke="#000000" stroke-width="0.350" d="M45.310 385.490L49.310 385.490" />
<path fill="none" stroke="#000000" stroke-width="0.350" d="M47.310 383.490L47.310 387.490" />
<path fill="#ffffff" stroke="none" d="M48.110 385.490C48.110 385.702 48.026 385.906 47.876 386.056C47.726 386.206 47.522 386.290 47.310 386.290C47.098 386.290 46.894 386.206 46.744 386.056C46.594 385.906 46.510 385.702 46.510 385.490C46.510 385.278 46.594 385.074 46.744 384.924C46.894 384.774 47.098 384.690 47.310 384.690C47.522 384.690 47.726 384.774 47.876 384.924C48.026 385.074 48.110 385.278 48.110 385.490Z" />
<path fill="none" stroke="#000000" stroke-width="0.500" d="M47.310 385.490h0.001" />
<path fill="none" stroke="#000000" stroke-width="0.350" d="M53.070 370.980L57.070 370.980" />
<path fill="none" stroke="#000000" stroke-width="0.350" d="M55.070 368.980L55.070 372.980" />
<path fill="#ffffff" stroke="none" d="M55.870 370.980C55.870 371.192 55.786 371.396 55.636 371.546C55.486 371.696 55.282 371.780 55.070 371.780C54.858 371.780 54.654 371.696 54.504 371.546C54.354 371.396 54.270 371.192 54.270 370.980C54.270 370.768 54.354 370.564 54.504 370.414C54.654 370.264 54.858 370.180 55.070 370.180C55.282 370.180 55.486 370.264 55.636 370.414C55.786 370.564 55.870 370.768 55.870 370.980Z" />
<path fill="none" stroke="#000000" stroke-width="0.500" d="M55.070 370.980h0.001" />
<path fill="none" stroke="#000000" stroke-width="0.350" d="M42.020 323.130L46.020 323.130" />
<path fill="none" stroke="#000000" stroke-width="0.350" d="M44.020 321.130L44.020 325.130" />
<path fill="#ffffff" stroke="none" d="M44.820 323.130C44.820 323.342 44.736 323.546 44.586 323.696C44.436 323.846 44.232 323.930 44.020 323.930C43.808 323.930 43.604 323.846 43.454 323.696C43.304 323.546 43.220 323.342 43.220 323.130C43.220 322.918 43.304 322.714 43.454 322.564C43.604 322.414 43.808 322.330 44.020 322.330C44.232 322.330 44.436 322.414 44.586 322.564C44.736 322.714 44.820 322.918 44.820 323.130Z" />
<path fill="none" stroke="#000000" stroke-width="0.500" d="M44.020 323.130h0.001" />
<path fill="none" stroke="#000000" stroke-width="0.350" d="M39.810 301.980L43.810 301.980" />
<path fill="none" stroke="#000000" stroke-width="0.350" d="M41.810 299.980L41.810 303.980" />
<path fill="#ffffff" stroke="none" d="M42.610 301.980C42.610 302.192 42.526 302.396 42.376 302.546C42.226 302.696 42.022 302.780 41.810 302.780C41.598 302.780 41.394 302.696 41.244 302.546C41.094 302.396 41.010 302.192 41.010 301.980C41.010 301.768 41.094 301.564 41.244 301.414C41.394 301.264 41.598 301.180 41.810 301.180C42.022 301.180 42.226 301.264 42.376 301.414C42.526 301.564 42.610 301.768 42.610 301.980Z" />
<path fill="none" stroke="#000000" stroke-width="0.500" d="M41.810 301.980h0.001" />
<path fill="none" stroke="#000000" stroke-width="0.350" d="M70.480 278.850L74.480 278.850" />
<path fill="none" stroke="#000000" stroke-width="0.350" d="M72.480 276.850L72.480 280.850" />
<path fill="#ffffff" stroke="none" d="M73.280 278.850C73.280 279.062 73.196 279.266 73.046 279.416C72.896 279.566 72.692 279.650 72.480 279.650C72.268 279.650 72.064 279.566 71.914 279.416C71.764 279.266 71.680 279.062 71.680 278.850C71.680 278.638 71.764 278.434 71.914 278.284C72.064 278.134 72.268 278.050 72.480 278.050C72.692 278.050 72.896 278.134 73.046 278.284C73.196 278.434 73.280 278.638 73.280 278.850Z" />
<path fill="none" stroke="#000000" stroke-width="0.500" d="M72.480 278.850h0.001" />
<path fill="none" stroke="#000000" stroke-width="0.350" d="M89.130 146.080L93.130 146.080" />
<path fill="none" stroke="#000000" stroke-width="0.350" d="M91.130 144.080L91.130 148.080" />
<path fill="#ffffff" stroke="none" d="M91.930 146.080C91.930 146.292 91.846 146.496 91.696 146.646C91.546 146.796 91.342 146.880 91.130 146.880C90.918 146.880 90.714 146.796 90.564 146.646C90.414 146.496 90.330 146.292 90.330 146.080C90.330 145.868 90.414 145.664 90.564 145.514C90.714 145.364 90.918 145.280 91.130 145.280C91.342 145.280 91.546 145.364 91.696 145.514C91.846 145.664 91.930 145.868 91.930 146.080Z" />
<path fill="none" stroke="#000000" stroke-width="0.500" d="M91.130 146.080h0.001" />
<path fill="none" stroke="#000000" stroke-width="0.350" d="M118.330 127.140L122.330 127.140" />
<path fill="none" stroke="#000000" stroke-width="0.350" d="M120.330 125.140L120.330 129.140" />
<path fill="#ffffff" stroke="none" d="M121.130 127.140C121.130 127.352 121.046 127.556 120.896 127.706C120.746 127.856 120.542 127.940 120.330 127.940C120.118 127.940 119.914 127.856 119.764 127.706C119.614 127.556 119.530 127.352 119.530 127.140C119.530 126.928 119.614 126.724 119.764 126.574C119.914 126.424 120.118 126.340 120.330 126.340C120.542 126.340 120.746 126.424 120.896 126.574C121.046 126.724 121.130 126.928 121.130 127.140Z" />
<path fill="none" stroke="#000000" stroke-width="0.500" d="M120.330 127.140h0.001" />
<path fill="none" stroke="#000000" stroke-width="0.350" d="M145.820 90.630L149.820 90.630" />
<path fill="none" stroke="#000000" stroke-width="0.350" d="M147.820 88.630L147.820 92.630" />
<path fill="#ffffff" stroke="none" d="M148.620 90.630C148.620 90.842 148.536 91.046 148.386 91.196C148.236 91.346 148.032 91.430 147.820 91.430C147.608 91.430 147.404 91.346 147.254 91.196C147.104 91.046 147.020 90.842 147.020 90.630C147.020 90.418 147.104 90.214 147.254 90.064C147.404 89.914 147.608 89.830 147.820 89.830C148.032 89.830 148.236 89.914 148.386 90.064C148.536 90.214 148.620 90.418 148.620 90.630Z" />
<path fill="none" stroke="#000000" stroke-width="0.500" d="M147.820 90.630h0.001" />
<path fill="none" stroke="#000000" stroke-width="0.350" d="M176.150 73.110L180.150 73.110" />
<path fill="none" stroke="#000000" stroke-width="0.350" d="M178.150 71.110L178.150 75.110" />
<path fill="#ffffff" stroke="none" d="M178.950 73.110C178.950 73.322 178.866 73.526 178.716 73.676C178.566 73.826 178.362 73.910 178.150 73.910C177.938 73.910 177.734 73.826 177.584 73.676C177.434 73.526 177.350 73.322 177.350 73.110C177.350 72.898 177.434 72.694 177.584 72.544C177.734 72.394 177.938 72.310 178.150 72.310C178.362 72.310 178.566 72.394 178.716 72.544C178.866 72.694 178.950 72.898 178.950 73.110Z" />
<path fill="none" stroke="#000000" stroke-width="0.500" d="M178.150 73.110h0.001" />
<path fill="none" stroke="#000000" stroke-width="0.350" d="M207.450 14.320L211.450 14.320" />
<path fill="none" stroke="#000000" stroke-width="0.350" d="M209.450 12.320L209.450 16.320" />
<path fill="#ffffff" stroke="none" d="M210.250 14.320C210.250 14.532 210.166 14.736 210.016 14.886C209.866 15.036 209.662 15.120 209.450 15.120C209.238 15.120 209.034 15.036 208.884 14.886C208.734 14.736 208.650 14.532 208.650 14.320C208.650 14.108 208.734 13.904 208.884 13.754C209.034 13.604 209.238 13.520 209.450 13.520C209.662 13.520 209.866 13.604 210.016 13.754C210.166 13.904 210.250 14.108 210.250 14.320Z" />
<path fill="none" stroke="#000000" stroke-width="0.500" d="M209.450 14.320h0.001" />
<path fill="none" stroke="#000000" stroke-width="0.350" d="M229.730 2.930L233.730 2.930" />
<path fill="none" stroke="#000000" stroke-width="0.350" d="M231.730 0.930L231.730 4.930" />
<path fill="#ffffff" stroke="none" d="M232.530 2.930C232.530 3.142 232.446 3.346 232.296 3.496C232.146 3.646 231.942 3.730 231.730 3.730C231.518 3.730 231.314 3.646 231.164 3.496C231.014 3.346 230.930 3.142 230.930 2.930C230.930 2.718 231.014 2.514 231.164 2.364C231.314 2.214 231.518 2.130 231.730 2.130C231.942 2.130 232.146 2.214 232.296 2.364C232.446 2.514 232.530 2.718 232.530 2.930Z" />
<path fill="none" stroke="#000000" stroke-width="0.500" d="M231.730 2.930h0.001" />
<path fill="none" stroke="#000000" stroke-width="0.350" d="M258.020 7.410L262.020 7.410" />
<path fill="none" stroke="#000000" stroke-width="0.350" d="M260.020 5.410L260.020 9.410" />
<path fill="#ffffff" stroke="none" d="M260.820 7.410C260.820 7.622 260.736 7.826 260.586 7.976C260.436 8.126 260.232 8.210 260.020 8.210C259.808 8.210 259.604 8.126 259.454 7.976C259.304 7.826 259.220 7.622 259.220 7.410C259.220 7.198 259.304 6.994 259.454 6.844C259.604 6.694 259.808 6.610 260.020 6.610C260.232 6.610 260.436 6.694 260.586 6.844C260.736 6.994 260.820 7.198 260.820 7.410Z" />
<path fill="none" stroke="#000000" stroke-width="0.500" d="M260.020 7.410h0.001" />
<path fill="none" stroke="#000000" stroke-width="0.350" d="M277.750 27.190L281.750 27.190" />
<path fill="none" stroke="#000000" stroke-width="0.350" d="M279.750 25.190L279.750 29.190" />
<path fill="#ffffff" stroke="none" d="M280.550 27.190C280.550 27.402 280.466 27.606 280.316 27.756C280.166 27.906 279.962 27.990 279.750 27.990C279.538 27.990 279.334 27.906 279.184 27.756C279.034 27.606 278.950 27.402 278.950 27.190C278.950 26.978 279.034 26.774 279.184 26.624C279.334 26.474 279.538 26.390 279.750 26.390C279.962 26.390 280.166 26.474 280.316 26.624C280.466 26.774 280.550 26.978 280.550 27.190Z" />
<path fill="none" stroke="#000000" stroke-width="0.500" d="M279.750 27.190h0.001" />
<path fill="none" stroke="#000000" stroke-width="0.350" d="M273.270 55.480L277.270 55.480" />
<path fill="none" stroke="#000000" stroke-width="0.350" d="M275.270 53.480L275.270 57.480" />
<path fill="#ffffff" stroke="none" d="M276.070 55.480C276.070 55.692 275.986 55.896 275.836 56.046C275.686 56.196 275.482 56.280 275.270 56.280C275.058 56.280 274.854 56.196 274.704 56.046C274.554 55.896 274.470 55.692 274.470 55.480C274.470 55.268 274.554 55.064 274.704 54.914C274.854 54.764 275.058 54.680 275.270 54.680C275.482 54.680 275.686 54.764 275.836 54.914C275.986 55.064 276.070 55.268 276.070 55.480Z" />
<path fill="none" stroke="#000000" stroke-width="0.500" d="M275.270 55.480h0.001" />
<path fill="none" stroke="#000000" stroke-width="0.350" d="M162.600 81.280L166.600 81.280" />
<path fill="none" stroke="#000000" stroke-width="0.350" d="M164.600 79.280L164.600 83.280" />
<path fill="#ffffff" stroke="none" d="M165.400 81.280C165.400 81.492 165.316 81.696 165.166 81.846C165.016 81.996 164.812 82.080 164.600 82.080C164.388 82.080 164.184 81.996 164.034 81.846C163.884 81.696 163.800 81.492 163.800 81.280C163.800 81.068 163.884 80.864 164.034 80.714C164.184 80.564 164.388 80.480 164.600 80.480C164.812 80.480 165.016 80.564 165.166 80.714C165.316 80.864 165.400 81.068 165.400 81.280Z" />
<path fill="none" stroke="#000000" stroke-width="0.500" d="M164.600 81.280h0.001" />
<path fill="none" stroke="#000000" stroke-width="0.350" d="M193.220 75.890L197.220 75.890" />
<path fill="none" stroke="#000000" stroke-width="0.350" d="M195.220 73.890L195.220 77.890" />
<path fill="#ffffff" stroke="none" d="M196.020 75.890C196.020 76.102 195.936 76.306 195.786 76.456C195.636 76.606 195.432 76.690 195.220 76.690C195.008 76.690 194.804 76.606 194.654 76.456C194.504 76.306 194.420 76.102 194.420 75.890C194.420 75.678 194.504 75.474 194.654 75.324C194.804 75.174 195.008 75.090 195.220 75.090C195.432 75.090 195.636 75.174 195.786 75.324C195.936 75.474 196.020 75.678 196.020 75.890Z" />
<path fill="none" stroke="#000000" stroke-width="0.500" d="M195.220 75.890h0.001" />
<path fill="none" stroke="#000000" stroke-width="0.350" d="M213.230 41.140L217.230 41.140" />
<path fill="none" stroke="#000000" stroke-width="0.350" d="M215.230 39.140L215.230 43.140" />
<path fill="#ffffff" stroke="none" d="M216.030 41.140C216.030 41.352 215.946 41.556 215.796 41.706C215.646 41.856 215.442 41.940 215.230 41.940C215.018 41.940 214.814 41.856 214.664 41.706C214.514 41.556 214.430 41.352 214.430 41.140C214.430 40.928 214.514 40.724 214.664 40.574C214.814 40.424 215.018 40.340 215.230 40.340C215.442 40.340 215.646 40.424 215.796 40.574C215.946 40.724 216.030 40.928 216.030 41.140Z" />
<path fill="none" stroke="#000000" stroke-width="0.500" d="M215.230 41.140h0.001" />
<path fill="none" stroke="#000000" stroke-width="0.350" d="M217.030 23.400L221.030 23.400" />
<path fill="none" stroke="#000000" stroke-width="0.350" d="M219.030 21.400L219.030 25.400" />
<path fill="#ffffff" stroke="none" d="M219.830 23.400C219.830 23.612 219.746 23.816 219.596 23.966C219.446 24.116 219.242 24.200 219.030 24.200C218.818 24.200 218.614 24.116 218.464 23.966C218.314 23.816 218.230 23.612 218.230 23.400C218.230 23.188 218.314 22.984 218.464 22.834C218.614 22.684 218.818 22.600 219.030 22.600C219.242 22.600 219.446 22.684 219.596 22.834C219.746 22.984 219.830 23.188 219.830 23.400Z" />
<path fill="none" stroke="#000000" stroke-width="0.500" d="M219.030 23.400h0.001" />
<path fill="none" stroke="#000000" stroke-width="0.350" d="M232.110 8.880L236.110 8.880" />
<path fill="none" stroke="#000000" stroke-width="0.350" d="M234.110 6.880L234.110 10.880" />
<path fill="#ffffff" stroke="none" d="M234.910 8.880C234.910 9.092 234.826 9.296 234.676 9.446C234.526 9.596 234.322 9.680 234.110 9.680C233.898 9.680 233.694 9.596 233.544 9.446C233.394 9.296 233.310 9.092 233.310 8.880C233.310 8.668 233.394 8.464 233.544 8.314C233.694 8.164 233.898 8.080 234.110 8.080C234.322 8.080 234.526 8.164 234.676 8.314C234.826 8.464 234.910 8.668 234.910 8.880Z" />
<path fill="none" stroke="#000000" stroke-width="0.500" d="M234.110 8.880h0.001" />
<path fill="none" stroke="#000000" stroke-width="0.350" d="M241.750 10.070L245.750 10.070" />
<path fill="none" stroke="#000000" stroke-width="0.350" d="M243.750 8.070L243.750 12.070" />
<path fill="#ffffff" stroke="none" d="M244.550 10.070C244.550 10.282 244.466 10.486 244.316 10.636C244.166 10.786 243.962 10.870 243.750 10.870C243.538 10.870 243.334 10.786 243.184 10.636C243.034 10.486 242.950 10.282 242.950 10.070C242.950 9.858 243.034 9.654 243.184 9.504C243.334 9.354 243.538 9.270 243.750 9.270C243.962 9.270 244.166 9.354 244.316 9.504C244.466 9.654 244.550 9.858 244.550 10.070Z" />
<path fill="none" stroke="#000000" stroke-width="0.500" d="M243.750 10.070h0.001" />
<path fill="none" stroke="#000000" stroke-width="0.350" d="M254.790 31.790L258.790 31.790" />
<path fill="none" stroke="#000000" stroke-width="0.350" d="M256.790 29.790L256.790 33.790" />
<path fill="#ffffff" stroke="none" d="M257.590 31.790C257.590 32.002 257.506 32.206 257.356 32.356C257.206 32.506 257.002 32.590 256.790 32.590C256.578 32.590 256.374 32.506 256.224 32.356C256.074 32.206 255.990 32.002 255.990 31.790C255.990 31.578 256.074 31.374 256.224 31.224C256.374 31.074 256.578 30.990 256.790 30.990C257.002 30.990 257.206 31.074 257.356 31.224C257.506 31.374 257.590 31.578 257.590 31.790Z" />
<path fill="none" stroke="#000000" stroke-width="0.500" d="M256.790 31.790h0.001" />
<path fill="none" stroke="#000000" stroke-width="0.350" d="M286.080 30.140L290.080 30.140" />
<path fill="none" stroke="#000000" stroke-width="0.350" d="M288.080 28.140L288.080 32.140" />
<path fill="#ffffff" stroke="none" d="M288.880 30.140C288.880 30.352 288.796 30.556 288.646 30.706C288.496 30.856 288.292 30.940 288.080 30.940C287.868 30.940 287.664 30.856 287.514 30.706C287.364 30.556 287.280 30.352 287.280 30.140C287.280 29.928 287.364 29.724 287.514 29.574C287.664 29.424 287.868 29.340 288.080 29.340C288.292 29.340 288.496 29.424 288.646 29.574C288.796 29.724 288.880 29.928 288.880 30.140Z" />
<path fill="none" stroke="#000000" stroke-width="0.500" d="M288.080 30.140h0.001" />
<path fill="none" stroke="#000000" stroke-width="0.350" d="M311.420 20.390L315.420 20.390" />
<path fill="none" stroke="#000000" stroke-width="0.350" d="M313.420 18.390L313.420 22.390" />
<path fill="#ffffff" stroke="none" d="M314.220 20.390C314.220 20.602 314.136 20.806 313.986 20.956C313.836 21.106 313.632 21.190 313.420 21.190C313.208 21.190 313.004 21.106 312.854 20.956C312.704 20.806 312.620 20.602 312.620 20.390C312.620 20.178 312.704 19.974 312.854 19.824C313.004 19.674 313.208 19.590 313.420 19.590C313.632 19.590 313.836 19.674 313.986 19.824C314.136 19.974 314.220 20.178 314.220 20.390Z" />
<path fill="none" stroke="#000000" stroke-width="0.500" d="M313.420 20.390h0.001" />
<path fill="none" stroke="#000000" stroke-width="0.350" d="M321.460 28.210L325.460 28.210" />
<path fill="none" stroke="#000000" stroke-width="0.350" d="M323.460 26.210L323.460 30.210" />
<path fill="#ffffff" stroke="none" d="M324.260 28.210C324.260 28.422 324.176 28.626 324.026 28.776C323.876 28.926 323.672 29.010 323.460 29.010C323.248 29.010 323.044 28.926 322.894 28.776C322.744 28.626 322.660 28.422 322.660 28.210C322.660 27.998 322.744 27.794 322.894 27.644C323.044 27.494 323.248 27.410 323.460 27.410C323.672 27.410 323.876 27.494 324.026 27.644C324.176 27.794 324.260 27.998 324.260 28.210Z" />
<path fill="none" stroke="#000000" stroke-width="0.500" d="M323.460 28.210h0.001" />
<path fill="none" stroke="#000000" stroke-width="0.350" d="M382.910 69.660L386.910 69.660" />
<path fill="none" stroke="#000000" stroke-width="0.350" d="M384.910 67.660L384.910 71.660" />
<path fill="#ffffff" stroke="none" d="M385.710 69.660C385.710 69.872 385.626 70.076 385.476 70.226C385.326 70.376 385.122 70.460 384.910 70.460C384.698 70.460 384.494 70.376 384.344 70.226C384.194 70.076 384.110 69.872 384.110 69.660C384.110 69.448 384.194 69.244 384.344 69.094C384.494 68.944 384.698 68.860 384.910 68.860C385.122 68.860 385.326 68.944 385.476 69.094C385.626 69.244 385.710 69.448 385.710 69.660Z" />
<path fill="none" stroke="#000000" stroke-width="0.500" d="M384.910 69.660h0.001" />
</g>
<g id="X_aaaaaaa_highway32.svg">
<text font-family="cmss10" font-size="6.974" fill="black" stroke="none" transform="matrix(1.000 0.000 -0.000 -1.000 0.965 594.945)">&#x31;</text>
<text font-family="cmss10" font-size="6.974" fill="black" stroke="none" transform="matrix(1.000 0.000 -0.000 -1.000 18.935 539.615)">&#x32;</text>
<text font-family="cmss10" font-size="6.974" fill="black" stroke="none" transform="matrix(1.000 0.000 -0.000 -1.000 11.965 537.065)">&#x33;</text>
<text font-family="cmss10" font-size="6.974" fill="black" stroke="none" transform="matrix(1.000 0.000 -0.000 -1.000 20.745 529.465)">&#x34;</text>
<text font-family="cmss10" font-size="6.974" fill="black" stroke="none" transform="matrix(1.000 0.000 -0.000 -1.000 13.715 517.335)">&#x35;</text>
<text font-family="cmss10" font-size="6.974" fill="black" stroke="none" transform="matrix(1.000 0.000 -0.000 -1.000 46.545 475.325)">&#x36;</text>
<text font-family="cmss10" font-size="6.974" fill="black" stroke="none" transform="matrix(1.000 0.000 -0.000 -1.000 47.165 440.065)">&#x37;</text>
<text font-family="cmss10" font-size="6.974" fill="black" stroke="none" transform="matrix(1.000 0.000 -0.000 -1.000 45.185 383.365)">&#x38;</text>
<text font-family="cmss10" font-size="6.974" fill="black" stroke="none" transform="matrix(1.000 0.000 -0.000 -1.000 52.945 368.855)">&#x39;</text>
<text font-family="cmss10" font-size="6.974" fill="black" stroke="none" transform="matrix(1.000 0.000 -0.000 -1.000 41.895 321.005)">&#x31;&#x30;</text>
<text font-family="cmss10" font-size="6.974" fill="black" stroke="none" transform="matrix(1.000 0.000 -0.000 -1.000 39.685 299.855)">&#x31;&#x31;</text>
<text font-family="cmss10" font-size="6.974" fill="black" stroke="none" transform="matrix(1.000 0.000 -0.000 -1.000 70.355 276.725)">&#x31;&#x32;</text>
<text font-family="cmss10" font-size="6.974" fill="black" stroke="none" transform="matrix(1.000 0.000 -0.000 -1.000 89.005 143.955)">&#x31;&#x33;</text>
<text font-family="cmss10" font-size="6.974" fill="black" stroke="none" transform="matrix(1.000 0.000 -0.000 -1.000 118.205 125.015)">&#x31;&#x34;</text>
<text font-family="cmss10" font-size="6.974" fill="black" stroke="none" transform="matrix(1.000 0.000 -0.000 -1.000 145.695 88.505)">&#x31;&#x35;</text>
<text font-family="cmss10" font-size="6.974" fill="black" stroke="none" transform="matrix(1.000 0.000 -0.000 -1.000 176.025 70.985)">&#x31;&#x36;</text>
<text font-family="cmss10" font-size="6.974" fill="black" stroke="none" transform="matrix(1.000 0.000 -0.000 -1.000 207.325 12.195)">&#x31;&#x37;</text>
<text font-family="cmss10" font-size="6.974" fill="black" stroke="none" transform="matrix(1.000 0.000 -0.000 -1.000 229.605 0.805)">&#x31;&#x38;</text>
<text font-family="cmss10" font-size="6.974" fill="black" stroke="none" transform="matrix(1.000 0.000 -0.000 -1.000 257.895 5.285)">&#x31;&#x39;</text>
<text font-family="cmss10" font-size="6.974" fill="black" stroke="none" transform="matrix(1.000 0.000 -0.000 -1.000 277.625 25.065)">&#x32;&#x30;</text>
<text font-family="cmss10" font-size="6.974" fill="black" stroke="none" transform="matrix(1.000 0.000 -0.000 -1.000 273.145 53.355)">&#x32;&#x31;</text>
<text font-family="cmss10" font-size="6.974" fill="black" stroke="none" transform="matrix(1.000 0.000 -0.000 -1.000 162.475 79.155)">&#x32;&#x32;</text>
<text font-family="cmss10" font-size="6.974" fill="black" stroke="none" transform="matrix(1.000 0.000 -0.000 -1.000 193.095 73.765)">&#x32;&#x33;</text>
<text font-family="cmss10" font-size="6.974" fill="black" stroke="none" transform="matrix(1.000 0.000 -0.000 -1.000 213.105 39.015)">&#x32;&#x34;</text>
<text font-family="cmss10" font-size="6.974" fill="black" stroke="none" transform="matrix(1.000 0.000 -0.000 -1.000 216.905 21.275)">&#x32;&#x35;</text>
<text font-family="cmss10" font-size="6.974" fill="black" stroke="none" transform="matrix(1.000 0.000 -0.000 -1.000 231.985 6.755)">&#x32;&#x36;</text>
<text font-family="cmss10" font-size="6.974" fill="black" stroke="none" transform="matrix(1.000 0.000 -0.000 -1.000 241.625 7.945)">&#x32;&#x37;</text>
<text font-family="cmss10" font-size="6.974" fill="black" stroke="none" transform="matrix(1.000 0.000 -0.000 -1.000 254.665 29.665)">&#x32;&#x38;</text>
<text font-family="cmss10" font-size="6.974" fill="black" stroke="none" transform="matrix(1.000 0.000 -0.000 -1.000 285.955 28.015)">&#x32;&#x39;</text>
<text font-family="cmss10" font-size="6.974" fill="black" stroke="none" transform="matrix(1.000 0.000 -0.000 -1.000 311.295 18.265)">&#x33;&#x30;</text>
<text font-family="cmss10" font-size="6.974" fill="black" stroke="none" transform="matrix(1.000 0.000 -0.000 -1.000 321.335 26.085)">&#x33;&#x31;</text>
<text font-family="cmss10" font-size="6.974" fill="black" stroke="none" transform="matrix(1.000 0.000 -0.000 -1.000 382.785 67.535)">&#x33;&#x32;</text>
</g>
<clipPath id="clip_viewBox">
<path d="M-31.433 -625.417L418.260 -625.417L418.260 34.276L-31.433 34.276z" />
</clipPath>
</defs>
<g transform="scale(1,-1)" fill="#000000" stroke="#000000" stroke-linecap="round" stroke-linejoin="round" stroke-miterlimit="10" fill-rule="evenodd" clip-rule="evenodd" clip-path="url(#clip_viewBox)">
<use x="-3.087" y="-597.071" xlink:href="#E_aaaaaaa_highway32.svg" />
<use x="-0.087" y="-594.071" xlink:href="#X_aaaaaaa_highway32.svg" />
</g>
</svg>
