<?xml version="1.0" encoding="UTF-8" standalone="no"?>
<svg
   xmlns:dc="http://purl.org/dc/elements/1.1/"
   xmlns:cc="http://creativecommons.org/ns#"
   xmlns:rdf="http://www.w3.org/1999/02/22-rdf-syntax-ns#"
   xmlns:svg="http://www.w3.org/2000/svg"
   xmlns="http://www.w3.org/2000/svg"
   xmlns:sodipodi="http://sodipodi.sourceforge.net/DTD/sodipodi-0.dtd"
   xmlns:inkscape="http://www.inkscape.org/namespaces/inkscape"
   version="1.1"
   width="606.520mm"
   height="492.320mm"
   viewBox="0 0 606.520 492.320"
   id="svg195"
   sodipodi:docname="apple_crumble_extend.svg"
   inkscape:version="0.92.2 5c3e80d, 2017-08-06">
  <metadata
     id="metadata201">
    <rdf:RDF>
      <cc:Work
         rdf:about="">
        <dc:format>image/svg+xml</dc:format>
        <dc:type
           rdf:resource="http://purl.org/dc/dcmitype/StillImage" />
      </cc:Work>
    </rdf:RDF>
  </metadata>
  <defs
     id="defs199" />
  <sodipodi:namedview
     pagecolor="#ffffff"
     bordercolor="#666666"
     borderopacity="1"
     objecttolerance="10"
     gridtolerance="10"
     guidetolerance="10"
     inkscape:pageopacity="0"
     inkscape:pageshadow="2"
     inkscape:window-width="1373"
     inkscape:window-height="731"
     id="namedview197"
     showgrid="false"
     inkscape:zoom="0.10043153"
     inkscape:cx="2477.792"
     inkscape:cy="-517.88863"
     inkscape:window-x="0"
     inkscape:window-y="0"
     inkscape:window-maximized="0"
     inkscape:current-layer="svg195" />
  <title
     id="title2">apple_crumble</title>
  <g
     id="g1329">
    <path
       inkscape:connector-curvature="0"
       id="path4"
       d="M 234.10417,225 V 205"
       style="fill:none;stroke:#000000;stroke-width:0.40000001px" />
    <path
       sodipodi:nodetypes="cc"
       inkscape:connector-curvature="0"
       id="path6"
       d="m 234.32,217.68 c 0,0 -0.17623,5.1795 0.15308,7.32"
       style="fill:none;stroke:#000000;stroke-width:0.40000001px" />
    <path
       inkscape:connector-curvature="0"
       id="path8"
       d="m 234.32,217.68 6.96,-7.72"
       style="fill:none;stroke:#000000;stroke-width:0.40000001px" />
    <path
       inkscape:connector-curvature="0"
       id="path10"
       d="m 241.28,209.96 49.88,10.6"
       style="fill:none;stroke:#000000;stroke-width:0.40000001px" />
    <path
       inkscape:connector-curvature="0"
       id="path12"
       d="m 292.75907,220.56 -54.6,50.88"
       style="fill:none;stroke:#000000;stroke-width:0.40000001px" />
    <path
       inkscape:connector-curvature="0"
       id="path14"
       d="m 238.15907,271.44 -35.12,8.12"
       style="fill:none;stroke:#000000;stroke-width:0.40000001px" />
    <path
       inkscape:connector-curvature="0"
       id="path16"
       d="m 203.03907,279.56 -15.6,-1.64"
       style="fill:none;stroke:#000000;stroke-width:0.40000001px" />
    <path
       inkscape:connector-curvature="0"
       id="path18"
       d="m 187.43907,277.92 -5.04,-1.08"
       style="fill:none;stroke:#000000;stroke-width:0.40000001px" />
    <path
       inkscape:connector-curvature="0"
       id="path20"
       d="m 223.14703,218.8 10.48,-1.12"
       style="fill:none;stroke:#000000;stroke-width:0.40000001px" />
    <path
       inkscape:connector-curvature="0"
       id="path22"
       d="m 212.34703,233.68 10.8,-14.88"
       style="fill:none;stroke:#000000;stroke-width:0.40000001px" />
    <path
       inkscape:connector-curvature="0"
       id="path24"
       d="m 201.18703,253.76 11.16,-20.08"
       style="fill:none;stroke:#000000;stroke-width:0.40000001px" />
    <path
       inkscape:connector-curvature="0"
       id="path26"
       d="m 201.18703,243.52 v 10.24"
       style="fill:none;stroke:#000000;stroke-width:0.40000001px" />
    <path
       inkscape:connector-curvature="0"
       id="path28"
       d="m 189.94703,244.52 11.24,-1"
       style="fill:none;stroke:#000000;stroke-width:0.40000001px" />
    <path
       inkscape:connector-curvature="0"
       id="path30"
       d="m 171.58703,266.36 18.36,-21.84"
       style="fill:none;stroke:#000000;stroke-width:0.40000001px" />
    <path
       inkscape:connector-curvature="0"
       id="path32"
       d="m 171.58703,266.36 -14.32,6.68"
       style="fill:none;stroke:#000000;stroke-width:0.40000001px" />
    <path
       inkscape:connector-curvature="0"
       id="path34"
       d="m 157.26703,273.04 -9.8,1.4"
       style="fill:none;stroke:#000000;stroke-width:0.40000001px" />
    <path
       inkscape:connector-curvature="0"
       id="path36"
       d="m 147.46703,274.44 -5.76,8.2"
       style="fill:none;stroke:#000000;stroke-width:0.40000001px" />
    <path
       inkscape:connector-curvature="0"
       id="path38"
       d="m 141.70703,282.64 -26.68,4.68"
       style="fill:none;stroke:#000000;stroke-width:0.40000001px" />
    <path
       inkscape:connector-curvature="0"
       id="path40"
       d="M 115.02703,287.32 93.427036,286.6"
       style="fill:none;stroke:#000000;stroke-width:0.40000001px" />
    <path
       inkscape:connector-curvature="0"
       id="path42"
       d="m 160.22703,261.32 11.36,5.04"
       style="fill:none;stroke:#000000;stroke-width:0.40000001px" />
    <path
       inkscape:connector-curvature="0"
       id="path44"
       d="m 142.34703,265.12 17.88,-3.8"
       style="fill:none;stroke:#000000;stroke-width:0.40000001px" />
    <path
       inkscape:connector-curvature="0"
       id="path46"
       d="m 134.34703,272.12 8,-7"
       style="fill:none;stroke:#000000;stroke-width:0.40000001px" />
    <path
       inkscape:connector-curvature="0"
       id="path48"
       d="m 123.18703,273.88 11.16,-1.76"
       style="fill:none;stroke:#000000;stroke-width:0.40000001px" />
    <path
       inkscape:connector-curvature="0"
       id="path50"
       d="m 123.18703,273.88 -21.92,-8.84"
       style="fill:none;stroke:#000000;stroke-width:0.40000001px" />
    <path
       inkscape:connector-curvature="0"
       id="path52"
       d="m 123.18703,273.88 -14.76,6.56"
       style="fill:none;stroke:#000000;stroke-width:0.40000001px" />
    <text
       transform="scale(-1,1)"
       y="276.84"
       x="-182.39911"
       id="text55"
       style="font-size:3.52777767px">26</text>
    <text
       transform="scale(-1,1)"
       y="276.84"
       x="-182.39911"
       id="text57"
       style="font-size:3.52777767px">pov.11</text>
    <text
       transform="scale(-1,1)"
       y="280.44"
       x="-108.42706"
       id="text59"
       style="font-size:3.52777767px">1</text>
    <text
       transform="scale(-1,1)"
       y="273.88"
       x="-123.18702"
       id="text61"
       style="font-size:3.52777767px">2</text>
    <text
       transform="scale(-1,1)"
       y="265.04001"
       x="-101.26703"
       id="text63"
       style="font-size:3.52777767px">3</text>
    <text
       transform="scale(-1,1)"
       y="272.12"
       x="-134.34702"
       id="text65"
       style="font-size:3.52777767px">4</text>
    <text
       transform="scale(-1,1)"
       y="265.12"
       x="-142.34703"
       id="text67"
       style="font-size:3.52777767px">5</text>
    <text
       transform="scale(-1,1)"
       y="261.32001"
       x="-160.22705"
       id="text69"
       style="font-size:3.52777767px">6</text>
    <text
       transform="scale(-1,1)"
       y="266.35999"
       x="-171.58708"
       id="text71"
       style="font-size:3.52777767px">7</text>
    <text
       transform="scale(-1,1)"
       y="286.60001"
       x="-93.42704"
       id="text73"
       style="font-size:3.52777767px">8</text>
    <text
       transform="scale(-1,1)"
       y="287.32001"
       x="-115.02701"
       id="text75"
       style="font-size:3.52777767px">9</text>
    <text
       transform="scale(-1,1)"
       y="282.64001"
       x="-141.70705"
       id="text77"
       style="font-size:3.52777767px">10</text>
    <text
       transform="scale(-1,1)"
       y="274.44"
       x="-147.46704"
       id="text79"
       style="font-size:3.52777767px">11</text>
    <text
       transform="scale(-1,1)"
       y="273.04001"
       x="-157.26706"
       id="text81"
       style="font-size:3.52777767px">12</text>
    <text
       y="244.52"
       x="278"
       id="text83"
       style="font-size:3.52777767px;">13</text>
    <text
       transform="scale(-1,1)"
       y="243.52"
       x="-201.18706"
       id="text85"
       style="font-size:3.52777767px">14</text>
    <text
       transform="scale(-1,1)"
       y="253.75999"
       x="-201.18706"
       id="text87"
       style="font-size:3.52777767px">15</text>
    <text
       transform="scale(-1,1)"
       y="233.67999"
       x="-212.34706"
       id="text89"
       style="font-size:3.52777767px">16</text>
    <text
       transform="scale(-1,1)"
       y="218.8"
       x="-223.14709"
       id="text91"
       style="font-size:3.52777767px">17</text>
    <text
       y="217.67999"
       x="234.32001"
       id="text93"
       style="font-size:3.52777767px;">18</text>
    <text
       y="225"
       x="234.10423"
       id="text95"
       style="font-size:3.52777767px">19</text>
    <text
       y="205"
       x="234.10423"
       id="text97"
       style="font-size:3.52777767px">20</text>
    <text
       y="209.96001"
       x="241.28"
       id="text99"
       style="font-size:3.52777767px;">21</text>
    <text
       y="220.56"
       x="291.16"
       id="text101"
       style="font-size:3.52777767px;">22</text>
    <text
       transform="scale(-1,1)"
       y="271.44"
       x="-238.1591"
       id="text103"
       style="font-size:3.52777767px">23</text>
    <text
       transform="scale(-1,1)"
       y="279.56"
       x="-203.03909"
       id="text105"
       style="font-size:3.52777767px">24</text>
    <text
       transform="scale(-1,1)"
       y="277.92001"
       x="-187.43909"
       id="text107"
       style="font-size:3.52777767px">25</text>
    <circle
       transform="scale(-1,1)"
       r="1.131"
       cy="276.84"
       cx="-182.39911"
       id="apple_crumble.26"
       style="fill:none;stroke:#000000;stroke-width:0.05px" />
    <path
       inkscape:connector-curvature="0"
       id="path111"
       d="m 183.19907,276.04 -1.6,1.6 m 0,-1.6 1.6,1.6"
       style="fill:none;stroke:#000000;stroke-width:0.05px" />
    <circle
       transform="scale(-1,1)"
       r="1.131"
       cy="276.84"
       cx="-182.39911"
       id="circle113"
       style="fill:none;stroke:#000000;stroke-width:0.05px" />
    <path
       inkscape:connector-curvature="0"
       id="path115"
       d="m 183.19907,276.04 -1.6,1.6 m 0,-1.6 1.6,1.6"
       style="fill:none;stroke:#000000;stroke-width:0.05px" />
    <circle
       transform="scale(-1,1)"
       r="1.131"
       cy="280.44"
       cx="-108.42706"
       id="apple_crumble.1"
       style="fill:none;stroke:#000000;stroke-width:0.05px" />
    <path
       inkscape:connector-curvature="0"
       id="path118"
       d="m 109.22703,279.64 -1.6,1.6 m 0,-1.6 1.6,1.6"
       style="fill:none;stroke:#000000;stroke-width:0.05px" />
    <circle
       transform="scale(-1,1)"
       r="1.131"
       cy="273.88"
       cx="-123.18702"
       id="apple_crumble.2"
       style="fill:none;stroke:#000000;stroke-width:0.05px" />
    <path
       inkscape:connector-curvature="0"
       id="path121"
       d="m 123.98703,273.08 -1.6,1.6 m 0,-1.6 1.6,1.6"
       style="fill:none;stroke:#000000;stroke-width:0.05px" />
    <circle
       transform="scale(-1,1)"
       r="1.131"
       cy="265.04001"
       cx="-101.26703"
       id="apple_crumble.3"
       style="fill:none;stroke:#000000;stroke-width:0.05px" />
    <path
       inkscape:connector-curvature="0"
       id="path124"
       d="m 102.06703,264.24 -1.6,1.6 m 0,-1.6 1.6,1.6"
       style="fill:none;stroke:#000000;stroke-width:0.05px" />
    <circle
       transform="scale(-1,1)"
       r="1.131"
       cy="272.12"
       cx="-134.34702"
       id="apple_crumble.4"
       style="fill:none;stroke:#000000;stroke-width:0.05px" />
    <path
       inkscape:connector-curvature="0"
       id="path127"
       d="m 135.14703,271.32 -1.6,1.6 m 0,-1.6 1.6,1.6"
       style="fill:none;stroke:#000000;stroke-width:0.05px" />
    <circle
       transform="scale(-1,1)"
       r="1.131"
       cy="265.12"
       cx="-142.34703"
       id="apple_crumble.5"
       style="fill:none;stroke:#000000;stroke-width:0.05px" />
    <path
       inkscape:connector-curvature="0"
       id="path130"
       d="m 143.14703,264.32 -1.6,1.6 m 0,-1.6 1.6,1.6"
       style="fill:none;stroke:#000000;stroke-width:0.05px" />
    <circle
       transform="scale(-1,1)"
       r="1.131"
       cy="261.32001"
       cx="-160.22705"
       id="apple_crumble.6"
       style="fill:none;stroke:#000000;stroke-width:0.05px" />
    <path
       inkscape:connector-curvature="0"
       id="path133"
       d="m 161.02703,260.52 -1.6,1.6 m 0,-1.6 1.6,1.6"
       style="fill:none;stroke:#000000;stroke-width:0.05px" />
    <circle
       transform="scale(-1,1)"
       r="1.131"
       cy="266.35999"
       cx="-171.58708"
       id="apple_crumble.7"
       style="fill:none;stroke:#000000;stroke-width:0.05px" />
    <path
       inkscape:connector-curvature="0"
       id="path136"
       d="m 172.38703,265.56 -1.6,1.6 m 0,-1.6 1.6,1.6"
       style="fill:none;stroke:#000000;stroke-width:0.05px" />
    <circle
       transform="scale(-1,1)"
       r="1.131"
       cy="286.60001"
       cx="-93.42704"
       id="apple_crumble.8"
       style="fill:none;stroke:#000000;stroke-width:0.05px" />
    <path
       inkscape:connector-curvature="0"
       id="path139"
       d="m 94.227036,285.8 -1.6,1.6 m 0,-1.6 1.6,1.6"
       style="fill:none;stroke:#000000;stroke-width:0.05px" />
    <circle
       transform="scale(-1,1)"
       r="1.131"
       cy="287.32001"
       cx="-115.02701"
       id="apple_crumble.9"
       style="fill:none;stroke:#000000;stroke-width:0.05px" />
    <path
       inkscape:connector-curvature="0"
       id="path142"
       d="m 115.82703,286.52 -1.6,1.6 m 0,-1.6 1.6,1.6"
       style="fill:none;stroke:#000000;stroke-width:0.05px" />
    <circle
       transform="scale(-1,1)"
       r="1.131"
       cy="282.64001"
       cx="-141.70705"
       id="apple_crumble.10"
       style="fill:none;stroke:#000000;stroke-width:0.05px" />
    <path
       inkscape:connector-curvature="0"
       id="path145"
       d="m 142.50703,281.84 -1.6,1.6 m 0,-1.6 1.6,1.6"
       style="fill:none;stroke:#000000;stroke-width:0.05px" />
    <circle
       transform="scale(-1,1)"
       r="1.131"
       cy="274.44"
       cx="-147.46704"
       id="apple_crumble.11"
       style="fill:none;stroke:#000000;stroke-width:0.05px" />
    <path
       inkscape:connector-curvature="0"
       id="path148"
       d="m 148.26703,273.64 -1.6,1.6 m 0,-1.6 1.6,1.6"
       style="fill:none;stroke:#000000;stroke-width:0.05px" />
    <circle
       transform="scale(-1,1)"
       r="1.131"
       cy="273.04001"
       cx="-157.26706"
       id="apple_crumble.12"
       style="fill:none;stroke:#000000;stroke-width:0.05px" />
    <path
       inkscape:connector-curvature="0"
       id="path151"
       d="m 158.06703,272.24 -1.6,1.6 m 0,-1.6 1.6,1.6"
       style="fill:none;stroke:#000000;stroke-width:0.05px" />
    <circle
       transform="scale(-1,1)"
       r="1.131"
       cy="244.52"
       cx="-189.94707"
       id="apple_crumble.13"
       style="fill:none;stroke:#000000;stroke-width:0.05px" />
    <path
       inkscape:connector-curvature="0"
       id="path154"
       d="m 190.74703,243.72 -1.6,1.6 m 0,-1.6 1.6,1.6"
       style="fill:none;stroke:#000000;stroke-width:0.05px" />
    <circle
       transform="scale(-1,1)"
       r="1.131"
       cy="243.52"
       cx="-201.18706"
       id="apple_crumble.14"
       style="fill:none;stroke:#000000;stroke-width:0.05px" />
    <path
       inkscape:connector-curvature="0"
       id="path157"
       d="m 201.98703,242.72 -1.6,1.6 m 0,-1.6 1.6,1.6"
       style="fill:none;stroke:#000000;stroke-width:0.05px" />
    <circle
       transform="scale(-1,1)"
       r="1.131"
       cy="253.76001"
       cx="-201.18706"
       id="apple_crumble.15"
       style="fill:none;stroke:#000000;stroke-width:0.05px" />
    <path
       inkscape:connector-curvature="0"
       id="path160"
       d="m 201.98703,252.96 -1.6,1.6 m 0,-1.6 1.6,1.6"
       style="fill:none;stroke:#000000;stroke-width:0.05px" />
    <circle
       transform="scale(-1,1)"
       r="1.131"
       cy="233.68001"
       cx="-212.34706"
       id="apple_crumble.16"
       style="fill:none;stroke:#000000;stroke-width:0.05px" />
    <path
       inkscape:connector-curvature="0"
       id="path163"
       d="m 213.14703,232.88 -1.6,1.6 m 0,-1.6 1.6,1.6"
       style="fill:none;stroke:#000000;stroke-width:0.05px" />
    <circle
       transform="scale(-1,1)"
       r="1.131"
       cy="218.80002"
       cx="-223.14709"
       id="apple_crumble.17"
       style="fill:none;stroke:#000000;stroke-width:0.05px" />
    <path
       inkscape:connector-curvature="0"
       id="path166"
       d="m 223.94703,218 -1.6,1.6 m 0,-1.6 1.6,1.6"
       style="fill:none;stroke:#000000;stroke-width:0.05px" />
    <circle
       r="1.131"
       cy="217.67999"
       cx="234.32001"
       id="apple_crumble.18"
       style="fill:none;stroke:#000000;stroke-width:0.05px" />
    <path
       inkscape:connector-curvature="0"
       id="path169"
       d="m 233.52,216.88 1.6,1.6 m 0,-1.6 -1.6,1.6"
       style="fill:none;stroke:#000000;stroke-width:0.05px" />
    <circle
       r="1.131"
       cy="225"
       cx="234.10423"
       id="apple_crumble.19"
       style="fill:none;stroke:#000000;stroke-width:0.05px" />
    <path
       inkscape:connector-curvature="0"
       id="path172"
       d="m 233.30417,224.2 1.6,1.6 m 0,-1.6 -1.6,1.6"
       style="fill:none;stroke:#000000;stroke-width:0.05px" />
    <circle
       r="1.131"
       cy="205"
       cx="234.10423"
       id="apple_crumble.20"
       style="fill:none;stroke:#000000;stroke-width:0.05px" />
    <path
       inkscape:connector-curvature="0"
       id="path175"
       d="m 233.30417,204.2 1.6,1.6 m 0,-1.6 -1.6,1.6"
       style="fill:none;stroke:#000000;stroke-width:0.05px" />
    <circle
       r="1.131"
       cy="209.96002"
       cx="241.28"
       id="apple_crumble.21"
       style="fill:none;stroke:#000000;stroke-width:0.05px" />
    <path
       inkscape:connector-curvature="0"
       id="path178"
       d="m 240.48,209.16 1.6,1.6 m 0,-1.6 -1.6,1.6"
       style="fill:none;stroke:#000000;stroke-width:0.05px" />
    <circle
       r="1.131"
       cy="220.56"
       cx="291.16"
       id="apple_crumble.22"
       style="fill:none;stroke:#000000;stroke-width:0.05px" />
    <path
       inkscape:connector-curvature="0"
       id="path181"
       d="m 290.36,219.76 1.6,1.6 m 0,-1.6 -1.6,1.6"
       style="fill:none;stroke:#000000;stroke-width:0.05px" />
    <circle
       transform="scale(-1,1)"
       r="1.131"
       cy="271.44"
       cx="-238.1591"
       id="apple_crumble.23"
       style="fill:none;stroke:#000000;stroke-width:0.05px" />
    <path
       inkscape:connector-curvature="0"
       id="path184"
       d="m 238.95907,270.64 -1.6,1.6 m 0,-1.6 1.6,1.6"
       style="fill:none;stroke:#000000;stroke-width:0.05px" />
    <circle
       transform="scale(-1,1)"
       r="1.131"
       cy="279.56"
       cx="-203.03909"
       id="apple_crumble.24"
       style="fill:none;stroke:#000000;stroke-width:0.05px" />
    <path
       inkscape:connector-curvature="0"
       id="path187"
       d="m 203.83907,278.76 -1.6,1.6 m 0,-1.6 1.6,1.6"
       style="fill:none;stroke:#000000;stroke-width:0.05px" />
    <circle
       transform="scale(-1,1)"
       r="1.131"
       cy="277.92001"
       cx="-187.43909"
       id="apple_crumble.25"
       style="fill:none;stroke:#000000;stroke-width:0.05px" />
    <path
       inkscape:connector-curvature="0"
       id="path190"
       d="m 188.23907,277.12 -1.6,1.6 m 0,-1.6 1.6,1.6"
       style="fill:none;stroke:#000000;stroke-width:0.05px" />
  </g>
</svg>
