<?xml version="1.0" encoding="UTF-8" standalone="no"?>
<svg
   xmlns:dc="http://purl.org/dc/elements/1.1/"
   xmlns:cc="http://creativecommons.org/ns#"
   xmlns:rdf="http://www.w3.org/1999/02/22-rdf-syntax-ns#"
   xmlns:svg="http://www.w3.org/2000/svg"
   xmlns="http://www.w3.org/2000/svg"
   xmlns:sodipodi="http://sodipodi.sourceforge.net/DTD/sodipodi-0.dtd"
   xmlns:inkscape="http://www.inkscape.org/namespaces/inkscape"
   version="1.1"
   width="817.720mm"
   height="484.840mm"
   viewBox="0 0 817.720 484.840"
   id="svg174"
   sodipodi:docname="sweet_baby_jesus_extend.svg"
   inkscape:version="0.92.2 5c3e80d, 2017-08-06">
  <metadata
     id="metadata180">
    <rdf:RDF>
      <cc:Work
         rdf:about="">
        <dc:format>image/svg+xml</dc:format>
        <dc:type
           rdf:resource="http://purl.org/dc/dcmitype/StillImage" />
      </cc:Work>
    </rdf:RDF>
  </metadata>
  <defs
     id="defs178" />
  <sodipodi:namedview
     pagecolor="#ffffff"
     bordercolor="#666666"
     borderopacity="1"
     objecttolerance="10"
     gridtolerance="10"
     guidetolerance="10"
     inkscape:pageopacity="0"
     inkscape:pageshadow="2"
     inkscape:window-width="742"
     inkscape:window-height="480"
     id="namedview176"
     showgrid="false"
     inkscape:zoom="0.10483418"
     inkscape:cx="1545.2976"
     inkscape:cy="916.23306"
     inkscape:window-x="0"
     inkscape:window-y="0"
     inkscape:window-maximized="0"
     inkscape:current-layer="svg174" />
  <title
     id="title2">sweet_baby_jesus</title>
  <g
     transform="translate(5.000 479.840)"
     id="g172">
    <g
       id="Legs"
       stroke="black"
       fill="none"
       stroke-width="0.4px">
      <path
         d="M220.160 -259.040L200.000 -256.560"
         id="path4" />
      <path
         d="M227.120 -257.040L220.160 -259.040"
         id="path6" />
      <path
         d="M227.120 -273.920L227.120 -257.040"
         id="path8" />
      <path
         d="M263.960 -273.280L227.120 -273.920"
         id="path10" />
      <path
         d="M286.600 -274.840L263.960 -273.280"
         id="path12" />
      <path
         d="M299.040 -269.040L286.600 -274.840"
         id="path14" />
      <path
         d="M303.960 -264.760L299.040 -269.040"
         id="path16" />
      <path
         d="M328.200 -264.760L303.960 -264.760"
         id="path18" />
      <path
         d="M342.760 -259.160L328.200 -264.760"
         id="path20" />
      <path
         d="M361.840 -251.840L342.760 -259.160"
         id="path22" />
      <path
         d="M387.520 -249.600L361.840 -251.840"
         id="path24" />
      <path
         d="M397.760 -247.800L387.520 -249.600"
         id="path26" />
      <path
         d="M425.880 -215.400L397.760 -247.800"
         id="path28" />
      <path
         d="M450.160 -210.240L425.880 -215.400"
         id="path30" />
      <path
         d="M486.040 -202.600L450.160 -210.240"
         id="path32" />
      <path
         d="M491.160 -203.440L486.040 -202.600"
         id="path34" />
      <path
         d="M523.920 -200.000L491.160 -203.440"
         id="path36" />
      <path
         d="M550.040 -202.280L523.920 -200.000"
         id="path38" />
      <path
         d="M559.920 -205.280L550.040 -202.280"
         id="path40" />
      <path
         d="M574.160 -208.560L559.920 -205.280"
         id="path42" />
      <path
         d="M584.400 -210.560L574.160 -208.560"
         id="path44" />
      <path
         d="M584.400 -210.560L607.720 -206.880"
         id="path46" />
    </g>
    <g
       id="Labels"
       font-size="0.600em">
      <text
         transform="translate(200,-256.56)"
         id="text49">24</text>
      <text
         transform="translate(200.000 -256.560)"
         id="text51">hallelujah.1</text>
      <text
         transform="translate(607.72,-206.88)"
         id="text53">1</text>
      <text
         transform="translate(584.4,-210.56)"
         id="text55">2</text>
      <text
         transform="translate(574.16,-208.56)"
         id="text57">3</text>
      <text
         transform="translate(559.92,-205.28)"
         id="text59">4</text>
      <text
         transform="translate(550.04,-202.28)"
         id="text61">5</text>
      <text
         transform="translate(523.92,-200)"
         id="text63">6</text>
      <text
         transform="translate(491.16,-203.44)"
         id="text65">7</text>
      <text
         transform="translate(486.04,-202.6)"
         id="text67">8</text>
      <text
         transform="translate(450.16,-210.24)"
         id="text69">9</text>
      <text
         transform="translate(425.88,-215.4)"
         id="text71">10</text>
      <text
         transform="translate(397.76,-247.8)"
         id="text73">11</text>
      <text
         transform="translate(387.52,-249.6)"
         id="text75">12</text>
      <text
         transform="translate(361.84,-251.84)"
         id="text77">13</text>
      <text
         transform="translate(342.76,-259.16)"
         id="text79">14</text>
      <text
         transform="translate(328.2,-264.76)"
         id="text81">16</text>
      <text
         transform="translate(303.96,-264.76)"
         id="text83">17</text>
      <text
         transform="translate(299.04,-269.04)"
         id="text85">18</text>
      <text
         transform="translate(286.6,-274.84)"
         id="text87">19</text>
      <text
         transform="translate(263.96,-273.28)"
         id="text89">20</text>
      <text
         transform="translate(227.12,-273.92)"
         id="text91">21</text>
      <text
         transform="translate(227.12,-257.04)"
         id="text93">22</text>
      <text
         transform="translate(220.16,-259.04)"
         id="text95">23</text>
    </g>
    <g
       id="Stations"
       stroke="black"
       fill="none"
       stroke-width="0.05px">
      <circle
         id="sweet_baby_jesus.24"
         cx="200.000"
         cy="-256.560"
         r="1.131" />
      <path
         d="M199.200 -257.360L200.800 -255.760M200.800 -257.360L199.200 -255.760"
         id="path99" />
      <circle
         id="circle101"
         cx="200.000"
         cy="-256.560"
         r="1.131" />
      <path
         d="M199.200 -257.360L200.800 -255.760M200.800 -257.360L199.200 -255.760"
         id="path103" />
      <circle
         id="sweet_baby_jesus.1"
         cx="607.720"
         cy="-206.880"
         r="1.131" />
      <path
         d="M606.920 -207.680L608.520 -206.080M608.520 -207.680L606.920 -206.080"
         id="path106" />
      <circle
         id="sweet_baby_jesus.2"
         cx="584.400"
         cy="-210.560"
         r="1.131" />
      <path
         d="M583.600 -211.360L585.200 -209.760M585.200 -211.360L583.600 -209.760"
         id="path109" />
      <circle
         id="sweet_baby_jesus.3"
         cx="574.160"
         cy="-208.560"
         r="1.131" />
      <path
         d="M573.360 -209.360L574.960 -207.760M574.960 -209.360L573.360 -207.760"
         id="path112" />
      <circle
         id="sweet_baby_jesus.4"
         cx="559.920"
         cy="-205.280"
         r="1.131" />
      <path
         d="M559.120 -206.080L560.720 -204.480M560.720 -206.080L559.120 -204.480"
         id="path115" />
      <circle
         id="sweet_baby_jesus.5"
         cx="550.040"
         cy="-202.280"
         r="1.131" />
      <path
         d="M549.240 -203.080L550.840 -201.480M550.840 -203.080L549.240 -201.480"
         id="path118" />
      <circle
         id="sweet_baby_jesus.6"
         cx="523.920"
         cy="-200.000"
         r="1.131" />
      <path
         d="M523.120 -200.800L524.720 -199.200M524.720 -200.800L523.120 -199.200"
         id="path121" />
      <circle
         id="sweet_baby_jesus.7"
         cx="491.160"
         cy="-203.440"
         r="1.131" />
      <path
         d="M490.360 -204.240L491.960 -202.640M491.960 -204.240L490.360 -202.640"
         id="path124" />
      <circle
         id="sweet_baby_jesus.8"
         cx="486.040"
         cy="-202.600"
         r="1.131" />
      <path
         d="M485.240 -203.400L486.840 -201.800M486.840 -203.400L485.240 -201.800"
         id="path127" />
      <circle
         id="sweet_baby_jesus.9"
         cx="450.160"
         cy="-210.240"
         r="1.131" />
      <path
         d="M449.360 -211.040L450.960 -209.440M450.960 -211.040L449.360 -209.440"
         id="path130" />
      <circle
         id="sweet_baby_jesus.10"
         cx="425.880"
         cy="-215.400"
         r="1.131" />
      <path
         d="M425.080 -216.200L426.680 -214.600M426.680 -216.200L425.080 -214.600"
         id="path133" />
      <circle
         id="sweet_baby_jesus.11"
         cx="397.760"
         cy="-247.800"
         r="1.131" />
      <path
         d="M396.960 -248.600L398.560 -247.000M398.560 -248.600L396.960 -247.000"
         id="path136" />
      <circle
         id="sweet_baby_jesus.12"
         cx="387.520"
         cy="-249.600"
         r="1.131" />
      <path
         d="M386.720 -250.400L388.320 -248.800M388.320 -250.400L386.720 -248.800"
         id="path139" />
      <circle
         id="sweet_baby_jesus.13"
         cx="361.840"
         cy="-251.840"
         r="1.131" />
      <path
         d="M361.040 -252.640L362.640 -251.040M362.640 -252.640L361.040 -251.040"
         id="path142" />
      <circle
         id="sweet_baby_jesus.14"
         cx="342.760"
         cy="-259.160"
         r="1.131" />
      <path
         d="M341.960 -259.960L343.560 -258.360M343.560 -259.960L341.960 -258.360"
         id="path145" />
      <circle
         id="sweet_baby_jesus.16"
         cx="328.200"
         cy="-264.760"
         r="1.131" />
      <path
         d="M327.400 -265.560L329.000 -263.960M329.000 -265.560L327.400 -263.960"
         id="path148" />
      <circle
         id="sweet_baby_jesus.17"
         cx="303.960"
         cy="-264.760"
         r="1.131" />
      <path
         d="M303.160 -265.560L304.760 -263.960M304.760 -265.560L303.160 -263.960"
         id="path151" />
      <circle
         id="sweet_baby_jesus.18"
         cx="299.040"
         cy="-269.040"
         r="1.131" />
      <path
         d="M298.240 -269.840L299.840 -268.240M299.840 -269.840L298.240 -268.240"
         id="path154" />
      <circle
         id="sweet_baby_jesus.19"
         cx="286.600"
         cy="-274.840"
         r="1.131" />
      <path
         d="M285.800 -275.640L287.400 -274.040M287.400 -275.640L285.800 -274.040"
         id="path157" />
      <circle
         id="sweet_baby_jesus.20"
         cx="263.960"
         cy="-273.280"
         r="1.131" />
      <path
         d="M263.160 -274.080L264.760 -272.480M264.760 -274.080L263.160 -272.480"
         id="path160" />
      <circle
         id="sweet_baby_jesus.21"
         cx="227.120"
         cy="-273.920"
         r="1.131" />
      <path
         d="M226.320 -274.720L227.920 -273.120M227.920 -274.720L226.320 -273.120"
         id="path163" />
      <circle
         id="sweet_baby_jesus.22"
         cx="227.120"
         cy="-257.040"
         r="1.131" />
      <path
         d="M226.320 -257.840L227.920 -256.240M227.920 -257.840L226.320 -256.240"
         id="path166" />
      <circle
         id="sweet_baby_jesus.23"
         cx="220.160"
         cy="-259.040"
         r="1.131" />
      <path
         d="M219.360 -259.840L220.960 -258.240M220.960 -259.840L219.360 -258.240"
         id="path169" />
    </g>
  </g>
</svg>
