<?xml version="1.0" encoding="UTF-8" standalone="no"?>
<svg
   xmlns:dc="http://purl.org/dc/elements/1.1/"
   xmlns:cc="http://creativecommons.org/ns#"
   xmlns:rdf="http://www.w3.org/1999/02/22-rdf-syntax-ns#"
   xmlns:svg="http://www.w3.org/2000/svg"
   xmlns="http://www.w3.org/2000/svg"
   xmlns:sodipodi="http://sodipodi.sourceforge.net/DTD/sodipodi-0.dtd"
   xmlns:inkscape="http://www.inkscape.org/namespaces/inkscape"
   version="1.1"
   width="732.640mm"
   height="678.560mm"
   viewBox="0 0 732.640 678.560"
   id="svg152"
   sodipodi:docname="drugi_extend.svg"
   inkscape:version="0.92.2 5c3e80d, 2017-08-06">
  <metadata
     id="metadata158">
    <rdf:RDF>
      <cc:Work
         rdf:about="">
        <dc:format>image/svg+xml</dc:format>
        <dc:type
           rdf:resource="http://purl.org/dc/dcmitype/StillImage" />
      </cc:Work>
    </rdf:RDF>
  </metadata>
  <defs
     id="defs156" />
  <sodipodi:namedview
     pagecolor="#ffffff"
     bordercolor="#666666"
     borderopacity="1"
     objecttolerance="10"
     gridtolerance="10"
     guidetolerance="10"
     inkscape:pageopacity="0"
     inkscape:pageshadow="2"
     inkscape:window-width="1397"
     inkscape:window-height="739"
     id="namedview154"
     showgrid="false"
     inkscape:zoom="0.26027426"
     inkscape:cx="2238.5716"
     inkscape:cy="1515.1112"
     inkscape:window-x="0"
     inkscape:window-y="0"
     inkscape:window-maximized="0"
     inkscape:current-layer="svg152" />
  <title
     id="title2">drugi</title>
  <path
     style="fill:none;stroke:#000000;stroke-width:0.40000001px"
     d="M 265.08,210.12 205,242.04"
     id="path4"
     inkscape:connector-curvature="0" />
  <path
     style="fill:none;stroke:#000000;stroke-width:0.40000001px"
     d="m 337,207.6 -71.92,2.52"
     id="path6"
     inkscape:connector-curvature="0" />
  <path
     style="fill:none;stroke:#000000;stroke-width:0.40000001px"
     d="M 349,207.6 H 337"
     id="path8"
     inkscape:connector-curvature="0" />
  <path
     style="fill:none;stroke:#000000;stroke-width:0.40000001px"
     d="M 355.8,207.6 H 349"
     id="path10"
     inkscape:connector-curvature="0" />
  <path
     style="fill:none;stroke:#000000;stroke-width:0.40000001px"
     d="M 381.24,205.36 355.8,207.6"
     id="path12"
     inkscape:connector-curvature="0" />
  <path
     style="fill:none;stroke:#000000;stroke-width:0.40000001px"
     d="m 382.16,247.72 -0.92,-42.36"
     id="path14"
     inkscape:connector-curvature="0" />
  <path
     style="fill:none;stroke:#000000;stroke-width:0.40000001px"
     d="M 418.4,279.08 382.16,247.72"
     id="path16"
     inkscape:connector-curvature="0" />
  <path
     style="fill:none;stroke:#000000;stroke-width:0.40000001px"
     d="m 418.4,279.08 v 80"
     id="path18"
     inkscape:connector-curvature="0" />
  <path
     style="fill:none;stroke:#000000;stroke-width:0.40000001px"
     d="m 418.4,359.08 43.72,24.24"
     id="path20"
     inkscape:connector-curvature="0" />
  <path
     style="fill:none;stroke:#000000;stroke-width:0.40000001px"
     d="m 462.12,383.32 13.36,12.04"
     id="path22"
     inkscape:connector-curvature="0" />
  <path
     style="fill:none;stroke:#000000;stroke-width:0.40000001px"
     d="m 475.48,395.36 12,0.6"
     id="path24"
     inkscape:connector-curvature="0" />
  <path
     style="fill:none;stroke:#000000;stroke-width:0.40000001px"
     d="m 487.48,395.96 22.64,26.96"
     id="path26"
     inkscape:connector-curvature="0" />
  <path
     style="fill:none;stroke:#000000;stroke-width:0.40000001px"
     d="m 510.12,422.92 8.12,20.04"
     id="path28"
     inkscape:connector-curvature="0" />
  <path
     style="fill:none;stroke:#000000;stroke-width:0.40000001px"
     d="m 518.24,442.96 9.4,30.6"
     id="path30"
     inkscape:connector-curvature="0" />
  <path
     style="fill:none;stroke:#000000;stroke-width:0.40000001px"
     d="m 418.96,243.4 -0.56,35.68"
     id="path32"
     inkscape:connector-curvature="0" />
  <path
     style="fill:none;stroke:#000000;stroke-width:0.40000001px"
     d="m 405.27123,205 13.92,38.4"
     id="path34"
     inkscape:connector-curvature="0" />
  <path
     style="fill:none;stroke:#000000;stroke-width:0.40000001px"
     d="m 383.43123,205.36 21.84,-0.36"
     id="path36"
     inkscape:connector-curvature="0" />
  <text
     style="font-size:3.52777769px;"
     id="text39"
     x="527.64001"
     y="473.56">1</text>
  <text
     style="font-size:3.52777769px;"
     id="text41"
     x="418.39999"
     y="279.07999">7a</text>
  <text
     style="font-size:3.52777769px;"
     id="text43"
     x="418.39999"
     y="279.07999">10b</text>
  <text
     style="font-size:3.52777769px;"
     id="text45"
     x="205"
     y="242.03999">15</text>
  <text
     style="font-size:3.52777769px;"
     id="text47"
     x="527.64001"
     y="473.56">prima1.21b</text>
  <text
     style="font-size:3.52777769px;"
     id="text49"
     x="205"
     y="242.03999">prima1.35</text>
  <text
     style="font-size:3.52777769px;"
     id="text51"
     x="518.23999"
     y="442.95999">2</text>
  <text
     style="font-size:3.52777769px;"
     id="text53"
     x="510.12"
     y="422.92001">3</text>
  <text
     style="font-size:3.52777769px;"
     id="text55"
     x="487.48001"
     y="395.95999">4</text>
  <text
     style="font-size:3.52777769px;"
     id="text57"
     x="475.48001"
     y="395.35999">5</text>
  <text
     style="font-size:3.52777769px;"
     id="text59"
     x="462.12"
     y="383.32001">6</text>
  <text
     style="font-size:3.52777769px;"
     id="text61"
     x="418.39999"
     y="359.07999">7</text>
  <text
     style="font-size:3.52777767px"
     id="text63"
     x="-419.19135"
     y="243.39999"
     transform="scale(-1,1)">8</text>
  <text
     style="font-size:3.52777767px"
     id="text65"
     x="-405.27133"
     y="205"
     transform="scale(-1,1)">9</text>
  <text
     style="font-size:3.52777767px"
     id="text69"
     x="-383.43134"
     y="205.36"
     transform="scale(-1,1)">10</text>
  <text
     style="font-size:3.52777769px;"
     id="text71"
     x="382.16"
     y="247.72">10a</text>
  <text
     style="font-size:3.52777769px;"
     id="text73"
     x="355.79999"
     y="207.60001">11</text>
  <text
     style="font-size:3.52777769px;"
     id="text75"
     x="349"
     y="207.60001">12</text>
  <text
     style="font-size:3.52777769px;"
     id="text77"
     x="337"
     y="207.60001">13</text>
  <text
     style="font-size:3.52777769px;"
     id="text79"
     x="265.07999"
     y="210.12">14</text>
  <circle
     style="fill:none;stroke:#000000;stroke-width:0.05px"
     id="drugi.1"
     cx="527.64001"
     cy="473.56"
     r="1.131" />
  <path
     style="fill:none;stroke:#000000;stroke-width:0.05px"
     d="m 526.84,472.76 1.6,1.6 m 0,-1.6 -1.6,1.6"
     id="path83"
     inkscape:connector-curvature="0" />
  <circle
     style="fill:none;stroke:#000000;stroke-width:0.05px"
     id="drugi.7a"
     cx="418.39999"
     cy="279.07999"
     r="1.131" />
  <path
     style="fill:none;stroke:#000000;stroke-width:0.05px"
     d="m 417.6,278.28 1.6,1.6 m 0,-1.6 -1.6,1.6"
     id="path86"
     inkscape:connector-curvature="0" />
  <circle
     style="fill:none;stroke:#000000;stroke-width:0.05px"
     id="circle88"
     cx="418.39999"
     cy="279.07999"
     r="1.131" />
  <path
     style="fill:none;stroke:#000000;stroke-width:0.05px"
     d="m 417.6,278.28 1.6,1.6 m 0,-1.6 -1.6,1.6"
     id="path90"
     inkscape:connector-curvature="0" />
  <circle
     style="fill:none;stroke:#000000;stroke-width:0.05px"
     id="drugi.15"
     cx="205"
     cy="242.04001"
     r="1.131" />
  <path
     style="fill:none;stroke:#000000;stroke-width:0.05px"
     d="m 204.2,241.24 1.6,1.6 m 0,-1.6 -1.6,1.6"
     id="path93"
     inkscape:connector-curvature="0" />
  <circle
     style="fill:none;stroke:#000000;stroke-width:0.05px"
     id="circle95"
     cx="527.64001"
     cy="473.56"
     r="1.131" />
  <path
     style="fill:none;stroke:#000000;stroke-width:0.05px"
     d="m 526.84,472.76 1.6,1.6 m 0,-1.6 -1.6,1.6"
     id="path97"
     inkscape:connector-curvature="0" />
  <circle
     style="fill:none;stroke:#000000;stroke-width:0.05px"
     id="circle99"
     cx="205"
     cy="242.04001"
     r="1.131" />
  <path
     style="fill:none;stroke:#000000;stroke-width:0.05px"
     d="m 204.2,241.24 1.6,1.6 m 0,-1.6 -1.6,1.6"
     id="path101"
     inkscape:connector-curvature="0" />
  <circle
     style="fill:none;stroke:#000000;stroke-width:0.05px"
     id="drugi.2"
     cx="518.23999"
     cy="442.95999"
     r="1.131" />
  <path
     style="fill:none;stroke:#000000;stroke-width:0.05px"
     d="m 517.44,442.16 1.6,1.6 m 0,-1.6 -1.6,1.6"
     id="path104"
     inkscape:connector-curvature="0" />
  <circle
     style="fill:none;stroke:#000000;stroke-width:0.05px"
     id="drugi.3"
     cx="510.12"
     cy="422.92001"
     r="1.131" />
  <path
     style="fill:none;stroke:#000000;stroke-width:0.05px"
     d="m 509.32,422.12 1.6,1.6 m 0,-1.6 -1.6,1.6"
     id="path107"
     inkscape:connector-curvature="0" />
  <circle
     style="fill:none;stroke:#000000;stroke-width:0.05px"
     id="drugi.4"
     cx="487.48001"
     cy="395.95999"
     r="1.131" />
  <path
     style="fill:none;stroke:#000000;stroke-width:0.05px"
     d="m 486.68,395.16 1.6,1.6 m 0,-1.6 -1.6,1.6"
     id="path110"
     inkscape:connector-curvature="0" />
  <circle
     style="fill:none;stroke:#000000;stroke-width:0.05px"
     id="drugi.5"
     cx="475.48001"
     cy="395.35999"
     r="1.131" />
  <path
     style="fill:none;stroke:#000000;stroke-width:0.05px"
     d="m 474.68,394.56 1.6,1.6 m 0,-1.6 -1.6,1.6"
     id="path113"
     inkscape:connector-curvature="0" />
  <circle
     style="fill:none;stroke:#000000;stroke-width:0.05px"
     id="drugi.6"
     cx="462.12"
     cy="383.32001"
     r="1.131" />
  <path
     style="fill:none;stroke:#000000;stroke-width:0.05px"
     d="m 461.32,382.52 1.6,1.6 m 0,-1.6 -1.6,1.6"
     id="path116"
     inkscape:connector-curvature="0" />
  <circle
     style="fill:none;stroke:#000000;stroke-width:0.05px"
     id="drugi.7"
     cx="418.39999"
     cy="359.07999"
     r="1.131" />
  <path
     style="fill:none;stroke:#000000;stroke-width:0.05px"
     d="m 417.6,358.28 1.6,1.6 m 0,-1.6 -1.6,1.6"
     id="path119"
     inkscape:connector-curvature="0" />
  <circle
     style="fill:none;stroke:#000000;stroke-width:0.05px"
     id="drugi.8"
     cx="-419.19135"
     cy="243.39999"
     r="1.131"
     transform="scale(-1,1)" />
  <path
     style="fill:none;stroke:#000000;stroke-width:0.05px"
     d="m 419.99123,242.6 -1.6,1.6 m 0,-1.6 1.6,1.6"
     id="path122"
     inkscape:connector-curvature="0" />
  <circle
     style="fill:none;stroke:#000000;stroke-width:0.05px"
     id="drugi.9"
     cx="-405.27133"
     cy="205"
     r="1.131"
     transform="scale(-1,1)" />
  <path
     style="fill:none;stroke:#000000;stroke-width:0.05px"
     d="m 406.07123,204.2 -1.6,1.6 m 0,-1.6 1.6,1.6"
     id="path125"
     inkscape:connector-curvature="0" />
  <circle
     style="fill:none;stroke:#000000;stroke-width:0.05px"
     id="drugi.10"
     cx="381.23999"
     cy="205.35999"
     r="1.131" />
  <path
     style="fill:none;stroke:#000000;stroke-width:0.05px"
     d="m 380.44,204.56 1.6,1.6 m 0,-1.6 -1.6,1.6"
     id="path128"
     inkscape:connector-curvature="0" />
  <circle
     style="fill:none;stroke:#000000;stroke-width:0.05px"
     id="circle130"
     cx="-383.43134"
     cy="205.35999"
     r="1.131"
     transform="scale(-1,1)" />
  <circle
     style="fill:none;stroke:#000000;stroke-width:0.05px"
     id="drugi.10a"
     cx="382.16"
     cy="247.72"
     r="1.131" />
  <path
     style="fill:none;stroke:#000000;stroke-width:0.05px"
     d="m 381.36,246.92 1.6,1.6 m 0,-1.6 -1.6,1.6"
     id="path135"
     inkscape:connector-curvature="0" />
  <circle
     style="fill:none;stroke:#000000;stroke-width:0.05px"
     id="drugi.11"
     cx="355.79999"
     cy="207.60001"
     r="1.131" />
  <path
     style="fill:none;stroke:#000000;stroke-width:0.05px"
     d="m 355,206.8 1.6,1.6 m 0,-1.6 -1.6,1.6"
     id="path138"
     inkscape:connector-curvature="0" />
  <circle
     style="fill:none;stroke:#000000;stroke-width:0.05px"
     id="drugi.12"
     cx="349"
     cy="207.60001"
     r="1.131" />
  <path
     style="fill:none;stroke:#000000;stroke-width:0.05px"
     d="m 348.2,206.8 1.6,1.6 m 0,-1.6 -1.6,1.6"
     id="path141"
     inkscape:connector-curvature="0" />
  <circle
     style="fill:none;stroke:#000000;stroke-width:0.05px"
     id="drugi.13"
     cx="337"
     cy="207.60001"
     r="1.131" />
  <path
     style="fill:none;stroke:#000000;stroke-width:0.05px"
     d="m 336.2,206.8 1.6,1.6 m 0,-1.6 -1.6,1.6"
     id="path144"
     inkscape:connector-curvature="0" />
  <circle
     style="fill:none;stroke:#000000;stroke-width:0.05px"
     id="drugi.14"
     cx="265.07999"
     cy="210.12"
     r="1.131" />
  <path
     style="fill:none;stroke:#000000;stroke-width:0.05px"
     d="m 264.28,209.32 1.6,1.6 m 0,-1.6 -1.6,1.6"
     id="path147"
     inkscape:connector-curvature="0" />
</svg>
