0
SECTION
2
HEADER
9
$EXTMIN
10
0.000000
20
0.000000
30
0.000000
9
$EXTMAX
10
145.910000
20
174.180000
30
58.980000
9
$PDMODE
70
3
9
$PDSIZE
40
  0.80
0
ENDSEC
0
SECTION
2
TABLES
0
TABLE
2
LTYPE
70
10
0
LTYPE
2
CONTINUOUS
70
64
3
Continuous
72
65
73
0
40
0.0
0
LTYPE
2
DASHED
70
64
3
Dashed
72
65
73
2
40
2.5
49
1.25
49
-1.25
0
ENDTAB
0
TABLE
2
LAYER
70
10
0
LAYER
2
CentreLine
70
64
62
5
6
CONTINUOUS
0
LAYER
2
Stations
70
64
62
7
6
CONTINUOUS
0
LAYER
2
Labels
70
64
62
7
6
CONTINUOUS
0
LAYER
2
Surface
70
64
62
5
6
DASHED
0
LAYER
2
SurfaceStations
70
64
62
7
6
CONTINUOUS
0
LAYER
2
SurfaceLabels
70
64
62
7
6
CONTINUOUS
0
LAYER
2
Grid
70
64
62
7
6
CONTINUOUS
0
ENDTAB
0
ENDSEC
0
SECTION
2
ENTITIES
0
LINE
8
Grid
10
100.00
20
  0.00
30
0
11
100.00
21
174.18
31
0
0
LINE
8
Grid
10
  0.00
20
100.00
30
0
11
145.91
21
100.00
31
0
0
LINE
8
CentreLine
10
 50.00
20
 50.00
30
 58.98
11
 50.73
21
 53.88
31
 55.73
0
LINE
8
CentreLine
10
 50.73
20
 53.88
30
 55.73
11
 51.84
21
 56.64
31
 54.95
0
LINE
8
CentreLine
10
 51.84
20
 56.64
30
 54.95
11
 53.83
21
 56.54
31
 54.93
0
LINE
8
CentreLine
10
 53.83
20
 56.54
30
 54.93
11
 54.25
21
 58.53
31
 54.91
0
LINE
8
CentreLine
10
 54.25
20
 58.53
30
 54.91
11
 59.18
21
 60.66
31
 56.39
0
LINE
8
CentreLine
10
 59.18
20
 60.66
30
 56.39
11
 60.87
21
 64.69
31
 55.78
0
LINE
8
CentreLine
10
 60.87
20
 64.69
30
 55.78
11
 63.57
21
 66.60
31
 54.57
0
LINE
8
CentreLine
10
 63.57
20
 66.60
30
 54.57
11
 66.98
21
 68.92
31
 54.98
0
LINE
8
CentreLine
10
 66.98
20
 68.92
30
 54.98
11
 69.10
21
 73.75
31
 53.97
0
LINE
8
CentreLine
10
 69.10
20
 73.75
30
 53.97
11
 72.13
21
 74.91
31
 52.50
0
LINE
8
CentreLine
10
 72.13
20
 74.91
30
 52.50
11
 74.86
21
 81.64
31
 52.10
0
LINE
8
CentreLine
10
 74.86
20
 81.64
30
 52.10
11
 73.41
21
 84.79
31
 52.28
0
LINE
8
CentreLine
10
 73.41
20
 84.79
30
 52.28
11
 73.06
21
 86.60
31
 53.06
0
LINE
8
CentreLine
10
 73.06
20
 86.60
30
 53.06
11
 70.40
21
 94.27
31
 52.17
0
LINE
8
CentreLine
10
 70.40
20
 94.27
30
 52.17
11
 67.77
21
 97.45
31
 51.97
0
LINE
8
CentreLine
10
 67.77
20
 97.45
30
 51.97
11
 68.58
21
100.69
31
 51.60
0
LINE
8
CentreLine
10
 68.58
20
100.69
30
 51.60
11
 61.84
21
105.94
31
 50.81
0
LINE
8
CentreLine
10
 61.84
20
105.94
30
 50.81
11
 61.93
21
107.68
31
 50.84
0
LINE
8
CentreLine
10
 61.93
20
107.68
30
 50.84
11
 63.99
21
109.31
31
 51.78
0
LINE
8
CentreLine
10
 63.99
20
109.31
30
 51.78
11
 62.58
21
117.08
31
 51.42
0
LINE
8
CentreLine
10
 62.58
20
117.08
30
 51.42
11
 66.34
21
120.01
31
 51.29
0
LINE
8
CentreLine
10
 66.34
20
120.01
30
 51.29
11
 64.80
21
123.65
31
 51.77
0
LINE
8
CentreLine
10
 64.80
20
123.65
30
 51.77
11
 73.09
21
124.18
31
 40.26
0
LINE
8
CentreLine
10
 73.09
20
124.18
30
 40.26
11
 73.03
21
122.12
31
 39.71
0
LINE
8
CentreLine
10
 73.03
20
122.12
30
 39.71
11
 77.23
21
121.28
31
 34.41
0
LINE
8
CentreLine
10
 77.23
20
121.28
30
 34.41
11
 82.41
21
116.50
31
 28.39
0
LINE
8
CentreLine
10
 82.41
20
116.50
30
 28.39
11
 82.88
21
118.08
31
 28.61
0
LINE
8
CentreLine
10
 82.88
20
118.08
30
 28.61
11
 80.42
21
118.32
31
 24.27
0
LINE
8
CentreLine
10
 80.42
20
118.32
30
 24.27
11
 82.40
21
118.65
31
 24.73
0
LINE
8
CentreLine
10
 82.40
20
118.65
30
 24.73
11
 90.58
21
112.86
31
 22.70
0
LINE
8
CentreLine
10
 90.58
20
112.86
30
 22.70
11
 88.61
21
110.47
31
 22.03
0
LINE
8
CentreLine
10
 88.61
20
110.47
30
 22.03
11
 89.29
21
107.48
31
 21.77
0
LINE
8
CentreLine
10
 89.29
20
107.48
30
 21.77
11
 90.65
21
107.75
31
 19.10
0
LINE
8
CentreLine
10
 90.65
20
107.75
30
 19.10
11
 95.91
21
104.22
31
 19.16
0
LINE
8
CentreLine
10
 95.91
20
104.22
30
 19.16
11
 93.12
21
101.24
31
 19.88
0
LINE
8
CentreLine
10
 93.12
20
101.24
30
 19.88
11
 93.29
21
100.72
31
  0.28
0
LINE
8
CentreLine
10
 93.29
20
100.72
30
  0.28
11
 94.90
21
100.85
31
  0.00
0
TEXT
8
Labels
10
 94.90
20
100.85
30
  0.00
40
  0.60
1
canticle_for_migovec.38
0
POINT
8
Stations
10
 94.90
20
100.85
30
  0.00
0
TEXT
8
SurfaceLabels
10
 94.90
20
100.85
30
  0.00
40
  0.60
1
bath.20
0
POINT
8
SurfaceStations
10
 94.90
20
100.85
30
  0.00
0
TEXT
8
Labels
10
 50.00
20
 50.00
30
 58.98
40
  0.60
1
canticle_for_migovec.1
0
POINT
8
Stations
10
 50.00
20
 50.00
30
 58.98
0
TEXT
8
Labels
10
 50.73
20
 53.88
30
 55.73
40
  0.60
1
canticle_for_migovec.2
0
POINT
8
Stations
10
 50.73
20
 53.88
30
 55.73
0
TEXT
8
Labels
10
 51.84
20
 56.64
30
 54.95
40
  0.60
1
canticle_for_migovec.3
0
POINT
8
Stations
10
 51.84
20
 56.64
30
 54.95
0
TEXT
8
Labels
10
 53.83
20
 56.54
30
 54.93
40
  0.60
1
canticle_for_migovec.4
0
POINT
8
Stations
10
 53.83
20
 56.54
30
 54.93
0
TEXT
8
Labels
10
 54.25
20
 58.53
30
 54.91
40
  0.60
1
canticle_for_migovec.5
0
POINT
8
Stations
10
 54.25
20
 58.53
30
 54.91
0
TEXT
8
Labels
10
 59.18
20
 60.66
30
 56.39
40
  0.60
1
canticle_for_migovec.6
0
POINT
8
Stations
10
 59.18
20
 60.66
30
 56.39
0
TEXT
8
Labels
10
 60.87
20
 64.69
30
 55.78
40
  0.60
1
canticle_for_migovec.7
0
POINT
8
Stations
10
 60.87
20
 64.69
30
 55.78
0
TEXT
8
Labels
10
 63.57
20
 66.60
30
 54.57
40
  0.60
1
canticle_for_migovec.8
0
POINT
8
Stations
10
 63.57
20
 66.60
30
 54.57
0
TEXT
8
Labels
10
 66.98
20
 68.92
30
 54.98
40
  0.60
1
canticle_for_migovec.9
0
POINT
8
Stations
10
 66.98
20
 68.92
30
 54.98
0
TEXT
8
Labels
10
 69.10
20
 73.75
30
 53.97
40
  0.60
1
canticle_for_migovec.10
0
POINT
8
Stations
10
 69.10
20
 73.75
30
 53.97
0
TEXT
8
Labels
10
 72.13
20
 74.91
30
 52.50
40
  0.60
1
canticle_for_migovec.11
0
POINT
8
Stations
10
 72.13
20
 74.91
30
 52.50
0
TEXT
8
Labels
10
 74.86
20
 81.64
30
 52.10
40
  0.60
1
canticle_for_migovec.12
0
POINT
8
Stations
10
 74.86
20
 81.64
30
 52.10
0
TEXT
8
Labels
10
 73.41
20
 84.79
30
 52.28
40
  0.60
1
canticle_for_migovec.13
0
POINT
8
Stations
10
 73.41
20
 84.79
30
 52.28
0
TEXT
8
Labels
10
 73.06
20
 86.60
30
 53.06
40
  0.60
1
canticle_for_migovec.14
0
POINT
8
Stations
10
 73.06
20
 86.60
30
 53.06
0
TEXT
8
Labels
10
 70.40
20
 94.27
30
 52.17
40
  0.60
1
canticle_for_migovec.15
0
POINT
8
Stations
10
 70.40
20
 94.27
30
 52.17
0
TEXT
8
Labels
10
 67.77
20
 97.45
30
 51.97
40
  0.60
1
canticle_for_migovec.16
0
POINT
8
Stations
10
 67.77
20
 97.45
30
 51.97
0
TEXT
8
Labels
10
 68.58
20
100.69
30
 51.60
40
  0.60
1
canticle_for_migovec.17
0
POINT
8
Stations
10
 68.58
20
100.69
30
 51.60
0
TEXT
8
Labels
10
 61.84
20
105.94
30
 50.81
40
  0.60
1
canticle_for_migovec.18
0
POINT
8
Stations
10
 61.84
20
105.94
30
 50.81
0
TEXT
8
Labels
10
 61.93
20
107.68
30
 50.84
40
  0.60
1
canticle_for_migovec.19
0
POINT
8
Stations
10
 61.93
20
107.68
30
 50.84
0
TEXT
8
Labels
10
 63.99
20
109.31
30
 51.78
40
  0.60
1
canticle_for_migovec.20
0
POINT
8
Stations
10
 63.99
20
109.31
30
 51.78
0
TEXT
8
Labels
10
 62.58
20
117.08
30
 51.42
40
  0.60
1
canticle_for_migovec.21
0
POINT
8
Stations
10
 62.58
20
117.08
30
 51.42
0
TEXT
8
Labels
10
 66.34
20
120.01
30
 51.29
40
  0.60
1
canticle_for_migovec.22
0
POINT
8
Stations
10
 66.34
20
120.01
30
 51.29
0
TEXT
8
Labels
10
 64.80
20
123.65
30
 51.77
40
  0.60
1
canticle_for_migovec.23
0
POINT
8
Stations
10
 64.80
20
123.65
30
 51.77
0
TEXT
8
Labels
10
 73.09
20
124.18
30
 40.26
40
  0.60
1
canticle_for_migovec.24
0
POINT
8
Stations
10
 73.09
20
124.18
30
 40.26
0
TEXT
8
Labels
10
 73.03
20
122.12
30
 39.71
40
  0.60
1
canticle_for_migovec.25
0
POINT
8
Stations
10
 73.03
20
122.12
30
 39.71
0
TEXT
8
Labels
10
 77.23
20
121.28
30
 34.41
40
  0.60
1
canticle_for_migovec.26
0
POINT
8
Stations
10
 77.23
20
121.28
30
 34.41
0
TEXT
8
Labels
10
 82.41
20
116.50
30
 28.39
40
  0.60
1
canticle_for_migovec.27
0
POINT
8
Stations
10
 82.41
20
116.50
30
 28.39
0
TEXT
8
Labels
10
 82.88
20
118.08
30
 28.61
40
  0.60
1
canticle_for_migovec.28
0
POINT
8
Stations
10
 82.88
20
118.08
30
 28.61
0
TEXT
8
Labels
10
 80.42
20
118.32
30
 24.27
40
  0.60
1
canticle_for_migovec.29
0
POINT
8
Stations
10
 80.42
20
118.32
30
 24.27
0
TEXT
8
Labels
10
 82.40
20
118.65
30
 24.73
40
  0.60
1
canticle_for_migovec.30
0
POINT
8
Stations
10
 82.40
20
118.65
30
 24.73
0
TEXT
8
Labels
10
 90.58
20
112.86
30
 22.70
40
  0.60
1
canticle_for_migovec.31
0
POINT
8
Stations
10
 90.58
20
112.86
30
 22.70
0
TEXT
8
Labels
10
 88.61
20
110.47
30
 22.03
40
  0.60
1
canticle_for_migovec.32
0
POINT
8
Stations
10
 88.61
20
110.47
30
 22.03
0
TEXT
8
Labels
10
 89.29
20
107.48
30
 21.77
40
  0.60
1
canticle_for_migovec.33
0
POINT
8
Stations
10
 89.29
20
107.48
30
 21.77
0
TEXT
8
Labels
10
 90.65
20
107.75
30
 19.10
40
  0.60
1
canticle_for_migovec.34
0
POINT
8
Stations
10
 90.65
20
107.75
30
 19.10
0
TEXT
8
Labels
10
 95.91
20
104.22
30
 19.16
40
  0.60
1
canticle_for_migovec.35
0
POINT
8
Stations
10
 95.91
20
104.22
30
 19.16
0
TEXT
8
Labels
10
 93.12
20
101.24
30
 19.88
40
  0.60
1
canticle_for_migovec.36
0
POINT
8
Stations
10
 93.12
20
101.24
30
 19.88
0
TEXT
8
Labels
10
 93.29
20
100.72
30
  0.28
40
  0.60
1
canticle_for_migovec.37
0
POINT
8
Stations
10
 93.29
20
100.72
30
  0.28
000
ENDSEC
000
EOF
