<?xml version="1.0" encoding="ISO-8859-1"?>
<svg version="1.1" baseProfile="full"
xmlns="http://www.w3.org/2000/svg"
xmlns:xlink="http://www.w3.org/1999/xlink"
xmlns:ev="http://www.w3.org/2001/xml-events"
width="543.560mm" height="447.680mm"
viewBox="0 0 543.560 447.680">
<title>terminus</title>
<g transform="translate(5.000 442.680)">
<g id="Legs" stroke="black" fill="none" stroke-width="0.4px">
<path d="M203.360 -237.680L200.000 -237.680"/>
<path d="M223.880 -231.040L203.360 -237.680"/>
<path d="M223.880 -231.040L232.800 -225.680"/>
<path d="M232.800 -225.680L240.960 -222.200"/>
<path d="M240.960 -222.200L260.240 -222.520"/>
<path d="M254.120 -232.080L223.880 -231.040"/>
<path d="M265.080 -224.400L254.120 -232.080"/>
<path d="M265.080 -202.000L265.080 -224.400"/>
<path d="M279.360 -200.000L265.080 -202.000"/>
<path d="M286.280 -203.400L279.360 -200.000"/>
<path d="M295.080 -204.160L286.280 -203.400"/>
<path d="M310.880 -207.520L295.080 -204.160"/>
<path d="M319.400 -218.800L310.880 -207.520"/>
<path d="M319.400 -218.800L333.560 -215.800"/>
</g>
<g id="Labels" font-size="0.600em">
<text transform="translate(200.000 -237.680)">quantum_state.1</text>
<text transform="translate(200.000 -237.680)">terminus.16</text>
<text transform="translate(333.560 -215.800)">terminus.1</text>
<text transform="translate(319.400 -218.800)">terminus.2</text>
<text transform="translate(310.880 -207.520)">terminus.3</text>
<text transform="translate(295.080 -204.160)">terminus.4</text>
<text transform="translate(286.280 -203.400)">terminus.5</text>
<text transform="translate(279.360 -200.000)">terminus.6</text>
<text transform="translate(265.080 -202.000)">terminus.7</text>
<text transform="translate(265.080 -224.400)">terminus.8</text>
<text transform="translate(254.120 -232.080)">terminus.9</text>
<text transform="translate(223.880 -231.040)">terminus.10</text>
<text transform="translate(260.240 -222.520)">terminus.11</text>
<text transform="translate(240.960 -222.200)">terminus.12</text>
<text transform="translate(232.800 -225.680)">terminus.13</text>
<text transform="translate(203.360 -237.680)">terminus.15</text>
</g>
<g id="Stations" stroke="black" fill="none" stroke-width="0.05px">
<circle id="quantum_state.1" cx="200.000" cy="-237.680" r="1.131"/>
<path d="M199.200 -238.480L200.800 -236.880M200.800 -238.480L199.200 -236.880"/>
<circle id="quantum_state.1" cx="200.000" cy="-237.680" r="1.131"/>
<path d="M199.200 -238.480L200.800 -236.880M200.800 -238.480L199.200 -236.880"/>
<circle id="terminus.1" cx="333.560" cy="-215.800" r="1.131"/>
<path d="M332.760 -216.600L334.360 -215.000M334.360 -216.600L332.760 -215.000"/>
<circle id="terminus.2" cx="319.400" cy="-218.800" r="1.131"/>
<path d="M318.600 -219.600L320.200 -218.000M320.200 -219.600L318.600 -218.000"/>
<circle id="terminus.3" cx="310.880" cy="-207.520" r="1.131"/>
<path d="M310.080 -208.320L311.680 -206.720M311.680 -208.320L310.080 -206.720"/>
<circle id="terminus.4" cx="295.080" cy="-204.160" r="1.131"/>
<path d="M294.280 -204.960L295.880 -203.360M295.880 -204.960L294.280 -203.360"/>
<circle id="terminus.5" cx="286.280" cy="-203.400" r="1.131"/>
<path d="M285.480 -204.200L287.080 -202.600M287.080 -204.200L285.480 -202.600"/>
<circle id="terminus.6" cx="279.360" cy="-200.000" r="1.131"/>
<path d="M278.560 -200.800L280.160 -199.200M280.160 -200.800L278.560 -199.200"/>
<circle id="terminus.7" cx="265.080" cy="-202.000" r="1.131"/>
<path d="M264.280 -202.800L265.880 -201.200M265.880 -202.800L264.280 -201.200"/>
<circle id="terminus.8" cx="265.080" cy="-224.400" r="1.131"/>
<path d="M264.280 -225.200L265.880 -223.600M265.880 -225.200L264.280 -223.600"/>
<circle id="terminus.9" cx="254.120" cy="-232.080" r="1.131"/>
<path d="M253.320 -232.880L254.920 -231.280M254.920 -232.880L253.320 -231.280"/>
<circle id="terminus.10" cx="223.880" cy="-231.040" r="1.131"/>
<path d="M223.080 -231.840L224.680 -230.240M224.680 -231.840L223.080 -230.240"/>
<circle id="terminus.11" cx="260.240" cy="-222.520" r="1.131"/>
<path d="M259.440 -223.320L261.040 -221.720M261.040 -223.320L259.440 -221.720"/>
<circle id="terminus.12" cx="240.960" cy="-222.200" r="1.131"/>
<path d="M240.160 -223.000L241.760 -221.400M241.760 -223.000L240.160 -221.400"/>
<circle id="terminus.13" cx="232.800" cy="-225.680" r="1.131"/>
<path d="M232.000 -226.480L233.600 -224.880M233.600 -226.480L232.000 -224.880"/>
<circle id="terminus.15" cx="203.360" cy="-237.680" r="1.131"/>
<path d="M202.560 -238.480L204.160 -236.880M204.160 -238.480L202.560 -236.880"/>
</g>
</g>
</svg>
