<?xml version="1.0" encoding="UTF-8" standalone="no"?>
<svg
   xmlns:dc="http://purl.org/dc/elements/1.1/"
   xmlns:cc="http://creativecommons.org/ns#"
   xmlns:rdf="http://www.w3.org/1999/02/22-rdf-syntax-ns#"
   xmlns:svg="http://www.w3.org/2000/svg"
   xmlns="http://www.w3.org/2000/svg"
   xmlns:sodipodi="http://sodipodi.sourceforge.net/DTD/sodipodi-0.dtd"
   xmlns:inkscape="http://www.inkscape.org/namespaces/inkscape"
   version="1.1"
   width="767.960mm"
   height="535.080mm"
   viewBox="0 0 767.960 535.080"
   id="svg188"
   sodipodi:docname="aleksandrija_extend.svg"
   inkscape:version="0.92.2 5c3e80d, 2017-08-06">
  <metadata
     id="metadata194">
    <rdf:RDF>
      <cc:Work
         rdf:about="">
        <dc:format>image/svg+xml</dc:format>
        <dc:type
           rdf:resource="http://purl.org/dc/dcmitype/StillImage" />
      </cc:Work>
    </rdf:RDF>
  </metadata>
  <defs
     id="defs192" />
  <sodipodi:namedview
     pagecolor="#ffffff"
     bordercolor="#666666"
     borderopacity="1"
     objecttolerance="10"
     gridtolerance="10"
     guidetolerance="10"
     inkscape:pageopacity="0"
     inkscape:pageshadow="2"
     inkscape:window-width="1484"
     inkscape:window-height="674"
     id="namedview190"
     showgrid="false"
     inkscape:zoom="0.31572856"
     inkscape:cx="1726.6336"
     inkscape:cy="1128.9187"
     inkscape:window-x="0"
     inkscape:window-y="0"
     inkscape:window-maximized="0"
     inkscape:current-layer="svg188" />
  <title
     id="title2">aleksandrija</title>
  <path
     style="fill:none;stroke:#000000;stroke-width:0.40000001px"
     d="m 602.71955,219.72 22.32,-14.72"
     id="path4"
     inkscape:connector-curvature="0" />
  <path
     style="fill:none;stroke:#000000;stroke-width:0.40000001px"
     d="m 581.43955,243.28 21.28,-23.56"
     id="path6"
     inkscape:connector-curvature="0" />
  <path
     style="fill:none;stroke:#000000;stroke-width:0.40000001px"
     d="m 573.79955,251.72 7.64,-8.44"
     id="path8"
     inkscape:connector-curvature="0" />
  <path
     style="fill:none;stroke:#000000;stroke-width:0.40000001px"
     d="m 556.11955,259 17.68,-7.28"
     id="path10"
     inkscape:connector-curvature="0" />
  <path
     style="fill:none;stroke:#000000;stroke-width:0.40000001px"
     d="m 538.35955,266.4 17.76,-7.4"
     id="path12"
     inkscape:connector-curvature="0" />
  <path
     style="fill:none;stroke:#000000;stroke-width:0.40000001px"
     d="m 526.35955,268.68 12,-2.28"
     id="path14"
     inkscape:connector-curvature="0" />
  <path
     style="fill:none;stroke:#000000;stroke-width:0.40000001px"
     d="m 507.63955,270.88 18.72,-2.2"
     id="path16"
     inkscape:connector-curvature="0" />
  <path
     style="fill:none;stroke:#000000;stroke-width:0.40000001px"
     d="m 496.27955,272.16 11.36,-1.28"
     id="path18"
     inkscape:connector-curvature="0" />
  <path
     style="fill:none;stroke:#000000;stroke-width:0.40000001px"
     d="m 477.67955,274.24 18.6,-2.08"
     id="path20"
     inkscape:connector-curvature="0" />
  <path
     style="fill:none;stroke:#000000;stroke-width:0.40000001px"
     d="m 457.19955,281.56 20.48,-7.32"
     id="path22"
     inkscape:connector-curvature="0" />
  <path
     style="fill:none;stroke:#000000;stroke-width:0.40000001px"
     d="m 447.71955,283.96 9.48,-2.4"
     id="path24"
     inkscape:connector-curvature="0" />
  <path
     style="fill:none;stroke:#000000;stroke-width:0.40000001px"
     d="m 439.43955,286.48 8.28,-2.52"
     id="path26"
     inkscape:connector-curvature="0" />
  <path
     style="fill:none;stroke:#000000;stroke-width:0.40000001px"
     d="m 428.15955,292.12 11.28,-5.64"
     id="path28"
     inkscape:connector-curvature="0" />
  <path
     style="fill:none;stroke:#000000;stroke-width:0.40000001px"
     d="m 408.67955,295.56 19.48,-3.44"
     id="path30"
     inkscape:connector-curvature="0" />
  <path
     style="fill:none;stroke:#000000;stroke-width:0.40000001px"
     d="m 379.43955,302.56 29.24,-7"
     id="path32"
     inkscape:connector-curvature="0" />
  <path
     style="fill:none;stroke:#000000;stroke-width:0.40000001px"
     d="m 379.07955,305.32 0.36,-2.76"
     id="path34"
     inkscape:connector-curvature="0" />
  <path
     style="fill:none;stroke:#000000;stroke-width:0.40000001px"
     d="m 359.43955,306.32 19.64,-1"
     id="path36"
     inkscape:connector-curvature="0" />
  <path
     style="fill:none;stroke:#000000;stroke-width:0.40000001px"
     d="m 350.63955,308.08 8.8,-1.76"
     id="path38"
     inkscape:connector-curvature="0" />
  <path
     style="fill:none;stroke:#000000;stroke-width:0.40000001px"
     d="m 348.75955,314.84 1.88,-6.76"
     id="path40"
     inkscape:connector-curvature="0" />
  <path
     style="fill:none;stroke:#000000;stroke-width:0.40000001px"
     d="m 322.79955,320.44 25.96,-5.6"
     id="path42"
     inkscape:connector-curvature="0" />
  <path
     style="fill:none;stroke:#000000;stroke-width:0.40000001px"
     d="m 296.31955,325.68 26.48,-5.24"
     id="path44"
     inkscape:connector-curvature="0" />
  <path
     style="fill:none;stroke:#000000;stroke-width:0.40000001px"
     d="m 285.87955,326.4 10.44,-0.72"
     id="path46"
     inkscape:connector-curvature="0" />
  <path
     style="fill:none;stroke:#000000;stroke-width:0.40000001px"
     d="m 277.11955,328.8 8.76,-2.4"
     id="path48"
     inkscape:connector-curvature="0" />
  <path
     style="fill:none;stroke:#000000;stroke-width:0.40000001px"
     d="m 267.07955,330.08 10.04,-1.28"
     id="path50"
     inkscape:connector-curvature="0" />
  <text
     style="font-size:3.52777758px;"
     transform="scale(-1,1)"
     id="text53"
     x="-267.07956"
     y="330.07999">0</text>
  <text
     style="font-size:3.52777758px;"
     transform="scale(-1,1)"
     id="text55"
     x="-267.07956"
     y="330.07999">cloacamaxima.49</text>
  <text
     style="font-size:3.52777758px;"
     transform="scale(-1,1)"
     id="text57"
     x="-277.11954"
     y="328.79999">1</text>
  <text
     style="font-size:3.52777758px;"
     transform="scale(-1,1)"
     id="text59"
     x="-285.87955"
     y="326.39999">2</text>
  <text
     style="font-size:3.52777758px;"
     transform="scale(-1,1)"
     id="text61"
     x="-296.31955"
     y="325.67999">3</text>
  <text
     style="font-size:3.52777758px;"
     transform="scale(-1,1)"
     id="text63"
     x="-322.79956"
     y="320.44">4</text>
  <text
     style="font-size:3.52777758px;"
     transform="scale(-1,1)"
     id="text65"
     x="-348.75955"
     y="314.84">4a</text>
  <text
     style="font-size:3.52777758px;"
     transform="scale(-1,1)"
     id="text67"
     x="-350.63956"
     y="308.07999">5</text>
  <text
     style="font-size:3.52777758px;"
     transform="scale(-1,1)"
     id="text69"
     x="-359.43954"
     y="306.32001">6</text>
  <text
     style="font-size:3.52777758px;"
     transform="scale(-1,1)"
     id="text71"
     x="-379.07956"
     y="305.32001">7</text>
  <text
     style="font-size:3.52777758px;"
     transform="scale(-1,1)"
     id="text73"
     x="-379.43954"
     y="302.56">8</text>
  <text
     style="font-size:3.52777758px;"
     transform="scale(-1,1)"
     id="text75"
     x="-408.67953"
     y="295.56">9</text>
  <text
     style="font-size:3.52777758px;"
     transform="scale(-1,1)"
     id="text77"
     x="-428.15955"
     y="292.12">10</text>
  <text
     style="font-size:3.52777758px;"
     transform="scale(-1,1)"
     id="text79"
     x="-439.43954"
     y="286.48001">11</text>
  <text
     style="font-size:3.52777758px;"
     transform="scale(-1,1)"
     id="text81"
     x="-447.71954"
     y="283.95999">11a</text>
  <text
     style="font-size:3.52777758px;"
     transform="scale(-1,1)"
     id="text83"
     x="-457.19955"
     y="281.56">12</text>
  <text
     style="font-size:3.52777758px;"
     transform="scale(-1,1)"
     id="text85"
     x="-477.67953"
     y="274.23999">13</text>
  <text
     style="font-size:3.52777758px;"
     transform="scale(-1,1)"
     id="text87"
     x="-496.27954"
     y="272.16">13a</text>
  <text
     style="font-size:3.52777758px;"
     transform="scale(-1,1)"
     id="text89"
     x="-507.63956"
     y="270.88">13b</text>
  <text
     style="font-size:3.52777758px;"
     transform="scale(-1,1)"
     id="text91"
     x="-526.35956"
     y="268.67999">14</text>
  <text
     style="font-size:3.52777758px;"
     transform="scale(-1,1)"
     id="text93"
     x="-538.35956"
     y="266.39999">15</text>
  <text
     style="font-size:3.52777758px;"
     transform="scale(-1,1)"
     id="text95"
     x="-556.11957"
     y="259">15a</text>
  <text
     style="font-size:3.52777758px;"
     transform="scale(-1,1)"
     id="text97"
     x="-573.79956"
     y="251.72">16</text>
  <text
     style="font-size:3.52777758px;"
     transform="scale(-1,1)"
     id="text99"
     x="-581.43958"
     y="243.28">17</text>
  <text
     style="font-size:3.52777758px;"
     transform="scale(-1,1)"
     id="text101"
     x="-602.71954"
     y="219.72">18</text>
  <text
     style="font-size:3.52777758px;"
     transform="scale(-1,1)"
     id="text103"
     x="-625.03955"
     y="205">19</text>
  <circle
     style="fill:none;stroke:#000000;stroke-width:0.05px"
     id="aleksandrija.0"
     cx="-267.07953"
     cy="330.07999"
     r="1.131"
     transform="scale(-1,1)" />
  <path
     style="fill:none;stroke:#000000;stroke-width:0.05px"
     d="m 267.87955,329.28 -1.6,1.6 m 0,-1.6 1.6,1.6"
     id="path107"
     inkscape:connector-curvature="0" />
  <circle
     style="fill:none;stroke:#000000;stroke-width:0.05px"
     id="circle109"
     cx="-267.07953"
     cy="330.07999"
     r="1.131"
     transform="scale(-1,1)" />
  <path
     style="fill:none;stroke:#000000;stroke-width:0.05px"
     d="m 267.87955,329.28 -1.6,1.6 m 0,-1.6 1.6,1.6"
     id="path111"
     inkscape:connector-curvature="0" />
  <circle
     style="fill:none;stroke:#000000;stroke-width:0.05px"
     id="aleksandrija.1"
     cx="-277.11957"
     cy="328.79999"
     r="1.131"
     transform="scale(-1,1)" />
  <path
     style="fill:none;stroke:#000000;stroke-width:0.05px"
     d="m 277.91955,328 -1.6,1.6 m 0,-1.6 1.6,1.6"
     id="path114"
     inkscape:connector-curvature="0" />
  <circle
     style="fill:none;stroke:#000000;stroke-width:0.05px"
     id="aleksandrija.2"
     cx="-285.87958"
     cy="326.39999"
     r="1.131"
     transform="scale(-1,1)" />
  <path
     style="fill:none;stroke:#000000;stroke-width:0.05px"
     d="m 286.67955,325.6 -1.6,1.6 m 0,-1.6 1.6,1.6"
     id="path117"
     inkscape:connector-curvature="0" />
  <circle
     style="fill:none;stroke:#000000;stroke-width:0.05px"
     id="aleksandrija.3"
     cx="-296.31958"
     cy="325.67999"
     r="1.131"
     transform="scale(-1,1)" />
  <path
     style="fill:none;stroke:#000000;stroke-width:0.05px"
     d="m 297.11955,324.88 -1.6,1.6 m 0,-1.6 1.6,1.6"
     id="path120"
     inkscape:connector-curvature="0" />
  <circle
     style="fill:none;stroke:#000000;stroke-width:0.05px"
     id="aleksandrija.4"
     cx="-322.79956"
     cy="320.44"
     r="1.131"
     transform="scale(-1,1)" />
  <path
     style="fill:none;stroke:#000000;stroke-width:0.05px"
     d="m 323.59955,319.64 -1.6,1.6 m 0,-1.6 1.6,1.6"
     id="path123"
     inkscape:connector-curvature="0" />
  <circle
     style="fill:none;stroke:#000000;stroke-width:0.05px"
     id="aleksandrija.4a"
     cx="-348.75955"
     cy="314.84"
     r="1.131"
     transform="scale(-1,1)" />
  <path
     style="fill:none;stroke:#000000;stroke-width:0.05px"
     d="m 349.55955,314.04 -1.6,1.6 m 0,-1.6 1.6,1.6"
     id="path126"
     inkscape:connector-curvature="0" />
  <circle
     style="fill:none;stroke:#000000;stroke-width:0.05px"
     id="aleksandrija.5"
     cx="-350.63956"
     cy="308.07999"
     r="1.131"
     transform="scale(-1,1)" />
  <path
     style="fill:none;stroke:#000000;stroke-width:0.05px"
     d="m 351.43955,307.28 -1.6,1.6 m 0,-1.6 1.6,1.6"
     id="path129"
     inkscape:connector-curvature="0" />
  <circle
     style="fill:none;stroke:#000000;stroke-width:0.05px"
     id="aleksandrija.6"
     cx="-359.43954"
     cy="306.32001"
     r="1.131"
     transform="scale(-1,1)" />
  <path
     style="fill:none;stroke:#000000;stroke-width:0.05px"
     d="m 360.23955,305.52 -1.6,1.6 m 0,-1.6 1.6,1.6"
     id="path132"
     inkscape:connector-curvature="0" />
  <circle
     style="fill:none;stroke:#000000;stroke-width:0.05px"
     id="aleksandrija.7"
     cx="-379.07956"
     cy="305.32001"
     r="1.131"
     transform="scale(-1,1)" />
  <path
     style="fill:none;stroke:#000000;stroke-width:0.05px"
     d="m 379.87955,304.52 -1.6,1.6 m 0,-1.6 1.6,1.6"
     id="path135"
     inkscape:connector-curvature="0" />
  <circle
     style="fill:none;stroke:#000000;stroke-width:0.05px"
     id="aleksandrija.8"
     cx="-379.43954"
     cy="302.56"
     r="1.131"
     transform="scale(-1,1)" />
  <path
     style="fill:none;stroke:#000000;stroke-width:0.05px"
     d="m 380.23955,301.76 -1.6,1.6 m 0,-1.6 1.6,1.6"
     id="path138"
     inkscape:connector-curvature="0" />
  <circle
     style="fill:none;stroke:#000000;stroke-width:0.05px"
     id="aleksandrija.9"
     cx="-408.67957"
     cy="295.56"
     r="1.131"
     transform="scale(-1,1)" />
  <path
     style="fill:none;stroke:#000000;stroke-width:0.05px"
     d="m 409.47955,294.76 -1.6,1.6 m 0,-1.6 1.6,1.6"
     id="path141"
     inkscape:connector-curvature="0" />
  <circle
     style="fill:none;stroke:#000000;stroke-width:0.05px"
     id="aleksandrija.10"
     cx="-428.15955"
     cy="292.12"
     r="1.131"
     transform="scale(-1,1)" />
  <path
     style="fill:none;stroke:#000000;stroke-width:0.05px"
     d="m 428.95955,291.32 -1.6,1.6 m 0,-1.6 1.6,1.6"
     id="path144"
     inkscape:connector-curvature="0" />
  <circle
     style="fill:none;stroke:#000000;stroke-width:0.05px"
     id="aleksandrija.11"
     cx="-439.43954"
     cy="286.47998"
     r="1.131"
     transform="scale(-1,1)" />
  <path
     style="fill:none;stroke:#000000;stroke-width:0.05px"
     d="m 440.23955,285.68 -1.6,1.6 m 0,-1.6 1.6,1.6"
     id="path147"
     inkscape:connector-curvature="0" />
  <circle
     style="fill:none;stroke:#000000;stroke-width:0.05px"
     id="aleksandrija.11a"
     cx="-447.71954"
     cy="283.95999"
     r="1.131"
     transform="scale(-1,1)" />
  <path
     style="fill:none;stroke:#000000;stroke-width:0.05px"
     d="m 448.51955,283.16 -1.6,1.6 m 0,-1.6 1.6,1.6"
     id="path150"
     inkscape:connector-curvature="0" />
  <circle
     style="fill:none;stroke:#000000;stroke-width:0.05px"
     id="aleksandrija.12"
     cx="-457.19955"
     cy="281.56"
     r="1.131"
     transform="scale(-1,1)" />
  <path
     style="fill:none;stroke:#000000;stroke-width:0.05px"
     d="m 457.99955,280.76 -1.6,1.6 m 0,-1.6 1.6,1.6"
     id="path153"
     inkscape:connector-curvature="0" />
  <circle
     style="fill:none;stroke:#000000;stroke-width:0.05px"
     id="aleksandrija.13"
     cx="-477.67957"
     cy="274.23999"
     r="1.131"
     transform="scale(-1,1)" />
  <path
     style="fill:none;stroke:#000000;stroke-width:0.05px"
     d="m 478.47955,273.44 -1.6,1.6 m 0,-1.6 1.6,1.6"
     id="path156"
     inkscape:connector-curvature="0" />
  <circle
     style="fill:none;stroke:#000000;stroke-width:0.05px"
     id="aleksandrija.13a"
     cx="-496.27954"
     cy="272.15997"
     r="1.131"
     transform="scale(-1,1)" />
  <path
     style="fill:none;stroke:#000000;stroke-width:0.05px"
     d="m 497.07955,271.36 -1.6,1.6 m 0,-1.6 1.6,1.6"
     id="path159"
     inkscape:connector-curvature="0" />
  <circle
     style="fill:none;stroke:#000000;stroke-width:0.05px"
     id="aleksandrija.13b"
     cx="-507.63956"
     cy="270.87997"
     r="1.131"
     transform="scale(-1,1)" />
  <path
     style="fill:none;stroke:#000000;stroke-width:0.05px"
     d="m 508.43955,270.08 -1.6,1.6 m 0,-1.6 1.6,1.6"
     id="path162"
     inkscape:connector-curvature="0" />
  <circle
     style="fill:none;stroke:#000000;stroke-width:0.05px"
     id="aleksandrija.14"
     cx="-526.35956"
     cy="268.67999"
     r="1.131"
     transform="scale(-1,1)" />
  <path
     style="fill:none;stroke:#000000;stroke-width:0.05px"
     d="m 527.15955,267.88 -1.6,1.6 m 0,-1.6 1.6,1.6"
     id="path165"
     inkscape:connector-curvature="0" />
  <circle
     style="fill:none;stroke:#000000;stroke-width:0.05px"
     id="aleksandrija.15"
     cx="-538.35956"
     cy="266.39999"
     r="1.131"
     transform="scale(-1,1)" />
  <path
     style="fill:none;stroke:#000000;stroke-width:0.05px"
     d="m 539.15955,265.6 -1.6,1.6 m 0,-1.6 1.6,1.6"
     id="path168"
     inkscape:connector-curvature="0" />
  <circle
     style="fill:none;stroke:#000000;stroke-width:0.05px"
     id="aleksandrija.15a"
     cx="-556.11951"
     cy="259"
     r="1.131"
     transform="scale(-1,1)" />
  <path
     style="fill:none;stroke:#000000;stroke-width:0.05px"
     d="m 556.91955,258.2 -1.6,1.6 m 0,-1.6 1.6,1.6"
     id="path171"
     inkscape:connector-curvature="0" />
  <circle
     style="fill:none;stroke:#000000;stroke-width:0.05px"
     id="aleksandrija.16"
     cx="-573.79956"
     cy="251.72002"
     r="1.131"
     transform="scale(-1,1)" />
  <path
     style="fill:none;stroke:#000000;stroke-width:0.05px"
     d="m 574.59955,250.92 -1.6,1.6 m 0,-1.6 1.6,1.6"
     id="path174"
     inkscape:connector-curvature="0" />
  <circle
     style="fill:none;stroke:#000000;stroke-width:0.05px"
     id="aleksandrija.17"
     cx="-581.43951"
     cy="243.28001"
     r="1.131"
     transform="scale(-1,1)" />
  <path
     style="fill:none;stroke:#000000;stroke-width:0.05px"
     d="m 582.23955,242.48 -1.6,1.6 m 0,-1.6 1.6,1.6"
     id="path177"
     inkscape:connector-curvature="0" />
  <circle
     style="fill:none;stroke:#000000;stroke-width:0.05px"
     id="aleksandrija.18"
     cx="-602.71954"
     cy="219.72002"
     r="1.131"
     transform="scale(-1,1)" />
  <path
     style="fill:none;stroke:#000000;stroke-width:0.05px"
     d="m 603.51955,218.92 -1.6,1.6 m 0,-1.6 1.6,1.6"
     id="path180"
     inkscape:connector-curvature="0" />
  <circle
     style="fill:none;stroke:#000000;stroke-width:0.05px"
     id="aleksandrija.19"
     cx="-625.03955"
     cy="205.00002"
     r="1.131"
     transform="scale(-1,1)" />
  <path
     style="fill:none;stroke:#000000;stroke-width:0.05px"
     d="m 625.83955,204.2 -1.6,1.6 m 0,-1.6 1.6,1.6"
     id="path183"
     inkscape:connector-curvature="0" />
</svg>
