0
SECTION
2
HEADER
9
$EXTMIN
10
-380.840000
20
-328.910000
30
-715.550000
9
$EXTMAX
10
40.100000
20
226.530000
30
31.170000
9
$PDMODE
70
3
9
$PDSIZE
40
  0.80
0
ENDSEC
0
SECTION
2
TABLES
0
TABLE
2
LAYER
70
10
0
LAYER
2
CentreLine
70
64
62
5
6
CONTINUOUS
0
LAYER
2
Stations
70
64
62
7
6
CONTINUOUS
0
LAYER
2
Labels
70
64
62
7
6
CONTINUOUS
0
ENDTAB
0
ENDSEC
0
SECTION
2
ENTITIES
0
LINE
8
CentreLine
10
  0.00
20
  0.00
30
  0.00
11
 -4.38
21
 10.32
31
 -6.74
0
LINE
8
CentreLine
10
 -4.38
20
 10.32
30
 -6.74
11
 -8.88
21
  9.28
31
 -7.97
0
LINE
8
CentreLine
10
 -8.88
20
  9.28
30
 -7.97
11
-13.67
21
  9.11
31
-23.66
0
LINE
8
CentreLine
10
-13.67
20
  9.11
30
-23.66
11
-20.06
21
  5.42
31
-28.63
0
LINE
8
CentreLine
10
-20.06
20
  5.42
30
-28.63
11
-20.27
21
  3.94
31
-28.63
0
LINE
8
CentreLine
10
-20.27
20
  3.94
30
-28.63
11
-21.13
21
  3.48
31
-37.88
0
LINE
8
CentreLine
10
-21.13
20
  3.48
30
-37.88
11
-26.81
21
  0.07
31
-40.70
0
LINE
8
CentreLine
10
-26.81
20
  0.07
30
-40.70
11
-27.39
21
 -0.69
31
-44.79
0
LINE
8
CentreLine
10
-27.39
20
 -0.69
30
-44.79
11
-31.90
21
 -0.77
31
-46.43
0
LINE
8
CentreLine
10
-31.90
20
 -0.77
30
-46.43
11
-36.01
21
  0.34
31
-47.10
0
LINE
8
CentreLine
10
-36.01
20
  0.34
30
-47.10
11
-36.01
21
  0.34
31
-53.90
0
LINE
8
CentreLine
10
-36.01
20
  0.34
30
-53.90
11
-46.66
21
 -0.79
31
-57.80
0
LINE
8
CentreLine
10
  0.00
20
  0.00
30
  0.00
11
 -1.31
21
  0.82
31
 -2.28
0
LINE
8
CentreLine
10
 -1.31
20
  0.82
30
 -2.28
11
 -1.31
21
  0.82
31
 -9.47
0
LINE
8
CentreLine
10
 -1.31
20
  0.82
30
 -9.47
11
 -3.32
21
 10.30
31
 -5.56
0
LINE
8
CentreLine
10
 -3.32
20
 10.30
30
 -5.56
11
 -2.33
21
  9.65
31
 -6.36
0
LINE
8
CentreLine
10
 -2.33
20
  9.65
30
 -6.36
11
 -2.33
21
  9.65
31
-34.56
0
LINE
8
CentreLine
10
 -2.33
20
  9.65
30
-34.56
11
 -2.76
21
  3.53
31
-38.40
0
LINE
8
CentreLine
10
 -2.76
20
  3.53
30
-38.40
11
 -2.76
21
  3.53
31
-43.70
0
LINE
8
CentreLine
10
 -2.76
20
  3.53
30
-43.70
11
  2.47
21
  2.89
31
-44.53
0
LINE
8
CentreLine
10
  2.47
20
  2.89
30
-44.53
11
  2.59
21
 -0.72
31
-46.69
0
LINE
8
CentreLine
10
  2.59
20
 -0.72
30
-46.69
11
  1.01
21
 -0.27
31
-49.55
0
LINE
8
CentreLine
10
  1.01
20
 -0.27
30
-49.55
11
  5.44
21
  3.21
31
-49.55
0
LINE
8
CentreLine
10
  5.44
20
  3.21
30
-49.55
11
  5.44
21
  3.21
31
-57.91
0
LINE
8
CentreLine
10
  5.44
20
  3.21
30
-57.91
11
  4.00
21
 -1.84
31
-56.60
0
LINE
8
CentreLine
10
  4.00
20
 -1.84
30
-56.60
11
  0.25
21
 -8.60
31
-59.73
0
LINE
8
CentreLine
10
  0.25
20
 -8.60
30
-59.73
11
 -3.26
21
 -9.16
31
-63.53
0
LINE
8
CentreLine
10
 -3.26
20
 -9.16
30
-63.53
11
-10.07
21
-14.28
31
-62.03
0
LINE
8
CentreLine
10
-10.07
20
-14.28
30
-62.03
11
-20.39
21
-16.29
31
-57.99
0
LINE
8
CentreLine
10
-20.39
20
-16.29
30
-57.99
11
-17.26
21
-14.48
31
-59.16
0
LINE
8
CentreLine
10
-17.26
20
-14.48
30
-59.16
11
-15.19
21
-15.50
31
-61.25
0
LINE
8
CentreLine
10
-15.19
20
-15.50
30
-61.25
11
-17.16
21
-16.46
31
-64.16
0
LINE
8
CentreLine
10
-17.16
20
-16.46
30
-64.16
11
-17.16
21
-16.46
31
-67.62
0
LINE
8
CentreLine
10
-17.16
20
-16.46
30
-67.62
11
-20.15
21
-18.55
31
-65.07
0
LINE
8
CentreLine
10
-20.15
20
-18.55
30
-65.07
11
-21.96
21
-20.18
31
-68.30
0
LINE
8
CentreLine
10
-21.96
20
-20.18
30
-68.30
11
-21.96
21
-20.18
31
-75.20
0
LINE
8
CentreLine
10
-21.96
20
-20.18
30
-75.20
11
-28.45
21
-20.07
31
-75.54
0
LINE
8
CentreLine
10
-28.45
20
-20.07
30
-75.54
11
-28.18
21
-18.38
31
-75.54
0
LINE
8
CentreLine
10
-28.18
20
-18.38
30
-75.54
11
-28.18
21
-18.38
31
-90.76
0
LINE
8
CentreLine
10
-28.18
20
-18.38
30
-90.76
11
-44.26
21
-13.46
31
-87.19
0
LINE
8
CentreLine
10
-44.26
20
-13.46
30
-87.19
11
-46.51
21
-13.50
31
-87.67
0
LINE
8
CentreLine
10
-46.51
20
-13.50
30
-87.67
11
-47.12
21
-11.83
31
-87.95
0
LINE
8
CentreLine
10
-47.12
20
-11.83
30
-87.95
11
-47.57
21
 -7.49
31
-92.63
0
LINE
8
CentreLine
10
-47.57
20
 -7.49
30
-92.63
11
-47.57
21
 -7.49
31
-133.83
0
LINE
8
CentreLine
10
-47.57
20
 -7.49
30
-133.83
11
-47.57
21
 -7.49
31
-151.33
0
LINE
8
CentreLine
10
-47.57
20
 -7.49
30
-151.33
11
-46.96
21
-25.13
31
-151.02
0
LINE
8
CentreLine
10
-46.96
20
-25.13
30
-151.02
11
-48.20
21
-28.94
31
-155.48
0
LINE
8
CentreLine
10
-48.20
20
-28.94
30
-155.48
11
-48.20
21
-28.94
31
-160.28
0
LINE
8
CentreLine
10
-48.20
20
-28.94
30
-160.28
11
-49.05
21
-33.33
31
-161.73
0
LINE
8
CentreLine
10
-49.05
20
-33.33
30
-161.73
11
-47.20
21
-38.42
31
-166.78
0
LINE
8
CentreLine
10
-47.20
20
-38.42
30
-166.78
11
-45.38
21
-44.76
31
-166.89
0
LINE
8
CentreLine
10
-45.38
20
-44.76
30
-166.89
11
-45.38
21
-44.76
31
-184.09
0
LINE
8
CentreLine
10
  0.00
20
  0.00
30
  0.00
11
  5.01
21
 -3.51
31
  2.35
0
LINE
8
CentreLine
10
  5.01
20
 -3.51
30
  2.35
11
  5.01
21
 -3.51
31
  6.75
0
LINE
8
CentreLine
10
  5.01
20
 -3.51
30
  6.75
11
 11.80
21
 -4.23
31
  6.39
0
LINE
8
CentreLine
10
 11.80
20
 -4.23
30
  6.39
11
 11.80
21
 -4.23
31
 11.34
0
LINE
8
CentreLine
10
 11.80
20
 -4.23
30
 11.34
11
 15.78
21
 -5.14
31
 12.07
0
LINE
8
CentreLine
10
 15.78
20
 -5.14
30
 12.07
11
 16.21
21
 -3.64
31
 11.05
0
LINE
8
CentreLine
10
 16.21
20
 -3.64
30
 11.05
11
 18.25
21
 -2.81
31
 12.17
0
LINE
8
CentreLine
10
 18.25
20
 -2.81
30
 12.17
11
 18.25
21
 -2.81
31
 18.24
0
LINE
8
CentreLine
10
 18.25
20
 -2.81
30
 18.24
11
 18.43
21
 -0.73
31
 19.99
0
LINE
8
CentreLine
10
 18.43
20
 -0.73
30
 19.99
11
 18.43
21
 -0.73
31
 22.20
0
LINE
8
CentreLine
10
 18.43
20
 -0.73
30
 22.20
11
 22.45
21
 -4.10
31
 22.02
0
LINE
8
CentreLine
10
 22.45
20
 -4.10
30
 22.02
11
 25.03
21
 -5.41
31
 22.79
0
LINE
8
CentreLine
10
 25.03
20
 -5.41
30
 22.79
11
 28.50
21
 -4.29
31
 23.57
0
LINE
8
CentreLine
10
 28.50
20
 -4.29
30
 23.57
11
 35.01
21
 -1.52
31
 28.16
0
LINE
8
CentreLine
10
 35.01
20
 -1.52
30
 28.16
11
 40.10
21
  0.34
31
 31.17
0
LINE
8
CentreLine
10
-45.38
20
-44.76
30
-166.89
11
-44.93
21
-46.00
31
-176.29
0
LINE
8
CentreLine
10
-44.93
20
-46.00
30
-176.29
11
-43.85
21
-49.54
31
-177.64
0
LINE
8
CentreLine
10
-43.85
20
-49.54
30
-177.64
11
-41.49
21
-50.13
31
-174.53
0
LINE
8
CentreLine
10
-41.49
20
-50.13
30
-174.53
11
-39.40
21
-67.16
31
-171.20
0
LINE
8
CentreLine
10
-39.40
20
-67.16
30
-171.20
11
-36.92
21
-79.95
31
-170.97
0
LINE
8
CentreLine
10
-36.92
20
-79.95
30
-170.97
11
-39.08
21
-79.53
31
-171.16
0
LINE
8
CentreLine
10
-39.08
20
-79.53
30
-171.16
11
-40.45
21
-77.49
31
-171.87
0
LINE
8
CentreLine
10
-40.45
20
-77.49
30
-171.87
11
-40.45
21
-77.49
31
-183.18
0
LINE
8
CentreLine
10
-40.45
20
-77.49
30
-183.18
11
-37.85
21
-80.18
31
-190.22
0
LINE
8
CentreLine
10
-37.85
20
-80.18
30
-190.22
11
-38.57
21
-80.59
31
-213.78
0
LINE
8
CentreLine
10
-38.57
20
-80.59
30
-213.78
11
-42.44
21
-81.70
31
-213.50
0
LINE
8
CentreLine
10
-42.44
20
-81.70
30
-213.50
11
-45.85
21
-83.37
31
-215.69
0
LINE
8
CentreLine
10
-45.85
20
-83.37
30
-215.69
11
-46.60
21
-80.74
31
-215.60
0
LINE
8
CentreLine
10
-46.60
20
-80.74
30
-215.60
11
-48.20
21
-79.15
31
-241.40
0
LINE
8
CentreLine
10
-48.20
20
-79.15
30
-241.40
11
-58.12
21
-75.73
31
-242.87
0
LINE
8
CentreLine
10
-58.12
20
-75.73
30
-242.87
11
-58.12
21
-75.73
31
-262.76
0
LINE
8
CentreLine
10
-58.12
20
-75.73
30
-262.76
11
-57.74
21
-79.43
31
-261.34
0
LINE
8
CentreLine
10
-57.74
20
-79.43
30
-261.34
11
-58.28
21
-82.01
31
-261.90
0
LINE
8
CentreLine
10
-58.28
20
-82.01
30
-261.90
11
-58.28
21
-82.01
31
-275.71
0
LINE
8
CentreLine
10
-58.28
20
-82.01
30
-275.71
11
-58.28
21
-82.01
31
-296.29
0
LINE
8
CentreLine
10
-58.28
20
-82.01
30
-296.29
11
-58.28
21
-82.01
31
-314.34
0
LINE
8
CentreLine
10
-58.28
20
-82.01
30
-314.34
11
-58.28
21
-82.01
31
-328.67
0
LINE
8
CentreLine
10
-58.28
20
-82.01
30
-328.67
11
-59.07
21
-86.44
31
-328.67
0
LINE
8
CentreLine
10
-59.07
20
-86.44
30
-328.67
11
-71.16
21
-88.36
31
-329.09
0
LINE
8
CentreLine
10
-71.16
20
-88.36
30
-329.09
11
-71.68
21
-88.02
31
-329.41
0
LINE
8
CentreLine
10
-71.68
20
-88.02
30
-329.41
11
-71.68
21
-88.02
31
-344.89
0
LINE
8
CentreLine
10
-71.68
20
-88.02
30
-344.89
11
-77.87
21
-90.64
31
-347.47
0
LINE
8
CentreLine
10
-77.87
20
-90.64
30
-347.47
11
-82.48
21
-91.96
31
-349.61
0
LINE
8
CentreLine
10
-82.48
20
-91.96
30
-349.61
11
-82.48
21
-91.96
31
-361.83
0
LINE
8
CentreLine
10
-82.48
20
-91.96
30
-361.83
11
-84.98
21
-89.46
31
-360.18
0
LINE
8
CentreLine
10
-84.98
20
-89.46
30
-360.18
11
-86.04
21
-89.65
31
-362.40
0
LINE
8
CentreLine
10
-86.04
20
-89.65
30
-362.40
11
-86.04
21
-89.65
31
-390.33
0
LINE
8
CentreLine
10
-86.04
20
-89.65
30
-390.33
11
-90.33
21
-90.41
31
-400.58
0
LINE
8
CentreLine
10
-90.33
20
-90.41
30
-400.58
11
-92.75
21
-91.75
31
-402.05
0
LINE
8
CentreLine
10
-92.75
20
-91.75
30
-402.05
11
-97.74
21
-92.28
31
-408.96
0
LINE
8
CentreLine
10
-97.74
20
-92.28
30
-408.96
11
-97.54
21
-96.26
31
-411.65
0
LINE
8
CentreLine
10
-97.54
20
-96.26
30
-411.65
11
-96.57
21
-99.24
31
-412.91
0
LINE
8
CentreLine
10
-96.57
20
-99.24
30
-412.91
11
-100.14
21
-106.90
31
-415.26
0
LINE
8
CentreLine
10
-100.14
20
-106.90
30
-415.26
11
-101.64
21
-107.41
31
-415.40
0
LINE
8
CentreLine
10
-101.64
20
-107.41
30
-415.40
11
-99.91
21
-111.12
31
-415.33
0
LINE
8
CentreLine
10
-99.91
20
-111.12
30
-415.33
11
-101.88
21
-112.00
31
-416.03
0
LINE
8
CentreLine
10
-101.88
20
-112.00
30
-416.03
11
-105.05
21
-110.17
31
-417.36
0
LINE
8
CentreLine
10
-97.74
20
-92.28
30
-408.96
11
-94.67
21
-94.13
31
-413.55
0
LINE
8
CentreLine
10
-86.04
20
-89.65
30
-390.33
11
-86.04
21
-89.65
31
-400.57
0
LINE
8
CentreLine
10
-86.04
20
-89.65
30
-400.57
11
-86.04
21
-89.65
31
-396.84
0
LINE
8
CentreLine
10
-86.04
20
-89.65
30
-396.84
11
-96.77
21
-87.95
31
-397.41
0
LINE
8
CentreLine
10
-96.77
20
-87.95
30
-397.41
11
-98.08
21
-78.62
31
-393.41
0
LINE
8
CentreLine
10
-98.08
20
-78.62
30
-393.41
11
-100.79
21
-78.43
31
-394.35
0
LINE
8
CentreLine
10
-100.79
20
-78.43
30
-394.35
11
-112.18
21
-78.03
31
-407.92
0
LINE
8
CentreLine
10
-112.18
20
-78.03
30
-407.92
11
-114.57
21
-81.58
31
-410.49
0
LINE
8
CentreLine
10
-114.57
20
-81.58
30
-410.49
11
-116.03
21
-83.44
31
-411.08
0
LINE
8
CentreLine
10
-116.03
20
-83.44
30
-411.08
11
-112.45
21
-85.27
31
-412.16
0
LINE
8
CentreLine
10
-112.45
20
-85.27
30
-412.16
11
-111.91
21
-87.14
31
-416.97
0
LINE
8
CentreLine
10
-111.91
20
-87.14
30
-416.97
11
-111.91
21
-94.39
31
-420.35
0
LINE
8
CentreLine
10
-43.85
20
-49.54
30
-177.64
11
-45.90
21
-49.15
31
-179.73
0
LINE
8
CentreLine
10
-45.90
20
-49.15
30
-179.73
11
-45.50
21
-49.95
31
-184.36
0
LINE
8
CentreLine
10
-45.50
20
-49.95
30
-184.36
11
-44.98
21
-52.93
31
-186.63
0
LINE
8
CentreLine
10
-44.98
20
-52.93
30
-186.63
11
-41.17
21
-56.01
31
-186.72
0
LINE
8
CentreLine
10
-41.17
20
-56.01
30
-186.72
11
-41.63
21
-58.20
31
-188.23
0
LINE
8
CentreLine
10
-41.63
20
-58.20
30
-188.23
11
-40.70
21
-62.59
31
-189.43
0
LINE
8
CentreLine
10
-20.39
20
-16.29
30
-57.99
11
-21.96
21
-19.12
31
-57.99
0
LINE
8
CentreLine
10
-21.96
20
-19.12
30
-57.99
11
-20.00
21
-18.67
31
-58.73
0
LINE
8
CentreLine
10
-20.00
20
-18.67
30
-58.73
11
-20.00
21
-18.67
31
-52.18
0
LINE
8
CentreLine
10
-20.00
20
-18.67
30
-52.18
11
-18.60
21
-18.13
31
-52.18
0
LINE
8
CentreLine
10
-18.60
20
-18.13
30
-52.18
11
-17.46
21
-20.56
31
-52.18
0
LINE
8
CentreLine
10
-17.46
20
-20.56
30
-52.18
11
-15.37
21
-19.76
31
-50.30
0
LINE
8
CentreLine
10
-15.37
20
-19.76
30
-50.30
11
-15.37
21
-19.76
31
-45.70
0
LINE
8
CentreLine
10
-15.37
20
-19.76
30
-45.70
11
-12.36
21
-18.35
31
-44.68
0
LINE
8
CentreLine
10
-12.36
20
-18.35
30
-44.68
11
 -8.43
21
-18.56
31
-44.75
0
LINE
8
CentreLine
10
 -8.43
20
-18.56
30
-44.75
11
 -7.62
21
-16.72
31
-38.92
0
LINE
8
CentreLine
10
 -7.62
20
-16.72
30
-38.92
11
-15.20
21
-17.79
31
-35.82
0
LINE
8
CentreLine
10
-15.20
20
-17.79
30
-35.82
11
-17.06
21
-21.29
31
-35.68
0
LINE
8
CentreLine
10
-17.06
20
-21.29
30
-35.68
11
-15.75
21
-23.98
31
-37.34
0
LINE
8
CentreLine
10
-15.75
20
-23.98
30
-37.34
11
-19.16
21
-22.94
31
-35.52
0
LINE
8
CentreLine
10
-15.20
20
-17.79
30
-35.82
11
-13.95
21
-20.14
31
-32.65
0
LINE
8
CentreLine
10
-13.95
20
-20.14
30
-32.65
11
-12.88
21
-18.29
31
-31.31
0
LINE
8
CentreLine
10
-17.46
20
-20.56
30
-52.18
11
-15.81
21
-19.72
31
-55.99
0
LINE
8
CentreLine
10
-15.81
20
-19.72
30
-55.99
11
-15.73
21
-21.85
31
-58.72
0
LINE
8
CentreLine
10
-15.73
20
-21.85
30
-58.72
11
-15.73
21
-21.85
31
-75.12
0
LINE
8
CentreLine
10
-20.39
20
-16.29
30
-57.99
11
-20.39
21
-16.29
31
-51.43
0
LINE
8
CentreLine
10
-20.39
20
-16.29
30
-51.43
11
-19.70
21
-13.30
31
-52.14
0
LINE
8
CentreLine
10
-19.70
20
-13.30
30
-52.14
11
-15.25
21
 -8.53
31
-48.67
0
LINE
8
CentreLine
10
-15.25
20
 -8.53
30
-48.67
11
-15.37
21
 -7.17
31
-45.46
0
LINE
8
CentreLine
10
-15.37
20
 -7.17
30
-45.46
11
-14.04
21
 -3.51
31
-45.80
0
LINE
8
CentreLine
10
-112.18
20
-78.03
30
-407.92
11
-116.36
21
-77.14
31
-404.82
0
LINE
8
CentreLine
10
-116.36
20
-77.14
30
-404.82
11
-121.43
21
-85.26
31
-409.48
0
LINE
8
CentreLine
10
-121.43
20
-85.26
30
-409.48
11
-124.38
21
-85.89
31
-410.07
0
LINE
8
CentreLine
10
-124.38
20
-85.89
30
-410.07
11
-126.35
21
-84.61
31
-409.95
0
LINE
8
CentreLine
10
-126.35
20
-84.61
30
-409.95
11
-126.35
21
-84.61
31
-409.18
0
LINE
8
CentreLine
10
-126.35
20
-84.61
30
-409.18
11
-129.21
21
-84.25
31
-411.27
0
LINE
8
CentreLine
10
-129.21
20
-84.25
30
-411.27
11
-130.86
21
-85.69
31
-412.58
0
LINE
8
CentreLine
10
-130.86
20
-85.69
30
-412.58
11
-133.21
21
-85.02
31
-414.17
0
LINE
8
CentreLine
10
-133.21
20
-85.02
30
-414.17
11
-136.08
21
-89.80
31
-422.14
0
LINE
8
CentreLine
10
-136.08
20
-89.80
30
-422.14
11
-134.30
21
-95.62
31
-423.43
0
LINE
8
CentreLine
10
-134.30
20
-95.62
30
-423.43
11
-131.99
21
-94.78
31
-423.30
0
LINE
8
CentreLine
10
-131.99
20
-94.78
30
-423.30
11
-131.48
21
-94.60
31
-425.20
0
LINE
8
CentreLine
10
-131.48
20
-94.60
30
-425.20
11
-132.98
21
-97.82
31
-431.11
0
LINE
8
CentreLine
10
-132.98
20
-97.82
30
-431.11
11
-129.41
21
-100.05
31
-429.24
0
LINE
8
CentreLine
10
-129.41
20
-100.05
30
-429.24
11
-129.78
21
-101.79
31
-431.59
0
LINE
8
CentreLine
10
-129.78
20
-101.79
30
-431.59
11
-129.78
21
-101.79
31
-437.22
0
LINE
8
CentreLine
10
-129.78
20
-101.79
30
-437.22
11
-131.15
21
-106.92
31
-437.59
0
LINE
8
CentreLine
10
-131.15
20
-106.92
30
-437.59
11
-131.95
21
-111.45
31
-439.45
0
LINE
8
CentreLine
10
-131.95
20
-111.45
30
-439.45
11
-133.35
21
-115.08
31
-441.79
0
LINE
8
CentreLine
10
-133.35
20
-115.08
30
-441.79
11
-125.59
21
-121.58
31
-456.79
0
LINE
8
CentreLine
10
-125.59
20
-121.58
30
-456.79
11
-122.31
21
-118.83
31
-455.40
0
LINE
8
CentreLine
10
-122.31
20
-118.83
30
-455.40
11
-120.41
21
-119.52
31
-459.04
0
LINE
8
CentreLine
10
-120.41
20
-119.52
30
-459.04
11
-118.43
21
-124.67
31
-461.85
0
LINE
8
CentreLine
10
-118.43
20
-124.67
30
-461.85
11
-116.21
21
-125.86
31
-461.18
0
LINE
8
CentreLine
10
-116.21
20
-125.86
30
-461.18
11
-112.49
21
-120.74
31
-461.84
0
LINE
8
CentreLine
10
-112.49
20
-120.74
30
-461.84
11
-109.81
21
-119.38
31
-462.05
0
LINE
8
CentreLine
10
-109.81
20
-119.38
30
-462.05
11
-107.43
21
-119.13
31
-461.84
0
LINE
8
CentreLine
10
-107.43
20
-119.13
30
-461.84
11
-107.43
21
-119.13
31
-491.84
0
LINE
8
CentreLine
10
-107.43
20
-119.13
30
-491.84
11
-107.78
21
-121.57
31
-490.80
0
LINE
8
CentreLine
10
-107.78
20
-121.57
30
-490.80
11
-109.65
21
-121.90
31
-496.01
0
LINE
8
CentreLine
10
-109.65
20
-121.90
30
-496.01
11
-109.65
21
-121.90
31
-514.51
0
LINE
8
CentreLine
10
-109.65
20
-121.90
30
-514.51
11
-115.60
21
-120.31
31
-513.20
0
LINE
8
CentreLine
10
-115.60
20
-120.31
30
-513.20
11
-121.56
21
-126.92
31
-516.27
0
LINE
8
CentreLine
10
-115.60
20
-120.31
30
-513.20
11
-110.19
21
-124.46
31
-510.99
0
LINE
8
CentreLine
10
-110.19
20
-124.46
30
-510.99
11
-101.68
21
-141.91
31
-509.97
0
LINE
8
CentreLine
10
-101.68
20
-141.91
30
-509.97
11
-88.14
21
-154.09
31
-510.92
0
LINE
8
CentreLine
10
-88.14
20
-154.09
30
-510.92
11
-82.80
21
-159.53
31
-512.41
0
LINE
8
CentreLine
10
-82.80
20
-159.53
30
-512.41
11
-78.32
21
-171.51
31
-510.38
0
LINE
8
CentreLine
10
-78.32
20
-171.51
30
-510.38
11
-83.37
21
-160.69
31
-508.17
0
LINE
8
CentreLine
10
-83.37
20
-160.69
30
-508.17
11
-91.10
21
-160.01
31
-510.40
0
LINE
8
CentreLine
10
-91.10
20
-160.01
30
-510.40
11
-92.53
21
-171.65
31
-512.68
0
LINE
8
CentreLine
10
-92.53
20
-171.65
30
-512.68
11
-93.83
21
-178.66
31
-514.00
0
LINE
8
CentreLine
10
-93.83
20
-178.66
30
-514.00
11
-86.49
21
-201.94
31
-515.49
0
LINE
8
CentreLine
10
-86.49
20
-201.94
30
-515.49
11
-79.42
21
-207.66
31
-515.65
0
LINE
8
CentreLine
10
-79.42
20
-207.66
30
-515.65
11
-76.03
21
-218.09
31
-516.03
0
LINE
8
CentreLine
10
-76.03
20
-218.09
30
-516.03
11
-69.46
21
-229.96
31
-522.07
0
LINE
8
CentreLine
10
-69.46
20
-229.96
30
-522.07
11
-80.18
21
-238.04
31
-528.05
0
LINE
8
CentreLine
10
-80.18
20
-238.04
30
-528.05
11
-81.60
21
-239.85
31
-529.98
0
LINE
8
CentreLine
10
-81.60
20
-239.85
30
-529.98
11
-91.28
21
-247.14
31
-529.34
0
LINE
8
CentreLine
10
-91.28
20
-247.14
30
-529.34
11
-99.17
21
-258.42
31
-529.82
0
LINE
8
CentreLine
10
-99.17
20
-258.42
30
-529.82
11
-112.66
21
-266.20
31
-534.00
0
LINE
8
CentreLine
10
-112.66
20
-266.20
30
-534.00
11
-113.71
21
-276.24
31
-537.08
0
LINE
8
CentreLine
10
-113.71
20
-276.24
30
-537.08
11
-111.75
21
-280.43
31
-541.96
0
LINE
8
CentreLine
10
-111.75
20
-280.43
30
-541.96
11
-107.81
21
-290.18
31
-539.73
0
LINE
8
CentreLine
10
-107.81
20
-290.18
30
-539.73
11
-110.56
21
-295.58
31
-537.99
0
LINE
8
CentreLine
10
-110.56
20
-295.58
30
-537.99
11
-119.98
21
-305.68
31
-535.06
0
LINE
8
CentreLine
10
-119.98
20
-305.68
30
-535.06
11
-127.25
21
-300.96
31
-536.58
0
LINE
8
CentreLine
10
-69.46
20
-229.96
30
-522.07
11
-65.31
21
-225.35
31
-525.65
0
LINE
8
CentreLine
10
-65.31
20
-225.35
30
-525.65
11
-67.64
21
-227.94
31
-528.89
0
LINE
8
CentreLine
10
-67.64
20
-227.94
30
-528.89
11
-67.64
21
-227.94
31
-531.79
0
LINE
8
CentreLine
10
-67.64
20
-227.94
30
-531.79
11
-67.96
21
-227.55
31
-531.79
0
LINE
8
CentreLine
10
-67.96
20
-227.55
30
-531.79
11
-67.96
21
-227.55
31
-542.07
0
LINE
8
CentreLine
10
-67.96
20
-227.55
30
-542.07
11
-73.16
21
-230.55
31
-542.07
0
LINE
8
CentreLine
10
-107.81
20
-290.18
30
-539.73
11
-105.14
21
-290.73
31
-539.97
0
LINE
8
CentreLine
10
-105.14
20
-290.73
30
-539.97
11
-101.93
21
-288.57
31
-542.02
0
LINE
8
CentreLine
10
-101.93
20
-288.57
30
-542.02
11
-95.06
21
-288.27
31
-541.30
0
LINE
8
CentreLine
10
-95.06
20
-288.27
30
-541.30
11
-89.40
21
-294.66
31
-538.69
0
LINE
8
CentreLine
10
-89.40
20
-294.66
30
-538.69
11
-90.93
21
-303.33
31
-541.38
0
LINE
8
CentreLine
10
-90.93
20
-303.33
30
-541.38
11
-87.30
21
-309.36
31
-541.99
0
LINE
8
CentreLine
10
-87.30
20
-309.36
30
-541.99
11
-85.92
21
-312.61
31
-543.42
0
LINE
8
CentreLine
10
-85.92
20
-312.61
30
-543.42
11
-78.89
21
-318.30
31
-543.26
0
LINE
8
CentreLine
10
-78.89
20
-318.30
30
-543.26
11
-79.82
21
-317.06
31
-543.26
0
LINE
8
CentreLine
10
-79.82
20
-317.06
30
-543.26
11
-77.80
21
-321.83
31
-543.99
0
LINE
8
CentreLine
10
-77.80
20
-321.83
30
-543.99
11
-74.75
21
-321.35
31
-546.15
0
LINE
8
CentreLine
10
-74.75
20
-321.35
30
-546.15
11
-71.95
21
-322.65
31
-554.65
0
LINE
8
CentreLine
10
-71.95
20
-322.65
30
-554.65
11
-69.43
21
-322.57
31
-558.67
0
LINE
8
CentreLine
10
-69.43
20
-322.57
30
-558.67
11
-68.92
21
-320.51
31
-563.91
0
LINE
8
CentreLine
10
-68.92
20
-320.51
30
-563.91
11
-68.92
21
-320.51
31
-586.01
0
LINE
8
CentreLine
10
-68.92
20
-320.51
30
-586.01
11
-68.92
21
-320.51
31
-596.79
0
LINE
8
CentreLine
10
-68.92
20
-320.51
30
-596.79
11
-68.92
21
-320.51
31
-616.76
0
LINE
8
CentreLine
10
-68.92
20
-320.51
30
-616.76
11
-68.08
21
-317.14
31
-615.22
0
LINE
8
CentreLine
10
-68.08
20
-317.14
30
-615.22
11
-78.93
21
-324.46
31
-614.53
0
LINE
8
CentreLine
10
-78.93
20
-324.46
30
-614.53
11
-80.69
21
-325.84
31
-614.61
0
LINE
8
CentreLine
10
-80.69
20
-325.84
30
-614.61
11
-85.17
21
-324.12
31
-615.11
0
LINE
8
CentreLine
10
-85.17
20
-324.12
30
-615.11
11
-90.68
21
-323.83
31
-615.11
0
LINE
8
CentreLine
10
-90.68
20
-323.83
30
-615.11
11
-92.98
21
-327.66
31
-614.96
0
LINE
8
CentreLine
10
-92.98
20
-327.66
30
-614.96
11
-94.69
21
-327.87
31
-614.99
0
LINE
8
CentreLine
10
-94.69
20
-327.87
30
-614.99
11
-97.34
21
-325.30
31
-614.13
0
LINE
8
CentreLine
10
-97.34
20
-325.30
30
-614.13
11
-98.01
21
-322.17
31
-614.47
0
LINE
8
CentreLine
10
-98.01
20
-322.17
30
-614.47
11
-101.54
21
-316.05
31
-614.10
0
LINE
8
CentreLine
10
-101.54
20
-316.05
30
-614.10
11
-106.94
21
-315.10
31
-614.20
0
LINE
8
CentreLine
10
-106.94
20
-315.10
30
-614.20
11
-104.55
21
-316.53
31
-612.96
0
LINE
8
CentreLine
10
-104.55
20
-316.53
30
-612.96
11
-99.03
21
-326.91
31
-611.09
0
LINE
8
CentreLine
10
-99.03
20
-326.91
30
-611.09
11
-95.10
21
-328.91
31
-610.32
0
LINE
8
CentreLine
10
-95.10
20
-328.91
30
-610.32
11
-90.11
21
-328.12
31
-608.96
0
LINE
8
CentreLine
10
-90.11
20
-328.12
30
-608.96
11
-86.63
21
-324.64
31
-610.75
0
LINE
8
CentreLine
10
-86.63
20
-324.64
30
-610.75
11
-87.42
21
-319.64
31
-609.11
0
LINE
8
CentreLine
10
-104.55
20
-316.53
30
-612.96
11
-109.90
21
-313.44
31
-613.39
0
LINE
8
CentreLine
10
-109.90
20
-313.44
30
-613.39
11
-114.75
21
-307.01
31
-614.52
0
LINE
8
CentreLine
10
-114.75
20
-307.01
30
-614.52
11
-119.90
21
-303.66
31
-614.63
0
LINE
8
CentreLine
10
-119.90
20
-303.66
30
-614.63
11
-123.19
21
-280.25
31
-613.39
0
LINE
8
CentreLine
10
-123.19
20
-280.25
30
-613.39
11
-128.61
21
-276.16
31
-615.08
0
LINE
8
CentreLine
10
-128.61
20
-276.16
30
-615.08
11
-128.21
21
-272.44
31
-615.14
0
LINE
8
CentreLine
10
-128.21
20
-272.44
30
-615.14
11
-126.27
21
-264.00
31
-615.90
0
LINE
8
CentreLine
10
-126.27
20
-264.00
30
-615.90
11
-127.63
21
-261.44
31
-615.18
0
LINE
8
CentreLine
10
-127.63
20
-261.44
30
-615.18
11
-127.28
21
-251.44
31
-615.00
0
LINE
8
CentreLine
10
-127.28
20
-251.44
30
-615.00
11
-127.39
21
-245.22
31
-615.33
0
LINE
8
CentreLine
10
-127.39
20
-245.22
30
-615.33
11
-133.18
21
-237.80
31
-615.17
0
LINE
8
CentreLine
10
-133.18
20
-237.80
30
-615.17
11
-131.95
21
-235.67
31
-616.16
0
LINE
8
CentreLine
10
-131.95
20
-235.67
30
-616.16
11
-133.49
21
-234.32
31
-616.27
0
LINE
8
CentreLine
10
-133.49
20
-234.32
30
-616.27
11
-132.26
21
-233.88
31
-616.22
0
LINE
8
CentreLine
10
-132.26
20
-233.88
30
-616.22
11
-135.43
21
-224.12
31
-614.04
0
LINE
8
CentreLine
10
-135.43
20
-224.12
30
-614.04
11
-139.10
21
-218.25
31
-615.51
0
LINE
8
CentreLine
10
-139.10
20
-218.25
30
-615.51
11
-141.82
21
-216.42
31
-621.95
0
LINE
8
CentreLine
10
-141.82
20
-216.42
30
-621.95
11
-142.91
21
-217.40
31
-622.46
0
LINE
8
CentreLine
10
-142.91
20
-217.40
30
-622.46
11
-142.91
21
-229.53
31
-630.34
0
LINE
8
CentreLine
10
-142.91
20
-229.53
30
-630.34
11
-144.09
21
-229.61
31
-631.52
0
LINE
8
CentreLine
10
-144.09
20
-229.61
30
-631.52
11
-142.88
21
-231.79
31
-631.56
0
LINE
8
CentreLine
10
-142.88
20
-231.79
30
-631.56
11
-141.12
21
-235.24
31
-631.97
0
LINE
8
CentreLine
10
-141.12
20
-235.24
30
-631.97
11
-142.70
21
-241.56
31
-636.04
0
LINE
8
CentreLine
10
-142.70
20
-241.56
30
-636.04
11
-140.37
21
-247.94
31
-637.24
0
LINE
8
CentreLine
10
-140.37
20
-247.94
30
-637.24
11
-138.82
21
-250.86
31
-641.47
0
LINE
8
CentreLine
10
-138.82
20
-250.86
30
-641.47
11
-137.45
21
-255.65
31
-640.68
0
LINE
8
CentreLine
10
-137.45
20
-255.65
30
-640.68
11
-137.45
21
-255.65
31
-643.69
0
LINE
8
CentreLine
10
-137.45
20
-255.65
30
-643.69
11
-137.29
21
-260.28
31
-645.85
0
LINE
8
CentreLine
10
-137.29
20
-260.28
30
-645.85
11
-136.03
21
-263.09
31
-645.20
0
LINE
8
CentreLine
10
-136.03
20
-263.09
30
-645.20
11
-136.55
21
-264.68
31
-647.41
0
LINE
8
CentreLine
10
-136.55
20
-264.68
30
-647.41
11
-134.18
21
-271.98
31
-647.01
0
LINE
8
CentreLine
10
-134.18
20
-271.98
30
-647.01
11
-138.00
21
-276.70
31
-652.29
0
LINE
8
CentreLine
10
-138.00
20
-276.70
30
-652.29
11
-135.79
21
-282.77
31
-652.63
0
LINE
8
CentreLine
10
-135.79
20
-282.77
30
-652.63
11
-134.37
21
-281.41
31
-653.15
0
LINE
8
CentreLine
10
-134.37
20
-281.41
30
-653.15
11
-128.89
21
-280.73
31
-652.67
0
LINE
8
CentreLine
10
-128.89
20
-280.73
30
-652.67
11
-126.13
21
-281.84
31
-652.41
0
LINE
8
CentreLine
10
-126.13
20
-281.84
30
-652.41
11
-121.65
21
-281.45
31
-653.37
0
LINE
8
CentreLine
10
-121.65
20
-281.45
30
-653.37
11
-117.92
21
-282.96
31
-654.00
0
LINE
8
CentreLine
10
-117.92
20
-282.96
30
-654.00
11
-112.66
21
-280.61
31
-653.19
0
LINE
8
CentreLine
10
-112.66
20
-280.61
30
-653.19
11
-106.45
21
-273.47
31
-653.03
0
LINE
8
CentreLine
10
-106.45
20
-273.47
30
-653.03
11
-107.12
21
-268.67
31
-655.29
0
LINE
8
CentreLine
10
-107.12
20
-268.67
30
-655.29
11
-103.56
21
-269.83
31
-655.35
0
LINE
8
CentreLine
10
-103.56
20
-269.83
30
-655.35
11
-101.66
21
-273.91
31
-655.11
0
LINE
8
CentreLine
10
-101.66
20
-273.91
30
-655.11
11
-96.48
21
-269.25
31
-655.36
0
LINE
8
CentreLine
10
-96.48
20
-269.25
30
-655.36
11
-104.57
21
-257.70
31
-650.23
0
LINE
8
CentreLine
10
-96.48
20
-269.25
30
-655.36
11
-90.03
21
-278.46
31
-655.55
0
LINE
8
CentreLine
10
-90.03
20
-278.46
30
-655.55
11
-84.39
21
-279.16
31
-655.16
0
LINE
8
CentreLine
10
-84.39
20
-279.16
30
-655.16
11
-77.97
21
-280.41
31
-654.00
0
LINE
8
CentreLine
10
-77.97
20
-280.41
30
-654.00
11
-75.29
21
-284.38
31
-656.77
0
LINE
8
CentreLine
10
-75.29
20
-284.38
30
-656.77
11
-73.39
21
-285.19
31
-657.57
0
LINE
8
CentreLine
10
-73.39
20
-285.19
30
-657.57
11
-73.13
21
-288.15
31
-658.48
0
LINE
8
CentreLine
10
-73.13
20
-288.15
30
-658.48
11
-62.94
21
-297.99
31
-660.72
0
LINE
8
CentreLine
10
-112.66
20
-280.61
30
-653.19
11
-111.48
21
-283.86
31
-653.01
0
LINE
8
CentreLine
10
-111.48
20
-283.86
30
-653.01
11
-111.98
21
-293.54
31
-652.84
0
LINE
8
CentreLine
10
-111.98
20
-293.54
30
-652.84
11
-107.65
21
-300.22
31
-651.58
0
LINE
8
CentreLine
10
-107.65
20
-300.22
30
-651.58
11
-106.94
21
-299.74
31
-650.49
0
LINE
8
CentreLine
10
-106.94
20
-299.74
30
-650.49
11
-102.22
21
-299.41
31
-649.31
0
LINE
8
CentreLine
10
-102.22
20
-299.41
30
-649.31
11
-97.95
21
-298.51
31
-648.22
0
LINE
8
CentreLine
10
-97.95
20
-298.51
30
-648.22
11
-96.71
21
-300.76
31
-646.74
0
LINE
8
CentreLine
10
-96.71
20
-300.76
30
-646.74
11
-97.02
21
-304.32
31
-645.43
0
LINE
8
CentreLine
10
-97.02
20
-304.32
30
-645.43
11
-96.91
21
-307.30
31
-645.43
0
LINE
8
CentreLine
10
-96.91
20
-307.30
30
-645.43
11
-98.30
21
-318.55
31
-645.04
0
LINE
8
CentreLine
10
-98.30
20
-318.55
30
-645.04
11
-97.48
21
-320.80
31
-645.04
0
LINE
8
CentreLine
10
-97.48
20
-320.80
30
-645.04
11
-95.37
21
-320.24
31
-645.27
0
LINE
8
CentreLine
10
-95.37
20
-320.24
30
-645.27
11
-94.11
21
-322.25
31
-644.58
0
LINE
8
CentreLine
10
-94.11
20
-322.25
30
-644.58
11
-91.77
21
-322.97
31
-644.41
0
LINE
8
CentreLine
10
-91.77
20
-322.97
30
-644.41
11
-88.64
21
-327.12
31
-644.69
0
LINE
8
CentreLine
10
-98.30
20
-318.55
30
-645.04
11
-95.11
21
-325.07
31
-645.04
0
LINE
8
CentreLine
10
-141.82
20
-216.42
30
-621.95
11
-139.51
21
-218.64
31
-621.56
0
LINE
8
CentreLine
10
-139.51
20
-218.64
30
-621.56
11
-147.12
21
-213.32
31
-622.21
0
LINE
8
CentreLine
10
-147.12
20
-213.32
30
-622.21
11
-146.88
21
-206.51
31
-620.89
0
LINE
8
CentreLine
10
-146.88
20
-206.51
30
-620.89
11
-150.46
21
-199.77
31
-622.93
0
LINE
8
CentreLine
10
-150.46
20
-199.77
30
-622.93
11
-150.93
21
-194.44
31
-620.21
0
LINE
8
CentreLine
10
-150.93
20
-194.44
30
-620.21
11
-145.48
21
-192.24
31
-619.28
0
LINE
8
CentreLine
10
-145.48
20
-192.24
30
-619.28
11
-150.89
21
-190.80
31
-620.88
0
LINE
8
CentreLine
10
-150.89
20
-190.80
30
-620.88
11
-156.18
21
-186.81
31
-619.35
0
LINE
8
CentreLine
10
-156.18
20
-186.81
30
-619.35
11
-162.59
21
-182.80
31
-619.75
0
LINE
8
CentreLine
10
-150.93
20
-194.44
30
-620.21
11
-147.32
21
-198.91
31
-623.52
0
LINE
8
CentreLine
10
-147.32
20
-198.91
30
-623.52
11
-147.90
21
-197.89
31
-623.71
0
LINE
8
CentreLine
10
-147.90
20
-197.89
30
-623.71
11
-147.90
21
-197.89
31
-629.37
0
LINE
8
CentreLine
10
-147.90
20
-197.89
30
-629.37
11
-152.78
21
-196.49
31
-629.81
0
LINE
8
CentreLine
10
-152.78
20
-196.49
30
-629.81
11
-151.72
21
-194.93
31
-630.04
0
LINE
8
CentreLine
10
-151.72
20
-194.93
30
-630.04
11
-154.11
21
-190.25
31
-629.95
0
LINE
8
CentreLine
10
-154.11
20
-190.25
30
-629.95
11
-153.94
21
-187.61
31
-629.19
0
LINE
8
CentreLine
10
-153.94
20
-187.61
30
-629.19
11
-155.07
21
-187.67
31
-629.15
0
LINE
8
CentreLine
10
-155.07
20
-187.67
30
-629.15
11
-158.11
21
-184.05
31
-629.57
0
LINE
8
CentreLine
10
-158.11
20
-184.05
30
-629.57
11
-161.46
21
-180.33
31
-629.74
0
LINE
8
CentreLine
10
-161.46
20
-180.33
30
-629.74
11
-158.82
21
-175.58
31
-628.08
0
LINE
8
CentreLine
10
-158.82
20
-175.58
30
-628.08
11
-165.28
21
-171.06
31
-629.47
0
LINE
8
CentreLine
10
-165.28
20
-171.06
30
-629.47
11
-166.05
21
-168.17
31
-629.95
0
LINE
8
CentreLine
10
-166.05
20
-168.17
30
-629.95
11
-168.13
21
-163.28
31
-629.29
0
LINE
8
CentreLine
10
-168.13
20
-163.28
30
-629.29
11
-169.88
21
-157.89
31
-628.70
0
LINE
8
CentreLine
10
-169.88
20
-157.89
30
-628.70
11
-169.66
21
-155.43
31
-626.22
0
LINE
8
CentreLine
10
-169.66
20
-155.43
30
-626.22
11
-170.89
21
-151.15
31
-625.44
0
LINE
8
CentreLine
10
-170.89
20
-151.15
30
-625.44
11
-174.47
21
-139.45
31
-628.49
0
LINE
8
CentreLine
10
-174.47
20
-139.45
30
-628.49
11
-179.36
21
-122.40
31
-634.25
0
LINE
8
CentreLine
10
-179.36
20
-122.40
30
-634.25
11
-186.10
21
-116.53
31
-640.75
0
LINE
8
CentreLine
10
-186.10
20
-116.53
30
-640.75
11
-189.83
21
-126.78
31
-643.47
0
LINE
8
CentreLine
10
-189.83
20
-126.78
30
-643.47
11
-199.09
21
-137.43
31
-648.60
0
LINE
8
CentreLine
10
-199.09
20
-137.43
30
-648.60
11
-206.08
21
-135.69
31
-648.60
0
LINE
8
CentreLine
10
-206.08
20
-135.69
30
-648.60
11
-209.72
21
-132.85
31
-650.10
0
LINE
8
CentreLine
10
-209.72
20
-132.85
30
-650.10
11
-214.21
21
-131.47
31
-651.63
0
LINE
8
CentreLine
10
-214.21
20
-131.47
30
-651.63
11
-214.69
21
-129.57
31
-652.05
0
LINE
8
CentreLine
10
-214.69
20
-129.57
30
-652.05
11
-218.71
21
-126.43
31
-657.33
0
LINE
8
CentreLine
10
-218.71
20
-126.43
30
-657.33
11
-237.70
21
-119.52
31
-660.90
0
LINE
8
CentreLine
10
-237.70
20
-119.52
30
-660.90
11
-245.41
21
-114.70
31
-661.06
0
LINE
8
CentreLine
10
-245.41
20
-114.70
30
-661.06
11
-253.45
21
-112.85
31
-666.84
0
LINE
8
CentreLine
10
-253.45
20
-112.85
30
-666.84
11
-270.36
21
-103.86
31
-673.81
0
LINE
8
CentreLine
10
-270.36
20
-103.86
30
-673.81
11
-274.56
21
-102.73
31
-674.97
0
LINE
8
CentreLine
10
-274.56
20
-102.73
30
-674.97
11
-273.32
21
-96.89
31
-675.29
0
LINE
8
CentreLine
10
-273.32
20
-96.89
30
-675.29
11
-265.55
21
-96.21
31
-673.91
0
LINE
8
CentreLine
10
-265.55
20
-96.21
30
-673.91
11
-267.31
21
-88.60
31
-675.43
0
LINE
8
CentreLine
10
-267.31
20
-88.60
30
-675.43
11
-265.02
21
-80.08
31
-678.29
0
LINE
8
CentreLine
10
-265.02
20
-80.08
30
-678.29
11
-262.18
21
-75.16
31
-680.25
0
LINE
8
CentreLine
10
-262.18
20
-75.16
30
-680.25
11
-269.34
21
-72.69
31
-682.14
0
LINE
8
CentreLine
10
-269.34
20
-72.69
30
-682.14
11
-271.32
21
-70.57
31
-682.09
0
LINE
8
CentreLine
10
-271.32
20
-70.57
30
-682.09
11
-274.82
21
-65.58
31
-687.77
0
LINE
8
CentreLine
10
-274.82
20
-65.58
30
-687.77
11
-260.28
21
-78.66
31
-690.87
0
LINE
8
CentreLine
10
-260.28
20
-78.66
30
-690.87
11
-266.74
21
-82.39
31
-692.32
0
LINE
8
CentreLine
10
-266.74
20
-82.39
30
-692.32
11
-268.84
21
-87.59
31
-698.33
0
LINE
8
CentreLine
10
-268.84
20
-87.59
30
-698.33
11
-276.40
21
-75.95
31
-705.41
0
LINE
8
CentreLine
10
-276.40
20
-75.95
30
-705.41
11
-272.72
21
-70.88
31
-705.41
0
LINE
8
CentreLine
10
-272.72
20
-70.88
30
-705.41
11
-273.16
21
-68.35
31
-703.99
0
LINE
8
CentreLine
10
-273.16
20
-68.35
30
-703.99
11
-277.21
21
-63.86
31
-703.99
0
LINE
8
CentreLine
10
-277.21
20
-63.86
30
-703.99
11
-288.95
21
-63.25
31
-701.05
0
LINE
8
CentreLine
10
-288.95
20
-63.25
30
-701.05
11
-292.53
21
-57.28
31
-700.32
0
LINE
8
CentreLine
10
-292.53
20
-57.28
30
-700.32
11
-290.82
21
-51.68
31
-699.91
0
LINE
8
CentreLine
10
-290.82
20
-51.68
30
-699.91
11
-300.17
21
-42.34
31
-696.37
0
LINE
8
CentreLine
10
-300.17
20
-42.34
30
-696.37
11
-293.74
21
-35.20
31
-693.80
0
LINE
8
CentreLine
10
-293.74
20
-35.20
30
-693.80
11
-297.45
21
-29.47
31
-690.90
0
LINE
8
CentreLine
10
-297.45
20
-29.47
30
-690.90
11
-296.93
21
-21.97
31
-687.55
0
LINE
8
CentreLine
10
-296.93
20
-21.97
30
-687.55
11
-297.18
21
-19.10
31
-688.49
0
LINE
8
CentreLine
10
-297.18
20
-19.10
30
-688.49
11
-301.06
21
-16.86
31
-687.54
0
LINE
8
CentreLine
10
-301.06
20
-16.86
30
-687.54
11
-293.42
21
  5.35
31
-673.43
0
LINE
8
CentreLine
10
-293.42
20
  5.35
30
-673.43
11
-291.05
21
 10.44
31
-671.05
0
LINE
8
CentreLine
10
-291.05
20
 10.44
30
-671.05
11
-298.68
21
  6.03
31
-677.45
0
LINE
8
CentreLine
10
-298.68
20
  6.03
30
-677.45
11
-300.39
21
  5.45
31
-676.32
0
LINE
8
CentreLine
10
-300.39
20
  5.45
30
-676.32
11
-308.27
21
  2.42
31
-680.44
0
LINE
8
CentreLine
10
-308.27
20
  2.42
30
-680.44
11
-315.95
21
  6.50
31
-690.45
0
LINE
8
CentreLine
10
-315.95
20
  6.50
30
-690.45
11
-322.38
21
  6.95
31
-691.82
0
LINE
8
CentreLine
10
-322.38
20
  6.95
30
-691.82
11
-340.87
21
 -7.50
31
-700.35
0
LINE
8
CentreLine
10
-340.87
20
 -7.50
30
-700.35
11
-349.42
21
-12.24
31
-706.95
0
LINE
8
CentreLine
10
-349.42
20
-12.24
30
-706.95
11
-369.12
21
 21.88
31
-700.01
0
LINE
8
CentreLine
10
-369.12
20
 21.88
30
-700.01
11
-367.98
21
 23.07
31
-700.81
0
LINE
8
CentreLine
10
-367.98
20
 23.07
30
-700.81
11
-370.29
21
 31.12
31
-711.53
0
LINE
8
CentreLine
10
-370.29
20
 31.12
30
-711.53
11
-373.68
21
 31.78
31
-710.27
0
LINE
8
CentreLine
10
-373.68
20
 31.78
30
-710.27
11
-380.84
21
 34.11
31
-711.88
0
LINE
8
CentreLine
10
-380.84
20
 34.11
30
-711.88
11
-378.08
21
 43.75
31
-708.62
0
LINE
8
CentreLine
10
-378.08
20
 43.75
30
-708.62
11
-376.15
21
 48.07
31
-713.35
0
LINE
8
CentreLine
10
-376.15
20
 48.07
30
-713.35
11
-372.36
21
 51.62
31
-715.55
0
LINE
8
CentreLine
10
-372.36
20
 51.62
30
-715.55
11
-372.40
21
 54.32
31
-715.36
0
LINE
8
CentreLine
10
-372.40
20
 54.32
30
-715.36
11
-366.33
21
 60.61
31
-712.18
0
LINE
8
CentreLine
10
-366.33
20
 60.61
30
-712.18
11
-367.20
21
 68.87
31
-709.48
0
LINE
8
CentreLine
10
-367.20
20
 68.87
30
-709.48
11
-359.47
21
 88.00
31
-697.57
0
LINE
8
CentreLine
10
-359.47
20
 88.00
30
-697.57
11
-353.13
21
 92.77
31
-694.52
0
LINE
8
CentreLine
10
-353.13
20
 92.77
30
-694.52
11
-351.25
21
108.05
31
-682.49
0
LINE
8
CentreLine
10
-351.25
20
108.05
30
-682.49
11
-348.66
21
116.55
31
-678.72
0
LINE
8
CentreLine
10
-348.66
20
116.55
30
-678.72
11
-355.01
21
133.09
31
-672.96
0
LINE
8
CentreLine
10
-355.01
20
133.09
30
-672.96
11
-356.48
21
141.46
31
-667.02
0
LINE
8
CentreLine
10
-356.48
20
141.46
30
-667.02
11
-346.88
21
140.78
31
-662.53
0
LINE
8
CentreLine
10
-346.88
20
140.78
30
-662.53
11
-350.38
21
153.83
31
-659.16
0
LINE
8
CentreLine
10
-350.38
20
153.83
30
-659.16
11
-357.45
21
162.89
31
-656.51
0
LINE
8
CentreLine
10
-357.45
20
162.89
30
-656.51
11
-359.41
21
190.92
31
-643.41
0
LINE
8
CentreLine
10
-359.41
20
190.92
30
-643.41
11
-357.35
21
194.98
31
-642.10
0
LINE
8
CentreLine
10
-357.35
20
194.98
30
-642.10
11
-357.59
21
209.12
31
-641.11
0
LINE
8
CentreLine
10
-357.59
20
209.12
30
-641.11
11
-359.48
21
218.82
31
-638.09
0
LINE
8
CentreLine
10
-359.48
20
218.82
30
-638.09
11
-363.75
21
226.53
31
-635.56
000
ENDSEC
000
EOF
