0
SECTION
2
HEADER
9
$EXTMIN
10
0.000000
20
0.000000
30
-715.550000
9
$EXTMAX
10
1753.120000
20
0.000000
30
31.170000
9
$PDMODE
70
3
9
$PDSIZE
40
  0.80
0
ENDSEC
0
SECTION
2
TABLES
0
TABLE
2
LAYER
70
10
0
LAYER
2
CentreLine
70
64
62
5
6
CONTINUOUS
0
LAYER
2
Stations
70
64
62
7
6
CONTINUOUS
0
LAYER
2
Labels
70
64
62
7
6
CONTINUOUS
0
ENDTAB
0
ENDSEC
0
SECTION
2
ENTITIES
0
LINE
8
CentreLine
10
  5.42
20
  0.00
30
 28.16
11
  0.00
21
  0.00
31
 31.17
0
LINE
8
CentreLine
10
 12.49
20
  0.00
30
 23.57
11
  5.42
21
  0.00
31
 28.16
0
LINE
8
CentreLine
10
 16.14
20
  0.00
30
 22.79
11
 12.49
21
  0.00
31
 23.57
0
LINE
8
CentreLine
10
 19.03
20
  0.00
30
 22.02
11
 16.14
21
  0.00
31
 22.79
0
LINE
8
CentreLine
10
 24.28
20
  0.00
30
 22.20
11
 19.03
21
  0.00
31
 22.02
0
LINE
8
CentreLine
10
 24.28
20
  0.00
30
 19.99
11
 24.28
21
  0.00
31
 22.20
0
LINE
8
CentreLine
10
 26.37
20
  0.00
30
 18.24
11
 24.28
21
  0.00
31
 19.99
0
LINE
8
CentreLine
10
 26.37
20
  0.00
30
 12.17
11
 26.37
21
  0.00
31
 18.24
0
LINE
8
CentreLine
10
 28.57
20
  0.00
30
 11.05
11
 26.37
21
  0.00
31
 12.17
0
LINE
8
CentreLine
10
 30.13
20
  0.00
30
 12.07
11
 28.57
21
  0.00
31
 11.05
0
LINE
8
CentreLine
10
 34.21
20
  0.00
30
 11.34
11
 30.13
21
  0.00
31
 12.07
0
LINE
8
CentreLine
10
 34.21
20
  0.00
30
  6.39
11
 34.21
21
  0.00
31
 11.34
0
LINE
8
CentreLine
10
 41.04
20
  0.00
30
  6.75
11
 34.21
21
  0.00
31
  6.39
0
LINE
8
CentreLine
10
 41.04
20
  0.00
30
  2.35
11
 41.04
21
  0.00
31
  6.75
0
LINE
8
CentreLine
10
 47.16
20
  0.00
30
  0.00
11
 41.04
21
  0.00
31
  2.35
0
LINE
8
CentreLine
10
 47.16
20
  0.00
30
  0.00
11
 48.70
21
  0.00
31
 -2.28
0
LINE
8
CentreLine
10
 48.70
20
  0.00
30
 -2.28
11
 48.70
21
  0.00
31
 -9.47
0
LINE
8
CentreLine
10
 48.70
20
  0.00
30
 -9.47
11
 58.39
21
  0.00
31
 -5.56
0
LINE
8
CentreLine
10
 58.39
20
  0.00
30
 -5.56
11
 59.58
21
  0.00
31
 -6.36
0
LINE
8
CentreLine
10
 59.58
20
  0.00
30
 -6.36
11
 59.58
21
  0.00
31
-34.56
0
LINE
8
CentreLine
10
 59.58
20
  0.00
30
-34.56
11
 65.71
21
  0.00
31
-38.40
0
LINE
8
CentreLine
10
 65.71
20
  0.00
30
-38.40
11
 65.71
21
  0.00
31
-43.70
0
LINE
8
CentreLine
10
 65.71
20
  0.00
30
-43.70
11
 70.98
21
  0.00
31
-44.53
0
LINE
8
CentreLine
10
 70.98
20
  0.00
30
-44.53
11
 74.59
21
  0.00
31
-46.69
0
LINE
8
CentreLine
10
 74.59
20
  0.00
30
-46.69
11
 76.24
21
  0.00
31
-49.55
0
LINE
8
CentreLine
10
 76.24
20
  0.00
30
-49.55
11
 81.87
21
  0.00
31
-49.55
0
LINE
8
CentreLine
10
 81.87
20
  0.00
30
-49.55
11
 81.87
21
  0.00
31
-57.91
0
LINE
8
CentreLine
10
 81.87
20
  0.00
30
-57.91
11
 87.12
21
  0.00
31
-56.60
0
LINE
8
CentreLine
10
 87.12
20
  0.00
30
-56.60
11
 94.85
21
  0.00
31
-59.73
0
LINE
8
CentreLine
10
 94.85
20
  0.00
30
-59.73
11
 98.41
21
  0.00
31
-63.53
0
LINE
8
CentreLine
10
 98.41
20
  0.00
30
-63.53
11
106.93
21
  0.00
31
-62.03
0
LINE
8
CentreLine
10
106.93
20
  0.00
30
-62.03
11
117.44
21
  0.00
31
-57.99
0
LINE
8
CentreLine
10
117.44
20
  0.00
30
-57.99
11
117.44
21
  0.00
31
-51.43
0
LINE
8
CentreLine
10
117.44
20
  0.00
30
-51.43
11
120.51
21
  0.00
31
-52.14
0
LINE
8
CentreLine
10
120.51
20
  0.00
30
-52.14
11
127.03
21
  0.00
31
-48.67
0
LINE
8
CentreLine
10
127.03
20
  0.00
30
-48.67
11
128.40
21
  0.00
31
-45.46
0
LINE
8
CentreLine
10
128.40
20
  0.00
30
-45.46
11
132.29
21
  0.00
31
-45.80
0
LINE
8
CentreLine
10
117.44
20
  0.00
30
-57.99
11
120.68
21
  0.00
31
-57.99
0
LINE
8
CentreLine
10
120.68
20
  0.00
30
-57.99
11
122.69
21
  0.00
31
-58.73
0
LINE
8
CentreLine
10
122.69
20
  0.00
30
-58.73
11
122.69
21
  0.00
31
-52.18
0
LINE
8
CentreLine
10
122.69
20
  0.00
30
-52.18
11
124.19
21
  0.00
31
-52.18
0
LINE
8
CentreLine
10
124.19
20
  0.00
30
-52.18
11
126.87
21
  0.00
31
-52.18
0
LINE
8
CentreLine
10
126.87
20
  0.00
30
-52.18
11
129.11
21
  0.00
31
-50.30
0
LINE
8
CentreLine
10
129.11
20
  0.00
30
-50.30
11
129.11
21
  0.00
31
-45.70
0
LINE
8
CentreLine
10
129.11
20
  0.00
30
-45.70
11
132.43
21
  0.00
31
-44.68
0
LINE
8
CentreLine
10
132.43
20
  0.00
30
-44.68
11
136.37
21
  0.00
31
-44.75
0
LINE
8
CentreLine
10
136.37
20
  0.00
30
-44.75
11
138.38
21
  0.00
31
-38.92
0
LINE
8
CentreLine
10
138.38
20
  0.00
30
-38.92
11
146.04
21
  0.00
31
-35.82
0
LINE
8
CentreLine
10
146.04
20
  0.00
30
-35.82
11
148.70
21
  0.00
31
-32.65
0
LINE
8
CentreLine
10
148.70
20
  0.00
30
-32.65
11
150.83
21
  0.00
31
-31.31
0
LINE
8
CentreLine
10
146.04
20
  0.00
30
-35.82
11
150.00
21
  0.00
31
-35.68
0
LINE
8
CentreLine
10
150.00
20
  0.00
30
-35.68
11
152.99
21
  0.00
31
-37.34
0
LINE
8
CentreLine
10
152.99
20
  0.00
30
-37.34
11
156.56
21
  0.00
31
-35.52
0
LINE
8
CentreLine
10
126.87
20
  0.00
30
-52.18
11
128.72
21
  0.00
31
-55.99
0
LINE
8
CentreLine
10
128.72
20
  0.00
30
-55.99
11
130.86
21
  0.00
31
-58.72
0
LINE
8
CentreLine
10
130.86
20
  0.00
30
-58.72
11
130.86
21
  0.00
31
-75.12
0
LINE
8
CentreLine
10
117.44
20
  0.00
30
-57.99
11
121.06
21
  0.00
31
-59.16
0
LINE
8
CentreLine
10
121.06
20
  0.00
30
-59.16
11
123.36
21
  0.00
31
-61.25
0
LINE
8
CentreLine
10
123.36
20
  0.00
30
-61.25
11
125.56
21
  0.00
31
-64.16
0
LINE
8
CentreLine
10
125.56
20
  0.00
30
-64.16
11
125.56
21
  0.00
31
-67.62
0
LINE
8
CentreLine
10
125.56
20
  0.00
30
-67.62
11
129.20
21
  0.00
31
-65.07
0
LINE
8
CentreLine
10
129.20
20
  0.00
30
-65.07
11
131.64
21
  0.00
31
-68.30
0
LINE
8
CentreLine
10
131.64
20
  0.00
30
-68.30
11
131.64
21
  0.00
31
-75.20
0
LINE
8
CentreLine
10
131.64
20
  0.00
30
-75.20
11
138.13
21
  0.00
31
-75.54
0
LINE
8
CentreLine
10
138.13
20
  0.00
30
-75.54
11
139.84
21
  0.00
31
-75.54
0
LINE
8
CentreLine
10
139.84
20
  0.00
30
-75.54
11
139.84
21
  0.00
31
-90.76
0
LINE
8
CentreLine
10
139.84
20
  0.00
30
-90.76
11
156.66
21
  0.00
31
-87.19
0
LINE
8
CentreLine
10
156.66
20
  0.00
30
-87.19
11
158.91
21
  0.00
31
-87.67
0
LINE
8
CentreLine
10
158.91
20
  0.00
30
-87.67
11
160.69
21
  0.00
31
-87.95
0
LINE
8
CentreLine
10
160.69
20
  0.00
30
-87.95
11
165.05
21
  0.00
31
-92.63
0
LINE
8
CentreLine
10
165.05
20
  0.00
30
-92.63
11
165.05
21
  0.00
31
-133.83
0
LINE
8
CentreLine
10
165.05
20
  0.00
30
-133.83
11
165.05
21
  0.00
31
-151.33
0
LINE
8
CentreLine
10
165.05
20
  0.00
30
-151.33
11
182.70
21
  0.00
31
-151.02
0
LINE
8
CentreLine
10
182.70
20
  0.00
30
-151.02
11
186.71
21
  0.00
31
-155.48
0
LINE
8
CentreLine
10
186.71
20
  0.00
30
-155.48
11
186.71
21
  0.00
31
-160.28
0
LINE
8
CentreLine
10
186.71
20
  0.00
30
-160.28
11
191.18
21
  0.00
31
-161.73
0
LINE
8
CentreLine
10
191.18
20
  0.00
30
-161.73
11
196.59
21
  0.00
31
-166.78
0
LINE
8
CentreLine
10
196.59
20
  0.00
30
-166.78
11
203.19
21
  0.00
31
-166.89
0
LINE
8
CentreLine
10
203.19
20
  0.00
30
-166.89
11
203.19
21
  0.00
31
-184.09
0
LINE
8
CentreLine
10
203.19
20
  0.00
30
-166.89
11
204.51
21
  0.00
31
-176.29
0
LINE
8
CentreLine
10
204.51
20
  0.00
30
-176.29
11
208.21
21
  0.00
31
-177.64
0
LINE
8
CentreLine
10
208.21
20
  0.00
30
-177.64
11
210.64
21
  0.00
31
-174.53
0
LINE
8
CentreLine
10
210.64
20
  0.00
30
-174.53
11
227.80
21
  0.00
31
-171.20
0
LINE
8
CentreLine
10
227.80
20
  0.00
30
-171.20
11
240.83
21
  0.00
31
-170.97
0
LINE
8
CentreLine
10
240.83
20
  0.00
30
-170.97
11
243.03
21
  0.00
31
-171.16
0
LINE
8
CentreLine
10
243.03
20
  0.00
30
-171.16
11
245.49
21
  0.00
31
-171.87
0
LINE
8
CentreLine
10
245.49
20
  0.00
30
-171.87
11
245.49
21
  0.00
31
-183.18
0
LINE
8
CentreLine
10
245.49
20
  0.00
30
-183.18
11
249.23
21
  0.00
31
-190.22
0
LINE
8
CentreLine
10
249.23
20
  0.00
30
-190.22
11
250.06
21
  0.00
31
-213.78
0
LINE
8
CentreLine
10
250.06
20
  0.00
30
-213.78
11
254.08
21
  0.00
31
-213.50
0
LINE
8
CentreLine
10
254.08
20
  0.00
30
-213.50
11
257.88
21
  0.00
31
-215.69
0
LINE
8
CentreLine
10
257.88
20
  0.00
30
-215.69
11
260.61
21
  0.00
31
-215.60
0
LINE
8
CentreLine
10
260.61
20
  0.00
30
-215.60
11
262.87
21
  0.00
31
-241.40
0
LINE
8
CentreLine
10
262.87
20
  0.00
30
-241.40
11
273.36
21
  0.00
31
-242.87
0
LINE
8
CentreLine
10
273.36
20
  0.00
30
-242.87
11
273.36
21
  0.00
31
-262.76
0
LINE
8
CentreLine
10
273.36
20
  0.00
30
-262.76
11
277.08
21
  0.00
31
-261.34
0
LINE
8
CentreLine
10
277.08
20
  0.00
30
-261.34
11
279.72
21
  0.00
31
-261.90
0
LINE
8
CentreLine
10
279.72
20
  0.00
30
-261.90
11
279.72
21
  0.00
31
-275.71
0
LINE
8
CentreLine
10
279.72
20
  0.00
30
-275.71
11
279.72
21
  0.00
31
-296.29
0
LINE
8
CentreLine
10
279.72
20
  0.00
30
-296.29
11
279.72
21
  0.00
31
-314.34
0
LINE
8
CentreLine
10
279.72
20
  0.00
30
-314.34
11
279.72
21
  0.00
31
-328.67
0
LINE
8
CentreLine
10
279.72
20
  0.00
30
-328.67
11
284.22
21
  0.00
31
-328.67
0
LINE
8
CentreLine
10
284.22
20
  0.00
30
-328.67
11
296.46
21
  0.00
31
-329.09
0
LINE
8
CentreLine
10
296.46
20
  0.00
30
-329.09
11
297.08
21
  0.00
31
-329.41
0
LINE
8
CentreLine
10
297.08
20
  0.00
30
-329.41
11
297.08
21
  0.00
31
-344.89
0
LINE
8
CentreLine
10
297.08
20
  0.00
30
-344.89
11
303.80
21
  0.00
31
-347.47
0
LINE
8
CentreLine
10
303.80
20
  0.00
30
-347.47
11
308.60
21
  0.00
31
-349.61
0
LINE
8
CentreLine
10
308.60
20
  0.00
30
-349.61
11
308.60
21
  0.00
31
-361.83
0
LINE
8
CentreLine
10
308.60
20
  0.00
30
-361.83
11
312.13
21
  0.00
31
-360.18
0
LINE
8
CentreLine
10
312.13
20
  0.00
30
-360.18
11
313.21
21
  0.00
31
-362.40
0
LINE
8
CentreLine
10
313.21
20
  0.00
30
-362.40
11
313.21
21
  0.00
31
-390.33
0
LINE
8
CentreLine
10
313.21
20
  0.00
30
-390.33
11
317.57
21
  0.00
31
-400.58
0
LINE
8
CentreLine
10
317.57
20
  0.00
30
-400.58
11
320.33
21
  0.00
31
-402.05
0
LINE
8
CentreLine
10
320.33
20
  0.00
30
-402.05
11
325.35
21
  0.00
31
-408.96
0
LINE
8
CentreLine
10
325.35
20
  0.00
30
-408.96
11
328.94
21
  0.00
31
-413.55
0
LINE
8
CentreLine
10
325.35
20
  0.00
30
-408.96
11
329.34
21
  0.00
31
-411.65
0
LINE
8
CentreLine
10
329.34
20
  0.00
30
-411.65
11
332.47
21
  0.00
31
-412.91
0
LINE
8
CentreLine
10
332.47
20
  0.00
30
-412.91
11
340.92
21
  0.00
31
-415.26
0
LINE
8
CentreLine
10
340.92
20
  0.00
30
-415.26
11
342.51
21
  0.00
31
-415.40
0
LINE
8
CentreLine
10
342.51
20
  0.00
30
-415.40
11
346.60
21
  0.00
31
-415.33
0
LINE
8
CentreLine
10
346.60
20
  0.00
30
-415.33
11
348.76
21
  0.00
31
-416.03
0
LINE
8
CentreLine
10
348.76
20
  0.00
30
-416.03
11
352.42
21
  0.00
31
-417.36
0
LINE
8
CentreLine
10
313.21
20
  0.00
30
-390.33
11
313.21
21
  0.00
31
-400.57
0
LINE
8
CentreLine
10
313.21
20
  0.00
30
-400.57
11
313.21
21
  0.00
31
-396.84
0
LINE
8
CentreLine
10
313.21
20
  0.00
30
-396.84
11
324.07
21
  0.00
31
-397.41
0
LINE
8
CentreLine
10
324.07
20
  0.00
30
-397.41
11
333.50
21
  0.00
31
-393.41
0
LINE
8
CentreLine
10
333.50
20
  0.00
30
-393.41
11
336.21
21
  0.00
31
-394.35
0
LINE
8
CentreLine
10
336.21
20
  0.00
30
-394.35
11
347.61
21
  0.00
31
-407.92
0
LINE
8
CentreLine
10
347.61
20
  0.00
30
-407.92
11
351.88
21
  0.00
31
-404.82
0
LINE
8
CentreLine
10
351.88
20
  0.00
30
-404.82
11
361.46
21
  0.00
31
-409.48
0
LINE
8
CentreLine
10
361.46
20
  0.00
30
-409.48
11
364.47
21
  0.00
31
-410.07
0
LINE
8
CentreLine
10
364.47
20
  0.00
30
-410.07
11
366.82
21
  0.00
31
-409.95
0
LINE
8
CentreLine
10
366.82
20
  0.00
30
-409.95
11
366.82
21
  0.00
31
-409.18
0
LINE
8
CentreLine
10
366.82
20
  0.00
30
-409.18
11
369.70
21
  0.00
31
-411.27
0
LINE
8
CentreLine
10
369.70
20
  0.00
30
-411.27
11
371.89
21
  0.00
31
-412.58
0
LINE
8
CentreLine
10
371.89
20
  0.00
30
-412.58
11
374.34
21
  0.00
31
-414.17
0
LINE
8
CentreLine
10
374.34
20
  0.00
30
-414.17
11
379.91
21
  0.00
31
-422.14
0
LINE
8
CentreLine
10
379.91
20
  0.00
30
-422.14
11
386.00
21
  0.00
31
-423.43
0
LINE
8
CentreLine
10
386.00
20
  0.00
30
-423.43
11
388.46
21
  0.00
31
-423.30
0
LINE
8
CentreLine
10
388.46
20
  0.00
30
-423.30
11
389.00
21
  0.00
31
-425.20
0
LINE
8
CentreLine
10
389.00
20
  0.00
30
-425.20
11
392.55
21
  0.00
31
-431.11
0
LINE
8
CentreLine
10
392.55
20
  0.00
30
-431.11
11
396.76
21
  0.00
31
-429.24
0
LINE
8
CentreLine
10
396.76
20
  0.00
30
-429.24
11
398.54
21
  0.00
31
-431.59
0
LINE
8
CentreLine
10
398.54
20
  0.00
30
-431.59
11
398.54
21
  0.00
31
-437.22
0
LINE
8
CentreLine
10
398.54
20
  0.00
30
-437.22
11
403.85
21
  0.00
31
-437.59
0
LINE
8
CentreLine
10
403.85
20
  0.00
30
-437.59
11
408.45
21
  0.00
31
-439.45
0
LINE
8
CentreLine
10
408.45
20
  0.00
30
-439.45
11
412.34
21
  0.00
31
-441.79
0
LINE
8
CentreLine
10
412.34
20
  0.00
30
-441.79
11
422.46
21
  0.00
31
-456.79
0
LINE
8
CentreLine
10
422.46
20
  0.00
30
-456.79
11
426.74
21
  0.00
31
-455.40
0
LINE
8
CentreLine
10
426.74
20
  0.00
30
-455.40
11
428.76
21
  0.00
31
-459.04
0
LINE
8
CentreLine
10
428.76
20
  0.00
30
-459.04
11
434.28
21
  0.00
31
-461.85
0
LINE
8
CentreLine
10
434.28
20
  0.00
30
-461.85
11
436.80
21
  0.00
31
-461.18
0
LINE
8
CentreLine
10
436.80
20
  0.00
30
-461.18
11
443.13
21
  0.00
31
-461.84
0
LINE
8
CentreLine
10
443.13
20
  0.00
30
-461.84
11
446.13
21
  0.00
31
-462.05
0
LINE
8
CentreLine
10
446.13
20
  0.00
30
-462.05
11
448.53
21
  0.00
31
-461.84
0
LINE
8
CentreLine
10
448.53
20
  0.00
30
-461.84
11
448.53
21
  0.00
31
-491.84
0
LINE
8
CentreLine
10
448.53
20
  0.00
30
-491.84
11
450.99
21
  0.00
31
-490.80
0
LINE
8
CentreLine
10
450.99
20
  0.00
30
-490.80
11
452.89
21
  0.00
31
-496.01
0
LINE
8
CentreLine
10
452.89
20
  0.00
30
-496.01
11
452.89
21
  0.00
31
-514.51
0
LINE
8
CentreLine
10
452.89
20
  0.00
30
-514.51
11
459.05
21
  0.00
31
-513.20
0
LINE
8
CentreLine
10
459.05
20
  0.00
30
-513.20
11
465.87
21
  0.00
31
-510.99
0
LINE
8
CentreLine
10
465.87
20
  0.00
30
-510.99
11
485.28
21
  0.00
31
-509.97
0
LINE
8
CentreLine
10
485.28
20
  0.00
30
-509.97
11
503.49
21
  0.00
31
-510.92
0
LINE
8
CentreLine
10
503.49
20
  0.00
30
-510.92
11
511.12
21
  0.00
31
-512.41
0
LINE
8
CentreLine
10
511.12
20
  0.00
30
-512.41
11
523.91
21
  0.00
31
-510.38
0
LINE
8
CentreLine
10
523.91
20
  0.00
30
-510.38
11
535.85
21
  0.00
31
-508.17
0
LINE
8
CentreLine
10
535.85
20
  0.00
30
-508.17
11
543.61
21
  0.00
31
-510.40
0
LINE
8
CentreLine
10
543.61
20
  0.00
30
-510.40
11
555.34
21
  0.00
31
-512.68
0
LINE
8
CentreLine
10
555.34
20
  0.00
30
-512.68
11
562.47
21
  0.00
31
-514.00
0
LINE
8
CentreLine
10
562.47
20
  0.00
30
-514.00
11
586.87
21
  0.00
31
-515.49
0
LINE
8
CentreLine
10
586.87
20
  0.00
30
-515.49
11
595.97
21
  0.00
31
-515.65
0
LINE
8
CentreLine
10
595.97
20
  0.00
30
-515.65
11
606.94
21
  0.00
31
-516.03
0
LINE
8
CentreLine
10
606.94
20
  0.00
30
-516.03
11
620.50
21
  0.00
31
-522.07
0
LINE
8
CentreLine
10
620.50
20
  0.00
30
-522.07
11
633.93
21
  0.00
31
-528.05
0
LINE
8
CentreLine
10
633.93
20
  0.00
30
-528.05
11
636.23
21
  0.00
31
-529.98
0
LINE
8
CentreLine
10
636.23
20
  0.00
30
-529.98
11
648.35
21
  0.00
31
-529.34
0
LINE
8
CentreLine
10
648.35
20
  0.00
30
-529.34
11
662.11
21
  0.00
31
-529.82
0
LINE
8
CentreLine
10
662.11
20
  0.00
30
-529.82
11
677.68
21
  0.00
31
-534.00
0
LINE
8
CentreLine
10
677.68
20
  0.00
30
-534.00
11
687.78
21
  0.00
31
-537.08
0
LINE
8
CentreLine
10
687.78
20
  0.00
30
-537.08
11
692.40
21
  0.00
31
-541.96
0
LINE
8
CentreLine
10
692.40
20
  0.00
30
-541.96
11
702.92
21
  0.00
31
-539.73
0
LINE
8
CentreLine
10
702.92
20
  0.00
30
-539.73
11
705.65
21
  0.00
31
-539.97
0
LINE
8
CentreLine
10
705.65
20
  0.00
30
-539.97
11
709.52
21
  0.00
31
-542.02
0
LINE
8
CentreLine
10
709.52
20
  0.00
30
-542.02
11
716.39
21
  0.00
31
-541.30
0
LINE
8
CentreLine
10
716.39
20
  0.00
30
-541.30
11
724.93
21
  0.00
31
-538.69
0
LINE
8
CentreLine
10
724.93
20
  0.00
30
-538.69
11
733.73
21
  0.00
31
-541.38
0
LINE
8
CentreLine
10
733.73
20
  0.00
30
-541.38
11
740.77
21
  0.00
31
-541.99
0
LINE
8
CentreLine
10
740.77
20
  0.00
30
-541.99
11
744.30
21
  0.00
31
-543.42
0
LINE
8
CentreLine
10
744.30
20
  0.00
30
-543.42
11
753.35
21
  0.00
31
-543.26
0
LINE
8
CentreLine
10
753.35
20
  0.00
30
-543.26
11
754.90
21
  0.00
31
-543.26
0
LINE
8
CentreLine
10
754.90
20
  0.00
30
-543.26
11
760.08
21
  0.00
31
-543.99
0
LINE
8
CentreLine
10
760.08
20
  0.00
30
-543.99
11
763.16
21
  0.00
31
-546.15
0
LINE
8
CentreLine
10
763.16
20
  0.00
30
-546.15
11
766.25
21
  0.00
31
-554.65
0
LINE
8
CentreLine
10
766.25
20
  0.00
30
-554.65
11
768.77
21
  0.00
31
-558.67
0
LINE
8
CentreLine
10
768.77
20
  0.00
30
-558.67
11
770.89
21
  0.00
31
-563.91
0
LINE
8
CentreLine
10
770.89
20
  0.00
30
-563.91
11
770.89
21
  0.00
31
-586.01
0
LINE
8
CentreLine
10
770.89
20
  0.00
30
-586.01
11
770.89
21
  0.00
31
-596.79
0
LINE
8
CentreLine
10
770.89
20
  0.00
30
-596.79
11
770.89
21
  0.00
31
-616.76
0
LINE
8
CentreLine
10
770.89
20
  0.00
30
-616.76
11
774.37
21
  0.00
31
-615.22
0
LINE
8
CentreLine
10
774.37
20
  0.00
30
-615.22
11
787.46
21
  0.00
31
-614.53
0
LINE
8
CentreLine
10
787.46
20
  0.00
30
-614.53
11
789.69
21
  0.00
31
-614.61
0
LINE
8
CentreLine
10
789.69
20
  0.00
30
-614.61
11
794.49
21
  0.00
31
-615.11
0
LINE
8
CentreLine
10
794.49
20
  0.00
30
-615.11
11
800.01
21
  0.00
31
-615.11
0
LINE
8
CentreLine
10
800.01
20
  0.00
30
-615.11
11
804.48
21
  0.00
31
-614.96
0
LINE
8
CentreLine
10
804.48
20
  0.00
30
-614.96
11
806.20
21
  0.00
31
-614.99
0
LINE
8
CentreLine
10
806.20
20
  0.00
30
-614.99
11
809.89
21
  0.00
31
-614.13
0
LINE
8
CentreLine
10
809.89
20
  0.00
30
-614.13
11
813.09
21
  0.00
31
-614.47
0
LINE
8
CentreLine
10
813.09
20
  0.00
30
-614.47
11
820.16
21
  0.00
31
-614.10
0
LINE
8
CentreLine
10
820.16
20
  0.00
30
-614.10
11
825.64
21
  0.00
31
-614.20
0
LINE
8
CentreLine
10
825.64
20
  0.00
30
-614.20
11
828.42
21
  0.00
31
-612.96
0
LINE
8
CentreLine
10
828.42
20
  0.00
30
-612.96
11
834.60
21
  0.00
31
-613.39
0
LINE
8
CentreLine
10
834.60
20
  0.00
30
-613.39
11
842.66
21
  0.00
31
-614.52
0
LINE
8
CentreLine
10
842.66
20
  0.00
30
-614.52
11
848.80
21
  0.00
31
-614.63
0
LINE
8
CentreLine
10
848.80
20
  0.00
30
-614.63
11
872.44
21
  0.00
31
-613.39
0
LINE
8
CentreLine
10
872.44
20
  0.00
30
-613.39
11
879.23
21
  0.00
31
-615.08
0
LINE
8
CentreLine
10
879.23
20
  0.00
30
-615.08
11
882.97
21
  0.00
31
-615.14
0
LINE
8
CentreLine
10
882.97
20
  0.00
30
-615.14
11
891.63
21
  0.00
31
-615.90
0
LINE
8
CentreLine
10
891.63
20
  0.00
30
-615.90
11
894.53
21
  0.00
31
-615.18
0
LINE
8
CentreLine
10
894.53
20
  0.00
30
-615.18
11
904.54
21
  0.00
31
-615.00
0
LINE
8
CentreLine
10
904.54
20
  0.00
30
-615.00
11
910.76
21
  0.00
31
-615.33
0
LINE
8
CentreLine
10
910.76
20
  0.00
30
-615.33
11
920.17
21
  0.00
31
-615.17
0
LINE
8
CentreLine
10
920.17
20
  0.00
30
-615.17
11
922.63
21
  0.00
31
-616.16
0
LINE
8
CentreLine
10
922.63
20
  0.00
30
-616.16
11
924.68
21
  0.00
31
-616.27
0
LINE
8
CentreLine
10
924.68
20
  0.00
30
-616.27
11
925.98
21
  0.00
31
-616.22
0
LINE
8
CentreLine
10
925.98
20
  0.00
30
-616.22
11
936.25
21
  0.00
31
-614.04
0
LINE
8
CentreLine
10
936.25
20
  0.00
30
-614.04
11
943.17
21
  0.00
31
-615.51
0
LINE
8
CentreLine
10
943.17
20
  0.00
30
-615.51
11
946.45
21
  0.00
31
-621.95
0
LINE
8
CentreLine
10
946.45
20
  0.00
30
-621.95
11
949.65
21
  0.00
31
-621.56
0
LINE
8
CentreLine
10
949.65
20
  0.00
30
-621.56
11
958.94
21
  0.00
31
-622.21
0
LINE
8
CentreLine
10
958.94
20
  0.00
30
-622.21
11
965.75
21
  0.00
31
-620.89
0
LINE
8
CentreLine
10
965.75
20
  0.00
30
-620.89
11
973.38
21
  0.00
31
-622.93
0
LINE
8
CentreLine
10
973.38
20
  0.00
30
-622.93
11
978.73
21
  0.00
31
-620.21
0
LINE
8
CentreLine
10
978.73
20
  0.00
30
-620.21
11
984.48
21
  0.00
31
-623.52
0
LINE
8
CentreLine
10
984.48
20
  0.00
30
-623.52
11
985.65
21
  0.00
31
-623.71
0
LINE
8
CentreLine
10
985.65
20
  0.00
30
-623.71
11
985.65
21
  0.00
31
-629.37
0
LINE
8
CentreLine
10
985.65
20
  0.00
30
-629.37
11
990.73
21
  0.00
31
-629.81
0
LINE
8
CentreLine
10
990.73
20
  0.00
30
-629.81
11
992.61
21
  0.00
31
-630.04
0
LINE
8
CentreLine
10
992.61
20
  0.00
30
-630.04
11
997.87
21
  0.00
31
-629.95
0
LINE
8
CentreLine
10
997.87
20
  0.00
30
-629.95
11
1000.51
21
  0.00
31
-629.19
0
LINE
8
CentreLine
10
1000.51
20
  0.00
30
-629.19
11
1001.65
21
  0.00
31
-629.15
0
LINE
8
CentreLine
10
1001.65
20
  0.00
30
-629.15
11
1006.37
21
  0.00
31
-629.57
0
LINE
8
CentreLine
10
1006.37
20
  0.00
30
-629.57
11
1011.38
21
  0.00
31
-629.74
0
LINE
8
CentreLine
10
1011.38
20
  0.00
30
-629.74
11
1016.81
21
  0.00
31
-628.08
0
LINE
8
CentreLine
10
1016.81
20
  0.00
30
-628.08
11
1024.70
21
  0.00
31
-629.47
0
LINE
8
CentreLine
10
1024.70
20
  0.00
30
-629.47
11
1027.69
21
  0.00
31
-629.95
0
LINE
8
CentreLine
10
1027.69
20
  0.00
30
-629.95
11
1033.00
21
  0.00
31
-629.29
0
LINE
8
CentreLine
10
1033.00
20
  0.00
30
-629.29
11
1038.67
21
  0.00
31
-628.70
0
LINE
8
CentreLine
10
1038.67
20
  0.00
30
-628.70
11
1041.14
21
  0.00
31
-626.22
0
LINE
8
CentreLine
10
1041.14
20
  0.00
30
-626.22
11
1045.59
21
  0.00
31
-625.44
0
LINE
8
CentreLine
10
1045.59
20
  0.00
30
-625.44
11
1057.83
21
  0.00
31
-628.49
0
LINE
8
CentreLine
10
1057.83
20
  0.00
30
-628.49
11
1075.57
21
  0.00
31
-634.25
0
LINE
8
CentreLine
10
1075.57
20
  0.00
30
-634.25
11
1084.50
21
  0.00
31
-640.75
0
LINE
8
CentreLine
10
1084.50
20
  0.00
30
-640.75
11
1095.41
21
  0.00
31
-643.47
0
LINE
8
CentreLine
10
1095.41
20
  0.00
30
-643.47
11
1109.52
21
  0.00
31
-648.60
0
LINE
8
CentreLine
10
1109.52
20
  0.00
30
-648.60
11
1116.73
21
  0.00
31
-648.60
0
LINE
8
CentreLine
10
1116.73
20
  0.00
30
-648.60
11
1121.34
21
  0.00
31
-650.10
0
LINE
8
CentreLine
10
1121.34
20
  0.00
30
-650.10
11
1126.04
21
  0.00
31
-651.63
0
LINE
8
CentreLine
10
1126.04
20
  0.00
30
-651.63
11
1128.00
21
  0.00
31
-652.05
0
LINE
8
CentreLine
10
1128.00
20
  0.00
30
-652.05
11
1133.10
21
  0.00
31
-657.33
0
LINE
8
CentreLine
10
1133.10
20
  0.00
30
-657.33
11
1153.31
21
  0.00
31
-660.90
0
LINE
8
CentreLine
10
1153.31
20
  0.00
30
-660.90
11
1162.40
21
  0.00
31
-661.06
0
LINE
8
CentreLine
10
1162.40
20
  0.00
30
-661.06
11
1170.65
21
  0.00
31
-666.84
0
LINE
8
CentreLine
10
1170.65
20
  0.00
30
-666.84
11
1189.80
21
  0.00
31
-673.81
0
LINE
8
CentreLine
10
1189.80
20
  0.00
30
-673.81
11
1194.15
21
  0.00
31
-674.97
0
LINE
8
CentreLine
10
1194.15
20
  0.00
30
-674.97
11
1200.12
21
  0.00
31
-675.29
0
LINE
8
CentreLine
10
1200.12
20
  0.00
30
-675.29
11
1207.92
21
  0.00
31
-673.91
0
LINE
8
CentreLine
10
1207.92
20
  0.00
30
-673.91
11
1215.73
21
  0.00
31
-675.43
0
LINE
8
CentreLine
10
1215.73
20
  0.00
30
-675.43
11
1224.56
21
  0.00
31
-678.29
0
LINE
8
CentreLine
10
1224.56
20
  0.00
30
-678.29
11
1230.24
21
  0.00
31
-680.25
0
LINE
8
CentreLine
10
1230.24
20
  0.00
30
-680.25
11
1237.81
21
  0.00
31
-682.14
0
LINE
8
CentreLine
10
1237.81
20
  0.00
30
-682.14
11
1240.71
21
  0.00
31
-682.09
0
LINE
8
CentreLine
10
1240.71
20
  0.00
30
-682.09
11
1246.81
21
  0.00
31
-687.77
0
LINE
8
CentreLine
10
1246.81
20
  0.00
30
-687.77
11
1266.36
21
  0.00
31
-690.87
0
LINE
8
CentreLine
10
1266.36
20
  0.00
30
-690.87
11
1273.82
21
  0.00
31
-692.32
0
LINE
8
CentreLine
10
1273.82
20
  0.00
30
-692.32
11
1279.43
21
  0.00
31
-698.33
0
LINE
8
CentreLine
10
1279.43
20
  0.00
30
-698.33
11
1293.31
21
  0.00
31
-705.41
0
LINE
8
CentreLine
10
1293.31
20
  0.00
30
-705.41
11
1299.58
21
  0.00
31
-705.41
0
LINE
8
CentreLine
10
1299.58
20
  0.00
30
-705.41
11
1302.14
21
  0.00
31
-703.99
0
LINE
8
CentreLine
10
1302.14
20
  0.00
30
-703.99
11
1308.19
21
  0.00
31
-703.99
0
LINE
8
CentreLine
10
1308.19
20
  0.00
30
-703.99
11
1319.95
21
  0.00
31
-701.05
0
LINE
8
CentreLine
10
1319.95
20
  0.00
30
-701.05
11
1326.91
21
  0.00
31
-700.32
0
LINE
8
CentreLine
10
1326.91
20
  0.00
30
-700.32
11
1332.76
21
  0.00
31
-699.91
0
LINE
8
CentreLine
10
1332.76
20
  0.00
30
-699.91
11
1345.98
21
  0.00
31
-696.37
0
LINE
8
CentreLine
10
1345.98
20
  0.00
30
-696.37
11
1355.59
21
  0.00
31
-693.80
0
LINE
8
CentreLine
10
1355.59
20
  0.00
30
-693.80
11
1362.41
21
  0.00
31
-690.90
0
LINE
8
CentreLine
10
1362.41
20
  0.00
30
-690.90
11
1369.93
21
  0.00
31
-687.55
0
LINE
8
CentreLine
10
1369.93
20
  0.00
30
-687.55
11
1372.81
21
  0.00
31
-688.49
0
LINE
8
CentreLine
10
1372.81
20
  0.00
30
-688.49
11
1377.29
21
  0.00
31
-687.54
0
LINE
8
CentreLine
10
1377.29
20
  0.00
30
-687.54
11
1400.78
21
  0.00
31
-673.43
0
LINE
8
CentreLine
10
1400.78
20
  0.00
30
-673.43
11
1406.40
21
  0.00
31
-671.05
0
LINE
8
CentreLine
10
1406.40
20
  0.00
30
-671.05
11
1415.21
21
  0.00
31
-677.45
0
LINE
8
CentreLine
10
1415.21
20
  0.00
30
-677.45
11
1417.01
21
  0.00
31
-676.32
0
LINE
8
CentreLine
10
1417.01
20
  0.00
30
-676.32
11
1425.46
21
  0.00
31
-680.44
0
LINE
8
CentreLine
10
1425.46
20
  0.00
30
-680.44
11
1434.15
21
  0.00
31
-690.45
0
LINE
8
CentreLine
10
1434.15
20
  0.00
30
-690.45
11
1440.60
21
  0.00
31
-691.82
0
LINE
8
CentreLine
10
1440.60
20
  0.00
30
-691.82
11
1464.07
21
  0.00
31
-700.35
0
LINE
8
CentreLine
10
1464.07
20
  0.00
30
-700.35
11
1473.84
21
  0.00
31
-706.95
0
LINE
8
CentreLine
10
1473.84
20
  0.00
30
-706.95
11
1513.24
21
  0.00
31
-700.01
0
LINE
8
CentreLine
10
1513.24
20
  0.00
30
-700.01
11
1514.89
21
  0.00
31
-700.81
0
LINE
8
CentreLine
10
1514.89
20
  0.00
30
-700.81
11
1523.26
21
  0.00
31
-711.53
0
LINE
8
CentreLine
10
1523.26
20
  0.00
30
-711.53
11
1526.72
21
  0.00
31
-710.27
0
LINE
8
CentreLine
10
1526.72
20
  0.00
30
-710.27
11
1534.25
21
  0.00
31
-711.88
0
LINE
8
CentreLine
10
1534.25
20
  0.00
30
-711.88
11
1544.27
21
  0.00
31
-708.62
0
LINE
8
CentreLine
10
1544.27
20
  0.00
30
-708.62
11
1549.00
21
  0.00
31
-713.35
0
LINE
8
CentreLine
10
1549.00
20
  0.00
30
-713.35
11
1554.20
21
  0.00
31
-715.55
0
LINE
8
CentreLine
10
1554.20
20
  0.00
30
-715.55
11
1556.90
21
  0.00
31
-715.36
0
LINE
8
CentreLine
10
1556.90
20
  0.00
30
-715.36
11
1565.64
21
  0.00
31
-712.18
0
LINE
8
CentreLine
10
1565.64
20
  0.00
30
-712.18
11
1573.94
21
  0.00
31
-709.48
0
LINE
8
CentreLine
10
1573.94
20
  0.00
30
-709.48
11
1594.58
21
  0.00
31
-697.57
0
LINE
8
CentreLine
10
1594.58
20
  0.00
30
-697.57
11
1602.51
21
  0.00
31
-694.52
0
LINE
8
CentreLine
10
1602.51
20
  0.00
30
-694.52
11
1617.91
21
  0.00
31
-682.49
0
LINE
8
CentreLine
10
1617.91
20
  0.00
30
-682.49
11
1626.79
21
  0.00
31
-678.72
0
LINE
8
CentreLine
10
1626.79
20
  0.00
30
-678.72
11
1644.51
21
  0.00
31
-672.96
0
LINE
8
CentreLine
10
1644.51
20
  0.00
30
-672.96
11
1653.01
21
  0.00
31
-667.02
0
LINE
8
CentreLine
10
1653.01
20
  0.00
30
-667.02
11
1662.63
21
  0.00
31
-662.53
0
LINE
8
CentreLine
10
1662.63
20
  0.00
30
-662.53
11
1676.14
21
  0.00
31
-659.16
0
LINE
8
CentreLine
10
1676.14
20
  0.00
30
-659.16
11
1687.64
21
  0.00
31
-656.51
0
LINE
8
CentreLine
10
1687.64
20
  0.00
30
-656.51
11
1715.73
21
  0.00
31
-643.41
0
LINE
8
CentreLine
10
1715.73
20
  0.00
30
-643.41
11
1720.29
21
  0.00
31
-642.10
0
LINE
8
CentreLine
10
1720.29
20
  0.00
30
-642.10
11
1734.43
21
  0.00
31
-641.11
0
LINE
8
CentreLine
10
1734.43
20
  0.00
30
-641.11
11
1744.31
21
  0.00
31
-638.09
0
LINE
8
CentreLine
10
1744.31
20
  0.00
30
-638.09
11
1753.12
21
  0.00
31
-635.56
0
LINE
8
CentreLine
10
978.73
20
  0.00
30
-620.21
11
984.61
21
  0.00
31
-619.28
0
LINE
8
CentreLine
10
984.61
20
  0.00
30
-619.28
11
990.21
21
  0.00
31
-620.88
0
LINE
8
CentreLine
10
990.21
20
  0.00
30
-620.88
11
996.83
21
  0.00
31
-619.35
0
LINE
8
CentreLine
10
996.83
20
  0.00
30
-619.35
11
1004.39
21
  0.00
31
-619.75
0
LINE
8
CentreLine
10
946.45
20
  0.00
30
-621.95
11
947.91
21
  0.00
31
-622.46
0
LINE
8
CentreLine
10
947.91
20
  0.00
30
-622.46
11
960.04
21
  0.00
31
-630.34
0
LINE
8
CentreLine
10
960.04
20
  0.00
30
-630.34
11
961.22
21
  0.00
31
-631.52
0
LINE
8
CentreLine
10
961.22
20
  0.00
30
-631.52
11
963.72
21
  0.00
31
-631.56
0
LINE
8
CentreLine
10
963.72
20
  0.00
30
-631.56
11
967.59
21
  0.00
31
-631.97
0
LINE
8
CentreLine
10
967.59
20
  0.00
30
-631.97
11
974.11
21
  0.00
31
-636.04
0
LINE
8
CentreLine
10
974.11
20
  0.00
30
-636.04
11
980.90
21
  0.00
31
-637.24
0
LINE
8
CentreLine
10
980.90
20
  0.00
30
-637.24
11
984.20
21
  0.00
31
-641.47
0
LINE
8
CentreLine
10
984.20
20
  0.00
30
-641.47
11
989.19
21
  0.00
31
-640.68
0
LINE
8
CentreLine
10
989.19
20
  0.00
30
-640.68
11
989.19
21
  0.00
31
-643.69
0
LINE
8
CentreLine
10
989.19
20
  0.00
30
-643.69
11
993.82
21
  0.00
31
-645.85
0
LINE
8
CentreLine
10
993.82
20
  0.00
30
-645.85
11
996.90
21
  0.00
31
-645.20
0
LINE
8
CentreLine
10
996.90
20
  0.00
30
-645.20
11
998.57
21
  0.00
31
-647.41
0
LINE
8
CentreLine
10
998.57
20
  0.00
30
-647.41
11
1006.25
21
  0.00
31
-647.01
0
LINE
8
CentreLine
10
1006.25
20
  0.00
30
-647.01
11
1012.32
21
  0.00
31
-652.29
0
LINE
8
CentreLine
10
1012.32
20
  0.00
30
-652.29
11
1018.78
21
  0.00
31
-652.63
0
LINE
8
CentreLine
10
1018.78
20
  0.00
30
-652.63
11
1020.74
21
  0.00
31
-653.15
0
LINE
8
CentreLine
10
1020.74
20
  0.00
30
-653.15
11
1026.27
21
  0.00
31
-652.67
0
LINE
8
CentreLine
10
1026.27
20
  0.00
30
-652.67
11
1029.24
21
  0.00
31
-652.41
0
LINE
8
CentreLine
10
1029.24
20
  0.00
30
-652.41
11
1033.74
21
  0.00
31
-653.37
0
LINE
8
CentreLine
10
1033.74
20
  0.00
30
-653.37
11
1037.76
21
  0.00
31
-654.00
0
LINE
8
CentreLine
10
1037.76
20
  0.00
30
-654.00
11
1043.52
21
  0.00
31
-653.19
0
LINE
8
CentreLine
10
1043.52
20
  0.00
30
-653.19
11
1052.99
21
  0.00
31
-653.03
0
LINE
8
CentreLine
10
1052.99
20
  0.00
30
-653.03
11
1057.83
21
  0.00
31
-655.29
0
LINE
8
CentreLine
10
1057.83
20
  0.00
30
-655.29
11
1061.58
21
  0.00
31
-655.35
0
LINE
8
CentreLine
10
1061.58
20
  0.00
30
-655.35
11
1066.08
21
  0.00
31
-655.11
0
LINE
8
CentreLine
10
1066.08
20
  0.00
30
-655.11
11
1073.05
21
  0.00
31
-655.36
0
LINE
8
CentreLine
10
1073.05
20
  0.00
30
-655.36
11
1084.29
21
  0.00
31
-655.55
0
LINE
8
CentreLine
10
1084.29
20
  0.00
30
-655.55
11
1089.97
21
  0.00
31
-655.16
0
LINE
8
CentreLine
10
1089.97
20
  0.00
30
-655.16
11
1096.51
21
  0.00
31
-654.00
0
LINE
8
CentreLine
10
1096.51
20
  0.00
30
-654.00
11
1101.30
21
  0.00
31
-656.77
0
LINE
8
CentreLine
10
1101.30
20
  0.00
30
-656.77
11
1103.37
21
  0.00
31
-657.57
0
LINE
8
CentreLine
10
1103.37
20
  0.00
30
-657.57
11
1106.34
21
  0.00
31
-658.48
0
LINE
8
CentreLine
10
1106.34
20
  0.00
30
-658.48
11
1120.51
21
  0.00
31
-660.72
0
LINE
8
CentreLine
10
1073.05
20
  0.00
30
-655.36
11
1087.15
21
  0.00
31
-650.23
0
LINE
8
CentreLine
10
1043.52
20
  0.00
30
-653.19
11
1046.98
21
  0.00
31
-653.01
0
LINE
8
CentreLine
10
1046.98
20
  0.00
30
-653.01
11
1056.67
21
  0.00
31
-652.84
0
LINE
8
CentreLine
10
1056.67
20
  0.00
30
-652.84
11
1064.63
21
  0.00
31
-651.58
0
LINE
8
CentreLine
10
1064.63
20
  0.00
30
-651.58
11
1065.49
21
  0.00
31
-650.49
0
LINE
8
CentreLine
10
1065.49
20
  0.00
30
-650.49
11
1070.22
21
  0.00
31
-649.31
0
LINE
8
CentreLine
10
1070.22
20
  0.00
30
-649.31
11
1074.59
21
  0.00
31
-648.22
0
LINE
8
CentreLine
10
1074.59
20
  0.00
30
-648.22
11
1077.16
21
  0.00
31
-646.74
0
LINE
8
CentreLine
10
1077.16
20
  0.00
30
-646.74
11
1080.73
21
  0.00
31
-645.43
0
LINE
8
CentreLine
10
1080.73
20
  0.00
30
-645.43
11
1083.71
21
  0.00
31
-645.43
0
LINE
8
CentreLine
10
1083.71
20
  0.00
30
-645.43
11
1095.05
21
  0.00
31
-645.04
0
LINE
8
CentreLine
10
1095.05
20
  0.00
30
-645.04
11
1102.31
21
  0.00
31
-645.04
0
LINE
8
CentreLine
10
1095.05
20
  0.00
30
-645.04
11
1097.44
21
  0.00
31
-645.04
0
LINE
8
CentreLine
10
1097.44
20
  0.00
30
-645.04
11
1099.62
21
  0.00
31
-645.27
0
LINE
8
CentreLine
10
1099.62
20
  0.00
30
-645.27
11
1102.00
21
  0.00
31
-644.58
0
LINE
8
CentreLine
10
1102.00
20
  0.00
30
-644.58
11
1104.45
21
  0.00
31
-644.41
0
LINE
8
CentreLine
10
1104.45
20
  0.00
30
-644.41
11
1109.64
21
  0.00
31
-644.69
0
LINE
8
CentreLine
10
828.42
20
  0.00
30
-612.96
11
840.18
21
  0.00
31
-611.09
0
LINE
8
CentreLine
10
840.18
20
  0.00
30
-611.09
11
844.59
21
  0.00
31
-610.32
0
LINE
8
CentreLine
10
844.59
20
  0.00
30
-610.32
11
849.64
21
  0.00
31
-608.96
0
LINE
8
CentreLine
10
849.64
20
  0.00
30
-608.96
11
854.56
21
  0.00
31
-610.75
0
LINE
8
CentreLine
10
854.56
20
  0.00
30
-610.75
11
859.63
21
  0.00
31
-609.11
0
LINE
8
CentreLine
10
702.92
20
  0.00
30
-539.73
11
708.98
21
  0.00
31
-537.99
0
LINE
8
CentreLine
10
708.98
20
  0.00
30
-537.99
11
722.79
21
  0.00
31
-535.06
0
LINE
8
CentreLine
10
722.79
20
  0.00
30
-535.06
11
731.46
21
  0.00
31
-536.58
0
LINE
8
CentreLine
10
620.50
20
  0.00
30
-522.07
11
626.71
21
  0.00
31
-525.65
0
LINE
8
CentreLine
10
626.71
20
  0.00
30
-525.65
11
630.19
21
  0.00
31
-528.89
0
LINE
8
CentreLine
10
630.19
20
  0.00
30
-528.89
11
630.19
21
  0.00
31
-531.79
0
LINE
8
CentreLine
10
630.19
20
  0.00
30
-531.79
11
630.69
21
  0.00
31
-531.79
0
LINE
8
CentreLine
10
630.69
20
  0.00
30
-531.79
11
630.69
21
  0.00
31
-542.07
0
LINE
8
CentreLine
10
630.69
20
  0.00
30
-542.07
11
636.70
21
  0.00
31
-542.07
0
LINE
8
CentreLine
10
459.05
20
  0.00
30
-513.20
11
467.95
21
  0.00
31
-516.27
0
LINE
8
CentreLine
10
347.61
20
  0.00
30
-407.92
11
351.89
21
  0.00
31
-410.49
0
LINE
8
CentreLine
10
351.89
20
  0.00
30
-410.49
11
354.25
21
  0.00
31
-411.08
0
LINE
8
CentreLine
10
354.25
20
  0.00
30
-411.08
11
358.27
21
  0.00
31
-412.16
0
LINE
8
CentreLine
10
358.27
20
  0.00
30
-412.16
11
360.22
21
  0.00
31
-416.97
0
LINE
8
CentreLine
10
360.22
20
  0.00
30
-416.97
11
367.47
21
  0.00
31
-420.35
0
LINE
8
CentreLine
10
208.21
20
  0.00
30
-177.64
11
210.30
21
  0.00
31
-179.73
0
LINE
8
CentreLine
10
210.30
20
  0.00
30
-179.73
11
211.19
21
  0.00
31
-184.36
0
LINE
8
CentreLine
10
211.19
20
  0.00
30
-184.36
11
214.22
21
  0.00
31
-186.63
0
LINE
8
CentreLine
10
214.22
20
  0.00
30
-186.63
11
219.12
21
  0.00
31
-186.72
0
LINE
8
CentreLine
10
219.12
20
  0.00
30
-186.72
11
221.35
21
  0.00
31
-188.23
0
LINE
8
CentreLine
10
221.35
20
  0.00
30
-188.23
11
225.84
21
  0.00
31
-189.43
0
LINE
8
CentreLine
10
 47.16
20
  0.00
30
  0.00
11
 58.37
21
  0.00
31
 -6.74
0
LINE
8
CentreLine
10
 58.37
20
  0.00
30
 -6.74
11
 62.99
21
  0.00
31
 -7.97
0
LINE
8
CentreLine
10
 62.99
20
  0.00
30
 -7.97
11
 67.78
21
  0.00
31
-23.66
0
LINE
8
CentreLine
10
 67.78
20
  0.00
30
-23.66
11
 75.16
21
  0.00
31
-28.63
0
LINE
8
CentreLine
10
 75.16
20
  0.00
30
-28.63
11
 76.65
21
  0.00
31
-28.63
0
LINE
8
CentreLine
10
 76.65
20
  0.00
30
-28.63
11
 77.63
21
  0.00
31
-37.88
0
LINE
8
CentreLine
10
 77.63
20
  0.00
30
-37.88
11
 84.25
21
  0.00
31
-40.70
0
LINE
8
CentreLine
10
 84.25
20
  0.00
30
-40.70
11
 85.21
21
  0.00
31
-44.79
0
LINE
8
CentreLine
10
 85.21
20
  0.00
30
-44.79
11
 89.72
21
  0.00
31
-46.43
0
LINE
8
CentreLine
10
 89.72
20
  0.00
30
-46.43
11
 93.98
21
  0.00
31
-47.10
0
LINE
8
CentreLine
10
 93.98
20
  0.00
30
-47.10
11
 93.98
21
  0.00
31
-53.90
0
LINE
8
CentreLine
10
 93.98
20
  0.00
30
-53.90
11
104.69
21
  0.00
31
-57.80
000
ENDSEC
000
EOF
