<?xml version="1.0" encoding="ISO-8859-1"?>
<svg version="1.1" baseProfile="full"
xmlns="http://www.w3.org/2000/svg"
xmlns:xlink="http://www.w3.org/1999/xlink"
xmlns:ev="http://www.w3.org/2001/xml-events"
width="3410.520mm" height="1623.180mm"
viewBox="0 0 3410.520 1623.180">
<g transform="translate(1705.260 811.590)">
<g id="Legs" stroke="black" fill="none" stroke-width="0.4px">
<path d="M-1449.520 -800.590L-1438.660 -806.590"/>
<path d="M-1463.640 -791.390L-1449.520 -800.590"/>
<path d="M-1470.940 -789.850L-1463.640 -791.390"/>
<path d="M-1476.720 -788.290L-1470.940 -789.850"/>
<path d="M-1487.220 -788.670L-1476.720 -788.290"/>
<path d="M-1487.220 -784.250L-1487.220 -788.670"/>
<path d="M-1491.400 -780.730L-1487.220 -784.250"/>
<path d="M-1491.400 -768.590L-1491.400 -780.730"/>
<path d="M-1495.800 -766.350L-1491.400 -768.590"/>
<path d="M-1498.940 -768.390L-1495.800 -766.350"/>
<path d="M-1507.120 -766.950L-1498.940 -768.390"/>
<path d="M-1507.120 -757.050L-1507.120 -766.950"/>
<path d="M-1520.760 -757.770L-1507.120 -757.050"/>
<path d="M-1520.760 -748.970L-1520.760 -757.770"/>
<path d="M-1532.980 -744.270L-1520.760 -748.970"/>
<path d="M-1532.980 -744.270L-1559.500 -750.390"/>
<path d="M-1532.980 -744.270L-1555.380 -730.810"/>
<path d="M-1555.380 -730.810L-1564.640 -728.330"/>
<path d="M-1564.640 -728.330L-1574.220 -696.970"/>
<path d="M-1574.220 -696.970L-1588.980 -687.010"/>
<path d="M-1588.980 -687.010L-1591.980 -687.010"/>
<path d="M-1591.980 -687.010L-1593.920 -668.510"/>
<path d="M-1593.920 -668.510L-1607.160 -662.890"/>
<path d="M-1607.160 -662.890L-1609.060 -654.710"/>
<path d="M-1609.060 -654.710L-1618.080 -651.410"/>
<path d="M-1618.080 -651.410L-1626.580 -650.070"/>
<path d="M-1626.580 -650.070L-1626.580 -636.470"/>
<path d="M-1626.580 -636.470L-1648.000 -628.670"/>
<path d="M-1536.060 -739.710L-1532.980 -744.270"/>
<path d="M-1536.060 -725.330L-1536.060 -739.710"/>
<path d="M-1555.440 -733.150L-1536.060 -725.330"/>
<path d="M-1557.800 -731.570L-1555.440 -733.150"/>
<path d="M-1557.800 -675.170L-1557.800 -731.570"/>
<path d="M-1545.520 -667.490L-1557.800 -675.170"/>
<path d="M-1545.520 -656.890L-1545.520 -667.490"/>
<path d="M-1535.020 -655.230L-1545.520 -656.890"/>
<path d="M-1527.820 -650.890L-1535.020 -655.230"/>
<path d="M-1524.500 -645.190L-1527.820 -650.890"/>
<path d="M-1513.240 -645.190L-1524.500 -645.190"/>
<path d="M-1513.240 -628.470L-1513.240 -645.190"/>
<path d="M-1502.740 -631.070L-1513.240 -628.470"/>
<path d="M-1487.280 -624.830L-1502.740 -631.070"/>
<path d="M-1480.180 -617.210L-1487.280 -624.830"/>
<path d="M-1463.160 -620.230L-1480.180 -617.210"/>
<path d="M-1442.120 -628.310L-1463.160 -620.230"/>
<path d="M-1434.880 -625.950L-1442.120 -628.310"/>
<path d="M-1430.280 -621.790L-1434.880 -625.950"/>
<path d="M-1425.880 -615.950L-1430.280 -621.790"/>
<path d="M-1425.880 -609.030L-1425.880 -615.950"/>
<path d="M-1418.600 -614.150L-1425.880 -609.030"/>
<path d="M-1413.720 -607.670L-1418.600 -614.150"/>
<path d="M-1413.720 -593.870L-1413.720 -607.670"/>
<path d="M-1400.740 -593.190L-1413.720 -593.870"/>
<path d="M-1397.320 -593.190L-1400.740 -593.190"/>
<path d="M-1397.320 -562.750L-1397.320 -593.190"/>
<path d="M-1363.700 -569.910L-1397.320 -562.750"/>
<path d="M-1359.020 -568.950L-1363.700 -569.910"/>
<path d="M-1355.360 -568.390L-1359.020 -568.950"/>
<path d="M-1346.580 -559.110L-1355.360 -568.390"/>
<path d="M-1344.660 -476.750L-1346.580 -559.110"/>
<path d="M-1344.260 -441.810L-1344.660 -476.750"/>
<path d="M-1308.980 -442.870L-1344.260 -441.810"/>
<path d="M-1300.940 -434.010L-1308.980 -442.870"/>
<path d="M-1300.880 -424.470L-1300.940 -434.010"/>
<path d="M-1291.940 -421.610L-1300.880 -424.470"/>
<path d="M-1281.220 -411.570L-1291.940 -421.610"/>
<path d="M-1268.120 -411.410L-1281.220 -411.570"/>
<path d="M-1268.120 -411.410L-1268.120 -377.010"/>
<path d="M-1265.700 -392.650L-1268.120 -411.410"/>
<path d="M-1258.400 -390.010L-1265.700 -392.650"/>
<path d="M-1253.680 -396.230L-1258.400 -390.010"/>
<path d="M-1219.480 -403.390L-1253.680 -396.230"/>
<path d="M-1193.480 -404.090L-1219.480 -403.390"/>
<path d="M-1188.880 -403.730L-1193.480 -404.090"/>
<path d="M-1183.860 -402.310L-1188.880 -403.730"/>
<path d="M-1183.660 -379.750L-1183.860 -402.310"/>
<path d="M-1176.420 -365.690L-1183.660 -379.750"/>
<path d="M-1172.900 -318.690L-1176.420 -365.690"/>
<path d="M-1164.680 -319.290L-1172.900 -318.690"/>
<path d="M-1156.960 -314.930L-1164.680 -319.290"/>
<path d="M-1151.400 -315.150L-1156.960 -314.930"/>
<path d="M-1144.320 -263.830L-1151.400 -315.150"/>
<path d="M-1123.100 -261.090L-1144.320 -263.830"/>
<path d="M-1122.640 -221.350L-1123.100 -261.090"/>
<path d="M-1115.260 -224.250L-1122.640 -221.350"/>
<path d="M-1109.980 -223.150L-1115.260 -224.250"/>
<path d="M-1109.700 -195.590L-1109.980 -223.150"/>
<path d="M-1109.200 -154.490L-1109.700 -195.590"/>
<path d="M-1108.800 -118.450L-1109.200 -154.490"/>
<path d="M-1108.520 -89.850L-1108.800 -118.450"/>
<path d="M-1099.520 -89.890L-1108.520 -89.850"/>
<path d="M-1074.860 -89.270L-1099.520 -89.890"/>
<path d="M-1073.480 -88.590L-1074.860 -89.270"/>
<path d="M-1073.160 -57.690L-1073.480 -88.590"/>
<path d="M-1059.540 -52.630L-1073.160 -57.690"/>
<path d="M-1049.780 -48.410L-1059.540 -52.630"/>
<path d="M-1049.580 -24.030L-1049.780 -48.410"/>
<path d="M-1042.360 -27.390L-1049.580 -24.030"/>
<path d="M-1040.120 -22.970L-1042.360 -27.390"/>
<path d="M-1039.220 32.850L-1040.120 -22.970"/>
<path d="M-1039.220 32.850L-1030.520 53.330"/>
<path d="M-1030.520 53.330L-1036.080 56.270"/>
<path d="M-1036.080 56.270L-1046.100 70.090"/>
<path d="M-1046.100 70.090L-1053.280 79.290"/>
<path d="M-1046.100 70.090L-1054.080 75.470"/>
<path d="M-1054.080 75.470L-1060.340 78.010"/>
<path d="M-1060.340 78.010L-1077.240 82.690"/>
<path d="M-1077.240 82.690L-1080.400 82.970"/>
<path d="M-1080.400 82.970L-1088.600 82.830"/>
<path d="M-1088.600 82.830L-1092.920 84.230"/>
<path d="M-1092.920 84.230L-1100.220 86.890"/>
<path d="M-1039.040 53.270L-1039.220 32.850"/>
<path d="M-1038.980 45.750L-1039.040 53.270"/>
<path d="M-1017.080 46.690L-1038.980 45.750"/>
<path d="M-998.180 38.590L-1017.080 46.690"/>
<path d="M-992.560 40.470L-998.180 38.590"/>
<path d="M-968.680 66.810L-992.560 40.470"/>
<path d="M-968.680 66.810L-960.140 71.950"/>
<path d="M-960.140 71.950L-955.380 73.130"/>
<path d="M-955.380 73.130L-947.340 75.270"/>
<path d="M-947.340 75.270L-943.460 84.890"/>
<path d="M-943.460 84.890L-928.960 91.670"/>
<path d="M-959.960 60.530L-968.680 66.810"/>
<path d="M-940.700 69.670L-959.960 60.530"/>
<path d="M-934.500 70.830L-940.700 69.670"/>
<path d="M-929.620 70.550L-934.500 70.830"/>
<path d="M-929.540 68.950L-929.620 70.550"/>
<path d="M-923.640 73.150L-929.540 68.950"/>
<path d="M-919.180 75.770L-923.640 73.150"/>
<path d="M-914.160 78.950L-919.180 75.770"/>
<path d="M-902.840 94.770L-914.160 78.950"/>
<path d="M-890.760 97.290L-902.840 94.770"/>
<path d="M-886.000 97.010L-890.760 97.290"/>
<path d="M-884.980 100.710L-886.000 97.010"/>
<path d="M-877.820 112.470L-884.980 100.710"/>
<path d="M-869.560 108.690L-877.820 112.470"/>
<path d="M-866.020 113.370L-869.560 108.690"/>
<path d="M-865.940 124.570L-866.020 113.370"/>
<path d="M-855.320 125.250L-865.940 124.570"/>
<path d="M-846.120 128.930L-855.320 125.250"/>
<path d="M-838.320 133.550L-846.120 128.930"/>
<path d="M-818.860 163.910L-838.320 133.550"/>
<path d="M-810.360 161.090L-818.860 163.910"/>
<path d="M-806.480 168.290L-810.360 161.090"/>
<path d="M-795.540 173.850L-806.480 168.290"/>
<path d="M-790.660 172.510L-795.540 173.850"/>
<path d="M-778.100 173.770L-790.660 172.510"/>
<path d="M-772.220 174.150L-778.100 173.770"/>
<path d="M-767.640 173.730L-772.220 174.150"/>
<path d="M-768.660 233.670L-767.640 173.730"/>
<path d="M-773.580 231.550L-768.660 233.670"/>
<path d="M-777.560 241.910L-773.580 231.550"/>
<path d="M-777.980 278.850L-777.560 241.910"/>
<path d="M-790.620 276.270L-777.980 278.850"/>
<path d="M-790.620 276.270L-808.420 282.410"/>
<path d="M-804.040 271.830L-790.620 276.270"/>
<path d="M-842.900 269.930L-804.040 271.830"/>
<path d="M-879.200 272.050L-842.900 269.930"/>
<path d="M-894.280 275.070L-879.200 272.050"/>
<path d="M-919.820 271.070L-894.280 275.070"/>
<path d="M-943.800 266.730L-919.820 271.070"/>
<path d="M-959.680 271.150L-943.800 266.730"/>
<path d="M-983.280 275.730L-959.680 271.150"/>
<path d="M-997.680 278.390L-983.280 275.730"/>
<path d="M-1046.660 281.630L-997.680 278.390"/>
<path d="M-1064.660 282.010L-1046.660 281.630"/>
<path d="M-1086.580 282.830L-1064.660 282.010"/>
<path d="M-1113.560 295.130L-1086.580 282.830"/>
<path d="M-1140.640 307.150L-1113.560 295.130"/>
<path d="M-1145.380 311.110L-1140.640 307.150"/>
<path d="M-1169.820 310.130L-1145.380 311.110"/>
<path d="M-1197.520 311.430L-1169.820 310.130"/>
<path d="M-1228.800 319.990L-1197.520 311.430"/>
<path d="M-1249.120 326.290L-1228.800 319.990"/>
<path d="M-1258.420 336.130L-1249.120 326.290"/>
<path d="M-1279.540 331.890L-1258.420 336.130"/>
<path d="M-1279.540 331.890L-1291.660 328.430"/>
<path d="M-1291.660 328.430L-1319.280 322.550"/>
<path d="M-1319.280 322.550L-1336.620 325.610"/>
<path d="M-1284.880 332.410L-1279.540 331.890"/>
<path d="M-1292.460 336.550L-1284.880 332.410"/>
<path d="M-1306.080 335.210L-1292.460 336.550"/>
<path d="M-1323.180 330.130L-1306.080 335.210"/>
<path d="M-1340.900 335.630L-1323.180 330.130"/>
<path d="M-1355.020 336.970L-1340.900 335.630"/>
<path d="M-1362.140 339.870L-1355.020 336.970"/>
<path d="M-1380.200 339.710L-1362.140 339.870"/>
<path d="M-1383.260 339.730L-1380.200 339.710"/>
<path d="M-1393.680 341.250L-1383.260 339.730"/>
<path d="M-1399.720 345.610L-1393.680 341.250"/>
<path d="M-1405.720 362.710L-1399.720 345.610"/>
<path d="M-1410.640 370.830L-1405.720 362.710"/>
<path d="M-1414.720 381.370L-1410.640 370.830"/>
<path d="M-1415.280 425.650L-1414.720 381.370"/>
<path d="M-1415.440 447.290L-1415.280 425.650"/>
<path d="M-1415.920 487.310L-1415.440 447.290"/>
<path d="M-1409.140 484.290L-1415.920 487.310"/>
<path d="M-1382.800 483.270L-1409.140 484.290"/>
<path d="M-1378.120 483.450L-1382.800 483.270"/>
<path d="M-1368.440 484.530L-1378.120 483.450"/>
<path d="M-1357.260 484.590L-1368.440 484.530"/>
<path d="M-1348.140 484.330L-1357.260 484.590"/>
<path d="M-1344.540 484.430L-1348.140 484.330"/>
<path d="M-1337.160 482.770L-1344.540 484.430"/>
<path d="M-1330.820 483.470L-1337.160 482.770"/>
<path d="M-1316.720 482.830L-1330.820 483.470"/>
<path d="M-1305.640 483.090L-1316.720 482.830"/>
<path d="M-1300.140 480.670L-1305.640 483.090"/>
<path d="M-1300.140 480.670L-1276.620 476.950"/>
<path d="M-1276.620 476.950L-1267.800 475.390"/>
<path d="M-1267.800 475.390L-1257.720 472.690"/>
<path d="M-1257.720 472.690L-1247.860 476.270"/>
<path d="M-1247.860 476.270L-1237.740 472.990"/>
<path d="M-1287.740 481.630L-1300.140 480.670"/>
<path d="M-1271.620 484.030L-1287.740 481.630"/>
<path d="M-1259.280 484.330L-1271.620 484.030"/>
<path d="M-1211.980 482.790L-1259.280 484.330"/>
<path d="M-1198.380 486.270L-1211.980 482.790"/>
<path d="M-1191.020 486.430L-1198.380 486.270"/>
<path d="M-1173.860 488.110L-1191.020 486.430"/>
<path d="M-1168.100 486.710L-1173.860 488.110"/>
<path d="M-1148.180 486.550L-1168.100 486.710"/>
<path d="M-1135.860 487.290L-1148.180 486.550"/>
<path d="M-1117.040 487.130L-1135.860 487.290"/>
<path d="M-1112.260 489.130L-1117.040 487.130"/>
<path d="M-1108.140 489.370L-1112.260 489.130"/>
<path d="M-1105.700 489.310L-1108.140 489.370"/>
<path d="M-1085.240 485.130L-1105.700 489.310"/>
<path d="M-1071.440 488.170L-1085.240 485.130"/>
<path d="M-1064.800 501.130L-1071.440 488.170"/>
<path d="M-1058.440 500.390L-1064.800 501.130"/>
<path d="M-1039.820 501.890L-1058.440 500.390"/>
<path d="M-1026.180 499.350L-1039.820 501.890"/>
<path d="M-1010.860 503.570L-1026.180 499.350"/>
<path d="M-1000.160 498.210L-1010.860 503.570"/>
<path d="M-988.720 504.950L-1000.160 498.210"/>
<path d="M-986.340 505.350L-988.720 504.950"/>
<path d="M-986.300 516.770L-986.340 505.350"/>
<path d="M-976.120 517.730L-986.300 516.770"/>
<path d="M-972.340 518.210L-976.120 517.730"/>
<path d="M-961.820 518.110L-972.340 518.210"/>
<path d="M-956.520 516.630L-961.820 518.110"/>
<path d="M-954.220 516.570L-956.520 516.630"/>
<path d="M-944.700 517.470L-954.220 516.570"/>
<path d="M-934.660 517.890L-944.700 517.470"/>
<path d="M-923.800 514.650L-934.660 517.890"/>
<path d="M-908.000 517.570L-923.800 514.650"/>
<path d="M-901.980 518.550L-908.000 517.570"/>
<path d="M-891.300 517.330L-901.980 518.550"/>
<path d="M-879.920 516.230L-891.300 517.330"/>
<path d="M-875.000 511.330L-879.920 516.230"/>
<path d="M-866.060 509.830L-875.000 511.330"/>
<path d="M-841.620 516.230L-866.060 509.830"/>
<path d="M-806.260 528.330L-841.620 516.230"/>
<path d="M-788.380 541.470L-806.260 528.330"/>
<path d="M-766.640 547.170L-788.380 541.470"/>
<path d="M-738.480 557.850L-766.640 547.170"/>
<path d="M-724.040 557.970L-738.480 557.850"/>
<path d="M-714.740 561.050L-724.040 557.970"/>
<path d="M-705.300 564.170L-714.740 561.050"/>
<path d="M-701.340 565.030L-705.300 564.170"/>
<path d="M-691.080 575.710L-701.340 565.030"/>
<path d="M-650.720 583.570L-691.080 575.710"/>
<path d="M-632.500 584.070L-650.720 583.570"/>
<path d="M-615.960 595.790L-632.500 584.070"/>
<path d="M-577.800 610.330L-615.960 595.790"/>
<path d="M-569.060 612.730L-577.800 610.330"/>
<path d="M-557.100 613.430L-569.060 612.730"/>
<path d="M-541.540 610.830L-557.100 613.430"/>
<path d="M-525.880 614.010L-541.540 610.830"/>
<path d="M-508.260 619.910L-525.880 614.010"/>
<path d="M-496.920 623.910L-508.260 619.910"/>
<path d="M-481.740 627.810L-496.920 623.910"/>
<path d="M-475.880 627.750L-481.740 627.810"/>
<path d="M-463.660 639.230L-475.880 627.750"/>
<path d="M-424.720 646.270L-463.660 639.230"/>
<path d="M-409.800 649.290L-424.720 646.270"/>
<path d="M-398.620 661.450L-409.800 649.290"/>
<path d="M-370.920 675.910L-398.620 661.450"/>
<path d="M-358.380 676.010L-370.920 675.910"/>
<path d="M-353.260 673.210L-358.380 676.010"/>
<path d="M-341.120 673.310L-353.260 673.210"/>
<path d="M-317.500 667.770L-341.120 673.310"/>
<path d="M-303.540 666.430L-317.500 667.770"/>
<path d="M-291.800 665.690L-303.540 666.430"/>
<path d="M-291.800 665.690L-271.220 657.390"/>
<path d="M-271.220 657.390L-262.640 659.210"/>
<path d="M-262.640 659.210L-251.000 670.850"/>
<path d="M-251.000 670.850L-226.660 672.550"/>
<path d="M-226.660 672.550L-215.880 668.630"/>
<path d="M-215.880 668.630L-184.820 666.450"/>
<path d="M-184.820 666.450L-168.160 663.530"/>
<path d="M-168.160 663.530L-164.980 669.750"/>
<path d="M-164.980 669.750L-160.520 671.030"/>
<path d="M-160.520 671.030L-154.800 674.330"/>
<path d="M-154.800 674.330L-140.900 682.670"/>
<path d="M-140.900 682.670L-134.100 679.770"/>
<path d="M-134.100 679.770L-127.140 684.830"/>
<path d="M-168.160 663.530L-160.480 660.730"/>
<path d="M-160.480 660.730L-144.420 667.210"/>
<path d="M-144.420 667.210L-135.020 668.030"/>
<path d="M-135.020 668.030L-125.820 663.130"/>
<path d="M-125.820 663.130L-109.960 655.730"/>
<path d="M-109.960 655.730L-95.260 654.970"/>
<path d="M-95.260 654.970L-67.620 644.350"/>
<path d="M-67.620 644.350L-37.840 640.690"/>
<path d="M-37.840 640.690L-7.200 651.250"/>
<path d="M-7.200 651.250L-1.040 651.790"/>
<path d="M-1.040 651.790L9.720 652.730"/>
<path d="M9.720 652.730L12.540 654.690"/>
<path d="M12.540 654.690L12.540 681.350"/>
<path d="M12.540 681.350L30.740 681.350"/>
<path d="M30.740 681.350L32.340 681.350"/>
<path d="M32.340 681.350L40.040 681.770"/>
<path d="M40.040 681.770L46.300 680.090"/>
<path d="M46.300 680.090L51.740 677.890"/>
<path d="M51.740 677.890L59.100 678.150"/>
<path d="M59.100 678.150L64.060 678.230"/>
<path d="M64.060 678.230L68.040 678.150"/>
<path d="M68.040 678.150L73.160 675.070"/>
<path d="M30.740 681.350L35.620 680.770"/>
<path d="M35.620 680.770L45.060 692.410"/>
<path d="M45.060 692.410L50.860 690.870"/>
<path d="M50.860 690.870L62.840 699.890"/>
<path d="M62.840 699.890L62.840 763.490"/>
<path d="M62.840 763.490L74.260 763.490"/>
<path d="M74.260 763.490L84.220 765.610"/>
<path d="M84.220 765.610L91.560 771.350"/>
<path d="M91.560 771.350L97.020 774.010"/>
<path d="M97.020 774.010L100.220 774.870"/>
<path d="M100.220 774.870L114.860 783.310"/>
<path d="M114.860 783.310L128.700 790.070"/>
<path d="M128.700 790.070L140.820 797.650"/>
<path d="M140.820 797.650L150.020 797.650"/>
<path d="M-291.800 665.690L-281.620 664.810"/>
<path d="M-281.620 664.810L-268.580 662.970"/>
<path d="M-268.580 662.970L-245.180 652.070"/>
<path d="M-245.180 652.070L-233.640 646.930"/>
<path d="M-233.640 646.930L-224.840 646.930"/>
<path d="M-224.840 646.930L-211.560 644.110"/>
<path d="M-211.560 644.110L-194.440 636.830"/>
<path d="M-194.440 636.830L-164.440 617.370"/>
<path d="M-164.440 617.370L-155.480 613.170"/>
<path d="M-291.800 665.690L-285.660 670.490"/>
<path d="M-285.660 670.490L-280.780 673.550"/>
<path d="M-280.780 673.550L-264.700 673.550"/>
<path d="M-264.700 673.550L-260.560 675.950"/>
<path d="M-260.560 675.950L-252.880 670.770"/>
<path d="M-252.880 670.770L-213.200 668.690"/>
<path d="M-213.200 668.690L-204.360 666.650"/>
<path d="M-204.360 666.650L-198.940 674.410"/>
<path d="M-198.940 674.410L-188.120 678.130"/>
<path d="M-291.800 665.690L-265.400 658.610"/>
<path d="M-265.400 658.610L-246.180 653.470"/>
<path d="M-246.180 653.470L-232.540 647.670"/>
<path d="M-232.540 647.670L-217.500 640.990"/>
<path d="M-217.500 640.990L-211.740 642.850"/>
<path d="M-211.740 642.850L-202.760 640.950"/>
<path d="M-202.760 640.950L-155.800 612.730"/>
<path d="M-155.800 612.730L-144.580 607.970"/>
<path d="M-144.580 607.970L-126.960 620.770"/>
<path d="M-126.960 620.770L-123.340 618.510"/>
<path d="M-123.340 618.510L-106.440 626.750"/>
<path d="M-106.440 626.750L-89.020 646.770"/>
<path d="M-89.020 646.770L-76.140 649.510"/>
<path d="M-76.140 649.510L-29.240 666.570"/>
<path d="M-29.240 666.570L-9.660 679.770"/>
<path d="M-9.660 679.770L5.980 687.070"/>
<path d="M5.980 687.070L13.600 687.070"/>
<path d="M13.600 687.070L27.160 683.430"/>
<path d="M27.160 683.430L67.500 670.330"/>
<path d="M67.500 670.330L79.340 672.210"/>
<path d="M79.340 672.210L93.540 669.190"/>
<path d="M93.540 669.190L106.560 673.170"/>
<path d="M106.560 673.170L109.860 674.770"/>
<path d="M109.860 674.770L126.620 696.210"/>
<path d="M126.620 696.210L133.540 693.710"/>
<path d="M133.540 693.710L148.580 696.910"/>
<path d="M148.580 696.910L168.660 690.390"/>
<path d="M168.660 690.390L178.120 699.850"/>
<path d="M178.120 699.850L188.500 704.250"/>
<path d="M188.500 704.250L193.900 703.870"/>
<path d="M193.900 703.870L211.400 697.510"/>
<path d="M211.400 697.510L228.000 692.110"/>
<path d="M228.000 692.110L269.260 668.290"/>
<path d="M269.260 668.290L285.120 662.190"/>
<path d="M285.120 662.190L315.940 638.130"/>
<path d="M315.940 638.130L333.700 630.590"/>
<path d="M333.700 630.590L369.140 619.090"/>
<path d="M369.140 619.090L386.120 607.190"/>
<path d="M386.120 607.190L405.360 598.210"/>
<path d="M405.360 598.210L432.380 591.470"/>
<path d="M432.380 591.470L455.380 586.170"/>
<path d="M455.380 586.170L511.560 559.970"/>
<path d="M511.560 559.970L520.680 557.350"/>
<path d="M520.680 557.350L548.980 555.370"/>
<path d="M548.980 555.370L568.740 549.330"/>
<path d="M568.740 549.330L586.380 544.270"/>
<path d="M586.380 544.270L596.060 534.590"/>
<path d="M596.060 534.590L608.900 529.910"/>
<path d="M608.900 529.910L645.240 529.910"/>
<path d="M645.240 529.910L656.840 543.750"/>
<path d="M656.840 543.750L676.500 549.390"/>
<path d="M676.500 549.390L703.900 549.390"/>
<path d="M703.900 549.390L712.400 547.430"/>
<path d="M712.400 547.430L723.300 553.450"/>
<path d="M723.300 553.450L731.160 554.010"/>
<path d="M731.160 554.010L735.300 557.730"/>
<path d="M735.300 557.730L742.540 560.650"/>
<path d="M742.540 560.650L749.760 568.670"/>
<path d="M749.760 568.670L761.960 576.590"/>
<path d="M761.960 576.590L769.040 576.590"/>
<path d="M769.040 576.590L780.360 583.930"/>
<path d="M780.360 583.930L793.780 594.430"/>
<path d="M793.780 594.430L798.680 597.870"/>
<path d="M798.680 597.870L803.380 605.990"/>
<path d="M803.380 605.990L803.380 616.770"/>
<path d="M803.380 616.770L808.320 617.630"/>
<path d="M808.320 617.630L825.040 632.190"/>
<path d="M825.040 632.190L842.960 643.390"/>
<path d="M842.960 643.390L845.880 646.850"/>
<path d="M845.880 646.850L848.560 651.850"/>
<path d="M848.560 651.850L850.140 652.670"/>
<path d="M850.140 652.670L852.940 658.710"/>
<path d="M852.940 658.710L874.420 662.870"/>
<path d="M874.420 662.870L901.280 664.290"/>
<path d="M901.280 664.290L916.120 662.190"/>
<path d="M916.120 662.190L930.640 673.550"/>
<path d="M930.640 673.550L937.880 674.190"/>
<path d="M937.880 674.190L951.900 674.910"/>
<path d="M951.900 674.910L959.200 672.550"/>
<path d="M959.200 672.550L1007.820 672.550"/>
<path d="M1007.820 672.550L1056.640 669.990"/>
<path d="M1056.640 669.990L1068.800 661.470"/>
<path d="M1068.800 661.470L1085.480 656.690"/>
<path d="M1085.480 656.690L1101.360 653.030"/>
<path d="M1101.360 653.030L1130.980 656.650"/>
<path d="M1130.980 656.650L1146.720 663.670"/>
<path d="M1146.720 663.670L1162.800 672.570"/>
<path d="M1162.800 672.570L1174.780 675.350"/>
<path d="M1174.780 675.350L1192.280 674.730"/>
<path d="M1192.280 674.730L1196.940 675.730"/>
<path d="M1196.940 675.730L1199.480 676.450"/>
<path d="M1199.480 676.450L1214.680 693.330"/>
<path d="M1214.680 693.330L1233.120 703.130"/>
<path d="M1233.120 703.130L1239.360 709.590"/>
<path d="M1239.360 709.590L1263.940 712.610"/>
<path d="M1263.940 712.610L1263.940 704.110"/>
<path d="M1263.940 704.110L1284.320 707.350"/>
<path d="M1284.320 707.350L1309.580 707.790"/>
<path d="M1309.580 707.790L1312.060 709.050"/>
<path d="M1312.060 709.050L1359.480 691.790"/>
<path d="M1359.480 691.790L1375.280 690.130"/>
<path d="M1375.280 690.130L1402.040 676.510"/>
<path d="M1402.040 676.510L1426.360 643.030"/>
<path d="M1375.280 690.130L1379.980 691.130"/>
<path d="M1379.980 691.130L1390.080 704.050"/>
<path d="M1390.080 704.050L1415.740 726.350"/>
<path d="M1415.740 726.350L1419.540 727.590"/>
<path d="M1419.540 727.590L1437.640 735.650"/>
<path d="M1437.640 735.650L1465.280 746.810"/>
<path d="M1465.280 746.810L1487.260 753.530"/>
<path d="M1487.260 753.530L1501.740 755.570"/>
<path d="M1501.740 755.570L1524.900 754.750"/>
<path d="M1524.900 754.750L1544.760 761.590"/>
<path d="M1544.760 761.590L1561.560 761.010"/>
<path d="M1561.560 761.010L1571.300 768.350"/>
<path d="M1571.300 768.350L1590.040 773.370"/>
<path d="M1590.040 773.370L1600.640 773.010"/>
<path d="M1600.640 773.010L1611.960 777.570"/>
<path d="M1611.960 777.570L1626.960 783.650"/>
<path d="M1626.960 783.650L1655.320 792.850"/>
<path d="M1655.320 792.850L1700.260 806.590"/>
<path d="M1611.960 777.570L1630.020 772.050"/>
<path d="M1630.020 772.050L1643.280 769.950"/>
<path d="M1643.280 769.950L1668.580 766.850"/>
<path d="M1668.580 766.850L1695.080 751.550"/>
<path d="M-9.660 679.770L16.020 657.430"/>
<path d="M-270.320 668.210L-291.800 665.690"/>
<path d="M-235.980 667.610L-270.320 668.210"/>
<path d="M-222.220 669.910L-235.980 667.610"/>
<path d="M-211.920 669.990L-222.220 669.910"/>
<path d="M-175.920 652.250L-211.920 669.990"/>
<path d="M-157.780 648.250L-175.920 652.250"/>
<path d="M-143.740 642.390L-157.780 648.250"/>
<path d="M-106.800 641.170L-143.740 642.390"/>
<path d="M-97.440 630.510L-106.800 641.170"/>
<path d="M-85.360 630.170L-97.440 630.510"/>
<path d="M-70.120 621.490L-85.360 630.170"/>
<path d="M-54.340 619.130L-70.120 621.490"/>
<path d="M-34.900 615.570L-54.340 619.130"/>
<path d="M-18.780 617.670L-34.900 615.570"/>
<path d="M-8.300 617.210L-18.780 617.670"/>
<path d="M48.480 596.810L-8.300 617.210"/>
<path d="M107.600 584.710L48.480 596.810"/>
<path d="M118.120 574.630L107.600 584.710"/>
<path d="M146.460 565.770L118.120 574.630"/>
<path d="M154.780 563.910L146.460 565.770"/>
<path d="M184.700 554.090L154.780 563.910"/>
<path d="M207.100 549.610L184.700 554.090"/>
<path d="M244.340 528.750L207.100 549.610"/>
<path d="M281.040 514.590L244.340 528.750"/>
<path d="M291.840 517.170L281.040 514.590"/>
<path d="M310.780 520.730L291.840 517.170"/>
<path d="M337.220 518.310L310.780 520.730"/>
<path d="M342.660 517.290L337.220 518.310"/>
<path d="M347.720 515.050L342.660 517.290"/>
<path d="M360.440 512.670L347.720 515.050"/>
<path d="M370.200 512.910L360.440 512.670"/>
<path d="M374.920 511.850L370.200 512.910"/>
<path d="M381.100 509.770L374.920 511.850"/>
<path d="M396.660 510.450L381.100 509.770"/>
<path d="M406.920 507.170L396.660 510.450"/>
<path d="M412.060 504.110L406.920 507.170"/>
<path d="M416.560 502.930L412.060 504.110"/>
<path d="M421.280 501.890L416.560 502.930"/>
<path d="M426.820 501.150L421.280 501.890"/>
<path d="M430.640 500.630L426.820 501.150"/>
<path d="M-1000.160 498.210L-988.400 496.350"/>
<path d="M-988.400 496.350L-977.220 499.570"/>
<path d="M-977.220 499.570L-963.940 496.510"/>
<path d="M-963.940 496.510L-948.840 497.290"/>
<path d="M-1061.700 502.170L-1064.800 501.130"/>
<path d="M-1086.300 517.650L-1061.700 502.170"/>
<path d="M-1088.720 520.050L-1086.300 517.650"/>
<path d="M-1093.760 520.130L-1088.720 520.050"/>
<path d="M-1101.580 520.930L-1093.760 520.130"/>
<path d="M-1114.780 529.030L-1101.580 520.930"/>
<path d="M-1128.500 531.390L-1114.780 529.030"/>
<path d="M-1135.160 539.850L-1128.500 531.390"/>
<path d="M-1145.240 538.270L-1135.160 539.850"/>
<path d="M-1145.300 544.290L-1145.240 538.270"/>
<path d="M-1154.680 548.590L-1145.300 544.290"/>
<path d="M-1160.940 547.270L-1154.680 548.590"/>
<path d="M-1164.360 551.730L-1160.940 547.270"/>
<path d="M-1179.820 550.930L-1164.360 551.730"/>
<path d="M-1192.200 561.410L-1179.820 550.930"/>
<path d="M-1205.220 562.070L-1192.200 561.410"/>
<path d="M-1209.000 563.090L-1205.220 562.070"/>
<path d="M-1219.960 562.130L-1209.000 563.090"/>
<path d="M-1225.860 561.610L-1219.960 562.130"/>
<path d="M-1234.740 563.510L-1225.860 561.610"/>
<path d="M-1242.740 564.770L-1234.740 563.510"/>
<path d="M-1254.140 563.130L-1242.740 564.770"/>
<path d="M-1272.900 562.790L-1254.140 563.130"/>
<path d="M-1282.460 567.290L-1272.900 562.790"/>
<path d="M-1289.900 567.410L-1282.460 567.290"/>
<path d="M-1298.980 566.930L-1289.900 567.410"/>
<path d="M-1312.740 567.410L-1298.980 566.930"/>
<path d="M-1312.740 567.410L-1335.240 567.790"/>
<path d="M-1335.240 567.790L-1346.600 567.010"/>
<path d="M-1346.600 567.010L-1359.680 564.690"/>
<path d="M-1359.680 564.690L-1369.280 570.230"/>
<path d="M-1369.280 570.230L-1373.400 571.810"/>
<path d="M-1373.400 571.810L-1379.340 573.630"/>
<path d="M-1379.340 573.630L-1407.680 578.130"/>
<path d="M-1407.680 578.130L-1418.980 575.090"/>
<path d="M-1418.980 575.090L-1433.240 571.530"/>
<path d="M-1433.240 571.530L-1442.660 576.130"/>
<path d="M-1442.660 576.130L-1454.540 577.810"/>
<path d="M-1454.540 577.810L-1458.140 584.550"/>
<path d="M-1458.140 584.550L-1465.140 582.810"/>
<path d="M-1465.140 582.810L-1485.480 585.310"/>
<path d="M-1485.480 585.310L-1497.860 584.430"/>
<path d="M-1497.860 584.430L-1505.520 584.430"/>
<path d="M-1505.520 584.430L-1514.580 588.670"/>
<path d="M-1514.580 588.670L-1535.280 586.490"/>
<path d="M-1535.280 586.490L-1544.700 588.490"/>
<path d="M-1544.700 588.490L-1548.920 593.170"/>
<path d="M-1548.920 593.170L-1557.080 593.170"/>
<path d="M-1557.080 593.170L-1557.080 600.170"/>
<path d="M-1557.080 600.170L-1564.700 603.730"/>
<path d="M-1564.700 603.730L-1571.980 612.750"/>
<path d="M-1571.980 612.750L-1577.560 617.930"/>
<path d="M-1577.560 617.930L-1580.060 615.910"/>
<path d="M-1580.060 615.910L-1585.760 618.330"/>
<path d="M-1585.760 618.330L-1587.500 621.490"/>
<path d="M-1587.500 621.490L-1592.300 624.730"/>
<path d="M-1592.300 624.730L-1596.840 623.930"/>
<path d="M-1596.840 623.930L-1596.840 640.330"/>
<path d="M-1557.080 593.170L-1557.500 593.390"/>
<path d="M-1557.500 593.390L-1557.500 599.790"/>
<path d="M-1557.500 599.790L-1561.820 600.710"/>
<path d="M-1561.820 600.710L-1572.060 609.950"/>
<path d="M-1572.060 609.950L-1575.780 614.870"/>
<path d="M-1575.780 614.870L-1580.700 624.110"/>
<path d="M-1580.700 624.110L-1580.700 641.910"/>
<path d="M-1497.860 584.430L-1517.780 588.670"/>
<path d="M-1517.780 588.670L-1510.800 590.550"/>
<path d="M-1510.800 590.550L-1503.420 593.230"/>
<path d="M-1503.420 593.230L-1485.540 599.750"/>
<path d="M-1485.540 599.750L-1483.160 599.990"/>
<path d="M-1483.160 599.990L-1480.080 602.850"/>
<path d="M-1480.080 602.850L-1469.820 608.310"/>
<path d="M-1469.820 608.310L-1466.300 609.730"/>
<path d="M-1466.300 609.730L-1450.040 618.010"/>
<path d="M-1450.040 618.010L-1438.580 630.750"/>
<path d="M-1438.580 630.750L-1423.820 633.630"/>
<path d="M-1423.820 633.630L-1419.880 639.930"/>
<path d="M-1419.880 639.930L-1408.360 640.330"/>
<path d="M-1408.360 640.330L-1390.640 642.830"/>
<path d="M-1390.640 642.830L-1380.360 645.010"/>
<path d="M-1380.360 645.010L-1380.360 645.850"/>
<path d="M-1380.360 645.850L-1362.400 646.170"/>
<path d="M-1362.400 646.170L-1353.920 650.310"/>
<path d="M-1353.920 650.310L-1349.580 651.070"/>
<path d="M-1349.580 651.070L-1344.720 659.870"/>
<path d="M-1344.720 659.870L-1328.960 662.650"/>
<path d="M-1312.740 567.410L-1340.920 557.150"/>
<path d="M-1326.680 561.710L-1312.740 567.410"/>
<path d="M-1317.500 558.870L-1326.680 561.710"/>
<path d="M-1290.540 545.950L-1317.500 558.870"/>
<path d="M-1282.400 542.290L-1290.540 545.950"/>
<path d="M-1273.660 538.430L-1282.400 542.290"/>
<path d="M-1258.040 536.750L-1273.660 538.430"/>
<path d="M-1253.260 535.890L-1258.040 536.750"/>
<path d="M-1234.260 534.530L-1253.260 535.890"/>
<path d="M-1228.880 532.590L-1234.260 534.530"/>
<path d="M-1222.680 531.370L-1228.880 532.590"/>
<path d="M-1216.680 533.090L-1222.680 531.370"/>
<path d="M-1209.440 532.450L-1216.680 533.090"/>
<path d="M-1199.980 534.130L-1209.440 532.450"/>
<path d="M-1195.620 533.750L-1199.980 534.130"/>
<path d="M-1195.580 532.290L-1195.620 533.750"/>
<path d="M-1185.660 532.290L-1195.580 532.290"/>
<path d="M-1178.360 531.770L-1185.660 532.290"/>
<path d="M-1173.940 533.130L-1178.360 531.770"/>
<path d="M-1165.860 528.190L-1173.940 533.130"/>
<path d="M-1142.180 529.850L-1165.860 528.190"/>
<path d="M-1142.180 529.850L-1127.940 539.110"/>
<path d="M-1127.940 539.110L-1115.480 545.450"/>
<path d="M-1140.480 529.850L-1142.180 529.850"/>
<path d="M-1140.220 500.630L-1140.480 529.850"/>
<path d="M-1254.140 563.130L-1261.040 562.770"/>
<path d="M-1261.040 562.770L-1280.420 562.430"/>
<path d="M-1280.420 562.430L-1264.500 559.910"/>
<path d="M-1264.500 559.910L-1262.780 557.730"/>
<path d="M-1262.780 557.730L-1253.340 555.370"/>
<path d="M-1253.340 555.370L-1244.600 553.190"/>
<path d="M-1244.600 553.190L-1239.460 550.230"/>
<path d="M-1239.460 550.230L-1232.300 547.610"/>
<path d="M-1232.300 547.610L-1226.340 547.610"/>
<path d="M-1226.340 547.610L-1203.680 546.830"/>
<path d="M-1203.680 546.830L-1189.160 546.830"/>
<path d="M-1203.680 546.830L-1198.880 546.830"/>
<path d="M-1198.880 546.830L-1194.520 547.290"/>
<path d="M-1194.520 547.290L-1189.760 545.910"/>
<path d="M-1189.760 545.910L-1184.860 545.570"/>
<path d="M-1184.860 545.570L-1174.460 546.130"/>
<path d="M-1280.420 562.430L-1269.180 566.530"/>
<path d="M-1269.180 566.530L-1257.580 569.410"/>
<path d="M-1257.580 569.410L-1246.020 569.830"/>
<path d="M-1246.020 569.830L-1242.020 575.550"/>
<path d="M-1242.020 575.550L-1232.260 576.410"/>
<path d="M-1232.260 576.410L-1225.020 575.770"/>
<path d="M-1225.020 575.770L-1218.420 576.590"/>
<path d="M-1218.420 576.590L-1211.800 594.770"/>
<path d="M-1211.800 594.770L-1199.780 596.250"/>
<path d="M-1199.780 596.250L-1199.780 610.930"/>
<path d="M-1199.780 610.930L-1161.040 615.690"/>
<path d="M-1161.040 615.690L-1141.440 615.010"/>
<path d="M-1141.440 615.010L-1126.560 615.010"/>
<path d="M-1126.560 615.010L-1112.600 614.510"/>
<path d="M-1112.600 614.510L-1091.980 614.170"/>
<path d="M-1091.980 614.170L-1057.100 614.170"/>
<path d="M-1218.420 576.590L-1207.500 576.390"/>
<path d="M-1207.500 576.390L-1207.500 577.870"/>
<path d="M-1207.500 577.870L-1198.920 578.470"/>
<path d="M-1198.920 578.470L-1179.280 576.410"/>
<path d="M-1179.280 576.410L-1165.180 579.150"/>
<path d="M-1165.180 579.150L-1158.620 579.150"/>
<path d="M-1158.620 579.150L-1155.860 578.770"/>
<path d="M-1155.860 578.770L-1148.820 576.610"/>
<path d="M-1148.820 576.610L-1137.800 577.190"/>
<path d="M-1137.800 577.190L-1132.940 574.270"/>
<path d="M-1132.940 574.270L-1125.040 572.010"/>
<path d="M-1125.040 572.010L-1122.380 574.950"/>
<path d="M-1122.380 574.950L-1116.460 572.070"/>
<path d="M-1116.460 572.070L-1107.100 570.570"/>
<path d="M-1107.100 570.570L-1098.660 567.510"/>
<path d="M-1098.660 567.510L-1091.540 570.970"/>
<path d="M-1091.540 570.970L-1079.040 568.750"/>
<path d="M-1079.040 568.750L-1073.740 567.250"/>
<path d="M-1135.160 539.850L-1141.660 537.750"/>
<path d="M-1141.660 537.750L-1151.580 528.810"/>
<path d="M-1151.580 528.810L-1154.720 528.810"/>
<path d="M-1154.720 528.810L-1176.220 517.370"/>
<path d="M-1176.220 517.370L-1186.720 513.970"/>
<path d="M-1113.560 295.130L-1125.840 302.230"/>
<path d="M-1125.840 302.230L-1132.860 308.670"/>
<path d="M-1132.860 308.670L-1132.920 314.410"/>
<path d="M-1132.920 314.410L-1134.080 314.390"/>
<path d="M-1134.080 314.390L-1134.080 334.950"/>
<path d="M-1134.080 334.950L-1146.080 334.950"/>
<path d="M-1146.080 334.950L-1153.460 338.710"/>
<path d="M-1153.460 338.710L-1160.960 340.030"/>
<path d="M-1160.960 340.030L-1160.960 349.390"/>
<path d="M-1160.960 349.390L-1170.740 344.830"/>
<path d="M-1134.080 314.390L-1134.080 301.070"/>
<path d="M-1134.080 301.070L-1141.780 294.630"/>
<path d="M-1134.080 314.390L-1134.140 320.230"/>
<path d="M-789.800 275.250L-777.980 278.850"/>
<path d="M-769.120 255.970L-789.800 275.250"/>
<path d="M-755.600 247.170L-769.120 255.970"/>
<path d="M-719.740 245.310L-755.600 247.170"/>
<path d="M-708.240 256.030L-719.740 245.310"/>
<path d="M-704.900 268.470L-708.240 256.030"/>
<path d="M-687.780 315.470L-704.900 268.470"/>
<path d="M-687.780 315.470L-671.240 316.330"/>
<path d="M-671.240 316.330L-655.620 319.370"/>
<path d="M-655.620 319.370L-633.940 327.250"/>
<path d="M-633.940 327.250L-612.360 347.390"/>
<path d="M-612.360 347.390L-580.600 365.710"/>
<path d="M-580.600 365.710L-565.260 362.730"/>
<path d="M-580.600 365.710L-572.800 372.510"/>
<path d="M-572.800 372.510L-563.480 376.450"/>
<path d="M-563.480 376.450L-558.700 381.090"/>
<path d="M-558.700 381.090L-551.080 381.230"/>
<path d="M-551.080 381.230L-528.500 375.590"/>
<path d="M-528.500 375.590L-512.640 372.510"/>
<path d="M-528.500 375.590L-514.660 384.590"/>
<path d="M-514.660 384.590L-508.200 388.630"/>
<path d="M-508.200 388.630L-502.520 389.630"/>
<path d="M-502.520 389.630L-485.640 383.470"/>
<path d="M-485.640 383.470L-475.500 385.630"/>
<path d="M-475.500 385.630L-468.700 386.230"/>
<path d="M-468.700 386.230L-459.960 393.290"/>
<path d="M-459.960 393.290L-449.980 409.270"/>
<path d="M-449.980 409.270L-449.980 423.010"/>
<path d="M-449.980 423.010L-446.260 421.430"/>
<path d="M-446.260 421.430L-442.820 424.530"/>
<path d="M-442.820 424.530L-442.820 427.650"/>
<path d="M-442.820 427.650L-452.020 430.290"/>
<path d="M-452.020 430.290L-463.640 431.510"/>
<path d="M-463.640 431.510L-463.640 432.610"/>
<path d="M-463.640 432.610L-463.640 429.690"/>
<path d="M-463.640 429.690L-481.760 431.270"/>
<path d="M-481.760 431.270L-482.880 434.370"/>
<path d="M-482.880 434.370L-496.880 435.350"/>
<path d="M-496.880 435.350L-505.500 432.550"/>
<path d="M-505.500 432.550L-514.320 433.470"/>
<path d="M-514.320 433.470L-514.320 435.070"/>
<path d="M-514.320 435.070L-525.220 434.130"/>
<path d="M-525.220 434.130L-529.620 434.130"/>
<path d="M-529.620 434.130L-548.260 435.430"/>
<path d="M-548.260 435.430L-551.120 435.930"/>
<path d="M-551.120 435.930L-557.400 436.030"/>
<path d="M-557.400 436.030L-568.720 435.650"/>
<path d="M-568.720 435.650L-575.680 439.510"/>
<path d="M-575.680 439.510L-575.680 438.730"/>
<path d="M-575.680 438.730L-583.320 441.490"/>
<path d="M-583.320 441.490L-596.320 442.170"/>
<path d="M-596.320 442.170L-597.440 442.170"/>
<path d="M-597.440 442.170L-609.520 438.270"/>
<path d="M-609.520 438.270L-616.960 435.990"/>
<path d="M-616.960 435.990L-624.660 436.390"/>
<path d="M-624.660 436.390L-634.180 433.310"/>
<path d="M-634.180 433.310L-651.920 427.870"/>
<path d="M-651.920 427.870L-682.340 412.370"/>
<path d="M-446.260 421.430L-436.600 424.030"/>
<path d="M-436.600 424.030L-429.600 428.230"/>
<path d="M-429.600 428.230L-429.600 444.070"/>
<path d="M-429.600 444.070L-423.860 444.670"/>
<path d="M-423.860 444.670L-415.820 444.530"/>
<path d="M-415.820 444.530L-413.520 447.370"/>
<path d="M-413.520 447.370L-413.520 467.130"/>
<path d="M-475.500 385.630L-441.740 381.490"/>
<path d="M-441.740 381.490L-430.780 380.910"/>
<path d="M-430.780 380.910L-417.480 377.830"/>
<path d="M-417.480 377.830L-409.020 375.090"/>
<path d="M-409.020 375.090L-401.220 371.770"/>
<path d="M-401.220 371.770L-393.640 371.650"/>
<path d="M-393.640 371.650L-386.860 369.310"/>
<path d="M-386.860 369.310L-379.380 365.170"/>
<path d="M-379.380 365.170L-372.300 362.990"/>
<path d="M-514.660 384.590L-484.140 383.510"/>
<path d="M-572.800 372.510L-563.400 376.310"/>
<path d="M-563.400 376.310L-553.920 386.110"/>
<path d="M-687.780 315.470L-679.740 324.690"/>
<path d="M-671.460 314.610L-687.780 315.470"/>
<path d="M-650.740 317.890L-671.460 314.610"/>
<path d="M-650.740 317.890L-625.880 306.830"/>
<path d="M-610.840 319.290L-650.740 317.890"/>
<path d="M-584.620 316.070L-610.840 319.290"/>
<path d="M-567.360 316.970L-584.620 316.070"/>
<path d="M-526.700 317.670L-567.360 316.970"/>
<path d="M-513.400 318.150L-526.700 317.670"/>
<path d="M-503.340 317.570L-513.400 318.150"/>
<path d="M-487.740 317.030L-503.340 317.570"/>
<path d="M-477.820 308.890L-487.740 317.030"/>
<path d="M-469.680 306.130L-477.820 308.890"/>
<path d="M-469.680 306.130L-460.060 305.950"/>
<path d="M-460.060 305.950L-453.240 309.590"/>
<path d="M-453.240 309.590L-437.680 313.170"/>
<path d="M-453.240 309.590L-396.060 310.590"/>
<path d="M-396.060 310.590L-375.420 306.570"/>
<path d="M-396.060 310.590L-388.400 304.390"/>
<path d="M-388.400 304.390L-382.920 303.630"/>
<path d="M-382.920 303.630L-370.900 312.690"/>
<path d="M-370.900 312.690L-364.000 311.710"/>
<path d="M-364.000 311.710L-352.420 329.570"/>
<path d="M-352.420 329.570L-342.100 333.330"/>
<path d="M-342.100 333.330L-310.360 343.030"/>
<path d="M-310.360 343.030L-294.360 353.830"/>
<path d="M-294.360 353.830L-292.740 353.910"/>
<path d="M-292.740 353.910L-276.420 355.910"/>
<path d="M-276.420 355.910L-264.040 356.570"/>
<path d="M-264.040 356.570L-255.600 358.210"/>
<path d="M-255.600 358.210L-251.760 362.770"/>
<path d="M-251.760 362.770L-243.000 369.870"/>
<path d="M-243.000 369.870L-238.760 363.070"/>
<path d="M-238.760 363.070L-234.900 366.410"/>
<path d="M-234.900 366.410L-234.900 371.250"/>
<path d="M-234.900 371.250L-234.900 383.770"/>
<path d="M-234.900 383.770L-224.160 388.790"/>
<path d="M-224.160 388.790L-221.440 419.810"/>
<path d="M-221.440 419.810L-221.440 436.010"/>
<path d="M-221.440 436.010L-213.480 434.170"/>
<path d="M-382.920 303.630L-363.220 286.510"/>
<path d="M-363.220 286.510L-337.860 274.670"/>
<path d="M-363.220 286.510L-340.760 276.510"/>
<path d="M-340.760 276.510L-324.100 277.090"/>
<path d="M-324.100 277.090L-299.900 278.350"/>
<path d="M-299.900 278.350L-277.560 267.930"/>
<path d="M-277.560 267.930L-250.420 258.590"/>
<path d="M-250.420 258.590L-210.340 248.590"/>
<path d="M-210.340 248.590L-194.120 252.050"/>
<path d="M-194.120 252.050L-172.200 251.650"/>
<path d="M-172.200 251.650L-149.260 238.410"/>
<path d="M-172.200 251.650L-159.300 259.090"/>
<path d="M-159.300 259.090L-107.220 255.450"/>
<path d="M-107.220 255.450L-74.600 253.170"/>
<path d="M-74.600 253.170L-57.880 264.870"/>
<path d="M-57.880 264.870L-51.240 272.010"/>
<path d="M-51.240 272.010L-35.000 274.290"/>
<path d="M-35.000 274.290L-13.020 273.130"/>
<path d="M-13.020 273.130L7.160 275.970"/>
<path d="M7.160 275.970L62.320 286.690"/>
<path d="M62.320 286.690L106.260 309.070"/>
<path d="M106.260 309.070L138.560 321.470"/>
<path d="M138.560 321.470L193.400 340.350"/>
<path d="M193.400 340.350L215.940 341.150"/>
<path d="M215.940 341.150L246.060 344.850"/>
<path d="M246.060 344.850L258.680 346.610"/>
<path d="M258.680 346.610L288.100 340.370"/>
<path d="M288.100 340.370L292.440 330.630"/>
<path d="M292.440 330.630L305.680 324.730"/>
<path d="M138.560 321.470L143.400 321.990"/>
<path d="M143.400 321.990L155.660 337.110"/>
<path d="M155.660 337.110L173.060 340.810"/>
<path d="M173.060 340.810L178.340 357.070"/>
<path d="M178.340 357.070L184.520 359.570"/>
<path d="M-35.000 274.290L-22.420 275.170"/>
<path d="M-22.420 275.170L-34.280 280.190"/>
<path d="M-34.280 280.190L-56.520 280.570"/>
<path d="M-56.520 280.570L-81.080 288.090"/>
<path d="M-81.080 288.090L-125.580 293.550"/>
<path d="M-125.580 293.550L-156.300 297.870"/>
<path d="M-156.300 297.870L-190.820 303.950"/>
<path d="M-190.820 303.950L-218.660 305.890"/>
<path d="M-218.660 305.890L-246.760 302.450"/>
<path d="M-246.760 302.450L-250.540 302.570"/>
<path d="M-250.540 302.570L-272.020 296.430"/>
<path d="M-272.020 296.430L-282.800 287.030"/>
<path d="M-282.800 287.030L-307.200 287.890"/>
<path d="M-307.200 287.890L-312.900 281.990"/>
<path d="M-312.900 281.990L-320.920 285.570"/>
<path d="M-320.920 285.570L-323.640 285.610"/>
<path d="M-323.640 285.610L-323.640 283.410"/>
<path d="M-323.640 283.410L-331.520 283.150"/>
<path d="M-331.520 283.150L-341.800 284.050"/>
<path d="M-341.800 284.050L-350.260 284.350"/>
<path d="M-350.260 284.350L-367.820 296.190"/>
<path d="M-367.820 296.190L-373.040 297.510"/>
<path d="M-172.200 251.650L-158.420 255.870"/>
<path d="M-158.420 255.870L-151.200 258.790"/>
<path d="M-151.200 258.790L-147.320 258.590"/>
<path d="M-147.320 258.590L-143.700 257.870"/>
<path d="M-143.700 257.870L-132.640 255.930"/>
<path d="M-132.640 255.930L-127.820 254.990"/>
<path d="M-127.820 254.990L-118.380 253.830"/>
<path d="M-118.380 253.830L-115.000 261.830"/>
<path d="M-115.000 261.830L-101.380 267.330"/>
<path d="M-101.380 267.330L-96.600 267.670"/>
<path d="M-96.600 267.670L-96.600 278.850"/>
<path d="M-96.600 278.850L-93.380 276.230"/>
<path d="M-93.380 276.230L-82.580 276.430"/>
<path d="M-82.580 276.430L-78.500 275.490"/>
<path d="M-78.500 275.490L-78.500 296.490"/>
<path d="M-78.500 296.490L-70.280 296.330"/>
<path d="M-118.380 253.830L-111.840 261.650"/>
<path d="M-111.840 261.650L-93.960 267.450"/>
<path d="M-93.960 267.450L-88.760 267.990"/>
<path d="M-88.760 267.990L-75.700 276.490"/>
<path d="M-75.700 276.490L-70.500 281.170"/>
<path d="M-70.500 281.170L-70.500 295.770"/>
<path d="M-70.500 295.770L-66.380 301.670"/>
<path d="M-66.380 301.670L-58.580 317.010"/>
<path d="M-58.580 317.010L-45.740 335.350"/>
<path d="M-45.740 335.350L-36.740 338.090"/>
<path d="M-36.740 338.090L-27.340 338.090"/>
<path d="M-27.340 338.090L-9.200 339.690"/>
<path d="M-9.200 339.690L0.760 340.390"/>
<path d="M0.760 340.390L0.760 363.190"/>
<path d="M-111.840 261.650L-89.940 250.010"/>
<path d="M-89.940 250.010L-71.720 247.450"/>
<path d="M-71.720 247.450L-62.900 247.450"/>
<path d="M-62.900 247.450L-57.360 234.370"/>
<path d="M-57.360 234.370L-42.980 234.370"/>
<path d="M-62.900 247.450L-49.300 245.050"/>
<path d="M-49.300 245.050L-49.300 205.050"/>
<path d="M-465.700 305.710L-469.680 306.130"/>
<path d="M-445.460 318.150L-465.700 305.710"/>
<path d="M-469.680 306.130L-464.780 309.550"/>
<path d="M-464.780 309.550L-457.720 315.490"/>
<path d="M-457.720 315.490L-453.160 319.050"/>
<path d="M-453.160 319.050L-449.440 321.770"/>
<path d="M-449.440 321.770L-444.720 311.190"/>
<path d="M-444.720 311.190L-439.880 312.030"/>
<path d="M-439.880 312.030L-432.040 312.170"/>
<path d="M-432.040 312.170L-424.080 314.770"/>
<path d="M-424.080 314.770L-421.740 313.870"/>
<path d="M-421.740 313.870L-417.340 313.870"/>
<path d="M-417.340 313.870L-407.140 322.430"/>
<path d="M-407.140 322.430L-401.340 321.730"/>
<path d="M-401.340 321.730L-394.720 331.210"/>
<path d="M-394.720 331.210L-392.220 330.990"/>
<path d="M-392.220 330.990L-392.220 348.410"/>
<path d="M-392.220 348.410L-381.620 348.410"/>
<path d="M-778.020 274.190L-777.980 278.850"/>
<path d="M-788.480 274.110L-778.020 274.190"/>
<path d="M-773.560 280.690L-788.480 274.110"/>
<path d="M-768.100 286.650L-773.560 280.690"/>
<path d="M-763.740 286.250L-768.100 286.650"/>
<path d="M-760.860 288.230L-763.740 286.250"/>
<path d="M-760.700 308.150L-760.860 288.230"/>
<path d="M-750.080 302.610L-760.700 308.150"/>
<path d="M-743.840 304.350L-750.080 302.610"/>
<path d="M-735.640 303.890L-743.840 304.350"/>
<path d="M-733.000 308.150L-735.640 303.890"/>
<path d="M-724.640 310.330L-733.000 308.150"/>
<path d="M-724.560 320.230L-724.640 310.330"/>
<path d="M-737.240 319.010L-724.560 320.230"/>
<path d="M-748.580 320.150L-737.240 319.010"/>
<path d="M-755.560 321.590L-748.580 320.150"/>
<path d="M-760.480 324.430L-755.560 321.590"/>
<path d="M-760.880 361.910L-760.480 324.430"/>
<path d="M-767.120 359.590L-760.880 361.910"/>
<path d="M-769.300 359.950L-767.120 359.590"/>
<path d="M-769.500 383.070L-769.300 359.950"/>
<path d="M-769.500 383.070L-778.040 379.970"/>
<path d="M-778.040 379.970L-800.500 378.790"/>
<path d="M-777.980 383.030L-769.500 383.070"/>
<path d="M-790.860 384.050L-777.980 383.030"/>
<path d="M-802.520 384.170L-790.860 384.050"/>
<path d="M-814.280 385.950L-802.520 384.170"/>
<path d="M-821.340 390.610L-814.280 385.950"/>
<path d="M-822.540 391.710L-821.340 390.610"/>
<path d="M-830.660 393.210L-822.540 391.710"/>
<path d="M-839.240 394.830L-830.660 393.210"/>
<path d="M-842.580 394.270L-839.240 394.830"/>
<path d="M-849.000 394.470L-842.580 394.270"/>
<path d="M-856.300 397.250L-849.000 394.470"/>
<path d="M-868.000 396.350L-856.300 397.250"/>
<path d="M-878.860 405.690L-868.000 396.350"/>
<path d="M-884.600 415.490L-878.860 405.690"/>
<path d="M-902.620 444.870L-884.600 415.490"/>
<path d="M-914.880 447.890L-902.620 444.870"/>
<path d="M-923.900 462.990L-914.880 447.890"/>
<path d="M-923.900 462.990L-938.820 467.550"/>
<path d="M-938.820 467.550L-966.800 467.550"/>
<path d="M-934.400 464.210L-923.900 462.990"/>
<path d="M-945.960 458.410L-934.400 464.210"/>
<path d="M-954.460 456.230L-945.960 458.410"/>
<path d="M-966.800 458.550L-954.460 456.230"/>
<path d="M-974.000 462.710L-966.800 458.550"/>
<path d="M-988.220 465.130L-974.000 462.710"/>
<path d="M-995.660 472.110L-988.220 465.130"/>
<path d="M-998.200 472.730L-995.660 472.110"/>
<path d="M-1016.340 467.630L-998.200 472.730"/>
<path d="M-1027.960 464.830L-1016.340 467.630"/>
<path d="M-1027.960 464.830L-1027.960 471.870"/>
<path d="M-1027.960 471.870L-1030.460 471.610"/>
<path d="M-1030.460 471.610L-1035.520 469.570"/>
<path d="M-1035.520 469.570L-1035.520 489.850"/>
<path d="M-1035.520 489.850L-1048.100 487.170"/>
<path d="M-1048.100 487.170L-1056.180 487.450"/>
<path d="M-1056.180 487.450L-1061.060 492.150"/>
<path d="M-1061.060 492.150L-1072.540 492.150"/>
<path d="M-1072.540 492.150L-1074.000 496.370"/>
<path d="M-1074.000 496.370L-1085.880 496.590"/>
<path d="M-1085.880 496.590L-1100.700 497.870"/>
<path d="M-1074.000 496.370L-1079.940 498.310"/>
<path d="M-1079.940 498.310L-1079.940 518.050"/>
<path d="M-1079.940 518.050L-1085.260 510.750"/>
<path d="M-1085.260 510.750L-1102.580 509.830"/>
<path d="M-1102.580 509.830L-1105.120 512.470"/>
<path d="M-1105.120 512.470L-1120.560 511.930"/>
<path d="M-1030.900 464.610L-1027.960 464.830"/>
<path d="M-1046.660 464.190L-1030.900 464.610"/>
<path d="M-1052.940 467.530L-1046.660 464.190"/>
<path d="M-1060.700 467.750L-1052.940 467.530"/>
<path d="M-1064.980 468.490L-1060.700 467.750"/>
<path d="M-1068.340 471.870L-1064.980 468.490"/>
<path d="M-1072.380 472.270L-1068.340 471.870"/>
<path d="M-1075.400 474.390L-1072.380 472.270"/>
<path d="M-1081.660 478.430L-1075.400 474.390"/>
<path d="M-1087.820 483.430L-1081.660 478.430"/>
<path d="M-1098.280 485.990L-1087.820 483.430"/>
<path d="M-1113.680 492.730L-1098.280 485.990"/>
<path d="M-1119.920 497.650L-1113.680 492.730"/>
<path d="M-1123.000 494.990L-1119.920 497.650"/>
<path d="M-1146.180 495.950L-1123.000 494.990"/>
<path d="M-1149.360 500.630L-1146.180 495.950"/>
<path d="M-1258.400 -390.010L-1254.220 -385.850"/>
<path d="M-1254.220 -385.850L-1252.420 -376.570"/>
<path d="M-1252.420 -376.570L-1246.400 -372.030"/>
<path d="M-1246.400 -372.030L-1236.600 -371.850"/>
<path d="M-1236.600 -371.850L-1232.120 -368.830"/>
<path d="M-1232.120 -368.830L-1223.140 -366.430"/>
<path d="M-1357.600 -569.990L-1363.700 -569.910"/>
<path d="M-1348.920 -563.790L-1357.600 -569.990"/>
<path d="M-1349.080 -542.830L-1348.920 -563.790"/>
<path d="M-1349.500 -527.470L-1349.080 -542.830"/>
<path d="M-1349.820 -513.030L-1349.500 -527.470"/>
<path d="M-1350.200 -493.970L-1349.820 -513.030"/>
<path d="M-1359.060 -492.390L-1350.200 -493.970"/>
<path d="M-1371.600 -490.090L-1359.060 -492.390"/>
<path d="M-1380.860 -492.530L-1371.600 -490.090"/>
<path d="M-1383.320 -488.190L-1380.860 -492.530"/>
<path d="M-1389.380 -488.690L-1383.320 -488.190"/>
<path d="M-1394.580 -483.430L-1389.380 -488.690"/>
<path d="M-1402.140 -483.390L-1394.580 -483.430"/>
<path d="M-1407.460 -482.610L-1402.140 -483.390"/>
<path d="M-1415.060 -480.550L-1407.460 -482.610"/>
<path d="M-1427.900 -480.490L-1415.060 -480.550"/>
<path d="M-1454.800 -480.230L-1427.900 -480.490"/>
<path d="M-1457.080 -480.010L-1454.800 -480.230"/>
<path d="M-1465.040 -479.830L-1457.080 -480.010"/>
<path d="M-1470.660 -479.810L-1465.040 -479.830"/>
<path d="M-1474.540 -475.050L-1470.660 -479.810"/>
<path d="M-1476.900 -474.830L-1474.540 -475.050"/>
<path d="M-1481.020 -474.810L-1476.900 -474.830"/>
<path d="M-1490.080 -479.670L-1481.020 -474.810"/>
<path d="M-1492.400 -478.090L-1490.080 -479.670"/>
<path d="M-1492.480 -467.190L-1492.400 -478.090"/>
<path d="M-1495.020 -467.730L-1492.480 -467.190"/>
<path d="M-1505.260 -462.530L-1495.020 -467.730"/>
<path d="M-1516.320 -455.690L-1505.260 -462.530"/>
<path d="M-1531.860 -459.550L-1516.320 -455.690"/>
<path d="M-1539.160 -456.110L-1531.860 -459.550"/>
<path d="M-1548.400 -454.790L-1539.160 -456.110"/>
<path d="M-1548.400 -454.790L-1554.640 -454.790"/>
<path d="M-1553.400 -455.830L-1548.400 -454.790"/>
<path d="M-1553.480 -449.770L-1553.400 -455.830"/>
<path d="M-1566.820 -457.890L-1553.480 -449.770"/>
<path d="M-1584.820 -459.670L-1566.820 -457.890"/>
<path d="M-1587.040 -459.650L-1584.820 -459.670"/>
<path d="M-1586.800 -433.390L-1587.040 -459.650"/>
<path d="M-1585.280 -439.130L-1586.800 -433.390"/>
<path d="M-1574.660 -436.410L-1585.280 -439.130"/>
<path d="M-1568.460 -434.030L-1574.660 -436.410"/>
<path d="M-1568.400 -429.170L-1568.460 -434.030"/>
<path d="M-1567.180 -428.810L-1568.400 -429.170"/>
<path d="M-1563.760 -429.210L-1567.180 -428.810"/>
<path d="M-1556.460 -429.050L-1563.760 -429.210"/>
<path d="M-1551.120 -431.270L-1556.460 -429.050"/>
<path d="M-1546.060 -430.270L-1551.120 -431.270"/>
<path d="M-1540.700 -432.390L-1546.060 -430.270"/>
<path d="M-1540.600 -419.730L-1540.700 -432.390"/>
<path d="M-1535.620 -419.710L-1540.600 -419.730"/>
<path d="M-1528.880 -419.670L-1535.620 -419.710"/>
<path d="M-1525.360 -414.190L-1528.880 -419.670"/>
<path d="M-1517.960 -414.790L-1525.360 -414.190"/>
<path d="M-1513.540 -413.670L-1517.960 -414.790"/>
<path d="M-1505.560 -413.790L-1513.540 -413.670"/>
<path d="M-1505.560 -413.790L-1499.960 -419.570"/>
<path d="M-1501.480 -416.050L-1505.560 -413.790"/>
<path d="M-1497.220 -415.730L-1501.480 -416.050"/>
<path d="M-1495.760 -414.370L-1497.220 -415.730"/>
<path d="M-1491.000 -413.590L-1495.760 -414.370"/>
<path d="M-1488.280 -413.610L-1491.000 -413.590"/>
<path d="M-1482.820 -413.490L-1488.280 -413.610"/>
<path d="M-1474.780 -415.610L-1482.820 -413.490"/>
<path d="M-1473.440 -414.250L-1474.780 -415.610"/>
<path d="M-1472.140 -413.050L-1473.440 -414.250"/>
<path d="M-1467.480 -413.030L-1472.140 -413.050"/>
<path d="M-1458.480 -411.090L-1467.480 -413.030"/>
<path d="M-1456.540 -410.310L-1458.480 -411.090"/>
<path d="M-1450.520 -409.230L-1456.540 -410.310"/>
<path d="M-1450.360 -389.770L-1450.520 -409.230"/>
<path d="M-1438.060 -393.670L-1450.360 -389.770"/>
<path d="M-1438.060 -393.670L-1429.440 -395.350"/>
<path d="M-1429.440 -395.350L-1429.440 -381.750"/>
<path d="M-1429.440 -381.750L-1422.640 -384.350"/>
<path d="M-1422.640 -384.350L-1416.460 -381.070"/>
<path d="M-1416.460 -381.070L-1408.760 -381.070"/>
<path d="M-1408.760 -381.070L-1401.580 -379.410"/>
<path d="M-1401.580 -379.410L-1393.600 -376.010"/>
<path d="M-1393.600 -376.010L-1386.480 -363.650"/>
<path d="M-1386.480 -363.650L-1383.620 -362.250"/>
<path d="M-1383.620 -362.250L-1383.620 -344.590"/>
<path d="M-1383.620 -344.590L-1379.680 -343.310"/>
<path d="M-1379.680 -343.310L-1369.660 -337.990"/>
<path d="M-1369.660 -337.990L-1364.340 -338.930"/>
<path d="M-1364.340 -338.930L-1364.340 -313.730"/>
<path d="M-1364.340 -313.730L-1360.200 -316.630"/>
<path d="M-1360.200 -316.630L-1360.200 -296.130"/>
<path d="M-1360.200 -296.130L-1358.140 -296.490"/>
<path d="M-1358.140 -296.490L-1349.680 -292.170"/>
<path d="M-1349.680 -292.170L-1342.280 -291.010"/>
<path d="M-1342.280 -291.010L-1340.040 -291.550"/>
<path d="M-1340.040 -291.550L-1337.040 -290.810"/>
<path d="M-1337.040 -290.810L-1334.140 -289.450"/>
<path d="M-1334.140 -289.450L-1330.440 -289.450"/>
<path d="M-1330.440 -289.450L-1327.360 -287.610"/>
<path d="M-1327.360 -287.610L-1320.960 -287.150"/>
<path d="M-1320.960 -287.150L-1319.020 -287.950"/>
<path d="M-1319.020 -287.950L-1314.340 -287.950"/>
<path d="M-1314.340 -287.950L-1311.460 -286.790"/>
<path d="M-1311.460 -286.790L-1311.460 -256.170"/>
<path d="M-1311.460 -256.170L-1304.480 -256.650"/>
<path d="M-1304.480 -256.650L-1304.480 -236.650"/>
<path d="M-1304.480 -236.650L-1301.520 -237.890"/>
<path d="M-1301.520 -237.890L-1294.420 -237.890"/>
<path d="M-1294.420 -237.890L-1283.520 -237.890"/>
<path d="M-1283.520 -237.890L-1281.980 -237.890"/>
<path d="M-1281.980 -237.890L-1279.440 -236.310"/>
<path d="M-1279.440 -236.310L-1268.460 -235.730"/>
<path d="M-1268.460 -235.730L-1263.620 -232.710"/>
<path d="M-1263.620 -232.710L-1261.540 -232.490"/>
<path d="M-1261.540 -232.490L-1255.480 -226.230"/>
<path d="M-1255.480 -226.230L-1246.060 -222.810"/>
<path d="M-1255.480 -226.230L-1251.480 -225.950"/>
<path d="M-1432.860 -392.450L-1438.060 -393.670"/>
<path d="M-1444.740 -393.230L-1432.860 -392.450"/>
<path d="M-1448.920 -393.650L-1444.740 -393.230"/>
<path d="M-1455.640 -392.790L-1448.920 -393.650"/>
<path d="M-1465.000 -385.690L-1455.640 -392.790"/>
<path d="M-1465.000 -385.690L-1468.700 -385.830"/>
<path d="M-1468.700 -385.830L-1479.420 -383.150"/>
<path d="M-1479.420 -383.150L-1484.620 -381.650"/>
<path d="M-1471.580 -389.830L-1465.000 -385.690"/>
<path d="M-1480.660 -386.690L-1471.580 -389.830"/>
<path d="M-1484.940 -384.530L-1480.660 -386.690"/>
<path d="M-1488.080 -386.950L-1484.940 -384.530"/>
<path d="M-1491.340 -386.410L-1488.080 -386.950"/>
<path d="M-1503.380 -383.990L-1491.340 -386.410"/>
<path d="M-1506.780 -383.790L-1503.380 -383.990"/>
<path d="M-1511.160 -379.110L-1506.780 -383.790"/>
<path d="M-1513.320 -373.850L-1511.160 -379.110"/>
<path d="M-1520.740 -370.510L-1513.320 -373.850"/>
<path d="M-1524.340 -367.070L-1520.740 -370.510"/>
<path d="M-1531.560 -363.030L-1524.340 -367.070"/>
<path d="M-1535.320 -361.990L-1531.560 -363.030"/>
<path d="M-1538.940 -360.850L-1535.320 -361.990"/>
<path d="M-1546.200 -355.290L-1538.940 -360.850"/>
<path d="M-1548.440 -351.010L-1546.200 -355.290"/>
<path d="M-1564.460 -341.030L-1548.440 -351.010"/>
<path d="M-1564.460 -341.030L-1569.600 -335.310"/>
<path d="M-1569.600 -335.310L-1585.380 -320.590"/>
<path d="M-1585.380 -320.590L-1594.600 -318.110"/>
<path d="M-1594.600 -318.110L-1598.840 -314.010"/>
<path d="M-1598.840 -314.010L-1606.340 -301.510"/>
<path d="M-1606.340 -301.510L-1609.580 -298.690"/>
<path d="M-1609.580 -298.690L-1616.600 -308.370"/>
<path d="M-1616.600 -308.370L-1622.540 -336.290"/>
<path d="M-1622.540 -336.290L-1634.040 -331.650"/>
<path d="M-1634.040 -331.650L-1634.040 -344.410"/>
<path d="M-1634.040 -344.410L-1637.460 -346.070"/>
<path d="M-1637.460 -346.070L-1641.460 -348.190"/>
<path d="M-1641.460 -348.190L-1644.380 -351.210"/>
<path d="M-1644.380 -351.210L-1651.280 -351.810"/>
<path d="M-1564.460 -341.030L-1570.000 -345.850"/>
<path d="M-1570.000 -345.850L-1581.760 -344.830"/>
<path d="M-1564.460 -341.030L-1570.800 -343.850"/>
<path d="M-1570.800 -343.850L-1563.700 -333.330"/>
<path d="M-1563.700 -333.330L-1557.340 -326.010"/>
<path d="M-1557.340 -326.010L-1553.380 -316.190"/>
<path d="M-1553.380 -316.190L-1547.040 -316.530"/>
<path d="M-1547.040 -316.530L-1543.780 -312.350"/>
<path d="M-1543.780 -312.350L-1537.660 -299.190"/>
<path d="M-1537.660 -299.190L-1531.260 -279.510"/>
<path d="M-1531.260 -279.510L-1525.420 -280.770"/>
<path d="M-1525.420 -280.770L-1511.840 -283.650"/>
<path d="M-1531.260 -279.510L-1521.600 -258.750"/>
<path d="M-1521.600 -258.750L-1519.120 -257.590"/>
<path d="M-1519.120 -257.590L-1532.020 -245.990"/>
<path d="M-1519.120 -257.590L-1514.080 -235.750"/>
<path d="M-1514.080 -235.750L-1512.040 -229.150"/>
<path d="M-1514.080 -235.750L-1506.240 -223.210"/>
<path d="M-1506.240 -223.210L-1512.940 -211.610"/>
<path d="M-1506.240 -223.210L-1499.000 -219.830"/>
<path d="M-1499.000 -219.830L-1489.420 -208.810"/>
<path d="M-1489.420 -208.810L-1476.780 -195.730"/>
<path d="M-1566.740 -340.390L-1564.460 -341.030"/>
<path d="M-1575.700 -326.070L-1566.740 -340.390"/>
<path d="M-1589.520 -318.910L-1575.700 -326.070"/>
<path d="M-1594.880 -316.930L-1589.520 -318.910"/>
<path d="M-1599.180 -311.470L-1594.880 -316.930"/>
<path d="M-1609.520 -302.290L-1599.180 -311.470"/>
<path d="M-1616.940 -301.870L-1609.520 -302.290"/>
<path d="M-1622.960 -290.150L-1616.940 -301.870"/>
<path d="M-1626.900 -294.650L-1622.960 -290.150"/>
<path d="M-1631.980 -292.530L-1626.900 -294.650"/>
<path d="M-1633.760 -284.550L-1631.980 -292.530"/>
<path d="M-1636.000 -276.090L-1633.760 -284.550"/>
<path d="M-1640.080 -274.190L-1636.000 -276.090"/>
<path d="M-1644.520 -274.490L-1640.080 -274.190"/>
<path d="M-1644.960 -236.230L-1644.520 -274.490"/>
<path d="M-1639.080 -238.090L-1644.960 -236.230"/>
<path d="M-1639.080 -238.090L-1632.120 -256.190"/>
<path d="M-1632.120 -256.190L-1627.320 -256.110"/>
<path d="M-1627.320 -256.110L-1624.200 -255.390"/>
<path d="M-1624.200 -255.390L-1624.200 -267.590"/>
<path d="M-1624.200 -267.590L-1618.300 -262.970"/>
<path d="M-1618.300 -262.970L-1614.880 -259.050"/>
<path d="M-1632.540 -245.410L-1639.080 -238.090"/>
<path d="M-1628.420 -241.330L-1632.540 -245.410"/>
<path d="M-1621.440 -236.290L-1628.420 -241.330"/>
<path d="M-1629.560 -239.730L-1621.440 -236.290"/>
<path d="M-1634.800 -243.170L-1629.560 -239.730"/>
<path d="M-1643.180 -231.750L-1634.800 -243.170"/>
<path d="M-1655.440 -220.690L-1643.180 -231.750"/>
<path d="M-1668.640 -218.750L-1655.440 -220.690"/>
<path d="M-1674.660 -216.850L-1668.640 -218.750"/>
<path d="M-1676.440 -216.110L-1674.660 -216.850"/>
<path d="M-1676.840 -179.450L-1676.440 -216.110"/>
<path d="M-1677.560 -129.750L-1676.840 -179.450"/>
<path d="M-1659.040 -131.230L-1677.560 -129.750"/>
<path d="M-1643.060 -142.870L-1659.040 -131.230"/>
<path d="M-1633.380 -135.930L-1643.060 -142.870"/>
<path d="M-1626.440 -131.810L-1633.380 -135.930"/>
<path d="M-1614.260 -128.510L-1626.440 -131.810"/>
<path d="M-1604.640 -103.790L-1614.260 -128.510"/>
<path d="M-1587.260 -77.230L-1604.640 -103.790"/>
<path d="M-1577.400 -71.730L-1587.260 -77.230"/>
<path d="M-1571.300 -76.550L-1577.400 -71.730"/>
<path d="M-1562.580 -79.810L-1571.300 -76.550"/>
<path d="M-1543.260 -85.470L-1562.580 -79.810"/>
<path d="M-1528.780 -82.870L-1543.260 -85.470"/>
<path d="M-1519.720 -79.150L-1528.780 -82.870"/>
<path d="M-1518.080 -69.490L-1519.720 -79.150"/>
<path d="M-1515.980 -66.450L-1518.080 -69.490"/>
<path d="M-1512.000 -66.090L-1515.980 -66.450"/>
<path d="M-1508.600 -58.670L-1512.000 -66.090"/>
<path d="M-1504.260 -59.410L-1508.600 -58.670"/>
<path d="M-1500.280 -59.190L-1504.260 -59.410"/>
<path d="M-1492.820 -58.630L-1500.280 -59.190"/>
<path d="M-1491.680 -42.630L-1492.820 -58.630"/>
<path d="M-1486.840 -44.350L-1491.680 -42.630"/>
<path d="M-1469.280 -36.510L-1486.840 -44.350"/>
<path d="M-1466.960 -36.410L-1469.280 -36.510"/>
<path d="M-1441.000 -33.970L-1466.960 -36.410"/>
<path d="M-1440.860 -14.510L-1441.000 -33.970"/>
<path d="M-1433.280 -14.470L-1440.860 -14.510"/>
<path d="M-1432.000 52.790L-1433.280 -14.470"/>
<path d="M-1415.000 45.490L-1432.000 52.790"/>
<path d="M-1404.280 33.390L-1415.000 45.490"/>
<path d="M-1395.040 33.430L-1404.280 33.390"/>
<path d="M-1376.560 54.790L-1395.040 33.430"/>
<path d="M-1369.680 69.590L-1376.560 54.790"/>
<path d="M-1352.880 67.970L-1369.680 69.590"/>
<path d="M-1349.460 72.830L-1352.880 67.970"/>
<path d="M-1346.040 75.990L-1349.460 72.830"/>
<path d="M-1343.940 84.330L-1346.040 75.990"/>
<path d="M-1343.860 97.210L-1343.940 84.330"/>
<path d="M-1342.300 102.230L-1343.860 97.210"/>
<path d="M-1341.020 106.810L-1342.300 102.230"/>
<path d="M-1338.080 107.850L-1341.020 106.810"/>
<path d="M-1329.500 109.390L-1338.080 107.850"/>
<path d="M-1325.280 111.130L-1329.500 109.390"/>
<path d="M-1318.920 108.350L-1325.280 111.130"/>
<path d="M-1318.400 149.210L-1318.920 108.350"/>
<path d="M-1299.900 200.010L-1318.400 149.210"/>
<path d="M-1299.820 208.270L-1299.900 200.010"/>
<path d="M-1298.760 269.930L-1299.820 208.270"/>
<path d="M-1298.760 269.930L-1285.980 263.430"/>
<path d="M-1285.980 263.430L-1262.980 250.670"/>
<path d="M-1262.980 250.670L-1259.220 258.390"/>
<path d="M-1259.220 258.390L-1254.920 258.910"/>
<path d="M-1254.920 258.910L-1244.760 249.110"/>
<path d="M-1244.760 249.110L-1234.120 240.170"/>
<path d="M-1234.120 240.170L-1229.780 237.670"/>
<path d="M-1229.780 237.670L-1223.160 236.610"/>
<path d="M-1286.060 269.990L-1298.760 269.930"/>
<path d="M-1282.680 274.090L-1286.060 269.990"/>
<path d="M-1278.780 276.390L-1282.680 274.090"/>
<path d="M-1275.620 279.570L-1278.780 276.390"/>
<path d="M-1272.500 300.370L-1275.620 279.570"/>
<path d="M-1259.500 302.070L-1272.500 300.370"/>
<path d="M-1242.540 307.790L-1259.500 302.070"/>
<path d="M-1224.580 317.270L-1242.540 307.790"/>
<path d="M-1211.420 320.930L-1224.580 317.270"/>
<path d="M-1206.860 320.230L-1211.420 320.930"/>
<path d="M-1644.520 -274.490L-1653.540 -281.290"/>
<path d="M-1653.540 -281.290L-1657.660 -280.990"/>
<path d="M-1657.660 -280.990L-1664.800 -281.750"/>
<path d="M-1664.800 -281.750L-1666.520 -278.990"/>
<path d="M-1666.520 -278.990L-1669.160 -278.330"/>
<path d="M-1669.160 -278.330L-1671.500 -276.810"/>
<path d="M-1671.500 -276.810L-1677.680 -275.850"/>
<path d="M-1677.680 -275.850L-1685.380 -276.650"/>
<path d="M-1685.380 -276.650L-1685.380 -259.530"/>
<path d="M-1685.380 -259.530L-1691.760 -259.530"/>
<path d="M-1685.380 -259.530L-1694.380 -259.530"/>
<path d="M-1685.380 -259.530L-1700.260 -259.530"/>
<path d="M-1653.540 -281.290L-1657.780 -281.950"/>
<path d="M-1657.780 -281.950L-1662.140 -281.730"/>
<path d="M-1662.140 -281.730L-1662.140 -276.330"/>
<path d="M-1662.140 -276.330L-1666.320 -275.030"/>
<path d="M-1666.320 -275.030L-1672.580 -274.490"/>
<path d="M-1672.580 -274.490L-1676.220 -273.450"/>
<path d="M-1676.220 -273.450L-1682.920 -273.210"/>
<path d="M-1682.920 -273.210L-1686.620 -272.290"/>
<path d="M-1686.620 -272.290L-1692.680 -272.190"/>
<path d="M-1692.680 -272.190L-1692.680 -259.990"/>
<path d="M-1692.680 -259.990L-1696.740 -259.930"/>
<path d="M-1696.740 -259.930L-1696.740 -274.450"/>
<path d="M-1696.740 -274.450L-1690.140 -281.490"/>
<path d="M-1690.140 -281.490L-1681.940 -284.150"/>
<path d="M-1681.940 -284.150L-1677.260 -288.230"/>
<path d="M-1677.260 -288.230L-1667.820 -293.890"/>
<path d="M-1667.820 -293.890L-1661.240 -299.410"/>
<path d="M-1661.240 -299.410L-1656.180 -306.370"/>
<path d="M-1545.520 -656.890L-1531.200 -656.130"/>
<path d="M-1531.200 -656.130L-1524.440 -655.070"/>
<path d="M-1524.440 -655.070L-1512.700 -653.210"/>
<path d="M-1512.700 -653.210L-1508.280 -665.350"/>
<path d="M-1508.280 -665.350L-1500.240 -664.210"/>
<path d="M-1500.240 -664.210L-1500.240 -676.590"/>
<path d="M-1500.240 -676.590L-1495.460 -678.330"/>
<path d="M-1495.460 -678.330L-1482.400 -681.830"/>
<path d="M-1482.400 -681.830L-1475.700 -691.410"/>
<path d="M-1475.700 -691.410L-1475.700 -708.650"/>
<path d="M-1475.700 -708.650L-1469.320 -707.070"/>
<path d="M-1469.320 -707.070L-1460.880 -703.310"/>
<path d="M-1460.880 -703.310L-1455.480 -707.390"/>
<path d="M-1455.480 -707.390L-1452.240 -709.730"/>
<path d="M-1452.240 -709.730L-1448.720 -711.290"/>
<path d="M-1448.720 -711.290L-1425.940 -735.730"/>
<path d="M-1425.940 -735.730L-1423.380 -741.790"/>
<path d="M-1423.380 -741.790L-1415.080 -747.810"/>
<path d="M-1415.080 -747.810L-1407.880 -748.190"/>
<path d="M-1407.880 -748.190L-1404.820 -748.950"/>
<path d="M-1404.820 -748.950L-1399.160 -751.250"/>
<path d="M-1399.160 -751.250L-1395.080 -752.570"/>
<path d="M-1395.080 -752.570L-1389.260 -756.510"/>
<path d="M-1389.260 -756.510L-1386.020 -753.810"/>
<path d="M-1386.020 -753.810L-1382.980 -752.110"/>
<path d="M-1382.980 -752.110L-1374.220 -753.050"/>
<path d="M-1374.220 -753.050L-1368.180 -753.350"/>
<path d="M-1368.180 -753.350L-1360.400 -762.330"/>
<path d="M-1360.400 -762.330L-1357.620 -762.570"/>
<path d="M-1357.620 -762.570L-1354.920 -763.890"/>
<path d="M-1354.920 -763.890L-1353.560 -764.830"/>
<path d="M-1353.560 -764.830L-1349.560 -762.810"/>
<path d="M-1349.560 -762.810L-1348.040 -761.390"/>
<path d="M-1348.040 -761.390L-1345.840 -760.910"/>
<path d="M-1345.840 -760.910L-1339.900 -764.930"/>
<path d="M-1339.900 -764.930L-1334.900 -762.490"/>
<path d="M-1334.900 -762.490L-1328.780 -768.830"/>
<path d="M-1328.780 -768.830L-1318.100 -772.710"/>
<path d="M-1318.100 -772.710L-1308.680 -775.770"/>
<path d="M-1500.240 -676.590L-1500.240 -667.390"/>
<path d="M-1500.240 -667.390L-1495.760 -663.630"/>
<path d="M-1495.760 -663.630L-1490.400 -663.630"/>
<path d="M-1490.400 -663.630L-1487.400 -663.630"/>
<path d="M-1487.400 -663.630L-1487.400 -650.530"/>
<path d="M-1487.400 -650.530L-1483.360 -652.010"/>
<path d="M-1483.360 -652.010L-1476.900 -652.010"/>
<path d="M-1476.900 -652.010L-1476.900 -665.130"/>
<path d="M-1476.900 -665.130L-1470.760 -663.710"/>
<path d="M-1470.760 -663.710L-1457.700 -670.650"/>
<path d="M-1457.700 -670.650L-1454.980 -677.070"/>
<path d="M-1454.980 -677.070L-1447.180 -676.390"/>
<path d="M-1495.760 -663.630L-1492.040 -656.010"/>
<path d="M-1492.040 -656.010L-1487.760 -650.550"/>
<path d="M-1487.760 -650.550L-1487.760 -617.750"/>
<path d="M-1500.240 -676.590L-1493.580 -678.630"/>
<path d="M-1493.580 -678.630L-1485.700 -678.490"/>
<path d="M-1485.700 -678.490L-1481.700 -690.150"/>
<path d="M-1481.700 -690.150L-1466.380 -696.350"/>
<path d="M-1466.380 -696.350L-1461.060 -702.690"/>
<path d="M-1461.060 -702.690L-1456.780 -705.370"/>
<path d="M-1466.380 -696.350L-1458.440 -696.630"/>
<path d="M-1458.440 -696.630L-1452.460 -693.310"/>
<path d="M-1452.460 -693.310L-1445.320 -696.930"/>
</g>
</g>
</svg>
