<?xml version="1.0" encoding="ISO-8859-1"?>
<svg version="1.1" baseProfile="full"
xmlns="http://www.w3.org/2000/svg"
xmlns:xlink="http://www.w3.org/1999/xlink"
xmlns:ev="http://www.w3.org/2001/xml-events"
width="1360.640mm" height="1937.520mm"
viewBox="0 0 1360.640 1937.520">
<g transform="translate(680.320 968.760)">
<g id="Legs" stroke="black" fill="none" stroke-width="0.4px">
<path d="M439.220 294.460L471.080 305.200L471.080 305.200L470.460 308.560L483.420 309.160L483.420 309.160L487.140 306.000L493.220 302.000L493.220 302.000L497.220 300.180L493.140 298.040L486.780 301.480L507.540 298.040L521.420 288.180L528.460 287.280L536.340 273.980L539.520 263.980L539.520 263.980L530.440 270.660L533.600 271.660L533.540 264.460L523.160 262.880L523.160 262.880L524.360 250.660L524.360 250.660L522.420 249.320L525.900 268.380L525.900 268.380L528.460 270.080"/>
<path d="M333.940 726.220L342.300 717.220L337.380 722.220L337.320 722.220L336.580 721.320L336.520 721.320L340.060 718.440L352.580 714.360L367.900 705.000L382.220 695.920L395.220 696.220L398.260 696.900L396.280 699.380L398.980 696.560L398.960 699.940L391.420 710.140L390.380 709.880L390.300 709.860L392.320 691.480L391.820 691.340L389.840 685.300L392.120 681.740L386.960 674.880L389.620 673.640L388.820 672.640L389.500 674.040L389.420 674.020L391.500 674.300L394.100 672.080L393.440 668.720L385.440 653.940L386.720 647.180L400.100 634.440L396.020 626.160L405.480 621.100L394.960 607.740L393.720 607.440L388.100 602.360L387.960 602.320L368.580 585.060L366.720 586.440L358.360 570.980L355.380 567.180L356.380 566.620L351.300 561.160L352.440 557.340L350.400 553.520L347.000 553.300L343.320 551.780L344.500 550.040L345.440 548.700L348.920 540.340L338.680 530.100L329.460 513.120L321.800 508.980L317.560 504.580L319.040 494.840L306.300 483.000L296.900 485.040L295.740 472.920L302.560 474.180L308.100 482.120L300.740 467.940L295.720 450.100L295.020 449.920L294.620 449.820L296.320 449.320L301.720 446.680L303.000 459.820L302.460 447.560L309.120 442.500L313.920 444.600L318.780 438.080L312.520 434.980L311.360 431.040L316.200 426.640L310.420 427.800L309.980 427.700L314.380 427.160L314.060 423.100L311.940 422.360L310.160 422.500L315.220 422.140L313.420 425.660L318.660 422.720L325.360 425.900L332.340 418.260L336.220 420.120L337.380 414.900L343.260 402.380L343.020 393.420L344.220 395.360L359.500 390.600L360.580 388.620L365.000 382.880L368.620 383.080L371.980 381.400L372.160 374.180L369.240 372.060L371.220 364.920L370.240 362.980L368.640 358.900L367.500 355.700L374.800 346.140L375.540 349.320L375.820 346.200L371.560 345.800L367.800 337.520L374.340 338.240L375.220 328.920L381.940 328.700L385.060 325.940L394.340 333.360L390.920 337.280L388.200 325.280L388.060 325.240L387.360 319.260L385.520 318.620L382.940 310.000L385.760 306.300L385.000 305.240L383.660 305.120L383.560 297.080L382.560 291.720L380.020 290.760L380.540 286.020L379.860 284.740L381.060 280.640L385.100 280.120L382.680 272.520L381.860 268.160L374.540 267.100L371.380 265.580L373.940 259.340L369.120 258.040L369.040 258.020L367.320 252.940L369.480 248.360L367.440 243.420L364.620 236.680L364.700 233.260L364.000 232.280L363.940 232.280L360.800 226.920L366.300 217.840L367.040 216.520L366.800 216.460L368.860 217.300L375.260 234.120L385.700 242.440L385.640 242.420L390.620 241.880L389.060 232.780L389.100 225.480L404.220 221.860L415.020 219.500L405.060 221.900L402.600 221.280L402.520 221.260L403.420 219.120L412.480 218.780L416.580 218.920L416.440 221.280L419.300 223.900L424.800 225.080L428.440 232.160L427.920 234.380L454.780 232.780L456.340 245.520L452.200 251.900L451.940 257.200L447.820 263.540L448.480 268.700L442.560 270.000L444.040 271.960L441.960 280.980L442.380 293.520L433.720 291.660L433.720 291.280L433.680 290.960L433.520 290.580L433.360 290.560L435.180 299.040L439.220 294.460"/>
<path d="M333.940 726.220L322.880 701.600L317.720 680.300L304.460 668.140L295.720 619.940L299.200 605.960L303.860 582.820L319.640 584.500L330.180 606.040L323.240 581.460L313.340 570.080L288.660 543.460L275.400 506.940L265.220 498.180L277.380 501.640"/>
<path d="M179.320 701.000L184.740 704.820L191.860 716.640L197.980 736.180L195.660 736.920L198.720 739.680L196.220 743.760L207.640 758.720L207.620 771.040L206.620 790.920L209.220 796.060L205.020 812.700L204.080 820.000L214.820 828.360L221.900 875.120L232.120 882.020L241.660 895.020L252.300 901.400L247.720 898.360L258.580 900.520L265.460 912.840L266.640 919.060L271.860 924.300L275.440 923.940L280.440 916.320L291.580 917.160L300.540 920.820L304.320 918.060L326.600 904.000L324.800 910.540L325.180 910.260L325.320 910.160L325.760 909.820L324.680 913.760L319.760 913.720L314.440 910.940L308.440 911.640L304.840 901.880L306.660 904.360L293.220 892.300L290.720 885.640L284.040 873.200L287.900 855.900L277.220 842.540L263.600 842.580L257.200 846.620L252.020 845.340L245.160 825.360L241.600 816.760L244.660 796.680L272.140 781.720L288.880 759.660L308.820 745.520L311.860 741.880L333.940 726.220"/>
<path d="M211.200 643.180L209.500 640.500L203.200 618.200L202.600 621.220L203.580 615.040L197.220 601.020L197.200 590.560L202.940 592.800L201.520 586.700L204.440 587.400L207.380 584.620L207.620 581.260L208.880 577.180L214.120 571.460L215.100 565.260L209.080 550.680L208.460 547.820L211.260 536.540L207.340 518.820L205.720 516.860L206.760 509.500L205.700 495.320L206.320 488.140L201.240 476.900L198.740 468.780L197.700 457.260L197.500 446.760L195.140 438.060L202.740 428.440L200.400 410.580L195.800 407.120L190.500 397.660L195.100 386.900L196.620 379.760L202.580 377.340L202.220 380.660L207.080 387.720L203.660 395.080L204.680 395.720L204.040 402.760L211.660 411.720L215.940 422.560L208.920 433.360L214.980 439.300L214.820 439.420L214.720 441.580L217.520 447.160L217.200 447.420L220.180 443.500L225.240 448.280L232.880 439.900L244.920 443.900L244.860 443.940L247.960 451.720L247.340 454.280L247.600 462.480L247.700 468.720L256.660 474.420L256.540 474.500L257.780 477.100L257.380 481.440L257.560 486.900L271.040 493.320L277.420 501.620L277.380 501.640"/>
<path d="M211.200 643.180L207.740 644.800L203.620 641.080L205.080 645.560L200.980 647.400L197.040 650.720L187.220 647.740L180.960 633.500L175.020 631.800L170.420 632.880L164.420 625.180L155.440 616.180L151.460 619.320L146.020 619.420L128.040 600.040L122.600 581.900L120.760 571.260L114.700 535.060L97.440 502.060L86.380 521.540L66.960 544.280L59.000 541.860L33.520 529.420L24.420 524.160L-26.220 493.640L-74.840 464.320L-73.700 453.900L-57.580 453.940L-57.140 434.500L-51.140 419.920L-63.920 411.600L-74.960 406.680L-74.280 397.360L-45.520 420.540L-58.620 425.620L-62.600 443.320L-80.960 412.360L-74.580 404.260L-76.440 390.640L-109.780 382.400L-110.400 360.920L-114.140 372.040L-107.300 384.220L-83.780 386.300L-75.940 395.560L-75.200 400.640L-82.860 410.560L-68.440 434.200L-63.860 424.000L-50.660 417.020L-78.620 389.920L-71.920 400.140L-68.060 404.540L-53.880 409.960L-59.840 419.620L-64.860 436.500L-61.780 451.860L-77.320 452.740L-80.140 464.360L-71.780 466.900L-38.680 485.900L-22.700 490.160L-7.580 500.320L29.860 515.400L37.720 521.980L38.580 525.840L47.520 528.900L54.660 534.860L68.540 538.840L87.880 518.380L96.140 498.260L109.260 510.400L118.160 544.620L124.660 568.180L126.860 576.840L126.280 581.740L129.480 592.660L133.340 602.600L134.720 608.460L147.380 617.940L141.840 627.280L148.320 634.940L154.200 642.420L156.500 642.380L156.020 647.660L160.520 657.180L158.320 660.240L168.020 663.380L168.040 663.400L169.180 665.500L162.300 656.380L162.920 667.080L169.700 680.800L168.840 694.420L183.740 705.580L179.320 701.000"/>
<path d="M211.200 643.180L211.360 642.980L209.660 642.880L207.060 666.400L203.280 673.560L202.760 677.940L209.000 681.720L213.300 690.660L213.340 690.640L213.360 695.000L214.780 704.360L214.580 711.580L218.960 715.700L218.780 721.900L223.680 719.700L233.200 736.140L231.980 740.760L238.320 755.040L246.660 757.640L248.980 765.440L254.200 791.900L258.040 800.240L263.880 812.900L253.320 821.720L249.860 813.320L242.900 810.700L244.000 820.200L231.200 833.920L220.620 838.120L213.340 834.780L204.460 835.160L199.100 832.700L188.180 833.560L185.360 836.080L181.480 823.660L189.580 814.300L185.500 799.380L186.680 796.160L184.380 790.340L184.440 780.960L184.480 780.920L182.120 771.120L179.260 765.100L175.180 752.020L178.860 739.340L175.620 732.220L173.380 727.700L175.800 727.560L176.960 703.000L179.320 701.000"/>
<path d="M277.380 501.640L277.780 501.740L281.720 501.200L282.620 496.360L283.620 496.600L279.040 496.960L273.760 499.520L266.240 509.580L262.000 507.160L258.540 496.780L254.940 495.320L248.340 500.660L233.960 487.520L237.080 480.380L239.080 471.400L242.300 461.280L242.380 461.300L243.280 457.880L236.440 453.260L239.760 446.900L238.800 447.220L234.300 448.760L231.300 437.060L237.560 427.620L242.340 429.160L245.820 426.380L251.660 427.280L251.720 427.300L255.760 430.060L261.860 428.980L272.900 413.200L281.380 415.260L305.200 416.920L310.780 417.500L313.260 436.240L334.780 440.340L334.840 440.360L335.000 440.400L335.880 440.620L338.100 440.320L343.100 445.540L343.300 445.580L352.760 443.240L365.500 438.400L365.800 438.480L366.940 439.260L391.440 436.340L393.400 427.560L393.660 427.620L394.060 427.720L394.540 427.840L394.800 427.920L396.120 422.800L395.660 415.440L396.120 415.560L416.000 422.960L420.880 428.100L422.340 433.460L429.400 430.340L437.380 428.340L440.480 426.700L435.640 421.300L435.820 421.360L438.560 425.580L443.040 426.600L439.540 400.840L437.600 366.700L433.060 365.420L431.200 358.360L430.500 356.040L427.440 343.300L424.200 333.080L426.300 324.400L426.360 324.420L429.180 316.880L430.320 281.620L430.700 281.720L432.560 282.180L433.340 290.940L434.540 294.400L439.220 294.460"/>
<path d="M184.720 283.360L183.880 296.640L215.640 322.020L213.940 339.200L229.840 360.040L261.460 384.380L265.180 404.760L277.200 415.820L282.600 432.060L285.380 433.900L288.620 444.940L291.980 480.640L285.300 492.400L265.800 499.260L277.380 501.640"/>
<path d="M184.720 283.360L183.780 263.140L186.640 260.380L194.440 258.040L197.660 267.420L194.760 282.740L184.720 283.360"/>
<path d="M528.460 270.080L520.300 249.220L511.240 251.040L501.660 251.100L488.660 258.100L488.160 261.060L486.420 261.920L474.880 268.420L473.660 269.880L464.640 269.780L456.500 267.360L456.500 267.360L435.140 268.980"/>
<path d="M430.500 356.040L430.500 356.040"/>
<path d="M528.460 270.080L538.280 277.380L538.280 277.380L551.800 279.180L551.800 279.180L559.700 281.260L560.660 278.260L564.780 276.740L564.780 276.740L565.260 272.580L565.260 272.580L573.100 279.560L578.180 282.320L585.180 280.260L598.340 275.120L608.640 271.700"/>
<path d="M335.000 440.400L326.400 441.640L321.460 444.180L311.460 444.940L311.620 452.920L313.380 458.920L305.780 474.020L302.760 474.960L306.000 482.480L302.000 484.120L295.780 480.280"/>
<path d="M311.460 444.940L317.500 448.820"/>
<path d="M281.380 415.260L276.400 422.200L273.360 425.860L280.420 429.720L281.380 433.480L280.940 447.980"/>
<path d="M433.060 365.420L428.980 364.520L429.720 366.160L430.600 372.120L438.020 378.520L436.960 382.860L438.560 391.700"/>
<path d="M523.160 262.880L537.360 261.000L541.740 255.860L551.860 261.800L554.240 258.080L561.180 262.160L561.180 262.160L567.300 259.520L575.140 260.160L576.880 256.540L561.660 258.220L557.720 265.120L560.180 270.560L553.420 268.280"/>
<path d="M561.660 258.220L564.000 263.000L566.260 259.360"/>
<path d="M561.180 262.160L561.180 262.160L556.960 263.640L560.320 262.040L560.340 266.320L560.340 266.320"/>
<path d="M556.960 263.640L554.840 258.700L552.020 259.700L552.020 259.700L548.060 260.480L551.360 254.920L551.360 254.920L552.920 248.980L562.100 239.700L561.940 236.980L564.840 229.740"/>
<path d="M528.460 270.080L516.960 246.200"/>
<path d="M561.180 262.160L565.520 260.160L578.560 259.360L573.860 254.580L573.860 254.580L580.220 254.180L582.500 262.300L587.680 263.840L590.780 262.920L592.120 266.180L613.860 273.000L616.300 273.800L624.580 273.280L631.360 275.680L634.400 275.380L640.000 276.200L641.560 272.420L646.240 268.960L648.160 266.360L648.720 263.360L647.860 254.640L641.840 254.800L645.320 247.820L646.640 245.380L645.080 243.180L644.280 242.080L647.360 239.520L647.740 238.060L647.300 235.900L651.080 231.320L652.580 226.540L658.680 226.260L669.220 228.020L675.320 220.840"/>
<path d="M390.620 241.880L384.460 242.860"/>
<path d="M385.100 280.120L379.640 281.360"/>
<path d="M390.920 337.280L382.420 335.760L382.420 335.760L380.080 342.140L380.940 348.260L380.660 355.940L387.840 355.460L389.620 363.240L395.900 366.600L394.180 368.880L394.180 368.880L391.920 372.100L398.080 380.000L398.540 385.300L398.540 385.300L394.880 387.240L394.880 387.240L393.240 385.980L391.900 394.320L386.480 399.380L384.260 399.100L381.860 400.900L379.180 399.820L376.740 402.600L378.800 404.900L373.380 408.280L373.780 410.180L373.280 414.840L375.720 416.380L375.720 416.380L371.700 422.080L371.700 422.080L374.200 423.660L370.020 429.400L369.120 440.260L368.480 441.660L370.460 443.260L368.160 454.000L365.540 449.940L363.760 448.840L361.500 443.220L364.880 445.340"/>
<path d="M361.500 443.220L367.900 450.120"/>
<path d="M374.340 338.240L375.740 334.820L365.080 333.660L366.140 338.760"/>
<path d="M344.220 395.360L350.540 394.840L350.600 387.740L346.060 383.300L342.480 381.600L340.980 375.440L338.000 374.140L343.840 375.980L345.340 382.200L337.380 387.700L337.860 385.280L336.180 390.040L331.860 396.580L327.080 391.880"/>
<path d="M336.180 390.040L335.980 388.020"/>
<path d="M337.860 385.280L324.980 385.640"/>
<path d="M345.340 382.200L340.160 379.500L347.680 390.820"/>
<path d="M344.220 395.360L339.500 398.260L328.420 402.200"/>
<path d="M331.860 396.580L338.300 399.900L347.440 402.780L359.040 407.800"/>
<path d="M309.980 427.700L301.060 429.040L297.220 430.560L295.200 437.400L296.880 437.740L294.420 438.720L292.960 440.560L297.580 444.640L297.400 452.340L297.400 452.340L296.760 467.220"/>
<path d="M297.400 452.340L288.400 451.960"/>
<path d="M297.400 452.340L303.780 452.620"/>
<path d="M344.220 395.360L342.420 400.180L338.720 415.520L334.600 423.780L330.600 422.380L326.800 428.840L328.480 431.600L324.200 437.180L330.000 435.900L332.300 424.640L332.300 424.640L330.260 421.880L333.120 419.100L334.720 416.660L341.000 413.800"/>
<path d="M301.060 429.040L297.880 431.860L297.600 436.200L297.600 436.200L295.480 439.820L301.260 442.220L299.060 445.100L304.100 449.540L303.120 453.100L302.420 459.120L302.420 459.120L303.700 462.960L303.700 462.960L310.260 462.340L309.320 454.200L313.760 452.720L320.840 446.460L327.380 445.720L332.140 444.040"/>
<path d="M316.200 426.640L312.880 420.540L312.840 415.740L314.780 413.300L314.780 413.300L315.960 407.500L317.900 404.700"/>
<path d="M391.420 710.140L379.720 705.040L368.040 699.960"/>
<path d="M379.720 705.040L399.600 713.700"/>
<path d="M336.580 721.320L336.580 721.320L332.240 727.660"/>
<path d="M379.720 705.040L401.980 710.860L405.380 712.480L403.060 716.100L408.940 724.380L417.480 730.740L417.580 735.080L422.680 739.300"/>
<path d="M265.220 498.180L252.920 511.060"/>
<path d="M252.020 845.340L246.200 855.960L226.760 875.580L212.500 865.700"/>
<path d="M336.580 721.320L336.580 721.320L326.020 727.020L319.640 730.720L314.160 735.840L314.160 735.840L305.380 740.140"/>
<path d="M252.300 901.400L262.640 922.520L270.360 926.780L280.380 925.540L287.580 918.800L286.320 908.760"/>
<path d="M263.880 812.900L248.500 789.280"/>
<path d="M231.200 833.920L233.340 840.480L231.680 859.800L239.900 873.440L241.360 872.540L250.800 872.180L259.400 870.660L261.740 875.240L260.880 882.340L260.900 888.300L257.380 910.700L258.880 915.260L263.120 914.260L265.500 918.380L270.140 919.960L276.120 928.460"/>
<path d="M257.380 910.700L263.320 923.940"/>
<path d="M162.300 656.380L173.340 652.340L162.640 649.100L152.320 640.760L139.780 632.340"/>
<path d="M-110.400 360.920L-128.440 341.640L-115.120 327.780L-122.160 316.100L-120.620 301.140L-120.940 295.380L-128.560 290.640L-111.800 246.780L-106.720 236.760L-122.260 245.060L-125.720 246.120L-141.680 251.660L-156.780 242.980L-169.600 241.660L-207.500 269.300L-224.920 278.200L-246.240 263.860"/>
<path d="M263.880 812.900L276.180 831.740L287.400 833.500L300.160 836.420L305.260 844.540L309.000 846.280L309.320 852.220L329.040 872.560L327.440 861.380L341.700 861.840L350.300 858.000L351.360 869.840L349.960 873.140L350.940 880.080L371.240 881.460L381.100 874.000L386.220 868.300L392.940 862.220L410.340 873.460L410.520 882.860L411.240 878.700L418.900 875.880L418.820 875.460L418.820 875.460L419.880 879.640L425.760 888.040L423.340 890.840L422.160 895.620L422.160 895.620"/>
<path d="M231.680 859.800L234.220 870.760L233.200 882.300L232.000 893.800L232.900 889.900L237.780 898.360L242.980 903.380L242.640 909.980L248.580 919.140L248.580 919.140L255.700 923.940L268.320 938.980L267.580 924.900L273.880 926.720L276.540 925.940L283.520 926.800L291.320 934.600L295.820 936.420L301.400 942.000L303.600 940.500L309.340 939.080L316.520 945.100L323.000 950.520L320.920 957.320L331.640 963.760L333.360 958.760"/>
<path d="M242.640 909.980L241.820 916.540L242.460 928.560L242.460 928.560L255.700 892.160L257.080 872.600L255.780 857.780L253.100 844.080L253.820 823.480L233.320 795.260"/>
<path d="M-110.400 360.920L-106.600 356.080L-103.100 359.480L-89.040 367.260L-84.900 367.200L-79.960 361.320L-47.060 339.120L-41.620 332.160L-36.660 334.360L-25.840 334.000"/>
<path d="M-224.920 278.200L-214.880 266.200L-207.420 267.780L-198.020 258.000L-176.700 223.760L-183.160 213.840L-178.100 200.580L-171.800 189.180L-169.440 186.880L-173.520 170.620L-180.260 169.080L-194.420 163.960L-188.260 144.860L-184.120 136.340L-176.300 129.520L-176.220 124.120L-163.660 111.940L-164.840 95.380L-148.120 57.660L-135.140 48.540L-130.380 18.100L-124.620 1.300L-136.220 -32.180L-138.600 -49.000L-119.460 -47.020L-125.580 -73.340L-139.140 -91.920L-141.200 -148.060L-136.780 -156.040L-136.340 -184.340L-139.460 -203.840L-147.500 -219.540L-149.020 -229.100L-149.460 -241.940L-167.640 -273.400L-176.660 -266.100L-195.560 -271.520L-220.380 -283.100L-225.740 -289.720L-236.340 -292.180L-243.480 -295.500L-247.580 -295.000L-248.460 -287.800L-252.900 -282.120L-262.100 -290.120L-258.880 -296.440L-270.080 -298.020L-282.260 -303.680L-287.000 -302.420L-291.100 -300.140L-291.100 -300.140L-293.040 -304.680L-309.640 -302.640L-325.000 -311.860L-327.400 -310.180L-328.480 -312.620L-329.680 -313.640L-331.220 -316.000L-339.960 -335.620L-346.900 -361.560L-351.980 -375.500L-355.240 -389.660L-357.960 -396.360L-360.400 -410.160L-360.640 -417.460L-371.580 -464.840L-378.380 -513.180L-380.900 -525.080L-385.500 -541.120L-382.480 -556.700L-377.340 -585.880L-378.980 -601.520L-383.680 -616.900L-385.140 -628.800L-390.540 -645.440L-393.280 -649.200L-393.140 -651.740L-394.220 -666.900L-400.220 -684.340L-400.320 -690.580L-405.440 -714.620L-405.440 -714.620L-408.980 -734.700L-409.860 -759.940L-407.660 -761.100L-414.260 -808.040L-420.440 -822.600L-421.380 -849.340L-407.780 -869.500"/>
<path d="M381.100 874.000L367.260 888.340L374.000 886.540L380.580 889.880L396.660 882.040L398.180 883.860L397.800 880.800L399.240 870.640L398.740 867.160L389.420 853.840L388.620 842.400L377.480 832.720L375.440 829.340L365.100 834.380L355.440 819.520L346.620 814.220L346.620 814.220L341.080 797.140L333.660 793.020L333.120 788.720L331.000 784.340L328.260 768.820"/>
<path d="M209.660 642.880L205.960 656.640L193.620 658.380"/>
<path d="M418.900 875.880L418.900 875.880L418.100 883.460L418.500 890.740L415.140 895.180L416.420 897.320L414.940 902.840L415.200 904.560L415.940 909.300L418.080 913.300L418.080 913.300"/>
<path d="M-420.440 -822.600L-423.880 -825.800L-433.940 -826.680L-458.480 -819.180L-460.600 -816.040L-469.660 -800.360L-490.500 -818.500L-504.040 -835.820L-511.920 -847.960L-525.220 -866.940L-543.360 -858.860L-556.760 -868.980L-566.480 -868.300L-581.460 -879.560L-582.000 -890.140L-592.640 -886.280L-602.680 -875.120L-630.820 -871.660L-675.320 -877.920"/>
<path d="M182.120 771.120L188.520 770.000L194.900 762.400L196.960 760.020L194.340 738.680L195.440 728.240"/>
<path d="M-592.640 -886.280L-580.080 -899.280L-577.780 -912.320L-579.100 -937.600L-583.260 -963.760"/>
<path d="M-110.400 360.920L-118.940 355.380L-123.200 343.040L-120.340 319.820L-123.140 308.620L-121.460 299.980L-130.340 290.120L-126.480 273.440L-121.280 243.900L-116.140 236.560"/>
<path d="M-110.400 360.920L-122.200 344.060L-125.980 336.340L-115.900 342.140L-95.480 355.400L-91.800 345.280L-65.160 329.280L-54.020 316.900L-51.700 319.080L-47.240 319.000L-41.980 316.760L-28.500 320.120L-31.280 326.340L-34.320 332.600L-19.460 345.980"/>
<path d="M-54.020 316.900L-50.460 310.100L-64.700 302.680L-68.300 294.000L-77.360 292.320L-65.300 282.020L-58.740 268.880L-34.660 255.280L-8.740 240.620L11.540 263.580L16.900 266.600L21.540 276.320L21.900 279.120L21.900 279.120L11.060 293.740L12.660 293.640L16.900 300.060L13.180 305.100L8.080 303.200L1.440 306.360L0.960 311.300L-2.100 313.840L-5.700 317.480"/>
<path d="M13.180 305.100L13.180 305.100"/>
<path d="M214.980 439.300L221.480 433.760L225.540 455.860"/>
<path d="M197.500 446.760L199.920 461.480L196.200 489.220"/>
<path d="M211.200 643.180L211.200 643.180"/>
<path d="M208.460 547.820L208.460 547.820L207.740 550.200L209.900 554.780L209.900 554.780L218.560 563.920L218.900 571.980L217.660 576.700L219.740 588.000L221.180 587.840L224.720 599.180L226.880 613.840"/>
<path d="M221.180 587.840L219.780 593.620L219.780 593.620L219.200 588.340L226.420 572.580L224.060 571.640L228.200 556.780"/>
<path d="M277.200 415.820L279.600 423.500"/>
<path d="M277.200 415.820L285.060 430.380L289.720 445.280L286.480 466.720L278.880 486.920L267.180 516.440L274.620 514.100L276.200 504.820L270.040 512.020"/>
<path d="M267.180 516.440L252.620 521.280"/>
<path d="M274.620 514.100L283.940 514.200L279.580 512.200L286.440 515.500L308.720 511.820L312.860 525.020L307.240 555.020"/>
<path d="M308.720 511.820L318.180 499.100"/>
<path d="M312.860 525.020L317.780 520.840L319.880 515.560L329.480 501.660L337.740 495.800L347.400 463.440L343.760 453.120L341.820 439.960L346.880 433.180L349.620 425.860L354.940 420.480L356.080 413.800L358.340 406.660L356.820 399.740"/>
<path d="M337.740 495.800L344.260 497.740L343.440 489.040L352.460 484.760L352.460 484.760L355.660 486.660L348.020 480.760L350.100 487.440L350.100 487.440L346.220 491.680L346.020 483.640L348.260 484.180L348.260 484.180"/>
<path d="M355.660 486.660L355.940 483.240L355.940 483.240L364.700 486.020L368.220 474.940L368.220 474.940L368.220 474.940L377.660 490.400L376.900 491.240L381.540 504.440L390.140 503.920L395.740 510.740L395.740 510.740L399.160 521.080L402.840 523.520L410.540 540.480L410.860 537.640L416.740 539.860L417.800 551.140L422.220 556.520L422.220 556.520L427.460 562.060L434.040 573.280L435.040 572.760L444.240 564.940L444.960 557.540L438.620 553.160L441.500 544.100L436.500 527.080L439.480 496.800"/>
<path d="M186.640 260.380L178.820 254.780L176.780 248.260L136.080 208.100L130.280 203.120L134.680 206.400L127.500 188.060L122.060 163.280"/>
<path d="M136.080 208.100L133.440 187.640"/>
<path d="M176.780 248.260L161.240 247.820"/>
<path d="M261.460 384.380L256.540 360.020"/>
<path d="M134.680 206.400L131.860 218.080L128.060 212.320L117.600 207.320L117.600 207.320"/>
<path d="M11.060 293.740L7.660 290.260L10.800 299.180L14.240 303.840L15.000 291.880L15.000 291.880L8.840 301.480L4.220 310.320L9.340 315.560L8.340 320.940L9.900 323.720L7.960 338.240L6.120 351.960L6.000 364.080L0.420 356.760"/>
<path d="M127.500 188.060L127.360 165.600L111.640 171.120L108.940 147.060L108.800 124.720L106.260 97.700L85.980 63.140L83.900 47.060L82.620 25.160L70.800 30.280L27.420 1.440L21.540 -30.640L4.820 -30.820L-0.660 -27.060L-15.560 -20.620L-17.620 -42.500L-36.860 -48.620L-50.780 4.760L-63.360 46.860L-82.620 72.780L-79.100 69.460L-80.100 81.680L-84.500 98.520L-86.000 103.580L-91.160 106.980"/>
<path d="M-82.620 72.780L-135.500 87.320L-157.900 89.840L-167.020 118.540L-179.140 122.100L-202.120 103.740L-203.620 99.680L-205.560 86.580"/>
<path d="M82.620 25.160L104.380 17.940"/>
<path d="M-15.560 -20.620L-2.980 -20.500L-9.020 -10.300L-11.580 11.800L-13.560 36.280L20.720 64.660L34.840 91.940L58.540 117.020L67.320 143.440L85.900 164.520L89.680 164.220L100.300 145.560L104.580 155.460L121.020 173.480L119.200 178.880L125.300 184.100L127.660 185.460L127.660 185.460L133.720 190.480L142.200 196.320L139.500 204.320L131.900 220.160L127.940 216.760"/>
<path d="M186.640 260.380L191.260 258.760L197.280 262.460L198.280 258.020L194.580 258.500L191.400 255.020L191.860 250.200L192.600 258.000L196.000 265.200L198.320 264.860L202.480 266.280L212.360 268.840L214.280 274.300L213.400 280.880L214.440 278.620L214.440 278.620L223.740 283.700"/>
<path d="M82.620 25.160L72.600 34.620L79.620 32.960L83.480 33.200L83.200 29.580L92.540 23.660L94.920 19.460L104.260 20.720L107.380 22.020L93.760 22.100L90.340 25.460L90.340 25.460L91.760 28.340L81.640 32.100L84.500 35.020L84.500 35.020L91.000 40.040"/>
<path d="M117.600 207.320L107.300 207.020L89.260 233.140L83.900 248.220L82.280 248.100L73.720 261.980L62.940 268.060L56.420 273.420L52.840 272.000L44.120 271.300L42.480 275.220L38.800 276.380L38.800 276.380L38.800 276.380L28.080 275.700L25.360 275.560L25.360 275.560L30.720 281.440"/>
<path d="M104.260 20.720L110.720 21.800L132.540 23.580L149.740 17.520L157.600 21.480L161.480 8.440L161.480 8.440"/>
<path d="M157.600 21.480L162.640 23.780L176.360 28.140"/>
<path d="M110.720 21.800L92.980 24.100L89.160 27.600L79.980 36.900L82.520 41.440L82.520 41.440L78.420 41.760L73.640 47.940L73.500 60.780L82.500 60.720L78.620 52.160L76.280 34.180L68.180 28.380L68.180 28.380"/>
</g>
</g>
</svg>
