<?xml version="1.0" encoding="ISO-8859-1"?>
<svg version="1.1" baseProfile="full"
xmlns="http://www.w3.org/2000/svg"
xmlns:xlink="http://www.w3.org/1999/xlink"
xmlns:ev="http://www.w3.org/2001/xml-events"
width="512.280mm" height="513.080mm"
viewBox="0 0 512.280 513.080">
<title>gamblers_ruin</title>
<g transform="translate(5.000 508.080)">
<g id="Legs" stroke="black" fill="none" stroke-width="0.4px">
<path d="M208.160 -300.920L200.000 -303.080"/>
<path d="M222.520 -286.520L208.160 -300.920"/>
<path d="M234.240 -281.080L222.520 -286.520"/>
<path d="M239.280 -262.240L234.240 -281.080"/>
<path d="M239.280 -239.200L239.280 -262.240"/>
<path d="M262.680 -237.160L239.280 -239.200"/>
<path d="M277.760 -224.520L262.680 -237.160"/>
<path d="M302.280 -200.000L277.760 -224.520"/>
</g>
<g id="Labels" font-size="0.600em">
<text transform="translate(208.160 -300.920)">gamblers_ruin.8</text>
<text transform="translate(208.160 -300.920)">upside_down_chamber.5</text>
<text transform="translate(302.280 -200.000)">gamblers_ruin.1</text>
<text transform="translate(277.760 -224.520)">gamblers_ruin.2</text>
<text transform="translate(262.680 -237.160)">gamblers_ruin.3</text>
<text transform="translate(239.280 -239.200)">gamblers_ruin.4</text>
<text transform="translate(239.280 -262.240)">gamblers_ruin.5</text>
<text transform="translate(234.240 -281.080)">gamblers_ruin.6</text>
<text transform="translate(222.520 -286.520)">gamblers_ruin.7</text>
<text transform="translate(200.000 -303.080)">gamblers_ruin.9</text>
</g>
<g id="Stations" stroke="black" fill="none" stroke-width="0.05px">
<circle id="gamblers_ruin.8" cx="208.160" cy="-300.920" r="1.131"/>
<path d="M207.360 -301.720L208.960 -300.120M208.960 -301.720L207.360 -300.120"/>
<circle id="gamblers_ruin.8" cx="208.160" cy="-300.920" r="1.131"/>
<path d="M207.360 -301.720L208.960 -300.120M208.960 -301.720L207.360 -300.120"/>
<circle id="gamblers_ruin.1" cx="302.280" cy="-200.000" r="1.131"/>
<path d="M301.480 -200.800L303.080 -199.200M303.080 -200.800L301.480 -199.200"/>
<circle id="gamblers_ruin.2" cx="277.760" cy="-224.520" r="1.131"/>
<path d="M276.960 -225.320L278.560 -223.720M278.560 -225.320L276.960 -223.720"/>
<circle id="gamblers_ruin.3" cx="262.680" cy="-237.160" r="1.131"/>
<path d="M261.880 -237.960L263.480 -236.360M263.480 -237.960L261.880 -236.360"/>
<circle id="gamblers_ruin.4" cx="239.280" cy="-239.200" r="1.131"/>
<path d="M238.480 -240.000L240.080 -238.400M240.080 -240.000L238.480 -238.400"/>
<circle id="gamblers_ruin.5" cx="239.280" cy="-262.240" r="1.131"/>
<path d="M238.480 -263.040L240.080 -261.440M240.080 -263.040L238.480 -261.440"/>
<circle id="gamblers_ruin.6" cx="234.240" cy="-281.080" r="1.131"/>
<path d="M233.440 -281.880L235.040 -280.280M235.040 -281.880L233.440 -280.280"/>
<circle id="gamblers_ruin.7" cx="222.520" cy="-286.520" r="1.131"/>
<path d="M221.720 -287.320L223.320 -285.720M223.320 -287.320L221.720 -285.720"/>
<circle id="gamblers_ruin.9" cx="200.000" cy="-303.080" r="1.131"/>
<path d="M199.200 -303.880L200.800 -302.280M200.800 -303.880L199.200 -302.280"/>
</g>
</g>
</svg>
