<?xml version="1.0" encoding="UTF-8" standalone="no"?>
<svg
   xmlns:dc="http://purl.org/dc/elements/1.1/"
   xmlns:cc="http://creativecommons.org/ns#"
   xmlns:rdf="http://www.w3.org/1999/02/22-rdf-syntax-ns#"
   xmlns:svg="http://www.w3.org/2000/svg"
   xmlns="http://www.w3.org/2000/svg"
   xmlns:sodipodi="http://sodipodi.sourceforge.net/DTD/sodipodi-0.dtd"
   xmlns:inkscape="http://www.inkscape.org/namespaces/inkscape"
   version="1.1"
   width="871.880mm"
   height="583.800mm"
   viewBox="0 0 871.880 583.800"
   id="svg250"
   sodipodi:docname="brez_volje_extend.svg"
   inkscape:version="0.92.2 5c3e80d, 2017-08-06">
  <metadata
     id="metadata256">
    <rdf:RDF>
      <cc:Work
         rdf:about="">
        <dc:format>image/svg+xml</dc:format>
        <dc:type
           rdf:resource="http://purl.org/dc/dcmitype/StillImage" />
      </cc:Work>
    </rdf:RDF>
  </metadata>
  <defs
     id="defs254" />
  <sodipodi:namedview
     pagecolor="#ffffff"
     bordercolor="#666666"
     borderopacity="1"
     objecttolerance="10"
     gridtolerance="10"
     guidetolerance="10"
     inkscape:pageopacity="0"
     inkscape:pageshadow="2"
     inkscape:window-width="949"
     inkscape:window-height="694"
     id="namedview252"
     showgrid="false"
     inkscape:zoom="0.39328806"
     inkscape:cx="2197.4662"
     inkscape:cy="1011.2948"
     inkscape:window-x="0"
     inkscape:window-y="0"
     inkscape:window-maximized="0"
     inkscape:current-layer="g248" />
  <title
     id="title2">brez_volje</title>
  <g
     transform="matrix(-1,0,0,1,883.05603,578.8)"
     id="g248">
    <path
       style="fill:none;stroke:#000000;stroke-width:0.40000001px"
       inkscape:connector-curvature="0"
       id="path4"
       d="m 200,-200 19.56,-1.04" />
    <path
       style="fill:none;stroke:#000000;stroke-width:0.40000001px"
       inkscape:connector-curvature="0"
       id="path6"
       d="m 219.56,-201.04 6.36,0.56" />
    <path
       style="fill:none;stroke:#000000;stroke-width:0.40000001px"
       inkscape:connector-curvature="0"
       id="path8"
       d="m 225.92,-200.48 31.84,-7.92" />
    <path
       style="fill:none;stroke:#000000;stroke-width:0.40000001px"
       inkscape:connector-curvature="0"
       id="path10"
       d="m 257.76,-208.4 51.08,-9.92" />
    <path
       style="fill:none;stroke:#000000;stroke-width:0.40000001px"
       inkscape:connector-curvature="0"
       id="path12"
       d="m 308.84,-218.32 24.88,-24.88" />
    <path
       style="fill:none;stroke:#000000;stroke-width:0.40000001px"
       inkscape:connector-curvature="0"
       id="path14"
       d="m 333.72,-243.2 37.6,-13.68" />
    <path
       style="fill:none;stroke:#000000;stroke-width:0.40000001px"
       inkscape:connector-curvature="0"
       id="path16"
       d="m 371.32,-256.88 31.36,-3.88" />
    <path
       style="fill:none;stroke:#000000;stroke-width:0.40000001px"
       inkscape:connector-curvature="0"
       id="path18"
       d="m 372.1106,-345.42668 -12.12,-6.16" />
    <path
       style="fill:none;stroke:#000000;stroke-width:0.40000001px"
       inkscape:connector-curvature="0"
       id="path20"
       d="m 359.9906,-351.58668 -8,2.6" />
    <path
       style="fill:none;stroke:#000000;stroke-width:0.40000001px"
       inkscape:connector-curvature="0"
       id="path22"
       d="m 351.9906,-348.98668 -4.88,-1.8" />
    <path
       style="fill:none;stroke:#000000;stroke-width:0.40000001px"
       inkscape:connector-curvature="0"
       id="path24"
       d="m 347.1106,-350.78668 -13.24,-4.56" />
    <path
       style="fill:none;stroke:#000000;stroke-width:0.40000001px"
       inkscape:connector-curvature="0"
       id="path26"
       d="m 333.8706,-355.34668 h -12" />
    <path
       style="fill:none;stroke:#000000;stroke-width:0.40000001px"
       inkscape:connector-curvature="0"
       id="path28"
       d="m 321.8706,-355.34668 -11.68,-2.68" />
    <path
       style="fill:none;stroke:#000000;stroke-width:0.40000001px"
       inkscape:connector-curvature="0"
       id="path30"
       d="m 310.1906,-358.02668 -6.32,-1.12" />
    <path
       style="fill:none;stroke:#000000;stroke-width:0.40000001px"
       inkscape:connector-curvature="0"
       id="path32"
       d="m 303.8706,-359.14668 -22.16,-5.12" />
    <path
       style="fill:none;stroke:#000000;stroke-width:0.40000001px"
       inkscape:connector-curvature="0"
       id="path34"
       d="m 281.7106,-364.26668 -7.36,-7.36" />
    <path
       style="fill:none;stroke:#000000;stroke-width:0.40000001px"
       inkscape:connector-curvature="0"
       id="path36"
       d="m 274.3506,-371.62668 -4.16,-2.4" />
    <path
       style="fill:none;stroke:#000000;stroke-width:0.40000001px"
       inkscape:connector-curvature="0"
       id="path38"
       d="m 270.1906,-374.02668 -16.76,-5.44" />
    <path
       style="fill:none;stroke:#000000;stroke-width:0.40000001px"
       inkscape:connector-curvature="0"
       id="path40"
       d="m 253.4306,-379.46668 -23.44,-13" />
    <path
       style="fill:none;stroke:#000000;stroke-width:0.40000001px"
       inkscape:connector-curvature="0"
       id="path42"
       d="m 229.9906,-392.46668 -12.68,-3.64" />
    <path
       style="fill:none;stroke:#000000;stroke-width:0.40000001px"
       inkscape:connector-curvature="0"
       id="path44"
       d="m 217.3106,-396.10668 -4.12,-1.48" />
    <path
       style="fill:none;stroke:#000000;stroke-width:0.40000001px"
       inkscape:connector-curvature="0"
       id="path46"
       d="m 213.1906,-397.58668 -17.4,2.76" />
    <path
       style="fill:none;stroke:#000000;stroke-width:0.40000001px"
       inkscape:connector-curvature="0"
       id="path48"
       d="m 195.7906,-394.82668 h -22.8" />
    <path
       style="fill:none;stroke:#000000;stroke-width:0.40000001px"
       inkscape:connector-curvature="0"
       id="path50"
       d="m 172.9906,-394.82668 v -20" />
    <path
       style="fill:none;stroke:#000000;stroke-width:0.40000001px"
       inkscape:connector-curvature="0"
       id="path52"
       d="m 172.9906,-414.82668 -6.72,-25.12" />
    <path
       style="fill:none;stroke:#000000;stroke-width:0.40000001px"
       inkscape:connector-curvature="0"
       id="path54"
       d="m 166.2706,-439.94668 -5.64,-2.08" />
    <path
       style="fill:none;stroke:#000000;stroke-width:0.40000001px"
       inkscape:connector-curvature="0"
       id="path56"
       d="m 160.6306,-442.02668 h -7.2" />
    <path
       style="fill:none;stroke:#000000;stroke-width:0.40000001px"
       inkscape:connector-curvature="0"
       id="path58"
       d="m 153.4306,-442.02668 -12.24,-2.12" />
    <path
       style="fill:none;stroke:#000000;stroke-width:0.40000001px"
       inkscape:connector-curvature="0"
       id="path60"
       d="m 141.1906,-444.14668 h -9.96" />
    <path
       style="fill:none;stroke:#000000;stroke-width:0.40000001px"
       inkscape:connector-curvature="0"
       id="path62"
       d="m 131.2306,-444.14668 -18.32,-14.32" />
    <path
       style="fill:none;stroke:#000000;stroke-width:0.40000001px"
       inkscape:connector-curvature="0"
       id="path64"
       d="m 112.9106,-458.46668 v 0" />
    <text
       style="font-size:3.52777793px;"
       y="-200"
       x="-222.64062"
       id="text67"
       transform="scale(-1,1)">pop22</text>
    <text
       style="font-size:3.52777793px;"
       y="-200"
       x="-199.7812"
       id="text69"
       transform="scale(-1,1)">popotresni.pop22</text>
    <text
       style="font-size:3.52777793px;"
       y="-201.03999"
       x="-232.90532"
       id="text71"
       transform="scale(-1,1)">bv2</text>
    <text
       style="font-size:3.52777793px;"
       y="-200.48"
       x="-239.40945"
       id="text73"
       transform="scale(-1,1)">bv3</text>
    <text
       style="font-size:3.52777793px;"
       y="-208.39999"
       x="-271.42172"
       id="text75"
       transform="scale(-1,1)">bv4</text>
    <text
       style="font-size:3.52777793px;"
       y="-218.32001"
       x="-322.27673"
       id="text77"
       transform="scale(-1,1)">bv5</text>
    <text
       style="font-size:3.52777793px;"
       y="-243.2"
       x="-347.33249"
       id="text79"
       transform="scale(-1,1)">bv6</text>
    <text
       style="font-size:3.52777793px;"
       y="-256.88"
       x="-384.77078"
       id="text81"
       transform="scale(-1,1)">bv7</text>
    <text
       style="font-size:3.52777793px;"
       id="text83"
       x="-372.11053"
       y="-345.42664"
       transform="scale(-1,1)">bv8</text>
    <text
       style="font-size:3.52777793px;"
       id="text85"
       x="-359.99054"
       y="-351.58664"
       transform="scale(-1,1)">bv9</text>
    <text
       style="font-size:3.52777793px;"
       id="text87"
       x="-351.99057"
       y="-348.98663"
       transform="scale(-1,1)">bv10</text>
    <text
       style="font-size:3.52777793px;"
       id="text89"
       x="-347.1106"
       y="-350.78662"
       transform="scale(-1,1)">bv11</text>
    <text
       style="font-size:3.52777793px;"
       id="text91"
       x="-333.87067"
       y="-355.34662"
       transform="scale(-1,1)">bv12</text>
    <text
       style="font-size:3.52777793px;"
       id="text93"
       x="-321.87073"
       y="-355.34662"
       transform="scale(-1,1)">bv13</text>
    <text
       style="font-size:3.52777793px;"
       id="text95"
       x="-310.19083"
       y="-358.02661"
       transform="scale(-1,1)">bv14</text>
    <text
       style="font-size:3.52777793px;"
       id="text97"
       x="-303.87085"
       y="-359.14664"
       transform="scale(-1,1)">bv15</text>
    <text
       style="font-size:3.52777793px;"
       id="text99"
       x="-281.71091"
       y="-364.26663"
       transform="scale(-1,1)">bv16</text>
    <text
       style="font-size:3.52777793px;"
       id="text101"
       x="-274.35086"
       y="-371.62662"
       transform="scale(-1,1)">bv17</text>
    <text
       style="font-size:3.52777793px;"
       id="text103"
       x="-270.19089"
       y="-374.02661"
       transform="scale(-1,1)">bv18</text>
    <text
       style="font-size:3.52777793px;"
       id="text105"
       x="-253.43089"
       y="-379.46661"
       transform="scale(-1,1)">bv19</text>
    <text
       style="font-size:3.52777793px;"
       id="text107"
       x="-229.99097"
       y="-392.46661"
       transform="scale(-1,1)">bv20</text>
    <text
       style="font-size:3.52777793px;"
       id="text109"
       x="-217.31096"
       y="-396.10663"
       transform="scale(-1,1)">bv21</text>
    <text
       style="font-size:3.52777793px;"
       id="text111"
       x="-213.19095"
       y="-397.58664"
       transform="scale(-1,1)">bv22</text>
    <text
       style="font-size:3.52777793px;"
       id="text113"
       x="-195.79094"
       y="-394.82663"
       transform="scale(-1,1)">bv23</text>
    <text
       style="font-size:3.52777793px;"
       id="text115"
       x="-172.99089"
       y="-394.82663"
       transform="scale(-1,1)">bv24</text>
    <text
       style="font-size:3.52777793px;"
       id="text117"
       x="-172.99089"
       y="-414.82663"
       transform="scale(-1,1)">bv25</text>
    <text
       style="font-size:3.52777793px;"
       id="text119"
       x="-166.27084"
       y="-439.94662"
       transform="scale(-1,1)">bv26</text>
    <text
       style="font-size:3.52777793px;"
       id="text121"
       x="-160.63086"
       y="-442.02661"
       transform="scale(-1,1)">bv27</text>
    <text
       style="font-size:3.52777793px;"
       id="text123"
       x="-153.43085"
       y="-442.02661"
       transform="scale(-1,1)">bv28</text>
    <text
       style="font-size:3.52777793px;"
       id="text125"
       x="-141.19086"
       y="-444.14664"
       transform="scale(-1,1)">bv29</text>
    <text
       style="font-size:3.52777793px;"
       id="text127"
       x="-131.2308"
       y="-444.14664"
       transform="scale(-1,1)">bv30</text>
    <text
       style="font-size:3.52777793px;"
       id="text129"
       x="-112.9108"
       y="-458.46661"
       transform="scale(-1,1)">bv31</text>
    <text
       style="font-size:3.52777793px;"
       id="text131"
       x="-112.9108"
       y="-458.46661"
       transform="scale(-1,1)">bv31</text>
    <text
       style="font-size:3.52777793px;"
       id="text133"
       x="-112.9108"
       y="-458.46661"
       transform="scale(-1,1)">bv32</text>
    <text
       style="font-size:3.52777793px;"
       id="text135"
       x="-112.9108"
       y="-458.46661"
       transform="scale(-1,1)">bv32</text>
    <circle
       style="fill:none;stroke:#000000;stroke-width:0.05px"
       r="1.131"
       cy="-200"
       cx="200"
       id="brez_volje.pop22" />
    <path
       style="fill:none;stroke:#000000;stroke-width:0.05px"
       inkscape:connector-curvature="0"
       id="path139"
       d="m 199.2,-200.8 1.6,1.6 m 0,-1.6 -1.6,1.6" />
    <circle
       style="fill:none;stroke:#000000;stroke-width:0.05px"
       r="1.131"
       cy="-200"
       cx="200"
       id="circle141" />
    <path
       style="fill:none;stroke:#000000;stroke-width:0.05px"
       inkscape:connector-curvature="0"
       id="path143"
       d="m 199.2,-200.8 1.6,1.6 m 0,-1.6 -1.6,1.6" />
    <circle
       style="fill:none;stroke:#000000;stroke-width:0.05px"
       r="1.131"
       cy="-201.03999"
       cx="219.56"
       id="brez_volje.bv2" />
    <path
       style="fill:none;stroke:#000000;stroke-width:0.05px"
       inkscape:connector-curvature="0"
       id="path146"
       d="m 218.76,-201.84 1.6,1.6 m 0,-1.6 -1.6,1.6" />
    <circle
       style="fill:none;stroke:#000000;stroke-width:0.05px"
       r="1.131"
       cy="-200.48"
       cx="225.92"
       id="brez_volje.bv3" />
    <path
       style="fill:none;stroke:#000000;stroke-width:0.05px"
       inkscape:connector-curvature="0"
       id="path149"
       d="m 225.12,-201.28 1.6,1.6 m 0,-1.6 -1.6,1.6" />
    <circle
       style="fill:none;stroke:#000000;stroke-width:0.05px"
       r="1.131"
       cy="-208.39999"
       cx="257.76001"
       id="brez_volje.bv4" />
    <path
       style="fill:none;stroke:#000000;stroke-width:0.05px"
       inkscape:connector-curvature="0"
       id="path152"
       d="m 256.96,-209.2 1.6,1.6 m 0,-1.6 -1.6,1.6" />
    <circle
       style="fill:none;stroke:#000000;stroke-width:0.05px"
       r="1.131"
       cy="-218.32001"
       cx="308.84"
       id="brez_volje.bv5" />
    <path
       style="fill:none;stroke:#000000;stroke-width:0.05px"
       inkscape:connector-curvature="0"
       id="path155"
       d="m 308.04,-219.12 1.6,1.6 m 0,-1.6 -1.6,1.6" />
    <circle
       style="fill:none;stroke:#000000;stroke-width:0.05px"
       r="1.131"
       cy="-243.2"
       cx="333.72"
       id="brez_volje.bv6" />
    <path
       style="fill:none;stroke:#000000;stroke-width:0.05px"
       inkscape:connector-curvature="0"
       id="path158"
       d="m 332.92,-244 1.6,1.6 m 0,-1.6 -1.6,1.6" />
    <circle
       style="fill:none;stroke:#000000;stroke-width:0.05px"
       r="1.131"
       cy="-256.88"
       cx="371.32001"
       id="brez_volje.bv7" />
    <path
       style="fill:none;stroke:#000000;stroke-width:0.05px"
       inkscape:connector-curvature="0"
       id="path161"
       d="m 370.52,-257.68 1.6,1.6 m 0,-1.6 -1.6,1.6" />
    <circle
       style="fill:none;stroke:#000000;stroke-width:0.05px"
       r="1.131"
       cy="-345.42664"
       cx="-372.11053"
       id="brez_volje.bv8"
       transform="scale(-1,1)" />
    <path
       style="fill:none;stroke:#000000;stroke-width:0.05px"
       inkscape:connector-curvature="0"
       id="path164"
       d="m 372.9106,-346.22668 -1.6,1.6 m 0,-1.6 1.6,1.6" />
    <circle
       style="fill:none;stroke:#000000;stroke-width:0.05px"
       r="1.131"
       cy="-351.58664"
       cx="-359.99054"
       id="brez_volje.bv9"
       transform="scale(-1,1)" />
    <path
       style="fill:none;stroke:#000000;stroke-width:0.05px"
       inkscape:connector-curvature="0"
       id="path167"
       d="m 360.7906,-352.38668 -1.6,1.6 m 0,-1.6 1.6,1.6" />
    <circle
       style="fill:none;stroke:#000000;stroke-width:0.05px"
       r="1.131"
       cy="-348.98663"
       cx="-351.99057"
       id="brez_volje.bv10"
       transform="scale(-1,1)" />
    <path
       style="fill:none;stroke:#000000;stroke-width:0.05px"
       inkscape:connector-curvature="0"
       id="path170"
       d="m 352.7906,-349.78668 -1.6,1.6 m 0,-1.6 1.6,1.6" />
    <circle
       style="fill:none;stroke:#000000;stroke-width:0.05px"
       r="1.131"
       cy="-350.78662"
       cx="-347.1106"
       id="brez_volje.bv11"
       transform="scale(-1,1)" />
    <path
       style="fill:none;stroke:#000000;stroke-width:0.05px"
       inkscape:connector-curvature="0"
       id="path173"
       d="m 347.9106,-351.58668 -1.6,1.6 m 0,-1.6 1.6,1.6" />
    <circle
       style="fill:none;stroke:#000000;stroke-width:0.05px"
       r="1.131"
       cy="-355.34662"
       cx="-333.87067"
       id="brez_volje.bv12"
       transform="scale(-1,1)" />
    <path
       style="fill:none;stroke:#000000;stroke-width:0.05px"
       inkscape:connector-curvature="0"
       id="path176"
       d="m 334.6706,-356.14668 -1.6,1.6 m 0,-1.6 1.6,1.6" />
    <circle
       style="fill:none;stroke:#000000;stroke-width:0.05px"
       r="1.131"
       cy="-355.34662"
       cx="-321.87073"
       id="brez_volje.bv13"
       transform="scale(-1,1)" />
    <path
       style="fill:none;stroke:#000000;stroke-width:0.05px"
       inkscape:connector-curvature="0"
       id="path179"
       d="m 322.6706,-356.14668 -1.6,1.6 m 0,-1.6 1.6,1.6" />
    <circle
       style="fill:none;stroke:#000000;stroke-width:0.05px"
       r="1.131"
       cy="-358.02661"
       cx="-310.19083"
       id="brez_volje.bv14"
       transform="scale(-1,1)" />
    <path
       style="fill:none;stroke:#000000;stroke-width:0.05px"
       inkscape:connector-curvature="0"
       id="path182"
       d="m 310.9906,-358.82668 -1.6,1.6 m 0,-1.6 1.6,1.6" />
    <circle
       style="fill:none;stroke:#000000;stroke-width:0.05px"
       r="1.131"
       cy="-359.14664"
       cx="-303.87085"
       id="brez_volje.bv15"
       transform="scale(-1,1)" />
    <path
       style="fill:none;stroke:#000000;stroke-width:0.05px"
       inkscape:connector-curvature="0"
       id="path185"
       d="m 304.6706,-359.94668 -1.6,1.6 m 0,-1.6 1.6,1.6" />
    <circle
       style="fill:none;stroke:#000000;stroke-width:0.05px"
       r="1.131"
       cy="-364.26663"
       cx="-281.71091"
       id="brez_volje.bv16"
       transform="scale(-1,1)" />
    <path
       style="fill:none;stroke:#000000;stroke-width:0.05px"
       inkscape:connector-curvature="0"
       id="path188"
       d="m 282.5106,-365.06668 -1.6,1.6 m 0,-1.6 1.6,1.6" />
    <circle
       style="fill:none;stroke:#000000;stroke-width:0.05px"
       r="1.131"
       cy="-371.62662"
       cx="-274.35086"
       id="brez_volje.bv17"
       transform="scale(-1,1)" />
    <path
       style="fill:none;stroke:#000000;stroke-width:0.05px"
       inkscape:connector-curvature="0"
       id="path191"
       d="m 275.1506,-372.42668 -1.6,1.6 m 0,-1.6 1.6,1.6" />
    <circle
       style="fill:none;stroke:#000000;stroke-width:0.05px"
       r="1.131"
       cy="-374.02661"
       cx="-270.19089"
       id="brez_volje.bv18"
       transform="scale(-1,1)" />
    <path
       style="fill:none;stroke:#000000;stroke-width:0.05px"
       inkscape:connector-curvature="0"
       id="path194"
       d="m 270.9906,-374.82668 -1.6,1.6 m 0,-1.6 1.6,1.6" />
    <circle
       style="fill:none;stroke:#000000;stroke-width:0.05px"
       r="1.131"
       cy="-379.46661"
       cx="-253.43089"
       id="brez_volje.bv19"
       transform="scale(-1,1)" />
    <path
       style="fill:none;stroke:#000000;stroke-width:0.05px"
       inkscape:connector-curvature="0"
       id="path197"
       d="m 254.2306,-380.26668 -1.6,1.6 m 0,-1.6 1.6,1.6" />
    <circle
       style="fill:none;stroke:#000000;stroke-width:0.05px"
       r="1.131"
       cy="-392.46661"
       cx="-229.99097"
       id="brez_volje.bv20"
       transform="scale(-1,1)" />
    <path
       style="fill:none;stroke:#000000;stroke-width:0.05px"
       inkscape:connector-curvature="0"
       id="path200"
       d="m 230.7906,-393.26668 -1.6,1.6 m 0,-1.6 1.6,1.6" />
    <circle
       style="fill:none;stroke:#000000;stroke-width:0.05px"
       r="1.131"
       cy="-396.10663"
       cx="-217.31096"
       id="brez_volje.bv21"
       transform="scale(-1,1)" />
    <path
       style="fill:none;stroke:#000000;stroke-width:0.05px"
       inkscape:connector-curvature="0"
       id="path203"
       d="m 218.1106,-396.90668 -1.6,1.6 m 0,-1.6 1.6,1.6" />
    <circle
       style="fill:none;stroke:#000000;stroke-width:0.05px"
       r="1.131"
       cy="-397.58664"
       cx="-213.19095"
       id="brez_volje.bv22"
       transform="scale(-1,1)" />
    <path
       style="fill:none;stroke:#000000;stroke-width:0.05px"
       inkscape:connector-curvature="0"
       id="path206"
       d="m 213.9906,-398.38668 -1.6,1.6 m 0,-1.6 1.6,1.6" />
    <circle
       style="fill:none;stroke:#000000;stroke-width:0.05px"
       r="1.131"
       cy="-394.82663"
       cx="-195.79094"
       id="brez_volje.bv23"
       transform="scale(-1,1)" />
    <path
       style="fill:none;stroke:#000000;stroke-width:0.05px"
       inkscape:connector-curvature="0"
       id="path209"
       d="m 196.5906,-395.62668 -1.6,1.6 m 0,-1.6 1.6,1.6" />
    <circle
       style="fill:none;stroke:#000000;stroke-width:0.05px"
       r="1.131"
       cy="-394.82663"
       cx="-172.99089"
       id="brez_volje.bv24"
       transform="scale(-1,1)" />
    <path
       style="fill:none;stroke:#000000;stroke-width:0.05px"
       inkscape:connector-curvature="0"
       id="path212"
       d="m 173.7906,-395.62668 -1.6,1.6 m 0,-1.6 1.6,1.6" />
    <circle
       style="fill:none;stroke:#000000;stroke-width:0.05px"
       r="1.131"
       cy="-414.82663"
       cx="-172.99089"
       id="brez_volje.bv25"
       transform="scale(-1,1)" />
    <path
       style="fill:none;stroke:#000000;stroke-width:0.05px"
       inkscape:connector-curvature="0"
       id="path215"
       d="m 173.7906,-415.62668 -1.6,1.6 m 0,-1.6 1.6,1.6" />
    <circle
       style="fill:none;stroke:#000000;stroke-width:0.05px"
       r="1.131"
       cy="-439.94662"
       cx="-166.27084"
       id="brez_volje.bv26"
       transform="scale(-1,1)" />
    <path
       style="fill:none;stroke:#000000;stroke-width:0.05px"
       inkscape:connector-curvature="0"
       id="path218"
       d="m 167.0706,-440.74668 -1.6,1.6 m 0,-1.6 1.6,1.6" />
    <circle
       style="fill:none;stroke:#000000;stroke-width:0.05px"
       r="1.131"
       cy="-442.02661"
       cx="-160.63086"
       id="brez_volje.bv27"
       transform="scale(-1,1)" />
    <path
       style="fill:none;stroke:#000000;stroke-width:0.05px"
       inkscape:connector-curvature="0"
       id="path221"
       d="m 161.4306,-442.82668 -1.6,1.6 m 0,-1.6 1.6,1.6" />
    <circle
       style="fill:none;stroke:#000000;stroke-width:0.05px"
       r="1.131"
       cy="-442.02661"
       cx="-153.43085"
       id="brez_volje.bv28"
       transform="scale(-1,1)" />
    <path
       style="fill:none;stroke:#000000;stroke-width:0.05px"
       inkscape:connector-curvature="0"
       id="path224"
       d="m 154.2306,-442.82668 -1.6,1.6 m 0,-1.6 1.6,1.6" />
    <circle
       style="fill:none;stroke:#000000;stroke-width:0.05px"
       r="1.131"
       cy="-444.14664"
       cx="-141.19086"
       id="brez_volje.bv29"
       transform="scale(-1,1)" />
    <path
       style="fill:none;stroke:#000000;stroke-width:0.05px"
       inkscape:connector-curvature="0"
       id="path227"
       d="m 141.9906,-444.94668 -1.6,1.6 m 0,-1.6 1.6,1.6" />
    <circle
       style="fill:none;stroke:#000000;stroke-width:0.05px"
       r="1.131"
       cy="-444.14664"
       cx="-131.2308"
       id="brez_volje.bv30"
       transform="scale(-1,1)" />
    <path
       style="fill:none;stroke:#000000;stroke-width:0.05px"
       inkscape:connector-curvature="0"
       id="path230"
       d="m 132.0306,-444.94668 -1.6,1.6 m 0,-1.6 1.6,1.6" />
    <circle
       style="fill:none;stroke:#000000;stroke-width:0.05px"
       r="1.131"
       cy="-458.46661"
       cx="-112.9108"
       id="brez_volje.bv31"
       transform="scale(-1,1)" />
    <path
       style="fill:none;stroke:#000000;stroke-width:0.05px"
       inkscape:connector-curvature="0"
       id="path233"
       d="m 113.7106,-459.26668 -1.6,1.6 m 0,-1.6 1.6,1.6" />
    <circle
       style="fill:none;stroke:#000000;stroke-width:0.05px"
       r="1.131"
       cy="-458.46661"
       cx="-112.9108"
       id="circle235"
       transform="scale(-1,1)" />
    <path
       style="fill:none;stroke:#000000;stroke-width:0.05px"
       inkscape:connector-curvature="0"
       id="path237"
       d="m 113.7106,-459.26668 -1.6,1.6 m 0,-1.6 1.6,1.6" />
    <circle
       style="fill:none;stroke:#000000;stroke-width:0.05px"
       r="1.131"
       cy="-458.46661"
       cx="-112.9108"
       id="circle239"
       transform="scale(-1,1)" />
    <path
       style="fill:none;stroke:#000000;stroke-width:0.05px"
       inkscape:connector-curvature="0"
       id="path241"
       d="m 113.7106,-459.26668 -1.6,1.6 m 0,-1.6 1.6,1.6" />
    <circle
       style="fill:none;stroke:#000000;stroke-width:0.05px"
       r="1.131"
       cy="-458.46661"
       cx="-112.9108"
       id="circle243"
       transform="scale(-1,1)" />
    <path
       style="fill:none;stroke:#000000;stroke-width:0.05px"
       inkscape:connector-curvature="0"
       id="path245"
       d="m 113.7106,-459.26668 -1.6,1.6 m 0,-1.6 1.6,1.6" />
  </g>
</svg>
