<?xml version="1.0" encoding="ISO-8859-1"?>
<svg version="1.1" baseProfile="full"
xmlns="http://www.w3.org/2000/svg"
xmlns:xlink="http://www.w3.org/1999/xlink"
xmlns:ev="http://www.w3.org/2001/xml-events"
width="1165.760mm" height="512.080mm"
viewBox="0 0 1165.760 512.080">
<title>what_a_coincidence</title>
<g transform="translate(5.000 507.080)">
<g id="Legs" stroke="black" fill="none" stroke-width="0.4px">
<path d="M229.520 -302.080L200.000 -294.760"/>
<path d="M298.720 -300.880L229.520 -302.080"/>
<path d="M298.720 -284.040L298.720 -300.880"/>
<path d="M356.640 -283.040L298.720 -284.040"/>
<path d="M359.560 -272.720L356.640 -283.040"/>
<path d="M400.680 -275.600L359.560 -272.720"/>
<path d="M410.040 -271.840L400.680 -275.600"/>
<path d="M410.040 -285.920L410.040 -271.840"/>
<path d="M423.880 -293.600L410.040 -285.920"/>
<path d="M448.040 -291.920L423.880 -293.600"/>
<path d="M480.160 -284.480L448.040 -291.920"/>
<path d="M533.720 -283.560L480.160 -284.480"/>
<path d="M559.080 -266.440L533.720 -283.560"/>
<path d="M591.880 -264.720L559.080 -266.440"/>
<path d="M636.720 -243.840L591.880 -264.720"/>
<path d="M654.200 -250.200L636.720 -243.840"/>
<path d="M660.080 -255.680L654.200 -250.200"/>
<path d="M668.280 -253.000L660.080 -255.680"/>
<path d="M678.000 -240.120L668.280 -253.000"/>
<path d="M689.440 -225.520L678.000 -240.120"/>
<path d="M701.160 -222.160L689.440 -225.520"/>
<path d="M716.120 -230.480L701.160 -222.160"/>
<path d="M731.040 -234.760L716.120 -230.480"/>
<path d="M817.680 -248.480L731.040 -234.760"/>
<path d="M852.520 -255.880L817.680 -248.480"/>
<path d="M905.960 -269.200L852.520 -255.880"/>
<path d="M927.440 -269.960L905.960 -269.200"/>
<path d="M930.640 -224.240L927.440 -269.960"/>
<path d="M955.760 -200.000L930.640 -224.240"/>
</g>
<g id="Labels" font-size="0.600em">
<text transform="translate(200.000 -294.760)">what_a_coincidence.30</text>
<text transform="translate(200.000 -294.760)">colony.9</text>
<text transform="translate(955.760 -200.000)">what_a_coincidence.1</text>
<text transform="translate(930.640 -224.240)">what_a_coincidence.2</text>
<text transform="translate(927.440 -269.960)">what_a_coincidence.3</text>
<text transform="translate(905.960 -269.200)">what_a_coincidence.4</text>
<text transform="translate(852.520 -255.880)">what_a_coincidence.5</text>
<text transform="translate(817.680 -248.480)">what_a_coincidence.6</text>
<text transform="translate(731.040 -234.760)">what_a_coincidence.7</text>
<text transform="translate(716.120 -230.480)">what_a_coincidence.8</text>
<text transform="translate(701.160 -222.160)">what_a_coincidence.9</text>
<text transform="translate(689.440 -225.520)">what_a_coincidence.10</text>
<text transform="translate(678.000 -240.120)">what_a_coincidence.11</text>
<text transform="translate(668.280 -253.000)">what_a_coincidence.12</text>
<text transform="translate(660.080 -255.680)">what_a_coincidence.13</text>
<text transform="translate(654.200 -250.200)">what_a_coincidence.14</text>
<text transform="translate(636.720 -243.840)">what_a_coincidence.15</text>
<text transform="translate(591.880 -264.720)">what_a_coincidence.16</text>
<text transform="translate(559.080 -266.440)">what_a_coincidence.17</text>
<text transform="translate(533.720 -283.560)">what_a_coincidence.18</text>
<text transform="translate(480.160 -284.480)">what_a_coincidence.19</text>
<text transform="translate(448.040 -291.920)">what_a_coincidence.20</text>
<text transform="translate(423.880 -293.600)">what_a_coincidence.21</text>
<text transform="translate(410.040 -285.920)">what_a_coincidence.22</text>
<text transform="translate(410.040 -271.840)">what_a_coincidence.23</text>
<text transform="translate(400.680 -275.600)">what_a_coincidence.24</text>
<text transform="translate(359.560 -272.720)">what_a_coincidence.25</text>
<text transform="translate(356.640 -283.040)">what_a_coincidence.26</text>
<text transform="translate(298.720 -284.040)">what_a_coincidence.27</text>
<text transform="translate(298.720 -300.880)">what_a_coincidence.28</text>
<text transform="translate(229.520 -302.080)">what_a_coincidence.29</text>
</g>
<g id="Stations" stroke="black" fill="none" stroke-width="0.05px">
<circle id="what_a_coincidence.30" cx="200.000" cy="-294.760" r="1.131"/>
<path d="M199.200 -295.560L200.800 -293.960M200.800 -295.560L199.200 -293.960"/>
<circle id="what_a_coincidence.30" cx="200.000" cy="-294.760" r="1.131"/>
<path d="M199.200 -295.560L200.800 -293.960M200.800 -295.560L199.200 -293.960"/>
<circle id="what_a_coincidence.1" cx="955.760" cy="-200.000" r="1.131"/>
<path d="M954.960 -200.800L956.560 -199.200M956.560 -200.800L954.960 -199.200"/>
<circle id="what_a_coincidence.2" cx="930.640" cy="-224.240" r="1.131"/>
<path d="M929.840 -225.040L931.440 -223.440M931.440 -225.040L929.840 -223.440"/>
<circle id="what_a_coincidence.3" cx="927.440" cy="-269.960" r="1.131"/>
<path d="M926.640 -270.760L928.240 -269.160M928.240 -270.760L926.640 -269.160"/>
<circle id="what_a_coincidence.4" cx="905.960" cy="-269.200" r="1.131"/>
<path d="M905.160 -270.000L906.760 -268.400M906.760 -270.000L905.160 -268.400"/>
<circle id="what_a_coincidence.5" cx="852.520" cy="-255.880" r="1.131"/>
<path d="M851.720 -256.680L853.320 -255.080M853.320 -256.680L851.720 -255.080"/>
<circle id="what_a_coincidence.6" cx="817.680" cy="-248.480" r="1.131"/>
<path d="M816.880 -249.280L818.480 -247.680M818.480 -249.280L816.880 -247.680"/>
<circle id="what_a_coincidence.7" cx="731.040" cy="-234.760" r="1.131"/>
<path d="M730.240 -235.560L731.840 -233.960M731.840 -235.560L730.240 -233.960"/>
<circle id="what_a_coincidence.8" cx="716.120" cy="-230.480" r="1.131"/>
<path d="M715.320 -231.280L716.920 -229.680M716.920 -231.280L715.320 -229.680"/>
<circle id="what_a_coincidence.9" cx="701.160" cy="-222.160" r="1.131"/>
<path d="M700.360 -222.960L701.960 -221.360M701.960 -222.960L700.360 -221.360"/>
<circle id="what_a_coincidence.10" cx="689.440" cy="-225.520" r="1.131"/>
<path d="M688.640 -226.320L690.240 -224.720M690.240 -226.320L688.640 -224.720"/>
<circle id="what_a_coincidence.11" cx="678.000" cy="-240.120" r="1.131"/>
<path d="M677.200 -240.920L678.800 -239.320M678.800 -240.920L677.200 -239.320"/>
<circle id="what_a_coincidence.12" cx="668.280" cy="-253.000" r="1.131"/>
<path d="M667.480 -253.800L669.080 -252.200M669.080 -253.800L667.480 -252.200"/>
<circle id="what_a_coincidence.13" cx="660.080" cy="-255.680" r="1.131"/>
<path d="M659.280 -256.480L660.880 -254.880M660.880 -256.480L659.280 -254.880"/>
<circle id="what_a_coincidence.14" cx="654.200" cy="-250.200" r="1.131"/>
<path d="M653.400 -251.000L655.000 -249.400M655.000 -251.000L653.400 -249.400"/>
<circle id="what_a_coincidence.15" cx="636.720" cy="-243.840" r="1.131"/>
<path d="M635.920 -244.640L637.520 -243.040M637.520 -244.640L635.920 -243.040"/>
<circle id="what_a_coincidence.16" cx="591.880" cy="-264.720" r="1.131"/>
<path d="M591.080 -265.520L592.680 -263.920M592.680 -265.520L591.080 -263.920"/>
<circle id="what_a_coincidence.17" cx="559.080" cy="-266.440" r="1.131"/>
<path d="M558.280 -267.240L559.880 -265.640M559.880 -267.240L558.280 -265.640"/>
<circle id="what_a_coincidence.18" cx="533.720" cy="-283.560" r="1.131"/>
<path d="M532.920 -284.360L534.520 -282.760M534.520 -284.360L532.920 -282.760"/>
<circle id="what_a_coincidence.19" cx="480.160" cy="-284.480" r="1.131"/>
<path d="M479.360 -285.280L480.960 -283.680M480.960 -285.280L479.360 -283.680"/>
<circle id="what_a_coincidence.20" cx="448.040" cy="-291.920" r="1.131"/>
<path d="M447.240 -292.720L448.840 -291.120M448.840 -292.720L447.240 -291.120"/>
<circle id="what_a_coincidence.21" cx="423.880" cy="-293.600" r="1.131"/>
<path d="M423.080 -294.400L424.680 -292.800M424.680 -294.400L423.080 -292.800"/>
<circle id="what_a_coincidence.22" cx="410.040" cy="-285.920" r="1.131"/>
<path d="M409.240 -286.720L410.840 -285.120M410.840 -286.720L409.240 -285.120"/>
<circle id="what_a_coincidence.23" cx="410.040" cy="-271.840" r="1.131"/>
<path d="M409.240 -272.640L410.840 -271.040M410.840 -272.640L409.240 -271.040"/>
<circle id="what_a_coincidence.24" cx="400.680" cy="-275.600" r="1.131"/>
<path d="M399.880 -276.400L401.480 -274.800M401.480 -276.400L399.880 -274.800"/>
<circle id="what_a_coincidence.25" cx="359.560" cy="-272.720" r="1.131"/>
<path d="M358.760 -273.520L360.360 -271.920M360.360 -273.520L358.760 -271.920"/>
<circle id="what_a_coincidence.26" cx="356.640" cy="-283.040" r="1.131"/>
<path d="M355.840 -283.840L357.440 -282.240M357.440 -283.840L355.840 -282.240"/>
<circle id="what_a_coincidence.27" cx="298.720" cy="-284.040" r="1.131"/>
<path d="M297.920 -284.840L299.520 -283.240M299.520 -284.840L297.920 -283.240"/>
<circle id="what_a_coincidence.28" cx="298.720" cy="-300.880" r="1.131"/>
<path d="M297.920 -301.680L299.520 -300.080M299.520 -301.680L297.920 -300.080"/>
<circle id="what_a_coincidence.29" cx="229.520" cy="-302.080" r="1.131"/>
<path d="M228.720 -302.880L230.320 -301.280M230.320 -302.880L228.720 -301.280"/>
</g>
</g>
</svg>
