<?xml version="1.0" encoding="ISO-8859-1"?>
<svg version="1.1" baseProfile="full"
xmlns="http://www.w3.org/2000/svg"
xmlns:xlink="http://www.w3.org/1999/xlink"
xmlns:ev="http://www.w3.org/2001/xml-events"
width="552.400mm" height="509.320mm"
viewBox="0 0 552.400 509.320">
<title>penny_falls</title>
<g transform="translate(5.000 504.320)">
<g id="Legs" stroke="black" fill="none" stroke-width="0.4px">
<path d="M204.680 -293.360L200.000 -299.320"/>
<path d="M221.920 -278.360L204.680 -293.360"/>
<path d="M238.480 -268.800L221.920 -278.360"/>
<path d="M248.520 -263.440L238.480 -268.800"/>
<path d="M261.080 -260.560L248.520 -263.440"/>
<path d="M270.720 -246.240L261.080 -260.560"/>
<path d="M285.520 -246.240L270.720 -246.240"/>
<path d="M292.680 -248.040L285.520 -246.240"/>
<path d="M298.880 -246.280L292.680 -248.040"/>
<path d="M306.360 -227.680L298.880 -246.280"/>
<path d="M312.880 -225.960L306.360 -227.680"/>
<path d="M323.480 -224.840L312.880 -225.960"/>
<path d="M333.200 -213.680L323.480 -224.840"/>
<path d="M342.400 -200.000L333.200 -213.680"/>
</g>
<g id="Labels" font-size="0.600em">
<text transform="translate(200.000 -299.320)">penny_falls.15</text>
<text transform="translate(200.000 -299.320)">ave_maria.1</text>
<text transform="translate(342.400 -200.000)">penny_falls.1</text>
<text transform="translate(333.200 -213.680)">penny_falls.2</text>
<text transform="translate(323.480 -224.840)">penny_falls.3</text>
<text transform="translate(312.880 -225.960)">penny_falls.4</text>
<text transform="translate(306.360 -227.680)">penny_falls.5</text>
<text transform="translate(298.880 -246.280)">penny_falls.6</text>
<text transform="translate(292.680 -248.040)">penny_falls.7</text>
<text transform="translate(285.520 -246.240)">penny_falls.8</text>
<text transform="translate(270.720 -246.240)">penny_falls.9</text>
<text transform="translate(261.080 -260.560)">penny_falls.10</text>
<text transform="translate(248.520 -263.440)">penny_falls.11</text>
<text transform="translate(238.480 -268.800)">penny_falls.12</text>
<text transform="translate(221.920 -278.360)">penny_falls.13</text>
<text transform="translate(204.680 -293.360)">penny_falls.14</text>
</g>
<g id="Stations" stroke="black" fill="none" stroke-width="0.05px">
<circle id="penny_falls.15" cx="200.000" cy="-299.320" r="1.131"/>
<path d="M199.200 -300.120L200.800 -298.520M200.800 -300.120L199.200 -298.520"/>
<circle id="penny_falls.15" cx="200.000" cy="-299.320" r="1.131"/>
<path d="M199.200 -300.120L200.800 -298.520M200.800 -300.120L199.200 -298.520"/>
<circle id="penny_falls.1" cx="342.400" cy="-200.000" r="1.131"/>
<path d="M341.600 -200.800L343.200 -199.200M343.200 -200.800L341.600 -199.200"/>
<circle id="penny_falls.2" cx="333.200" cy="-213.680" r="1.131"/>
<path d="M332.400 -214.480L334.000 -212.880M334.000 -214.480L332.400 -212.880"/>
<circle id="penny_falls.3" cx="323.480" cy="-224.840" r="1.131"/>
<path d="M322.680 -225.640L324.280 -224.040M324.280 -225.640L322.680 -224.040"/>
<circle id="penny_falls.4" cx="312.880" cy="-225.960" r="1.131"/>
<path d="M312.080 -226.760L313.680 -225.160M313.680 -226.760L312.080 -225.160"/>
<circle id="penny_falls.5" cx="306.360" cy="-227.680" r="1.131"/>
<path d="M305.560 -228.480L307.160 -226.880M307.160 -228.480L305.560 -226.880"/>
<circle id="penny_falls.6" cx="298.880" cy="-246.280" r="1.131"/>
<path d="M298.080 -247.080L299.680 -245.480M299.680 -247.080L298.080 -245.480"/>
<circle id="penny_falls.7" cx="292.680" cy="-248.040" r="1.131"/>
<path d="M291.880 -248.840L293.480 -247.240M293.480 -248.840L291.880 -247.240"/>
<circle id="penny_falls.8" cx="285.520" cy="-246.240" r="1.131"/>
<path d="M284.720 -247.040L286.320 -245.440M286.320 -247.040L284.720 -245.440"/>
<circle id="penny_falls.9" cx="270.720" cy="-246.240" r="1.131"/>
<path d="M269.920 -247.040L271.520 -245.440M271.520 -247.040L269.920 -245.440"/>
<circle id="penny_falls.10" cx="261.080" cy="-260.560" r="1.131"/>
<path d="M260.280 -261.360L261.880 -259.760M261.880 -261.360L260.280 -259.760"/>
<circle id="penny_falls.11" cx="248.520" cy="-263.440" r="1.131"/>
<path d="M247.720 -264.240L249.320 -262.640M249.320 -264.240L247.720 -262.640"/>
<circle id="penny_falls.12" cx="238.480" cy="-268.800" r="1.131"/>
<path d="M237.680 -269.600L239.280 -268.000M239.280 -269.600L237.680 -268.000"/>
<circle id="penny_falls.13" cx="221.920" cy="-278.360" r="1.131"/>
<path d="M221.120 -279.160L222.720 -277.560M222.720 -279.160L221.120 -277.560"/>
<circle id="penny_falls.14" cx="204.680" cy="-293.360" r="1.131"/>
<path d="M203.880 -294.160L205.480 -292.560M205.480 -294.160L203.880 -292.560"/>
</g>
</g>
</svg>
