<?xml version="1.0" encoding="ISO-8859-1"?>
<svg version="1.1" baseProfile="full"
xmlns="http://www.w3.org/2000/svg"
xmlns:xlink="http://www.w3.org/1999/xlink"
xmlns:ev="http://www.w3.org/2001/xml-events"
width="739.040mm" height="515.640mm"
viewBox="0 0 739.040 515.640">
<title>stranglehold</title>
<g transform="translate(5.000 510.640)">
<g id="Legs" stroke="black" fill="none" stroke-width="0.4px">
<path d="M215.520 -305.400L200.000 -305.640"/>
<path d="M225.200 -291.040L215.520 -305.400"/>
<path d="M248.560 -291.040L225.200 -291.040"/>
<path d="M248.560 -281.560L248.560 -291.040"/>
<path d="M259.000 -282.840L248.560 -281.560"/>
<path d="M272.880 -279.120L259.000 -282.840"/>
<path d="M288.560 -286.080L272.880 -279.120"/>
<path d="M297.800 -283.800L288.560 -286.080"/>
<path d="M308.320 -277.200L297.800 -283.800"/>
<path d="M314.920 -276.720L308.320 -277.200"/>
<path d="M323.400 -278.520L314.920 -276.720"/>
<path d="M344.240 -278.520L323.400 -278.520"/>
<path d="M359.960 -281.600L344.240 -278.520"/>
<path d="M370.120 -277.480L359.960 -281.600"/>
<path d="M382.600 -277.280L370.120 -277.480"/>
<path d="M399.560 -257.120L382.600 -277.280"/>
<path d="M407.040 -256.440L399.560 -257.120"/>
<path d="M407.040 -256.440L429.320 -239.080"/>
<path d="M429.320 -239.080L449.840 -233.160"/>
<path d="M449.840 -233.160L456.400 -224.160"/>
<path d="M456.400 -224.160L480.080 -222.920"/>
<path d="M480.080 -222.920L480.080 -213.080"/>
<path d="M480.080 -213.080L490.280 -212.720"/>
<path d="M490.280 -212.720L499.720 -210.360"/>
<path d="M499.720 -210.360L516.240 -208.640"/>
<path d="M516.240 -208.640L529.040 -200.000"/>
<path d="M407.040 -214.440L407.040 -256.440"/>
<path d="M407.040 -219.240L407.040 -214.440"/>
<path d="M418.120 -221.800L407.040 -219.240"/>
<path d="M442.400 -224.360L418.120 -221.800"/>
<path d="M450.240 -216.520L442.400 -224.360"/>
<path d="M450.240 -216.520L450.240 -202.520"/>
</g>
<g id="Labels" font-size="0.600em">
<text transform="translate(200.000 -305.640)">stranglehold.33</text>
<text transform="translate(200.000 -305.640)">electric_dreams.5</text>
<text transform="translate(450.240 -202.520)">stranglehold.1</text>
<text transform="translate(450.240 -216.520)">stranglehold.2</text>
<text transform="translate(442.400 -224.360)">stranglehold.3</text>
<text transform="translate(418.120 -221.800)">stranglehold.4</text>
<text transform="translate(407.040 -219.240)">stranglehold.5</text>
<text transform="translate(407.040 -214.440)">stranglehold.6</text>
<text transform="translate(407.040 -256.440)">stranglehold.7</text>
<text transform="translate(529.040 -200.000)">stranglehold.8</text>
<text transform="translate(516.240 -208.640)">stranglehold.9</text>
<text transform="translate(499.720 -210.360)">stranglehold.10</text>
<text transform="translate(490.280 -212.720)">stranglehold.11</text>
<text transform="translate(480.080 -213.080)">stranglehold.12</text>
<text transform="translate(480.080 -222.920)">stranglehold.13</text>
<text transform="translate(456.400 -224.160)">stranglehold.14</text>
<text transform="translate(449.840 -233.160)">stranglehold.15</text>
<text transform="translate(429.320 -239.080)">stranglehold.16</text>
<text transform="translate(399.560 -257.120)">stranglehold.17</text>
<text transform="translate(382.600 -277.280)">stranglehold.18</text>
<text transform="translate(370.120 -277.480)">stranglehold.19</text>
<text transform="translate(359.960 -281.600)">stranglehold.20</text>
<text transform="translate(344.240 -278.520)">stranglehold.21</text>
<text transform="translate(323.400 -278.520)">stranglehold.22</text>
<text transform="translate(314.920 -276.720)">stranglehold.23</text>
<text transform="translate(308.320 -277.200)">stranglehold.24</text>
<text transform="translate(297.800 -283.800)">stranglehold.25</text>
<text transform="translate(288.560 -286.080)">stranglehold.26</text>
<text transform="translate(272.880 -279.120)">stranglehold.27</text>
<text transform="translate(259.000 -282.840)">stranglehold.28</text>
<text transform="translate(248.560 -281.560)">stranglehold.29</text>
<text transform="translate(248.560 -291.040)">stranglehold.30</text>
<text transform="translate(225.200 -291.040)">stranglehold.31</text>
<text transform="translate(215.520 -305.400)">stranglehold.32</text>
</g>
<g id="Stations" stroke="black" fill="none" stroke-width="0.05px">
<circle id="stranglehold.33" cx="200.000" cy="-305.640" r="1.131"/>
<path d="M199.200 -306.440L200.800 -304.840M200.800 -306.440L199.200 -304.840"/>
<circle id="stranglehold.33" cx="200.000" cy="-305.640" r="1.131"/>
<path d="M199.200 -306.440L200.800 -304.840M200.800 -306.440L199.200 -304.840"/>
<circle id="stranglehold.1" cx="450.240" cy="-202.520" r="1.131"/>
<path d="M449.440 -203.320L451.040 -201.720M451.040 -203.320L449.440 -201.720"/>
<circle id="stranglehold.2" cx="450.240" cy="-216.520" r="1.131"/>
<path d="M449.440 -217.320L451.040 -215.720M451.040 -217.320L449.440 -215.720"/>
<circle id="stranglehold.3" cx="442.400" cy="-224.360" r="1.131"/>
<path d="M441.600 -225.160L443.200 -223.560M443.200 -225.160L441.600 -223.560"/>
<circle id="stranglehold.4" cx="418.120" cy="-221.800" r="1.131"/>
<path d="M417.320 -222.600L418.920 -221.000M418.920 -222.600L417.320 -221.000"/>
<circle id="stranglehold.5" cx="407.040" cy="-219.240" r="1.131"/>
<path d="M406.240 -220.040L407.840 -218.440M407.840 -220.040L406.240 -218.440"/>
<circle id="stranglehold.6" cx="407.040" cy="-214.440" r="1.131"/>
<path d="M406.240 -215.240L407.840 -213.640M407.840 -215.240L406.240 -213.640"/>
<circle id="stranglehold.7" cx="407.040" cy="-256.440" r="1.131"/>
<path d="M406.240 -257.240L407.840 -255.640M407.840 -257.240L406.240 -255.640"/>
<circle id="stranglehold.8" cx="529.040" cy="-200.000" r="1.131"/>
<path d="M528.240 -200.800L529.840 -199.200M529.840 -200.800L528.240 -199.200"/>
<circle id="stranglehold.9" cx="516.240" cy="-208.640" r="1.131"/>
<path d="M515.440 -209.440L517.040 -207.840M517.040 -209.440L515.440 -207.840"/>
<circle id="stranglehold.10" cx="499.720" cy="-210.360" r="1.131"/>
<path d="M498.920 -211.160L500.520 -209.560M500.520 -211.160L498.920 -209.560"/>
<circle id="stranglehold.11" cx="490.280" cy="-212.720" r="1.131"/>
<path d="M489.480 -213.520L491.080 -211.920M491.080 -213.520L489.480 -211.920"/>
<circle id="stranglehold.12" cx="480.080" cy="-213.080" r="1.131"/>
<path d="M479.280 -213.880L480.880 -212.280M480.880 -213.880L479.280 -212.280"/>
<circle id="stranglehold.13" cx="480.080" cy="-222.920" r="1.131"/>
<path d="M479.280 -223.720L480.880 -222.120M480.880 -223.720L479.280 -222.120"/>
<circle id="stranglehold.14" cx="456.400" cy="-224.160" r="1.131"/>
<path d="M455.600 -224.960L457.200 -223.360M457.200 -224.960L455.600 -223.360"/>
<circle id="stranglehold.15" cx="449.840" cy="-233.160" r="1.131"/>
<path d="M449.040 -233.960L450.640 -232.360M450.640 -233.960L449.040 -232.360"/>
<circle id="stranglehold.16" cx="429.320" cy="-239.080" r="1.131"/>
<path d="M428.520 -239.880L430.120 -238.280M430.120 -239.880L428.520 -238.280"/>
<circle id="stranglehold.17" cx="399.560" cy="-257.120" r="1.131"/>
<path d="M398.760 -257.920L400.360 -256.320M400.360 -257.920L398.760 -256.320"/>
<circle id="stranglehold.18" cx="382.600" cy="-277.280" r="1.131"/>
<path d="M381.800 -278.080L383.400 -276.480M383.400 -278.080L381.800 -276.480"/>
<circle id="stranglehold.19" cx="370.120" cy="-277.480" r="1.131"/>
<path d="M369.320 -278.280L370.920 -276.680M370.920 -278.280L369.320 -276.680"/>
<circle id="stranglehold.20" cx="359.960" cy="-281.600" r="1.131"/>
<path d="M359.160 -282.400L360.760 -280.800M360.760 -282.400L359.160 -280.800"/>
<circle id="stranglehold.21" cx="344.240" cy="-278.520" r="1.131"/>
<path d="M343.440 -279.320L345.040 -277.720M345.040 -279.320L343.440 -277.720"/>
<circle id="stranglehold.22" cx="323.400" cy="-278.520" r="1.131"/>
<path d="M322.600 -279.320L324.200 -277.720M324.200 -279.320L322.600 -277.720"/>
<circle id="stranglehold.23" cx="314.920" cy="-276.720" r="1.131"/>
<path d="M314.120 -277.520L315.720 -275.920M315.720 -277.520L314.120 -275.920"/>
<circle id="stranglehold.24" cx="308.320" cy="-277.200" r="1.131"/>
<path d="M307.520 -278.000L309.120 -276.400M309.120 -278.000L307.520 -276.400"/>
<circle id="stranglehold.25" cx="297.800" cy="-283.800" r="1.131"/>
<path d="M297.000 -284.600L298.600 -283.000M298.600 -284.600L297.000 -283.000"/>
<circle id="stranglehold.26" cx="288.560" cy="-286.080" r="1.131"/>
<path d="M287.760 -286.880L289.360 -285.280M289.360 -286.880L287.760 -285.280"/>
<circle id="stranglehold.27" cx="272.880" cy="-279.120" r="1.131"/>
<path d="M272.080 -279.920L273.680 -278.320M273.680 -279.920L272.080 -278.320"/>
<circle id="stranglehold.28" cx="259.000" cy="-282.840" r="1.131"/>
<path d="M258.200 -283.640L259.800 -282.040M259.800 -283.640L258.200 -282.040"/>
<circle id="stranglehold.29" cx="248.560" cy="-281.560" r="1.131"/>
<path d="M247.760 -282.360L249.360 -280.760M249.360 -282.360L247.760 -280.760"/>
<circle id="stranglehold.30" cx="248.560" cy="-291.040" r="1.131"/>
<path d="M247.760 -291.840L249.360 -290.240M249.360 -291.840L247.760 -290.240"/>
<circle id="stranglehold.31" cx="225.200" cy="-291.040" r="1.131"/>
<path d="M224.400 -291.840L226.000 -290.240M226.000 -291.840L224.400 -290.240"/>
<circle id="stranglehold.32" cx="215.520" cy="-305.400" r="1.131"/>
<path d="M214.720 -306.200L216.320 -304.600M216.320 -306.200L214.720 -304.600"/>
</g>
</g>
</svg>
