<?xml version="1.0" encoding="utf-8" standalone="no"?>
<!-- Generated by Therion 5.4.1+? (compiled on 2018-06-25) -->
<!DOCTYPE svg PUBLIC "-//W3C//DTD SVG 1.1//EN" "http://www.w3.org/Graphics/SVG/1.1/DTD/svg11.dtd">
<svg width="16.146cm" height="10.220cm" viewBox="-66.331 -48.693 457.693 289.693" xmlns="http://www.w3.org/2000/svg" xmlns:xlink="http://www.w3.org/1999/xlink">
<defs>
<g id="F_aaaaaaa_smash.svg">
</g>
<g id="G_aaaaaaa_smash.svg">
</g>
<g id="B_aaaaaaa_smash.svg">
</g>
<g id="I_aaaaaaa_smash.svg">
</g>
<g id="E_aaaaaaa_smash.svg">
<path fill="none" stroke="#000000" stroke-width="0.500" d="M37.980 212.650L69.900 209.310" />
<path fill="none" stroke="#000000" stroke-width="0.500" d="M37.980 212.650L2.950 227.510" />
<path fill="none" stroke="#000000" stroke-width="0.500" d="M2.950 227.510L37.980 212.650" />
<path fill="none" stroke="#000000" stroke-width="0.500" d="M69.900 209.310L61.400 191.050" />
<path fill="none" stroke="#000000" stroke-width="0.500" d="M69.900 209.310L37.980 212.650" />
<path fill="none" stroke="#000000" stroke-width="0.500" d="M61.400 191.050L88.270 169.280" />
<path fill="none" stroke="#000000" stroke-width="0.500" d="M61.400 191.050L69.900 209.310" />
<path fill="none" stroke="#000000" stroke-width="0.500" d="M88.270 169.280L100.290 185.840" />
<path fill="none" stroke="#000000" stroke-width="0.500" d="M88.270 169.280L61.400 191.050" />
<path fill="none" stroke="#000000" stroke-width="0.500" d="M100.290 185.840L102.050 206.300" />
<path fill="none" stroke="#000000" stroke-width="0.500" d="M100.290 185.840L88.270 169.280" />
<path fill="none" stroke="#000000" stroke-width="0.500" d="M102.050 206.300L113.610 208.170" />
<path fill="none" stroke="#000000" stroke-width="0.500" d="M102.050 206.300L100.290 185.840" />
<path fill="none" stroke="#000000" stroke-width="0.500" d="M113.610 208.170L134.140 199.440" />
<path fill="none" stroke="#000000" stroke-width="0.500" d="M113.610 208.170L102.050 206.300" />
<path fill="none" stroke="#000000" stroke-width="0.500" d="M134.140 199.440L164.410 193.550" />
<path fill="none" stroke="#000000" stroke-width="0.500" d="M134.140 199.440L113.610 208.170" />
<path fill="none" stroke="#000000" stroke-width="0.500" d="M164.410 193.550L180.280 175.290" />
<path fill="none" stroke="#000000" stroke-width="0.500" d="M164.410 193.550L134.140 199.440" />
<path fill="none" stroke="#000000" stroke-width="0.500" d="M180.280 175.290L251.720 144.960" />
<path fill="none" stroke="#000000" stroke-width="0.500" d="M180.280 175.290L164.410 193.550" />
<path fill="none" stroke="#000000" stroke-width="0.500" d="M251.720 144.960L305.860 131.470" />
<path fill="none" stroke="#000000" stroke-width="0.500" d="M251.720 144.960L180.280 175.290" />
<path fill="none" stroke="#000000" stroke-width="0.500" d="M305.860 131.470L330.690 153.070" />
<path fill="none" stroke="#000000" stroke-width="0.500" d="M305.860 131.470L251.720 144.960" />
<path fill="none" stroke="#000000" stroke-width="0.500" d="M330.690 153.070L385.290 65.710" />
<path fill="none" stroke="#000000" stroke-width="0.500" d="M330.690 153.070L305.860 131.470" />
<path fill="none" stroke="#000000" stroke-width="0.500" d="M385.290 65.710L387.780 29.420" />
<path fill="none" stroke="#000000" stroke-width="0.500" d="M385.290 65.710L330.690 153.070" />
<path fill="none" stroke="#000000" stroke-width="0.500" d="M387.780 29.420L393.050 2.490" />
<path fill="none" stroke="#000000" stroke-width="0.500" d="M387.780 29.420L385.290 65.710" />
<path fill="none" stroke="#000000" stroke-width="0.500" d="M393.050 2.490L387.780 29.420" />
<path fill="none" stroke="#000000" stroke-width="0.350" d="M35.980 212.650L39.980 212.650" />
<path fill="none" stroke="#000000" stroke-width="0.350" d="M37.980 210.650L37.980 214.650" />
<path fill="#ffffff" stroke="none" d="M38.780 212.650C38.780 212.862 38.696 213.066 38.546 213.216C38.396 213.366 38.192 213.450 37.980 213.450C37.768 213.450 37.564 213.366 37.414 213.216C37.264 213.066 37.180 212.862 37.180 212.650C37.180 212.438 37.264 212.234 37.414 212.084C37.564 211.934 37.768 211.850 37.980 211.850C38.192 211.850 38.396 211.934 38.546 212.084C38.696 212.234 38.780 212.438 38.780 212.650Z" />
<path fill="none" stroke="#000000" stroke-width="0.500" d="M37.980 212.650h0.001" />
<path fill="none" stroke="#000000" stroke-width="0.350" d="M0.950 227.510L4.950 227.510" />
<path fill="none" stroke="#000000" stroke-width="0.350" d="M2.950 225.510L2.950 229.510" />
<path fill="#ffffff" stroke="none" d="M3.750 227.510C3.750 227.722 3.666 227.926 3.516 228.076C3.366 228.226 3.162 228.310 2.950 228.310C2.738 228.310 2.534 228.226 2.384 228.076C2.234 227.926 2.150 227.722 2.150 227.510C2.150 227.298 2.234 227.094 2.384 226.944C2.534 226.794 2.738 226.710 2.950 226.710C3.162 226.710 3.366 226.794 3.516 226.944C3.666 227.094 3.750 227.298 3.750 227.510Z" />
<path fill="none" stroke="#000000" stroke-width="0.500" d="M2.950 227.510h0.001" />
<path fill="none" stroke="#000000" stroke-width="0.350" d="M67.900 209.310L71.900 209.310" />
<path fill="none" stroke="#000000" stroke-width="0.350" d="M69.900 207.310L69.900 211.310" />
<path fill="#ffffff" stroke="none" d="M70.700 209.310C70.700 209.522 70.616 209.726 70.466 209.876C70.316 210.026 70.112 210.110 69.900 210.110C69.688 210.110 69.484 210.026 69.334 209.876C69.184 209.726 69.100 209.522 69.100 209.310C69.100 209.098 69.184 208.894 69.334 208.744C69.484 208.594 69.688 208.510 69.900 208.510C70.112 208.510 70.316 208.594 70.466 208.744C70.616 208.894 70.700 209.098 70.700 209.310Z" />
<path fill="none" stroke="#000000" stroke-width="0.500" d="M69.900 209.310h0.001" />
<path fill="none" stroke="#000000" stroke-width="0.350" d="M59.400 191.050L63.400 191.050" />
<path fill="none" stroke="#000000" stroke-width="0.350" d="M61.400 189.050L61.400 193.050" />
<path fill="#ffffff" stroke="none" d="M62.200 191.050C62.200 191.262 62.116 191.466 61.966 191.616C61.816 191.766 61.612 191.850 61.400 191.850C61.188 191.850 60.984 191.766 60.834 191.616C60.684 191.466 60.600 191.262 60.600 191.050C60.600 190.838 60.684 190.634 60.834 190.484C60.984 190.334 61.188 190.250 61.400 190.250C61.612 190.250 61.816 190.334 61.966 190.484C62.116 190.634 62.200 190.838 62.200 191.050Z" />
<path fill="none" stroke="#000000" stroke-width="0.500" d="M61.400 191.050h0.001" />
<path fill="none" stroke="#000000" stroke-width="0.350" d="M86.270 169.280L90.270 169.280" />
<path fill="none" stroke="#000000" stroke-width="0.350" d="M88.270 167.280L88.270 171.280" />
<path fill="#ffffff" stroke="none" d="M89.070 169.280C89.070 169.492 88.986 169.696 88.836 169.846C88.686 169.996 88.482 170.080 88.270 170.080C88.058 170.080 87.854 169.996 87.704 169.846C87.554 169.696 87.470 169.492 87.470 169.280C87.470 169.068 87.554 168.864 87.704 168.714C87.854 168.564 88.058 168.480 88.270 168.480C88.482 168.480 88.686 168.564 88.836 168.714C88.986 168.864 89.070 169.068 89.070 169.280Z" />
<path fill="none" stroke="#000000" stroke-width="0.500" d="M88.270 169.280h0.001" />
<path fill="none" stroke="#000000" stroke-width="0.350" d="M98.290 185.840L102.290 185.840" />
<path fill="none" stroke="#000000" stroke-width="0.350" d="M100.290 183.840L100.290 187.840" />
<path fill="#ffffff" stroke="none" d="M101.090 185.840C101.090 186.052 101.006 186.256 100.856 186.406C100.706 186.556 100.502 186.640 100.290 186.640C100.078 186.640 99.874 186.556 99.724 186.406C99.574 186.256 99.490 186.052 99.490 185.840C99.490 185.628 99.574 185.424 99.724 185.274C99.874 185.124 100.078 185.040 100.290 185.040C100.502 185.040 100.706 185.124 100.856 185.274C101.006 185.424 101.090 185.628 101.090 185.840Z" />
<path fill="none" stroke="#000000" stroke-width="0.500" d="M100.290 185.840h0.001" />
<path fill="none" stroke="#000000" stroke-width="0.350" d="M100.050 206.300L104.050 206.300" />
<path fill="none" stroke="#000000" stroke-width="0.350" d="M102.050 204.300L102.050 208.300" />
<path fill="#ffffff" stroke="none" d="M102.850 206.300C102.850 206.512 102.766 206.716 102.616 206.866C102.466 207.016 102.262 207.100 102.050 207.100C101.838 207.100 101.634 207.016 101.484 206.866C101.334 206.716 101.250 206.512 101.250 206.300C101.250 206.088 101.334 205.884 101.484 205.734C101.634 205.584 101.838 205.500 102.050 205.500C102.262 205.500 102.466 205.584 102.616 205.734C102.766 205.884 102.850 206.088 102.850 206.300Z" />
<path fill="none" stroke="#000000" stroke-width="0.500" d="M102.050 206.300h0.001" />
<path fill="none" stroke="#000000" stroke-width="0.350" d="M111.610 208.170L115.610 208.170" />
<path fill="none" stroke="#000000" stroke-width="0.350" d="M113.610 206.170L113.610 210.170" />
<path fill="#ffffff" stroke="none" d="M114.410 208.170C114.410 208.382 114.326 208.586 114.176 208.736C114.026 208.886 113.822 208.970 113.610 208.970C113.398 208.970 113.194 208.886 113.044 208.736C112.894 208.586 112.810 208.382 112.810 208.170C112.810 207.958 112.894 207.754 113.044 207.604C113.194 207.454 113.398 207.370 113.610 207.370C113.822 207.370 114.026 207.454 114.176 207.604C114.326 207.754 114.410 207.958 114.410 208.170Z" />
<path fill="none" stroke="#000000" stroke-width="0.500" d="M113.610 208.170h0.001" />
<path fill="none" stroke="#000000" stroke-width="0.350" d="M132.140 199.440L136.140 199.440" />
<path fill="none" stroke="#000000" stroke-width="0.350" d="M134.140 197.440L134.140 201.440" />
<path fill="#ffffff" stroke="none" d="M134.940 199.440C134.940 199.652 134.856 199.856 134.706 200.006C134.556 200.156 134.352 200.240 134.140 200.240C133.928 200.240 133.724 200.156 133.574 200.006C133.424 199.856 133.340 199.652 133.340 199.440C133.340 199.228 133.424 199.024 133.574 198.874C133.724 198.724 133.928 198.640 134.140 198.640C134.352 198.640 134.556 198.724 134.706 198.874C134.856 199.024 134.940 199.228 134.940 199.440Z" />
<path fill="none" stroke="#000000" stroke-width="0.500" d="M134.140 199.440h0.001" />
<path fill="none" stroke="#000000" stroke-width="0.350" d="M162.410 193.550L166.410 193.550" />
<path fill="none" stroke="#000000" stroke-width="0.350" d="M164.410 191.550L164.410 195.550" />
<path fill="#ffffff" stroke="none" d="M165.210 193.550C165.210 193.762 165.126 193.966 164.976 194.116C164.826 194.266 164.622 194.350 164.410 194.350C164.198 194.350 163.994 194.266 163.844 194.116C163.694 193.966 163.610 193.762 163.610 193.550C163.610 193.338 163.694 193.134 163.844 192.984C163.994 192.834 164.198 192.750 164.410 192.750C164.622 192.750 164.826 192.834 164.976 192.984C165.126 193.134 165.210 193.338 165.210 193.550Z" />
<path fill="none" stroke="#000000" stroke-width="0.500" d="M164.410 193.550h0.001" />
<path fill="none" stroke="#000000" stroke-width="0.350" d="M178.280 175.290L182.280 175.290" />
<path fill="none" stroke="#000000" stroke-width="0.350" d="M180.280 173.290L180.280 177.290" />
<path fill="#ffffff" stroke="none" d="M181.080 175.290C181.080 175.502 180.996 175.706 180.846 175.856C180.696 176.006 180.492 176.090 180.280 176.090C180.068 176.090 179.864 176.006 179.714 175.856C179.564 175.706 179.480 175.502 179.480 175.290C179.480 175.078 179.564 174.874 179.714 174.724C179.864 174.574 180.068 174.490 180.280 174.490C180.492 174.490 180.696 174.574 180.846 174.724C180.996 174.874 181.080 175.078 181.080 175.290Z" />
<path fill="none" stroke="#000000" stroke-width="0.500" d="M180.280 175.290h0.001" />
<path fill="none" stroke="#000000" stroke-width="0.350" d="M249.720 144.960L253.720 144.960" />
<path fill="none" stroke="#000000" stroke-width="0.350" d="M251.720 142.960L251.720 146.960" />
<path fill="#ffffff" stroke="none" d="M252.520 144.960C252.520 145.172 252.436 145.376 252.286 145.526C252.136 145.676 251.932 145.760 251.720 145.760C251.508 145.760 251.304 145.676 251.154 145.526C251.004 145.376 250.920 145.172 250.920 144.960C250.920 144.748 251.004 144.544 251.154 144.394C251.304 144.244 251.508 144.160 251.720 144.160C251.932 144.160 252.136 144.244 252.286 144.394C252.436 144.544 252.520 144.748 252.520 144.960Z" />
<path fill="none" stroke="#000000" stroke-width="0.500" d="M251.720 144.960h0.001" />
<path fill="none" stroke="#000000" stroke-width="0.350" d="M303.860 131.470L307.860 131.470" />
<path fill="none" stroke="#000000" stroke-width="0.350" d="M305.860 129.470L305.860 133.470" />
<path fill="#ffffff" stroke="none" d="M306.660 131.470C306.660 131.682 306.576 131.886 306.426 132.036C306.276 132.186 306.072 132.270 305.860 132.270C305.648 132.270 305.444 132.186 305.294 132.036C305.144 131.886 305.060 131.682 305.060 131.470C305.060 131.258 305.144 131.054 305.294 130.904C305.444 130.754 305.648 130.670 305.860 130.670C306.072 130.670 306.276 130.754 306.426 130.904C306.576 131.054 306.660 131.258 306.660 131.470Z" />
<path fill="none" stroke="#000000" stroke-width="0.500" d="M305.860 131.470h0.001" />
<path fill="none" stroke="#000000" stroke-width="0.350" d="M328.690 153.070L332.690 153.070" />
<path fill="none" stroke="#000000" stroke-width="0.350" d="M330.690 151.070L330.690 155.070" />
<path fill="#ffffff" stroke="none" d="M331.490 153.070C331.490 153.282 331.406 153.486 331.256 153.636C331.106 153.786 330.902 153.870 330.690 153.870C330.478 153.870 330.274 153.786 330.124 153.636C329.974 153.486 329.890 153.282 329.890 153.070C329.890 152.858 329.974 152.654 330.124 152.504C330.274 152.354 330.478 152.270 330.690 152.270C330.902 152.270 331.106 152.354 331.256 152.504C331.406 152.654 331.490 152.858 331.490 153.070Z" />
<path fill="none" stroke="#000000" stroke-width="0.500" d="M330.690 153.070h0.001" />
<path fill="none" stroke="#000000" stroke-width="0.350" d="M383.290 65.710L387.290 65.710" />
<path fill="none" stroke="#000000" stroke-width="0.350" d="M385.290 63.710L385.290 67.710" />
<path fill="#ffffff" stroke="none" d="M386.090 65.710C386.090 65.922 386.006 66.126 385.856 66.276C385.706 66.426 385.502 66.510 385.290 66.510C385.078 66.510 384.874 66.426 384.724 66.276C384.574 66.126 384.490 65.922 384.490 65.710C384.490 65.498 384.574 65.294 384.724 65.144C384.874 64.994 385.078 64.910 385.290 64.910C385.502 64.910 385.706 64.994 385.856 65.144C386.006 65.294 386.090 65.498 386.090 65.710Z" />
<path fill="none" stroke="#000000" stroke-width="0.500" d="M385.290 65.710h0.001" />
<path fill="none" stroke="#000000" stroke-width="0.350" d="M385.780 29.420L389.780 29.420" />
<path fill="none" stroke="#000000" stroke-width="0.350" d="M387.780 27.420L387.780 31.420" />
<path fill="#ffffff" stroke="none" d="M388.580 29.420C388.580 29.632 388.496 29.836 388.346 29.986C388.196 30.136 387.992 30.220 387.780 30.220C387.568 30.220 387.364 30.136 387.214 29.986C387.064 29.836 386.980 29.632 386.980 29.420C386.980 29.208 387.064 29.004 387.214 28.854C387.364 28.704 387.568 28.620 387.780 28.620C387.992 28.620 388.196 28.704 388.346 28.854C388.496 29.004 388.580 29.208 388.580 29.420Z" />
<path fill="none" stroke="#000000" stroke-width="0.500" d="M387.780 29.420h0.001" />
<path fill="none" stroke="#000000" stroke-width="0.350" d="M391.050 2.490L395.050 2.490" />
<path fill="none" stroke="#000000" stroke-width="0.350" d="M393.050 0.490L393.050 4.490" />
<path fill="#ffffff" stroke="none" d="M393.850 2.490C393.850 2.702 393.766 2.906 393.616 3.056C393.466 3.206 393.262 3.290 393.050 3.290C392.838 3.290 392.634 3.206 392.484 3.056C392.334 2.906 392.250 2.702 392.250 2.490C392.250 2.278 392.334 2.074 392.484 1.924C392.634 1.774 392.838 1.690 393.050 1.690C393.262 1.690 393.466 1.774 393.616 1.924C393.766 2.074 393.850 2.278 393.850 2.490Z" />
<path fill="none" stroke="#000000" stroke-width="0.500" d="M393.050 2.490h0.001" />
</g>
<g id="X_aaaaaaa_smash.svg">
<text font-family="cmss10" font-size="6.974" fill="black" stroke="none" transform="matrix(1.000 0.000 -0.000 -1.000 35.855 210.525)">&#x32;</text>
<text font-family="cmss10" font-size="6.974" fill="black" stroke="none" transform="matrix(1.000 0.000 -0.000 -1.000 0.825 225.385)">&#x31;</text>
<text font-family="cmss10" font-size="6.974" fill="black" stroke="none" transform="matrix(1.000 0.000 -0.000 -1.000 67.775 207.185)">&#x33;</text>
<text font-family="cmss10" font-size="6.974" fill="black" stroke="none" transform="matrix(1.000 0.000 -0.000 -1.000 59.275 188.925)">&#x34;</text>
<text font-family="cmss10" font-size="6.974" fill="black" stroke="none" transform="matrix(1.000 0.000 -0.000 -1.000 86.145 167.155)">&#x35;</text>
<text font-family="cmss10" font-size="6.974" fill="black" stroke="none" transform="matrix(1.000 0.000 -0.000 -1.000 98.165 183.715)">&#x36;</text>
<text font-family="cmss10" font-size="6.974" fill="black" stroke="none" transform="matrix(1.000 0.000 -0.000 -1.000 99.925 204.175)">&#x37;</text>
<text font-family="cmss10" font-size="6.974" fill="black" stroke="none" transform="matrix(1.000 0.000 -0.000 -1.000 111.485 206.045)">&#x38;</text>
<text font-family="cmss10" font-size="6.974" fill="black" stroke="none" transform="matrix(1.000 0.000 -0.000 -1.000 132.015 197.315)">&#x39;</text>
<text font-family="cmss10" font-size="6.974" fill="black" stroke="none" transform="matrix(1.000 0.000 -0.000 -1.000 162.285 191.425)">&#x31;&#x30;</text>
<text font-family="cmss10" font-size="6.974" fill="black" stroke="none" transform="matrix(1.000 0.000 -0.000 -1.000 178.155 173.165)">&#x31;&#x31;</text>
<text font-family="cmss10" font-size="6.974" fill="black" stroke="none" transform="matrix(1.000 0.000 -0.000 -1.000 249.595 142.835)">&#x31;&#x32;</text>
<text font-family="cmss10" font-size="6.974" fill="black" stroke="none" transform="matrix(1.000 0.000 -0.000 -1.000 303.735 129.345)">&#x31;&#x33;</text>
<text font-family="cmss10" font-size="6.974" fill="black" stroke="none" transform="matrix(1.000 0.000 -0.000 -1.000 328.565 150.945)">&#x31;&#x34;</text>
<text font-family="cmss10" font-size="6.974" fill="black" stroke="none" transform="matrix(1.000 0.000 -0.000 -1.000 383.165 63.585)">&#x31;&#x35;</text>
<text font-family="cmss10" font-size="6.974" fill="black" stroke="none" transform="matrix(1.000 0.000 -0.000 -1.000 385.655 27.295)">&#x31;&#x36;</text>
<text font-family="cmss10" font-size="6.974" fill="black" stroke="none" transform="matrix(1.000 0.000 -0.000 -1.000 390.925 0.365)">&#x31;&#x37;</text>
</g>
<clipPath id="clip_viewBox">
<path d="M-66.331 -241.000L391.362 -241.000L391.362 48.693L-66.331 48.693z" />
</clipPath>
</defs>
<g transform="scale(1,-1)" fill="#000000" stroke="#000000" stroke-linecap="round" stroke-linejoin="round" stroke-miterlimit="10" fill-rule="evenodd" clip-rule="evenodd" clip-path="url(#clip_viewBox)">
<use x="-37.984" y="-212.654" xlink:href="#E_aaaaaaa_smash.svg" />
<use x="-34.984" y="-209.654" xlink:href="#X_aaaaaaa_smash.svg" />
</g>
</svg>
