<?xml version="1.0" encoding="UTF-8" standalone="no"?>
<svg
   xmlns:dc="http://purl.org/dc/elements/1.1/"
   xmlns:cc="http://creativecommons.org/ns#"
   xmlns:rdf="http://www.w3.org/1999/02/22-rdf-syntax-ns#"
   xmlns:svg="http://www.w3.org/2000/svg"
   xmlns="http://www.w3.org/2000/svg"
   xmlns:sodipodi="http://sodipodi.sourceforge.net/DTD/sodipodi-0.dtd"
   xmlns:inkscape="http://www.inkscape.org/namespaces/inkscape"
   version="1.1"
   width="710.240mm"
   height="594.000mm"
   viewBox="0 0 710.240 594.000"
   id="svg195"
   sodipodi:docname="alabaster_extend.svg"
   inkscape:version="0.92.2 5c3e80d, 2017-08-06">
  <metadata
     id="metadata201">
    <rdf:RDF>
      <cc:Work
         rdf:about="">
        <dc:format>image/svg+xml</dc:format>
        <dc:type
           rdf:resource="http://purl.org/dc/dcmitype/StillImage" />
      </cc:Work>
    </rdf:RDF>
  </metadata>
  <defs
     id="defs199" />
  <sodipodi:namedview
     pagecolor="#ffffff"
     bordercolor="#666666"
     borderopacity="1"
     objecttolerance="10"
     gridtolerance="10"
     guidetolerance="10"
     inkscape:pageopacity="0"
     inkscape:pageshadow="2"
     inkscape:window-width="1354"
     inkscape:window-height="749"
     id="namedview197"
     showgrid="false"
     inkscape:zoom="0.84096521"
     inkscape:cx="1203.4886"
     inkscape:cy="1059.6697"
     inkscape:window-x="0"
     inkscape:window-y="0"
     inkscape:window-maximized="0"
     inkscape:current-layer="svg195" />
  <title
     id="title2">alabaster</title>
  <path
     style="fill:none;stroke:#000000;stroke-width:0.40000001px"
     d="M 206.16,205 205,205.04"
     id="path4"
     inkscape:connector-curvature="0" />
  <path
     style="fill:none;stroke:#000000;stroke-width:0.40000001px"
     d="M 223.52,207.76 206.16,205"
     id="path6"
     inkscape:connector-curvature="0" />
  <path
     style="fill:none;stroke:#000000;stroke-width:0.40000001px"
     d="m 246,212.96 -22.48,-5.2"
     id="path8"
     inkscape:connector-curvature="0" />
  <path
     style="fill:none;stroke:#000000;stroke-width:0.40000001px"
     d="M 254.88,214.84 246,212.96"
     id="path10"
     inkscape:connector-curvature="0" />
  <path
     style="fill:none;stroke:#000000;stroke-width:0.40000001px"
     d="m 276.4,215.6 -21.52,-0.76"
     id="path12"
     inkscape:connector-curvature="0" />
  <path
     style="fill:none;stroke:#000000;stroke-width:0.40000001px"
     d="M 294,221.64 276.4,215.6"
     id="path14"
     inkscape:connector-curvature="0" />
  <path
     style="fill:none;stroke:#000000;stroke-width:0.40000001px"
     d="M 304.64,223.72 294,221.64"
     id="path16"
     inkscape:connector-curvature="0" />
  <path
     style="fill:none;stroke:#000000;stroke-width:0.40000001px"
     d="m 324.36,230.88 -19.72,-7.16"
     id="path18"
     inkscape:connector-curvature="0" />
  <path
     style="fill:none;stroke:#000000;stroke-width:0.40000001px"
     d="M 335.52,256.04 324.36,230.88"
     id="path20"
     inkscape:connector-curvature="0" />
  <path
     style="fill:none;stroke:#000000;stroke-width:0.40000001px"
     d="m 363.36,259.92 -27.84,-3.88"
     id="path22"
     inkscape:connector-curvature="0" />
  <path
     style="fill:none;stroke:#000000;stroke-width:0.40000001px"
     d="m 358.08537,270.4 5.12,-10.48"
     id="path24"
     inkscape:connector-curvature="0" />
  <path
     style="fill:none;stroke:#000000;stroke-width:0.40000001px"
     d="m 338.32537,271.08 19.76,-0.68"
     id="path26"
     inkscape:connector-curvature="0" />
  <path
     style="fill:none;stroke:#000000;stroke-width:0.40000001px"
     d="m 328.84537,276.32 9.48,-5.24"
     id="path28"
     inkscape:connector-curvature="0" />
  <path
     style="fill:none;stroke:#000000;stroke-width:0.40000001px"
     d="m 328.84537,291.72 v -15.4"
     id="path30"
     inkscape:connector-curvature="0" />
  <path
     style="fill:none;stroke:#000000;stroke-width:0.40000001px"
     d="m 324.04537,290.96 4.8,0.76"
     id="path32"
     inkscape:connector-curvature="0" />
  <path
     style="fill:none;stroke:#000000;stroke-width:0.40000001px"
     d="m 330.27727,315 -6,-24.04"
     id="path34"
     inkscape:connector-curvature="0" />
  <path
     style="fill:none;stroke:#000000;stroke-width:0.40000001px"
     d="m 340.83727,322.4 -10.56,-7.4"
     id="path36"
     inkscape:connector-curvature="0" />
  <path
     style="fill:none;stroke:#000000;stroke-width:0.40000001px"
     d="m 340.8229,322.4 -26.32,-7.56"
     id="path38"
     inkscape:connector-curvature="0" />
  <path
     style="fill:none;stroke:#000000;stroke-width:0.40000001px"
     d="m 314.5029,314.84 -9.88,-7.44"
     id="path40"
     inkscape:connector-curvature="0" />
  <path
     style="fill:none;stroke:#000000;stroke-width:0.40000001px"
     d="m 304.6229,307.4 -15.52,-6.92"
     id="path42"
     inkscape:connector-curvature="0" />
  <path
     style="fill:none;stroke:#000000;stroke-width:0.40000001px"
     d="m 289.1029,300.48 -25.88,-3.64"
     id="path44"
     inkscape:connector-curvature="0" />
  <path
     style="fill:none;stroke:#000000;stroke-width:0.40000001px"
     d="m 263.2229,296.84 -8.56,3.8"
     id="path46"
     inkscape:connector-curvature="0" />
  <path
     style="fill:none;stroke:#000000;stroke-width:0.40000001px"
     d="m 349.55727,327.64 -8.72,-5.24"
     id="path48"
     inkscape:connector-curvature="0" />
  <path
     style="fill:none;stroke:#000000;stroke-width:0.40000001px"
     d="m 367.91727,336.6 -18.36,-8.96"
     id="path50"
     inkscape:connector-curvature="0" />
  <path
     style="fill:none;stroke:#000000;stroke-width:0.40000001px"
     d="m 375.23727,389 -7.32,-52.4"
     id="path52"
     inkscape:connector-curvature="0" />
  <text
     style="font-size:3.52777787px;"
     id="text55"
     x="205"
     y="205.03999">26</text>
  <text
     style="font-size:3.52777787px;"
     id="text57"
     x="205"
     y="205.03999">sweet_baby_jesus.1</text>
  <text
     style="font-size:3.52777791px"
     id="text59"
     x="375.23709"
     y="389">1</text>
  <text
     style="font-size:3.52777791px"
     id="text61"
     x="367.91708"
     y="336.60001">2</text>
  <text
     style="font-size:3.52777791px"
     id="text63"
     x="349.55707"
     y="327.64001">3</text>
  <text
     style="font-size:3.52777791px"
     id="text65"
     x="338.60434"
     y="322.39999">4</text>
  <text
     style="font-size:3.52777791px"
     id="text67"
     x="312.29462"
     y="314.84">5</text>
  <text
     style="font-size:3.52777791px"
     id="text69"
     x="302.35437"
     y="307.39999">6</text>
  <text
     style="font-size:3.52777791px"
     id="text71"
     x="286.87051"
     y="300.48001">7</text>
  <text
     style="font-size:3.52777791px"
     id="text73"
     x="-263.22302"
     y="296.84"
     transform="scale(-1,1)">8</text>
  <text
     style="font-size:3.52777791px"
     id="text75"
     x="252.44435"
     y="300.64001">9</text>
  <text
     style="font-size:3.52777791px"
     id="text77"
     x="330.27707"
     y="315">10</text>
  <text
     style="font-size:3.52777791px"
     id="text79"
     x="319.49277"
     y="290.95999">11</text>
  <text
     style="font-size:3.52777791px"
     id="text81"
     x="324.32031"
     y="291.72">12</text>
  <text
     style="font-size:3.52777791px"
     id="text83"
     x="324.24969"
     y="276.32001">13</text>
  <text
     style="font-size:3.52777791px"
     id="text85"
     x="333.64529"
     y="271.07999">14</text>
  <text
     style="font-size:3.52777791px"
     id="text87"
     x="353.51553"
     y="270.39999">15</text>
  <text
     style="font-size:3.52777791px"
     id="text89"
     x="358.54944"
     y="259.92001">16</text>
  <text
     style="font-size:3.52777787px;"
     id="text91"
     x="335.51999"
     y="256.04001">17</text>
  <text
     style="font-size:3.52777787px;"
     id="text93"
     x="324.35999"
     y="230.88">18</text>
  <text
     style="font-size:3.52777787px;"
     id="text95"
     x="304.64001"
     y="223.72">19</text>
  <text
     style="font-size:3.52777787px;"
     id="text97"
     x="294"
     y="221.64">20</text>
  <text
     style="font-size:3.52777787px;"
     id="text99"
     x="276.39999"
     y="215.60001">21</text>
  <text
     style="font-size:3.52777787px;"
     id="text101"
     x="254.88"
     y="214.84">22</text>
  <text
     style="font-size:3.52777787px;"
     id="text103"
     x="246"
     y="212.96001">23</text>
  <text
     style="font-size:3.52777787px;"
     id="text105"
     x="223.52"
     y="207.75999">24</text>
  <text
     style="font-size:3.52777787px;"
     id="text107"
     x="206.16"
     y="205">25</text>
  <circle
     style="fill:none;stroke:#000000;stroke-width:0.05px"
     id="alabaster.26"
     cx="205"
     cy="205.04001"
     r="1.131" />
  <path
     style="fill:none;stroke:#000000;stroke-width:0.05px"
     d="m 204.2,204.24 1.6,1.6 m 0,-1.6 -1.6,1.6"
     id="path111"
     inkscape:connector-curvature="0" />
  <circle
     style="fill:none;stroke:#000000;stroke-width:0.05px"
     id="circle113"
     cx="205"
     cy="205.04001"
     r="1.131" />
  <path
     style="fill:none;stroke:#000000;stroke-width:0.05px"
     d="m 204.2,204.24 1.6,1.6 m 0,-1.6 -1.6,1.6"
     id="path115"
     inkscape:connector-curvature="0" />
  <circle
     style="fill:none;stroke:#000000;stroke-width:0.05px"
     id="alabaster.1"
     cx="375.23709"
     cy="389"
     r="1.131" />
  <path
     style="fill:none;stroke:#000000;stroke-width:0.05px"
     d="m 374.43727,388.2 1.6,1.6 m 0,-1.6 -1.6,1.6"
     id="path118"
     inkscape:connector-curvature="0" />
  <circle
     style="fill:none;stroke:#000000;stroke-width:0.05px"
     id="alabaster.2"
     cx="367.91708"
     cy="336.60001"
     r="1.131" />
  <path
     style="fill:none;stroke:#000000;stroke-width:0.05px"
     d="m 367.11727,335.8 1.6,1.6 m 0,-1.6 -1.6,1.6"
     id="path121"
     inkscape:connector-curvature="0" />
  <circle
     style="fill:none;stroke:#000000;stroke-width:0.05px"
     id="alabaster.3"
     cx="349.55707"
     cy="327.64001"
     r="1.131" />
  <path
     style="fill:none;stroke:#000000;stroke-width:0.05px"
     d="m 348.75727,326.84 1.6,1.6 m 0,-1.6 -1.6,1.6"
     id="path124"
     inkscape:connector-curvature="0" />
  <circle
     style="fill:none;stroke:#000000;stroke-width:0.05px"
     id="alabaster.4"
     cx="-340.82297"
     cy="322.39999"
     r="1.131"
     transform="scale(-1,1)" />
  <path
     style="fill:none;stroke:#000000;stroke-width:0.05px"
     d="m 341.6229,321.6 -1.6,1.6 m 0,-1.6 1.6,1.6"
     id="path127"
     inkscape:connector-curvature="0" />
  <circle
     style="fill:none;stroke:#000000;stroke-width:0.05px"
     id="alabaster.5"
     cx="-314.50293"
     cy="314.84"
     r="1.131"
     transform="scale(-1,1)" />
  <path
     style="fill:none;stroke:#000000;stroke-width:0.05px"
     d="m 315.3029,314.04 -1.6,1.6 m 0,-1.6 1.6,1.6"
     id="path130"
     inkscape:connector-curvature="0" />
  <circle
     style="fill:none;stroke:#000000;stroke-width:0.05px"
     id="alabaster.6"
     cx="-304.62296"
     cy="307.39999"
     r="1.131"
     transform="scale(-1,1)" />
  <path
     style="fill:none;stroke:#000000;stroke-width:0.05px"
     d="m 305.4229,306.6 -1.6,1.6 m 0,-1.6 1.6,1.6"
     id="path133"
     inkscape:connector-curvature="0" />
  <circle
     style="fill:none;stroke:#000000;stroke-width:0.05px"
     id="alabaster.7"
     cx="-289.10294"
     cy="300.48001"
     r="1.131"
     transform="scale(-1,1)" />
  <path
     style="fill:none;stroke:#000000;stroke-width:0.05px"
     d="m 289.9029,299.68 -1.6,1.6 m 0,-1.6 1.6,1.6"
     id="path136"
     inkscape:connector-curvature="0" />
  <circle
     style="fill:none;stroke:#000000;stroke-width:0.05px"
     id="alabaster.8"
     cx="-263.22302"
     cy="296.84"
     r="1.131"
     transform="scale(-1,1)" />
  <path
     style="fill:none;stroke:#000000;stroke-width:0.05px"
     d="m 264.0229,296.04 -1.6,1.6 m 0,-1.6 1.6,1.6"
     id="path139"
     inkscape:connector-curvature="0" />
  <circle
     style="fill:none;stroke:#000000;stroke-width:0.05px"
     id="alabaster.9"
     cx="-254.66299"
     cy="300.64001"
     r="1.131"
     transform="scale(-1,1)" />
  <path
     style="fill:none;stroke:#000000;stroke-width:0.05px"
     d="m 255.4629,299.84 -1.6,1.6 m 0,-1.6 1.6,1.6"
     id="path142"
     inkscape:connector-curvature="0" />
  <circle
     style="fill:none;stroke:#000000;stroke-width:0.05px"
     id="alabaster.10"
     cx="330.27707"
     cy="315"
     r="1.131" />
  <path
     style="fill:none;stroke:#000000;stroke-width:0.05px"
     d="m 329.47727,314.2 1.6,1.6 m 0,-1.6 -1.6,1.6"
     id="path145"
     inkscape:connector-curvature="0" />
  <circle
     style="fill:none;stroke:#000000;stroke-width:0.05px"
     id="alabaster.11"
     cx="-324.04547"
     cy="290.95999"
     r="1.131"
     transform="scale(-1,1)" />
  <path
     style="fill:none;stroke:#000000;stroke-width:0.05px"
     d="m 324.84537,290.16 -1.6,1.6 m 0,-1.6 1.6,1.6"
     id="path148"
     inkscape:connector-curvature="0" />
  <circle
     style="fill:none;stroke:#000000;stroke-width:0.05px"
     id="alabaster.12"
     cx="-328.84546"
     cy="291.72"
     r="1.131"
     transform="scale(-1,1)" />
  <path
     style="fill:none;stroke:#000000;stroke-width:0.05px"
     d="m 329.64537,290.92 -1.6,1.6 m 0,-1.6 1.6,1.6"
     id="path151"
     inkscape:connector-curvature="0" />
  <circle
     style="fill:none;stroke:#000000;stroke-width:0.05px"
     id="alabaster.13"
     cx="-328.84546"
     cy="276.32001"
     r="1.131"
     transform="scale(-1,1)" />
  <path
     style="fill:none;stroke:#000000;stroke-width:0.05px"
     d="m 329.64537,275.52 -1.6,1.6 m 0,-1.6 1.6,1.6"
     id="path154"
     inkscape:connector-curvature="0" />
  <circle
     style="fill:none;stroke:#000000;stroke-width:0.05px"
     id="alabaster.14"
     cx="-338.32547"
     cy="271.07999"
     r="1.131"
     transform="scale(-1,1)" />
  <path
     style="fill:none;stroke:#000000;stroke-width:0.05px"
     d="m 339.12537,270.28 -1.6,1.6 m 0,-1.6 1.6,1.6"
     id="path157"
     inkscape:connector-curvature="0" />
  <circle
     style="fill:none;stroke:#000000;stroke-width:0.05px"
     id="alabaster.15"
     cx="-358.08545"
     cy="270.39999"
     r="1.131"
     transform="scale(-1,1)" />
  <path
     style="fill:none;stroke:#000000;stroke-width:0.05px"
     d="m 358.88537,269.6 -1.6,1.6 m 0,-1.6 1.6,1.6"
     id="path160"
     inkscape:connector-curvature="0" />
  <circle
     style="fill:none;stroke:#000000;stroke-width:0.05px"
     id="alabaster.16"
     cx="-363.20547"
     cy="259.92001"
     r="1.131"
     transform="scale(-1,1)" />
  <path
     style="fill:none;stroke:#000000;stroke-width:0.05px"
     d="m 364.00537,259.12 -1.6,1.6 m 0,-1.6 1.6,1.6"
     id="path163"
     inkscape:connector-curvature="0" />
  <circle
     style="fill:none;stroke:#000000;stroke-width:0.05px"
     id="alabaster.17"
     cx="335.51999"
     cy="256.04001"
     r="1.131" />
  <path
     style="fill:none;stroke:#000000;stroke-width:0.05px"
     d="m 334.72,255.24 1.6,1.6 m 0,-1.6 -1.6,1.6"
     id="path166"
     inkscape:connector-curvature="0" />
  <circle
     style="fill:none;stroke:#000000;stroke-width:0.05px"
     id="alabaster.18"
     cx="324.35999"
     cy="230.88"
     r="1.131" />
  <path
     style="fill:none;stroke:#000000;stroke-width:0.05px"
     d="m 323.56,230.08 1.6,1.6 m 0,-1.6 -1.6,1.6"
     id="path169"
     inkscape:connector-curvature="0" />
  <circle
     style="fill:none;stroke:#000000;stroke-width:0.05px"
     id="alabaster.19"
     cx="304.64001"
     cy="223.72"
     r="1.131" />
  <path
     style="fill:none;stroke:#000000;stroke-width:0.05px"
     d="m 303.84,222.92 1.6,1.6 m 0,-1.6 -1.6,1.6"
     id="path172"
     inkscape:connector-curvature="0" />
  <circle
     style="fill:none;stroke:#000000;stroke-width:0.05px"
     id="alabaster.20"
     cx="294"
     cy="221.64001"
     r="1.131" />
  <path
     style="fill:none;stroke:#000000;stroke-width:0.05px"
     d="m 293.2,220.84 1.6,1.6 m 0,-1.6 -1.6,1.6"
     id="path175"
     inkscape:connector-curvature="0" />
  <circle
     style="fill:none;stroke:#000000;stroke-width:0.05px"
     id="alabaster.21"
     cx="276.39999"
     cy="215.60001"
     r="1.131" />
  <path
     style="fill:none;stroke:#000000;stroke-width:0.05px"
     d="m 275.6,214.8 1.6,1.6 m 0,-1.6 -1.6,1.6"
     id="path178"
     inkscape:connector-curvature="0" />
  <circle
     style="fill:none;stroke:#000000;stroke-width:0.05px"
     id="alabaster.22"
     cx="254.88"
     cy="214.84"
     r="1.131" />
  <path
     style="fill:none;stroke:#000000;stroke-width:0.05px"
     d="m 254.08,214.04 1.6,1.6 m 0,-1.6 -1.6,1.6"
     id="path181"
     inkscape:connector-curvature="0" />
  <circle
     style="fill:none;stroke:#000000;stroke-width:0.05px"
     id="alabaster.23"
     cx="246"
     cy="212.95999"
     r="1.131" />
  <path
     style="fill:none;stroke:#000000;stroke-width:0.05px"
     d="m 245.2,212.16 1.6,1.6 m 0,-1.6 -1.6,1.6"
     id="path184"
     inkscape:connector-curvature="0" />
  <circle
     style="fill:none;stroke:#000000;stroke-width:0.05px"
     id="alabaster.24"
     cx="223.52"
     cy="207.76001"
     r="1.131" />
  <path
     style="fill:none;stroke:#000000;stroke-width:0.05px"
     d="m 222.72,206.96 1.6,1.6 m 0,-1.6 -1.6,1.6"
     id="path187"
     inkscape:connector-curvature="0" />
  <circle
     style="fill:none;stroke:#000000;stroke-width:0.05px"
     id="alabaster.25"
     cx="206.16"
     cy="205"
     r="1.131" />
  <path
     style="fill:none;stroke:#000000;stroke-width:0.05px"
     d="m 205.36,204.2 1.6,1.6 m 0,-1.6 -1.6,1.6"
     id="path190"
     inkscape:connector-curvature="0" />
</svg>
