<?xml version="1.0" encoding="ISO-8859-1"?>
<svg version="1.1" baseProfile="full"
xmlns="http://www.w3.org/2000/svg"
xmlns:xlink="http://www.w3.org/1999/xlink"
xmlns:ev="http://www.w3.org/2001/xml-events"
width="549.400mm" height="603.360mm"
viewBox="0 0 549.400 603.360">
<title>Colony</title>
<g transform="translate(5.000 598.360)">
<g id="Legs" stroke="black" fill="none" stroke-width="0.4px">
<path d="M203.760 -390.280L200.000 -393.360"/>
<path d="M206.000 -381.360L203.760 -390.280"/>
<path d="M213.080 -378.200L206.000 -381.360"/>
<path d="M235.440 -373.880L213.080 -378.200"/>
<path d="M252.960 -368.160L235.440 -373.880"/>
<path d="M263.560 -371.840L252.960 -368.160"/>
<path d="M294.280 -380.040L263.560 -371.840"/>
<path d="M339.400 -384.000L294.280 -380.040"/>
<path d="M339.400 -384.000L339.400 -200.000"/>
</g>
<g id="Labels" font-size="0.600em">
<text transform="translate(339.400 -384.000)">colony.1</text>
<text transform="translate(294.280 -380.040)">colony.2</text>
<text transform="translate(263.560 -371.840)">colony.3</text>
<text transform="translate(252.960 -368.160)">colony.4</text>
<text transform="translate(235.440 -373.880)">colony.5</text>
<text transform="translate(213.080 -378.200)">colony.6</text>
<text transform="translate(206.000 -381.360)">colony.7</text>
<text transform="translate(203.760 -390.280)">colony.8</text>
<text transform="translate(200.000 -393.360)">colony.9</text>
<text transform="translate(339.400 -200.000)">colony.10</text>
</g>
<g id="Stations" stroke="black" fill="none" stroke-width="0.05px">
<circle id="colony.1" cx="339.400" cy="-384.000" r="1.131"/>
<path d="M338.600 -384.800L340.200 -383.200M340.200 -384.800L338.600 -383.200"/>
<circle id="colony.2" cx="294.280" cy="-380.040" r="1.131"/>
<path d="M293.480 -380.840L295.080 -379.240M295.080 -380.840L293.480 -379.240"/>
<circle id="colony.3" cx="263.560" cy="-371.840" r="1.131"/>
<path d="M262.760 -372.640L264.360 -371.040M264.360 -372.640L262.760 -371.040"/>
<circle id="colony.4" cx="252.960" cy="-368.160" r="1.131"/>
<path d="M252.160 -368.960L253.760 -367.360M253.760 -368.960L252.160 -367.360"/>
<circle id="colony.5" cx="235.440" cy="-373.880" r="1.131"/>
<path d="M234.640 -374.680L236.240 -373.080M236.240 -374.680L234.640 -373.080"/>
<circle id="colony.6" cx="213.080" cy="-378.200" r="1.131"/>
<path d="M212.280 -379.000L213.880 -377.400M213.880 -379.000L212.280 -377.400"/>
<circle id="colony.7" cx="206.000" cy="-381.360" r="1.131"/>
<path d="M205.200 -382.160L206.800 -380.560M206.800 -382.160L205.200 -380.560"/>
<circle id="colony.8" cx="203.760" cy="-390.280" r="1.131"/>
<path d="M202.960 -391.080L204.560 -389.480M204.560 -391.080L202.960 -389.480"/>
<circle id="colony.9" cx="200.000" cy="-393.360" r="1.131"/>
<path d="M199.200 -394.160L200.800 -392.560M200.800 -394.160L199.200 -392.560"/>
<circle id="colony.10" cx="339.400" cy="-200.000" r="1.131"/>
<path d="M338.600 -200.800L340.200 -199.200M340.200 -200.800L338.600 -199.200"/>
</g>
</g>
</svg>
