<?xml version="1.0" encoding="ISO-8859-1"?>
<svg version="1.1" baseProfile="full"
xmlns="http://www.w3.org/2000/svg"
xmlns:xlink="http://www.w3.org/1999/xlink"
xmlns:ev="http://www.w3.org/2001/xml-events"
width="497.200mm" height="476.720mm"
viewBox="0 0 497.200 476.720">
<title>penny_falls_2</title>
<g transform="translate(5.000 471.720)">
<g id="Legs" stroke="black" fill="none" stroke-width="0.4px">
<path d="M231.640 -240.160L200.000 -266.720"/>
<path d="M231.640 -240.160L231.640 -205.680"/>
<path d="M231.640 -240.160L242.640 -240.160"/>
<path d="M242.640 -240.160L287.200 -200.000"/>
</g>
<g id="Labels" font-size="0.600em">
<text transform="translate(200.000 -266.720)">penny_falls_2.1</text>
<text transform="translate(200.000 -266.720)">penny_falls.1</text>
<text transform="translate(231.640 -240.160)">penny_falls_2.2</text>
<text transform="translate(242.640 -240.160)">penny_falls_2.3</text>
<text transform="translate(287.200 -200.000)">penny_falls_2.4</text>
<text transform="translate(231.640 -205.680)">penny_falls_2.5</text>
</g>
<g id="Stations" stroke="black" fill="none" stroke-width="0.05px">
<circle id="penny_falls_2.1" cx="200.000" cy="-266.720" r="1.131"/>
<path d="M199.200 -267.520L200.800 -265.920M200.800 -267.520L199.200 -265.920"/>
<circle id="penny_falls_2.1" cx="200.000" cy="-266.720" r="1.131"/>
<path d="M199.200 -267.520L200.800 -265.920M200.800 -267.520L199.200 -265.920"/>
<circle id="penny_falls_2.2" cx="231.640" cy="-240.160" r="1.131"/>
<path d="M230.840 -240.960L232.440 -239.360M232.440 -240.960L230.840 -239.360"/>
<circle id="penny_falls_2.3" cx="242.640" cy="-240.160" r="1.131"/>
<path d="M241.840 -240.960L243.440 -239.360M243.440 -240.960L241.840 -239.360"/>
<circle id="penny_falls_2.4" cx="287.200" cy="-200.000" r="1.131"/>
<path d="M286.400 -200.800L288.000 -199.200M288.000 -200.800L286.400 -199.200"/>
<circle id="penny_falls_2.5" cx="231.640" cy="-205.680" r="1.131"/>
<path d="M230.840 -206.480L232.440 -204.880M232.440 -206.480L230.840 -204.880"/>
</g>
</g>
</svg>
