<?xml version="1.0" encoding="ISO-8859-1"?>
<svg version="1.1" baseProfile="full"
xmlns="http://www.w3.org/2000/svg"
xmlns:xlink="http://www.w3.org/1999/xlink"
xmlns:ev="http://www.w3.org/2001/xml-events"
width="571.800mm" height="566.800mm"
viewBox="0 0 571.800 566.800">
<title>more_like_welding</title>
<g transform="translate(5.000 561.800)">
<g id="Legs" stroke="black" fill="none" stroke-width="0.4px">
<path d="M207.360 -356.800L200.000 -356.640"/>
<path d="M207.360 -287.960L207.360 -356.800"/>
<path d="M272.080 -273.000L207.360 -287.960"/>
<path d="M272.080 -273.000L302.800 -271.920"/>
<path d="M302.800 -271.920L317.120 -268.120"/>
<path d="M317.120 -268.120L317.120 -258.120"/>
<path d="M302.800 -271.920L326.920 -258.560"/>
<path d="M326.920 -258.560L335.520 -237.240"/>
<path d="M335.520 -237.240L335.520 -222.680"/>
<path d="M286.240 -281.520L272.080 -273.000"/>
<path d="M311.480 -281.520L286.240 -281.520"/>
<path d="M354.200 -269.280L311.480 -281.520"/>
<path d="M354.200 -204.400L354.200 -269.280"/>
<path d="M361.800 -200.000L354.200 -204.400"/>
</g>
<g id="Labels" font-size="0.600em">
<text transform="translate(361.800 -200.000)">more_like_welding.1</text>
<text transform="translate(200.000 -356.640)">more_like_welding.15</text>
<text transform="translate(200.000 -356.640)">electric_dreams.1</text>
<text transform="translate(361.800 -200.000)">mighty_fine_indeed.1</text>
<text transform="translate(354.200 -204.400)">more_like_welding.2</text>
<text transform="translate(354.200 -269.280)">more_like_welding.3</text>
<text transform="translate(311.480 -281.520)">more_like_welding.4</text>
<text transform="translate(286.240 -281.520)">more_like_welding.5</text>
<text transform="translate(272.080 -273.000)">more_like_welding.6</text>
<text transform="translate(335.520 -222.680)">more_like_welding.7</text>
<text transform="translate(335.520 -237.240)">more_like_welding.8</text>
<text transform="translate(326.920 -258.560)">more_like_welding.9</text>
<text transform="translate(302.800 -271.920)">more_like_welding.10</text>
<text transform="translate(317.120 -268.120)">more_like_welding.11</text>
<text transform="translate(317.120 -258.120)">more_like_welding.12</text>
<text transform="translate(207.360 -287.960)">more_like_welding.13</text>
<text transform="translate(207.360 -356.800)">more_like_welding.14</text>
</g>
<g id="Stations" stroke="black" fill="none" stroke-width="0.05px">
<circle id="more_like_welding.1" cx="361.800" cy="-200.000" r="1.131"/>
<path d="M361.000 -200.800L362.600 -199.200M362.600 -200.800L361.000 -199.200"/>
<circle id="more_like_welding.15" cx="200.000" cy="-356.640" r="1.131"/>
<path d="M199.200 -357.440L200.800 -355.840M200.800 -357.440L199.200 -355.840"/>
<circle id="more_like_welding.15" cx="200.000" cy="-356.640" r="1.131"/>
<path d="M199.200 -357.440L200.800 -355.840M200.800 -357.440L199.200 -355.840"/>
<circle id="more_like_welding.1" cx="361.800" cy="-200.000" r="1.131"/>
<path d="M361.000 -200.800L362.600 -199.200M362.600 -200.800L361.000 -199.200"/>
<circle id="more_like_welding.2" cx="354.200" cy="-204.400" r="1.131"/>
<path d="M353.400 -205.200L355.000 -203.600M355.000 -205.200L353.400 -203.600"/>
<circle id="more_like_welding.3" cx="354.200" cy="-269.280" r="1.131"/>
<path d="M353.400 -270.080L355.000 -268.480M355.000 -270.080L353.400 -268.480"/>
<circle id="more_like_welding.4" cx="311.480" cy="-281.520" r="1.131"/>
<path d="M310.680 -282.320L312.280 -280.720M312.280 -282.320L310.680 -280.720"/>
<circle id="more_like_welding.5" cx="286.240" cy="-281.520" r="1.131"/>
<path d="M285.440 -282.320L287.040 -280.720M287.040 -282.320L285.440 -280.720"/>
<circle id="more_like_welding.6" cx="272.080" cy="-273.000" r="1.131"/>
<path d="M271.280 -273.800L272.880 -272.200M272.880 -273.800L271.280 -272.200"/>
<circle id="more_like_welding.7" cx="335.520" cy="-222.680" r="1.131"/>
<path d="M334.720 -223.480L336.320 -221.880M336.320 -223.480L334.720 -221.880"/>
<circle id="more_like_welding.8" cx="335.520" cy="-237.240" r="1.131"/>
<path d="M334.720 -238.040L336.320 -236.440M336.320 -238.040L334.720 -236.440"/>
<circle id="more_like_welding.9" cx="326.920" cy="-258.560" r="1.131"/>
<path d="M326.120 -259.360L327.720 -257.760M327.720 -259.360L326.120 -257.760"/>
<circle id="more_like_welding.10" cx="302.800" cy="-271.920" r="1.131"/>
<path d="M302.000 -272.720L303.600 -271.120M303.600 -272.720L302.000 -271.120"/>
<circle id="more_like_welding.11" cx="317.120" cy="-268.120" r="1.131"/>
<path d="M316.320 -268.920L317.920 -267.320M317.920 -268.920L316.320 -267.320"/>
<circle id="more_like_welding.12" cx="317.120" cy="-258.120" r="1.131"/>
<path d="M316.320 -258.920L317.920 -257.320M317.920 -258.920L316.320 -257.320"/>
<circle id="more_like_welding.13" cx="207.360" cy="-287.960" r="1.131"/>
<path d="M206.560 -288.760L208.160 -287.160M208.160 -288.760L206.560 -287.160"/>
<circle id="more_like_welding.14" cx="207.360" cy="-356.800" r="1.131"/>
<path d="M206.560 -357.600L208.160 -356.000M208.160 -357.600L206.560 -356.000"/>
</g>
</g>
</svg>
