<?xml version="1.0" encoding="ISO-8859-1"?>
<svg version="1.1" baseProfile="full"
xmlns="http://www.w3.org/2000/svg"
xmlns:xlink="http://www.w3.org/1999/xlink"
xmlns:ev="http://www.w3.org/2001/xml-events"
width="607.080mm" height="500.920mm"
viewBox="0 0 607.080 500.920">
<title>alkatraz</title>
<g transform="translate(5.000 495.920)">
<g id="Legs" stroke="black" fill="none" stroke-width="0.4px">
<path d="M382.440 -290.920L356.680 -289.560L328.360 -257.160L299.760 -232.400L323.560 -229.480"/>
<path d="M299.760 -232.400L294.560 -200.000L200.000 -210.040"/>
<path d="M382.440 -290.920L397.080 -287.440"/>
</g>
<g id="Labels" font-size="0.600em">
<text transform="translate(397.080 -287.440)">alkatraz.1</text>
<text transform="translate(382.440 -290.920)">alkatraz.2</text>
<text transform="translate(356.680 -289.560)">alkatraz.3</text>
<text transform="translate(328.360 -257.160)">alkatraz.4</text>
<text transform="translate(299.760 -232.400)">alkatraz.5</text>
<text transform="translate(323.560 -229.480)">alkatraz.6</text>
<text transform="translate(294.560 -200.000)">alkatraz.7</text>
<text transform="translate(200.000 -210.040)">alkatraz.8</text>
<text transform="translate(397.080 -287.440)">monatip4.50</text>
</g>
<g id="Stations" stroke="black" fill="none" stroke-width="0.05px">
<circle id="alkatraz.1" cx="397.080" cy="-287.440" r="1.131"/>
<path d="M396.280 -288.240L397.880 -286.640M397.880 -288.240L396.280 -286.640"/>
<circle id="alkatraz.2" cx="382.440" cy="-290.920" r="1.131"/>
<path d="M381.640 -291.720L383.240 -290.120M383.240 -291.720L381.640 -290.120"/>
<circle id="alkatraz.3" cx="356.680" cy="-289.560" r="1.131"/>
<path d="M355.880 -290.360L357.480 -288.760M357.480 -290.360L355.880 -288.760"/>
<circle id="alkatraz.4" cx="328.360" cy="-257.160" r="1.131"/>
<path d="M327.560 -257.960L329.160 -256.360M329.160 -257.960L327.560 -256.360"/>
<circle id="alkatraz.5" cx="299.760" cy="-232.400" r="1.131"/>
<path d="M298.960 -233.200L300.560 -231.600M300.560 -233.200L298.960 -231.600"/>
<circle id="alkatraz.6" cx="323.560" cy="-229.480" r="1.131"/>
<path d="M322.760 -230.280L324.360 -228.680M324.360 -230.280L322.760 -228.680"/>
<circle id="alkatraz.7" cx="294.560" cy="-200.000" r="1.131"/>
<path d="M293.760 -200.800L295.360 -199.200M295.360 -200.800L293.760 -199.200"/>
<circle id="alkatraz.8" cx="200.000" cy="-210.040" r="1.131"/>
<path d="M199.200 -210.840L200.800 -209.240M200.800 -210.840L199.200 -209.240"/>
<circle id="alkatraz.1" cx="397.080" cy="-287.440" r="1.131"/>
<path d="M396.280 -288.240L397.880 -286.640M397.880 -288.240L396.280 -286.640"/>
</g>
</g>
</svg>
