<?xml version="1.0" encoding="UTF-8" standalone="no"?>
<svg
   xmlns:dc="http://purl.org/dc/elements/1.1/"
   xmlns:cc="http://creativecommons.org/ns#"
   xmlns:rdf="http://www.w3.org/1999/02/22-rdf-syntax-ns#"
   xmlns:svg="http://www.w3.org/2000/svg"
   xmlns="http://www.w3.org/2000/svg"
   xmlns:sodipodi="http://sodipodi.sourceforge.net/DTD/sodipodi-0.dtd"
   xmlns:inkscape="http://www.inkscape.org/namespaces/inkscape"
   version="1.1"
   width="541.360mm"
   height="434.120mm"
   viewBox="0 0 541.360 434.120"
   id="svg83"
   sodipodi:docname="hallelujah_extend.svg"
   inkscape:version="0.92.2 5c3e80d, 2017-08-06">
  <metadata
     id="metadata89">
    <rdf:RDF>
      <cc:Work
         rdf:about="">
        <dc:format>image/svg+xml</dc:format>
        <dc:type
           rdf:resource="http://purl.org/dc/dcmitype/StillImage" />
      </cc:Work>
    </rdf:RDF>
  </metadata>
  <defs
     id="defs87" />
  <sodipodi:namedview
     pagecolor="#ffffff"
     bordercolor="#666666"
     borderopacity="1"
     objecttolerance="10"
     gridtolerance="10"
     guidetolerance="10"
     inkscape:pageopacity="0"
     inkscape:pageshadow="2"
     inkscape:window-width="742"
     inkscape:window-height="480"
     id="namedview85"
     showgrid="false"
     inkscape:zoom="0.28767008"
     inkscape:cx="922.07729"
     inkscape:cy="677.13327"
     inkscape:window-x="0"
     inkscape:window-y="0"
     inkscape:window-maximized="0"
     inkscape:current-layer="svg83" />
  <title
     id="title2">hallelujah</title>
  <g
     transform="translate(5.000 429.120)"
     id="g81">
    <g
       id="Legs"
       stroke="black"
       fill="none"
       stroke-width="0.4px">
      <path
         d="M202.840 -224.120L200.000 -223.800"
         id="path4" />
      <path
         d="M211.720 -221.720L202.840 -224.120"
         id="path6" />
      <path
         d="M228.080 -218.240L211.720 -221.720"
         id="path8" />
      <path
         d="M260.600 -214.240L228.080 -218.240"
         id="path10" />
      <path
         d="M269.480 -218.240L260.600 -214.240"
         id="path12" />
      <path
         d="M283.600 -207.960L269.480 -218.240"
         id="path14" />
      <path
         d="M298.280 -201.720L283.600 -207.960"
         id="path16" />
      <path
         d="M317.080 -200.760L298.280 -201.720"
         id="path18" />
      <path
         d="M331.360 -200.000L317.080 -200.760"
         id="path20" />
    </g>
    <g
       id="Labels"
       font-size="0.600em">
      <text
         transform="translate(200,-223.8)"
         id="text23">10</text>
      <text
         transform="translate(200.000 -223.800)"
         id="text25">plumbers_paradise.5</text>
      <text
         transform="translate(331.36,-200)"
         id="text27">1</text>
      <text
         transform="translate(317.08,-200.76)"
         id="text29">2</text>
      <text
         transform="translate(298.28,-201.72)"
         id="text31">3</text>
      <text
         transform="translate(283.6,-207.96)"
         id="text33">4</text>
      <text
         transform="translate(269.48,-218.24)"
         id="text35">5</text>
      <text
         transform="translate(260.6,-214.24)"
         id="text37">6</text>
      <text
         transform="translate(228.08,-218.24)"
         id="text39">7</text>
      <text
         transform="translate(211.72,-221.72)"
         id="text41">8</text>
      <text
         transform="translate(202.84,-224.12)"
         id="text43">9</text>
    </g>
    <g
       id="Stations"
       stroke="black"
       fill="none"
       stroke-width="0.05px">
      <circle
         id="hallelujah.10"
         cx="200.000"
         cy="-223.800"
         r="1.131" />
      <path
         d="M199.200 -224.600L200.800 -223.000M200.800 -224.600L199.200 -223.000"
         id="path47" />
      <circle
         id="circle49"
         cx="200.000"
         cy="-223.800"
         r="1.131" />
      <path
         d="M199.200 -224.600L200.800 -223.000M200.800 -224.600L199.200 -223.000"
         id="path51" />
      <circle
         id="hallelujah.1"
         cx="331.360"
         cy="-200.000"
         r="1.131" />
      <path
         d="M330.560 -200.800L332.160 -199.200M332.160 -200.800L330.560 -199.200"
         id="path54" />
      <circle
         id="hallelujah.2"
         cx="317.080"
         cy="-200.760"
         r="1.131" />
      <path
         d="M316.280 -201.560L317.880 -199.960M317.880 -201.560L316.280 -199.960"
         id="path57" />
      <circle
         id="hallelujah.3"
         cx="298.280"
         cy="-201.720"
         r="1.131" />
      <path
         d="M297.480 -202.520L299.080 -200.920M299.080 -202.520L297.480 -200.920"
         id="path60" />
      <circle
         id="hallelujah.4"
         cx="283.600"
         cy="-207.960"
         r="1.131" />
      <path
         d="M282.800 -208.760L284.400 -207.160M284.400 -208.760L282.800 -207.160"
         id="path63" />
      <circle
         id="hallelujah.5"
         cx="269.480"
         cy="-218.240"
         r="1.131" />
      <path
         d="M268.680 -219.040L270.280 -217.440M270.280 -219.040L268.680 -217.440"
         id="path66" />
      <circle
         id="hallelujah.6"
         cx="260.600"
         cy="-214.240"
         r="1.131" />
      <path
         d="M259.800 -215.040L261.400 -213.440M261.400 -215.040L259.800 -213.440"
         id="path69" />
      <circle
         id="hallelujah.7"
         cx="228.080"
         cy="-218.240"
         r="1.131" />
      <path
         d="M227.280 -219.040L228.880 -217.440M228.880 -219.040L227.280 -217.440"
         id="path72" />
      <circle
         id="hallelujah.8"
         cx="211.720"
         cy="-221.720"
         r="1.131" />
      <path
         d="M210.920 -222.520L212.520 -220.920M212.520 -222.520L210.920 -220.920"
         id="path75" />
      <circle
         id="hallelujah.9"
         cx="202.840"
         cy="-224.120"
         r="1.131" />
      <path
         d="M202.040 -224.920L203.640 -223.320M203.640 -224.920L202.040 -223.320"
         id="path78" />
    </g>
  </g>
</svg>
