<?xml version="1.0" encoding="ISO-8859-1"?>
<svg version="1.1" baseProfile="full"
xmlns="http://www.w3.org/2000/svg"
xmlns:xlink="http://www.w3.org/1999/xlink"
xmlns:ev="http://www.w3.org/2001/xml-events"
width="593.000mm" height="630.840mm"
viewBox="0 0 593.000 630.840">
<title>damp_squib</title>
<g transform="translate(5.000 625.840)">
<g id="Legs" stroke="black" fill="none" stroke-width="0.4px">
<path d="M207.360 -409.000L200.000 -420.840"/>
<path d="M207.360 -291.280L207.360 -409.000"/>
<path d="M210.360 -290.840L207.360 -291.280"/>
<path d="M229.480 -282.720L210.360 -290.840"/>
<path d="M229.480 -252.360L229.480 -282.720"/>
<path d="M236.480 -248.960L229.480 -252.360"/>
<path d="M245.960 -246.920L236.480 -248.960"/>
<path d="M248.360 -239.920L245.960 -246.920"/>
<path d="M251.320 -234.360L248.360 -239.920"/>
<path d="M253.320 -218.000L251.320 -234.360"/>
<path d="M284.440 -222.360L253.320 -218.000"/>
<path d="M287.360 -218.160L284.440 -222.360"/>
<path d="M318.320 -205.680L287.360 -218.160"/>
<path d="M334.880 -200.920L318.320 -205.680"/>
<path d="M342.160 -200.280L334.880 -200.920"/>
<path d="M358.200 -200.000L342.160 -200.280"/>
<path d="M378.160 -215.000L358.200 -200.000"/>
<path d="M383.000 -221.000L378.160 -215.000"/>
</g>
<g id="Labels" font-size="0.600em">
<text transform="translate(200.000 -420.840)">damp_squib.19</text>
<text transform="translate(200.000 -420.840)">diagonalley.4</text>
<text transform="translate(383.000 -221.000)">damp_squib.1</text>
<text transform="translate(378.160 -215.000)">damp_squib.2</text>
<text transform="translate(358.200 -200.000)">damp_squib.3</text>
<text transform="translate(342.160 -200.280)">damp_squib.4</text>
<text transform="translate(334.880 -200.920)">damp_squib.5</text>
<text transform="translate(318.320 -205.680)">damp_squib.6</text>
<text transform="translate(287.360 -218.160)">damp_squib.7</text>
<text transform="translate(284.440 -222.360)">damp_squib.8</text>
<text transform="translate(253.320 -218.000)">damp_squib.9</text>
<text transform="translate(251.320 -234.360)">damp_squib.10</text>
<text transform="translate(248.360 -239.920)">damp_squib.11</text>
<text transform="translate(245.960 -246.920)">damp_squib.12</text>
<text transform="translate(236.480 -248.960)">damp_squib.13</text>
<text transform="translate(229.480 -252.360)">damp_squib.14</text>
<text transform="translate(229.480 -282.720)">damp_squib.15</text>
<text transform="translate(210.360 -290.840)">damp_squib.16</text>
<text transform="translate(207.360 -291.280)">damp_squib.17</text>
<text transform="translate(207.360 -409.000)">damp_squib.18</text>
</g>
<g id="Stations" stroke="black" fill="none" stroke-width="0.05px">
<circle id="damp_squib.19" cx="200.000" cy="-420.840" r="1.131"/>
<path d="M199.200 -421.640L200.800 -420.040M200.800 -421.640L199.200 -420.040"/>
<circle id="damp_squib.19" cx="200.000" cy="-420.840" r="1.131"/>
<path d="M199.200 -421.640L200.800 -420.040M200.800 -421.640L199.200 -420.040"/>
<circle id="damp_squib.1" cx="383.000" cy="-221.000" r="1.131"/>
<path d="M382.200 -221.800L383.800 -220.200M383.800 -221.800L382.200 -220.200"/>
<circle id="damp_squib.2" cx="378.160" cy="-215.000" r="1.131"/>
<path d="M377.360 -215.800L378.960 -214.200M378.960 -215.800L377.360 -214.200"/>
<circle id="damp_squib.3" cx="358.200" cy="-200.000" r="1.131"/>
<path d="M357.400 -200.800L359.000 -199.200M359.000 -200.800L357.400 -199.200"/>
<circle id="damp_squib.4" cx="342.160" cy="-200.280" r="1.131"/>
<path d="M341.360 -201.080L342.960 -199.480M342.960 -201.080L341.360 -199.480"/>
<circle id="damp_squib.5" cx="334.880" cy="-200.920" r="1.131"/>
<path d="M334.080 -201.720L335.680 -200.120M335.680 -201.720L334.080 -200.120"/>
<circle id="damp_squib.6" cx="318.320" cy="-205.680" r="1.131"/>
<path d="M317.520 -206.480L319.120 -204.880M319.120 -206.480L317.520 -204.880"/>
<circle id="damp_squib.7" cx="287.360" cy="-218.160" r="1.131"/>
<path d="M286.560 -218.960L288.160 -217.360M288.160 -218.960L286.560 -217.360"/>
<circle id="damp_squib.8" cx="284.440" cy="-222.360" r="1.131"/>
<path d="M283.640 -223.160L285.240 -221.560M285.240 -223.160L283.640 -221.560"/>
<circle id="damp_squib.9" cx="253.320" cy="-218.000" r="1.131"/>
<path d="M252.520 -218.800L254.120 -217.200M254.120 -218.800L252.520 -217.200"/>
<circle id="damp_squib.10" cx="251.320" cy="-234.360" r="1.131"/>
<path d="M250.520 -235.160L252.120 -233.560M252.120 -235.160L250.520 -233.560"/>
<circle id="damp_squib.11" cx="248.360" cy="-239.920" r="1.131"/>
<path d="M247.560 -240.720L249.160 -239.120M249.160 -240.720L247.560 -239.120"/>
<circle id="damp_squib.12" cx="245.960" cy="-246.920" r="1.131"/>
<path d="M245.160 -247.720L246.760 -246.120M246.760 -247.720L245.160 -246.120"/>
<circle id="damp_squib.13" cx="236.480" cy="-248.960" r="1.131"/>
<path d="M235.680 -249.760L237.280 -248.160M237.280 -249.760L235.680 -248.160"/>
<circle id="damp_squib.14" cx="229.480" cy="-252.360" r="1.131"/>
<path d="M228.680 -253.160L230.280 -251.560M230.280 -253.160L228.680 -251.560"/>
<circle id="damp_squib.15" cx="229.480" cy="-282.720" r="1.131"/>
<path d="M228.680 -283.520L230.280 -281.920M230.280 -283.520L228.680 -281.920"/>
<circle id="damp_squib.16" cx="210.360" cy="-290.840" r="1.131"/>
<path d="M209.560 -291.640L211.160 -290.040M211.160 -291.640L209.560 -290.040"/>
<circle id="damp_squib.17" cx="207.360" cy="-291.280" r="1.131"/>
<path d="M206.560 -292.080L208.160 -290.480M208.160 -292.080L206.560 -290.480"/>
<circle id="damp_squib.18" cx="207.360" cy="-409.000" r="1.131"/>
<path d="M206.560 -409.800L208.160 -408.200M208.160 -409.800L206.560 -408.200"/>
</g>
</g>
</svg>
