<?xml version="1.0" encoding="ISO-8859-1"?>
<svg version="1.1" baseProfile="full"
xmlns="http://www.w3.org/2000/svg"
xmlns:xlink="http://www.w3.org/1999/xlink"
xmlns:ev="http://www.w3.org/2001/xml-events"
width="644.880mm" height="451.920mm"
viewBox="0 0 644.880 451.920">
<title>tiger_tiger</title>
<g transform="translate(5.000 446.920)">
<g id="Legs" stroke="black" fill="none" stroke-width="0.4px">
<path d="M213.040 -241.920L200.000 -236.920"/>
<path d="M220.000 -235.000L213.040 -241.920"/>
<path d="M237.280 -232.240L220.000 -235.000"/>
<path d="M248.840 -230.640L237.280 -232.240"/>
<path d="M265.000 -228.080L248.840 -230.640"/>
<path d="M288.920 -225.960L265.000 -228.080"/>
<path d="M310.520 -219.760L288.920 -225.960"/>
<path d="M330.520 -216.960L310.520 -219.760"/>
<path d="M339.720 -216.640L330.520 -216.960"/>
<path d="M362.240 -213.080L339.720 -216.640"/>
<path d="M382.720 -208.360L362.240 -213.080"/>
<path d="M420.640 -204.360L382.720 -208.360"/>
<path d="M420.640 -204.360L434.880 -200.000"/>
</g>
<g id="Labels" font-size="0.600em">
<text transform="translate(200.000 -236.920)">tiger_tiger.14</text>
<text transform="translate(200.000 -236.920)">penny_falls_2.5</text>
<text transform="translate(434.880 -200.000)">tiger_tiger.1</text>
<text transform="translate(420.640 -204.360)">tiger_tiger.2</text>
<text transform="translate(382.720 -208.360)">tiger_tiger.3</text>
<text transform="translate(362.240 -213.080)">tiger_tiger.4</text>
<text transform="translate(339.720 -216.640)">tiger_tiger.5</text>
<text transform="translate(330.520 -216.960)">tiger_tiger.6</text>
<text transform="translate(310.520 -219.760)">tiger_tiger.7</text>
<text transform="translate(288.920 -225.960)">tiger_tiger.8</text>
<text transform="translate(265.000 -228.080)">tiger_tiger.9</text>
<text transform="translate(248.840 -230.640)">tiger_tiger.10</text>
<text transform="translate(237.280 -232.240)">tiger_tiger.11</text>
<text transform="translate(220.000 -235.000)">tiger_tiger.12</text>
<text transform="translate(213.040 -241.920)">tiger_tiger.13</text>
</g>
<g id="Stations" stroke="black" fill="none" stroke-width="0.05px">
<circle id="tiger_tiger.14" cx="200.000" cy="-236.920" r="1.131"/>
<path d="M199.200 -237.720L200.800 -236.120M200.800 -237.720L199.200 -236.120"/>
<circle id="tiger_tiger.14" cx="200.000" cy="-236.920" r="1.131"/>
<path d="M199.200 -237.720L200.800 -236.120M200.800 -237.720L199.200 -236.120"/>
<circle id="tiger_tiger.1" cx="434.880" cy="-200.000" r="1.131"/>
<path d="M434.080 -200.800L435.680 -199.200M435.680 -200.800L434.080 -199.200"/>
<circle id="tiger_tiger.2" cx="420.640" cy="-204.360" r="1.131"/>
<path d="M419.840 -205.160L421.440 -203.560M421.440 -205.160L419.840 -203.560"/>
<circle id="tiger_tiger.3" cx="382.720" cy="-208.360" r="1.131"/>
<path d="M381.920 -209.160L383.520 -207.560M383.520 -209.160L381.920 -207.560"/>
<circle id="tiger_tiger.4" cx="362.240" cy="-213.080" r="1.131"/>
<path d="M361.440 -213.880L363.040 -212.280M363.040 -213.880L361.440 -212.280"/>
<circle id="tiger_tiger.5" cx="339.720" cy="-216.640" r="1.131"/>
<path d="M338.920 -217.440L340.520 -215.840M340.520 -217.440L338.920 -215.840"/>
<circle id="tiger_tiger.6" cx="330.520" cy="-216.960" r="1.131"/>
<path d="M329.720 -217.760L331.320 -216.160M331.320 -217.760L329.720 -216.160"/>
<circle id="tiger_tiger.7" cx="310.520" cy="-219.760" r="1.131"/>
<path d="M309.720 -220.560L311.320 -218.960M311.320 -220.560L309.720 -218.960"/>
<circle id="tiger_tiger.8" cx="288.920" cy="-225.960" r="1.131"/>
<path d="M288.120 -226.760L289.720 -225.160M289.720 -226.760L288.120 -225.160"/>
<circle id="tiger_tiger.9" cx="265.000" cy="-228.080" r="1.131"/>
<path d="M264.200 -228.880L265.800 -227.280M265.800 -228.880L264.200 -227.280"/>
<circle id="tiger_tiger.10" cx="248.840" cy="-230.640" r="1.131"/>
<path d="M248.040 -231.440L249.640 -229.840M249.640 -231.440L248.040 -229.840"/>
<circle id="tiger_tiger.11" cx="237.280" cy="-232.240" r="1.131"/>
<path d="M236.480 -233.040L238.080 -231.440M238.080 -233.040L236.480 -231.440"/>
<circle id="tiger_tiger.12" cx="220.000" cy="-235.000" r="1.131"/>
<path d="M219.200 -235.800L220.800 -234.200M220.800 -235.800L219.200 -234.200"/>
<circle id="tiger_tiger.13" cx="213.040" cy="-241.920" r="1.131"/>
<path d="M212.240 -242.720L213.840 -241.120M213.840 -242.720L212.240 -241.120"/>
</g>
</g>
</svg>
