<?xml version="1.0" encoding="ISO-8859-1"?>
<svg version="1.1" baseProfile="full"
xmlns="http://www.w3.org/2000/svg"
xmlns:xlink="http://www.w3.org/1999/xlink"
xmlns:ev="http://www.w3.org/2001/xml-events"
width="585.640mm" height="524.160mm"
viewBox="0 0 585.640 524.160">
<title>monatip2</title>
<g transform="translate(5.000 519.160)">
<g id="Legs" stroke="black" fill="none" stroke-width="0.4px">
<path d="M200.000 -311.160L221.360 -314.160"/>
<path d="M221.360 -314.160L249.840 -279.040"/>
<path d="M249.840 -279.040L268.880 -274.280"/>
<path d="M268.880 -274.280L291.680 -274.680"/>
<path d="M291.680 -274.680L298.440 -277.160"/>
<path d="M298.440 -277.160L315.880 -275.000"/>
<path d="M315.880 -275.000L326.760 -263.320"/>
<path d="M326.760 -263.320L359.520 -252.680"/>
<path d="M359.520 -252.680L373.520 -223.920"/>
<path d="M373.520 -223.920L375.640 -200.000"/>
</g>
<g id="Labels" font-size="0.600em">
<text transform="translate(200.000 -311.160)">monatip2.27</text>
<text transform="translate(221.360 -314.160)">monatip2.28</text>
<text transform="translate(249.840 -279.040)">monatip2.29</text>
<text transform="translate(268.880 -274.280)">monatip2.30</text>
<text transform="translate(291.680 -274.680)">monatip2.31</text>
<text transform="translate(298.440 -277.160)">monatip2.32</text>
<text transform="translate(315.880 -275.000)">monatip2.33</text>
<text transform="translate(326.760 -263.320)">monatip2.34</text>
<text transform="translate(359.520 -252.680)">monatip2.35</text>
<text transform="translate(373.520 -223.920)">monatip2.36</text>
<text transform="translate(375.640 -200.000)">monatip2.37</text>
</g>
<g id="Stations" stroke="black" fill="none" stroke-width="0.05px">
<circle id="monatip2.27" cx="200.000" cy="-311.160" r="1.131"/>
<path d="M199.200 -311.960L200.800 -310.360M200.800 -311.960L199.200 -310.360"/>
<circle id="monatip2.28" cx="221.360" cy="-314.160" r="1.131"/>
<path d="M220.560 -314.960L222.160 -313.360M222.160 -314.960L220.560 -313.360"/>
<circle id="monatip2.29" cx="249.840" cy="-279.040" r="1.131"/>
<path d="M249.040 -279.840L250.640 -278.240M250.640 -279.840L249.040 -278.240"/>
<circle id="monatip2.30" cx="268.880" cy="-274.280" r="1.131"/>
<path d="M268.080 -275.080L269.680 -273.480M269.680 -275.080L268.080 -273.480"/>
<circle id="monatip2.31" cx="291.680" cy="-274.680" r="1.131"/>
<path d="M290.880 -275.480L292.480 -273.880M292.480 -275.480L290.880 -273.880"/>
<circle id="monatip2.32" cx="298.440" cy="-277.160" r="1.131"/>
<path d="M297.640 -277.960L299.240 -276.360M299.240 -277.960L297.640 -276.360"/>
<circle id="monatip2.33" cx="315.880" cy="-275.000" r="1.131"/>
<path d="M315.080 -275.800L316.680 -274.200M316.680 -275.800L315.080 -274.200"/>
<circle id="monatip2.34" cx="326.760" cy="-263.320" r="1.131"/>
<path d="M325.960 -264.120L327.560 -262.520M327.560 -264.120L325.960 -262.520"/>
<circle id="monatip2.35" cx="359.520" cy="-252.680" r="1.131"/>
<path d="M358.720 -253.480L360.320 -251.880M360.320 -253.480L358.720 -251.880"/>
<circle id="monatip2.36" cx="373.520" cy="-223.920" r="1.131"/>
<path d="M372.720 -224.720L374.320 -223.120M374.320 -224.720L372.720 -223.120"/>
<circle id="monatip2.37" cx="375.640" cy="-200.000" r="1.131"/>
<path d="M374.840 -200.800L376.440 -199.200M376.440 -200.800L374.840 -199.200"/>
</g>
</g>
</svg>
