<?xml version="1.0" encoding="ISO-8859-1"?>
<svg version="1.1" baseProfile="full"
xmlns="http://www.w3.org/2000/svg"
xmlns:xlink="http://www.w3.org/1999/xlink"
xmlns:ev="http://www.w3.org/2001/xml-events"
width="478.600mm" height="516.680mm"
viewBox="0 0 478.600 516.680">
<title>ave_maria</title>
<g transform="translate(5.000 511.680)">
<g id="Legs" stroke="black" fill="none" stroke-width="0.4px">
<path d="M209.960 -303.440L200.000 -306.680"/>
<path d="M212.160 -299.400L209.960 -303.440"/>
<path d="M220.680 -273.120L212.160 -299.400"/>
<path d="M227.240 -235.880L220.680 -273.120"/>
<path d="M239.960 -220.200L227.240 -235.880"/>
<path d="M261.040 -210.800L239.960 -220.200"/>
<path d="M268.600 -200.000L261.040 -210.800"/>
</g>
<g id="Labels" font-size="0.600em">
<text transform="translate(200.000 -306.680)">ave_maria.8</text>
<text transform="translate(200.000 -306.680)">snakebitetwo.5</text>
<text transform="translate(268.600 -200.000)">ave_maria.1</text>
<text transform="translate(261.040 -210.800)">ave_maria.2</text>
<text transform="translate(239.960 -220.200)">ave_maria.3</text>
<text transform="translate(227.240 -235.880)">ave_maria.4</text>
<text transform="translate(220.680 -273.120)">ave_maria.5</text>
<text transform="translate(212.160 -299.400)">ave_maria.6</text>
<text transform="translate(209.960 -303.440)">ave_maria.7</text>
</g>
<g id="Stations" stroke="black" fill="none" stroke-width="0.05px">
<circle id="ave_maria.8" cx="200.000" cy="-306.680" r="1.131"/>
<path d="M199.200 -307.480L200.800 -305.880M200.800 -307.480L199.200 -305.880"/>
<circle id="ave_maria.8" cx="200.000" cy="-306.680" r="1.131"/>
<path d="M199.200 -307.480L200.800 -305.880M200.800 -307.480L199.200 -305.880"/>
<circle id="ave_maria.1" cx="268.600" cy="-200.000" r="1.131"/>
<path d="M267.800 -200.800L269.400 -199.200M269.400 -200.800L267.800 -199.200"/>
<circle id="ave_maria.2" cx="261.040" cy="-210.800" r="1.131"/>
<path d="M260.240 -211.600L261.840 -210.000M261.840 -211.600L260.240 -210.000"/>
<circle id="ave_maria.3" cx="239.960" cy="-220.200" r="1.131"/>
<path d="M239.160 -221.000L240.760 -219.400M240.760 -221.000L239.160 -219.400"/>
<circle id="ave_maria.4" cx="227.240" cy="-235.880" r="1.131"/>
<path d="M226.440 -236.680L228.040 -235.080M228.040 -236.680L226.440 -235.080"/>
<circle id="ave_maria.5" cx="220.680" cy="-273.120" r="1.131"/>
<path d="M219.880 -273.920L221.480 -272.320M221.480 -273.920L219.880 -272.320"/>
<circle id="ave_maria.6" cx="212.160" cy="-299.400" r="1.131"/>
<path d="M211.360 -300.200L212.960 -298.600M212.960 -300.200L211.360 -298.600"/>
<circle id="ave_maria.7" cx="209.960" cy="-303.440" r="1.131"/>
<path d="M209.160 -304.240L210.760 -302.640M210.760 -304.240L209.160 -302.640"/>
</g>
</g>
</svg>
