<?xml version="1.0" encoding="UTF-8" standalone="no"?>
<svg
   xmlns:dc="http://purl.org/dc/elements/1.1/"
   xmlns:cc="http://creativecommons.org/ns#"
   xmlns:rdf="http://www.w3.org/1999/02/22-rdf-syntax-ns#"
   xmlns:svg="http://www.w3.org/2000/svg"
   xmlns="http://www.w3.org/2000/svg"
   xmlns:sodipodi="http://sodipodi.sourceforge.net/DTD/sodipodi-0.dtd"
   xmlns:inkscape="http://www.inkscape.org/namespaces/inkscape"
   version="1.1"
   width="865.520mm"
   height="618.640mm"
   viewBox="0 0 865.520 618.640"
   id="svg272"
   sodipodi:docname="popotresni_extend.svg"
   inkscape:version="0.92.2 5c3e80d, 2017-08-06">
  <metadata
     id="metadata278">
    <rdf:RDF>
      <cc:Work
         rdf:about="">
        <dc:format>image/svg+xml</dc:format>
        <dc:type
           rdf:resource="http://purl.org/dc/dcmitype/StillImage" />
      </cc:Work>
    </rdf:RDF>
  </metadata>
  <defs
     id="defs276" />
  <sodipodi:namedview
     pagecolor="#ffffff"
     bordercolor="#666666"
     borderopacity="1"
     objecttolerance="10"
     gridtolerance="10"
     guidetolerance="10"
     inkscape:pageopacity="0"
     inkscape:pageshadow="2"
     inkscape:window-width="1326"
     inkscape:window-height="741"
     id="namedview274"
     showgrid="false"
     inkscape:zoom="1.4865729"
     inkscape:cx="2246.5452"
     inkscape:cy="952.83715"
     inkscape:window-x="0"
     inkscape:window-y="0"
     inkscape:window-maximized="0"
     inkscape:current-layer="svg272" />
  <title
     id="title2">popotresni</title>
  <path
     style="fill:none;stroke:#000000;stroke-width:0.40000001px"
     d="M 205,229 V 205"
     id="path4"
     inkscape:connector-curvature="0" />
  <path
     style="fill:none;stroke:#000000;stroke-width:0.40000001px"
     d="M 217.52,242.48 205,229"
     id="path6"
     inkscape:connector-curvature="0" />
  <path
     style="fill:none;stroke:#000000;stroke-width:0.40000001px"
     d="M 231.2,282.16 217.52,242.48"
     id="path8"
     inkscape:connector-curvature="0" />
  <path
     style="fill:none;stroke:#000000;stroke-width:0.40000001px"
     d="M 277.52,312.24 231.2,282.16"
     id="path10"
     inkscape:connector-curvature="0" />
  <path
     style="fill:none;stroke:#000000;stroke-width:0.40000001px"
     d="m 284.96,328.2 -7.44,-15.96"
     id="path12"
     inkscape:connector-curvature="0" />
  <path
     style="fill:none;stroke:#000000;stroke-width:0.40000001px"
     d="M 302.04,336.92 284.96,328.2"
     id="path14"
     inkscape:connector-curvature="0" />
  <path
     style="fill:none;stroke:#000000;stroke-width:0.40000001px"
     d="m 330.6,317.68 -28.56,19.24"
     id="path16"
     inkscape:connector-curvature="0" />
  <path
     style="fill:none;stroke:#000000;stroke-width:0.40000001px"
     d="M 330.6,317.68 369.36,294.4"
     id="path18"
     inkscape:connector-curvature="0" />
  <path
     style="fill:none;stroke:#000000;stroke-width:0.40000001px"
     d="m 369.36,294.4 42.16,25.32"
     id="path20"
     inkscape:connector-curvature="0" />
  <path
     style="fill:none;stroke:#000000;stroke-width:0.40000001px"
     d="M 369.36,294.4 386.8,283.08"
     id="path22"
     inkscape:connector-curvature="0" />
  <path
     style="fill:none;stroke:#000000;stroke-width:0.40000001px"
     d="m 386.8,283.08 39.68,24.8"
     id="path24"
     inkscape:connector-curvature="0" />
  <path
     style="fill:none;stroke:#000000;stroke-width:0.40000001px"
     d="M 359.56,321.24 330.6,317.68"
     id="path26"
     inkscape:connector-curvature="0" />
  <path
     style="fill:none;stroke:#000000;stroke-width:0.40000001px"
     d="m 374.08,325.68 -14.52,-4.44"
     id="path28"
     inkscape:connector-curvature="0" />
  <path
     style="fill:none;stroke:#000000;stroke-width:0.40000001px"
     d="m 374.08,325.68 15.84,6.72"
     id="path30"
     inkscape:connector-curvature="0" />
  <path
     style="fill:none;stroke:#000000;stroke-width:0.40000001px"
     d="m 389.92,332.4 10.88,-2.72"
     id="path32"
     inkscape:connector-curvature="0" />
  <path
     style="fill:none;stroke:#000000;stroke-width:0.40000001px"
     d="m 400.8,329.68 8.8,-0.44"
     id="path34"
     inkscape:connector-curvature="0" />
  <path
     style="fill:none;stroke:#000000;stroke-width:0.40000001px"
     d="m 409.6,329.24 9.56,-0.68"
     id="path36"
     inkscape:connector-curvature="0" />
  <path
     style="fill:none;stroke:#000000;stroke-width:0.40000001px"
     d="m 520.50339,287.86166 -8.84,11.36"
     id="path38"
     inkscape:connector-curvature="0" />
  <path
     style="fill:none;stroke:#000000;stroke-width:0.40000001px"
     d="m 532.34339,289.94166 -11.84,-2.08"
     id="path40"
     inkscape:connector-curvature="0" />
  <path
     style="fill:none;stroke:#000000;stroke-width:0.40000001px"
     d="m 548.10339,300.98166 -15.76,-11.04"
     id="path42"
     inkscape:connector-curvature="0" />
  <path
     style="fill:none;stroke:#000000;stroke-width:0.40000001px"
     d="m 561.86339,308.30166 -13.76,-7.32"
     id="path44"
     inkscape:connector-curvature="0" />
  <path
     style="fill:none;stroke:#000000;stroke-width:0.40000001px"
     d="m 571.46339,308.30166 h -9.6"
     id="path46"
     inkscape:connector-curvature="0" />
  <path
     style="fill:none;stroke:#000000;stroke-width:0.40000001px"
     d="m 571.46339,380.30166 v -72"
     id="path48"
     inkscape:connector-curvature="0" />
  <path
     style="fill:none;stroke:#000000;stroke-width:0.40000001px"
     d="m 614.30339,343.02166 -42.84,37.28"
     id="path50"
     inkscape:connector-curvature="0" />
  <path
     style="fill:none;stroke:#000000;stroke-width:0.40000001px"
     d="m 513.76169,422.3967 18.28,8.12"
     id="path52"
     inkscape:connector-curvature="0" />
  <path
     style="fill:none;stroke:#000000;stroke-width:0.40000001px"
     d="m 532.04169,430.5167 18.2,-4.84"
     id="path54"
     inkscape:connector-curvature="0" />
  <path
     style="fill:none;stroke:#000000;stroke-width:0.40000001px"
     d="m 550.24169,425.6767 13.84,6.16"
     id="path56"
     inkscape:connector-curvature="0" />
  <path
     style="fill:none;stroke:#000000;stroke-width:0.40000001px"
     d="m 564.08169,431.8367 17.4,-2.44"
     id="path58"
     inkscape:connector-curvature="0" />
  <path
     style="fill:none;stroke:#000000;stroke-width:0.40000001px"
     d="m 581.48169,429.3967 h 17.64"
     id="path60"
     inkscape:connector-curvature="0" />
  <path
     style="fill:none;stroke:#000000;stroke-width:0.40000001px"
     d="m 599.12169,429.3967 18.36,1.6"
     id="path62"
     inkscape:connector-curvature="0" />
  <path
     style="fill:none;stroke:#000000;stroke-width:0.40000001px"
     d="m 617.48169,430.9967 22.64,-2.36"
     id="path64"
     inkscape:connector-curvature="0" />
  <path
     style="fill:none;stroke:#000000;stroke-width:0.40000001px"
     d="m 640.12169,428.6367 15.92,1.92"
     id="path66"
     inkscape:connector-curvature="0" />
  <path
     style="fill:none;stroke:#000000;stroke-width:0.40000001px"
     d="m 656.04169,430.5567 4.36,-2"
     id="path68"
     inkscape:connector-curvature="0" />
  <path
     style="fill:none;stroke:#000000;stroke-width:0.40000001px"
     d="m 660.40169,428.5567 h 20"
     id="path70"
     inkscape:connector-curvature="0" />
  <path
     style="fill:none;stroke:#000000;stroke-width:0.40000001px"
     d="m 680.40169,428.5567 v 38"
     id="path72"
     inkscape:connector-curvature="0" />
  <path
     style="fill:none;stroke:#000000;stroke-width:0.40000001px"
     d="m 680.40169,428.5567 17.16,12.44"
     id="path74"
     inkscape:connector-curvature="0" />
  <text
     style="font-size:3.52777767px"
     id="text77"
     x="513.7616"
     y="422.39658">pop25</text>
  <text
     style="font-size:3.52777767px"
     id="text79"
     x="513.7616"
     y="422.39658">galerija.27</text>
  <text
     style="font-size:3.52777767px"
     id="text81"
     x="697.56183"
     y="440.99655">kak1</text>
  <text
     style="font-size:3.52777767px"
     id="text83"
     x="680.40179"
     y="428.55658">kak2</text>
  <text
     style="font-size:3.52777767px"
     id="text85"
     x="680.40179"
     y="466.55658">kak3</text>
  <text
     style="font-size:3.52777767px"
     id="text87"
     x="660.40179"
     y="428.55658">kak4</text>
  <text
     style="font-size:3.52777767px"
     id="text89"
     x="656.04181"
     y="430.55658">kak5</text>
  <text
     style="font-size:3.52777767px"
     id="text91"
     x="640.12183"
     y="428.63657">kak6</text>
  <text
     style="font-size:3.52777767px"
     id="text93"
     x="617.48181"
     y="430.99655">kak7</text>
  <text
     style="font-size:3.52777767px"
     id="text95"
     x="599.12183"
     y="429.39658">kak8</text>
  <text
     style="font-size:3.52777767px"
     id="text97"
     x="581.48181"
     y="429.39658">kak9</text>
  <text
     style="font-size:3.52777767px"
     id="text99"
     x="564.08179"
     y="431.83658">kak10</text>
  <text
     style="font-size:3.52777767px"
     id="text101"
     x="550.24182"
     y="425.67657">kak11</text>
  <text
     style="font-size:3.52777767px"
     id="text103"
     x="532.04169"
     y="430.51657">kak12</text>
  <text
     style="font-size:3.52777765px;"
     id="text105"
     x="205"
     y="205">pop1</text>
  <text
     style="font-size:3.52777765px;"
     id="text107"
     x="205"
     y="229">pop2</text>
  <text
     style="font-size:3.52777765px;"
     id="text109"
     x="217.52"
     y="242.48">pop3</text>
  <text
     style="font-size:3.52777765px;"
     id="text111"
     x="231.2"
     y="282.16">pop4</text>
  <text
     style="font-size:3.52777765px;"
     id="text113"
     x="277.51999"
     y="312.23999">pop5</text>
  <text
     style="font-size:3.52777765px;"
     id="text115"
     x="284.95999"
     y="328.20001">pop6</text>
  <text
     style="font-size:3.52777765px;"
     id="text117"
     x="302.04001"
     y="336.92001">pop7</text>
  <text
     style="font-size:3.52777765px;"
     id="text119"
     x="330.60001"
     y="317.67999">pop8</text>
  <text
     style="font-size:3.52777765px;"
     id="text121"
     x="359.56"
     y="321.23999">pop9</text>
  <text
     style="font-size:3.52777765px;"
     id="text123"
     x="426.48001"
     y="307.88">pop10</text>
  <text
     style="font-size:3.52777765px;"
     id="text125"
     x="386.79999"
     y="283.07999">pop11</text>
  <text
     style="font-size:3.52777765px;"
     id="text127"
     x="369.35999"
     y="294.39999">pop12</text>
  <text
     style="font-size:3.52777765px;"
     id="text129"
     x="411.51999"
     y="319.72">pop13</text>
  <text
     style="font-size:3.52777765px;"
     id="text131"
     x="374.07999"
     y="325.67999">pop14</text>
  <text
     style="font-size:3.52777765px;"
     id="text133"
     x="389.92001"
     y="332.39999">pop15</text>
  <text
     style="font-size:3.52777765px;"
     id="text135"
     x="400.79999"
     y="329.67999">pop16</text>
  <text
     style="font-size:3.52777765px;"
     id="text137"
     x="409.60001"
     y="329.23999">pop17</text>
  <text
     style="font-size:3.52777765px;"
     id="text139"
     x="419.16"
     y="328.56">pop18</text>
  <text
     style="font-size:3.52777767px"
     id="text141"
     x="520.50323"
     y="287.86169">pop19</text>
  <text
     style="font-size:3.52777767px"
     id="text143"
     x="532.34326"
     y="289.94168">pop20</text>
  <text
     style="font-size:3.52777767px"
     id="text145"
     x="548.10333"
     y="300.98169">pop21</text>
  <text
     style="font-size:3.52777767px"
     id="text147"
     x="561.86334"
     y="308.3017">pop22</text>
  <text
     style="font-size:3.52777767px"
     id="text149"
     x="571.46344"
     y="308.3017">pop23</text>
  <text
     style="font-size:3.52777767px"
     id="text151"
     x="571.46344"
     y="380.3017">pop24</text>
  <circle
     style="fill:none;stroke:#000000;stroke-width:0.05px"
     id="popotresni.pop25"
     cx="513.7616"
     cy="422.39658"
     r="1.131" />
  <path
     style="fill:none;stroke:#000000;stroke-width:0.05px"
     d="m 512.96169,421.5967 1.6,1.6 m 0,-1.6 -1.6,1.6"
     id="path155"
     inkscape:connector-curvature="0" />
  <circle
     style="fill:none;stroke:#000000;stroke-width:0.05px"
     id="circle157"
     cx="513.7616"
     cy="422.39658"
     r="1.131" />
  <path
     style="fill:none;stroke:#000000;stroke-width:0.05px"
     d="m 512.96169,421.5967 1.6,1.6 m 0,-1.6 -1.6,1.6"
     id="path159"
     inkscape:connector-curvature="0" />
  <circle
     style="fill:none;stroke:#000000;stroke-width:0.05px"
     id="popotresni.kak1"
     cx="697.56183"
     cy="440.99658"
     r="1.131" />
  <path
     style="fill:none;stroke:#000000;stroke-width:0.05px"
     d="m 696.76169,440.1967 1.6,1.6 m 0,-1.6 -1.6,1.6"
     id="path162"
     inkscape:connector-curvature="0" />
  <circle
     style="fill:none;stroke:#000000;stroke-width:0.05px"
     id="popotresni.kak2"
     cx="680.40179"
     cy="428.55658"
     r="1.131" />
  <path
     style="fill:none;stroke:#000000;stroke-width:0.05px"
     d="m 679.60169,427.7567 1.6,1.6 m 0,-1.6 -1.6,1.6"
     id="path165"
     inkscape:connector-curvature="0" />
  <circle
     style="fill:none;stroke:#000000;stroke-width:0.05px"
     id="popotresni.kak3"
     cx="680.40179"
     cy="466.55658"
     r="1.131" />
  <path
     style="fill:none;stroke:#000000;stroke-width:0.05px"
     d="m 679.60169,465.7567 1.6,1.6 m 0,-1.6 -1.6,1.6"
     id="path168"
     inkscape:connector-curvature="0" />
  <circle
     style="fill:none;stroke:#000000;stroke-width:0.05px"
     id="popotresni.kak4"
     cx="660.40179"
     cy="428.55658"
     r="1.131" />
  <path
     style="fill:none;stroke:#000000;stroke-width:0.05px"
     d="m 659.60169,427.7567 1.6,1.6 m 0,-1.6 -1.6,1.6"
     id="path171"
     inkscape:connector-curvature="0" />
  <circle
     style="fill:none;stroke:#000000;stroke-width:0.05px"
     id="popotresni.kak5"
     cx="656.04181"
     cy="430.55658"
     r="1.131" />
  <path
     style="fill:none;stroke:#000000;stroke-width:0.05px"
     d="m 655.24169,429.7567 1.6,1.6 m 0,-1.6 -1.6,1.6"
     id="path174"
     inkscape:connector-curvature="0" />
  <circle
     style="fill:none;stroke:#000000;stroke-width:0.05px"
     id="popotresni.kak6"
     cx="640.12183"
     cy="428.63657"
     r="1.131" />
  <path
     style="fill:none;stroke:#000000;stroke-width:0.05px"
     d="m 639.32169,427.8367 1.6,1.6 m 0,-1.6 -1.6,1.6"
     id="path177"
     inkscape:connector-curvature="0" />
  <circle
     style="fill:none;stroke:#000000;stroke-width:0.05px"
     id="popotresni.kak7"
     cx="617.48181"
     cy="430.99658"
     r="1.131" />
  <path
     style="fill:none;stroke:#000000;stroke-width:0.05px"
     d="m 616.68169,430.1967 1.6,1.6 m 0,-1.6 -1.6,1.6"
     id="path180"
     inkscape:connector-curvature="0" />
  <circle
     style="fill:none;stroke:#000000;stroke-width:0.05px"
     id="popotresni.kak8"
     cx="599.12183"
     cy="429.39658"
     r="1.131" />
  <path
     style="fill:none;stroke:#000000;stroke-width:0.05px"
     d="m 598.32169,428.5967 1.6,1.6 m 0,-1.6 -1.6,1.6"
     id="path183"
     inkscape:connector-curvature="0" />
  <circle
     style="fill:none;stroke:#000000;stroke-width:0.05px"
     id="popotresni.kak9"
     cx="581.48181"
     cy="429.39658"
     r="1.131" />
  <path
     style="fill:none;stroke:#000000;stroke-width:0.05px"
     d="m 580.68169,428.5967 1.6,1.6 m 0,-1.6 -1.6,1.6"
     id="path186"
     inkscape:connector-curvature="0" />
  <circle
     style="fill:none;stroke:#000000;stroke-width:0.05px"
     id="popotresni.kak10"
     cx="564.08179"
     cy="431.83658"
     r="1.131" />
  <path
     style="fill:none;stroke:#000000;stroke-width:0.05px"
     d="m 563.28169,431.0367 1.6,1.6 m 0,-1.6 -1.6,1.6"
     id="path189"
     inkscape:connector-curvature="0" />
  <circle
     style="fill:none;stroke:#000000;stroke-width:0.05px"
     id="popotresni.kak11"
     cx="550.24182"
     cy="425.67657"
     r="1.131" />
  <path
     style="fill:none;stroke:#000000;stroke-width:0.05px"
     d="m 549.44169,424.8767 1.6,1.6 m 0,-1.6 -1.6,1.6"
     id="path192"
     inkscape:connector-curvature="0" />
  <circle
     style="fill:none;stroke:#000000;stroke-width:0.05px"
     id="popotresni.kak12"
     cx="532.04169"
     cy="430.51657"
     r="1.131" />
  <path
     style="fill:none;stroke:#000000;stroke-width:0.05px"
     d="m 531.24169,429.7167 1.6,1.6 m 0,-1.6 -1.6,1.6"
     id="path195"
     inkscape:connector-curvature="0" />
  <circle
     style="fill:none;stroke:#000000;stroke-width:0.05px"
     id="popotresni.pop1"
     cx="205"
     cy="204.99998"
     r="1.131" />
  <path
     style="fill:none;stroke:#000000;stroke-width:0.05px"
     d="m 204.2,204.2 1.6,1.6 m 0,-1.6 -1.6,1.6"
     id="path198"
     inkscape:connector-curvature="0" />
  <circle
     style="fill:none;stroke:#000000;stroke-width:0.05px"
     id="popotresni.pop2"
     cx="205"
     cy="228.99998"
     r="1.131" />
  <path
     style="fill:none;stroke:#000000;stroke-width:0.05px"
     d="m 204.2,228.2 1.6,1.6 m 0,-1.6 -1.6,1.6"
     id="path201"
     inkscape:connector-curvature="0" />
  <circle
     style="fill:none;stroke:#000000;stroke-width:0.05px"
     id="popotresni.pop3"
     cx="217.52"
     cy="242.48"
     r="1.131" />
  <path
     style="fill:none;stroke:#000000;stroke-width:0.05px"
     d="m 216.72,241.68 1.6,1.6 m 0,-1.6 -1.6,1.6"
     id="path204"
     inkscape:connector-curvature="0" />
  <circle
     style="fill:none;stroke:#000000;stroke-width:0.05px"
     id="popotresni.pop4"
     cx="231.2"
     cy="282.16"
     r="1.131" />
  <path
     style="fill:none;stroke:#000000;stroke-width:0.05px"
     d="m 230.4,281.36 1.6,1.6 m 0,-1.6 -1.6,1.6"
     id="path207"
     inkscape:connector-curvature="0" />
  <circle
     style="fill:none;stroke:#000000;stroke-width:0.05px"
     id="popotresni.pop5"
     cx="277.51999"
     cy="312.24002"
     r="1.131" />
  <path
     style="fill:none;stroke:#000000;stroke-width:0.05px"
     d="m 276.72,311.44 1.6,1.6 m 0,-1.6 -1.6,1.6"
     id="path210"
     inkscape:connector-curvature="0" />
  <circle
     style="fill:none;stroke:#000000;stroke-width:0.05px"
     id="popotresni.pop6"
     cx="284.95999"
     cy="328.20001"
     r="1.131" />
  <path
     style="fill:none;stroke:#000000;stroke-width:0.05px"
     d="m 284.16,327.4 1.6,1.6 m 0,-1.6 -1.6,1.6"
     id="path213"
     inkscape:connector-curvature="0" />
  <circle
     style="fill:none;stroke:#000000;stroke-width:0.05px"
     id="popotresni.pop7"
     cx="302.04001"
     cy="336.92001"
     r="1.131" />
  <path
     style="fill:none;stroke:#000000;stroke-width:0.05px"
     d="m 301.24,336.12 1.6,1.6 m 0,-1.6 -1.6,1.6"
     id="path216"
     inkscape:connector-curvature="0" />
  <circle
     style="fill:none;stroke:#000000;stroke-width:0.05px"
     id="popotresni.pop8"
     cx="330.60001"
     cy="317.68002"
     r="1.131" />
  <path
     style="fill:none;stroke:#000000;stroke-width:0.05px"
     d="m 329.8,316.88 1.6,1.6 m 0,-1.6 -1.6,1.6"
     id="path219"
     inkscape:connector-curvature="0" />
  <circle
     style="fill:none;stroke:#000000;stroke-width:0.05px"
     id="popotresni.pop9"
     cx="359.56"
     cy="321.24002"
     r="1.131" />
  <path
     style="fill:none;stroke:#000000;stroke-width:0.05px"
     d="m 358.76,320.44 1.6,1.6 m 0,-1.6 -1.6,1.6"
     id="path222"
     inkscape:connector-curvature="0" />
  <circle
     style="fill:none;stroke:#000000;stroke-width:0.05px"
     id="popotresni.pop10"
     cx="426.48001"
     cy="307.88"
     r="1.131" />
  <path
     style="fill:none;stroke:#000000;stroke-width:0.05px"
     d="m 425.68,307.08 1.6,1.6 m 0,-1.6 -1.6,1.6"
     id="path225"
     inkscape:connector-curvature="0" />
  <circle
     style="fill:none;stroke:#000000;stroke-width:0.05px"
     id="popotresni.pop11"
     cx="386.79999"
     cy="283.08002"
     r="1.131" />
  <path
     style="fill:none;stroke:#000000;stroke-width:0.05px"
     d="m 386,282.28 1.6,1.6 m 0,-1.6 -1.6,1.6"
     id="path228"
     inkscape:connector-curvature="0" />
  <circle
     style="fill:none;stroke:#000000;stroke-width:0.05px"
     id="popotresni.pop12"
     cx="369.35999"
     cy="294.40002"
     r="1.131" />
  <path
     style="fill:none;stroke:#000000;stroke-width:0.05px"
     d="m 368.56,293.6 1.6,1.6 m 0,-1.6 -1.6,1.6"
     id="path231"
     inkscape:connector-curvature="0" />
  <circle
     style="fill:none;stroke:#000000;stroke-width:0.05px"
     id="popotresni.pop13"
     cx="411.51999"
     cy="319.72"
     r="1.131" />
  <path
     style="fill:none;stroke:#000000;stroke-width:0.05px"
     d="m 410.72,318.92 1.6,1.6 m 0,-1.6 -1.6,1.6"
     id="path234"
     inkscape:connector-curvature="0" />
  <circle
     style="fill:none;stroke:#000000;stroke-width:0.05px"
     id="popotresni.pop14"
     cx="511.66315"
     cy="299.22171"
     r="1.131" />
  <path
     style="fill:none;stroke:#000000;stroke-width:0.05px"
     d="m 510.86339,298.42166 1.6,1.6 m 0,-1.6 -1.6,1.6"
     id="path237"
     inkscape:connector-curvature="0" />
  <circle
     style="fill:none;stroke:#000000;stroke-width:0.05px"
     id="popotresni.pop15"
     cx="389.92001"
     cy="332.40002"
     r="1.131" />
  <path
     style="fill:none;stroke:#000000;stroke-width:0.05px"
     d="m 389.12,331.6 1.6,1.6 m 0,-1.6 -1.6,1.6"
     id="path240"
     inkscape:connector-curvature="0" />
  <circle
     style="fill:none;stroke:#000000;stroke-width:0.05px"
     id="popotresni.pop16"
     cx="400.79999"
     cy="329.68002"
     r="1.131" />
  <path
     style="fill:none;stroke:#000000;stroke-width:0.05px"
     d="m 400,328.88 1.6,1.6 m 0,-1.6 -1.6,1.6"
     id="path243"
     inkscape:connector-curvature="0" />
  <circle
     style="fill:none;stroke:#000000;stroke-width:0.05px"
     id="popotresni.pop17"
     cx="409.60001"
     cy="329.24002"
     r="1.131" />
  <path
     style="fill:none;stroke:#000000;stroke-width:0.05px"
     d="m 408.8,328.44 1.6,1.6 m 0,-1.6 -1.6,1.6"
     id="path246"
     inkscape:connector-curvature="0" />
  <circle
     style="fill:none;stroke:#000000;stroke-width:0.05px"
     id="popotresni.pop18"
     cx="419.16"
     cy="328.56003"
     r="1.131" />
  <path
     style="fill:none;stroke:#000000;stroke-width:0.05px"
     d="m 418.36,327.76 1.6,1.6 m 0,-1.6 -1.6,1.6"
     id="path249"
     inkscape:connector-curvature="0" />
  <circle
     style="fill:none;stroke:#000000;stroke-width:0.05px"
     id="popotresni.pop19"
     cx="520.50323"
     cy="287.86169"
     r="1.131" />
  <path
     style="fill:none;stroke:#000000;stroke-width:0.05px"
     d="m 519.70339,287.06166 1.6,1.6 m 0,-1.6 -1.6,1.6"
     id="path252"
     inkscape:connector-curvature="0" />
  <circle
     style="fill:none;stroke:#000000;stroke-width:0.05px"
     id="popotresni.pop20"
     cx="532.34326"
     cy="289.94171"
     r="1.131" />
  <path
     style="fill:none;stroke:#000000;stroke-width:0.05px"
     d="m 531.54339,289.14166 1.6,1.6 m 0,-1.6 -1.6,1.6"
     id="path255"
     inkscape:connector-curvature="0" />
  <circle
     style="fill:none;stroke:#000000;stroke-width:0.05px"
     id="popotresni.pop21"
     cx="410.51999"
     cy="327.44"
     r="1.131" />
  <path
     style="fill:none;stroke:#000000;stroke-width:0.05px"
     d="m 409.72,326.64 1.6,1.6 m 0,-1.6 -1.6,1.6"
     id="path258"
     inkscape:connector-curvature="0" />
  <circle
     style="fill:none;stroke:#000000;stroke-width:0.05px"
     id="popotresni.pop22"
     cx="561.86334"
     cy="308.3017"
     r="1.131" />
  <path
     style="fill:none;stroke:#000000;stroke-width:0.05px"
     d="m 561.06339,307.50166 1.6,1.6 m 0,-1.6 -1.6,1.6"
     id="path261"
     inkscape:connector-curvature="0" />
  <circle
     style="fill:none;stroke:#000000;stroke-width:0.05px"
     id="popotresni.pop23"
     cx="433.88"
     cy="334.76001"
     r="1.131" />
  <path
     style="fill:none;stroke:#000000;stroke-width:0.05px"
     d="m 433.08,333.96 1.6,1.6 m 0,-1.6 -1.6,1.6"
     id="path264"
     inkscape:connector-curvature="0" />
  <circle
     style="fill:none;stroke:#000000;stroke-width:0.05px"
     id="popotresni.pop24"
     cx="571.46344"
     cy="380.3017"
     r="1.131" />
  <path
     style="fill:none;stroke:#000000;stroke-width:0.05px"
     d="m 570.66339,379.50166 1.6,1.6 m 0,-1.6 -1.6,1.6"
     id="path267"
     inkscape:connector-curvature="0" />
  <text
     style="font-size:3.52777767px;stroke-width:1"
     id="text131-7"
     x="507.85416"
     y="300.61511">pop14</text>
  <text
     style="font-size:3.52777767px;stroke-width:1"
     id="text151-9"
     x="609.48193"
     y="344.59991">pop25</text>
</svg>
