<?xml version="1.0" encoding="ISO-8859-1"?>
<svg version="1.1" baseProfile="full"
xmlns="http://www.w3.org/2000/svg"
xmlns:xlink="http://www.w3.org/1999/xlink"
xmlns:ev="http://www.w3.org/2001/xml-events"
width="588.440mm" height="451.400mm"
viewBox="0 0 588.440 451.400">
<title>holy_moley</title>
<g transform="translate(5.000 446.400)">
<g id="Legs" stroke="black" fill="none" stroke-width="0.4px">
<path d="M206.600 -241.400L200.000 -241.400"/>
<path d="M214.560 -233.680L206.600 -241.400"/>
<path d="M238.680 -235.360L214.560 -233.680"/>
<path d="M258.720 -216.000L238.680 -235.360"/>
<path d="M298.760 -210.360L258.720 -216.000"/>
<path d="M322.240 -209.120L298.760 -210.360"/>
<path d="M338.040 -206.360L322.240 -209.120"/>
<path d="M356.280 -206.360L338.040 -206.360"/>
<path d="M378.440 -200.000L356.280 -206.360"/>
</g>
<g id="Labels" font-size="0.600em">
<text transform="translate(200.000 -241.400)">holy_moley.10</text>
<text transform="translate(200.000 -241.400)">sweet_baby_jesus.8</text>
<text transform="translate(378.440 -200.000)">holy_moley.1</text>
<text transform="translate(356.280 -206.360)">holy_moley.2</text>
<text transform="translate(338.040 -206.360)">holy_moley.3</text>
<text transform="translate(322.240 -209.120)">holy_moley.4</text>
<text transform="translate(298.760 -210.360)">holy_moley.5</text>
<text transform="translate(258.720 -216.000)">holy_moley.6</text>
<text transform="translate(238.680 -235.360)">holy_moley.7</text>
<text transform="translate(214.560 -233.680)">holy_moley.8</text>
<text transform="translate(206.600 -241.400)">holy_moley.9</text>
</g>
<g id="Stations" stroke="black" fill="none" stroke-width="0.05px">
<circle id="holy_moley.10" cx="200.000" cy="-241.400" r="1.131"/>
<path d="M199.200 -242.200L200.800 -240.600M200.800 -242.200L199.200 -240.600"/>
<circle id="holy_moley.10" cx="200.000" cy="-241.400" r="1.131"/>
<path d="M199.200 -242.200L200.800 -240.600M200.800 -242.200L199.200 -240.600"/>
<circle id="holy_moley.1" cx="378.440" cy="-200.000" r="1.131"/>
<path d="M377.640 -200.800L379.240 -199.200M379.240 -200.800L377.640 -199.200"/>
<circle id="holy_moley.2" cx="356.280" cy="-206.360" r="1.131"/>
<path d="M355.480 -207.160L357.080 -205.560M357.080 -207.160L355.480 -205.560"/>
<circle id="holy_moley.3" cx="338.040" cy="-206.360" r="1.131"/>
<path d="M337.240 -207.160L338.840 -205.560M338.840 -207.160L337.240 -205.560"/>
<circle id="holy_moley.4" cx="322.240" cy="-209.120" r="1.131"/>
<path d="M321.440 -209.920L323.040 -208.320M323.040 -209.920L321.440 -208.320"/>
<circle id="holy_moley.5" cx="298.760" cy="-210.360" r="1.131"/>
<path d="M297.960 -211.160L299.560 -209.560M299.560 -211.160L297.960 -209.560"/>
<circle id="holy_moley.6" cx="258.720" cy="-216.000" r="1.131"/>
<path d="M257.920 -216.800L259.520 -215.200M259.520 -216.800L257.920 -215.200"/>
<circle id="holy_moley.7" cx="238.680" cy="-235.360" r="1.131"/>
<path d="M237.880 -236.160L239.480 -234.560M239.480 -236.160L237.880 -234.560"/>
<circle id="holy_moley.8" cx="214.560" cy="-233.680" r="1.131"/>
<path d="M213.760 -234.480L215.360 -232.880M215.360 -234.480L213.760 -232.880"/>
<circle id="holy_moley.9" cx="206.600" cy="-241.400" r="1.131"/>
<path d="M205.800 -242.200L207.400 -240.600M207.400 -242.200L205.800 -240.600"/>
</g>
</g>
</svg>
