<?xml version="1.0" encoding="ISO-8859-1"?>
<svg version="1.1" baseProfile="full"
xmlns="http://www.w3.org/2000/svg"
xmlns:xlink="http://www.w3.org/1999/xlink"
xmlns:ev="http://www.w3.org/2001/xml-events"
width="449.360mm" height="439.800mm"
viewBox="0 0 449.360 439.800">
<title>lost_in_a_dream_2</title>
<g transform="translate(5.000 434.800)">
<g id="Legs" stroke="black" fill="none" stroke-width="0.4px">
<path d="M211.880 -220.400L200.000 -229.800"/>
<path d="M231.440 -204.360L211.880 -220.400"/>
<path d="M231.440 -204.360L239.360 -200.000"/>
</g>
<g id="Labels" font-size="0.600em">
<text transform="translate(239.360 -200.000)">lost_in_a_dream_2.1</text>
<text transform="translate(200.000 -229.800)">lost_in_a_dream_2.4</text>
<text transform="translate(200.000 -229.800)">lost_in_a_dream.1</text>
<text transform="translate(231.440 -204.360)">lost_in_a_dream_2.2</text>
<text transform="translate(211.880 -220.400)">lost_in_a_dream_2.3</text>
<text transform="translate(239.360 -200.000)">ave_maria.1</text>
</g>
<g id="Stations" stroke="black" fill="none" stroke-width="0.05px">
<circle id="lost_in_a_dream_2.1" cx="239.360" cy="-200.000" r="1.131"/>
<path d="M238.560 -200.800L240.160 -199.200M240.160 -200.800L238.560 -199.200"/>
<circle id="lost_in_a_dream_2.4" cx="200.000" cy="-229.800" r="1.131"/>
<path d="M199.200 -230.600L200.800 -229.000M200.800 -230.600L199.200 -229.000"/>
<circle id="lost_in_a_dream_2.4" cx="200.000" cy="-229.800" r="1.131"/>
<path d="M199.200 -230.600L200.800 -229.000M200.800 -230.600L199.200 -229.000"/>
<circle id="lost_in_a_dream_2.2" cx="231.440" cy="-204.360" r="1.131"/>
<path d="M230.640 -205.160L232.240 -203.560M232.240 -205.160L230.640 -203.560"/>
<circle id="lost_in_a_dream_2.3" cx="211.880" cy="-220.400" r="1.131"/>
<path d="M211.080 -221.200L212.680 -219.600M212.680 -221.200L211.080 -219.600"/>
<circle id="lost_in_a_dream_2.1" cx="239.360" cy="-200.000" r="1.131"/>
<path d="M238.560 -200.800L240.160 -199.200M240.160 -200.800L238.560 -199.200"/>
</g>
</g>
</svg>
