<?xml version="1.0" encoding="utf-8" standalone="no"?>
<!-- Generated by Therion 5.4.1+? (compiled on 2018-06-25) -->
<!DOCTYPE svg PUBLIC "-//W3C//DTD SVG 1.1//EN" "http://www.w3.org/Graphics/SVG/1.1/DTD/svg11.dtd">
<svg width="5.881cm" height="24.260cm" viewBox="-67.109 -34.017 166.693 687.693" xmlns="http://www.w3.org/2000/svg" xmlns:xlink="http://www.w3.org/1999/xlink">
<defs>
<g id="F_aaaaaaa_beyond.svg">
</g>
<g id="G_aaaaaaa_beyond.svg">
</g>
<g id="B_aaaaaaa_beyond.svg">
</g>
<g id="I_aaaaaaa_beyond.svg">
</g>
<g id="E_aaaaaaa_beyond.svg">
<path fill="none" stroke="#000000" stroke-width="0.500" d="M38.760 625.330L2.250 566.880" />
<path fill="none" stroke="#000000" stroke-width="0.500" d="M2.250 566.880L7.520 491.250" />
<path fill="none" stroke="#000000" stroke-width="0.500" d="M2.250 566.880L38.760 625.330" />
<path fill="none" stroke="#000000" stroke-width="0.500" d="M7.520 491.250L26.460 450.540" />
<path fill="none" stroke="#000000" stroke-width="0.500" d="M7.520 491.250L2.250 566.880" />
<path fill="none" stroke="#000000" stroke-width="0.500" d="M26.460 450.540L49.820 318.220" />
<path fill="none" stroke="#000000" stroke-width="0.500" d="M26.460 450.540L7.520 491.250" />
<path fill="none" stroke="#000000" stroke-width="0.500" d="M49.820 318.220L43.750 314.710" />
<path fill="none" stroke="#000000" stroke-width="0.500" d="M49.820 318.220L26.460 450.540" />
<path fill="none" stroke="#000000" stroke-width="0.500" d="M43.750 314.710L48.740 243.280" />
<path fill="none" stroke="#000000" stroke-width="0.500" d="M43.750 314.710L49.820 318.220" />
<path fill="none" stroke="#000000" stroke-width="0.500" d="M48.740 243.280L60.760 186.750" />
<path fill="none" stroke="#000000" stroke-width="0.500" d="M48.740 243.280L43.750 314.710" />
<path fill="none" stroke="#000000" stroke-width="0.500" d="M60.760 186.750L60.760 186.750" />
<path fill="none" stroke="#000000" stroke-width="0.500" d="M60.760 186.750L48.740 243.280" />
<path fill="none" stroke="#000000" stroke-width="0.500" d="M60.760 186.750L77.600 119.170" />
<path fill="none" stroke="#000000" stroke-width="0.500" d="M60.760 186.750L60.760 186.750" />
<path fill="none" stroke="#000000" stroke-width="0.500" d="M77.600 119.170L78.500 101.540" />
<path fill="none" stroke="#000000" stroke-width="0.500" d="M77.600 119.170L60.760 186.750" />
<path fill="none" stroke="#000000" stroke-width="0.500" d="M78.500 101.540L97.270 52.730" />
<path fill="none" stroke="#000000" stroke-width="0.500" d="M78.500 101.540L77.600 119.170" />
<path fill="none" stroke="#000000" stroke-width="0.500" d="M97.270 52.730L101.750 9.870" />
<path fill="none" stroke="#000000" stroke-width="0.500" d="M97.270 52.730L78.500 101.540" />
<path fill="none" stroke="#000000" stroke-width="0.500" d="M101.750 9.870L101.630 2.670" />
<path fill="none" stroke="#000000" stroke-width="0.500" d="M101.750 9.870L97.270 52.730" />
<path fill="none" stroke="#000000" stroke-width="0.500" d="M101.630 2.670L101.750 9.870" />
<path fill="none" stroke="#000000" stroke-width="0.350" d="M36.760 625.330L40.760 625.330" />
<path fill="none" stroke="#000000" stroke-width="0.350" d="M38.760 623.330L38.760 627.330" />
<path fill="#ffffff" stroke="none" d="M39.560 625.330C39.560 625.542 39.476 625.746 39.326 625.896C39.176 626.046 38.972 626.130 38.760 626.130C38.548 626.130 38.344 626.046 38.194 625.896C38.044 625.746 37.960 625.542 37.960 625.330C37.960 625.118 38.044 624.914 38.194 624.764C38.344 624.614 38.548 624.530 38.760 624.530C38.972 624.530 39.176 624.614 39.326 624.764C39.476 624.914 39.560 625.118 39.560 625.330Z" />
<path fill="none" stroke="#000000" stroke-width="0.500" d="M38.760 625.330h0.001" />
<path fill="none" stroke="#000000" stroke-width="0.350" d="M0.250 566.880L4.250 566.880" />
<path fill="none" stroke="#000000" stroke-width="0.350" d="M2.250 564.880L2.250 568.880" />
<path fill="#ffffff" stroke="none" d="M3.050 566.880C3.050 567.092 2.966 567.296 2.816 567.446C2.666 567.596 2.462 567.680 2.250 567.680C2.038 567.680 1.834 567.596 1.684 567.446C1.534 567.296 1.450 567.092 1.450 566.880C1.450 566.668 1.534 566.464 1.684 566.314C1.834 566.164 2.038 566.080 2.250 566.080C2.462 566.080 2.666 566.164 2.816 566.314C2.966 566.464 3.050 566.668 3.050 566.880Z" />
<path fill="none" stroke="#000000" stroke-width="0.500" d="M2.250 566.880h0.001" />
<path fill="none" stroke="#000000" stroke-width="0.350" d="M5.520 491.250L9.520 491.250" />
<path fill="none" stroke="#000000" stroke-width="0.350" d="M7.520 489.250L7.520 493.250" />
<path fill="#ffffff" stroke="none" d="M8.320 491.250C8.320 491.462 8.236 491.666 8.086 491.816C7.936 491.966 7.732 492.050 7.520 492.050C7.308 492.050 7.104 491.966 6.954 491.816C6.804 491.666 6.720 491.462 6.720 491.250C6.720 491.038 6.804 490.834 6.954 490.684C7.104 490.534 7.308 490.450 7.520 490.450C7.732 490.450 7.936 490.534 8.086 490.684C8.236 490.834 8.320 491.038 8.320 491.250Z" />
<path fill="none" stroke="#000000" stroke-width="0.500" d="M7.520 491.250h0.001" />
<path fill="none" stroke="#000000" stroke-width="0.350" d="M24.460 450.540L28.460 450.540" />
<path fill="none" stroke="#000000" stroke-width="0.350" d="M26.460 448.540L26.460 452.540" />
<path fill="#ffffff" stroke="none" d="M27.260 450.540C27.260 450.752 27.176 450.956 27.026 451.106C26.876 451.256 26.672 451.340 26.460 451.340C26.248 451.340 26.044 451.256 25.894 451.106C25.744 450.956 25.660 450.752 25.660 450.540C25.660 450.328 25.744 450.124 25.894 449.974C26.044 449.824 26.248 449.740 26.460 449.740C26.672 449.740 26.876 449.824 27.026 449.974C27.176 450.124 27.260 450.328 27.260 450.540Z" />
<path fill="none" stroke="#000000" stroke-width="0.500" d="M26.460 450.540h0.001" />
<path fill="none" stroke="#000000" stroke-width="0.350" d="M47.820 318.220L51.820 318.220" />
<path fill="none" stroke="#000000" stroke-width="0.350" d="M49.820 316.220L49.820 320.220" />
<path fill="#ffffff" stroke="none" d="M50.620 318.220C50.620 318.432 50.536 318.636 50.386 318.786C50.236 318.936 50.032 319.020 49.820 319.020C49.608 319.020 49.404 318.936 49.254 318.786C49.104 318.636 49.020 318.432 49.020 318.220C49.020 318.008 49.104 317.804 49.254 317.654C49.404 317.504 49.608 317.420 49.820 317.420C50.032 317.420 50.236 317.504 50.386 317.654C50.536 317.804 50.620 318.008 50.620 318.220Z" />
<path fill="none" stroke="#000000" stroke-width="0.500" d="M49.820 318.220h0.001" />
<path fill="none" stroke="#000000" stroke-width="0.350" d="M41.750 314.710L45.750 314.710" />
<path fill="none" stroke="#000000" stroke-width="0.350" d="M43.750 312.710L43.750 316.710" />
<path fill="#ffffff" stroke="none" d="M44.550 314.710C44.550 314.922 44.466 315.126 44.316 315.276C44.166 315.426 43.962 315.510 43.750 315.510C43.538 315.510 43.334 315.426 43.184 315.276C43.034 315.126 42.950 314.922 42.950 314.710C42.950 314.498 43.034 314.294 43.184 314.144C43.334 313.994 43.538 313.910 43.750 313.910C43.962 313.910 44.166 313.994 44.316 314.144C44.466 314.294 44.550 314.498 44.550 314.710Z" />
<path fill="none" stroke="#000000" stroke-width="0.500" d="M43.750 314.710h0.001" />
<path fill="none" stroke="#000000" stroke-width="0.350" d="M46.740 243.280L50.740 243.280" />
<path fill="none" stroke="#000000" stroke-width="0.350" d="M48.740 241.280L48.740 245.280" />
<path fill="#ffffff" stroke="none" d="M49.540 243.280C49.540 243.492 49.456 243.696 49.306 243.846C49.156 243.996 48.952 244.080 48.740 244.080C48.528 244.080 48.324 243.996 48.174 243.846C48.024 243.696 47.940 243.492 47.940 243.280C47.940 243.068 48.024 242.864 48.174 242.714C48.324 242.564 48.528 242.480 48.740 242.480C48.952 242.480 49.156 242.564 49.306 242.714C49.456 242.864 49.540 243.068 49.540 243.280Z" />
<path fill="none" stroke="#000000" stroke-width="0.500" d="M48.740 243.280h0.001" />
<path fill="none" stroke="#000000" stroke-width="0.350" d="M58.760 186.750L62.760 186.750" />
<path fill="none" stroke="#000000" stroke-width="0.350" d="M60.760 184.750L60.760 188.750" />
<path fill="#ffffff" stroke="none" d="M61.560 186.750C61.560 186.962 61.476 187.166 61.326 187.316C61.176 187.466 60.972 187.550 60.760 187.550C60.548 187.550 60.344 187.466 60.194 187.316C60.044 187.166 59.960 186.962 59.960 186.750C59.960 186.538 60.044 186.334 60.194 186.184C60.344 186.034 60.548 185.950 60.760 185.950C60.972 185.950 61.176 186.034 61.326 186.184C61.476 186.334 61.560 186.538 61.560 186.750Z" />
<path fill="none" stroke="#000000" stroke-width="0.500" d="M60.760 186.750h0.001" />
<path fill="none" stroke="#000000" stroke-width="0.350" d="M58.760 186.750L62.760 186.750" />
<path fill="none" stroke="#000000" stroke-width="0.350" d="M60.760 184.750L60.760 188.750" />
<path fill="#ffffff" stroke="none" d="M61.560 186.750C61.560 186.962 61.476 187.166 61.326 187.316C61.176 187.466 60.972 187.550 60.760 187.550C60.548 187.550 60.344 187.466 60.194 187.316C60.044 187.166 59.960 186.962 59.960 186.750C59.960 186.538 60.044 186.334 60.194 186.184C60.344 186.034 60.548 185.950 60.760 185.950C60.972 185.950 61.176 186.034 61.326 186.184C61.476 186.334 61.560 186.538 61.560 186.750Z" />
<path fill="none" stroke="#000000" stroke-width="0.500" d="M60.760 186.750h0.001" />
<path fill="none" stroke="#000000" stroke-width="0.350" d="M75.600 119.170L79.600 119.170" />
<path fill="none" stroke="#000000" stroke-width="0.350" d="M77.600 117.170L77.600 121.170" />
<path fill="#ffffff" stroke="none" d="M78.400 119.170C78.400 119.382 78.316 119.586 78.166 119.736C78.016 119.886 77.812 119.970 77.600 119.970C77.388 119.970 77.184 119.886 77.034 119.736C76.884 119.586 76.800 119.382 76.800 119.170C76.800 118.958 76.884 118.754 77.034 118.604C77.184 118.454 77.388 118.370 77.600 118.370C77.812 118.370 78.016 118.454 78.166 118.604C78.316 118.754 78.400 118.958 78.400 119.170Z" />
<path fill="none" stroke="#000000" stroke-width="0.500" d="M77.600 119.170h0.001" />
<path fill="none" stroke="#000000" stroke-width="0.350" d="M76.500 101.540L80.500 101.540" />
<path fill="none" stroke="#000000" stroke-width="0.350" d="M78.500 99.540L78.500 103.540" />
<path fill="#ffffff" stroke="none" d="M79.300 101.540C79.300 101.752 79.216 101.956 79.066 102.106C78.916 102.256 78.712 102.340 78.500 102.340C78.288 102.340 78.084 102.256 77.934 102.106C77.784 101.956 77.700 101.752 77.700 101.540C77.700 101.328 77.784 101.124 77.934 100.974C78.084 100.824 78.288 100.740 78.500 100.740C78.712 100.740 78.916 100.824 79.066 100.974C79.216 101.124 79.300 101.328 79.300 101.540Z" />
<path fill="none" stroke="#000000" stroke-width="0.500" d="M78.500 101.540h0.001" />
<path fill="none" stroke="#000000" stroke-width="0.350" d="M95.270 52.730L99.270 52.730" />
<path fill="none" stroke="#000000" stroke-width="0.350" d="M97.270 50.730L97.270 54.730" />
<path fill="#ffffff" stroke="none" d="M98.070 52.730C98.070 52.942 97.986 53.146 97.836 53.296C97.686 53.446 97.482 53.530 97.270 53.530C97.058 53.530 96.854 53.446 96.704 53.296C96.554 53.146 96.470 52.942 96.470 52.730C96.470 52.518 96.554 52.314 96.704 52.164C96.854 52.014 97.058 51.930 97.270 51.930C97.482 51.930 97.686 52.014 97.836 52.164C97.986 52.314 98.070 52.518 98.070 52.730Z" />
<path fill="none" stroke="#000000" stroke-width="0.500" d="M97.270 52.730h0.001" />
<path fill="none" stroke="#000000" stroke-width="0.350" d="M99.750 9.870L103.750 9.870" />
<path fill="none" stroke="#000000" stroke-width="0.350" d="M101.750 7.870L101.750 11.870" />
<path fill="#ffffff" stroke="none" d="M102.550 9.870C102.550 10.082 102.466 10.286 102.316 10.436C102.166 10.586 101.962 10.670 101.750 10.670C101.538 10.670 101.334 10.586 101.184 10.436C101.034 10.286 100.950 10.082 100.950 9.870C100.950 9.658 101.034 9.454 101.184 9.304C101.334 9.154 101.538 9.070 101.750 9.070C101.962 9.070 102.166 9.154 102.316 9.304C102.466 9.454 102.550 9.658 102.550 9.870Z" />
<path fill="none" stroke="#000000" stroke-width="0.500" d="M101.750 9.870h0.001" />
<path fill="none" stroke="#000000" stroke-width="0.350" d="M99.630 2.670L103.630 2.670" />
<path fill="none" stroke="#000000" stroke-width="0.350" d="M101.630 0.670L101.630 4.670" />
<path fill="#ffffff" stroke="none" d="M102.430 2.670C102.430 2.882 102.346 3.086 102.196 3.236C102.046 3.386 101.842 3.470 101.630 3.470C101.418 3.470 101.214 3.386 101.064 3.236C100.914 3.086 100.830 2.882 100.830 2.670C100.830 2.458 100.914 2.254 101.064 2.104C101.214 1.954 101.418 1.870 101.630 1.870C101.842 1.870 102.046 1.954 102.196 2.104C102.346 2.254 102.430 2.458 102.430 2.670Z" />
<path fill="none" stroke="#000000" stroke-width="0.500" d="M101.630 2.670h0.001" />
</g>
<g id="X_aaaaaaa_beyond.svg">
<text font-family="cmss10" font-size="6.974" fill="black" stroke="none" transform="matrix(1.000 0.000 -0.000 -1.000 36.635 623.205)">&#x31;</text>
<text font-family="cmss10" font-size="6.974" fill="black" stroke="none" transform="matrix(1.000 0.000 -0.000 -1.000 0.125 564.755)">&#x32;</text>
<text font-family="cmss10" font-size="6.974" fill="black" stroke="none" transform="matrix(1.000 0.000 -0.000 -1.000 5.395 489.125)">&#x33;</text>
<text font-family="cmss10" font-size="6.974" fill="black" stroke="none" transform="matrix(1.000 0.000 -0.000 -1.000 24.335 448.415)">&#x34;</text>
<text font-family="cmss10" font-size="6.974" fill="black" stroke="none" transform="matrix(1.000 0.000 -0.000 -1.000 47.695 316.095)">&#x35;</text>
<text font-family="cmss10" font-size="6.974" fill="black" stroke="none" transform="matrix(1.000 0.000 -0.000 -1.000 41.625 312.585)">&#x36;</text>
<text font-family="cmss10" font-size="6.974" fill="black" stroke="none" transform="matrix(1.000 0.000 -0.000 -1.000 46.615 241.155)">&#x37;</text>
<text font-family="cmss10" font-size="6.974" fill="black" stroke="none" transform="matrix(1.000 0.000 -0.000 -1.000 58.635 184.625)">&#x38;</text>
<text font-family="cmss10" font-size="6.974" fill="black" stroke="none" transform="matrix(1.000 0.000 -0.000 -1.000 58.635 184.625)">&#x39;</text>
<text font-family="cmss10" font-size="6.974" fill="black" stroke="none" transform="matrix(1.000 0.000 -0.000 -1.000 75.475 117.045)">&#x31;&#x30;</text>
<text font-family="cmss10" font-size="6.974" fill="black" stroke="none" transform="matrix(1.000 0.000 -0.000 -1.000 76.375 99.415)">&#x31;&#x31;</text>
<text font-family="cmss10" font-size="6.974" fill="black" stroke="none" transform="matrix(1.000 0.000 -0.000 -1.000 95.145 50.605)">&#x31;&#x32;</text>
<text font-family="cmss10" font-size="6.974" fill="black" stroke="none" transform="matrix(1.000 0.000 -0.000 -1.000 99.625 7.745)">&#x31;&#x33;</text>
<text font-family="cmss10" font-size="6.974" fill="black" stroke="none" transform="matrix(1.000 0.000 -0.000 -1.000 99.505 0.545)">&#x31;&#x34;</text>
</g>
<clipPath id="clip_viewBox">
<path d="M-67.109 -653.676L99.584 -653.676L99.584 34.017L-67.109 34.017z" />
</clipPath>
</defs>
<g transform="scale(1,-1)" fill="#000000" stroke="#000000" stroke-linecap="round" stroke-linejoin="round" stroke-miterlimit="10" fill-rule="evenodd" clip-rule="evenodd" clip-path="url(#clip_viewBox)">
<use x="-38.762" y="-625.329" xlink:href="#E_aaaaaaa_beyond.svg" />
<use x="-35.762" y="-622.329" xlink:href="#X_aaaaaaa_beyond.svg" />
</g>
</svg>
