0
SECTION
2
HEADER
9
$EXTMIN
10
0.000000
20
0.000000
30
0.000000
9
$EXTMAX
10
208.350000
20
179.770000
30
61.730000
9
$PDMODE
70
3
9
$PDSIZE
40
  0.80
0
ENDSEC
0
SECTION
2
TABLES
0
TABLE
2
LTYPE
70
10
0
LTYPE
2
CONTINUOUS
70
64
3
Continuous
72
65
73
0
40
0.0
0
LTYPE
2
DASHED
70
64
3
Dashed
72
65
73
2
40
2.5
49
1.25
49
-1.25
0
ENDTAB
0
TABLE
2
LAYER
70
10
0
LAYER
2
CentreLine
70
64
62
5
6
CONTINUOUS
0
LAYER
2
Stations
70
64
62
7
6
CONTINUOUS
0
LAYER
2
Labels
70
64
62
7
6
CONTINUOUS
0
LAYER
2
Surface
70
64
62
5
6
DASHED
0
LAYER
2
SurfaceStations
70
64
62
7
6
CONTINUOUS
0
LAYER
2
SurfaceLabels
70
64
62
7
6
CONTINUOUS
0
LAYER
2
Grid
70
64
62
7
6
CONTINUOUS
0
ENDTAB
0
ENDSEC
0
SECTION
2
ENTITIES
0
LINE
8
Grid
10
100.00
20
  0.00
30
0
11
100.00
21
179.77
31
0
0
LINE
8
Grid
10
200.00
20
  0.00
30
0
11
200.00
21
179.77
31
0
0
LINE
8
Grid
10
  0.00
20
100.00
30
0
11
208.35
21
100.00
31
0
0
LINE
8
CentreLine
10
127.01
20
122.27
30
 35.32
11
128.01
21
127.10
31
 35.38
0
LINE
8
CentreLine
10
128.01
20
127.10
30
 35.38
11
130.23
21
128.92
31
 35.01
0
LINE
8
CentreLine
10
130.23
20
128.92
30
 35.01
11
134.92
21
129.77
31
 34.99
0
LINE
8
CentreLine
10
134.92
20
129.77
30
 34.99
11
139.00
21
128.13
31
 32.41
0
LINE
8
CentreLine
10
139.00
20
128.13
30
 32.41
11
140.73
21
125.75
31
 31.98
0
LINE
8
CentreLine
10
140.73
20
125.75
30
 31.98
11
144.71
21
123.45
31
 31.63
0
LINE
8
CentreLine
10
144.71
20
123.45
30
 31.63
11
147.05
21
123.79
31
 30.94
0
LINE
8
CentreLine
10
147.05
20
123.79
30
 30.94
11
151.09
21
122.17
31
 30.22
0
LINE
8
CentreLine
10
151.09
20
122.17
30
 30.22
11
157.05
21
122.51
31
 28.80
0
LINE
8
CentreLine
10
157.05
20
122.51
30
 28.80
11
154.90
21
119.37
31
 28.25
0
LINE
8
CentreLine
10
154.90
20
119.37
30
 28.25
11
148.99
21
114.99
31
 29.63
0
LINE
8
CentreLine
10
148.99
20
114.99
30
 29.63
11
148.13
21
112.65
31
 29.26
0
LINE
8
CentreLine
10
148.13
20
112.65
30
 29.26
11
144.62
21
111.40
31
 30.31
0
LINE
8
CentreLine
10
144.62
20
111.40
30
 30.31
11
141.90
21
111.74
31
 31.40
0
LINE
8
CentreLine
10
141.90
20
111.74
30
 31.40
11
139.66
21
115.17
31
 32.39
0
LINE
8
CentreLine
10
139.66
20
115.17
30
 32.39
11
137.82
21
115.02
31
 32.67
0
LINE
8
CentreLine
10
137.82
20
115.02
30
 32.67
11
135.12
21
120.51
31
 33.93
0
LINE
8
CentreLine
10
135.12
20
120.51
30
 33.93
11
131.40
21
119.87
31
 34.78
0
LINE
8
CentreLine
10
131.40
20
119.87
30
 34.78
11
129.40
21
120.89
31
 34.85
0
LINE
8
CentreLine
10
129.40
20
120.89
30
 34.85
11
127.01
21
122.27
31
 35.32
0
LINE
8
CentreLine
10
127.01
20
122.27
30
 35.32
11
128.15
21
118.96
31
 36.26
0
LINE
8
CentreLine
10
128.15
20
118.96
30
 36.26
11
128.22
21
114.94
31
 35.83
0
LINE
8
CentreLine
10
128.22
20
114.94
30
 35.83
11
125.45
21
112.69
31
 37.42
0
LINE
8
CentreLine
10
125.45
20
112.69
30
 37.42
11
123.08
21
114.99
31
 39.40
0
LINE
8
CentreLine
10
123.08
20
114.99
30
 39.40
11
121.82
21
113.59
31
 40.72
0
LINE
8
CentreLine
10
121.82
20
113.59
30
 40.72
11
114.80
21
112.85
31
 41.84
0
LINE
8
CentreLine
10
114.80
20
112.85
30
 41.84
11
110.25
21
107.96
31
 41.72
0
LINE
8
CentreLine
10
110.25
20
107.96
30
 41.72
11
106.21
21
107.18
31
 43.39
0
LINE
8
CentreLine
10
106.21
20
107.18
30
 43.39
11
105.48
21
103.08
31
 43.60
0
LINE
8
CentreLine
10
105.48
20
103.08
30
 43.60
11
107.41
21
 99.86
31
 43.34
0
LINE
8
CentreLine
10
107.41
20
 99.86
30
 43.34
11
104.70
21
 96.13
31
 43.26
0
LINE
8
CentreLine
10
104.70
20
 96.13
30
 43.26
11
104.43
21
 93.07
31
 43.86
0
LINE
8
CentreLine
10
104.43
20
 93.07
30
 43.86
11
 97.51
21
 91.85
31
 43.49
0
LINE
8
CentreLine
10
 97.51
20
 91.85
30
 43.49
11
 94.26
21
 87.70
31
 45.41
0
LINE
8
CentreLine
10
 94.26
20
 87.70
30
 45.41
11
 91.06
21
 85.85
31
 45.54
0
LINE
8
CentreLine
10
 91.06
20
 85.85
30
 45.54
11
 85.96
21
 84.95
31
 44.15
0
LINE
8
CentreLine
10
 85.96
20
 84.95
30
 44.15
11
 83.62
21
 81.34
31
 45.06
0
LINE
8
CentreLine
10
 83.62
20
 81.34
30
 45.06
11
 84.69
21
 77.85
31
 45.25
0
LINE
8
CentreLine
10
 84.69
20
 77.85
30
 45.25
11
 90.59
21
 78.99
31
 45.57
0
LINE
8
CentreLine
10
 90.59
20
 78.99
30
 45.57
11
 88.90
21
 73.81
31
 45.09
0
LINE
8
CentreLine
10
 88.90
20
 73.81
30
 45.09
11
 90.87
21
 70.41
31
 45.16
0
LINE
8
CentreLine
10
 90.87
20
 70.41
30
 45.16
11
 87.97
21
 68.14
31
 44.51
0
LINE
8
CentreLine
10
 87.97
20
 68.14
30
 44.51
11
 86.39
21
 63.29
31
 44.42
0
LINE
8
CentreLine
10
 86.39
20
 63.29
30
 44.42
11
 82.69
21
 61.32
31
 44.13
0
LINE
8
CentreLine
10
 82.69
20
 61.32
30
 44.13
11
 80.10
21
 57.02
31
 44.48
0
LINE
8
CentreLine
10
 80.10
20
 57.02
30
 44.48
11
 74.72
21
 54.62
31
 44.38
0
LINE
8
CentreLine
10
 74.72
20
 54.62
30
 44.38
11
 73.56
21
 51.59
31
 44.61
0
LINE
8
CentreLine
10
 73.56
20
 51.59
30
 44.61
11
 71.69
21
 51.06
31
 46.18
0
LINE
8
CentreLine
10
 71.69
20
 51.06
30
 46.18
11
 65.01
21
 50.00
31
 47.74
0
LINE
8
CentreLine
10
 65.01
20
 50.00
30
 47.74
11
 63.21
21
 53.69
31
 48.61
0
LINE
8
CentreLine
10
 63.21
20
 53.69
30
 48.61
11
 65.50
21
 61.65
31
 49.19
0
LINE
8
CentreLine
10
 65.50
20
 61.65
30
 49.19
11
 59.86
21
 62.04
31
 51.14
0
LINE
8
CentreLine
10
 59.86
20
 62.04
30
 51.14
11
 57.63
21
 67.07
31
 52.71
0
LINE
8
CentreLine
10
 57.63
20
 67.07
30
 52.71
11
 51.39
21
 69.72
31
 54.66
0
LINE
8
CentreLine
10
 51.39
20
 69.72
30
 54.66
11
 50.00
21
 73.99
31
 56.85
0
LINE
8
CentreLine
10
 50.00
20
 73.99
30
 56.85
11
 51.91
21
 73.72
31
 57.79
0
LINE
8
CentreLine
10
 51.91
20
 73.72
30
 57.79
11
 50.97
21
 76.16
31
 59.90
0
LINE
8
CentreLine
10
 50.97
20
 76.16
30
 59.90
11
 55.13
21
 77.27
31
 61.73
0
LINE
8
CentreLine
10
121.82
20
113.59
30
 40.72
11
120.78
21
117.72
31
 39.82
0
LINE
8
CentreLine
10
120.78
20
117.72
30
 39.82
11
122.54
21
119.37
31
 39.56
0
LINE
8
CentreLine
10
122.54
20
119.37
30
 39.56
11
125.08
21
120.00
31
 39.43
0
LINE
8
CentreLine
10
125.08
20
120.00
30
 39.43
11
126.59
21
123.09
31
 38.69
0
LINE
8
CentreLine
10
126.59
20
123.09
30
 38.69
11
129.51
21
124.21
31
 38.42
0
LINE
8
CentreLine
10
154.90
20
119.37
30
 28.25
11
157.83
21
122.30
31
 28.91
0
LINE
8
CentreLine
10
157.83
20
122.30
30
 28.91
11
157.83
21
122.30
31
  0.00
0
LINE
8
CentreLine
10
157.83
20
122.30
30
  0.00
11
158.35
21
123.37
31
  1.31
0
TEXT
8
Labels
10
158.35
20
123.37
30
  1.31
40
  0.60
1
testify.67
0
TEXT
8
SurfaceLabels
10
158.35
20
123.37
30
  1.31
40
  0.60
1
canticle_for_migovec.1
0
TEXT
8
Labels
10
 55.13
20
 77.27
30
 61.73
40
  0.60
1
testify.1
0
TEXT
8
Labels
10
 50.97
20
 76.16
30
 59.90
40
  0.60
1
testify.2
0
TEXT
8
Labels
10
 51.91
20
 73.72
30
 57.79
40
  0.60
1
testify.3
0
TEXT
8
Labels
10
 50.00
20
 73.99
30
 56.85
40
  0.60
1
testify.4
0
TEXT
8
Labels
10
 51.39
20
 69.72
30
 54.66
40
  0.60
1
testify.5
0
TEXT
8
Labels
10
 57.63
20
 67.07
30
 52.71
40
  0.60
1
testify.6
0
TEXT
8
Labels
10
 59.86
20
 62.04
30
 51.14
40
  0.60
1
testify.7
0
TEXT
8
Labels
10
 65.50
20
 61.65
30
 49.19
40
  0.60
1
testify.8
0
TEXT
8
Labels
10
 63.21
20
 53.69
30
 48.61
40
  0.60
1
testify.9
0
TEXT
8
Labels
10
 65.01
20
 50.00
30
 47.74
40
  0.60
1
testify.10
0
TEXT
8
Labels
10
 71.69
20
 51.06
30
 46.18
40
  0.60
1
testify.11
0
TEXT
8
Labels
10
 73.56
20
 51.59
30
 44.61
40
  0.60
1
testify.12
0
TEXT
8
Labels
10
 74.72
20
 54.62
30
 44.38
40
  0.60
1
testify.13
0
TEXT
8
Labels
10
 80.10
20
 57.02
30
 44.48
40
  0.60
1
testify.14
0
TEXT
8
Labels
10
 82.69
20
 61.32
30
 44.13
40
  0.60
1
testify.15
0
TEXT
8
Labels
10
 86.39
20
 63.29
30
 44.42
40
  0.60
1
testify.16
0
TEXT
8
Labels
10
 87.97
20
 68.14
30
 44.51
40
  0.60
1
testify.17
0
TEXT
8
Labels
10
 90.87
20
 70.41
30
 45.16
40
  0.60
1
testify.18
0
TEXT
8
Labels
10
 88.90
20
 73.81
30
 45.09
40
  0.60
1
testify.19
0
TEXT
8
Labels
10
 90.59
20
 78.99
30
 45.57
40
  0.60
1
testify.20
0
TEXT
8
Labels
10
 84.69
20
 77.85
30
 45.25
40
  0.60
1
testify.21
0
TEXT
8
Labels
10
 83.62
20
 81.34
30
 45.06
40
  0.60
1
testify.22
0
TEXT
8
Labels
10
 85.96
20
 84.95
30
 44.15
40
  0.60
1
testify.23
0
TEXT
8
Labels
10
 91.06
20
 85.85
30
 45.54
40
  0.60
1
testify.24
0
TEXT
8
Labels
10
 94.26
20
 87.70
30
 45.41
40
  0.60
1
testify.25
0
TEXT
8
Labels
10
 97.51
20
 91.85
30
 43.49
40
  0.60
1
testify.26
0
TEXT
8
Labels
10
104.43
20
 93.07
30
 43.86
40
  0.60
1
testify.28
0
TEXT
8
Labels
10
104.70
20
 96.13
30
 43.26
40
  0.60
1
testify.29
0
TEXT
8
Labels
10
107.41
20
 99.86
30
 43.34
40
  0.60
1
testify.30
0
TEXT
8
Labels
10
105.48
20
103.08
30
 43.60
40
  0.60
1
testify.31
0
TEXT
8
Labels
10
106.21
20
107.18
30
 43.39
40
  0.60
1
testify.32
0
TEXT
8
Labels
10
110.25
20
107.96
30
 41.72
40
  0.60
1
testify.33
0
TEXT
8
Labels
10
114.80
20
112.85
30
 41.84
40
  0.60
1
testify.34
0
TEXT
8
Labels
10
121.82
20
113.59
30
 40.72
40
  0.60
1
testify.35
0
TEXT
8
Labels
10
120.78
20
117.72
30
 39.82
40
  0.60
1
testify.36
0
TEXT
8
Labels
10
129.51
20
124.21
30
 38.42
40
  0.60
1
testify.37
0
TEXT
8
Labels
10
126.59
20
123.09
30
 38.69
40
  0.60
1
testify.38
0
TEXT
8
Labels
10
125.08
20
120.00
30
 39.43
40
  0.60
1
testify.39
0
TEXT
8
Labels
10
122.54
20
119.37
30
 39.56
40
  0.60
1
testify.40
0
TEXT
8
Labels
10
123.08
20
114.99
30
 39.40
40
  0.60
1
testify.41
0
TEXT
8
Labels
10
125.45
20
112.69
30
 37.42
40
  0.60
1
testify.42
0
TEXT
8
Labels
10
128.22
20
114.94
30
 35.83
40
  0.60
1
testify.43
0
TEXT
8
Labels
10
128.15
20
118.96
30
 36.26
40
  0.60
1
testify.44
0
TEXT
8
Labels
10
127.01
20
122.27
30
 35.32
40
  0.60
1
testify.45
0
TEXT
8
Labels
10
128.01
20
127.10
30
 35.38
40
  0.60
1
testify.46
0
TEXT
8
Labels
10
130.23
20
128.92
30
 35.01
40
  0.60
1
testify.47
0
TEXT
8
Labels
10
134.92
20
129.77
30
 34.99
40
  0.60
1
testify.48
0
TEXT
8
Labels
10
139.00
20
128.13
30
 32.41
40
  0.60
1
testify.49
0
TEXT
8
Labels
10
140.73
20
125.75
30
 31.98
40
  0.60
1
testify.50
0
TEXT
8
Labels
10
144.71
20
123.45
30
 31.63
40
  0.60
1
testify.51
0
TEXT
8
Labels
10
147.05
20
123.79
30
 30.94
40
  0.60
1
testify.52
0
TEXT
8
Labels
10
151.09
20
122.17
30
 30.22
40
  0.60
1
testify.53
0
TEXT
8
Labels
10
157.05
20
122.51
30
 28.80
40
  0.60
1
testify.54
0
TEXT
8
Labels
10
154.90
20
119.37
30
 28.25
40
  0.60
1
testify.55
0
TEXT
8
Labels
10
148.99
20
114.99
30
 29.63
40
  0.60
1
testify.56
0
TEXT
8
Labels
10
148.13
20
112.65
30
 29.26
40
  0.60
1
testify.57
0
TEXT
8
Labels
10
144.62
20
111.40
30
 30.31
40
  0.60
1
testify.58
0
TEXT
8
Labels
10
141.90
20
111.74
30
 31.40
40
  0.60
1
testify.59
0
TEXT
8
Labels
10
139.66
20
115.17
30
 32.39
40
  0.60
1
testify.60
0
TEXT
8
Labels
10
137.82
20
115.02
30
 32.67
40
  0.60
1
testify.61
0
TEXT
8
Labels
10
135.12
20
120.51
30
 33.93
40
  0.60
1
testify.62
0
TEXT
8
Labels
10
131.40
20
119.87
30
 34.78
40
  0.60
1
testify.63
0
TEXT
8
Labels
10
129.40
20
120.89
30
 34.85
40
  0.60
1
testify.64
0
TEXT
8
Labels
10
157.83
20
122.30
30
 28.91
40
  0.60
1
testify.65
0
TEXT
8
Labels
10
157.83
20
122.30
30
  0.00
40
  0.60
1
testify.66
000
ENDSEC
000
EOF
