<?xml version="1.0" encoding="ISO-8859-1"?>
<svg version="1.1" baseProfile="full"
xmlns="http://www.w3.org/2000/svg"
xmlns:xlink="http://www.w3.org/1999/xlink"
xmlns:ev="http://www.w3.org/2001/xml-events"
width="537.520mm" height="662.640mm"
viewBox="0 0 537.520 662.640">
<title>below_donji_milanovac</title>
<g transform="translate(5.000 657.640)">
<g id="Legs" stroke="black" fill="none" stroke-width="0.4px">
<path d="M220.640 -382.400L209.360 -379.800L209.360 -379.800L200.000 -342.280"/>
<path d="M209.360 -379.800L204.440 -383.880L204.440 -383.880"/>
<path d="M209.360 -379.800L212.480 -424.720L214.440 -438.480L221.040 -452.640L244.520 -443.160L245.880 -432.080L265.640 -423.680L296.600 -415.960L316.680 -439.080L316.680 -439.080L327.520 -450.680L327.520 -450.680L317.480 -443.400L321.840 -430.040L317.000 -416.040L318.040 -396.720L320.920 -369.200L318.440 -345.720L317.840 -310.200L320.800 -302.840L322.400 -293.840L318.280 -277.400L314.520 -276.040"/>
<path d="M318.280 -277.400L307.640 -254.600L295.280 -250.800L284.840 -247.600L277.280 -200.000L314.920 -210.760"/>
</g>
<g id="Labels" font-size="0.600em">
<text transform="translate(220.640 -382.400)">below_donji_milanovac.1</text>
<text transform="translate(209.360 -379.800)">below_donji_milanovac.2</text>
<text transform="translate(209.360 -379.800)">below_donji_milanovac.3</text>
<text transform="translate(200.000 -342.280)">below_donji_milanovac.4</text>
<text transform="translate(204.440 -383.880)">below_donji_milanovac.5</text>
<text transform="translate(204.440 -383.880)">below_donji_milanovac.6</text>
<text transform="translate(212.480 -424.720)">below_donji_milanovac.7</text>
<text transform="translate(214.440 -438.480)">below_donji_milanovac.8</text>
<text transform="translate(221.040 -452.640)">below_donji_milanovac.9</text>
<text transform="translate(244.520 -443.160)">below_donji_milanovac.10</text>
<text transform="translate(245.880 -432.080)">below_donji_milanovac.11</text>
<text transform="translate(265.640 -423.680)">below_donji_milanovac.12</text>
<text transform="translate(296.600 -415.960)">below_donji_milanovac.13</text>
<text transform="translate(316.680 -439.080)">below_donji_milanovac.14</text>
<text transform="translate(316.680 -439.080)">below_donji_milanovac.15</text>
<text transform="translate(327.520 -450.680)">below_donji_milanovac.16</text>
<text transform="translate(327.520 -450.680)">below_donji_milanovac.17</text>
<text transform="translate(317.480 -443.400)">below_donji_milanovac.18</text>
<text transform="translate(321.840 -430.040)">below_donji_milanovac.19</text>
<text transform="translate(317.000 -416.040)">below_donji_milanovac.20</text>
<text transform="translate(318.040 -396.720)">below_donji_milanovac.21</text>
<text transform="translate(320.920 -369.200)">below_donji_milanovac.22</text>
<text transform="translate(318.440 -345.720)">below_donji_milanovac.23</text>
<text transform="translate(317.840 -310.200)">below_donji_milanovac.24</text>
<text transform="translate(320.800 -302.840)">below_donji_milanovac.25</text>
<text transform="translate(322.400 -293.840)">below_donji_milanovac.26</text>
<text transform="translate(318.280 -277.400)">below_donji_milanovac.27</text>
<text transform="translate(314.520 -276.040)">below_donji_milanovac.28</text>
<text transform="translate(307.640 -254.600)">below_donji_milanovac.29</text>
<text transform="translate(295.280 -250.800)">below_donji_milanovac.30</text>
<text transform="translate(284.840 -247.600)">below_donji_milanovac.31</text>
<text transform="translate(277.280 -200.000)">below_donji_milanovac.32</text>
<text transform="translate(314.920 -210.760)">below_donji_milanovac.33</text>
</g>
</g>
</svg>
