<?xml version="1.0" encoding="UTF-8" standalone="no"?>
<svg
   xmlns:dc="http://purl.org/dc/elements/1.1/"
   xmlns:cc="http://creativecommons.org/ns#"
   xmlns:rdf="http://www.w3.org/1999/02/22-rdf-syntax-ns#"
   xmlns:svg="http://www.w3.org/2000/svg"
   xmlns="http://www.w3.org/2000/svg"
   xmlns:sodipodi="http://sodipodi.sourceforge.net/DTD/sodipodi-0.dtd"
   xmlns:inkscape="http://www.inkscape.org/namespaces/inkscape"
   version="1.1"
   width="633.360mm"
   height="542.800mm"
   viewBox="0 0 633.360 542.800"
   id="svg125"
   sodipodi:docname="spodnji_main_chamber_resurvey_extend.svg"
   inkscape:version="0.92.2 5c3e80d, 2017-08-06">
  <metadata
     id="metadata131">
    <rdf:RDF>
      <cc:Work
         rdf:about="">
        <dc:format>image/svg+xml</dc:format>
        <dc:type
           rdf:resource="http://purl.org/dc/dcmitype/StillImage" />
      </cc:Work>
    </rdf:RDF>
  </metadata>
  <defs
     id="defs129" />
  <sodipodi:namedview
     pagecolor="#ffffff"
     bordercolor="#666666"
     borderopacity="1"
     objecttolerance="10"
     gridtolerance="10"
     guidetolerance="10"
     inkscape:pageopacity="0"
     inkscape:pageshadow="2"
     inkscape:window-width="740"
     inkscape:window-height="480"
     id="namedview127"
     showgrid="false"
     inkscape:zoom="0.92028987"
     inkscape:cx="866.58679"
     inkscape:cy="1283.3748"
     inkscape:window-x="0"
     inkscape:window-y="0"
     inkscape:window-maximized="0"
     inkscape:current-layer="svg125" />
  <title
     id="title2">spodnji_main_chamber_resurvey</title>
  <g
     transform="translate(5.000 537.800)"
     id="g123">
    <g
       id="Legs"
       stroke="black"
       fill="none"
       stroke-width="0.4px">
      <path
         d="M201.720 -332.800L200.000 -324.960"
         id="path4" />
      <path
         d="M215.000 -332.400L201.720 -332.800"
         id="path6" />
      <path
         d="M225.040 -331.560L215.000 -332.400"
         id="path8" />
      <path
         d="M235.040 -322.040L225.040 -331.560"
         id="path10" />
      <path
         d="M240.680 -296.000L235.040 -322.040"
         id="path12" />
      <path
         d="M269.760 -286.280L240.680 -296.000"
         id="path14" />
      <path
         d="M273.080 -270.440L269.760 -286.280"
         id="path16" />
      <path
         d="M287.440 -256.080L273.080 -270.440"
         id="path18" />
      <path
         d="M290.880 -215.360L287.440 -256.080"
         id="path20" />
      <path
         d="M315.120 -212.960L290.880 -215.360"
         id="path22" />
      <path
         d="M347.360 -210.600L315.120 -212.960"
         id="path24" />
      <path
         d="M363.600 -206.880L347.360 -210.600"
         id="path26" />
      <path
         d="M384.160 -204.520L363.600 -206.880"
         id="path28" />
      <path
         d="M401.400 -202.720L384.160 -204.520"
         id="path30" />
      <path
         d="M401.400 -202.720L423.360 -200.000"
         id="path32" />
    </g>
    <g
       id="Labels"
       font-size="0.600em">
      <text
         transform="translate(200,-324.96)"
         id="text35">15</text>
      <text
         transform="translate(200,-324.96)"
         id="text37">pivnica_20</text>
      <text
         transform="translate(401.4,-202.72)"
         id="text39">0</text>
      <text
         transform="translate(384.16,-204.52)"
         id="text41">1</text>
      <text
         transform="translate(423.36,-200)"
         id="text43">2</text>
      <text
         transform="translate(363.6,-206.88)"
         id="text45">3</text>
      <text
         transform="translate(347.36,-210.6)"
         id="text47">4</text>
      <text
         transform="translate(315.12,-212.96)"
         id="text49">5</text>
      <text
         transform="translate(290.88,-215.36)"
         id="text51">6</text>
      <text
         transform="translate(287.44,-256.08)"
         id="text53">7</text>
      <text
         transform="translate(273.08,-270.44)"
         id="text55">8</text>
      <text
         transform="translate(269.76,-286.28)"
         id="text57">9</text>
      <text
         transform="translate(240.68,-296)"
         id="text59">10</text>
      <text
         transform="translate(235.04,-322.04)"
         id="text61">11</text>
      <text
         transform="translate(225.04,-331.56)"
         id="text63">12</text>
      <text
         transform="translate(215,-332.4)"
         id="text65">13</text>
      <text
         transform="translate(201.72,-332.8)"
         id="text67">14</text>
    </g>
    <g
       id="Stations"
       stroke="black"
       fill="none"
       stroke-width="0.05px">
      <circle
         id="spodnji_main_chamber_resurvey.15"
         cx="200.000"
         cy="-324.960"
         r="1.131" />
      <path
         d="M199.200 -325.760L200.800 -324.160M200.800 -325.760L199.200 -324.160"
         id="path71" />
      <circle
         id="circle73"
         cx="200.000"
         cy="-324.960"
         r="1.131" />
      <path
         d="M199.200 -325.760L200.800 -324.160M200.800 -325.760L199.200 -324.160"
         id="path75" />
      <circle
         id="spodnji_main_chamber_resurvey.0"
         cx="401.400"
         cy="-202.720"
         r="1.131" />
      <path
         d="M400.600 -203.520L402.200 -201.920M402.200 -203.520L400.600 -201.920"
         id="path78" />
      <circle
         id="spodnji_main_chamber_resurvey.1"
         cx="384.160"
         cy="-204.520"
         r="1.131" />
      <path
         d="M383.360 -205.320L384.960 -203.720M384.960 -205.320L383.360 -203.720"
         id="path81" />
      <circle
         id="spodnji_main_chamber_resurvey.2"
         cx="423.360"
         cy="-200.000"
         r="1.131" />
      <path
         d="M422.560 -200.800L424.160 -199.200M424.160 -200.800L422.560 -199.200"
         id="path84" />
      <circle
         id="spodnji_main_chamber_resurvey.3"
         cx="363.600"
         cy="-206.880"
         r="1.131" />
      <path
         d="M362.800 -207.680L364.400 -206.080M364.400 -207.680L362.800 -206.080"
         id="path87" />
      <circle
         id="spodnji_main_chamber_resurvey.4"
         cx="347.360"
         cy="-210.600"
         r="1.131" />
      <path
         d="M346.560 -211.400L348.160 -209.800M348.160 -211.400L346.560 -209.800"
         id="path90" />
      <circle
         id="spodnji_main_chamber_resurvey.5"
         cx="315.120"
         cy="-212.960"
         r="1.131" />
      <path
         d="M314.320 -213.760L315.920 -212.160M315.920 -213.760L314.320 -212.160"
         id="path93" />
      <circle
         id="spodnji_main_chamber_resurvey.6"
         cx="290.880"
         cy="-215.360"
         r="1.131" />
      <path
         d="M290.080 -216.160L291.680 -214.560M291.680 -216.160L290.080 -214.560"
         id="path96" />
      <circle
         id="spodnji_main_chamber_resurvey.7"
         cx="287.440"
         cy="-256.080"
         r="1.131" />
      <path
         d="M286.640 -256.880L288.240 -255.280M288.240 -256.880L286.640 -255.280"
         id="path99" />
      <circle
         id="spodnji_main_chamber_resurvey.8"
         cx="273.080"
         cy="-270.440"
         r="1.131" />
      <path
         d="M272.280 -271.240L273.880 -269.640M273.880 -271.240L272.280 -269.640"
         id="path102" />
      <circle
         id="spodnji_main_chamber_resurvey.9"
         cx="269.760"
         cy="-286.280"
         r="1.131" />
      <path
         d="M268.960 -287.080L270.560 -285.480M270.560 -287.080L268.960 -285.480"
         id="path105" />
      <circle
         id="spodnji_main_chamber_resurvey.10"
         cx="240.680"
         cy="-296.000"
         r="1.131" />
      <path
         d="M239.880 -296.800L241.480 -295.200M241.480 -296.800L239.880 -295.200"
         id="path108" />
      <circle
         id="spodnji_main_chamber_resurvey.11"
         cx="235.040"
         cy="-322.040"
         r="1.131" />
      <path
         d="M234.240 -322.840L235.840 -321.240M235.840 -322.840L234.240 -321.240"
         id="path111" />
      <circle
         id="spodnji_main_chamber_resurvey.12"
         cx="225.040"
         cy="-331.560"
         r="1.131" />
      <path
         d="M224.240 -332.360L225.840 -330.760M225.840 -332.360L224.240 -330.760"
         id="path114" />
      <circle
         id="spodnji_main_chamber_resurvey.13"
         cx="215.000"
         cy="-332.400"
         r="1.131" />
      <path
         d="M214.200 -333.200L215.800 -331.600M215.800 -333.200L214.200 -331.600"
         id="path117" />
      <circle
         id="spodnji_main_chamber_resurvey.14"
         cx="201.720"
         cy="-332.800"
         r="1.131" />
      <path
         d="M200.920 -333.600L202.520 -332.000M202.520 -333.600L200.920 -332.000"
         id="path120" />
    </g>
  </g>
</svg>
