<?xml version="1.0" encoding="utf-8" standalone="no"?>
<!-- Generated by Therion 5.4.1+? (compiled on 2018-06-25) -->
<!DOCTYPE svg PUBLIC "-//W3C//DTD SVG 1.1//EN" "http://www.w3.org/Graphics/SVG/1.1/DTD/svg11.dtd">
<svg width="18.051cm" height="18.263cm" viewBox="-342.184 -418.775 511.693 517.693" xmlns="http://www.w3.org/2000/svg" xmlns:xlink="http://www.w3.org/1999/xlink">
<defs>
<g id="F_aaaaaaa_weepeople.svg">
</g>
<g id="G_aaaaaaa_weepeople.svg">
</g>
<g id="B_aaaaaaa_weepeople.svg">
</g>
<g id="I_aaaaaaa_weepeople.svg">
</g>
<g id="E_aaaaaaa_weepeople.svg">
<path fill="none" stroke="#000000" stroke-width="0.500" d="M313.840 70.570L270.130 97.900" />
<path fill="none" stroke="#000000" stroke-width="0.500" d="M313.840 70.570L421.500 31.400" />
<path fill="none" stroke="#000000" stroke-width="0.500" d="M421.500 31.400L444.290 13.540" />
<path fill="none" stroke="#000000" stroke-width="0.500" d="M421.500 31.400L313.840 70.570" />
<path fill="none" stroke="#000000" stroke-width="0.500" d="M270.130 97.900L224.550 108.390" />
<path fill="none" stroke="#000000" stroke-width="0.500" d="M270.130 97.900L313.840 70.570" />
<path fill="none" stroke="#000000" stroke-width="0.500" d="M224.550 108.390L128.680 159.350" />
<path fill="none" stroke="#000000" stroke-width="0.500" d="M224.550 108.390L270.130 97.900" />
<path fill="none" stroke="#000000" stroke-width="0.500" d="M128.680 159.350L104.870 165.760" />
<path fill="none" stroke="#000000" stroke-width="0.500" d="M128.680 159.350L224.550 108.390" />
<path fill="none" stroke="#000000" stroke-width="0.500" d="M104.870 165.760L111.900 198.870" />
<path fill="none" stroke="#000000" stroke-width="0.500" d="M104.870 165.760L128.680 159.350" />
<path fill="none" stroke="#000000" stroke-width="0.500" d="M111.900 198.870L155.950 202.720" />
<path fill="none" stroke="#000000" stroke-width="0.500" d="M111.900 198.870L104.870 165.760" />
<path fill="none" stroke="#000000" stroke-width="0.500" d="M155.950 202.720L145.970 245.870" />
<path fill="none" stroke="#000000" stroke-width="0.500" d="M155.950 202.720L111.900 198.870" />
<path fill="none" stroke="#000000" stroke-width="0.500" d="M145.970 245.870L158.900 294.170" />
<path fill="none" stroke="#000000" stroke-width="0.500" d="M145.970 245.870L155.950 202.720" />
<path fill="none" stroke="#000000" stroke-width="0.500" d="M158.900 294.170L175.050 322.060" />
<path fill="none" stroke="#000000" stroke-width="0.500" d="M158.900 294.170L145.970 245.870" />
<path fill="none" stroke="#000000" stroke-width="0.500" d="M175.050 322.060L134.460 336.060" />
<path fill="none" stroke="#000000" stroke-width="0.500" d="M175.050 322.060L158.900 294.170" />
<path fill="none" stroke="#000000" stroke-width="0.500" d="M134.460 336.060L123.240 348.080" />
<path fill="none" stroke="#000000" stroke-width="0.500" d="M134.460 336.060L175.050 322.060" />
<path fill="none" stroke="#000000" stroke-width="0.500" d="M123.240 348.080L103.390 376.370" />
<path fill="none" stroke="#000000" stroke-width="0.500" d="M123.240 348.080L134.460 336.060" />
<path fill="none" stroke="#000000" stroke-width="0.500" d="M103.390 376.370L185.830 302.220" />
<path fill="none" stroke="#000000" stroke-width="0.500" d="M103.390 376.370L123.240 348.080" />
<path fill="none" stroke="#000000" stroke-width="0.500" d="M185.830 302.220L149.200 281.070" />
<path fill="none" stroke="#000000" stroke-width="0.500" d="M185.830 302.220L103.390 376.370" />
<path fill="none" stroke="#000000" stroke-width="0.500" d="M149.200 281.070L137.300 251.590" />
<path fill="none" stroke="#000000" stroke-width="0.500" d="M149.200 281.070L185.830 302.220" />
<path fill="none" stroke="#000000" stroke-width="0.500" d="M137.300 251.590L94.440 317.580" />
<path fill="none" stroke="#000000" stroke-width="0.500" d="M137.300 251.590L149.200 281.070" />
<path fill="none" stroke="#000000" stroke-width="0.500" d="M94.440 317.580L115.300 346.330" />
<path fill="none" stroke="#000000" stroke-width="0.500" d="M94.440 317.580L137.300 251.590" />
<path fill="none" stroke="#000000" stroke-width="0.500" d="M115.300 346.330L112.800 360.670" />
<path fill="none" stroke="#000000" stroke-width="0.500" d="M115.300 346.330L94.440 317.580" />
<path fill="none" stroke="#000000" stroke-width="0.500" d="M112.800 360.670L89.840 386.120" />
<path fill="none" stroke="#000000" stroke-width="0.500" d="M112.800 360.670L115.300 346.330" />
<path fill="none" stroke="#000000" stroke-width="0.500" d="M89.840 386.120L23.290 389.580" />
<path fill="none" stroke="#000000" stroke-width="0.500" d="M89.840 386.120L112.800 360.670" />
<path fill="none" stroke="#000000" stroke-width="0.500" d="M23.290 389.580L2.990 423.430" />
<path fill="none" stroke="#000000" stroke-width="0.500" d="M23.290 389.580L89.840 386.120" />
<path fill="none" stroke="#000000" stroke-width="0.500" d="M2.990 423.430L12.690 455.180" />
<path fill="none" stroke="#000000" stroke-width="0.500" d="M2.990 423.430L23.290 389.580" />
<path fill="none" stroke="#000000" stroke-width="0.500" d="M12.690 455.180L2.990 423.430" />
<path fill="none" stroke="#000000" stroke-width="0.500" d="M444.290 13.540L447.010 2.820" />
<path fill="none" stroke="#000000" stroke-width="0.500" d="M444.290 13.540L421.500 31.400" />
<path fill="none" stroke="#000000" stroke-width="0.500" d="M447.010 2.820L444.290 13.540" />
<path fill="none" stroke="#000000" stroke-width="0.350" d="M311.840 70.570L315.840 70.570" />
<path fill="none" stroke="#000000" stroke-width="0.350" d="M313.840 68.570L313.840 72.570" />
<path fill="#ffffff" stroke="none" d="M314.640 70.570C314.640 70.782 314.556 70.986 314.406 71.136C314.256 71.286 314.052 71.370 313.840 71.370C313.628 71.370 313.424 71.286 313.274 71.136C313.124 70.986 313.040 70.782 313.040 70.570C313.040 70.358 313.124 70.154 313.274 70.004C313.424 69.854 313.628 69.770 313.840 69.770C314.052 69.770 314.256 69.854 314.406 70.004C314.556 70.154 314.640 70.358 314.640 70.570Z" />
<path fill="none" stroke="#000000" stroke-width="0.500" d="M313.840 70.570h0.001" />
<path fill="none" stroke="#000000" stroke-width="0.350" d="M419.500 31.400L423.500 31.400" />
<path fill="none" stroke="#000000" stroke-width="0.350" d="M421.500 29.400L421.500 33.400" />
<path fill="#ffffff" stroke="none" d="M422.300 31.400C422.300 31.612 422.216 31.816 422.066 31.966C421.916 32.116 421.712 32.200 421.500 32.200C421.288 32.200 421.084 32.116 420.934 31.966C420.784 31.816 420.700 31.612 420.700 31.400C420.700 31.188 420.784 30.984 420.934 30.834C421.084 30.684 421.288 30.600 421.500 30.600C421.712 30.600 421.916 30.684 422.066 30.834C422.216 30.984 422.300 31.188 422.300 31.400Z" />
<path fill="none" stroke="#000000" stroke-width="0.500" d="M421.500 31.400h0.001" />
<path fill="none" stroke="#000000" stroke-width="0.350" d="M268.130 97.900L272.130 97.900" />
<path fill="none" stroke="#000000" stroke-width="0.350" d="M270.130 95.900L270.130 99.900" />
<path fill="#ffffff" stroke="none" d="M270.930 97.900C270.930 98.112 270.846 98.316 270.696 98.466C270.546 98.616 270.342 98.700 270.130 98.700C269.918 98.700 269.714 98.616 269.564 98.466C269.414 98.316 269.330 98.112 269.330 97.900C269.330 97.688 269.414 97.484 269.564 97.334C269.714 97.184 269.918 97.100 270.130 97.100C270.342 97.100 270.546 97.184 270.696 97.334C270.846 97.484 270.930 97.688 270.930 97.900Z" />
<path fill="none" stroke="#000000" stroke-width="0.500" d="M270.130 97.900h0.001" />
<path fill="none" stroke="#000000" stroke-width="0.350" d="M222.550 108.390L226.550 108.390" />
<path fill="none" stroke="#000000" stroke-width="0.350" d="M224.550 106.390L224.550 110.390" />
<path fill="#ffffff" stroke="none" d="M225.350 108.390C225.350 108.602 225.266 108.806 225.116 108.956C224.966 109.106 224.762 109.190 224.550 109.190C224.338 109.190 224.134 109.106 223.984 108.956C223.834 108.806 223.750 108.602 223.750 108.390C223.750 108.178 223.834 107.974 223.984 107.824C224.134 107.674 224.338 107.590 224.550 107.590C224.762 107.590 224.966 107.674 225.116 107.824C225.266 107.974 225.350 108.178 225.350 108.390Z" />
<path fill="none" stroke="#000000" stroke-width="0.500" d="M224.550 108.390h0.001" />
<path fill="none" stroke="#000000" stroke-width="0.350" d="M126.680 159.350L130.680 159.350" />
<path fill="none" stroke="#000000" stroke-width="0.350" d="M128.680 157.350L128.680 161.350" />
<path fill="#ffffff" stroke="none" d="M129.480 159.350C129.480 159.562 129.396 159.766 129.246 159.916C129.096 160.066 128.892 160.150 128.680 160.150C128.468 160.150 128.264 160.066 128.114 159.916C127.964 159.766 127.880 159.562 127.880 159.350C127.880 159.138 127.964 158.934 128.114 158.784C128.264 158.634 128.468 158.550 128.680 158.550C128.892 158.550 129.096 158.634 129.246 158.784C129.396 158.934 129.480 159.138 129.480 159.350Z" />
<path fill="none" stroke="#000000" stroke-width="0.500" d="M128.680 159.350h0.001" />
<path fill="none" stroke="#000000" stroke-width="0.350" d="M102.870 165.760L106.870 165.760" />
<path fill="none" stroke="#000000" stroke-width="0.350" d="M104.870 163.760L104.870 167.760" />
<path fill="#ffffff" stroke="none" d="M105.670 165.760C105.670 165.972 105.586 166.176 105.436 166.326C105.286 166.476 105.082 166.560 104.870 166.560C104.658 166.560 104.454 166.476 104.304 166.326C104.154 166.176 104.070 165.972 104.070 165.760C104.070 165.548 104.154 165.344 104.304 165.194C104.454 165.044 104.658 164.960 104.870 164.960C105.082 164.960 105.286 165.044 105.436 165.194C105.586 165.344 105.670 165.548 105.670 165.760Z" />
<path fill="none" stroke="#000000" stroke-width="0.500" d="M104.870 165.760h0.001" />
<path fill="none" stroke="#000000" stroke-width="0.350" d="M109.900 198.870L113.900 198.870" />
<path fill="none" stroke="#000000" stroke-width="0.350" d="M111.900 196.870L111.900 200.870" />
<path fill="#ffffff" stroke="none" d="M112.700 198.870C112.700 199.082 112.616 199.286 112.466 199.436C112.316 199.586 112.112 199.670 111.900 199.670C111.688 199.670 111.484 199.586 111.334 199.436C111.184 199.286 111.100 199.082 111.100 198.870C111.100 198.658 111.184 198.454 111.334 198.304C111.484 198.154 111.688 198.070 111.900 198.070C112.112 198.070 112.316 198.154 112.466 198.304C112.616 198.454 112.700 198.658 112.700 198.870Z" />
<path fill="none" stroke="#000000" stroke-width="0.500" d="M111.900 198.870h0.001" />
<path fill="none" stroke="#000000" stroke-width="0.350" d="M153.950 202.720L157.950 202.720" />
<path fill="none" stroke="#000000" stroke-width="0.350" d="M155.950 200.720L155.950 204.720" />
<path fill="#ffffff" stroke="none" d="M156.750 202.720C156.750 202.932 156.666 203.136 156.516 203.286C156.366 203.436 156.162 203.520 155.950 203.520C155.738 203.520 155.534 203.436 155.384 203.286C155.234 203.136 155.150 202.932 155.150 202.720C155.150 202.508 155.234 202.304 155.384 202.154C155.534 202.004 155.738 201.920 155.950 201.920C156.162 201.920 156.366 202.004 156.516 202.154C156.666 202.304 156.750 202.508 156.750 202.720Z" />
<path fill="none" stroke="#000000" stroke-width="0.500" d="M155.950 202.720h0.001" />
<path fill="none" stroke="#000000" stroke-width="0.350" d="M143.970 245.870L147.970 245.870" />
<path fill="none" stroke="#000000" stroke-width="0.350" d="M145.970 243.870L145.970 247.870" />
<path fill="#ffffff" stroke="none" d="M146.770 245.870C146.770 246.082 146.686 246.286 146.536 246.436C146.386 246.586 146.182 246.670 145.970 246.670C145.758 246.670 145.554 246.586 145.404 246.436C145.254 246.286 145.170 246.082 145.170 245.870C145.170 245.658 145.254 245.454 145.404 245.304C145.554 245.154 145.758 245.070 145.970 245.070C146.182 245.070 146.386 245.154 146.536 245.304C146.686 245.454 146.770 245.658 146.770 245.870Z" />
<path fill="none" stroke="#000000" stroke-width="0.500" d="M145.970 245.870h0.001" />
<path fill="none" stroke="#000000" stroke-width="0.350" d="M156.900 294.170L160.900 294.170" />
<path fill="none" stroke="#000000" stroke-width="0.350" d="M158.900 292.170L158.900 296.170" />
<path fill="#ffffff" stroke="none" d="M159.700 294.170C159.700 294.382 159.616 294.586 159.466 294.736C159.316 294.886 159.112 294.970 158.900 294.970C158.688 294.970 158.484 294.886 158.334 294.736C158.184 294.586 158.100 294.382 158.100 294.170C158.100 293.958 158.184 293.754 158.334 293.604C158.484 293.454 158.688 293.370 158.900 293.370C159.112 293.370 159.316 293.454 159.466 293.604C159.616 293.754 159.700 293.958 159.700 294.170Z" />
<path fill="none" stroke="#000000" stroke-width="0.500" d="M158.900 294.170h0.001" />
<path fill="none" stroke="#000000" stroke-width="0.350" d="M173.050 322.060L177.050 322.060" />
<path fill="none" stroke="#000000" stroke-width="0.350" d="M175.050 320.060L175.050 324.060" />
<path fill="#ffffff" stroke="none" d="M175.850 322.060C175.850 322.272 175.766 322.476 175.616 322.626C175.466 322.776 175.262 322.860 175.050 322.860C174.838 322.860 174.634 322.776 174.484 322.626C174.334 322.476 174.250 322.272 174.250 322.060C174.250 321.848 174.334 321.644 174.484 321.494C174.634 321.344 174.838 321.260 175.050 321.260C175.262 321.260 175.466 321.344 175.616 321.494C175.766 321.644 175.850 321.848 175.850 322.060Z" />
<path fill="none" stroke="#000000" stroke-width="0.500" d="M175.050 322.060h0.001" />
<path fill="none" stroke="#000000" stroke-width="0.350" d="M132.460 336.060L136.460 336.060" />
<path fill="none" stroke="#000000" stroke-width="0.350" d="M134.460 334.060L134.460 338.060" />
<path fill="#ffffff" stroke="none" d="M135.260 336.060C135.260 336.272 135.176 336.476 135.026 336.626C134.876 336.776 134.672 336.860 134.460 336.860C134.248 336.860 134.044 336.776 133.894 336.626C133.744 336.476 133.660 336.272 133.660 336.060C133.660 335.848 133.744 335.644 133.894 335.494C134.044 335.344 134.248 335.260 134.460 335.260C134.672 335.260 134.876 335.344 135.026 335.494C135.176 335.644 135.260 335.848 135.260 336.060Z" />
<path fill="none" stroke="#000000" stroke-width="0.500" d="M134.460 336.060h0.001" />
<path fill="none" stroke="#000000" stroke-width="0.350" d="M121.240 348.080L125.240 348.080" />
<path fill="none" stroke="#000000" stroke-width="0.350" d="M123.240 346.080L123.240 350.080" />
<path fill="#ffffff" stroke="none" d="M124.040 348.080C124.040 348.292 123.956 348.496 123.806 348.646C123.656 348.796 123.452 348.880 123.240 348.880C123.028 348.880 122.824 348.796 122.674 348.646C122.524 348.496 122.440 348.292 122.440 348.080C122.440 347.868 122.524 347.664 122.674 347.514C122.824 347.364 123.028 347.280 123.240 347.280C123.452 347.280 123.656 347.364 123.806 347.514C123.956 347.664 124.040 347.868 124.040 348.080Z" />
<path fill="none" stroke="#000000" stroke-width="0.500" d="M123.240 348.080h0.001" />
<path fill="none" stroke="#000000" stroke-width="0.350" d="M101.390 376.370L105.390 376.370" />
<path fill="none" stroke="#000000" stroke-width="0.350" d="M103.390 374.370L103.390 378.370" />
<path fill="#ffffff" stroke="none" d="M104.190 376.370C104.190 376.582 104.106 376.786 103.956 376.936C103.806 377.086 103.602 377.170 103.390 377.170C103.178 377.170 102.974 377.086 102.824 376.936C102.674 376.786 102.590 376.582 102.590 376.370C102.590 376.158 102.674 375.954 102.824 375.804C102.974 375.654 103.178 375.570 103.390 375.570C103.602 375.570 103.806 375.654 103.956 375.804C104.106 375.954 104.190 376.158 104.190 376.370Z" />
<path fill="none" stroke="#000000" stroke-width="0.500" d="M103.390 376.370h0.001" />
<path fill="none" stroke="#000000" stroke-width="0.350" d="M183.830 302.220L187.830 302.220" />
<path fill="none" stroke="#000000" stroke-width="0.350" d="M185.830 300.220L185.830 304.220" />
<path fill="#ffffff" stroke="none" d="M186.630 302.220C186.630 302.432 186.546 302.636 186.396 302.786C186.246 302.936 186.042 303.020 185.830 303.020C185.618 303.020 185.414 302.936 185.264 302.786C185.114 302.636 185.030 302.432 185.030 302.220C185.030 302.008 185.114 301.804 185.264 301.654C185.414 301.504 185.618 301.420 185.830 301.420C186.042 301.420 186.246 301.504 186.396 301.654C186.546 301.804 186.630 302.008 186.630 302.220Z" />
<path fill="none" stroke="#000000" stroke-width="0.500" d="M185.830 302.220h0.001" />
<path fill="none" stroke="#000000" stroke-width="0.350" d="M147.200 281.070L151.200 281.070" />
<path fill="none" stroke="#000000" stroke-width="0.350" d="M149.200 279.070L149.200 283.070" />
<path fill="#ffffff" stroke="none" d="M150.000 281.070C150.000 281.282 149.916 281.486 149.766 281.636C149.616 281.786 149.412 281.870 149.200 281.870C148.988 281.870 148.784 281.786 148.634 281.636C148.484 281.486 148.400 281.282 148.400 281.070C148.400 280.858 148.484 280.654 148.634 280.504C148.784 280.354 148.988 280.270 149.200 280.270C149.412 280.270 149.616 280.354 149.766 280.504C149.916 280.654 150.000 280.858 150.000 281.070Z" />
<path fill="none" stroke="#000000" stroke-width="0.500" d="M149.200 281.070h0.001" />
<path fill="none" stroke="#000000" stroke-width="0.350" d="M135.300 251.590L139.300 251.590" />
<path fill="none" stroke="#000000" stroke-width="0.350" d="M137.300 249.590L137.300 253.590" />
<path fill="#ffffff" stroke="none" d="M138.100 251.590C138.100 251.802 138.016 252.006 137.866 252.156C137.716 252.306 137.512 252.390 137.300 252.390C137.088 252.390 136.884 252.306 136.734 252.156C136.584 252.006 136.500 251.802 136.500 251.590C136.500 251.378 136.584 251.174 136.734 251.024C136.884 250.874 137.088 250.790 137.300 250.790C137.512 250.790 137.716 250.874 137.866 251.024C138.016 251.174 138.100 251.378 138.100 251.590Z" />
<path fill="none" stroke="#000000" stroke-width="0.500" d="M137.300 251.590h0.001" />
<path fill="none" stroke="#000000" stroke-width="0.350" d="M92.440 317.580L96.440 317.580" />
<path fill="none" stroke="#000000" stroke-width="0.350" d="M94.440 315.580L94.440 319.580" />
<path fill="#ffffff" stroke="none" d="M95.240 317.580C95.240 317.792 95.156 317.996 95.006 318.146C94.856 318.296 94.652 318.380 94.440 318.380C94.228 318.380 94.024 318.296 93.874 318.146C93.724 317.996 93.640 317.792 93.640 317.580C93.640 317.368 93.724 317.164 93.874 317.014C94.024 316.864 94.228 316.780 94.440 316.780C94.652 316.780 94.856 316.864 95.006 317.014C95.156 317.164 95.240 317.368 95.240 317.580Z" />
<path fill="none" stroke="#000000" stroke-width="0.500" d="M94.440 317.580h0.001" />
<path fill="none" stroke="#000000" stroke-width="0.350" d="M113.300 346.330L117.300 346.330" />
<path fill="none" stroke="#000000" stroke-width="0.350" d="M115.300 344.330L115.300 348.330" />
<path fill="#ffffff" stroke="none" d="M116.100 346.330C116.100 346.542 116.016 346.746 115.866 346.896C115.716 347.046 115.512 347.130 115.300 347.130C115.088 347.130 114.884 347.046 114.734 346.896C114.584 346.746 114.500 346.542 114.500 346.330C114.500 346.118 114.584 345.914 114.734 345.764C114.884 345.614 115.088 345.530 115.300 345.530C115.512 345.530 115.716 345.614 115.866 345.764C116.016 345.914 116.100 346.118 116.100 346.330Z" />
<path fill="none" stroke="#000000" stroke-width="0.500" d="M115.300 346.330h0.001" />
<path fill="none" stroke="#000000" stroke-width="0.350" d="M110.800 360.670L114.800 360.670" />
<path fill="none" stroke="#000000" stroke-width="0.350" d="M112.800 358.670L112.800 362.670" />
<path fill="#ffffff" stroke="none" d="M113.600 360.670C113.600 360.882 113.516 361.086 113.366 361.236C113.216 361.386 113.012 361.470 112.800 361.470C112.588 361.470 112.384 361.386 112.234 361.236C112.084 361.086 112.000 360.882 112.000 360.670C112.000 360.458 112.084 360.254 112.234 360.104C112.384 359.954 112.588 359.870 112.800 359.870C113.012 359.870 113.216 359.954 113.366 360.104C113.516 360.254 113.600 360.458 113.600 360.670Z" />
<path fill="none" stroke="#000000" stroke-width="0.500" d="M112.800 360.670h0.001" />
<path fill="none" stroke="#000000" stroke-width="0.350" d="M87.840 386.120L91.840 386.120" />
<path fill="none" stroke="#000000" stroke-width="0.350" d="M89.840 384.120L89.840 388.120" />
<path fill="#ffffff" stroke="none" d="M90.640 386.120C90.640 386.332 90.556 386.536 90.406 386.686C90.256 386.836 90.052 386.920 89.840 386.920C89.628 386.920 89.424 386.836 89.274 386.686C89.124 386.536 89.040 386.332 89.040 386.120C89.040 385.908 89.124 385.704 89.274 385.554C89.424 385.404 89.628 385.320 89.840 385.320C90.052 385.320 90.256 385.404 90.406 385.554C90.556 385.704 90.640 385.908 90.640 386.120Z" />
<path fill="none" stroke="#000000" stroke-width="0.500" d="M89.840 386.120h0.001" />
<path fill="none" stroke="#000000" stroke-width="0.350" d="M21.290 389.580L25.290 389.580" />
<path fill="none" stroke="#000000" stroke-width="0.350" d="M23.290 387.580L23.290 391.580" />
<path fill="#ffffff" stroke="none" d="M24.090 389.580C24.090 389.792 24.006 389.996 23.856 390.146C23.706 390.296 23.502 390.380 23.290 390.380C23.078 390.380 22.874 390.296 22.724 390.146C22.574 389.996 22.490 389.792 22.490 389.580C22.490 389.368 22.574 389.164 22.724 389.014C22.874 388.864 23.078 388.780 23.290 388.780C23.502 388.780 23.706 388.864 23.856 389.014C24.006 389.164 24.090 389.368 24.090 389.580Z" />
<path fill="none" stroke="#000000" stroke-width="0.500" d="M23.290 389.580h0.001" />
<path fill="none" stroke="#000000" stroke-width="0.350" d="M0.990 423.430L4.990 423.430" />
<path fill="none" stroke="#000000" stroke-width="0.350" d="M2.990 421.430L2.990 425.430" />
<path fill="#ffffff" stroke="none" d="M3.790 423.430C3.790 423.642 3.706 423.846 3.556 423.996C3.406 424.146 3.202 424.230 2.990 424.230C2.778 424.230 2.574 424.146 2.424 423.996C2.274 423.846 2.190 423.642 2.190 423.430C2.190 423.218 2.274 423.014 2.424 422.864C2.574 422.714 2.778 422.630 2.990 422.630C3.202 422.630 3.406 422.714 3.556 422.864C3.706 423.014 3.790 423.218 3.790 423.430Z" />
<path fill="none" stroke="#000000" stroke-width="0.500" d="M2.990 423.430h0.001" />
<path fill="none" stroke="#000000" stroke-width="0.350" d="M10.690 455.180L14.690 455.180" />
<path fill="none" stroke="#000000" stroke-width="0.350" d="M12.690 453.180L12.690 457.180" />
<path fill="#ffffff" stroke="none" d="M13.490 455.180C13.490 455.392 13.406 455.596 13.256 455.746C13.106 455.896 12.902 455.980 12.690 455.980C12.478 455.980 12.274 455.896 12.124 455.746C11.974 455.596 11.890 455.392 11.890 455.180C11.890 454.968 11.974 454.764 12.124 454.614C12.274 454.464 12.478 454.380 12.690 454.380C12.902 454.380 13.106 454.464 13.256 454.614C13.406 454.764 13.490 454.968 13.490 455.180Z" />
<path fill="none" stroke="#000000" stroke-width="0.500" d="M12.690 455.180h0.001" />
<path fill="none" stroke="#000000" stroke-width="0.350" d="M442.290 13.540L446.290 13.540" />
<path fill="none" stroke="#000000" stroke-width="0.350" d="M444.290 11.540L444.290 15.540" />
<path fill="#ffffff" stroke="none" d="M445.090 13.540C445.090 13.752 445.006 13.956 444.856 14.106C444.706 14.256 444.502 14.340 444.290 14.340C444.078 14.340 443.874 14.256 443.724 14.106C443.574 13.956 443.490 13.752 443.490 13.540C443.490 13.328 443.574 13.124 443.724 12.974C443.874 12.824 444.078 12.740 444.290 12.740C444.502 12.740 444.706 12.824 444.856 12.974C445.006 13.124 445.090 13.328 445.090 13.540Z" />
<path fill="none" stroke="#000000" stroke-width="0.500" d="M444.290 13.540h0.001" />
<path fill="none" stroke="#000000" stroke-width="0.350" d="M445.010 2.820L449.010 2.820" />
<path fill="none" stroke="#000000" stroke-width="0.350" d="M447.010 0.820L447.010 4.820" />
<path fill="#ffffff" stroke="none" d="M447.810 2.820C447.810 3.032 447.726 3.236 447.576 3.386C447.426 3.536 447.222 3.620 447.010 3.620C446.798 3.620 446.594 3.536 446.444 3.386C446.294 3.236 446.210 3.032 446.210 2.820C446.210 2.608 446.294 2.404 446.444 2.254C446.594 2.104 446.798 2.020 447.010 2.020C447.222 2.020 447.426 2.104 447.576 2.254C447.726 2.404 447.810 2.608 447.810 2.820Z" />
<path fill="none" stroke="#000000" stroke-width="0.500" d="M447.010 2.820h0.001" />
</g>
<g id="X_aaaaaaa_weepeople.svg">
<text font-family="cmss10" font-size="6.974" fill="black" stroke="none" transform="matrix(1.000 0.000 -0.000 -1.000 311.715 68.445)">&#x32;</text>
<text font-family="cmss10" font-size="6.974" fill="black" stroke="none" transform="matrix(1.000 0.000 -0.000 -1.000 419.375 29.275)">&#x31;</text>
<text font-family="cmss10" font-size="6.974" fill="black" stroke="none" transform="matrix(1.000 0.000 -0.000 -1.000 268.005 95.775)">&#x33;</text>
<text font-family="cmss10" font-size="6.974" fill="black" stroke="none" transform="matrix(1.000 0.000 -0.000 -1.000 222.425 106.265)">&#x34;</text>
<text font-family="cmss10" font-size="6.974" fill="black" stroke="none" transform="matrix(1.000 0.000 -0.000 -1.000 126.555 157.225)">&#x35;</text>
<text font-family="cmss10" font-size="6.974" fill="black" stroke="none" transform="matrix(1.000 0.000 -0.000 -1.000 102.745 163.635)">&#x36;</text>
<text font-family="cmss10" font-size="6.974" fill="black" stroke="none" transform="matrix(1.000 0.000 -0.000 -1.000 109.775 196.745)">&#x37;</text>
<text font-family="cmss10" font-size="6.974" fill="black" stroke="none" transform="matrix(1.000 0.000 -0.000 -1.000 153.825 200.595)">&#x38;</text>
<text font-family="cmss10" font-size="6.974" fill="black" stroke="none" transform="matrix(1.000 0.000 -0.000 -1.000 143.845 243.745)">&#x39;</text>
<text font-family="cmss10" font-size="6.974" fill="black" stroke="none" transform="matrix(1.000 0.000 -0.000 -1.000 156.775 292.045)">&#x31;&#x30;</text>
<text font-family="cmss10" font-size="6.974" fill="black" stroke="none" transform="matrix(1.000 0.000 -0.000 -1.000 172.925 319.935)">&#x31;&#x31;</text>
<text font-family="cmss10" font-size="6.974" fill="black" stroke="none" transform="matrix(1.000 0.000 -0.000 -1.000 132.335 333.935)">&#x31;&#x32;</text>
<text font-family="cmss10" font-size="6.974" fill="black" stroke="none" transform="matrix(1.000 0.000 -0.000 -1.000 121.115 345.955)">&#x31;&#x33;</text>
<text font-family="cmss10" font-size="6.974" fill="black" stroke="none" transform="matrix(1.000 0.000 -0.000 -1.000 101.265 374.245)">&#x31;&#x34;</text>
<text font-family="cmss10" font-size="6.974" fill="black" stroke="none" transform="matrix(1.000 0.000 -0.000 -1.000 183.705 300.095)">&#x31;&#x35;</text>
<text font-family="cmss10" font-size="6.974" fill="black" stroke="none" transform="matrix(1.000 0.000 -0.000 -1.000 147.075 278.945)">&#x31;&#x36;</text>
<text font-family="cmss10" font-size="6.974" fill="black" stroke="none" transform="matrix(1.000 0.000 -0.000 -1.000 135.175 249.465)">&#x31;&#x37;</text>
<text font-family="cmss10" font-size="6.974" fill="black" stroke="none" transform="matrix(1.000 0.000 -0.000 -1.000 92.315 315.455)">&#x31;&#x38;</text>
<text font-family="cmss10" font-size="6.974" fill="black" stroke="none" transform="matrix(1.000 0.000 -0.000 -1.000 113.175 344.205)">&#x31;&#x39;</text>
<text font-family="cmss10" font-size="6.974" fill="black" stroke="none" transform="matrix(1.000 0.000 -0.000 -1.000 110.675 358.545)">&#x32;&#x30;</text>
<text font-family="cmss10" font-size="6.974" fill="black" stroke="none" transform="matrix(1.000 0.000 -0.000 -1.000 87.715 383.995)">&#x32;&#x31;</text>
<text font-family="cmss10" font-size="6.974" fill="black" stroke="none" transform="matrix(1.000 0.000 -0.000 -1.000 21.165 387.455)">&#x32;&#x32;</text>
<text font-family="cmss10" font-size="6.974" fill="black" stroke="none" transform="matrix(1.000 0.000 -0.000 -1.000 0.865 421.305)">&#x32;&#x33;</text>
<text font-family="cmss10" font-size="6.974" fill="black" stroke="none" transform="matrix(1.000 0.000 -0.000 -1.000 10.565 453.055)">&#x32;&#x34;</text>
<text font-family="cmss10" font-size="6.974" fill="black" stroke="none" transform="matrix(1.000 0.000 -0.000 -1.000 442.165 11.415)">&#x32;&#x35;</text>
<text font-family="cmss10" font-size="6.974" fill="black" stroke="none" transform="matrix(1.000 0.000 -0.000 -1.000 444.885 0.695)">&#x32;&#x36;</text>
</g>
<clipPath id="clip_viewBox">
<path d="M-342.184 -98.918L169.509 -98.918L169.509 418.775L-342.184 418.775z" />
</clipPath>
</defs>
<g transform="scale(1,-1)" fill="#000000" stroke="#000000" stroke-linecap="round" stroke-linejoin="round" stroke-miterlimit="10" fill-rule="evenodd" clip-rule="evenodd" clip-path="url(#clip_viewBox)">
<use x="-313.838" y="-70.572" xlink:href="#E_aaaaaaa_weepeople.svg" />
<use x="-310.838" y="-67.572" xlink:href="#X_aaaaaaa_weepeople.svg" />
</g>
</svg>
