<?xml version="1.0" encoding="ISO-8859-1"?>
<svg version="1.1" baseProfile="full"
xmlns="http://www.w3.org/2000/svg"
xmlns:xlink="http://www.w3.org/1999/xlink"
xmlns:ev="http://www.w3.org/2001/xml-events"
width="1279.520mm" height="913.520mm"
viewBox="0 0 1279.520 913.520">
<title>ttt_resurvey</title>
<g transform="translate(5.000 908.520)">
<g id="Legs" stroke="black" fill="none" stroke-width="0.4px">
<path d="M217.840 -703.520L200.000 -698.760"/>
<path d="M282.760 -696.680L217.840 -703.520"/>
<path d="M282.760 -681.120L282.760 -696.680"/>
<path d="M314.720 -648.040L282.760 -681.120"/>
<path d="M335.440 -658.600L314.720 -648.040"/>
<path d="M359.720 -644.600L335.440 -658.600"/>
<path d="M370.040 -635.000L359.720 -644.600"/>
<path d="M381.480 -638.080L370.040 -635.000"/>
<path d="M391.760 -631.120L381.480 -638.080"/>
<path d="M407.880 -628.600L391.760 -631.120"/>
<path d="M431.640 -626.920L407.880 -628.600"/>
<path d="M443.400 -621.440L431.640 -626.920"/>
<path d="M443.400 -612.320L443.400 -621.440"/>
<path d="M461.640 -610.080L443.400 -612.320"/>
<path d="M473.120 -605.440L461.640 -610.080"/>
<path d="M510.000 -609.320L473.120 -605.440"/>
<path d="M551.280 -577.080L510.000 -609.320"/>
<path d="M551.280 -492.760L551.280 -577.080"/>
<path d="M592.480 -429.360L551.280 -492.760"/>
<path d="M648.800 -431.320L592.480 -429.360"/>
<path d="M657.760 -420.600L648.800 -431.320"/>
<path d="M677.360 -426.960L657.760 -420.600"/>
<path d="M690.760 -424.840L677.360 -426.960"/>
<path d="M717.520 -403.200L690.760 -424.840"/>
<path d="M744.080 -398.520L717.520 -403.200"/>
<path d="M755.440 -398.320L744.080 -398.520"/>
<path d="M755.440 -377.200L755.440 -398.320"/>
<path d="M768.360 -379.240L755.440 -377.200"/>
<path d="M781.960 -386.480L768.360 -379.240"/>
<path d="M796.960 -388.040L781.960 -386.480"/>
<path d="M814.400 -379.160L796.960 -388.040"/>
<path d="M826.120 -378.120L814.400 -379.160"/>
<path d="M869.760 -378.920L826.120 -378.120"/>
<path d="M880.360 -379.840L869.760 -378.920"/>
<path d="M919.240 -377.120L880.360 -379.840"/>
<path d="M941.760 -377.120L919.240 -377.120"/>
<path d="M959.200 -379.240L941.760 -377.120"/>
<path d="M959.200 -327.160L959.200 -379.240"/>
<path d="M983.800 -335.640L959.200 -327.160"/>
<path d="M1012.520 -326.320L983.800 -335.640"/>
<path d="M1022.400 -291.800L1012.520 -326.320"/>
<path d="M1051.400 -289.800L1022.400 -291.800"/>
<path d="M1051.400 -269.680L1051.400 -289.800"/>
<path d="M1051.400 -202.880L1051.400 -269.680"/>
<path d="M1069.520 -200.000L1051.400 -202.880"/>
</g>
<g id="Labels" font-size="0.600em">
<text transform="translate(768.360 -379.240)">ttt_resurvey.18</text>
<text transform="translate(200.000 -698.760)">ttt_resurvey.47</text>
<text transform="translate(200.000 -698.760)">pov.1</text>
<text transform="translate(768.360 -379.240)">dejavu.1</text>
<text transform="translate(1069.520 -200.000)">ttt_resurvey.1</text>
<text transform="translate(1051.400 -202.880)">ttt_resurvey.2</text>
<text transform="translate(1051.400 -269.680)">ttt_resurvey.3</text>
<text transform="translate(1051.400 -289.800)">ttt_resurvey.4</text>
<text transform="translate(1022.400 -291.800)">ttt_resurvey.5</text>
<text transform="translate(1012.520 -326.320)">ttt_resurvey.6</text>
<text transform="translate(983.800 -335.640)">ttt_resurvey.7</text>
<text transform="translate(959.200 -327.160)">ttt_resurvey.8</text>
<text transform="translate(959.200 -379.240)">ttt_resurvey.9</text>
<text transform="translate(941.760 -377.120)">ttt_resurvey.10</text>
<text transform="translate(919.240 -377.120)">ttt_resurvey.11</text>
<text transform="translate(880.360 -379.840)">ttt_resurvey.12</text>
<text transform="translate(869.760 -378.920)">ttt_resurvey.13</text>
<text transform="translate(826.120 -378.120)">ttt_resurvey.14</text>
<text transform="translate(814.400 -379.160)">ttt_resurvey.15</text>
<text transform="translate(796.960 -388.040)">ttt_resurvey.16</text>
<text transform="translate(781.960 -386.480)">ttt_resurvey.17</text>
<text transform="translate(755.440 -377.200)">ttt_resurvey.19</text>
<text transform="translate(755.440 -398.320)">ttt_resurvey.20</text>
<text transform="translate(744.080 -398.520)">ttt_resurvey.21</text>
<text transform="translate(717.520 -403.200)">ttt_resurvey.22</text>
<text transform="translate(690.760 -424.840)">ttt_resurvey.23</text>
<text transform="translate(677.360 -426.960)">ttt_resurvey.24</text>
<text transform="translate(657.760 -420.600)">ttt_resurvey.25</text>
<text transform="translate(648.800 -431.320)">ttt_resurvey.26</text>
<text transform="translate(592.480 -429.360)">ttt_resurvey.27</text>
<text transform="translate(551.280 -492.760)">ttt_resurvey.28</text>
<text transform="translate(551.280 -577.080)">ttt_resurvey.29</text>
<text transform="translate(510.000 -609.320)">ttt_resurvey.30</text>
<text transform="translate(473.120 -605.440)">ttt_resurvey.31</text>
<text transform="translate(461.640 -610.080)">ttt_resurvey.32</text>
<text transform="translate(443.400 -612.320)">ttt_resurvey.33</text>
<text transform="translate(443.400 -621.440)">ttt_resurvey.34</text>
<text transform="translate(431.640 -626.920)">ttt_resurvey.35</text>
<text transform="translate(407.880 -628.600)">ttt_resurvey.36</text>
<text transform="translate(391.760 -631.120)">ttt_resurvey.37</text>
<text transform="translate(381.480 -638.080)">ttt_resurvey.38</text>
<text transform="translate(370.040 -635.000)">ttt_resurvey.39</text>
<text transform="translate(359.720 -644.600)">ttt_resurvey.40</text>
<text transform="translate(335.440 -658.600)">ttt_resurvey.41</text>
<text transform="translate(314.720 -648.040)">ttt_resurvey.42</text>
<text transform="translate(282.760 -681.120)">ttt_resurvey.43</text>
<text transform="translate(282.760 -696.680)">ttt_resurvey.45</text>
<text transform="translate(217.840 -703.520)">ttt_resurvey.46</text>
</g>
<g id="Stations" stroke="black" fill="none" stroke-width="0.05px">
<circle id="ttt_resurvey.18" cx="768.360" cy="-379.240" r="1.131"/>
<path d="M767.560 -380.040L769.160 -378.440M769.160 -380.040L767.560 -378.440"/>
<circle id="ttt_resurvey.47" cx="200.000" cy="-698.760" r="1.131"/>
<path d="M199.200 -699.560L200.800 -697.960M200.800 -699.560L199.200 -697.960"/>
<circle id="ttt_resurvey.47" cx="200.000" cy="-698.760" r="1.131"/>
<path d="M199.200 -699.560L200.800 -697.960M200.800 -699.560L199.200 -697.960"/>
<circle id="ttt_resurvey.18" cx="768.360" cy="-379.240" r="1.131"/>
<path d="M767.560 -380.040L769.160 -378.440M769.160 -380.040L767.560 -378.440"/>
<circle id="ttt_resurvey.1" cx="1069.520" cy="-200.000" r="1.131"/>
<path d="M1068.720 -200.800L1070.320 -199.200M1070.320 -200.800L1068.720 -199.200"/>
<circle id="ttt_resurvey.2" cx="1051.400" cy="-202.880" r="1.131"/>
<path d="M1050.600 -203.680L1052.200 -202.080M1052.200 -203.680L1050.600 -202.080"/>
<circle id="ttt_resurvey.3" cx="1051.400" cy="-269.680" r="1.131"/>
<path d="M1050.600 -270.480L1052.200 -268.880M1052.200 -270.480L1050.600 -268.880"/>
<circle id="ttt_resurvey.4" cx="1051.400" cy="-289.800" r="1.131"/>
<path d="M1050.600 -290.600L1052.200 -289.000M1052.200 -290.600L1050.600 -289.000"/>
<circle id="ttt_resurvey.5" cx="1022.400" cy="-291.800" r="1.131"/>
<path d="M1021.600 -292.600L1023.200 -291.000M1023.200 -292.600L1021.600 -291.000"/>
<circle id="ttt_resurvey.6" cx="1012.520" cy="-326.320" r="1.131"/>
<path d="M1011.720 -327.120L1013.320 -325.520M1013.320 -327.120L1011.720 -325.520"/>
<circle id="ttt_resurvey.7" cx="983.800" cy="-335.640" r="1.131"/>
<path d="M983.000 -336.440L984.600 -334.840M984.600 -336.440L983.000 -334.840"/>
<circle id="ttt_resurvey.8" cx="959.200" cy="-327.160" r="1.131"/>
<path d="M958.400 -327.960L960.000 -326.360M960.000 -327.960L958.400 -326.360"/>
<circle id="ttt_resurvey.9" cx="959.200" cy="-379.240" r="1.131"/>
<path d="M958.400 -380.040L960.000 -378.440M960.000 -380.040L958.400 -378.440"/>
<circle id="ttt_resurvey.10" cx="941.760" cy="-377.120" r="1.131"/>
<path d="M940.960 -377.920L942.560 -376.320M942.560 -377.920L940.960 -376.320"/>
<circle id="ttt_resurvey.11" cx="919.240" cy="-377.120" r="1.131"/>
<path d="M918.440 -377.920L920.040 -376.320M920.040 -377.920L918.440 -376.320"/>
<circle id="ttt_resurvey.12" cx="880.360" cy="-379.840" r="1.131"/>
<path d="M879.560 -380.640L881.160 -379.040M881.160 -380.640L879.560 -379.040"/>
<circle id="ttt_resurvey.13" cx="869.760" cy="-378.920" r="1.131"/>
<path d="M868.960 -379.720L870.560 -378.120M870.560 -379.720L868.960 -378.120"/>
<circle id="ttt_resurvey.14" cx="826.120" cy="-378.120" r="1.131"/>
<path d="M825.320 -378.920L826.920 -377.320M826.920 -378.920L825.320 -377.320"/>
<circle id="ttt_resurvey.15" cx="814.400" cy="-379.160" r="1.131"/>
<path d="M813.600 -379.960L815.200 -378.360M815.200 -379.960L813.600 -378.360"/>
<circle id="ttt_resurvey.16" cx="796.960" cy="-388.040" r="1.131"/>
<path d="M796.160 -388.840L797.760 -387.240M797.760 -388.840L796.160 -387.240"/>
<circle id="ttt_resurvey.17" cx="781.960" cy="-386.480" r="1.131"/>
<path d="M781.160 -387.280L782.760 -385.680M782.760 -387.280L781.160 -385.680"/>
<circle id="ttt_resurvey.19" cx="755.440" cy="-377.200" r="1.131"/>
<path d="M754.640 -378.000L756.240 -376.400M756.240 -378.000L754.640 -376.400"/>
<circle id="ttt_resurvey.20" cx="755.440" cy="-398.320" r="1.131"/>
<path d="M754.640 -399.120L756.240 -397.520M756.240 -399.120L754.640 -397.520"/>
<circle id="ttt_resurvey.21" cx="744.080" cy="-398.520" r="1.131"/>
<path d="M743.280 -399.320L744.880 -397.720M744.880 -399.320L743.280 -397.720"/>
<circle id="ttt_resurvey.22" cx="717.520" cy="-403.200" r="1.131"/>
<path d="M716.720 -404.000L718.320 -402.400M718.320 -404.000L716.720 -402.400"/>
<circle id="ttt_resurvey.23" cx="690.760" cy="-424.840" r="1.131"/>
<path d="M689.960 -425.640L691.560 -424.040M691.560 -425.640L689.960 -424.040"/>
<circle id="ttt_resurvey.24" cx="677.360" cy="-426.960" r="1.131"/>
<path d="M676.560 -427.760L678.160 -426.160M678.160 -427.760L676.560 -426.160"/>
<circle id="ttt_resurvey.25" cx="657.760" cy="-420.600" r="1.131"/>
<path d="M656.960 -421.400L658.560 -419.800M658.560 -421.400L656.960 -419.800"/>
<circle id="ttt_resurvey.26" cx="648.800" cy="-431.320" r="1.131"/>
<path d="M648.000 -432.120L649.600 -430.520M649.600 -432.120L648.000 -430.520"/>
<circle id="ttt_resurvey.27" cx="592.480" cy="-429.360" r="1.131"/>
<path d="M591.680 -430.160L593.280 -428.560M593.280 -430.160L591.680 -428.560"/>
<circle id="ttt_resurvey.28" cx="551.280" cy="-492.760" r="1.131"/>
<path d="M550.480 -493.560L552.080 -491.960M552.080 -493.560L550.480 -491.960"/>
<circle id="ttt_resurvey.29" cx="551.280" cy="-577.080" r="1.131"/>
<path d="M550.480 -577.880L552.080 -576.280M552.080 -577.880L550.480 -576.280"/>
<circle id="ttt_resurvey.30" cx="510.000" cy="-609.320" r="1.131"/>
<path d="M509.200 -610.120L510.800 -608.520M510.800 -610.120L509.200 -608.520"/>
<circle id="ttt_resurvey.31" cx="473.120" cy="-605.440" r="1.131"/>
<path d="M472.320 -606.240L473.920 -604.640M473.920 -606.240L472.320 -604.640"/>
<circle id="ttt_resurvey.32" cx="461.640" cy="-610.080" r="1.131"/>
<path d="M460.840 -610.880L462.440 -609.280M462.440 -610.880L460.840 -609.280"/>
<circle id="ttt_resurvey.33" cx="443.400" cy="-612.320" r="1.131"/>
<path d="M442.600 -613.120L444.200 -611.520M444.200 -613.120L442.600 -611.520"/>
<circle id="ttt_resurvey.34" cx="443.400" cy="-621.440" r="1.131"/>
<path d="M442.600 -622.240L444.200 -620.640M444.200 -622.240L442.600 -620.640"/>
<circle id="ttt_resurvey.35" cx="431.640" cy="-626.920" r="1.131"/>
<path d="M430.840 -627.720L432.440 -626.120M432.440 -627.720L430.840 -626.120"/>
<circle id="ttt_resurvey.36" cx="407.880" cy="-628.600" r="1.131"/>
<path d="M407.080 -629.400L408.680 -627.800M408.680 -629.400L407.080 -627.800"/>
<circle id="ttt_resurvey.37" cx="391.760" cy="-631.120" r="1.131"/>
<path d="M390.960 -631.920L392.560 -630.320M392.560 -631.920L390.960 -630.320"/>
<circle id="ttt_resurvey.38" cx="381.480" cy="-638.080" r="1.131"/>
<path d="M380.680 -638.880L382.280 -637.280M382.280 -638.880L380.680 -637.280"/>
<circle id="ttt_resurvey.39" cx="370.040" cy="-635.000" r="1.131"/>
<path d="M369.240 -635.800L370.840 -634.200M370.840 -635.800L369.240 -634.200"/>
<circle id="ttt_resurvey.40" cx="359.720" cy="-644.600" r="1.131"/>
<path d="M358.920 -645.400L360.520 -643.800M360.520 -645.400L358.920 -643.800"/>
<circle id="ttt_resurvey.41" cx="335.440" cy="-658.600" r="1.131"/>
<path d="M334.640 -659.400L336.240 -657.800M336.240 -659.400L334.640 -657.800"/>
<circle id="ttt_resurvey.42" cx="314.720" cy="-648.040" r="1.131"/>
<path d="M313.920 -648.840L315.520 -647.240M315.520 -648.840L313.920 -647.240"/>
<circle id="ttt_resurvey.43" cx="282.760" cy="-681.120" r="1.131"/>
<path d="M281.960 -681.920L283.560 -680.320M283.560 -681.920L281.960 -680.320"/>
<circle id="ttt_resurvey.45" cx="282.760" cy="-696.680" r="1.131"/>
<path d="M281.960 -697.480L283.560 -695.880M283.560 -697.480L281.960 -695.880"/>
<circle id="ttt_resurvey.46" cx="217.840" cy="-703.520" r="1.131"/>
<path d="M217.040 -704.320L218.640 -702.720M218.640 -704.320L217.040 -702.720"/>
</g>
</g>
</svg>
