<?xml version="1.0" encoding="utf-8" standalone="no"?>
<!-- Generated by Therion 5.4.1+? (compiled on 2018-06-25) -->
<!DOCTYPE svg PUBLIC "-//W3C//DTD SVG 1.1//EN" "http://www.w3.org/Graphics/SVG/1.1/DTD/svg11.dtd">
<svg width="11.596cm" height="4.575cm" viewBox="-36.650 -77.231 328.693 129.693" xmlns="http://www.w3.org/2000/svg" xmlns:xlink="http://www.w3.org/1999/xlink">
<defs>
<g id="F_aaaaaaa_doublethink.svg">
</g>
<g id="G_aaaaaaa_doublethink.svg">
</g>
<g id="B_aaaaaaa_doublethink.svg">
</g>
<g id="I_aaaaaaa_doublethink.svg">
</g>
<g id="E_aaaaaaa_doublethink.svg">
<path fill="none" stroke="#000000" stroke-width="0.500" d="M8.300 24.110L2.750 55.640" />
<path fill="none" stroke="#000000" stroke-width="0.500" d="M2.750 55.640L43.170 55.640" />
<path fill="none" stroke="#000000" stroke-width="0.500" d="M2.750 55.640L8.300 24.110" />
<path fill="none" stroke="#000000" stroke-width="0.500" d="M43.170 55.640L67.150 67.370" />
<path fill="none" stroke="#000000" stroke-width="0.500" d="M43.170 55.640L2.750 55.640" />
<path fill="none" stroke="#000000" stroke-width="0.500" d="M67.150 67.370L71.290 33.920" />
<path fill="none" stroke="#000000" stroke-width="0.500" d="M67.150 67.370L43.170 55.640" />
<path fill="none" stroke="#000000" stroke-width="0.500" d="M71.290 33.920L67.600 24.460" />
<path fill="none" stroke="#000000" stroke-width="0.500" d="M71.290 33.920L67.150 67.370" />
<path fill="none" stroke="#000000" stroke-width="0.500" d="M67.600 24.460L71.060 4.900" />
<path fill="none" stroke="#000000" stroke-width="0.500" d="M67.600 24.460L71.290 33.920" />
<path fill="none" stroke="#000000" stroke-width="0.500" d="M71.060 4.900L128.720 2.860" />
<path fill="none" stroke="#000000" stroke-width="0.500" d="M71.060 4.900L67.600 24.460" />
<path fill="none" stroke="#000000" stroke-width="0.500" d="M128.720 2.860L155.990 24.970" />
<path fill="none" stroke="#000000" stroke-width="0.500" d="M128.720 2.860L71.060 4.900" />
<path fill="none" stroke="#000000" stroke-width="0.500" d="M155.990 24.970L169.940 41.580" />
<path fill="none" stroke="#000000" stroke-width="0.500" d="M155.990 24.970L128.720 2.860" />
<path fill="none" stroke="#000000" stroke-width="0.500" d="M169.940 41.580L188.420 59.430" />
<path fill="none" stroke="#000000" stroke-width="0.500" d="M169.940 41.580L155.990 24.970" />
<path fill="none" stroke="#000000" stroke-width="0.500" d="M188.420 59.430L238.700 29.220" />
<path fill="none" stroke="#000000" stroke-width="0.500" d="M188.420 59.430L169.940 41.580" />
<path fill="none" stroke="#000000" stroke-width="0.500" d="M238.700 29.220L240.120 2.630" />
<path fill="none" stroke="#000000" stroke-width="0.500" d="M238.700 29.220L188.420 59.430" />
<path fill="none" stroke="#000000" stroke-width="0.500" d="M240.120 2.630L241.770 14.480" />
<path fill="none" stroke="#000000" stroke-width="0.500" d="M240.120 2.630L238.700 29.220" />
<path fill="none" stroke="#000000" stroke-width="0.500" d="M241.770 14.480L263.250 23.150" />
<path fill="none" stroke="#000000" stroke-width="0.500" d="M241.770 14.480L240.120 2.630" />
<path fill="none" stroke="#000000" stroke-width="0.500" d="M263.250 23.150L241.770 14.480" />
<path fill="none" stroke="#000000" stroke-width="0.350" d="M6.300 24.110L10.300 24.110" />
<path fill="none" stroke="#000000" stroke-width="0.350" d="M8.300 22.110L8.300 26.110" />
<path fill="#ffffff" stroke="none" d="M9.100 24.110C9.100 24.322 9.016 24.526 8.866 24.676C8.716 24.826 8.512 24.910 8.300 24.910C8.088 24.910 7.884 24.826 7.734 24.676C7.584 24.526 7.500 24.322 7.500 24.110C7.500 23.898 7.584 23.694 7.734 23.544C7.884 23.394 8.088 23.310 8.300 23.310C8.512 23.310 8.716 23.394 8.866 23.544C9.016 23.694 9.100 23.898 9.100 24.110Z" />
<path fill="none" stroke="#000000" stroke-width="0.500" d="M8.300 24.110h0.001" />
<path fill="none" stroke="#000000" stroke-width="0.350" d="M0.750 55.640L4.750 55.640" />
<path fill="none" stroke="#000000" stroke-width="0.350" d="M2.750 53.640L2.750 57.640" />
<path fill="#ffffff" stroke="none" d="M3.550 55.640C3.550 55.852 3.466 56.056 3.316 56.206C3.166 56.356 2.962 56.440 2.750 56.440C2.538 56.440 2.334 56.356 2.184 56.206C2.034 56.056 1.950 55.852 1.950 55.640C1.950 55.428 2.034 55.224 2.184 55.074C2.334 54.924 2.538 54.840 2.750 54.840C2.962 54.840 3.166 54.924 3.316 55.074C3.466 55.224 3.550 55.428 3.550 55.640Z" />
<path fill="none" stroke="#000000" stroke-width="0.500" d="M2.750 55.640h0.001" />
<path fill="none" stroke="#000000" stroke-width="0.350" d="M41.170 55.640L45.170 55.640" />
<path fill="none" stroke="#000000" stroke-width="0.350" d="M43.170 53.640L43.170 57.640" />
<path fill="#ffffff" stroke="none" d="M43.970 55.640C43.970 55.852 43.886 56.056 43.736 56.206C43.586 56.356 43.382 56.440 43.170 56.440C42.958 56.440 42.754 56.356 42.604 56.206C42.454 56.056 42.370 55.852 42.370 55.640C42.370 55.428 42.454 55.224 42.604 55.074C42.754 54.924 42.958 54.840 43.170 54.840C43.382 54.840 43.586 54.924 43.736 55.074C43.886 55.224 43.970 55.428 43.970 55.640Z" />
<path fill="none" stroke="#000000" stroke-width="0.500" d="M43.170 55.640h0.001" />
<path fill="none" stroke="#000000" stroke-width="0.350" d="M65.150 67.370L69.150 67.370" />
<path fill="none" stroke="#000000" stroke-width="0.350" d="M67.150 65.370L67.150 69.370" />
<path fill="#ffffff" stroke="none" d="M67.950 67.370C67.950 67.582 67.866 67.786 67.716 67.936C67.566 68.086 67.362 68.170 67.150 68.170C66.938 68.170 66.734 68.086 66.584 67.936C66.434 67.786 66.350 67.582 66.350 67.370C66.350 67.158 66.434 66.954 66.584 66.804C66.734 66.654 66.938 66.570 67.150 66.570C67.362 66.570 67.566 66.654 67.716 66.804C67.866 66.954 67.950 67.158 67.950 67.370Z" />
<path fill="none" stroke="#000000" stroke-width="0.500" d="M67.150 67.370h0.001" />
<path fill="none" stroke="#000000" stroke-width="0.350" d="M69.290 33.920L73.290 33.920" />
<path fill="none" stroke="#000000" stroke-width="0.350" d="M71.290 31.920L71.290 35.920" />
<path fill="#ffffff" stroke="none" d="M72.090 33.920C72.090 34.132 72.006 34.336 71.856 34.486C71.706 34.636 71.502 34.720 71.290 34.720C71.078 34.720 70.874 34.636 70.724 34.486C70.574 34.336 70.490 34.132 70.490 33.920C70.490 33.708 70.574 33.504 70.724 33.354C70.874 33.204 71.078 33.120 71.290 33.120C71.502 33.120 71.706 33.204 71.856 33.354C72.006 33.504 72.090 33.708 72.090 33.920Z" />
<path fill="none" stroke="#000000" stroke-width="0.500" d="M71.290 33.920h0.001" />
<path fill="none" stroke="#000000" stroke-width="0.350" d="M65.600 24.460L69.600 24.460" />
<path fill="none" stroke="#000000" stroke-width="0.350" d="M67.600 22.460L67.600 26.460" />
<path fill="#ffffff" stroke="none" d="M68.400 24.460C68.400 24.672 68.316 24.876 68.166 25.026C68.016 25.176 67.812 25.260 67.600 25.260C67.388 25.260 67.184 25.176 67.034 25.026C66.884 24.876 66.800 24.672 66.800 24.460C66.800 24.248 66.884 24.044 67.034 23.894C67.184 23.744 67.388 23.660 67.600 23.660C67.812 23.660 68.016 23.744 68.166 23.894C68.316 24.044 68.400 24.248 68.400 24.460Z" />
<path fill="none" stroke="#000000" stroke-width="0.500" d="M67.600 24.460h0.001" />
<path fill="none" stroke="#000000" stroke-width="0.350" d="M69.060 4.900L73.060 4.900" />
<path fill="none" stroke="#000000" stroke-width="0.350" d="M71.060 2.900L71.060 6.900" />
<path fill="#ffffff" stroke="none" d="M71.860 4.900C71.860 5.112 71.776 5.316 71.626 5.466C71.476 5.616 71.272 5.700 71.060 5.700C70.848 5.700 70.644 5.616 70.494 5.466C70.344 5.316 70.260 5.112 70.260 4.900C70.260 4.688 70.344 4.484 70.494 4.334C70.644 4.184 70.848 4.100 71.060 4.100C71.272 4.100 71.476 4.184 71.626 4.334C71.776 4.484 71.860 4.688 71.860 4.900Z" />
<path fill="none" stroke="#000000" stroke-width="0.500" d="M71.060 4.900h0.001" />
<path fill="none" stroke="#000000" stroke-width="0.350" d="M126.720 2.860L130.720 2.860" />
<path fill="none" stroke="#000000" stroke-width="0.350" d="M128.720 0.860L128.720 4.860" />
<path fill="#ffffff" stroke="none" d="M129.520 2.860C129.520 3.072 129.436 3.276 129.286 3.426C129.136 3.576 128.932 3.660 128.720 3.660C128.508 3.660 128.304 3.576 128.154 3.426C128.004 3.276 127.920 3.072 127.920 2.860C127.920 2.648 128.004 2.444 128.154 2.294C128.304 2.144 128.508 2.060 128.720 2.060C128.932 2.060 129.136 2.144 129.286 2.294C129.436 2.444 129.520 2.648 129.520 2.860Z" />
<path fill="none" stroke="#000000" stroke-width="0.500" d="M128.720 2.860h0.001" />
<path fill="none" stroke="#000000" stroke-width="0.350" d="M153.990 24.970L157.990 24.970" />
<path fill="none" stroke="#000000" stroke-width="0.350" d="M155.990 22.970L155.990 26.970" />
<path fill="#ffffff" stroke="none" d="M156.790 24.970C156.790 25.182 156.706 25.386 156.556 25.536C156.406 25.686 156.202 25.770 155.990 25.770C155.778 25.770 155.574 25.686 155.424 25.536C155.274 25.386 155.190 25.182 155.190 24.970C155.190 24.758 155.274 24.554 155.424 24.404C155.574 24.254 155.778 24.170 155.990 24.170C156.202 24.170 156.406 24.254 156.556 24.404C156.706 24.554 156.790 24.758 156.790 24.970Z" />
<path fill="none" stroke="#000000" stroke-width="0.500" d="M155.990 24.970h0.001" />
<path fill="none" stroke="#000000" stroke-width="0.350" d="M167.940 41.580L171.940 41.580" />
<path fill="none" stroke="#000000" stroke-width="0.350" d="M169.940 39.580L169.940 43.580" />
<path fill="#ffffff" stroke="none" d="M170.740 41.580C170.740 41.792 170.656 41.996 170.506 42.146C170.356 42.296 170.152 42.380 169.940 42.380C169.728 42.380 169.524 42.296 169.374 42.146C169.224 41.996 169.140 41.792 169.140 41.580C169.140 41.368 169.224 41.164 169.374 41.014C169.524 40.864 169.728 40.780 169.940 40.780C170.152 40.780 170.356 40.864 170.506 41.014C170.656 41.164 170.740 41.368 170.740 41.580Z" />
<path fill="none" stroke="#000000" stroke-width="0.500" d="M169.940 41.580h0.001" />
<path fill="none" stroke="#000000" stroke-width="0.350" d="M186.420 59.430L190.420 59.430" />
<path fill="none" stroke="#000000" stroke-width="0.350" d="M188.420 57.430L188.420 61.430" />
<path fill="#ffffff" stroke="none" d="M189.220 59.430C189.220 59.642 189.136 59.846 188.986 59.996C188.836 60.146 188.632 60.230 188.420 60.230C188.208 60.230 188.004 60.146 187.854 59.996C187.704 59.846 187.620 59.642 187.620 59.430C187.620 59.218 187.704 59.014 187.854 58.864C188.004 58.714 188.208 58.630 188.420 58.630C188.632 58.630 188.836 58.714 188.986 58.864C189.136 59.014 189.220 59.218 189.220 59.430Z" />
<path fill="none" stroke="#000000" stroke-width="0.500" d="M188.420 59.430h0.001" />
<path fill="none" stroke="#000000" stroke-width="0.350" d="M236.700 29.220L240.700 29.220" />
<path fill="none" stroke="#000000" stroke-width="0.350" d="M238.700 27.220L238.700 31.220" />
<path fill="#ffffff" stroke="none" d="M239.500 29.220C239.500 29.432 239.416 29.636 239.266 29.786C239.116 29.936 238.912 30.020 238.700 30.020C238.488 30.020 238.284 29.936 238.134 29.786C237.984 29.636 237.900 29.432 237.900 29.220C237.900 29.008 237.984 28.804 238.134 28.654C238.284 28.504 238.488 28.420 238.700 28.420C238.912 28.420 239.116 28.504 239.266 28.654C239.416 28.804 239.500 29.008 239.500 29.220Z" />
<path fill="none" stroke="#000000" stroke-width="0.500" d="M238.700 29.220h0.001" />
<path fill="none" stroke="#000000" stroke-width="0.350" d="M238.120 2.630L242.120 2.630" />
<path fill="none" stroke="#000000" stroke-width="0.350" d="M240.120 0.630L240.120 4.630" />
<path fill="#ffffff" stroke="none" d="M240.920 2.630C240.920 2.842 240.836 3.046 240.686 3.196C240.536 3.346 240.332 3.430 240.120 3.430C239.908 3.430 239.704 3.346 239.554 3.196C239.404 3.046 239.320 2.842 239.320 2.630C239.320 2.418 239.404 2.214 239.554 2.064C239.704 1.914 239.908 1.830 240.120 1.830C240.332 1.830 240.536 1.914 240.686 2.064C240.836 2.214 240.920 2.418 240.920 2.630Z" />
<path fill="none" stroke="#000000" stroke-width="0.500" d="M240.120 2.630h0.001" />
<path fill="none" stroke="#000000" stroke-width="0.350" d="M239.770 14.480L243.770 14.480" />
<path fill="none" stroke="#000000" stroke-width="0.350" d="M241.770 12.480L241.770 16.480" />
<path fill="#ffffff" stroke="none" d="M242.570 14.480C242.570 14.692 242.486 14.896 242.336 15.046C242.186 15.196 241.982 15.280 241.770 15.280C241.558 15.280 241.354 15.196 241.204 15.046C241.054 14.896 240.970 14.692 240.970 14.480C240.970 14.268 241.054 14.064 241.204 13.914C241.354 13.764 241.558 13.680 241.770 13.680C241.982 13.680 242.186 13.764 242.336 13.914C242.486 14.064 242.570 14.268 242.570 14.480Z" />
<path fill="none" stroke="#000000" stroke-width="0.500" d="M241.770 14.480h0.001" />
<path fill="none" stroke="#000000" stroke-width="0.350" d="M261.250 23.150L265.250 23.150" />
<path fill="none" stroke="#000000" stroke-width="0.350" d="M263.250 21.150L263.250 25.150" />
<path fill="#ffffff" stroke="none" d="M264.050 23.150C264.050 23.362 263.966 23.566 263.816 23.716C263.666 23.866 263.462 23.950 263.250 23.950C263.038 23.950 262.834 23.866 262.684 23.716C262.534 23.566 262.450 23.362 262.450 23.150C262.450 22.938 262.534 22.734 262.684 22.584C262.834 22.434 263.038 22.350 263.250 22.350C263.462 22.350 263.666 22.434 263.816 22.584C263.966 22.734 264.050 22.938 264.050 23.150Z" />
<path fill="none" stroke="#000000" stroke-width="0.500" d="M263.250 23.150h0.001" />
</g>
<g id="X_aaaaaaa_doublethink.svg">
<text font-family="cmss10" font-size="6.974" fill="black" stroke="none" transform="matrix(1.000 0.000 -0.000 -1.000 6.175 21.985)">&#x32;</text>
<text font-family="cmss10" font-size="6.974" fill="black" stroke="none" transform="matrix(1.000 0.000 -0.000 -1.000 0.625 53.515)">&#x31;</text>
<text font-family="cmss10" font-size="6.974" fill="black" stroke="none" transform="matrix(1.000 0.000 -0.000 -1.000 41.045 53.515)">&#x33;</text>
<text font-family="cmss10" font-size="6.974" fill="black" stroke="none" transform="matrix(1.000 0.000 -0.000 -1.000 65.025 65.245)">&#x34;</text>
<text font-family="cmss10" font-size="6.974" fill="black" stroke="none" transform="matrix(1.000 0.000 -0.000 -1.000 69.165 31.795)">&#x35;</text>
<text font-family="cmss10" font-size="6.974" fill="black" stroke="none" transform="matrix(1.000 0.000 -0.000 -1.000 65.475 22.335)">&#x36;</text>
<text font-family="cmss10" font-size="6.974" fill="black" stroke="none" transform="matrix(1.000 0.000 -0.000 -1.000 68.935 2.775)">&#x37;</text>
<text font-family="cmss10" font-size="6.974" fill="black" stroke="none" transform="matrix(1.000 0.000 -0.000 -1.000 126.595 0.735)">&#x38;</text>
<text font-family="cmss10" font-size="6.974" fill="black" stroke="none" transform="matrix(1.000 0.000 -0.000 -1.000 153.865 22.845)">&#x39;</text>
<text font-family="cmss10" font-size="6.974" fill="black" stroke="none" transform="matrix(1.000 0.000 -0.000 -1.000 167.815 39.455)">&#x31;&#x30;</text>
<text font-family="cmss10" font-size="6.974" fill="black" stroke="none" transform="matrix(1.000 0.000 -0.000 -1.000 186.295 57.305)">&#x31;&#x31;</text>
<text font-family="cmss10" font-size="6.974" fill="black" stroke="none" transform="matrix(1.000 0.000 -0.000 -1.000 236.575 27.095)">&#x31;&#x32;</text>
<text font-family="cmss10" font-size="6.974" fill="black" stroke="none" transform="matrix(1.000 0.000 -0.000 -1.000 237.995 0.505)">&#x31;&#x33;</text>
<text font-family="cmss10" font-size="6.974" fill="black" stroke="none" transform="matrix(1.000 0.000 -0.000 -1.000 239.645 12.355)">&#x31;&#x34;</text>
<text font-family="cmss10" font-size="6.974" fill="black" stroke="none" transform="matrix(1.000 0.000 -0.000 -1.000 261.125 21.025)">&#x31;&#x35;</text>
</g>
<clipPath id="clip_viewBox">
<path d="M-36.650 -52.461L292.043 -52.461L292.043 77.231L-36.650 77.231z" />
</clipPath>
</defs>
<g transform="scale(1,-1)" fill="#000000" stroke="#000000" stroke-linecap="round" stroke-linejoin="round" stroke-miterlimit="10" fill-rule="evenodd" clip-rule="evenodd" clip-path="url(#clip_viewBox)">
<use x="-8.304" y="-24.115" xlink:href="#E_aaaaaaa_doublethink.svg" />
<use x="-5.304" y="-21.115" xlink:href="#X_aaaaaaa_doublethink.svg" />
</g>
</svg>
