<?xml version="1.0" encoding="utf-8" standalone="no"?>
<!-- Generated by Therion 5.4.1+? (compiled on 2018-06-25) -->
<!DOCTYPE svg PUBLIC "-//W3C//DTD SVG 1.1//EN" "http://www.w3.org/Graphics/SVG/1.1/DTD/svg11.dtd">
<svg width="28.035cm" height="10.890cm" viewBox="-157.285 -91.943 794.693 308.693" xmlns="http://www.w3.org/2000/svg" xmlns:xlink="http://www.w3.org/1999/xlink">
<defs>
<g id="F_aaaaaaa_colarado.svg">
</g>
<g id="G_aaaaaaa_colarado.svg">
</g>
<g id="B_aaaaaaa_colarado.svg">
</g>
<g id="I_aaaaaaa_colarado.svg">
</g>
<g id="E_aaaaaaa_colarado.svg">
<path fill="none" stroke="#000000" stroke-width="0.500" d="M128.940 188.400L208.310 200.990" />
<path fill="none" stroke="#000000" stroke-width="0.500" d="M128.940 188.400L2.230 201.730" />
<path fill="none" stroke="#000000" stroke-width="0.500" d="M2.230 201.730L128.940 188.400" />
<path fill="none" stroke="#000000" stroke-width="0.500" d="M208.310 200.990L235.630 233.590" />
<path fill="none" stroke="#000000" stroke-width="0.500" d="M208.310 200.990L128.940 188.400" />
<path fill="none" stroke="#000000" stroke-width="0.500" d="M235.630 233.590L265.400 245.610" />
<path fill="none" stroke="#000000" stroke-width="0.500" d="M235.630 233.590L208.310 200.990" />
<path fill="none" stroke="#000000" stroke-width="0.500" d="M265.400 245.610L268.010 215.670" />
<path fill="none" stroke="#000000" stroke-width="0.500" d="M265.400 245.610L235.630 233.590" />
<path fill="none" stroke="#000000" stroke-width="0.500" d="M268.010 215.670L311.490 185.230" />
<path fill="none" stroke="#000000" stroke-width="0.500" d="M268.010 215.670L265.400 245.610" />
<path fill="none" stroke="#000000" stroke-width="0.500" d="M311.490 185.230L338.990 188.120" />
<path fill="none" stroke="#000000" stroke-width="0.500" d="M311.490 185.230L268.010 215.670" />
<path fill="none" stroke="#000000" stroke-width="0.500" d="M338.990 188.120L377.990 160.790" />
<path fill="none" stroke="#000000" stroke-width="0.500" d="M338.990 188.120L311.490 185.230" />
<path fill="none" stroke="#000000" stroke-width="0.500" d="M377.990 160.790L428.560 185.460" />
<path fill="none" stroke="#000000" stroke-width="0.500" d="M377.990 160.790L338.990 188.120" />
<path fill="none" stroke="#000000" stroke-width="0.500" d="M428.560 185.460L468.130 133.010" />
<path fill="none" stroke="#000000" stroke-width="0.500" d="M428.560 185.460L377.990 160.790" />
<path fill="none" stroke="#000000" stroke-width="0.500" d="M468.130 133.010L491.600 99.400" />
<path fill="none" stroke="#000000" stroke-width="0.500" d="M468.130 133.010L428.560 185.460" />
<path fill="none" stroke="#000000" stroke-width="0.500" d="M491.600 99.400L531.690 51.660" />
<path fill="none" stroke="#000000" stroke-width="0.500" d="M491.600 99.400L468.130 133.010" />
<path fill="none" stroke="#000000" stroke-width="0.500" d="M531.690 51.660L592.570 2.390" />
<path fill="none" stroke="#000000" stroke-width="0.500" d="M531.690 51.660L491.600 99.400" />
<path fill="none" stroke="#000000" stroke-width="0.500" d="M592.570 2.390L616.610 47.630" />
<path fill="none" stroke="#000000" stroke-width="0.500" d="M592.570 2.390L531.690 51.660" />
<path fill="none" stroke="#000000" stroke-width="0.500" d="M616.610 47.630L622.340 56.760" />
<path fill="none" stroke="#000000" stroke-width="0.500" d="M616.610 47.630L592.570 2.390" />
<path fill="none" stroke="#000000" stroke-width="0.500" d="M622.340 56.760L691.110 80.460" />
<path fill="none" stroke="#000000" stroke-width="0.500" d="M622.340 56.760L616.610 47.630" />
<path fill="none" stroke="#000000" stroke-width="0.500" d="M691.110 80.460L719.680 78.990" />
<path fill="none" stroke="#000000" stroke-width="0.500" d="M691.110 80.460L622.340 56.760" />
<path fill="none" stroke="#000000" stroke-width="0.500" d="M719.680 78.990L729.770 70.260" />
<path fill="none" stroke="#000000" stroke-width="0.500" d="M719.680 78.990L691.110 80.460" />
<path fill="none" stroke="#000000" stroke-width="0.500" d="M729.770 70.260L719.680 78.990" />
<path fill="none" stroke="#000000" stroke-width="0.350" d="M126.940 188.400L130.940 188.400" />
<path fill="none" stroke="#000000" stroke-width="0.350" d="M128.940 186.400L128.940 190.400" />
<path fill="#ffffff" stroke="none" d="M129.740 188.400C129.740 188.612 129.656 188.816 129.506 188.966C129.356 189.116 129.152 189.200 128.940 189.200C128.728 189.200 128.524 189.116 128.374 188.966C128.224 188.816 128.140 188.612 128.140 188.400C128.140 188.188 128.224 187.984 128.374 187.834C128.524 187.684 128.728 187.600 128.940 187.600C129.152 187.600 129.356 187.684 129.506 187.834C129.656 187.984 129.740 188.188 129.740 188.400Z" />
<path fill="none" stroke="#000000" stroke-width="0.500" d="M128.940 188.400h0.001" />
<path fill="none" stroke="#000000" stroke-width="0.350" d="M0.230 201.730L4.230 201.730" />
<path fill="none" stroke="#000000" stroke-width="0.350" d="M2.230 199.730L2.230 203.730" />
<path fill="#ffffff" stroke="none" d="M3.030 201.730C3.030 201.942 2.946 202.146 2.796 202.296C2.646 202.446 2.442 202.530 2.230 202.530C2.018 202.530 1.814 202.446 1.664 202.296C1.514 202.146 1.430 201.942 1.430 201.730C1.430 201.518 1.514 201.314 1.664 201.164C1.814 201.014 2.018 200.930 2.230 200.930C2.442 200.930 2.646 201.014 2.796 201.164C2.946 201.314 3.030 201.518 3.030 201.730Z" />
<path fill="none" stroke="#000000" stroke-width="0.500" d="M2.230 201.730h0.001" />
<path fill="none" stroke="#000000" stroke-width="0.350" d="M206.310 200.990L210.310 200.990" />
<path fill="none" stroke="#000000" stroke-width="0.350" d="M208.310 198.990L208.310 202.990" />
<path fill="#ffffff" stroke="none" d="M209.110 200.990C209.110 201.202 209.026 201.406 208.876 201.556C208.726 201.706 208.522 201.790 208.310 201.790C208.098 201.790 207.894 201.706 207.744 201.556C207.594 201.406 207.510 201.202 207.510 200.990C207.510 200.778 207.594 200.574 207.744 200.424C207.894 200.274 208.098 200.190 208.310 200.190C208.522 200.190 208.726 200.274 208.876 200.424C209.026 200.574 209.110 200.778 209.110 200.990Z" />
<path fill="none" stroke="#000000" stroke-width="0.500" d="M208.310 200.990h0.001" />
<path fill="none" stroke="#000000" stroke-width="0.350" d="M233.630 233.590L237.630 233.590" />
<path fill="none" stroke="#000000" stroke-width="0.350" d="M235.630 231.590L235.630 235.590" />
<path fill="#ffffff" stroke="none" d="M236.430 233.590C236.430 233.802 236.346 234.006 236.196 234.156C236.046 234.306 235.842 234.390 235.630 234.390C235.418 234.390 235.214 234.306 235.064 234.156C234.914 234.006 234.830 233.802 234.830 233.590C234.830 233.378 234.914 233.174 235.064 233.024C235.214 232.874 235.418 232.790 235.630 232.790C235.842 232.790 236.046 232.874 236.196 233.024C236.346 233.174 236.430 233.378 236.430 233.590Z" />
<path fill="none" stroke="#000000" stroke-width="0.500" d="M235.630 233.590h0.001" />
<path fill="none" stroke="#000000" stroke-width="0.350" d="M263.400 245.610L267.400 245.610" />
<path fill="none" stroke="#000000" stroke-width="0.350" d="M265.400 243.610L265.400 247.610" />
<path fill="#ffffff" stroke="none" d="M266.200 245.610C266.200 245.822 266.116 246.026 265.966 246.176C265.816 246.326 265.612 246.410 265.400 246.410C265.188 246.410 264.984 246.326 264.834 246.176C264.684 246.026 264.600 245.822 264.600 245.610C264.600 245.398 264.684 245.194 264.834 245.044C264.984 244.894 265.188 244.810 265.400 244.810C265.612 244.810 265.816 244.894 265.966 245.044C266.116 245.194 266.200 245.398 266.200 245.610Z" />
<path fill="none" stroke="#000000" stroke-width="0.500" d="M265.400 245.610h0.001" />
<path fill="none" stroke="#000000" stroke-width="0.350" d="M266.010 215.670L270.010 215.670" />
<path fill="none" stroke="#000000" stroke-width="0.350" d="M268.010 213.670L268.010 217.670" />
<path fill="#ffffff" stroke="none" d="M268.810 215.670C268.810 215.882 268.726 216.086 268.576 216.236C268.426 216.386 268.222 216.470 268.010 216.470C267.798 216.470 267.594 216.386 267.444 216.236C267.294 216.086 267.210 215.882 267.210 215.670C267.210 215.458 267.294 215.254 267.444 215.104C267.594 214.954 267.798 214.870 268.010 214.870C268.222 214.870 268.426 214.954 268.576 215.104C268.726 215.254 268.810 215.458 268.810 215.670Z" />
<path fill="none" stroke="#000000" stroke-width="0.500" d="M268.010 215.670h0.001" />
<path fill="none" stroke="#000000" stroke-width="0.350" d="M309.490 185.230L313.490 185.230" />
<path fill="none" stroke="#000000" stroke-width="0.350" d="M311.490 183.230L311.490 187.230" />
<path fill="#ffffff" stroke="none" d="M312.290 185.230C312.290 185.442 312.206 185.646 312.056 185.796C311.906 185.946 311.702 186.030 311.490 186.030C311.278 186.030 311.074 185.946 310.924 185.796C310.774 185.646 310.690 185.442 310.690 185.230C310.690 185.018 310.774 184.814 310.924 184.664C311.074 184.514 311.278 184.430 311.490 184.430C311.702 184.430 311.906 184.514 312.056 184.664C312.206 184.814 312.290 185.018 312.290 185.230Z" />
<path fill="none" stroke="#000000" stroke-width="0.500" d="M311.490 185.230h0.001" />
<path fill="none" stroke="#000000" stroke-width="0.350" d="M336.990 188.120L340.990 188.120" />
<path fill="none" stroke="#000000" stroke-width="0.350" d="M338.990 186.120L338.990 190.120" />
<path fill="#ffffff" stroke="none" d="M339.790 188.120C339.790 188.332 339.706 188.536 339.556 188.686C339.406 188.836 339.202 188.920 338.990 188.920C338.778 188.920 338.574 188.836 338.424 188.686C338.274 188.536 338.190 188.332 338.190 188.120C338.190 187.908 338.274 187.704 338.424 187.554C338.574 187.404 338.778 187.320 338.990 187.320C339.202 187.320 339.406 187.404 339.556 187.554C339.706 187.704 339.790 187.908 339.790 188.120Z" />
<path fill="none" stroke="#000000" stroke-width="0.500" d="M338.990 188.120h0.001" />
<path fill="none" stroke="#000000" stroke-width="0.350" d="M375.990 160.790L379.990 160.790" />
<path fill="none" stroke="#000000" stroke-width="0.350" d="M377.990 158.790L377.990 162.790" />
<path fill="#ffffff" stroke="none" d="M378.790 160.790C378.790 161.002 378.706 161.206 378.556 161.356C378.406 161.506 378.202 161.590 377.990 161.590C377.778 161.590 377.574 161.506 377.424 161.356C377.274 161.206 377.190 161.002 377.190 160.790C377.190 160.578 377.274 160.374 377.424 160.224C377.574 160.074 377.778 159.990 377.990 159.990C378.202 159.990 378.406 160.074 378.556 160.224C378.706 160.374 378.790 160.578 378.790 160.790Z" />
<path fill="none" stroke="#000000" stroke-width="0.500" d="M377.990 160.790h0.001" />
<path fill="none" stroke="#000000" stroke-width="0.350" d="M426.560 185.460L430.560 185.460" />
<path fill="none" stroke="#000000" stroke-width="0.350" d="M428.560 183.460L428.560 187.460" />
<path fill="#ffffff" stroke="none" d="M429.360 185.460C429.360 185.672 429.276 185.876 429.126 186.026C428.976 186.176 428.772 186.260 428.560 186.260C428.348 186.260 428.144 186.176 427.994 186.026C427.844 185.876 427.760 185.672 427.760 185.460C427.760 185.248 427.844 185.044 427.994 184.894C428.144 184.744 428.348 184.660 428.560 184.660C428.772 184.660 428.976 184.744 429.126 184.894C429.276 185.044 429.360 185.248 429.360 185.460Z" />
<path fill="none" stroke="#000000" stroke-width="0.500" d="M428.560 185.460h0.001" />
<path fill="none" stroke="#000000" stroke-width="0.350" d="M466.130 133.010L470.130 133.010" />
<path fill="none" stroke="#000000" stroke-width="0.350" d="M468.130 131.010L468.130 135.010" />
<path fill="#ffffff" stroke="none" d="M468.930 133.010C468.930 133.222 468.846 133.426 468.696 133.576C468.546 133.726 468.342 133.810 468.130 133.810C467.918 133.810 467.714 133.726 467.564 133.576C467.414 133.426 467.330 133.222 467.330 133.010C467.330 132.798 467.414 132.594 467.564 132.444C467.714 132.294 467.918 132.210 468.130 132.210C468.342 132.210 468.546 132.294 468.696 132.444C468.846 132.594 468.930 132.798 468.930 133.010Z" />
<path fill="none" stroke="#000000" stroke-width="0.500" d="M468.130 133.010h0.001" />
<path fill="none" stroke="#000000" stroke-width="0.350" d="M489.600 99.400L493.600 99.400" />
<path fill="none" stroke="#000000" stroke-width="0.350" d="M491.600 97.400L491.600 101.400" />
<path fill="#ffffff" stroke="none" d="M492.400 99.400C492.400 99.612 492.316 99.816 492.166 99.966C492.016 100.116 491.812 100.200 491.600 100.200C491.388 100.200 491.184 100.116 491.034 99.966C490.884 99.816 490.800 99.612 490.800 99.400C490.800 99.188 490.884 98.984 491.034 98.834C491.184 98.684 491.388 98.600 491.600 98.600C491.812 98.600 492.016 98.684 492.166 98.834C492.316 98.984 492.400 99.188 492.400 99.400Z" />
<path fill="none" stroke="#000000" stroke-width="0.500" d="M491.600 99.400h0.001" />
<path fill="none" stroke="#000000" stroke-width="0.350" d="M529.690 51.660L533.690 51.660" />
<path fill="none" stroke="#000000" stroke-width="0.350" d="M531.690 49.660L531.690 53.660" />
<path fill="#ffffff" stroke="none" d="M532.490 51.660C532.490 51.872 532.406 52.076 532.256 52.226C532.106 52.376 531.902 52.460 531.690 52.460C531.478 52.460 531.274 52.376 531.124 52.226C530.974 52.076 530.890 51.872 530.890 51.660C530.890 51.448 530.974 51.244 531.124 51.094C531.274 50.944 531.478 50.860 531.690 50.860C531.902 50.860 532.106 50.944 532.256 51.094C532.406 51.244 532.490 51.448 532.490 51.660Z" />
<path fill="none" stroke="#000000" stroke-width="0.500" d="M531.690 51.660h0.001" />
<path fill="none" stroke="#000000" stroke-width="0.350" d="M590.570 2.390L594.570 2.390" />
<path fill="none" stroke="#000000" stroke-width="0.350" d="M592.570 0.390L592.570 4.390" />
<path fill="#ffffff" stroke="none" d="M593.370 2.390C593.370 2.602 593.286 2.806 593.136 2.956C592.986 3.106 592.782 3.190 592.570 3.190C592.358 3.190 592.154 3.106 592.004 2.956C591.854 2.806 591.770 2.602 591.770 2.390C591.770 2.178 591.854 1.974 592.004 1.824C592.154 1.674 592.358 1.590 592.570 1.590C592.782 1.590 592.986 1.674 593.136 1.824C593.286 1.974 593.370 2.178 593.370 2.390Z" />
<path fill="none" stroke="#000000" stroke-width="0.500" d="M592.570 2.390h0.001" />
<path fill="none" stroke="#000000" stroke-width="0.350" d="M614.610 47.630L618.610 47.630" />
<path fill="none" stroke="#000000" stroke-width="0.350" d="M616.610 45.630L616.610 49.630" />
<path fill="#ffffff" stroke="none" d="M617.410 47.630C617.410 47.842 617.326 48.046 617.176 48.196C617.026 48.346 616.822 48.430 616.610 48.430C616.398 48.430 616.194 48.346 616.044 48.196C615.894 48.046 615.810 47.842 615.810 47.630C615.810 47.418 615.894 47.214 616.044 47.064C616.194 46.914 616.398 46.830 616.610 46.830C616.822 46.830 617.026 46.914 617.176 47.064C617.326 47.214 617.410 47.418 617.410 47.630Z" />
<path fill="none" stroke="#000000" stroke-width="0.500" d="M616.610 47.630h0.001" />
<path fill="none" stroke="#000000" stroke-width="0.350" d="M620.340 56.760L624.340 56.760" />
<path fill="none" stroke="#000000" stroke-width="0.350" d="M622.340 54.760L622.340 58.760" />
<path fill="#ffffff" stroke="none" d="M623.140 56.760C623.140 56.972 623.056 57.176 622.906 57.326C622.756 57.476 622.552 57.560 622.340 57.560C622.128 57.560 621.924 57.476 621.774 57.326C621.624 57.176 621.540 56.972 621.540 56.760C621.540 56.548 621.624 56.344 621.774 56.194C621.924 56.044 622.128 55.960 622.340 55.960C622.552 55.960 622.756 56.044 622.906 56.194C623.056 56.344 623.140 56.548 623.140 56.760Z" />
<path fill="none" stroke="#000000" stroke-width="0.500" d="M622.340 56.760h0.001" />
<path fill="none" stroke="#000000" stroke-width="0.350" d="M689.110 80.460L693.110 80.460" />
<path fill="none" stroke="#000000" stroke-width="0.350" d="M691.110 78.460L691.110 82.460" />
<path fill="#ffffff" stroke="none" d="M691.910 80.460C691.910 80.672 691.826 80.876 691.676 81.026C691.526 81.176 691.322 81.260 691.110 81.260C690.898 81.260 690.694 81.176 690.544 81.026C690.394 80.876 690.310 80.672 690.310 80.460C690.310 80.248 690.394 80.044 690.544 79.894C690.694 79.744 690.898 79.660 691.110 79.660C691.322 79.660 691.526 79.744 691.676 79.894C691.826 80.044 691.910 80.248 691.910 80.460Z" />
<path fill="none" stroke="#000000" stroke-width="0.500" d="M691.110 80.460h0.001" />
<path fill="none" stroke="#000000" stroke-width="0.350" d="M717.680 78.990L721.680 78.990" />
<path fill="none" stroke="#000000" stroke-width="0.350" d="M719.680 76.990L719.680 80.990" />
<path fill="#ffffff" stroke="none" d="M720.480 78.990C720.480 79.202 720.396 79.406 720.246 79.556C720.096 79.706 719.892 79.790 719.680 79.790C719.468 79.790 719.264 79.706 719.114 79.556C718.964 79.406 718.880 79.202 718.880 78.990C718.880 78.778 718.964 78.574 719.114 78.424C719.264 78.274 719.468 78.190 719.680 78.190C719.892 78.190 720.096 78.274 720.246 78.424C720.396 78.574 720.480 78.778 720.480 78.990Z" />
<path fill="none" stroke="#000000" stroke-width="0.500" d="M719.680 78.990h0.001" />
<path fill="none" stroke="#000000" stroke-width="0.350" d="M727.770 70.260L731.770 70.260" />
<path fill="none" stroke="#000000" stroke-width="0.350" d="M729.770 68.260L729.770 72.260" />
<path fill="#ffffff" stroke="none" d="M730.570 70.260C730.570 70.472 730.486 70.676 730.336 70.826C730.186 70.976 729.982 71.060 729.770 71.060C729.558 71.060 729.354 70.976 729.204 70.826C729.054 70.676 728.970 70.472 728.970 70.260C728.970 70.048 729.054 69.844 729.204 69.694C729.354 69.544 729.558 69.460 729.770 69.460C729.982 69.460 730.186 69.544 730.336 69.694C730.486 69.844 730.570 70.048 730.570 70.260Z" />
<path fill="none" stroke="#000000" stroke-width="0.500" d="M729.770 70.260h0.001" />
</g>
<g id="X_aaaaaaa_colarado.svg">
<text font-family="cmss10" font-size="6.974" fill="black" stroke="none" transform="matrix(1.000 0.000 -0.000 -1.000 126.815 186.275)">&#x32;</text>
<text font-family="cmss10" font-size="6.974" fill="black" stroke="none" transform="matrix(1.000 0.000 -0.000 -1.000 0.105 199.605)">&#x31;</text>
<text font-family="cmss10" font-size="6.974" fill="black" stroke="none" transform="matrix(1.000 0.000 -0.000 -1.000 206.185 198.865)">&#x33;</text>
<text font-family="cmss10" font-size="6.974" fill="black" stroke="none" transform="matrix(1.000 0.000 -0.000 -1.000 233.505 231.465)">&#x34;</text>
<text font-family="cmss10" font-size="6.974" fill="black" stroke="none" transform="matrix(1.000 0.000 -0.000 -1.000 263.275 243.485)">&#x35;</text>
<text font-family="cmss10" font-size="6.974" fill="black" stroke="none" transform="matrix(1.000 0.000 -0.000 -1.000 265.885 213.545)">&#x36;</text>
<text font-family="cmss10" font-size="6.974" fill="black" stroke="none" transform="matrix(1.000 0.000 -0.000 -1.000 309.365 183.105)">&#x37;</text>
<text font-family="cmss10" font-size="6.974" fill="black" stroke="none" transform="matrix(1.000 0.000 -0.000 -1.000 336.865 185.995)">&#x38;</text>
<text font-family="cmss10" font-size="6.974" fill="black" stroke="none" transform="matrix(1.000 0.000 -0.000 -1.000 375.865 158.665)">&#x39;</text>
<text font-family="cmss10" font-size="6.974" fill="black" stroke="none" transform="matrix(1.000 0.000 -0.000 -1.000 426.435 183.335)">&#x31;&#x30;</text>
<text font-family="cmss10" font-size="6.974" fill="black" stroke="none" transform="matrix(1.000 0.000 -0.000 -1.000 466.005 130.885)">&#x31;&#x31;</text>
<text font-family="cmss10" font-size="6.974" fill="black" stroke="none" transform="matrix(1.000 0.000 -0.000 -1.000 489.475 97.275)">&#x31;&#x32;</text>
<text font-family="cmss10" font-size="6.974" fill="black" stroke="none" transform="matrix(1.000 0.000 -0.000 -1.000 529.565 49.535)">&#x31;&#x33;</text>
<text font-family="cmss10" font-size="6.974" fill="black" stroke="none" transform="matrix(1.000 0.000 -0.000 -1.000 590.445 0.265)">&#x31;&#x34;</text>
<text font-family="cmss10" font-size="6.974" fill="black" stroke="none" transform="matrix(1.000 0.000 -0.000 -1.000 614.485 45.505)">&#x31;&#x35;</text>
<text font-family="cmss10" font-size="6.974" fill="black" stroke="none" transform="matrix(1.000 0.000 -0.000 -1.000 620.215 54.635)">&#x31;&#x36;</text>
<text font-family="cmss10" font-size="6.974" fill="black" stroke="none" transform="matrix(1.000 0.000 -0.000 -1.000 688.985 78.335)">&#x31;&#x37;</text>
<text font-family="cmss10" font-size="6.974" fill="black" stroke="none" transform="matrix(1.000 0.000 -0.000 -1.000 717.555 76.865)">&#x31;&#x38;</text>
<text font-family="cmss10" font-size="6.974" fill="black" stroke="none" transform="matrix(1.000 0.000 -0.000 -1.000 727.645 68.135)">&#x31;&#x39;</text>
</g>
<clipPath id="clip_viewBox">
<path d="M-157.285 -216.750L637.408 -216.750L637.408 91.943L-157.285 91.943z" />
</clipPath>
</defs>
<g transform="scale(1,-1)" fill="#000000" stroke="#000000" stroke-linecap="round" stroke-linejoin="round" stroke-miterlimit="10" fill-rule="evenodd" clip-rule="evenodd" clip-path="url(#clip_viewBox)">
<use x="-128.939" y="-188.403" xlink:href="#E_aaaaaaa_colarado.svg" />
<use x="-125.939" y="-185.403" xlink:href="#X_aaaaaaa_colarado.svg" />
</g>
</svg>
