<?xml version="1.0" encoding="ISO-8859-1"?>
<svg version="1.1" baseProfile="full"
xmlns="http://www.w3.org/2000/svg"
xmlns:xlink="http://www.w3.org/1999/xlink"
xmlns:ev="http://www.w3.org/2001/xml-events"
width="683.240mm" height="570.000mm"
viewBox="0 0 683.240 570.000">
<title>hall_of_the_mountain_king</title>
<g transform="translate(5.000 565.000)">
<g id="Legs" stroke="black" fill="none" stroke-width="0.4px">
<path d="M210.560 -357.760L200.000 -360.000"/>
<path d="M218.520 -357.200L210.560 -357.760"/>
<path d="M230.360 -272.840L218.520 -357.200"/>
<path d="M249.920 -216.080L230.360 -272.840"/>
<path d="M299.440 -200.000L249.920 -216.080"/>
<path d="M347.640 -219.480L299.440 -200.000"/>
<path d="M368.400 -218.400L347.640 -219.480"/>
<path d="M422.720 -259.320L368.400 -218.400"/>
<path d="M434.960 -259.120L422.720 -259.320"/>
<path d="M453.800 -257.160L434.960 -259.120"/>
<path d="M473.240 -237.000L453.800 -257.160"/>
</g>
<g id="Labels" font-size="0.600em">
<text transform="translate(473.240 -237.000)">hall_of_the_mountain_king.1</text>
<text transform="translate(200.000 -360.000)">hall_of_the_mountain_king.12</text>
<text transform="translate(200.000 -360.000)">mighty_fine_indeed.1</text>
<text transform="translate(473.240 -237.000)">colony.9</text>
<text transform="translate(453.800 -257.160)">hall_of_the_mountain_king.2</text>
<text transform="translate(434.960 -259.120)">hall_of_the_mountain_king.3</text>
<text transform="translate(422.720 -259.320)">hall_of_the_mountain_king.4</text>
<text transform="translate(368.400 -218.400)">hall_of_the_mountain_king.5</text>
<text transform="translate(347.640 -219.480)">hall_of_the_mountain_king.6</text>
<text transform="translate(299.440 -200.000)">hall_of_the_mountain_king.7</text>
<text transform="translate(249.920 -216.080)">hall_of_the_mountain_king.8</text>
<text transform="translate(230.360 -272.840)">hall_of_the_mountain_king.9</text>
<text transform="translate(218.520 -357.200)">hall_of_the_mountain_king.10</text>
<text transform="translate(210.560 -357.760)">hall_of_the_mountain_king.11</text>
</g>
<g id="Stations" stroke="black" fill="none" stroke-width="0.05px">
<circle id="hall_of_the_mountain_king.1" cx="473.240" cy="-237.000" r="1.131"/>
<path d="M472.440 -237.800L474.040 -236.200M474.040 -237.800L472.440 -236.200"/>
<circle id="hall_of_the_mountain_king.12" cx="200.000" cy="-360.000" r="1.131"/>
<path d="M199.200 -360.800L200.800 -359.200M200.800 -360.800L199.200 -359.200"/>
<circle id="hall_of_the_mountain_king.12" cx="200.000" cy="-360.000" r="1.131"/>
<path d="M199.200 -360.800L200.800 -359.200M200.800 -360.800L199.200 -359.200"/>
<circle id="hall_of_the_mountain_king.1" cx="473.240" cy="-237.000" r="1.131"/>
<path d="M472.440 -237.800L474.040 -236.200M474.040 -237.800L472.440 -236.200"/>
<circle id="hall_of_the_mountain_king.2" cx="453.800" cy="-257.160" r="1.131"/>
<path d="M453.000 -257.960L454.600 -256.360M454.600 -257.960L453.000 -256.360"/>
<circle id="hall_of_the_mountain_king.3" cx="434.960" cy="-259.120" r="1.131"/>
<path d="M434.160 -259.920L435.760 -258.320M435.760 -259.920L434.160 -258.320"/>
<circle id="hall_of_the_mountain_king.4" cx="422.720" cy="-259.320" r="1.131"/>
<path d="M421.920 -260.120L423.520 -258.520M423.520 -260.120L421.920 -258.520"/>
<circle id="hall_of_the_mountain_king.5" cx="368.400" cy="-218.400" r="1.131"/>
<path d="M367.600 -219.200L369.200 -217.600M369.200 -219.200L367.600 -217.600"/>
<circle id="hall_of_the_mountain_king.6" cx="347.640" cy="-219.480" r="1.131"/>
<path d="M346.840 -220.280L348.440 -218.680M348.440 -220.280L346.840 -218.680"/>
<circle id="hall_of_the_mountain_king.7" cx="299.440" cy="-200.000" r="1.131"/>
<path d="M298.640 -200.800L300.240 -199.200M300.240 -200.800L298.640 -199.200"/>
<circle id="hall_of_the_mountain_king.8" cx="249.920" cy="-216.080" r="1.131"/>
<path d="M249.120 -216.880L250.720 -215.280M250.720 -216.880L249.120 -215.280"/>
<circle id="hall_of_the_mountain_king.9" cx="230.360" cy="-272.840" r="1.131"/>
<path d="M229.560 -273.640L231.160 -272.040M231.160 -273.640L229.560 -272.040"/>
<circle id="hall_of_the_mountain_king.10" cx="218.520" cy="-357.200" r="1.131"/>
<path d="M217.720 -358.000L219.320 -356.400M219.320 -358.000L217.720 -356.400"/>
<circle id="hall_of_the_mountain_king.11" cx="210.560" cy="-357.760" r="1.131"/>
<path d="M209.760 -358.560L211.360 -356.960M211.360 -358.560L209.760 -356.960"/>
</g>
</g>
</svg>
