<?xml version="1.0" encoding="UTF-8" standalone="no"?>
<svg
   xmlns:dc="http://purl.org/dc/elements/1.1/"
   xmlns:cc="http://creativecommons.org/ns#"
   xmlns:rdf="http://www.w3.org/1999/02/22-rdf-syntax-ns#"
   xmlns:svg="http://www.w3.org/2000/svg"
   xmlns="http://www.w3.org/2000/svg"
   xmlns:sodipodi="http://sodipodi.sourceforge.net/DTD/sodipodi-0.dtd"
   xmlns:inkscape="http://www.inkscape.org/namespaces/inkscape"
   version="1.1"
   width="573.120mm"
   height="505.480mm"
   viewBox="0 0 573.120 505.480"
   id="svg131"
   sodipodi:docname="broken_hammer_extend.svg"
   inkscape:version="0.92.2 5c3e80d, 2017-08-06">
  <metadata
     id="metadata137">
    <rdf:RDF>
      <cc:Work
         rdf:about="">
        <dc:format>image/svg+xml</dc:format>
        <dc:type
           rdf:resource="http://purl.org/dc/dcmitype/StillImage" />
      </cc:Work>
    </rdf:RDF>
  </metadata>
  <defs
     id="defs135" />
  <sodipodi:namedview
     pagecolor="#ffffff"
     bordercolor="#666666"
     borderopacity="1"
     objecttolerance="10"
     gridtolerance="10"
     guidetolerance="10"
     inkscape:pageopacity="0"
     inkscape:pageshadow="2"
     inkscape:window-width="740"
     inkscape:window-height="480"
     id="namedview133"
     showgrid="false"
     inkscape:zoom="0.2470589"
     inkscape:cx="1070.4739"
     inkscape:cy="942.93886"
     inkscape:window-x="0"
     inkscape:window-y="0"
     inkscape:window-maximized="0"
     inkscape:current-layer="svg131" />
  <title
     id="title2">broken_hammer</title>
  <g
     transform="matrix(-1,0,0,1,607.55541,500.48)"
     id="g129">
    <g
       id="Legs"
       style="fill:none;stroke:#000000;stroke-width:0.40000001px">
      <path
         d="m 200,-295.48 12.56,2.44"
         id="path4"
         inkscape:connector-curvature="0" />
      <path
         d="m 212.56,-293.04 6.92,4"
         id="path6"
         inkscape:connector-curvature="0" />
      <path
         d="m 219.48,-289.04 13.56,1.44"
         id="path8"
         inkscape:connector-curvature="0" />
      <path
         d="m 233.04,-287.6 11.16,0.96"
         id="path10"
         inkscape:connector-curvature="0" />
      <path
         d="m 244.2,-286.64 13.16,3.52"
         id="path12"
         inkscape:connector-curvature="0" />
      <path
         d="m 257.36,-283.12 v 10.4"
         id="path14"
         inkscape:connector-curvature="0" />
      <path
         d="m 257.36,-272.72 8.32,-8.04"
         id="path16"
         inkscape:connector-curvature="0" />
      <path
         d="m 265.68,-280.76 21.2,1.08"
         id="path18"
         inkscape:connector-curvature="0" />
      <path
         d="m 286.88,-279.68 h 14.6"
         id="path20"
         inkscape:connector-curvature="0" />
      <path
         d="m 301.48,-279.68 7.96,0.72"
         id="path22"
         inkscape:connector-curvature="0" />
      <path
         d="m 309.44,-278.96 11.4,-4.84"
         id="path24"
         inkscape:connector-curvature="0" />
      <path
         d="m 320.84,-283.8 9.84,1.72"
         id="path26"
         inkscape:connector-curvature="0" />
      <path
         d="m 330.68,-282.08 19,0.68"
         id="path28"
         inkscape:connector-curvature="0" />
      <path
         d="m 349.68,-281.4 13.44,9.4"
         id="path30"
         inkscape:connector-curvature="0" />
      <path
         d="m 363.12,-272 v 72"
         id="path32"
         inkscape:connector-curvature="0" />
    </g>
    <g
       id="Labels"
       font-size="0.600em"
       style="font-size:7.20000029px">
      <text
         transform="translate(200,-295.48)"
         id="text35">1</text>
      <text
         transform="translate(363.12,-200)"
         id="text37">16</text>
      <text
         transform="translate(363.12,-200)"
         id="text39">monatip4.1</text>
      <text
         transform="translate(200,-295.48)"
         id="text41">monatip3.44</text>
      <text
         transform="translate(212.56,-293.04)"
         id="text43">2</text>
      <text
         transform="translate(219.48,-289.04)"
         id="text45">3</text>
      <text
         transform="translate(233.04,-287.6)"
         id="text47">4</text>
      <text
         transform="translate(244.2,-286.64)"
         id="text49">5</text>
      <text
         transform="translate(257.36,-283.12)"
         id="text51">6</text>
      <text
         transform="translate(257.36,-272.72)"
         id="text53">7</text>
      <text
         transform="translate(265.68,-280.76)"
         id="text55">8</text>
      <text
         transform="translate(286.88,-279.68)"
         id="text57">9</text>
      <text
         transform="translate(301.48,-279.68)"
         id="text59">10</text>
      <text
         transform="translate(309.44,-278.96)"
         id="text61">11</text>
      <text
         transform="translate(320.84,-283.8)"
         id="text63">12</text>
      <text
         transform="translate(330.68,-282.08)"
         id="text65">13</text>
      <text
         transform="translate(349.68,-281.4)"
         id="text67">14</text>
      <text
         transform="translate(363.12,-272)"
         id="text69">15</text>
    </g>
    <g
       id="Stations"
       style="fill:none;stroke:#000000;stroke-width:0.05px">
      <circle
         id="broken_hammer.1"
         cx="200"
         cy="-295.48001"
         r="1.131" />
      <path
         d="m 199.2,-296.28 1.6,1.6 m 0,-1.6 -1.6,1.6"
         id="path73"
         inkscape:connector-curvature="0" />
      <circle
         id="broken_hammer.16"
         cx="363.12"
         cy="-200"
         r="1.131" />
      <path
         d="m 362.32,-200.8 1.6,1.6 m 0,-1.6 -1.6,1.6"
         id="path76"
         inkscape:connector-curvature="0" />
      <circle
         id="circle78"
         cx="363.12"
         cy="-200"
         r="1.131" />
      <path
         d="m 362.32,-200.8 1.6,1.6 m 0,-1.6 -1.6,1.6"
         id="path80"
         inkscape:connector-curvature="0" />
      <circle
         id="circle82"
         cx="200"
         cy="-295.48001"
         r="1.131" />
      <path
         d="m 199.2,-296.28 1.6,1.6 m 0,-1.6 -1.6,1.6"
         id="path84"
         inkscape:connector-curvature="0" />
      <circle
         id="broken_hammer.2"
         cx="212.56"
         cy="-293.04001"
         r="1.131" />
      <path
         d="m 211.76,-293.84 1.6,1.6 m 0,-1.6 -1.6,1.6"
         id="path87"
         inkscape:connector-curvature="0" />
      <circle
         id="broken_hammer.3"
         cx="219.48"
         cy="-289.04001"
         r="1.131" />
      <path
         d="m 218.68,-289.84 1.6,1.6 m 0,-1.6 -1.6,1.6"
         id="path90"
         inkscape:connector-curvature="0" />
      <circle
         id="broken_hammer.4"
         cx="233.03999"
         cy="-287.60001"
         r="1.131" />
      <path
         d="m 232.24,-288.4 1.6,1.6 m 0,-1.6 -1.6,1.6"
         id="path93"
         inkscape:connector-curvature="0" />
      <circle
         id="broken_hammer.5"
         cx="244.2"
         cy="-286.64001"
         r="1.131" />
      <path
         d="m 243.4,-287.44 1.6,1.6 m 0,-1.6 -1.6,1.6"
         id="path96"
         inkscape:connector-curvature="0" />
      <circle
         id="broken_hammer.6"
         cx="257.35999"
         cy="-283.12"
         r="1.131" />
      <path
         d="m 256.56,-283.92 1.6,1.6 m 0,-1.6 -1.6,1.6"
         id="path99"
         inkscape:connector-curvature="0" />
      <circle
         id="broken_hammer.7"
         cx="257.35999"
         cy="-272.72"
         r="1.131" />
      <path
         d="m 256.56,-273.52 1.6,1.6 m 0,-1.6 -1.6,1.6"
         id="path102"
         inkscape:connector-curvature="0" />
      <circle
         id="broken_hammer.8"
         cx="265.67999"
         cy="-280.76001"
         r="1.131" />
      <path
         d="m 264.88,-281.56 1.6,1.6 m 0,-1.6 -1.6,1.6"
         id="path105"
         inkscape:connector-curvature="0" />
      <circle
         id="broken_hammer.9"
         cx="286.88"
         cy="-279.67999"
         r="1.131" />
      <path
         d="m 286.08,-280.48 1.6,1.6 m 0,-1.6 -1.6,1.6"
         id="path108"
         inkscape:connector-curvature="0" />
      <circle
         id="broken_hammer.10"
         cx="301.48001"
         cy="-279.67999"
         r="1.131" />
      <path
         d="m 300.68,-280.48 1.6,1.6 m 0,-1.6 -1.6,1.6"
         id="path111"
         inkscape:connector-curvature="0" />
      <circle
         id="broken_hammer.11"
         cx="309.44"
         cy="-278.95999"
         r="1.131" />
      <path
         d="m 308.64,-279.76 1.6,1.6 m 0,-1.6 -1.6,1.6"
         id="path114"
         inkscape:connector-curvature="0" />
      <circle
         id="broken_hammer.12"
         cx="320.84"
         cy="-283.79999"
         r="1.131" />
      <path
         d="m 320.04,-284.6 1.6,1.6 m 0,-1.6 -1.6,1.6"
         id="path117"
         inkscape:connector-curvature="0" />
      <circle
         id="broken_hammer.13"
         cx="330.67999"
         cy="-282.07999"
         r="1.131" />
      <path
         d="m 329.88,-282.88 1.6,1.6 m 0,-1.6 -1.6,1.6"
         id="path120"
         inkscape:connector-curvature="0" />
      <circle
         id="broken_hammer.14"
         cx="349.67999"
         cy="-281.39999"
         r="1.131" />
      <path
         d="m 348.88,-282.2 1.6,1.6 m 0,-1.6 -1.6,1.6"
         id="path123"
         inkscape:connector-curvature="0" />
      <circle
         id="broken_hammer.15"
         cx="363.12"
         cy="-272"
         r="1.131" />
      <path
         d="m 362.32,-272.8 1.6,1.6 m 0,-1.6 -1.6,1.6"
         id="path126"
         inkscape:connector-curvature="0" />
    </g>
  </g>
</svg>
