<?xml version="1.0" encoding="UTF-8" standalone="no"?>
<svg
   xmlns:dc="http://purl.org/dc/elements/1.1/"
   xmlns:cc="http://creativecommons.org/ns#"
   xmlns:rdf="http://www.w3.org/1999/02/22-rdf-syntax-ns#"
   xmlns:svg="http://www.w3.org/2000/svg"
   xmlns="http://www.w3.org/2000/svg"
   xmlns:sodipodi="http://sodipodi.sourceforge.net/DTD/sodipodi-0.dtd"
   xmlns:inkscape="http://www.inkscape.org/namespaces/inkscape"
   version="1.1"
   width="492.680mm"
   height="511.680mm"
   viewBox="0 0 492.680 511.680"
   id="svg76"
   sodipodi:docname="what_a_disappointment_extend.svg"
   inkscape:version="0.92.2 5c3e80d, 2017-08-06">
  <metadata
     id="metadata82">
    <rdf:RDF>
      <cc:Work
         rdf:about="">
        <dc:format>image/svg+xml</dc:format>
        <dc:type
           rdf:resource="http://purl.org/dc/dcmitype/StillImage" />
      </cc:Work>
    </rdf:RDF>
  </metadata>
  <defs
     id="defs80" />
  <sodipodi:namedview
     pagecolor="#ffffff"
     bordercolor="#666666"
     borderopacity="1"
     objecttolerance="10"
     gridtolerance="10"
     guidetolerance="10"
     inkscape:pageopacity="0"
     inkscape:pageshadow="2"
     inkscape:window-width="1279"
     inkscape:window-height="666"
     id="namedview78"
     showgrid="false"
     inkscape:zoom="0.48813061"
     inkscape:cx="965.07912"
     inkscape:cy="863.74125"
     inkscape:window-x="0"
     inkscape:window-y="0"
     inkscape:window-maximized="0"
     inkscape:current-layer="Labels" />
  <title
     id="title2">what_a_disappointment</title>
  <g
     transform="translate(5.000 506.680)"
     id="g74">
    <g
       id="Legs"
       stroke="black"
       fill="none"
       stroke-width="0.4px">
      <path
         d="M204.400 -300.840L200.000 -301.680"
         id="path4" />
      <path
         d="M215.840 -254.960L204.400 -300.840"
         id="path6" />
      <path
         d="M226.320 -231.360L215.840 -254.960"
         id="path8" />
      <path
         d="M241.840 -226.360L226.320 -231.360"
         id="path10" />
      <path
         d="M266.320 -230.240L241.840 -226.360"
         id="path12" />
      <path
         d="M282.680 -216.960L266.320 -230.240"
         id="path14" />
      <path
         d="M282.680 -208.320L282.680 -216.960"
         id="path16" />
      <path
         d="M282.680 -208.320L282.680 -200.000"
         id="path18" />
    </g>
    <g
       id="Labels"
       font-size="0.600em">
      <text
         transform="translate(200,-301.68)"
         id="text21">9</text>
      <text
         transform="translate(282.68,-200)"
         id="text25">1</text>
      <text
         transform="translate(282.68,-208.32)"
         id="text27">2</text>
      <text
         transform="translate(282.68,-216.96)"
         id="text29">3</text>
      <text
         transform="translate(266.32,-230.24)"
         id="text31">4</text>
      <text
         transform="translate(241.84,-226.36)"
         id="text33">5</text>
      <text
         transform="translate(226.32,-231.36)"
         id="text35">6</text>
      <text
         transform="translate(215.84,-254.96)"
         id="text37">7</text>
      <text
         transform="translate(204.4,-300.84)"
         id="text39">8</text>
    </g>
    <g
       id="Stations"
       stroke="black"
       fill="none"
       stroke-width="0.05px">
      <circle
         id="what_a_disappointment.9"
         cx="200.000"
         cy="-301.680"
         r="1.131" />
      <path
         d="M199.200 -302.480L200.800 -300.880M200.800 -302.480L199.200 -300.880"
         id="path43" />
      <circle
         id="circle45"
         cx="200.000"
         cy="-301.680"
         r="1.131" />
      <path
         d="M199.200 -302.480L200.800 -300.880M200.800 -302.480L199.200 -300.880"
         id="path47" />
      <circle
         id="what_a_disappointment.1"
         cx="282.680"
         cy="-200.000"
         r="1.131" />
      <path
         d="M281.880 -200.800L283.480 -199.200M283.480 -200.800L281.880 -199.200"
         id="path50" />
      <circle
         id="what_a_disappointment.2"
         cx="282.680"
         cy="-208.320"
         r="1.131" />
      <path
         d="M281.880 -209.120L283.480 -207.520M283.480 -209.120L281.880 -207.520"
         id="path53" />
      <circle
         id="what_a_disappointment.3"
         cx="282.680"
         cy="-216.960"
         r="1.131" />
      <path
         d="M281.880 -217.760L283.480 -216.160M283.480 -217.760L281.880 -216.160"
         id="path56" />
      <circle
         id="what_a_disappointment.4"
         cx="266.320"
         cy="-230.240"
         r="1.131" />
      <path
         d="M265.520 -231.040L267.120 -229.440M267.120 -231.040L265.520 -229.440"
         id="path59" />
      <circle
         id="what_a_disappointment.5"
         cx="241.840"
         cy="-226.360"
         r="1.131" />
      <path
         d="M241.040 -227.160L242.640 -225.560M242.640 -227.160L241.040 -225.560"
         id="path62" />
      <circle
         id="what_a_disappointment.6"
         cx="226.320"
         cy="-231.360"
         r="1.131" />
      <path
         d="M225.520 -232.160L227.120 -230.560M227.120 -232.160L225.520 -230.560"
         id="path65" />
      <circle
         id="what_a_disappointment.7"
         cx="215.840"
         cy="-254.960"
         r="1.131" />
      <path
         d="M215.040 -255.760L216.640 -254.160M216.640 -255.760L215.040 -254.160"
         id="path68" />
      <circle
         id="what_a_disappointment.8"
         cx="204.400"
         cy="-300.840"
         r="1.131" />
      <path
         d="M203.600 -301.640L205.200 -300.040M205.200 -301.640L203.600 -300.040"
         id="path71" />
    </g>
  </g>
</svg>
