<?xml version="1.0" encoding="utf-8" standalone="no"?>
<!-- Generated by Therion 5.4.1+? (compiled on 2018-06-25) -->
<!DOCTYPE svg PUBLIC "-//W3C//DTD SVG 1.1//EN" "http://www.w3.org/Graphics/SVG/1.1/DTD/svg11.dtd">
<svg width="13.994cm" height="14.735cm" viewBox="-310.506 -333.455 396.693 417.693" xmlns="http://www.w3.org/2000/svg" xmlns:xlink="http://www.w3.org/1999/xlink">
<defs>
<g id="F_aaaaaaa_gold.svg">
</g>
<g id="G_aaaaaaa_gold.svg">
</g>
<g id="B_aaaaaaa_gold.svg">
</g>
<g id="I_aaaaaaa_gold.svg">
</g>
<g id="E_aaaaaaa_gold.svg">
<path fill="none" stroke="#000000" stroke-width="0.500" d="M282.160 55.890L318.610 96.370" />
<path fill="none" stroke="#000000" stroke-width="0.500" d="M282.160 55.890L335.110 2.940" />
<path fill="none" stroke="#000000" stroke-width="0.500" d="M335.110 2.940L282.160 55.890" />
<path fill="none" stroke="#000000" stroke-width="0.500" d="M318.610 96.370L297.580 128.800" />
<path fill="none" stroke="#000000" stroke-width="0.500" d="M318.610 96.370L282.160 55.890" />
<path fill="none" stroke="#000000" stroke-width="0.500" d="M297.580 128.800L300.530 171.320" />
<path fill="none" stroke="#000000" stroke-width="0.500" d="M297.580 128.800L318.610 96.370" />
<path fill="none" stroke="#000000" stroke-width="0.500" d="M300.530 171.320L299.110 187.590" />
<path fill="none" stroke="#000000" stroke-width="0.500" d="M300.530 171.320L297.580 128.800" />
<path fill="none" stroke="#000000" stroke-width="0.500" d="M299.110 187.590L277.060 200.340" />
<path fill="none" stroke="#000000" stroke-width="0.500" d="M299.110 187.590L300.530 171.320" />
<path fill="none" stroke="#000000" stroke-width="0.500" d="M277.060 200.340L320.370 326.200" />
<path fill="none" stroke="#000000" stroke-width="0.500" d="M277.060 200.340L299.110 187.590" />
<path fill="none" stroke="#000000" stroke-width="0.500" d="M320.370 326.200L333.860 355.060" />
<path fill="none" stroke="#000000" stroke-width="0.500" d="M320.370 326.200L277.060 200.340" />
<path fill="none" stroke="#000000" stroke-width="0.500" d="M333.860 355.060L290.610 330.060" />
<path fill="none" stroke="#000000" stroke-width="0.500" d="M333.860 355.060L320.370 326.200" />
<path fill="none" stroke="#000000" stroke-width="0.500" d="M290.610 330.060L280.910 326.710" />
<path fill="none" stroke="#000000" stroke-width="0.500" d="M290.610 330.060L333.860 355.060" />
<path fill="none" stroke="#000000" stroke-width="0.500" d="M280.910 326.710L236.180 309.590" />
<path fill="none" stroke="#000000" stroke-width="0.500" d="M280.910 326.710L290.610 330.060" />
<path fill="none" stroke="#000000" stroke-width="0.500" d="M236.180 309.590L192.640 332.720" />
<path fill="none" stroke="#000000" stroke-width="0.500" d="M236.180 309.590L280.910 326.710" />
<path fill="none" stroke="#000000" stroke-width="0.500" d="M192.640 332.720L156.190 335.270" />
<path fill="none" stroke="#000000" stroke-width="0.500" d="M192.640 332.720L236.180 309.590" />
<path fill="none" stroke="#000000" stroke-width="0.500" d="M156.190 335.270L51.420 253.410" />
<path fill="none" stroke="#000000" stroke-width="0.500" d="M156.190 335.270L192.640 332.720" />
<path fill="none" stroke="#000000" stroke-width="0.500" d="M51.420 253.410L2.890 226.540" />
<path fill="none" stroke="#000000" stroke-width="0.500" d="M51.420 253.410L156.190 335.270" />
<path fill="none" stroke="#000000" stroke-width="0.500" d="M2.890 226.540L51.420 253.410" />
<path fill="none" stroke="#000000" stroke-width="0.350" d="M280.160 55.890L284.160 55.890" />
<path fill="none" stroke="#000000" stroke-width="0.350" d="M282.160 53.890L282.160 57.890" />
<path fill="#ffffff" stroke="none" d="M282.960 55.890C282.960 56.102 282.876 56.306 282.726 56.456C282.576 56.606 282.372 56.690 282.160 56.690C281.948 56.690 281.744 56.606 281.594 56.456C281.444 56.306 281.360 56.102 281.360 55.890C281.360 55.678 281.444 55.474 281.594 55.324C281.744 55.174 281.948 55.090 282.160 55.090C282.372 55.090 282.576 55.174 282.726 55.324C282.876 55.474 282.960 55.678 282.960 55.890Z" />
<path fill="none" stroke="#000000" stroke-width="0.500" d="M282.160 55.890h0.001" />
<path fill="none" stroke="#000000" stroke-width="0.350" d="M333.110 2.940L337.110 2.940" />
<path fill="none" stroke="#000000" stroke-width="0.350" d="M335.110 0.940L335.110 4.940" />
<path fill="#ffffff" stroke="none" d="M335.910 2.940C335.910 3.152 335.826 3.356 335.676 3.506C335.526 3.656 335.322 3.740 335.110 3.740C334.898 3.740 334.694 3.656 334.544 3.506C334.394 3.356 334.310 3.152 334.310 2.940C334.310 2.728 334.394 2.524 334.544 2.374C334.694 2.224 334.898 2.140 335.110 2.140C335.322 2.140 335.526 2.224 335.676 2.374C335.826 2.524 335.910 2.728 335.910 2.940Z" />
<path fill="none" stroke="#000000" stroke-width="0.500" d="M335.110 2.940h0.001" />
<path fill="none" stroke="#000000" stroke-width="0.350" d="M316.610 96.370L320.610 96.370" />
<path fill="none" stroke="#000000" stroke-width="0.350" d="M318.610 94.370L318.610 98.370" />
<path fill="#ffffff" stroke="none" d="M319.410 96.370C319.410 96.582 319.326 96.786 319.176 96.936C319.026 97.086 318.822 97.170 318.610 97.170C318.398 97.170 318.194 97.086 318.044 96.936C317.894 96.786 317.810 96.582 317.810 96.370C317.810 96.158 317.894 95.954 318.044 95.804C318.194 95.654 318.398 95.570 318.610 95.570C318.822 95.570 319.026 95.654 319.176 95.804C319.326 95.954 319.410 96.158 319.410 96.370Z" />
<path fill="none" stroke="#000000" stroke-width="0.500" d="M318.610 96.370h0.001" />
<path fill="none" stroke="#000000" stroke-width="0.350" d="M295.580 128.800L299.580 128.800" />
<path fill="none" stroke="#000000" stroke-width="0.350" d="M297.580 126.800L297.580 130.800" />
<path fill="#ffffff" stroke="none" d="M298.380 128.800C298.380 129.012 298.296 129.216 298.146 129.366C297.996 129.516 297.792 129.600 297.580 129.600C297.368 129.600 297.164 129.516 297.014 129.366C296.864 129.216 296.780 129.012 296.780 128.800C296.780 128.588 296.864 128.384 297.014 128.234C297.164 128.084 297.368 128.000 297.580 128.000C297.792 128.000 297.996 128.084 298.146 128.234C298.296 128.384 298.380 128.588 298.380 128.800Z" />
<path fill="none" stroke="#000000" stroke-width="0.500" d="M297.580 128.800h0.001" />
<path fill="none" stroke="#000000" stroke-width="0.350" d="M298.530 171.320L302.530 171.320" />
<path fill="none" stroke="#000000" stroke-width="0.350" d="M300.530 169.320L300.530 173.320" />
<path fill="#ffffff" stroke="none" d="M301.330 171.320C301.330 171.532 301.246 171.736 301.096 171.886C300.946 172.036 300.742 172.120 300.530 172.120C300.318 172.120 300.114 172.036 299.964 171.886C299.814 171.736 299.730 171.532 299.730 171.320C299.730 171.108 299.814 170.904 299.964 170.754C300.114 170.604 300.318 170.520 300.530 170.520C300.742 170.520 300.946 170.604 301.096 170.754C301.246 170.904 301.330 171.108 301.330 171.320Z" />
<path fill="none" stroke="#000000" stroke-width="0.500" d="M300.530 171.320h0.001" />
<path fill="none" stroke="#000000" stroke-width="0.350" d="M297.110 187.590L301.110 187.590" />
<path fill="none" stroke="#000000" stroke-width="0.350" d="M299.110 185.590L299.110 189.590" />
<path fill="#ffffff" stroke="none" d="M299.910 187.590C299.910 187.802 299.826 188.006 299.676 188.156C299.526 188.306 299.322 188.390 299.110 188.390C298.898 188.390 298.694 188.306 298.544 188.156C298.394 188.006 298.310 187.802 298.310 187.590C298.310 187.378 298.394 187.174 298.544 187.024C298.694 186.874 298.898 186.790 299.110 186.790C299.322 186.790 299.526 186.874 299.676 187.024C299.826 187.174 299.910 187.378 299.910 187.590Z" />
<path fill="none" stroke="#000000" stroke-width="0.500" d="M299.110 187.590h0.001" />
<path fill="none" stroke="#000000" stroke-width="0.350" d="M275.060 200.340L279.060 200.340" />
<path fill="none" stroke="#000000" stroke-width="0.350" d="M277.060 198.340L277.060 202.340" />
<path fill="#ffffff" stroke="none" d="M277.860 200.340C277.860 200.552 277.776 200.756 277.626 200.906C277.476 201.056 277.272 201.140 277.060 201.140C276.848 201.140 276.644 201.056 276.494 200.906C276.344 200.756 276.260 200.552 276.260 200.340C276.260 200.128 276.344 199.924 276.494 199.774C276.644 199.624 276.848 199.540 277.060 199.540C277.272 199.540 277.476 199.624 277.626 199.774C277.776 199.924 277.860 200.128 277.860 200.340Z" />
<path fill="none" stroke="#000000" stroke-width="0.500" d="M277.060 200.340h0.001" />
<path fill="none" stroke="#000000" stroke-width="0.350" d="M318.370 326.200L322.370 326.200" />
<path fill="none" stroke="#000000" stroke-width="0.350" d="M320.370 324.200L320.370 328.200" />
<path fill="#ffffff" stroke="none" d="M321.170 326.200C321.170 326.412 321.086 326.616 320.936 326.766C320.786 326.916 320.582 327.000 320.370 327.000C320.158 327.000 319.954 326.916 319.804 326.766C319.654 326.616 319.570 326.412 319.570 326.200C319.570 325.988 319.654 325.784 319.804 325.634C319.954 325.484 320.158 325.400 320.370 325.400C320.582 325.400 320.786 325.484 320.936 325.634C321.086 325.784 321.170 325.988 321.170 326.200Z" />
<path fill="none" stroke="#000000" stroke-width="0.500" d="M320.370 326.200h0.001" />
<path fill="none" stroke="#000000" stroke-width="0.350" d="M331.860 355.060L335.860 355.060" />
<path fill="none" stroke="#000000" stroke-width="0.350" d="M333.860 353.060L333.860 357.060" />
<path fill="#ffffff" stroke="none" d="M334.660 355.060C334.660 355.272 334.576 355.476 334.426 355.626C334.276 355.776 334.072 355.860 333.860 355.860C333.648 355.860 333.444 355.776 333.294 355.626C333.144 355.476 333.060 355.272 333.060 355.060C333.060 354.848 333.144 354.644 333.294 354.494C333.444 354.344 333.648 354.260 333.860 354.260C334.072 354.260 334.276 354.344 334.426 354.494C334.576 354.644 334.660 354.848 334.660 355.060Z" />
<path fill="none" stroke="#000000" stroke-width="0.500" d="M333.860 355.060h0.001" />
<path fill="none" stroke="#000000" stroke-width="0.350" d="M288.610 330.060L292.610 330.060" />
<path fill="none" stroke="#000000" stroke-width="0.350" d="M290.610 328.060L290.610 332.060" />
<path fill="#ffffff" stroke="none" d="M291.410 330.060C291.410 330.272 291.326 330.476 291.176 330.626C291.026 330.776 290.822 330.860 290.610 330.860C290.398 330.860 290.194 330.776 290.044 330.626C289.894 330.476 289.810 330.272 289.810 330.060C289.810 329.848 289.894 329.644 290.044 329.494C290.194 329.344 290.398 329.260 290.610 329.260C290.822 329.260 291.026 329.344 291.176 329.494C291.326 329.644 291.410 329.848 291.410 330.060Z" />
<path fill="none" stroke="#000000" stroke-width="0.500" d="M290.610 330.060h0.001" />
<path fill="none" stroke="#000000" stroke-width="0.350" d="M278.910 326.710L282.910 326.710" />
<path fill="none" stroke="#000000" stroke-width="0.350" d="M280.910 324.710L280.910 328.710" />
<path fill="#ffffff" stroke="none" d="M281.710 326.710C281.710 326.922 281.626 327.126 281.476 327.276C281.326 327.426 281.122 327.510 280.910 327.510C280.698 327.510 280.494 327.426 280.344 327.276C280.194 327.126 280.110 326.922 280.110 326.710C280.110 326.498 280.194 326.294 280.344 326.144C280.494 325.994 280.698 325.910 280.910 325.910C281.122 325.910 281.326 325.994 281.476 326.144C281.626 326.294 281.710 326.498 281.710 326.710Z" />
<path fill="none" stroke="#000000" stroke-width="0.500" d="M280.910 326.710h0.001" />
<path fill="none" stroke="#000000" stroke-width="0.350" d="M234.180 309.590L238.180 309.590" />
<path fill="none" stroke="#000000" stroke-width="0.350" d="M236.180 307.590L236.180 311.590" />
<path fill="#ffffff" stroke="none" d="M236.980 309.590C236.980 309.802 236.896 310.006 236.746 310.156C236.596 310.306 236.392 310.390 236.180 310.390C235.968 310.390 235.764 310.306 235.614 310.156C235.464 310.006 235.380 309.802 235.380 309.590C235.380 309.378 235.464 309.174 235.614 309.024C235.764 308.874 235.968 308.790 236.180 308.790C236.392 308.790 236.596 308.874 236.746 309.024C236.896 309.174 236.980 309.378 236.980 309.590Z" />
<path fill="none" stroke="#000000" stroke-width="0.500" d="M236.180 309.590h0.001" />
<path fill="none" stroke="#000000" stroke-width="0.350" d="M190.640 332.720L194.640 332.720" />
<path fill="none" stroke="#000000" stroke-width="0.350" d="M192.640 330.720L192.640 334.720" />
<path fill="#ffffff" stroke="none" d="M193.440 332.720C193.440 332.932 193.356 333.136 193.206 333.286C193.056 333.436 192.852 333.520 192.640 333.520C192.428 333.520 192.224 333.436 192.074 333.286C191.924 333.136 191.840 332.932 191.840 332.720C191.840 332.508 191.924 332.304 192.074 332.154C192.224 332.004 192.428 331.920 192.640 331.920C192.852 331.920 193.056 332.004 193.206 332.154C193.356 332.304 193.440 332.508 193.440 332.720Z" />
<path fill="none" stroke="#000000" stroke-width="0.500" d="M192.640 332.720h0.001" />
<path fill="none" stroke="#000000" stroke-width="0.350" d="M154.190 335.270L158.190 335.270" />
<path fill="none" stroke="#000000" stroke-width="0.350" d="M156.190 333.270L156.190 337.270" />
<path fill="#ffffff" stroke="none" d="M156.990 335.270C156.990 335.482 156.906 335.686 156.756 335.836C156.606 335.986 156.402 336.070 156.190 336.070C155.978 336.070 155.774 335.986 155.624 335.836C155.474 335.686 155.390 335.482 155.390 335.270C155.390 335.058 155.474 334.854 155.624 334.704C155.774 334.554 155.978 334.470 156.190 334.470C156.402 334.470 156.606 334.554 156.756 334.704C156.906 334.854 156.990 335.058 156.990 335.270Z" />
<path fill="none" stroke="#000000" stroke-width="0.500" d="M156.190 335.270h0.001" />
<path fill="none" stroke="#000000" stroke-width="0.350" d="M49.420 253.410L53.420 253.410" />
<path fill="none" stroke="#000000" stroke-width="0.350" d="M51.420 251.410L51.420 255.410" />
<path fill="#ffffff" stroke="none" d="M52.220 253.410C52.220 253.622 52.136 253.826 51.986 253.976C51.836 254.126 51.632 254.210 51.420 254.210C51.208 254.210 51.004 254.126 50.854 253.976C50.704 253.826 50.620 253.622 50.620 253.410C50.620 253.198 50.704 252.994 50.854 252.844C51.004 252.694 51.208 252.610 51.420 252.610C51.632 252.610 51.836 252.694 51.986 252.844C52.136 252.994 52.220 253.198 52.220 253.410Z" />
<path fill="none" stroke="#000000" stroke-width="0.500" d="M51.420 253.410h0.001" />
<path fill="none" stroke="#000000" stroke-width="0.350" d="M0.890 226.540L4.890 226.540" />
<path fill="none" stroke="#000000" stroke-width="0.350" d="M2.890 224.540L2.890 228.540" />
<path fill="#ffffff" stroke="none" d="M3.690 226.540C3.690 226.752 3.606 226.956 3.456 227.106C3.306 227.256 3.102 227.340 2.890 227.340C2.678 227.340 2.474 227.256 2.324 227.106C2.174 226.956 2.090 226.752 2.090 226.540C2.090 226.328 2.174 226.124 2.324 225.974C2.474 225.824 2.678 225.740 2.890 225.740C3.102 225.740 3.306 225.824 3.456 225.974C3.606 226.124 3.690 226.328 3.690 226.540Z" />
<path fill="none" stroke="#000000" stroke-width="0.500" d="M2.890 226.540h0.001" />
</g>
<g id="X_aaaaaaa_gold.svg">
<text font-family="cmss10" font-size="6.974" fill="black" stroke="none" transform="matrix(1.000 0.000 -0.000 -1.000 280.035 53.765)">&#x32;</text>
<text font-family="cmss10" font-size="6.974" fill="black" stroke="none" transform="matrix(1.000 0.000 -0.000 -1.000 332.985 0.815)">&#x31;</text>
<text font-family="cmss10" font-size="6.974" fill="black" stroke="none" transform="matrix(1.000 0.000 -0.000 -1.000 316.485 94.245)">&#x33;</text>
<text font-family="cmss10" font-size="6.974" fill="black" stroke="none" transform="matrix(1.000 0.000 -0.000 -1.000 295.455 126.675)">&#x34;</text>
<text font-family="cmss10" font-size="6.974" fill="black" stroke="none" transform="matrix(1.000 0.000 -0.000 -1.000 298.405 169.195)">&#x35;</text>
<text font-family="cmss10" font-size="6.974" fill="black" stroke="none" transform="matrix(1.000 0.000 -0.000 -1.000 296.985 185.465)">&#x36;</text>
<text font-family="cmss10" font-size="6.974" fill="black" stroke="none" transform="matrix(1.000 0.000 -0.000 -1.000 274.935 198.215)">&#x37;</text>
<text font-family="cmss10" font-size="6.974" fill="black" stroke="none" transform="matrix(1.000 0.000 -0.000 -1.000 318.245 324.075)">&#x38;</text>
<text font-family="cmss10" font-size="6.974" fill="black" stroke="none" transform="matrix(1.000 0.000 -0.000 -1.000 331.735 352.935)">&#x39;</text>
<text font-family="cmss10" font-size="6.974" fill="black" stroke="none" transform="matrix(1.000 0.000 -0.000 -1.000 288.485 327.935)">&#x31;&#x30;</text>
<text font-family="cmss10" font-size="6.974" fill="black" stroke="none" transform="matrix(1.000 0.000 -0.000 -1.000 278.785 324.585)">&#x31;&#x31;</text>
<text font-family="cmss10" font-size="6.974" fill="black" stroke="none" transform="matrix(1.000 0.000 -0.000 -1.000 234.055 307.465)">&#x31;&#x32;</text>
<text font-family="cmss10" font-size="6.974" fill="black" stroke="none" transform="matrix(1.000 0.000 -0.000 -1.000 190.515 330.595)">&#x31;&#x33;</text>
<text font-family="cmss10" font-size="6.974" fill="black" stroke="none" transform="matrix(1.000 0.000 -0.000 -1.000 154.065 333.145)">&#x31;&#x34;</text>
<text font-family="cmss10" font-size="6.974" fill="black" stroke="none" transform="matrix(1.000 0.000 -0.000 -1.000 49.295 251.285)">&#x31;&#x35;</text>
<text font-family="cmss10" font-size="6.974" fill="black" stroke="none" transform="matrix(1.000 0.000 -0.000 -1.000 0.765 224.415)">&#x31;&#x36;</text>
</g>
<clipPath id="clip_viewBox">
<path d="M-310.506 -84.238L86.187 -84.238L86.187 333.455L-310.506 333.455z" />
</clipPath>
</defs>
<g transform="scale(1,-1)" fill="#000000" stroke="#000000" stroke-linecap="round" stroke-linejoin="round" stroke-miterlimit="10" fill-rule="evenodd" clip-rule="evenodd" clip-path="url(#clip_viewBox)">
<use x="-282.159" y="-55.891" xlink:href="#E_aaaaaaa_gold.svg" />
<use x="-279.159" y="-52.891" xlink:href="#X_aaaaaaa_gold.svg" />
</g>
</svg>
