<?xml version="1.0" encoding="ISO-8859-1"?>
<svg version="1.1" baseProfile="full"
xmlns="http://www.w3.org/2000/svg"
xmlns:xlink="http://www.w3.org/1999/xlink"
xmlns:ev="http://www.w3.org/2001/xml-events"
width="977.400mm" height="922.520mm"
viewBox="0 0 977.400 922.520">
<title>below_donji_milanovac</title>
<g transform="translate(5.000 917.520)">
<g id="Legs" stroke="black" fill="none" stroke-width="0.4px">
<path d="M239.160 -543.000L200.000 -712.520"/>
<path d="M287.360 -507.960L239.160 -543.000"/>
<path d="M298.280 -496.240L287.360 -507.960"/>
<path d="M311.200 -489.920L298.280 -496.240"/>
<path d="M336.360 -488.600L311.200 -489.920"/>
<path d="M336.360 -488.600L340.360 -488.600"/>
<path d="M353.320 -461.480L336.360 -488.600"/>
<path d="M362.440 -454.320L353.320 -461.480"/>
<path d="M370.360 -455.440L362.440 -454.320"/>
<path d="M405.920 -453.600L370.360 -455.440"/>
<path d="M429.520 -453.160L405.920 -453.600"/>
<path d="M457.200 -446.800L429.520 -453.160"/>
<path d="M476.520 -443.720L457.200 -446.800"/>
<path d="M491.360 -443.200L476.520 -443.720"/>
<path d="M505.400 -432.600L491.360 -443.200"/>
<path d="M517.800 -432.400L505.400 -432.600"/>
<path d="M517.800 -400.000L517.800 -432.400"/>
<path d="M533.680 -394.520L517.800 -400.000"/>
<path d="M533.680 -374.520L533.680 -394.520"/>
<path d="M564.280 -368.560L533.680 -374.520"/>
<path d="M596.200 -359.440L564.280 -368.560"/>
<path d="M617.680 -356.800L596.200 -359.440"/>
<path d="M628.840 -356.000L617.680 -356.800"/>
<path d="M654.160 -352.440L628.840 -356.000"/>
<path d="M669.800 -307.080L654.160 -352.440"/>
<path d="M683.680 -270.840L669.800 -307.080"/>
<path d="M728.720 -244.840L683.680 -270.840"/>
<path d="M728.720 -244.840L735.120 -234.200"/>
<path d="M735.120 -234.200L735.120 -203.800"/>
<path d="M728.720 -244.840L767.400 -241.440"/>
<path d="M728.720 -210.440L728.720 -244.840"/>
<path d="M740.280 -200.000L728.720 -210.440"/>
</g>
<g id="Labels" font-size="0.600em">
<text transform="translate(740.280 -200.000)">below_donji_milanovac.1</text>
<text transform="translate(728.720 -210.440)">below_donji_milanovac.2</text>
<text transform="translate(728.720 -244.840)">below_donji_milanovac.3</text>
<text transform="translate(767.400 -241.440)">below_donji_milanovac.4</text>
<text transform="translate(735.120 -234.200)">below_donji_milanovac.5</text>
<text transform="translate(735.120 -203.800)">below_donji_milanovac.6</text>
<text transform="translate(683.680 -270.840)">below_donji_milanovac.7</text>
<text transform="translate(669.800 -307.080)">below_donji_milanovac.8</text>
<text transform="translate(654.160 -352.440)">below_donji_milanovac.9</text>
<text transform="translate(628.840 -356.000)">below_donji_milanovac.10</text>
<text transform="translate(617.680 -356.800)">below_donji_milanovac.11</text>
<text transform="translate(596.200 -359.440)">below_donji_milanovac.12</text>
<text transform="translate(564.280 -368.560)">below_donji_milanovac.13</text>
<text transform="translate(533.680 -374.520)">below_donji_milanovac.14</text>
<text transform="translate(533.680 -394.520)">below_donji_milanovac.15</text>
<text transform="translate(517.800 -400.000)">below_donji_milanovac.16</text>
<text transform="translate(517.800 -432.400)">below_donji_milanovac.17</text>
<text transform="translate(505.400 -432.600)">below_donji_milanovac.18</text>
<text transform="translate(491.360 -443.200)">below_donji_milanovac.19</text>
<text transform="translate(476.520 -443.720)">below_donji_milanovac.20</text>
<text transform="translate(457.200 -446.800)">below_donji_milanovac.21</text>
<text transform="translate(429.520 -453.160)">below_donji_milanovac.22</text>
<text transform="translate(405.920 -453.600)">below_donji_milanovac.23</text>
<text transform="translate(370.360 -455.440)">below_donji_milanovac.24</text>
<text transform="translate(362.440 -454.320)">below_donji_milanovac.25</text>
<text transform="translate(353.320 -461.480)">below_donji_milanovac.26</text>
<text transform="translate(336.360 -488.600)">below_donji_milanovac.27</text>
<text transform="translate(340.360 -488.600)">below_donji_milanovac.28</text>
<text transform="translate(311.200 -489.920)">below_donji_milanovac.29</text>
<text transform="translate(298.280 -496.240)">below_donji_milanovac.30</text>
<text transform="translate(287.360 -507.960)">below_donji_milanovac.31</text>
<text transform="translate(239.160 -543.000)">below_donji_milanovac.32</text>
<text transform="translate(200.000 -712.520)">below_donji_milanovac.33</text>
</g>
<g id="Stations" stroke="black" fill="none" stroke-width="0.05px">
<circle id="below_donji_milanovac.1" cx="740.280" cy="-200.000" r="1.131"/>
<path d="M739.480 -200.800L741.080 -199.200M741.080 -200.800L739.480 -199.200"/>
<circle id="below_donji_milanovac.2" cx="728.720" cy="-210.440" r="1.131"/>
<path d="M727.920 -211.240L729.520 -209.640M729.520 -211.240L727.920 -209.640"/>
<circle id="below_donji_milanovac.3" cx="728.720" cy="-244.840" r="1.131"/>
<path d="M727.920 -245.640L729.520 -244.040M729.520 -245.640L727.920 -244.040"/>
<circle id="below_donji_milanovac.4" cx="767.400" cy="-241.440" r="1.131"/>
<path d="M766.600 -242.240L768.200 -240.640M768.200 -242.240L766.600 -240.640"/>
<circle id="below_donji_milanovac.5" cx="735.120" cy="-234.200" r="1.131"/>
<path d="M734.320 -235.000L735.920 -233.400M735.920 -235.000L734.320 -233.400"/>
<circle id="below_donji_milanovac.6" cx="735.120" cy="-203.800" r="1.131"/>
<path d="M734.320 -204.600L735.920 -203.000M735.920 -204.600L734.320 -203.000"/>
<circle id="below_donji_milanovac.7" cx="683.680" cy="-270.840" r="1.131"/>
<path d="M682.880 -271.640L684.480 -270.040M684.480 -271.640L682.880 -270.040"/>
<circle id="below_donji_milanovac.8" cx="669.800" cy="-307.080" r="1.131"/>
<path d="M669.000 -307.880L670.600 -306.280M670.600 -307.880L669.000 -306.280"/>
<circle id="below_donji_milanovac.9" cx="654.160" cy="-352.440" r="1.131"/>
<path d="M653.360 -353.240L654.960 -351.640M654.960 -353.240L653.360 -351.640"/>
<circle id="below_donji_milanovac.10" cx="628.840" cy="-356.000" r="1.131"/>
<path d="M628.040 -356.800L629.640 -355.200M629.640 -356.800L628.040 -355.200"/>
<circle id="below_donji_milanovac.11" cx="617.680" cy="-356.800" r="1.131"/>
<path d="M616.880 -357.600L618.480 -356.000M618.480 -357.600L616.880 -356.000"/>
<circle id="below_donji_milanovac.12" cx="596.200" cy="-359.440" r="1.131"/>
<path d="M595.400 -360.240L597.000 -358.640M597.000 -360.240L595.400 -358.640"/>
<circle id="below_donji_milanovac.13" cx="564.280" cy="-368.560" r="1.131"/>
<path d="M563.480 -369.360L565.080 -367.760M565.080 -369.360L563.480 -367.760"/>
<circle id="below_donji_milanovac.14" cx="533.680" cy="-374.520" r="1.131"/>
<path d="M532.880 -375.320L534.480 -373.720M534.480 -375.320L532.880 -373.720"/>
<circle id="below_donji_milanovac.15" cx="533.680" cy="-394.520" r="1.131"/>
<path d="M532.880 -395.320L534.480 -393.720M534.480 -395.320L532.880 -393.720"/>
<circle id="below_donji_milanovac.16" cx="517.800" cy="-400.000" r="1.131"/>
<path d="M517.000 -400.800L518.600 -399.200M518.600 -400.800L517.000 -399.200"/>
<circle id="below_donji_milanovac.17" cx="517.800" cy="-432.400" r="1.131"/>
<path d="M517.000 -433.200L518.600 -431.600M518.600 -433.200L517.000 -431.600"/>
<circle id="below_donji_milanovac.18" cx="505.400" cy="-432.600" r="1.131"/>
<path d="M504.600 -433.400L506.200 -431.800M506.200 -433.400L504.600 -431.800"/>
<circle id="below_donji_milanovac.19" cx="491.360" cy="-443.200" r="1.131"/>
<path d="M490.560 -444.000L492.160 -442.400M492.160 -444.000L490.560 -442.400"/>
<circle id="below_donji_milanovac.20" cx="476.520" cy="-443.720" r="1.131"/>
<path d="M475.720 -444.520L477.320 -442.920M477.320 -444.520L475.720 -442.920"/>
<circle id="below_donji_milanovac.21" cx="457.200" cy="-446.800" r="1.131"/>
<path d="M456.400 -447.600L458.000 -446.000M458.000 -447.600L456.400 -446.000"/>
<circle id="below_donji_milanovac.22" cx="429.520" cy="-453.160" r="1.131"/>
<path d="M428.720 -453.960L430.320 -452.360M430.320 -453.960L428.720 -452.360"/>
<circle id="below_donji_milanovac.23" cx="405.920" cy="-453.600" r="1.131"/>
<path d="M405.120 -454.400L406.720 -452.800M406.720 -454.400L405.120 -452.800"/>
<circle id="below_donji_milanovac.24" cx="370.360" cy="-455.440" r="1.131"/>
<path d="M369.560 -456.240L371.160 -454.640M371.160 -456.240L369.560 -454.640"/>
<circle id="below_donji_milanovac.25" cx="362.440" cy="-454.320" r="1.131"/>
<path d="M361.640 -455.120L363.240 -453.520M363.240 -455.120L361.640 -453.520"/>
<circle id="below_donji_milanovac.26" cx="353.320" cy="-461.480" r="1.131"/>
<path d="M352.520 -462.280L354.120 -460.680M354.120 -462.280L352.520 -460.680"/>
<circle id="below_donji_milanovac.27" cx="336.360" cy="-488.600" r="1.131"/>
<path d="M335.560 -489.400L337.160 -487.800M337.160 -489.400L335.560 -487.800"/>
<circle id="below_donji_milanovac.28" cx="340.360" cy="-488.600" r="1.131"/>
<path d="M339.560 -489.400L341.160 -487.800M341.160 -489.400L339.560 -487.800"/>
<circle id="below_donji_milanovac.29" cx="311.200" cy="-489.920" r="1.131"/>
<path d="M310.400 -490.720L312.000 -489.120M312.000 -490.720L310.400 -489.120"/>
<circle id="below_donji_milanovac.30" cx="298.280" cy="-496.240" r="1.131"/>
<path d="M297.480 -497.040L299.080 -495.440M299.080 -497.040L297.480 -495.440"/>
<circle id="below_donji_milanovac.31" cx="287.360" cy="-507.960" r="1.131"/>
<path d="M286.560 -508.760L288.160 -507.160M288.160 -508.760L286.560 -507.160"/>
<circle id="below_donji_milanovac.32" cx="239.160" cy="-543.000" r="1.131"/>
<path d="M238.360 -543.800L239.960 -542.200M239.960 -543.800L238.360 -542.200"/>
<circle id="below_donji_milanovac.33" cx="200.000" cy="-712.520" r="1.131"/>
<path d="M199.200 -713.320L200.800 -711.720M200.800 -713.320L199.200 -711.720"/>
</g>
</g>
</svg>
