<?xml version="1.0" encoding="UTF-8" standalone="no"?>
<svg
   xmlns:dc="http://purl.org/dc/elements/1.1/"
   xmlns:cc="http://creativecommons.org/ns#"
   xmlns:rdf="http://www.w3.org/1999/02/22-rdf-syntax-ns#"
   xmlns:svg="http://www.w3.org/2000/svg"
   xmlns="http://www.w3.org/2000/svg"
   xmlns:sodipodi="http://sodipodi.sourceforge.net/DTD/sodipodi-0.dtd"
   xmlns:inkscape="http://www.inkscape.org/namespaces/inkscape"
   version="1.1"
   width="1274.920mm"
   height="656.920mm"
   viewBox="0 0 1274.920 656.920"
   id="svg483"
   sodipodi:docname="testify_extend.svg"
   inkscape:version="0.92.2 5c3e80d, 2017-08-06">
  <metadata
     id="metadata489">
    <rdf:RDF>
      <cc:Work
         rdf:about="">
        <dc:format>image/svg+xml</dc:format>
        <dc:type
           rdf:resource="http://purl.org/dc/dcmitype/StillImage" />
      </cc:Work>
    </rdf:RDF>
  </metadata>
  <defs
     id="defs487" />
  <sodipodi:namedview
     pagecolor="#ffffff"
     bordercolor="#666666"
     borderopacity="1"
     objecttolerance="10"
     gridtolerance="10"
     guidetolerance="10"
     inkscape:pageopacity="0"
     inkscape:pageshadow="2"
     inkscape:window-width="1245"
     inkscape:window-height="692"
     id="namedview485"
     showgrid="false"
     showguides="false"
     inkscape:guide-bbox="true"
     inkscape:zoom="0.19018206"
     inkscape:cx="1844.474"
     inkscape:cy="1302.9355"
     inkscape:window-x="1"
     inkscape:window-y="3"
     inkscape:window-maximized="0"
     inkscape:current-layer="svg483">
    <sodipodi:guide
       position="335.41662,325.4"
       orientation="1,0"
       id="guide3235"
       inkscape:locked="false" />
    <sodipodi:guide
       position="860.43999,273.48"
       orientation="1,0"
       id="guide3237"
       inkscape:locked="false" />
  </sodipodi:namedview>
  <title
     id="title2">testify</title>
  <g
     id="g3509">
    <path
       inkscape:connector-curvature="0"
       id="path4"
       d="m 376.44756,205 -4.76,5.24"
       style="fill:none;stroke:#000000;stroke-width:0.40000001px" />
    <path
       inkscape:connector-curvature="0"
       id="path6"
       d="M 376.44756,320.64 V 205"
       style="fill:none;stroke:#000000;stroke-width:0.40000001px" />
    <path
       inkscape:connector-curvature="0"
       id="path8"
       d="m 393.00756,318 -16.56,2.64"
       style="fill:none;stroke:#000000;stroke-width:0.40000001px" />
    <path
       inkscape:connector-curvature="0"
       id="path10"
       d="m 393.00756,318 29.44,5.52"
       style="fill:none;stroke:#000000;stroke-width:0.40000001px" />
    <path
       inkscape:connector-curvature="0"
       id="path12"
       d="m 422.44756,323.52 9.96,-1.48"
       style="fill:none;stroke:#000000;stroke-width:0.40000001px" />
    <path
       inkscape:connector-curvature="0"
       id="path14"
       d="m 432.40756,322.04 14.92,4.2"
       style="fill:none;stroke:#000000;stroke-width:0.40000001px" />
    <path
       inkscape:connector-curvature="0"
       id="path16"
       d="m 447.32756,326.24 10.96,4.36"
       style="fill:none;stroke:#000000;stroke-width:0.40000001px" />
    <path
       inkscape:connector-curvature="0"
       id="path18"
       d="m 458.28074,330.6 -16.4,3.96"
       style="fill:none;stroke:#000000;stroke-width:0.40000001px" />
    <path
       inkscape:connector-curvature="0"
       id="path20"
       d="m 441.88074,334.56 -7.36,1.12"
       style="fill:none;stroke:#000000;stroke-width:0.40000001px" />
    <path
       inkscape:connector-curvature="0"
       id="path22"
       d="m 434.52074,335.68 -24.48,5.04"
       style="fill:none;stroke:#000000;stroke-width:0.40000001px" />
    <path
       inkscape:connector-curvature="0"
       id="path24"
       d="m 410.04074,340.72 -15.08,3.4"
       style="fill:none;stroke:#000000;stroke-width:0.40000001px" />
    <path
       inkscape:connector-curvature="0"
       id="path26"
       d="m 394.96074,344.12 -9,0.28"
       style="fill:none;stroke:#000000;stroke-width:0.40000001px" />
    <path
       inkscape:connector-curvature="0"
       id="path28"
       d="m 385.96074,344.4 -11.04,1.88"
       style="fill:none;stroke:#000000;stroke-width:0.40000001px" />
    <path
       inkscape:connector-curvature="0"
       id="path30"
       d="m 374.96,346.28 14,3.76"
       style="fill:none;stroke:#000000;stroke-width:0.40000001px" />
    <path
       inkscape:connector-curvature="0"
       id="path32"
       d="m 388.96,350.04 16.08,-1.72"
       style="fill:none;stroke:#000000;stroke-width:0.40000001px" />
    <path
       inkscape:connector-curvature="0"
       id="path34"
       d="m 405.04,348.32 14.28,6.36"
       style="fill:none;stroke:#000000;stroke-width:0.40000001px" />
    <path
       inkscape:connector-curvature="0"
       id="path36"
       d="m 419.32,354.68 13.2,7.92"
       style="fill:none;stroke:#000000;stroke-width:0.40000001px" />
    <path
       inkscape:connector-curvature="0"
       id="path38"
       d="m 432.52,362.6 7.56,5.28"
       style="fill:none;stroke:#000000;stroke-width:0.40000001px" />
    <path
       inkscape:connector-curvature="0"
       id="path40"
       d="m 440.11493,367.88 -17,-3.6"
       style="fill:none;stroke:#000000;stroke-width:0.40000001px" />
    <path
       inkscape:connector-curvature="0"
       id="path42"
       d="m 423.11493,364.28 -9.68,-1.04"
       style="fill:none;stroke:#000000;stroke-width:0.40000001px" />
    <path
       inkscape:connector-curvature="0"
       id="path44"
       d="m 413.43493,363.24 -10.44,-0.52"
       style="fill:none;stroke:#000000;stroke-width:0.40000001px" />
    <path
       inkscape:connector-curvature="0"
       id="path46"
       d="m 402.99493,362.72 -13.76,-2.96"
       style="fill:none;stroke:#000000;stroke-width:0.40000001px" />
    <path
       inkscape:connector-curvature="0"
       id="path48"
       d="m 389.23493,359.76 -12.52,-1.08"
       style="fill:none;stroke:#000000;stroke-width:0.40000001px" />
    <path
       inkscape:connector-curvature="0"
       id="path50"
       d="m 440.08,367.88 28.2,4.48"
       style="fill:none;stroke:#000000;stroke-width:0.40000001px" />
    <path
       inkscape:connector-curvature="0"
       id="path52"
       d="M 468.28,372.36 495,371.88"
       style="fill:none;stroke:#000000;stroke-width:0.40000001px" />
    <path
       inkscape:connector-curvature="0"
       id="path54"
       d="m 495,371.88 16.48,6.68"
       style="fill:none;stroke:#000000;stroke-width:0.40000001px" />
    <path
       inkscape:connector-curvature="0"
       id="path56"
       d="m 511.48,378.56 16.64,0.84"
       style="fill:none;stroke:#000000;stroke-width:0.40000001px" />
    <path
       inkscape:connector-curvature="0"
       id="path58"
       d="m 528.12,379.4 15.04,-1.04"
       style="fill:none;stroke:#000000;stroke-width:0.40000001px" />
    <path
       inkscape:connector-curvature="0"
       id="path60"
       d="m 543.16,378.36 18.44,-0.32"
       style="fill:none;stroke:#000000;stroke-width:0.40000001px" />
    <path
       inkscape:connector-curvature="0"
       id="path62"
       d="m 561.6,378.04 12.28,2.4"
       style="fill:none;stroke:#000000;stroke-width:0.40000001px" />
    <path
       inkscape:connector-curvature="0"
       id="path64"
       d="M 573.88,380.44 602,378.96"
       style="fill:none;stroke:#000000;stroke-width:0.40000001px" />
    <path
       inkscape:connector-curvature="0"
       id="path66"
       d="m 602,378.96 21.08,7.68"
       style="fill:none;stroke:#000000;stroke-width:0.40000001px" />
    <path
       inkscape:connector-curvature="0"
       id="path68"
       d="m 623.08,386.64 14.76,0.52"
       style="fill:none;stroke:#000000;stroke-width:0.40000001px" />
    <path
       inkscape:connector-curvature="0"
       id="path70"
       d="m 637.84,387.16 20.72,-5.56"
       style="fill:none;stroke:#000000;stroke-width:0.40000001px" />
    <path
       inkscape:connector-curvature="0"
       id="path72"
       d="m 658.56,381.6 17.2,3.64"
       style="fill:none;stroke:#000000;stroke-width:0.40000001px" />
    <path
       inkscape:connector-curvature="0"
       id="path74"
       d="M 675.76,385.24 690.4,386"
       style="fill:none;stroke:#000000;stroke-width:0.40000001px" />
    <path
       inkscape:connector-curvature="0"
       id="path76"
       d="m 690.4,386 24,1.28"
       style="fill:none;stroke:#000000;stroke-width:0.40000001px" />
    <path
       inkscape:connector-curvature="0"
       id="path78"
       d="m 714.4,387.28 21.8,-1.92"
       style="fill:none;stroke:#000000;stroke-width:0.40000001px" />
    <path
       inkscape:connector-curvature="0"
       id="path80"
       d="m 736.2,385.36 15.72,0.28"
       style="fill:none;stroke:#000000;stroke-width:0.40000001px" />
    <path
       inkscape:connector-curvature="0"
       id="path82"
       d="m 751.92,385.64 14.76,-2.6"
       style="fill:none;stroke:#000000;stroke-width:0.40000001px" />
    <path
       inkscape:connector-curvature="0"
       id="path84"
       d="m 766.68,383.04 20.4,-0.36"
       style="fill:none;stroke:#000000;stroke-width:0.40000001px" />
    <path
       inkscape:connector-curvature="0"
       id="path86"
       d="m 787.08,382.68 16.76,-1.16"
       style="fill:none;stroke:#000000;stroke-width:0.40000001px" />
    <path
       inkscape:connector-curvature="0"
       id="path88"
       d="m 803.84,381.52 20.08,1.4"
       style="fill:none;stroke:#000000;stroke-width:0.40000001px" />
    <path
       inkscape:connector-curvature="0"
       id="path90"
       d="m 823.92,382.92 23.56,-0.4"
       style="fill:none;stroke:#000000;stroke-width:0.40000001px" />
    <path
       inkscape:connector-curvature="0"
       id="path92"
       d="m 847.48,382.52 12.96,0.92"
       style="fill:none;stroke:#000000;stroke-width:0.40000001px" />
    <path
       sodipodi:nodetypes="cc"
       inkscape:connector-curvature="0"
       id="path94"
       d="m 860.44,383.44 -1e-5,6.28"
       style="fill:none;stroke:#000000;stroke-width:0.40000001px" />
    <path
       inkscape:connector-curvature="0"
       id="path96"
       d="m 860.74915,389.72 -27.03994,6.24"
       style="fill:none;stroke:#000000;stroke-width:0.40000001px" />
    <path
       inkscape:connector-curvature="0"
       id="path98"
       d="m 833.70921,395.96 -16.44,3.48"
       style="fill:none;stroke:#000000;stroke-width:0.40000001px" />
    <path
       inkscape:connector-curvature="0"
       id="path100"
       d="m 817.26921,399.44 -33.12006,2.32"
       style="fill:none;stroke:#000000;stroke-width:0.40000001px" />
    <path
       inkscape:connector-curvature="0"
       id="path102"
       d="m 784.14915,401.76 -22.6,7.8"
       style="fill:none;stroke:#000000;stroke-width:0.40000001px" />
    <path
       inkscape:connector-curvature="0"
       id="path104"
       d="m 761.54915,409.56 -22,6.28"
       style="fill:none;stroke:#000000;stroke-width:0.40000001px" />
    <path
       inkscape:connector-curvature="0"
       id="path106"
       d="m 739.54915,415.84 -27.12,7.8"
       style="fill:none;stroke:#000000;stroke-width:0.40000001px" />
    <path
       inkscape:connector-curvature="0"
       id="path108"
       d="m 712.42915,423.64 -17.96,8.76"
       style="fill:none;stroke:#000000;stroke-width:0.40000001px" />
    <path
       inkscape:connector-curvature="0"
       id="path110"
       d="m 694.46915,432.4 -7.72,3.76"
       style="fill:none;stroke:#000000;stroke-width:0.40000001px" />
    <path
       inkscape:connector-curvature="0"
       id="path112"
       d="m 686.74915,436.16 -10.48,8.44"
       style="fill:none;stroke:#000000;stroke-width:0.40000001px" />
    <path
       inkscape:connector-curvature="0"
       id="path114"
       d="m 676.26915,444.6 -17.2,7.32"
       style="fill:none;stroke:#000000;stroke-width:0.40000001px" />
    <path
       inkscape:connector-curvature="0"
       id="path116"
       d="m 374.86355,346.28 -19.72,0.24"
       style="fill:none;stroke:#000000;stroke-width:0.40000001px" />
    <path
       inkscape:connector-curvature="0"
       id="path118"
       d="m 355.14355,346.52 -11.48,-1.48"
       style="fill:none;stroke:#000000;stroke-width:0.40000001px" />
    <path
       inkscape:connector-curvature="0"
       id="path120"
       d="m 343.66355,345.04 -19.08,-0.08"
       style="fill:none;stroke:#000000;stroke-width:0.40000001px" />
    <path
       inkscape:connector-curvature="0"
       id="path122"
       d="m 324.58355,344.96 -17.6,-10.32"
       style="fill:none;stroke:#000000;stroke-width:0.40000001px" />
    <path
       inkscape:connector-curvature="0"
       id="path124"
       d="m 305.25662,334.64 11.76,-1.72"
       style="fill:none;stroke:#000000;stroke-width:0.40000001px" />
    <path
       inkscape:connector-curvature="0"
       id="path126"
       d="m 317.01662,332.92 18.4,-1.4"
       style="fill:none;stroke:#000000;stroke-width:0.40000001px" />
    <path
       sodipodi:nodetypes="cc"
       inkscape:connector-curvature="0"
       id="path128"
       d="m 335.41662,331.52 0,-2.76"
       style="fill:none;stroke:#000000;stroke-width:0.40000001px" />
    <path
       inkscape:connector-curvature="0"
       id="path130"
       d="m 335.33159,328.76 17.4,-2.88"
       style="fill:none;stroke:#000000;stroke-width:0.40000001px" />
    <path
       inkscape:connector-curvature="0"
       id="path132"
       d="m 352.73159,325.88 23.88,-5.68"
       style="fill:none;stroke:#000000;stroke-width:0.40000001px" />
    <path
       inkscape:connector-curvature="0"
       id="path134"
       d="m 376.61159,320.2 15.24,-2.2"
       style="fill:none;stroke:#000000;stroke-width:0.40000001px" />
    <text
       y="210.24001"
       x="371.68729"
       id="text137"
       style="font-size:2.82222223px">67</text>
    <text
       y="210.24001"
       x="371.68729"
       id="text139"
       style="font-size:2.82222223px">canticle_for_migovec.1</text>
    <text
       transform="scale(-1,1)"
       y="451.92001"
       x="-659.06897"
       id="text141"
       style="font-size:2.82222223px">1</text>
    <text
       transform="scale(-1,1)"
       y="444.60001"
       x="-676.26904"
       id="text143"
       style="font-size:2.82222223px">2</text>
    <text
       transform="scale(-1,1)"
       y="436.16"
       x="-686.74902"
       id="text145"
       style="font-size:2.82222223px">3</text>
    <text
       transform="scale(-1,1)"
       y="432.39999"
       x="-694.46899"
       id="text147"
       style="font-size:2.82222223px">4</text>
    <text
       transform="scale(-1,1)"
       y="423.64001"
       x="-712.42902"
       id="text149"
       style="font-size:2.82222223px">5</text>
    <text
       transform="scale(-1,1)"
       y="415.84"
       x="-739.54901"
       id="text151"
       style="font-size:2.82222223px">6</text>
    <text
       transform="scale(-1,1)"
       y="409.56"
       x="-761.54901"
       id="text153"
       style="font-size:2.82222223px">7</text>
    <text
       transform="scale(-1,1)"
       y="401.76001"
       x="-784.14899"
       id="text155"
       style="font-size:2.82222223px">8</text>
    <text
       transform="scale(-1,1)"
       y="399.44"
       x="-817.26904"
       id="text157"
       style="font-size:2.82222223px">9</text>
    <text
       transform="scale(-1,1)"
       y="395.95999"
       x="-833.70892"
       id="text159"
       style="font-size:2.82222223px">10</text>
    <text
       transform="scale(-1,1)"
       y="389.72"
       x="-860.7489"
       id="text161"
       style="font-size:2.82222223px">11</text>
    <text
       y="383.44"
       x="860.44"
       id="text163"
       style="font-size:2.82222228px;">12</text>
    <text
       y="382.51999"
       x="847.47998"
       id="text165"
       style="font-size:2.82222228px;">13</text>
    <text
       y="382.92001"
       x="823.91998"
       id="text167"
       style="font-size:2.82222228px;">14</text>
    <text
       y="381.51999"
       x="803.84003"
       id="text169"
       style="font-size:2.82222228px;">15</text>
    <text
       y="382.67999"
       x="787.08002"
       id="text171"
       style="font-size:2.82222228px;">16</text>
    <text
       y="383.04001"
       x="766.67999"
       id="text173"
       style="font-size:2.82222228px;">17</text>
    <text
       y="385.64001"
       x="751.91998"
       id="text175"
       style="font-size:2.82222228px;">18</text>
    <text
       y="385.35999"
       x="736.20001"
       id="text177"
       style="font-size:2.82222228px;">19</text>
    <text
       y="387.28"
       x="714.40002"
       id="text179"
       style="font-size:2.82222228px;">20</text>
    <text
       y="386"
       x="690.40002"
       id="text181"
       style="font-size:2.82222228px;">21</text>
    <text
       y="385.23999"
       x="675.76001"
       id="text183"
       style="font-size:2.82222228px;">22</text>
    <text
       y="381.60001"
       x="658.56"
       id="text185"
       style="font-size:2.82222228px;">23</text>
    <text
       y="387.16"
       x="637.84003"
       id="text187"
       style="font-size:2.82222228px;">24</text>
    <text
       y="386.64001"
       x="623.08002"
       id="text189"
       style="font-size:2.82222228px;">25</text>
    <text
       y="378.95999"
       x="602"
       id="text191"
       style="font-size:2.82222228px;">26</text>
    <text
       y="380.44"
       x="573.88"
       id="text193"
       style="font-size:2.82222228px;">28</text>
    <text
       y="378.04001"
       x="561.59998"
       id="text195"
       style="font-size:2.82222228px;">29</text>
    <text
       y="378.35999"
       x="543.15997"
       id="text197"
       style="font-size:2.82222228px;">30</text>
    <text
       y="379.39999"
       x="528.12"
       id="text199"
       style="font-size:2.82222228px;">31</text>
    <text
       y="378.56"
       x="511.48001"
       id="text201"
       style="font-size:2.82222228px;">32</text>
    <text
       y="371.88"
       x="495"
       id="text203"
       style="font-size:2.82222228px;">33</text>
    <text
       y="372.35999"
       x="468.28"
       id="text205"
       style="font-size:2.82222228px;">34</text>
    <text
       y="367.88"
       x="440.07999"
       id="text207"
       style="font-size:2.82222228px;">35</text>
    <text
       transform="scale(-1,1)"
       y="364.28"
       x="-423.11499"
       id="text209"
       style="font-size:2.82222223px">36</text>
    <text
       transform="scale(-1,1)"
       y="358.67999"
       x="-376.71497"
       id="text211"
       style="font-size:2.82222223px">37</text>
    <text
       transform="scale(-1,1)"
       y="359.76001"
       x="-389.23499"
       id="text213"
       style="font-size:2.82222223px">38</text>
    <text
       transform="scale(-1,1)"
       y="362.72"
       x="-402.99496"
       id="text215"
       style="font-size:2.82222223px">39</text>
    <text
       transform="scale(-1,1)"
       y="363.23999"
       x="-413.43497"
       id="text217"
       style="font-size:2.82222223px">40</text>
    <text
       y="362.60001"
       x="432.51999"
       id="text219"
       style="font-size:2.82222228px;">41</text>
    <text
       y="354.67999"
       x="419.32001"
       id="text221"
       style="font-size:2.82222228px;">42</text>
    <text
       y="348.32001"
       x="405.04001"
       id="text223"
       style="font-size:2.82222228px;">43</text>
    <text
       y="350.04001"
       x="388.95999"
       id="text225"
       style="font-size:2.82222228px;">44</text>
    <text
       y="346.28"
       x="374.95999"
       id="text227"
       style="font-size:2.82222228px;">45</text>
    <text
       transform="scale(-1,1)"
       y="346.51999"
       x="-355.14398"
       id="text229"
       style="font-size:2.82222223px">46</text>
    <text
       transform="scale(-1,1)"
       y="345.04001"
       x="-343.664"
       id="text231"
       style="font-size:2.82222223px">47</text>
    <text
       transform="scale(-1,1)"
       y="344.95999"
       x="-324.58395"
       id="text233"
       style="font-size:2.82222223px">48</text>
    <text
       y="334.64001"
       x="305.25681"
       id="text235"
       style="font-size:2.82222223px">49</text>
    <text
       y="332.92001"
       x="317.01682"
       id="text237"
       style="font-size:2.82222223px">50</text>
    <text
       y="331.51999"
       x="335.41693"
       id="text239"
       style="font-size:2.82222223px">51</text>
    <text
       y="328.76001"
       x="335.33197"
       id="text241"
       style="font-size:2.82222223px">52</text>
    <text
       y="325.88"
       x="352.73181"
       id="text243"
       style="font-size:2.82222223px">53</text>
    <text
       y="320.20001"
       x="376.61169"
       id="text245"
       style="font-size:2.82222223px">54</text>
    <text
       y="318"
       x="393.00723"
       id="text247"
       style="font-size:2.82222223px">55</text>
    <text
       y="318"
       x="391.85181"
       id="text249"
       style="font-size:2.82222223px">55</text>
    <text
       y="323.51999"
       x="422.44717"
       id="text251"
       style="font-size:2.82222223px">56</text>
    <text
       y="322.04001"
       x="432.4072"
       id="text253"
       style="font-size:2.82222223px">57</text>
    <text
       y="326.23999"
       x="447.32727"
       id="text255"
       style="font-size:2.82222223px">58</text>
    <text
       y="330.60001"
       x="458.28729"
       id="text257"
       style="font-size:2.82222223px">59</text>
    <text
       transform="scale(-1,1)"
       y="334.56"
       x="-441.88062"
       id="text259"
       style="font-size:2.82222223px">60</text>
    <text
       transform="scale(-1,1)"
       y="335.67999"
       x="-434.52063"
       id="text261"
       style="font-size:2.82222223px">61</text>
    <text
       transform="scale(-1,1)"
       y="340.72"
       x="-410.04062"
       id="text263"
       style="font-size:2.82222223px">62</text>
    <text
       transform="scale(-1,1)"
       y="344.12"
       x="-394.9606"
       id="text265"
       style="font-size:2.82222223px">63</text>
    <text
       transform="scale(-1,1)"
       y="344.39999"
       x="-385.9606"
       id="text267"
       style="font-size:2.82222223px">64</text>
    <text
       y="320.64001"
       x="376.44727"
       id="text269"
       style="font-size:2.82222223px">65</text>
    <text
       y="205"
       x="376.44727"
       id="text271"
       style="font-size:2.82222223px">66</text>
    <circle
       r="1.131"
       cy="210.24001"
       cx="371.68729"
       id="testify.67"
       style="fill:none;stroke:#000000;stroke-width:0.05px" />
    <path
       inkscape:connector-curvature="0"
       id="path275"
       d="m 370.88756,209.44 1.6,1.6 m 0,-1.6 -1.6,1.6"
       style="fill:none;stroke:#000000;stroke-width:0.05px" />
    <circle
       r="1.131"
       cy="210.24001"
       cx="371.68729"
       id="circle277"
       style="fill:none;stroke:#000000;stroke-width:0.05px" />
    <path
       inkscape:connector-curvature="0"
       id="path279"
       d="m 370.88756,209.44 1.6,1.6 m 0,-1.6 -1.6,1.6"
       style="fill:none;stroke:#000000;stroke-width:0.05px" />
    <circle
       transform="scale(-1,1)"
       r="1.131"
       cy="451.92001"
       cx="-659.06897"
       id="testify.1"
       style="fill:none;stroke:#000000;stroke-width:0.05px" />
    <path
       inkscape:connector-curvature="0"
       id="path282"
       d="m 659.86915,451.12 -1.6,1.6 m 0,-1.6 1.6,1.6"
       style="fill:none;stroke:#000000;stroke-width:0.05px" />
    <circle
       transform="scale(-1,1)"
       r="1.131"
       cy="444.60001"
       cx="-676.26904"
       id="testify.2"
       style="fill:none;stroke:#000000;stroke-width:0.05px" />
    <path
       inkscape:connector-curvature="0"
       id="path285"
       d="m 677.06915,443.8 -1.6,1.6 m 0,-1.6 1.6,1.6"
       style="fill:none;stroke:#000000;stroke-width:0.05px" />
    <circle
       transform="scale(-1,1)"
       r="1.131"
       cy="436.16"
       cx="-686.74902"
       id="testify.3"
       style="fill:none;stroke:#000000;stroke-width:0.05px" />
    <path
       inkscape:connector-curvature="0"
       id="path288"
       d="m 687.54915,435.36 -1.6,1.6 m 0,-1.6 1.6,1.6"
       style="fill:none;stroke:#000000;stroke-width:0.05px" />
    <circle
       transform="scale(-1,1)"
       r="1.131"
       cy="432.39999"
       cx="-694.46899"
       id="testify.4"
       style="fill:none;stroke:#000000;stroke-width:0.05px" />
    <path
       inkscape:connector-curvature="0"
       id="path291"
       d="m 695.26915,431.6 -1.6,1.6 m 0,-1.6 1.6,1.6"
       style="fill:none;stroke:#000000;stroke-width:0.05px" />
    <circle
       transform="scale(-1,1)"
       r="1.131"
       cy="423.64001"
       cx="-712.42902"
       id="testify.5"
       style="fill:none;stroke:#000000;stroke-width:0.05px" />
    <path
       inkscape:connector-curvature="0"
       id="path294"
       d="m 713.22915,422.84 -1.6,1.6 m 0,-1.6 1.6,1.6"
       style="fill:none;stroke:#000000;stroke-width:0.05px" />
    <circle
       transform="scale(-1,1)"
       r="1.131"
       cy="415.84"
       cx="-739.54901"
       id="testify.6"
       style="fill:none;stroke:#000000;stroke-width:0.05px" />
    <path
       inkscape:connector-curvature="0"
       id="path297"
       d="m 740.34915,415.04 -1.6,1.6 m 0,-1.6 1.6,1.6"
       style="fill:none;stroke:#000000;stroke-width:0.05px" />
    <circle
       transform="scale(-1,1)"
       r="1.131"
       cy="409.56"
       cx="-761.54901"
       id="testify.7"
       style="fill:none;stroke:#000000;stroke-width:0.05px" />
    <path
       inkscape:connector-curvature="0"
       id="path300"
       d="m 762.34915,408.76 -1.6,1.6 m 0,-1.6 1.6,1.6"
       style="fill:none;stroke:#000000;stroke-width:0.05px" />
    <circle
       transform="scale(-1,1)"
       r="1.131"
       cy="401.76001"
       cx="-784.14899"
       id="testify.8"
       style="fill:none;stroke:#000000;stroke-width:0.05px" />
    <path
       inkscape:connector-curvature="0"
       id="path303"
       d="m 784.94915,400.96 -1.6,1.6 m 0,-1.6 1.6,1.6"
       style="fill:none;stroke:#000000;stroke-width:0.05px" />
    <circle
       transform="scale(-1,1)"
       r="1.131"
       cy="399.44"
       cx="-817.26904"
       id="testify.9"
       style="fill:none;stroke:#000000;stroke-width:0.05px" />
    <path
       inkscape:connector-curvature="0"
       id="path306"
       d="m 818.06921,398.64 -1.60003,1.6 m 0,-1.6 1.60003,1.6"
       style="fill:none;stroke:#000000;stroke-width:0.05px" />
    <circle
       transform="scale(-1,1)"
       r="1.131"
       cy="395.95999"
       cx="-833.70892"
       id="testify.10"
       style="fill:none;stroke:#000000;stroke-width:0.05px" />
    <path
       inkscape:connector-curvature="0"
       id="path309"
       d="m 834.50921,395.16 -1.6,1.6 m 0,-1.6 1.6,1.6"
       style="fill:none;stroke:#000000;stroke-width:0.05px" />
    <circle
       transform="scale(-1,1)"
       r="1.131"
       cy="389.72"
       cx="-860.7489"
       id="testify.11"
       style="fill:none;stroke:#000000;stroke-width:0.05px" />
    <path
       inkscape:connector-curvature="0"
       id="path312"
       d="m 861.54915,388.92 -1.6,1.6 m 0,-1.6 1.6,1.6"
       style="fill:none;stroke:#000000;stroke-width:0.05px" />
    <circle
       r="1.131"
       cy="383.44"
       cx="860.44"
       id="testify.12"
       style="fill:none;stroke:#000000;stroke-width:0.05px" />
    <path
       inkscape:connector-curvature="0"
       id="path315"
       d="m 859.64,382.64 1.6,1.6 m 0,-1.6 -1.6,1.6"
       style="fill:none;stroke:#000000;stroke-width:0.05px" />
    <circle
       r="1.131"
       cy="382.52002"
       cx="847.47998"
       id="testify.13"
       style="fill:none;stroke:#000000;stroke-width:0.05px" />
    <path
       inkscape:connector-curvature="0"
       id="path318"
       d="m 846.68,381.72 1.6,1.6 m 0,-1.6 -1.6,1.6"
       style="fill:none;stroke:#000000;stroke-width:0.05px" />
    <circle
       r="1.131"
       cy="382.92001"
       cx="823.91998"
       id="testify.14"
       style="fill:none;stroke:#000000;stroke-width:0.05px" />
    <path
       inkscape:connector-curvature="0"
       id="path321"
       d="m 823.12,382.12 1.6,1.6 m 0,-1.6 -1.6,1.6"
       style="fill:none;stroke:#000000;stroke-width:0.05px" />
    <circle
       r="1.131"
       cy="381.52002"
       cx="803.84003"
       id="testify.15"
       style="fill:none;stroke:#000000;stroke-width:0.05px" />
    <path
       inkscape:connector-curvature="0"
       id="path324"
       d="m 803.04,380.72 1.6,1.6 m 0,-1.6 -1.6,1.6"
       style="fill:none;stroke:#000000;stroke-width:0.05px" />
    <circle
       r="1.131"
       cy="382.68002"
       cx="787.08002"
       id="testify.16"
       style="fill:none;stroke:#000000;stroke-width:0.05px" />
    <path
       inkscape:connector-curvature="0"
       id="path327"
       d="m 786.28,381.88 1.6,1.6 m 0,-1.6 -1.6,1.6"
       style="fill:none;stroke:#000000;stroke-width:0.05px" />
    <circle
       r="1.131"
       cy="383.04001"
       cx="766.67999"
       id="testify.17"
       style="fill:none;stroke:#000000;stroke-width:0.05px" />
    <path
       inkscape:connector-curvature="0"
       id="path330"
       d="m 765.88,382.24 1.6,1.6 m 0,-1.6 -1.6,1.6"
       style="fill:none;stroke:#000000;stroke-width:0.05px" />
    <circle
       r="1.131"
       cy="385.64001"
       cx="751.91998"
       id="testify.18"
       style="fill:none;stroke:#000000;stroke-width:0.05px" />
    <path
       inkscape:connector-curvature="0"
       id="path333"
       d="m 751.12,384.84 1.6,1.6 m 0,-1.6 -1.6,1.6"
       style="fill:none;stroke:#000000;stroke-width:0.05px" />
    <circle
       r="1.131"
       cy="385.36002"
       cx="736.20001"
       id="testify.19"
       style="fill:none;stroke:#000000;stroke-width:0.05px" />
    <path
       inkscape:connector-curvature="0"
       id="path336"
       d="m 735.4,384.56 1.6,1.6 m 0,-1.6 -1.6,1.6"
       style="fill:none;stroke:#000000;stroke-width:0.05px" />
    <circle
       r="1.131"
       cy="387.28"
       cx="714.40002"
       id="testify.20"
       style="fill:none;stroke:#000000;stroke-width:0.05px" />
    <path
       inkscape:connector-curvature="0"
       id="path339"
       d="m 713.6,386.48 1.6,1.6 m 0,-1.6 -1.6,1.6"
       style="fill:none;stroke:#000000;stroke-width:0.05px" />
    <circle
       r="1.131"
       cy="386"
       cx="690.40002"
       id="testify.21"
       style="fill:none;stroke:#000000;stroke-width:0.05px" />
    <path
       inkscape:connector-curvature="0"
       id="path342"
       d="m 689.6,385.2 1.6,1.6 m 0,-1.6 -1.6,1.6"
       style="fill:none;stroke:#000000;stroke-width:0.05px" />
    <circle
       r="1.131"
       cy="385.24002"
       cx="675.76001"
       id="testify.22"
       style="fill:none;stroke:#000000;stroke-width:0.05px" />
    <path
       inkscape:connector-curvature="0"
       id="path345"
       d="m 674.96,384.44 1.6,1.6 m 0,-1.6 -1.6,1.6"
       style="fill:none;stroke:#000000;stroke-width:0.05px" />
    <circle
       r="1.131"
       cy="381.60001"
       cx="658.56"
       id="testify.23"
       style="fill:none;stroke:#000000;stroke-width:0.05px" />
    <path
       inkscape:connector-curvature="0"
       id="path348"
       d="m 657.76,380.8 1.6,1.6 m 0,-1.6 -1.6,1.6"
       style="fill:none;stroke:#000000;stroke-width:0.05px" />
    <circle
       r="1.131"
       cy="387.16"
       cx="637.84003"
       id="testify.24"
       style="fill:none;stroke:#000000;stroke-width:0.05px" />
    <path
       inkscape:connector-curvature="0"
       id="path351"
       d="m 637.04,386.36 1.6,1.6 m 0,-1.6 -1.6,1.6"
       style="fill:none;stroke:#000000;stroke-width:0.05px" />
    <circle
       r="1.131"
       cy="386.64001"
       cx="623.08002"
       id="testify.25"
       style="fill:none;stroke:#000000;stroke-width:0.05px" />
    <path
       inkscape:connector-curvature="0"
       id="path354"
       d="m 622.28,385.84 1.6,1.6 m 0,-1.6 -1.6,1.6"
       style="fill:none;stroke:#000000;stroke-width:0.05px" />
    <circle
       r="1.131"
       cy="378.96002"
       cx="602"
       id="testify.26"
       style="fill:none;stroke:#000000;stroke-width:0.05px" />
    <path
       inkscape:connector-curvature="0"
       id="path357"
       d="m 601.2,378.16 1.6,1.6 m 0,-1.6 -1.6,1.6"
       style="fill:none;stroke:#000000;stroke-width:0.05px" />
    <circle
       r="1.131"
       cy="380.44"
       cx="573.88"
       id="testify.28"
       style="fill:none;stroke:#000000;stroke-width:0.05px" />
    <path
       inkscape:connector-curvature="0"
       id="path360"
       d="m 573.08,379.64 1.6,1.6 m 0,-1.6 -1.6,1.6"
       style="fill:none;stroke:#000000;stroke-width:0.05px" />
    <circle
       r="1.131"
       cy="378.04001"
       cx="561.59998"
       id="testify.29"
       style="fill:none;stroke:#000000;stroke-width:0.05px" />
    <path
       inkscape:connector-curvature="0"
       id="path363"
       d="m 560.8,377.24 1.6,1.6 m 0,-1.6 -1.6,1.6"
       style="fill:none;stroke:#000000;stroke-width:0.05px" />
    <circle
       r="1.131"
       cy="378.36002"
       cx="543.15997"
       id="testify.30"
       style="fill:none;stroke:#000000;stroke-width:0.05px" />
    <path
       inkscape:connector-curvature="0"
       id="path366"
       d="m 542.36,377.56 1.6,1.6 m 0,-1.6 -1.6,1.6"
       style="fill:none;stroke:#000000;stroke-width:0.05px" />
    <circle
       r="1.131"
       cy="379.40002"
       cx="528.12"
       id="testify.31"
       style="fill:none;stroke:#000000;stroke-width:0.05px" />
    <path
       inkscape:connector-curvature="0"
       id="path369"
       d="m 527.32,378.6 1.6,1.6 m 0,-1.6 -1.6,1.6"
       style="fill:none;stroke:#000000;stroke-width:0.05px" />
    <circle
       r="1.131"
       cy="378.56003"
       cx="511.48001"
       id="testify.32"
       style="fill:none;stroke:#000000;stroke-width:0.05px" />
    <path
       inkscape:connector-curvature="0"
       id="path372"
       d="m 510.68,377.76 1.6,1.6 m 0,-1.6 -1.6,1.6"
       style="fill:none;stroke:#000000;stroke-width:0.05px" />
    <circle
       r="1.131"
       cy="371.88"
       cx="495"
       id="testify.33"
       style="fill:none;stroke:#000000;stroke-width:0.05px" />
    <path
       inkscape:connector-curvature="0"
       id="path375"
       d="m 494.2,371.08 1.6,1.6 m 0,-1.6 -1.6,1.6"
       style="fill:none;stroke:#000000;stroke-width:0.05px" />
    <circle
       r="1.131"
       cy="372.36002"
       cx="468.28"
       id="testify.34"
       style="fill:none;stroke:#000000;stroke-width:0.05px" />
    <path
       inkscape:connector-curvature="0"
       id="path378"
       d="m 467.48,371.56 1.6,1.6 m 0,-1.6 -1.6,1.6"
       style="fill:none;stroke:#000000;stroke-width:0.05px" />
    <circle
       r="1.131"
       cy="367.88"
       cx="440.07999"
       id="testify.35"
       style="fill:none;stroke:#000000;stroke-width:0.05px" />
    <path
       inkscape:connector-curvature="0"
       id="path381"
       d="m 439.28,367.08 1.6,1.6 m 0,-1.6 -1.6,1.6"
       style="fill:none;stroke:#000000;stroke-width:0.05px" />
    <circle
       transform="scale(-1,1)"
       r="1.131"
       cy="364.28"
       cx="-423.11499"
       id="testify.36"
       style="fill:none;stroke:#000000;stroke-width:0.05px" />
    <path
       inkscape:connector-curvature="0"
       id="path384"
       d="m 423.91493,363.48 -1.6,1.6 m 0,-1.6 1.6,1.6"
       style="fill:none;stroke:#000000;stroke-width:0.05px" />
    <circle
       transform="scale(-1,1)"
       r="1.131"
       cy="358.68002"
       cx="-376.71497"
       id="testify.37"
       style="fill:none;stroke:#000000;stroke-width:0.05px" />
    <path
       inkscape:connector-curvature="0"
       id="path387"
       d="m 377.51493,357.88 -1.6,1.6 m 0,-1.6 1.6,1.6"
       style="fill:none;stroke:#000000;stroke-width:0.05px" />
    <circle
       transform="scale(-1,1)"
       r="1.131"
       cy="359.76001"
       cx="-389.23499"
       id="testify.38"
       style="fill:none;stroke:#000000;stroke-width:0.05px" />
    <path
       inkscape:connector-curvature="0"
       id="path390"
       d="m 390.03493,358.96 -1.6,1.6 m 0,-1.6 1.6,1.6"
       style="fill:none;stroke:#000000;stroke-width:0.05px" />
    <circle
       transform="scale(-1,1)"
       r="1.131"
       cy="362.72"
       cx="-402.99496"
       id="testify.39"
       style="fill:none;stroke:#000000;stroke-width:0.05px" />
    <path
       inkscape:connector-curvature="0"
       id="path393"
       d="m 403.79493,361.92 -1.6,1.6 m 0,-1.6 1.6,1.6"
       style="fill:none;stroke:#000000;stroke-width:0.05px" />
    <circle
       transform="scale(-1,1)"
       r="1.131"
       cy="363.24002"
       cx="-413.43497"
       id="testify.40"
       style="fill:none;stroke:#000000;stroke-width:0.05px" />
    <path
       inkscape:connector-curvature="0"
       id="path396"
       d="m 414.23493,362.44 -1.6,1.6 m 0,-1.6 1.6,1.6"
       style="fill:none;stroke:#000000;stroke-width:0.05px" />
    <circle
       r="1.131"
       cy="362.60001"
       cx="432.51999"
       id="testify.41"
       style="fill:none;stroke:#000000;stroke-width:0.05px" />
    <path
       inkscape:connector-curvature="0"
       id="path399"
       d="m 431.72,361.8 1.6,1.6 m 0,-1.6 -1.6,1.6"
       style="fill:none;stroke:#000000;stroke-width:0.05px" />
    <circle
       r="1.131"
       cy="354.68002"
       cx="419.32001"
       id="testify.42"
       style="fill:none;stroke:#000000;stroke-width:0.05px" />
    <path
       inkscape:connector-curvature="0"
       id="path402"
       d="m 418.52,353.88 1.6,1.6 m 0,-1.6 -1.6,1.6"
       style="fill:none;stroke:#000000;stroke-width:0.05px" />
    <circle
       r="1.131"
       cy="348.32001"
       cx="405.04001"
       id="testify.43"
       style="fill:none;stroke:#000000;stroke-width:0.05px" />
    <path
       inkscape:connector-curvature="0"
       id="path405"
       d="m 404.24,347.52 1.6,1.6 m 0,-1.6 -1.6,1.6"
       style="fill:none;stroke:#000000;stroke-width:0.05px" />
    <circle
       r="1.131"
       cy="350.04001"
       cx="388.95999"
       id="testify.44"
       style="fill:none;stroke:#000000;stroke-width:0.05px" />
    <path
       inkscape:connector-curvature="0"
       id="path408"
       d="m 388.16,349.24 1.6,1.6 m 0,-1.6 -1.6,1.6"
       style="fill:none;stroke:#000000;stroke-width:0.05px" />
    <circle
       r="1.131"
       cy="346.28"
       cx="374.95999"
       id="testify.45"
       style="fill:none;stroke:#000000;stroke-width:0.05px" />
    <path
       inkscape:connector-curvature="0"
       id="path411"
       d="m 375.72074,345.48 -1.6,1.6 m 0,-1.6 1.6,1.6"
       style="fill:none;stroke:#000000;stroke-width:0.05px" />
    <circle
       transform="scale(-1,1)"
       r="1.131"
       cy="346.52002"
       cx="-355.14398"
       id="testify.46"
       style="fill:none;stroke:#000000;stroke-width:0.05px" />
    <path
       inkscape:connector-curvature="0"
       id="path414"
       d="m 355.94355,345.72 -1.6,1.6 m 0,-1.6 1.6,1.6"
       style="fill:none;stroke:#000000;stroke-width:0.05px" />
    <circle
       r="1.131"
       cy="345.04001"
       cx="406.16"
       id="testify.47"
       style="fill:none;stroke:#000000;stroke-width:0.05px" />
    <path
       inkscape:connector-curvature="0"
       id="path417"
       d="m 344.46355,344.24 -1.6,1.6 m 0,-1.6 1.6,1.6"
       style="fill:none;stroke:#000000;stroke-width:0.05px" />
    <circle
       transform="scale(-1,1)"
       r="1.131"
       cy="344.96002"
       cx="-324.58395"
       id="testify.48"
       style="fill:none;stroke:#000000;stroke-width:0.05px" />
    <path
       inkscape:connector-curvature="0"
       id="path420"
       d="m 325.38355,344.16 -1.6,1.6 m 0,-1.6 1.6,1.6"
       style="fill:none;stroke:#000000;stroke-width:0.05px" />
    <circle
       r="1.131"
       cy="334.64001"
       cx="305.25681"
       id="testify.49"
       style="fill:none;stroke:#000000;stroke-width:0.05px" />
    <path
       inkscape:connector-curvature="0"
       id="path423"
       d="m 307.78355,333.84 -1.6,1.6 m 0,-1.6 1.6,1.6"
       style="fill:none;stroke:#000000;stroke-width:0.05px" />
    <circle
       r="1.131"
       cy="332.92001"
       cx="317.01682"
       id="testify.50"
       style="fill:none;stroke:#000000;stroke-width:0.05px" />
    <path
       inkscape:connector-curvature="0"
       id="path426"
       d="m 316.21662,332.12 1.6,1.6 m 0,-1.6 -1.6,1.6"
       style="fill:none;stroke:#000000;stroke-width:0.05px" />
    <circle
       r="1.131"
       cy="331.52002"
       cx="335.41693"
       id="testify.51"
       style="fill:none;stroke:#000000;stroke-width:0.05px" />
    <path
       inkscape:connector-curvature="0"
       id="path429"
       d="m 334.61662,330.72 1.6,1.6 m 0,-1.6 -1.6,1.6"
       style="fill:none;stroke:#000000;stroke-width:0.05px" />
    <circle
       r="1.131"
       cy="328.76001"
       cx="335.33197"
       id="testify.52"
       style="fill:none;stroke:#000000;stroke-width:0.05px" />
    <path
       inkscape:connector-curvature="0"
       id="path432"
       d="m 334.53162,327.96 1.6,1.6 m 0,-1.6 -1.6,1.6"
       style="fill:none;stroke:#000000;stroke-width:0.05px" />
    <circle
       r="1.131"
       cy="325.88"
       cx="352.73181"
       id="testify.53"
       style="fill:none;stroke:#000000;stroke-width:0.05px" />
    <path
       inkscape:connector-curvature="0"
       id="path435"
       d="m 351.93159,325.08 1.6,1.6 m 0,-1.6 -1.6,1.6"
       style="fill:none;stroke:#000000;stroke-width:0.05px" />
    <circle
       r="1.131"
       cy="320.20001"
       cx="376.61169"
       id="testify.54"
       style="fill:none;stroke:#000000;stroke-width:0.05px" />
    <path
       inkscape:connector-curvature="0"
       id="path438"
       d="m 375.81159,319.4 1.6,1.6 m 0,-1.6 -1.6,1.6"
       style="fill:none;stroke:#000000;stroke-width:0.05px" />
    <circle
       r="1.131"
       cy="318"
       cx="393.00723"
       id="testify.55"
       style="fill:none;stroke:#000000;stroke-width:0.05px" />
    <path
       inkscape:connector-curvature="0"
       id="path441"
       d="m 392.20756,317.2 1.6,1.6 m 0,-1.6 -1.6,1.6"
       style="fill:none;stroke:#000000;stroke-width:0.05px" />
    <circle
       r="1.131"
       cy="318"
       cx="391.85181"
       id="circle443"
       style="fill:none;stroke:#000000;stroke-width:0.05px" />
    <path
       inkscape:connector-curvature="0"
       id="path445"
       d="m 391.05159,317.2 1.6,1.6 m 0,-1.6 -1.6,1.6"
       style="fill:none;stroke:#000000;stroke-width:0.05px" />
    <circle
       r="1.131"
       cy="323.52002"
       cx="422.44717"
       id="testify.56"
       style="fill:none;stroke:#000000;stroke-width:0.05px" />
    <path
       inkscape:connector-curvature="0"
       id="path448"
       d="m 421.64756,322.72 1.6,1.6 m 0,-1.6 -1.6,1.6"
       style="fill:none;stroke:#000000;stroke-width:0.05px" />
    <circle
       r="1.131"
       cy="322.04001"
       cx="432.4072"
       id="testify.57"
       style="fill:none;stroke:#000000;stroke-width:0.05px" />
    <path
       inkscape:connector-curvature="0"
       id="path451"
       d="m 431.60756,321.24 1.6,1.6 m 0,-1.6 -1.6,1.6"
       style="fill:none;stroke:#000000;stroke-width:0.05px" />
    <circle
       r="1.131"
       cy="326.24002"
       cx="447.32727"
       id="testify.58"
       style="fill:none;stroke:#000000;stroke-width:0.05px" />
    <path
       inkscape:connector-curvature="0"
       id="path454"
       d="m 446.52756,325.44 1.6,1.6 m 0,-1.6 -1.6,1.6"
       style="fill:none;stroke:#000000;stroke-width:0.05px" />
    <circle
       r="1.131"
       cy="330.60001"
       cx="458.28729"
       id="testify.59"
       style="fill:none;stroke:#000000;stroke-width:0.05px" />
    <path
       inkscape:connector-curvature="0"
       id="path457"
       d="m 457.48756,329.8 1.6,1.6 m 0,-1.6 -1.6,1.6"
       style="fill:none;stroke:#000000;stroke-width:0.05px" />
    <circle
       transform="scale(-1,1)"
       r="1.131"
       cy="334.56003"
       cx="-441.88062"
       id="testify.60"
       style="fill:none;stroke:#000000;stroke-width:0.05px" />
    <path
       inkscape:connector-curvature="0"
       id="path460"
       d="m 442.68074,333.76 -1.6,1.6 m 0,-1.6 1.6,1.6"
       style="fill:none;stroke:#000000;stroke-width:0.05px" />
    <circle
       transform="scale(-1,1)"
       r="1.131"
       cy="335.68002"
       cx="-434.52063"
       id="testify.61"
       style="fill:none;stroke:#000000;stroke-width:0.05px" />
    <path
       inkscape:connector-curvature="0"
       id="path463"
       d="m 435.32074,334.88 -1.6,1.6 m 0,-1.6 1.6,1.6"
       style="fill:none;stroke:#000000;stroke-width:0.05px" />
    <circle
       transform="scale(-1,1)"
       r="1.131"
       cy="340.72"
       cx="-410.04062"
       id="testify.62"
       style="fill:none;stroke:#000000;stroke-width:0.05px" />
    <path
       inkscape:connector-curvature="0"
       id="path466"
       d="m 410.84074,339.92 -1.6,1.6 m 0,-1.6 1.6,1.6"
       style="fill:none;stroke:#000000;stroke-width:0.05px" />
    <circle
       transform="scale(-1,1)"
       r="1.131"
       cy="344.12003"
       cx="-394.9606"
       id="testify.63"
       style="fill:none;stroke:#000000;stroke-width:0.05px" />
    <path
       inkscape:connector-curvature="0"
       id="path469"
       d="m 395.76074,343.32 -1.6,1.6 m 0,-1.6 1.6,1.6"
       style="fill:none;stroke:#000000;stroke-width:0.05px" />
    <circle
       transform="scale(-1,1)"
       r="1.131"
       cy="344.40002"
       cx="-385.9606"
       id="testify.64"
       style="fill:none;stroke:#000000;stroke-width:0.05px" />
    <path
       inkscape:connector-curvature="0"
       id="path472"
       d="m 386.76074,343.6 -1.6,1.6 m 0,-1.6 1.6,1.6"
       style="fill:none;stroke:#000000;stroke-width:0.05px" />
    <circle
       r="1.131"
       cy="320.64001"
       cx="376.44727"
       id="testify.65"
       style="fill:none;stroke:#000000;stroke-width:0.05px" />
    <path
       inkscape:connector-curvature="0"
       id="path475"
       d="m 375.64756,319.84 1.6,1.6 m 0,-1.6 -1.6,1.6"
       style="fill:none;stroke:#000000;stroke-width:0.05px" />
    <circle
       r="1.131"
       cy="204.99998"
       cx="376.44727"
       id="testify.66"
       style="fill:none;stroke:#000000;stroke-width:0.05px" />
    <path
       inkscape:connector-curvature="0"
       id="path478"
       d="m 375.64756,204.2 1.6,1.6 m 0,-1.6 -1.6,1.6"
       style="fill:none;stroke:#000000;stroke-width:0.05px" />
  </g>
</svg>
