<?xml version="1.0" encoding="utf-8" standalone="no"?>
<!-- Generated by Therion 5.4.1+? (compiled on 2018-06-25) -->
<!DOCTYPE svg PUBLIC "-//W3C//DTD SVG 1.1//EN" "http://www.w3.org/Graphics/SVG/1.1/DTD/svg11.dtd">
<svg width="6.445cm" height="4.117cm" viewBox="-149.250 -63.408 182.693 116.693" xmlns="http://www.w3.org/2000/svg" xmlns:xlink="http://www.w3.org/1999/xlink">
<defs>
<g id="F_aaaaaaa_envy.svg">
</g>
<g id="G_aaaaaaa_envy.svg">
</g>
<g id="B_aaaaaaa_envy.svg">
</g>
<g id="I_aaaaaaa_envy.svg">
</g>
<g id="E_aaaaaaa_envy.svg">
<path fill="none" stroke="#000000" stroke-width="0.500" d="M120.900 24.940L120.900 24.940" />
<path fill="none" stroke="#000000" stroke-width="0.500" d="M120.900 24.940L115.800 24.940" />
<path fill="none" stroke="#000000" stroke-width="0.500" d="M115.800 24.940L120.900 24.940" />
<path fill="none" stroke="#000000" stroke-width="0.500" d="M120.900 24.940L111.100 19.950" />
<path fill="none" stroke="#000000" stroke-width="0.500" d="M120.900 24.940L120.900 24.940" />
<path fill="none" stroke="#000000" stroke-width="0.500" d="M111.100 19.950L98.910 30.150" />
<path fill="none" stroke="#000000" stroke-width="0.500" d="M111.100 19.950L120.900 24.940" />
<path fill="none" stroke="#000000" stroke-width="0.500" d="M98.910 30.150L103.440 17.680" />
<path fill="none" stroke="#000000" stroke-width="0.500" d="M98.910 30.150L111.100 19.950" />
<path fill="none" stroke="#000000" stroke-width="0.500" d="M103.440 17.680L91.880 12.070" />
<path fill="none" stroke="#000000" stroke-width="0.500" d="M103.440 17.680L98.910 30.150" />
<path fill="none" stroke="#000000" stroke-width="0.500" d="M91.880 12.070L80.940 2.200" />
<path fill="none" stroke="#000000" stroke-width="0.500" d="M91.880 12.070L103.440 17.680" />
<path fill="none" stroke="#000000" stroke-width="0.500" d="M80.940 2.200L52.700 9.740" />
<path fill="none" stroke="#000000" stroke-width="0.500" d="M80.940 2.200L91.880 12.070" />
<path fill="none" stroke="#000000" stroke-width="0.500" d="M52.700 9.740L33.370 49.490" />
<path fill="none" stroke="#000000" stroke-width="0.500" d="M52.700 9.740L80.940 2.200" />
<path fill="none" stroke="#000000" stroke-width="0.500" d="M33.370 49.490L16.190 53.800" />
<path fill="none" stroke="#000000" stroke-width="0.500" d="M33.370 49.490L52.700 9.740" />
<path fill="none" stroke="#000000" stroke-width="0.500" d="M16.190 53.800L3.100 50.280" />
<path fill="none" stroke="#000000" stroke-width="0.500" d="M16.190 53.800L33.370 49.490" />
<path fill="none" stroke="#000000" stroke-width="0.500" d="M3.100 50.280L16.190 53.800" />
<path fill="none" stroke="#000000" stroke-width="0.350" d="M118.900 24.940L122.900 24.940" />
<path fill="none" stroke="#000000" stroke-width="0.350" d="M120.900 22.940L120.900 26.940" />
<path fill="#ffffff" stroke="none" d="M121.700 24.940C121.700 25.152 121.616 25.356 121.466 25.506C121.316 25.656 121.112 25.740 120.900 25.740C120.688 25.740 120.484 25.656 120.334 25.506C120.184 25.356 120.100 25.152 120.100 24.940C120.100 24.728 120.184 24.524 120.334 24.374C120.484 24.224 120.688 24.140 120.900 24.140C121.112 24.140 121.316 24.224 121.466 24.374C121.616 24.524 121.700 24.728 121.700 24.940Z" />
<path fill="none" stroke="#000000" stroke-width="0.500" d="M120.900 24.940h0.001" />
<path fill="none" stroke="#000000" stroke-width="0.350" d="M113.800 24.940L117.800 24.940" />
<path fill="none" stroke="#000000" stroke-width="0.350" d="M115.800 22.940L115.800 26.940" />
<path fill="#ffffff" stroke="none" d="M116.600 24.940C116.600 25.152 116.516 25.356 116.366 25.506C116.216 25.656 116.012 25.740 115.800 25.740C115.588 25.740 115.384 25.656 115.234 25.506C115.084 25.356 115.000 25.152 115.000 24.940C115.000 24.728 115.084 24.524 115.234 24.374C115.384 24.224 115.588 24.140 115.800 24.140C116.012 24.140 116.216 24.224 116.366 24.374C116.516 24.524 116.600 24.728 116.600 24.940Z" />
<path fill="none" stroke="#000000" stroke-width="0.500" d="M115.800 24.940h0.001" />
<path fill="none" stroke="#000000" stroke-width="0.350" d="M118.900 24.940L122.900 24.940" />
<path fill="none" stroke="#000000" stroke-width="0.350" d="M120.900 22.940L120.900 26.940" />
<path fill="#ffffff" stroke="none" d="M121.700 24.940C121.700 25.152 121.616 25.356 121.466 25.506C121.316 25.656 121.112 25.740 120.900 25.740C120.688 25.740 120.484 25.656 120.334 25.506C120.184 25.356 120.100 25.152 120.100 24.940C120.100 24.728 120.184 24.524 120.334 24.374C120.484 24.224 120.688 24.140 120.900 24.140C121.112 24.140 121.316 24.224 121.466 24.374C121.616 24.524 121.700 24.728 121.700 24.940Z" />
<path fill="none" stroke="#000000" stroke-width="0.500" d="M120.900 24.940h0.001" />
<path fill="none" stroke="#000000" stroke-width="0.350" d="M109.100 19.950L113.100 19.950" />
<path fill="none" stroke="#000000" stroke-width="0.350" d="M111.100 17.950L111.100 21.950" />
<path fill="#ffffff" stroke="none" d="M111.900 19.950C111.900 20.162 111.816 20.366 111.666 20.516C111.516 20.666 111.312 20.750 111.100 20.750C110.888 20.750 110.684 20.666 110.534 20.516C110.384 20.366 110.300 20.162 110.300 19.950C110.300 19.738 110.384 19.534 110.534 19.384C110.684 19.234 110.888 19.150 111.100 19.150C111.312 19.150 111.516 19.234 111.666 19.384C111.816 19.534 111.900 19.738 111.900 19.950Z" />
<path fill="none" stroke="#000000" stroke-width="0.500" d="M111.100 19.950h0.001" />
<path fill="none" stroke="#000000" stroke-width="0.350" d="M96.910 30.150L100.910 30.150" />
<path fill="none" stroke="#000000" stroke-width="0.350" d="M98.910 28.150L98.910 32.150" />
<path fill="#ffffff" stroke="none" d="M99.710 30.150C99.710 30.362 99.626 30.566 99.476 30.716C99.326 30.866 99.122 30.950 98.910 30.950C98.698 30.950 98.494 30.866 98.344 30.716C98.194 30.566 98.110 30.362 98.110 30.150C98.110 29.938 98.194 29.734 98.344 29.584C98.494 29.434 98.698 29.350 98.910 29.350C99.122 29.350 99.326 29.434 99.476 29.584C99.626 29.734 99.710 29.938 99.710 30.150Z" />
<path fill="none" stroke="#000000" stroke-width="0.500" d="M98.910 30.150h0.001" />
<path fill="none" stroke="#000000" stroke-width="0.350" d="M101.440 17.680L105.440 17.680" />
<path fill="none" stroke="#000000" stroke-width="0.350" d="M103.440 15.680L103.440 19.680" />
<path fill="#ffffff" stroke="none" d="M104.240 17.680C104.240 17.892 104.156 18.096 104.006 18.246C103.856 18.396 103.652 18.480 103.440 18.480C103.228 18.480 103.024 18.396 102.874 18.246C102.724 18.096 102.640 17.892 102.640 17.680C102.640 17.468 102.724 17.264 102.874 17.114C103.024 16.964 103.228 16.880 103.440 16.880C103.652 16.880 103.856 16.964 104.006 17.114C104.156 17.264 104.240 17.468 104.240 17.680Z" />
<path fill="none" stroke="#000000" stroke-width="0.500" d="M103.440 17.680h0.001" />
<path fill="none" stroke="#000000" stroke-width="0.350" d="M89.880 12.070L93.880 12.070" />
<path fill="none" stroke="#000000" stroke-width="0.350" d="M91.880 10.070L91.880 14.070" />
<path fill="#ffffff" stroke="none" d="M92.680 12.070C92.680 12.282 92.596 12.486 92.446 12.636C92.296 12.786 92.092 12.870 91.880 12.870C91.668 12.870 91.464 12.786 91.314 12.636C91.164 12.486 91.080 12.282 91.080 12.070C91.080 11.858 91.164 11.654 91.314 11.504C91.464 11.354 91.668 11.270 91.880 11.270C92.092 11.270 92.296 11.354 92.446 11.504C92.596 11.654 92.680 11.858 92.680 12.070Z" />
<path fill="none" stroke="#000000" stroke-width="0.500" d="M91.880 12.070h0.001" />
<path fill="none" stroke="#000000" stroke-width="0.350" d="M78.940 2.200L82.940 2.200" />
<path fill="none" stroke="#000000" stroke-width="0.350" d="M80.940 0.200L80.940 4.200" />
<path fill="#ffffff" stroke="none" d="M81.740 2.200C81.740 2.412 81.656 2.616 81.506 2.766C81.356 2.916 81.152 3.000 80.940 3.000C80.728 3.000 80.524 2.916 80.374 2.766C80.224 2.616 80.140 2.412 80.140 2.200C80.140 1.988 80.224 1.784 80.374 1.634C80.524 1.484 80.728 1.400 80.940 1.400C81.152 1.400 81.356 1.484 81.506 1.634C81.656 1.784 81.740 1.988 81.740 2.200Z" />
<path fill="none" stroke="#000000" stroke-width="0.500" d="M80.940 2.200h0.001" />
<path fill="none" stroke="#000000" stroke-width="0.350" d="M50.700 9.740L54.700 9.740" />
<path fill="none" stroke="#000000" stroke-width="0.350" d="M52.700 7.740L52.700 11.740" />
<path fill="#ffffff" stroke="none" d="M53.500 9.740C53.500 9.952 53.416 10.156 53.266 10.306C53.116 10.456 52.912 10.540 52.700 10.540C52.488 10.540 52.284 10.456 52.134 10.306C51.984 10.156 51.900 9.952 51.900 9.740C51.900 9.528 51.984 9.324 52.134 9.174C52.284 9.024 52.488 8.940 52.700 8.940C52.912 8.940 53.116 9.024 53.266 9.174C53.416 9.324 53.500 9.528 53.500 9.740Z" />
<path fill="none" stroke="#000000" stroke-width="0.500" d="M52.700 9.740h0.001" />
<path fill="none" stroke="#000000" stroke-width="0.350" d="M31.370 49.490L35.370 49.490" />
<path fill="none" stroke="#000000" stroke-width="0.350" d="M33.370 47.490L33.370 51.490" />
<path fill="#ffffff" stroke="none" d="M34.170 49.490C34.170 49.702 34.086 49.906 33.936 50.056C33.786 50.206 33.582 50.290 33.370 50.290C33.158 50.290 32.954 50.206 32.804 50.056C32.654 49.906 32.570 49.702 32.570 49.490C32.570 49.278 32.654 49.074 32.804 48.924C32.954 48.774 33.158 48.690 33.370 48.690C33.582 48.690 33.786 48.774 33.936 48.924C34.086 49.074 34.170 49.278 34.170 49.490Z" />
<path fill="none" stroke="#000000" stroke-width="0.500" d="M33.370 49.490h0.001" />
<path fill="none" stroke="#000000" stroke-width="0.350" d="M14.190 53.800L18.190 53.800" />
<path fill="none" stroke="#000000" stroke-width="0.350" d="M16.190 51.800L16.190 55.800" />
<path fill="#ffffff" stroke="none" d="M16.990 53.800C16.990 54.012 16.906 54.216 16.756 54.366C16.606 54.516 16.402 54.600 16.190 54.600C15.978 54.600 15.774 54.516 15.624 54.366C15.474 54.216 15.390 54.012 15.390 53.800C15.390 53.588 15.474 53.384 15.624 53.234C15.774 53.084 15.978 53.000 16.190 53.000C16.402 53.000 16.606 53.084 16.756 53.234C16.906 53.384 16.990 53.588 16.990 53.800Z" />
<path fill="none" stroke="#000000" stroke-width="0.500" d="M16.190 53.800h0.001" />
<path fill="none" stroke="#000000" stroke-width="0.350" d="M1.100 50.280L5.100 50.280" />
<path fill="none" stroke="#000000" stroke-width="0.350" d="M3.100 48.280L3.100 52.280" />
<path fill="#ffffff" stroke="none" d="M3.900 50.280C3.900 50.492 3.816 50.696 3.666 50.846C3.516 50.996 3.312 51.080 3.100 51.080C2.888 51.080 2.684 50.996 2.534 50.846C2.384 50.696 2.300 50.492 2.300 50.280C2.300 50.068 2.384 49.864 2.534 49.714C2.684 49.564 2.888 49.480 3.100 49.480C3.312 49.480 3.516 49.564 3.666 49.714C3.816 49.864 3.900 50.068 3.900 50.280Z" />
<path fill="none" stroke="#000000" stroke-width="0.500" d="M3.100 50.280h0.001" />
</g>
<g id="X_aaaaaaa_envy.svg">
<text font-family="cmss10" font-size="6.974" fill="black" stroke="none" transform="matrix(1.000 0.000 -0.000 -1.000 118.775 22.815)">&#x32;</text>
<text font-family="cmss10" font-size="6.974" fill="black" stroke="none" transform="matrix(1.000 0.000 -0.000 -1.000 113.675 22.815)">&#x31;</text>
<text font-family="cmss10" font-size="6.974" fill="black" stroke="none" transform="matrix(1.000 0.000 -0.000 -1.000 118.775 22.815)">&#x33;</text>
<text font-family="cmss10" font-size="6.974" fill="black" stroke="none" transform="matrix(1.000 0.000 -0.000 -1.000 108.975 17.825)">&#x34;</text>
<text font-family="cmss10" font-size="6.974" fill="black" stroke="none" transform="matrix(1.000 0.000 -0.000 -1.000 96.785 28.025)">&#x35;</text>
<text font-family="cmss10" font-size="6.974" fill="black" stroke="none" transform="matrix(1.000 0.000 -0.000 -1.000 101.315 15.555)">&#x36;</text>
<text font-family="cmss10" font-size="6.974" fill="black" stroke="none" transform="matrix(1.000 0.000 -0.000 -1.000 89.755 9.945)">&#x37;</text>
<text font-family="cmss10" font-size="6.974" fill="black" stroke="none" transform="matrix(1.000 0.000 -0.000 -1.000 78.815 0.075)">&#x38;</text>
<text font-family="cmss10" font-size="6.974" fill="black" stroke="none" transform="matrix(1.000 0.000 -0.000 -1.000 50.575 7.615)">&#x39;</text>
<text font-family="cmss10" font-size="6.974" fill="black" stroke="none" transform="matrix(1.000 0.000 -0.000 -1.000 31.245 47.365)">&#x31;&#x30;</text>
<text font-family="cmss10" font-size="6.974" fill="black" stroke="none" transform="matrix(1.000 0.000 -0.000 -1.000 14.065 51.675)">&#x31;&#x31;</text>
<text font-family="cmss10" font-size="6.974" fill="black" stroke="none" transform="matrix(1.000 0.000 -0.000 -1.000 0.975 48.155)">&#x31;&#x32;</text>
</g>
<clipPath id="clip_viewBox">
<path d="M-149.250 -53.285L33.443 -53.285L33.443 63.408L-149.250 63.408z" />
</clipPath>
</defs>
<g transform="scale(1,-1)" fill="#000000" stroke="#000000" stroke-linecap="round" stroke-linejoin="round" stroke-miterlimit="10" fill-rule="evenodd" clip-rule="evenodd" clip-path="url(#clip_viewBox)">
<use x="-120.904" y="-24.939" xlink:href="#E_aaaaaaa_envy.svg" />
<use x="-117.904" y="-21.939" xlink:href="#X_aaaaaaa_envy.svg" />
</g>
</svg>
