<?xml version="1.0" encoding="UTF-8" standalone="no"?>
<svg
   xmlns:dc="http://purl.org/dc/elements/1.1/"
   xmlns:cc="http://creativecommons.org/ns#"
   xmlns:rdf="http://www.w3.org/1999/02/22-rdf-syntax-ns#"
   xmlns:svg="http://www.w3.org/2000/svg"
   xmlns="http://www.w3.org/2000/svg"
   xmlns:sodipodi="http://sodipodi.sourceforge.net/DTD/sodipodi-0.dtd"
   xmlns:inkscape="http://www.inkscape.org/namespaces/inkscape"
   version="1.1"
   width="1265.000mm"
   height="753.880mm"
   viewBox="0 0 1265.000 753.880"
   id="svg384"
   sodipodi:docname="cloacamaxima_extend.svg"
   inkscape:version="0.92.2 5c3e80d, 2017-08-06">
  <metadata
     id="metadata390">
    <rdf:RDF>
      <cc:Work
         rdf:about="">
        <dc:format>image/svg+xml</dc:format>
        <dc:type
           rdf:resource="http://purl.org/dc/dcmitype/StillImage" />
      </cc:Work>
    </rdf:RDF>
  </metadata>
  <defs
     id="defs388" />
  <sodipodi:namedview
     pagecolor="#ffffff"
     bordercolor="#666666"
     borderopacity="1"
     objecttolerance="10"
     gridtolerance="10"
     guidetolerance="10"
     inkscape:pageopacity="0"
     inkscape:pageshadow="2"
     inkscape:window-width="740"
     inkscape:window-height="480"
     id="namedview386"
     showgrid="false"
     inkscape:zoom="0.067766798"
     inkscape:cx="2390.5512"
     inkscape:cy="1424.6551"
     inkscape:window-x="0"
     inkscape:window-y="0"
     inkscape:window-maximized="0"
     inkscape:current-layer="svg384" />
  <title
     id="title2">cloacamaxima</title>
  <g
     transform="translate(5.000 748.880)"
     id="g382">
    <g
       id="Legs"
       stroke="black"
       fill="none"
       stroke-width="0.4px">
      <path
         d="M220.920 -543.880L200.000 -531.800"
         id="path4" />
      <path
         d="M239.600 -497.600L220.920 -543.880"
         id="path6" />
      <path
         d="M255.280 -495.680L239.600 -497.600"
         id="path8" />
      <path
         d="M270.520 -494.080L255.280 -495.680"
         id="path10" />
      <path
         d="M278.160 -493.280L270.520 -494.080"
         id="path12" />
      <path
         d="M287.640 -496.360L278.160 -493.280"
         id="path14" />
      <path
         d="M303.480 -491.520L287.640 -496.360"
         id="path16" />
      <path
         d="M315.880 -481.160L303.480 -491.520"
         id="path18" />
      <path
         d="M341.000 -473.920L315.880 -481.160"
         id="path20" />
      <path
         d="M346.760 -476.840L341.000 -473.920"
         id="path22" />
      <path
         d="M356.960 -482.960L346.760 -476.840"
         id="path24" />
      <path
         d="M392.680 -476.680L356.960 -482.960"
         id="path26" />
      <path
         d="M401.120 -474.240L392.680 -476.680"
         id="path28" />
      <path
         d="M434.720 -467.120L401.120 -474.240"
         id="path30" />
      <path
         d="M540.360 -440.760L434.720 -467.120"
         id="path32" />
      <path
         d="M547.960 -438.880L540.360 -440.760"
         id="path34" />
      <path
         d="M561.080 -433.560L547.960 -438.880"
         id="path36" />
      <path
         d="M584.040 -426.560L561.080 -433.560"
         id="path38" />
      <path
         d="M601.040 -415.520L584.040 -426.560"
         id="path40" />
      <path
         d="M623.640 -412.720L601.040 -415.520"
         id="path42" />
      <path
         d="M631.000 -427.760L623.640 -412.720"
         id="path44" />
      <path
         d="M640.120 -426.800L631.000 -427.760"
         id="path46" />
      <path
         d="M665.480 -420.480L640.120 -426.800"
         id="path48" />
      <path
         d="M682.320 -415.320L665.480 -420.480"
         id="path50" />
      <path
         d="M702.560 -407.960L682.320 -415.320"
         id="path52" />
      <path
         d="M714.440 -406.280L702.560 -407.960"
         id="path54" />
      <path
         d="M725.720 -404.920L714.440 -406.280"
         id="path56" />
      <path
         d="M725.720 -404.920L766.520 -411.360"
         id="path58" />
      <path
         d="M766.520 -411.360L785.120 -414.640"
         id="path60" />
      <path
         d="M785.120 -414.640L785.120 -347.640"
         id="path62" />
      <path
         d="M748.200 -399.720L725.720 -404.920"
         id="path64" />
      <path
         d="M833.280 -387.760L748.200 -399.720"
         id="path66" />
      <path
         d="M833.280 -387.760L843.280 -389.720"
         id="path68" />
      <path
         d="M843.280 -389.720L865.600 -391.280"
         id="path70" />
      <path
         d="M863.680 -381.320L833.280 -387.760"
         id="path72" />
      <path
         d="M874.760 -379.360L863.680 -381.320"
         id="path74" />
      <path
         d="M903.240 -362.240L874.760 -379.360"
         id="path76" />
      <path
         d="M903.240 -362.240L928.240 -360.040"
         id="path78" />
      <path
         d="M928.240 -360.040L961.640 -393.400"
         id="path80" />
      <path
         d="M961.640 -393.400L981.680 -394.120"
         id="path82" />
      <path
         d="M903.240 -362.240L903.240 -516.240"
         id="path84" />
      <path
         d="M932.480 -357.600L903.240 -362.240"
         id="path86" />
      <path
         d="M943.080 -357.440L932.480 -357.600"
         id="path88" />
      <path
         d="M955.600 -349.920L943.080 -357.440"
         id="path90" />
      <path
         d="M968.720 -344.360L955.600 -349.920"
         id="path92" />
      <path
         d="M987.000 -342.120L968.720 -344.360"
         id="path94" />
      <path
         d="M1001.760 -340.560L987.000 -342.120"
         id="path96" />
      <path
         d="M1019.080 -337.800L1001.760 -340.560"
         id="path98" />
      <path
         d="M1035.120 -335.280L1019.080 -337.800"
         id="path100" />
      <path
         d="M1050.200 -320.160L1035.120 -335.280"
         id="path102" />
      <path
         d="M1050.200 -320.160L1055.000 -320.400"
         id="path104" />
      <path
         d="M1055.000 -320.400L1055.000 -200.000"
         id="path106" />
    </g>
    <g
       id="Labels"
       font-size="0.600em">
      <text
         transform="translate(200,-531.8)"
         id="text109">53</text>
      <text
         transform="translate(200.000 -531.800)"
         id="text111">monatip2.27</text>
      <text
         transform="translate(1050.2,-320.16)"
         id="text113">1</text>
      <text
         transform="translate(1055,-320.4)"
         id="text115">2</text>
      <text
         transform="translate(1055,-200)"
         id="text117">3</text>
      <text
         transform="translate(1035.12,-335.28)"
         id="text119">4</text>
      <text
         transform="translate(1019.08,-337.8)"
         id="text121">5</text>
      <text
         transform="translate(1001.76,-340.56)"
         id="text123">6</text>
      <text
         transform="translate(987,-342.12)"
         id="text125">7</text>
      <text
         transform="translate(968.72,-344.36)"
         id="text127">8</text>
      <text
         transform="translate(955.6,-349.92)"
         id="text129">9</text>
      <text
         transform="translate(943.08,-357.44)"
         id="text131">10</text>
      <text
         transform="translate(932.48,-357.6)"
         id="text133">11</text>
      <text
         transform="translate(903.24,-362.24)"
         id="text135">12</text>
      <text
         transform="translate(903.24,-516.24)"
         id="text137">13</text>
      <text
         transform="translate(981.68,-394.12)"
         id="text139">14</text>
      <text
         transform="translate(961.64,-393.4)"
         id="text141">15</text>
      <text
         transform="translate(928.24,-360.04)"
         id="text143">16</text>
      <text
         transform="translate(874.76,-379.36)"
         id="text145">17</text>
      <text
         transform="translate(863.68,-381.32)"
         id="text147">18</text>
      <text
         transform="translate(833.28,-387.76)"
         id="text149">19</text>
      <text
         transform="translate(843.28,-389.72)"
         id="text151">20</text>
      <text
         transform="translate(865.6,-391.28)"
         id="text153">21</text>
      <text
         transform="translate(748.2,-399.72)"
         id="text155">22</text>
      <text
         transform="translate(725.72,-404.92)"
         id="text157">23</text>
      <text
         transform="translate(766.52,-411.36)"
         id="text159">24</text>
      <text
         transform="translate(785.12,-414.64)"
         id="text161">25</text>
      <text
         transform="translate(785.12,-347.64)"
         id="text163">26</text>
      <text
         transform="translate(714.44,-406.28)"
         id="text165">27</text>
      <text
         transform="translate(702.56,-407.96)"
         id="text167">28</text>
      <text
         transform="translate(682.32,-415.32)"
         id="text169">29</text>
      <text
         transform="translate(665.48,-420.48)"
         id="text171">30</text>
      <text
         transform="translate(640.12,-426.8)"
         id="text173">31</text>
      <text
         transform="translate(631,-427.76)"
         id="text175">32</text>
      <text
         transform="translate(623.64,-412.72)"
         id="text177">33</text>
      <text
         transform="translate(601.04,-415.52)"
         id="text179">34</text>
      <text
         transform="translate(584.04,-426.56)"
         id="text181">35</text>
      <text
         transform="translate(561.08,-433.56)"
         id="text183">36</text>
      <text
         transform="translate(547.96,-438.88)"
         id="text185">37</text>
      <text
         transform="translate(540.36,-440.76)"
         id="text187">38</text>
      <text
         transform="translate(434.72,-467.12)"
         id="text189">39</text>
      <text
         transform="translate(401.12,-474.24)"
         id="text191">40</text>
      <text
         transform="translate(392.68,-476.68)"
         id="text193">41</text>
      <text
         transform="translate(356.96,-482.96)"
         id="text195">42</text>
      <text
         transform="translate(346.76,-476.84)"
         id="text197">43</text>
      <text
         transform="translate(341,-473.92)"
         id="text199">44</text>
      <text
         transform="translate(315.88,-481.16)"
         id="text201">45</text>
      <text
         transform="translate(303.48,-491.52)"
         id="text203">46</text>
      <text
         transform="translate(287.64,-496.36)"
         id="text205">47</text>
      <text
         transform="translate(278.16,-493.28)"
         id="text207">48</text>
      <text
         transform="translate(270.52,-494.08)"
         id="text209">49</text>
      <text
         transform="translate(255.28,-495.68)"
         id="text211">50</text>
      <text
         transform="translate(239.6,-497.6)"
         id="text213">51</text>
      <text
         transform="translate(220.92,-543.88)"
         id="text215">52</text>
    </g>
    <g
       id="Stations"
       stroke="black"
       fill="none"
       stroke-width="0.05px">
      <circle
         id="cloacamaxima.53"
         cx="200.000"
         cy="-531.800"
         r="1.131" />
      <path
         d="M199.200 -532.600L200.800 -531.000M200.800 -532.600L199.200 -531.000"
         id="path219" />
      <circle
         id="circle221"
         cx="200.000"
         cy="-531.800"
         r="1.131" />
      <path
         d="M199.200 -532.600L200.800 -531.000M200.800 -532.600L199.200 -531.000"
         id="path223" />
      <circle
         id="cloacamaxima.1"
         cx="1050.200"
         cy="-320.160"
         r="1.131" />
      <path
         d="M1049.400 -320.960L1051.000 -319.360M1051.000 -320.960L1049.400 -319.360"
         id="path226" />
      <circle
         id="cloacamaxima.2"
         cx="1055.000"
         cy="-320.400"
         r="1.131" />
      <path
         d="M1054.200 -321.200L1055.800 -319.600M1055.800 -321.200L1054.200 -319.600"
         id="path229" />
      <circle
         id="cloacamaxima.3"
         cx="1055.000"
         cy="-200.000"
         r="1.131" />
      <path
         d="M1054.200 -200.800L1055.800 -199.200M1055.800 -200.800L1054.200 -199.200"
         id="path232" />
      <circle
         id="cloacamaxima.4"
         cx="1035.120"
         cy="-335.280"
         r="1.131" />
      <path
         d="M1034.320 -336.080L1035.920 -334.480M1035.920 -336.080L1034.320 -334.480"
         id="path235" />
      <circle
         id="cloacamaxima.5"
         cx="1019.080"
         cy="-337.800"
         r="1.131" />
      <path
         d="M1018.280 -338.600L1019.880 -337.000M1019.880 -338.600L1018.280 -337.000"
         id="path238" />
      <circle
         id="cloacamaxima.6"
         cx="1001.760"
         cy="-340.560"
         r="1.131" />
      <path
         d="M1000.960 -341.360L1002.560 -339.760M1002.560 -341.360L1000.960 -339.760"
         id="path241" />
      <circle
         id="cloacamaxima.7"
         cx="987.000"
         cy="-342.120"
         r="1.131" />
      <path
         d="M986.200 -342.920L987.800 -341.320M987.800 -342.920L986.200 -341.320"
         id="path244" />
      <circle
         id="cloacamaxima.8"
         cx="968.720"
         cy="-344.360"
         r="1.131" />
      <path
         d="M967.920 -345.160L969.520 -343.560M969.520 -345.160L967.920 -343.560"
         id="path247" />
      <circle
         id="cloacamaxima.9"
         cx="955.600"
         cy="-349.920"
         r="1.131" />
      <path
         d="M954.800 -350.720L956.400 -349.120M956.400 -350.720L954.800 -349.120"
         id="path250" />
      <circle
         id="cloacamaxima.10"
         cx="943.080"
         cy="-357.440"
         r="1.131" />
      <path
         d="M942.280 -358.240L943.880 -356.640M943.880 -358.240L942.280 -356.640"
         id="path253" />
      <circle
         id="cloacamaxima.11"
         cx="932.480"
         cy="-357.600"
         r="1.131" />
      <path
         d="M931.680 -358.400L933.280 -356.800M933.280 -358.400L931.680 -356.800"
         id="path256" />
      <circle
         id="cloacamaxima.12"
         cx="903.240"
         cy="-362.240"
         r="1.131" />
      <path
         d="M902.440 -363.040L904.040 -361.440M904.040 -363.040L902.440 -361.440"
         id="path259" />
      <circle
         id="cloacamaxima.13"
         cx="903.240"
         cy="-516.240"
         r="1.131" />
      <path
         d="M902.440 -517.040L904.040 -515.440M904.040 -517.040L902.440 -515.440"
         id="path262" />
      <circle
         id="cloacamaxima.14"
         cx="981.680"
         cy="-394.120"
         r="1.131" />
      <path
         d="M980.880 -394.920L982.480 -393.320M982.480 -394.920L980.880 -393.320"
         id="path265" />
      <circle
         id="cloacamaxima.15"
         cx="961.640"
         cy="-393.400"
         r="1.131" />
      <path
         d="M960.840 -394.200L962.440 -392.600M962.440 -394.200L960.840 -392.600"
         id="path268" />
      <circle
         id="cloacamaxima.16"
         cx="928.240"
         cy="-360.040"
         r="1.131" />
      <path
         d="M927.440 -360.840L929.040 -359.240M929.040 -360.840L927.440 -359.240"
         id="path271" />
      <circle
         id="cloacamaxima.17"
         cx="874.760"
         cy="-379.360"
         r="1.131" />
      <path
         d="M873.960 -380.160L875.560 -378.560M875.560 -380.160L873.960 -378.560"
         id="path274" />
      <circle
         id="cloacamaxima.18"
         cx="863.680"
         cy="-381.320"
         r="1.131" />
      <path
         d="M862.880 -382.120L864.480 -380.520M864.480 -382.120L862.880 -380.520"
         id="path277" />
      <circle
         id="cloacamaxima.19"
         cx="833.280"
         cy="-387.760"
         r="1.131" />
      <path
         d="M832.480 -388.560L834.080 -386.960M834.080 -388.560L832.480 -386.960"
         id="path280" />
      <circle
         id="cloacamaxima.20"
         cx="843.280"
         cy="-389.720"
         r="1.131" />
      <path
         d="M842.480 -390.520L844.080 -388.920M844.080 -390.520L842.480 -388.920"
         id="path283" />
      <circle
         id="cloacamaxima.21"
         cx="865.600"
         cy="-391.280"
         r="1.131" />
      <path
         d="M864.800 -392.080L866.400 -390.480M866.400 -392.080L864.800 -390.480"
         id="path286" />
      <circle
         id="cloacamaxima.22"
         cx="748.200"
         cy="-399.720"
         r="1.131" />
      <path
         d="M747.400 -400.520L749.000 -398.920M749.000 -400.520L747.400 -398.920"
         id="path289" />
      <circle
         id="cloacamaxima.23"
         cx="725.720"
         cy="-404.920"
         r="1.131" />
      <path
         d="M724.920 -405.720L726.520 -404.120M726.520 -405.720L724.920 -404.120"
         id="path292" />
      <circle
         id="cloacamaxima.24"
         cx="766.520"
         cy="-411.360"
         r="1.131" />
      <path
         d="M765.720 -412.160L767.320 -410.560M767.320 -412.160L765.720 -410.560"
         id="path295" />
      <circle
         id="cloacamaxima.25"
         cx="785.120"
         cy="-414.640"
         r="1.131" />
      <path
         d="M784.320 -415.440L785.920 -413.840M785.920 -415.440L784.320 -413.840"
         id="path298" />
      <circle
         id="cloacamaxima.26"
         cx="785.120"
         cy="-347.640"
         r="1.131" />
      <path
         d="M784.320 -348.440L785.920 -346.840M785.920 -348.440L784.320 -346.840"
         id="path301" />
      <circle
         id="cloacamaxima.27"
         cx="714.440"
         cy="-406.280"
         r="1.131" />
      <path
         d="M713.640 -407.080L715.240 -405.480M715.240 -407.080L713.640 -405.480"
         id="path304" />
      <circle
         id="cloacamaxima.28"
         cx="702.560"
         cy="-407.960"
         r="1.131" />
      <path
         d="M701.760 -408.760L703.360 -407.160M703.360 -408.760L701.760 -407.160"
         id="path307" />
      <circle
         id="cloacamaxima.29"
         cx="682.320"
         cy="-415.320"
         r="1.131" />
      <path
         d="M681.520 -416.120L683.120 -414.520M683.120 -416.120L681.520 -414.520"
         id="path310" />
      <circle
         id="cloacamaxima.30"
         cx="665.480"
         cy="-420.480"
         r="1.131" />
      <path
         d="M664.680 -421.280L666.280 -419.680M666.280 -421.280L664.680 -419.680"
         id="path313" />
      <circle
         id="cloacamaxima.31"
         cx="640.120"
         cy="-426.800"
         r="1.131" />
      <path
         d="M639.320 -427.600L640.920 -426.000M640.920 -427.600L639.320 -426.000"
         id="path316" />
      <circle
         id="cloacamaxima.32"
         cx="631.000"
         cy="-427.760"
         r="1.131" />
      <path
         d="M630.200 -428.560L631.800 -426.960M631.800 -428.560L630.200 -426.960"
         id="path319" />
      <circle
         id="cloacamaxima.33"
         cx="623.640"
         cy="-412.720"
         r="1.131" />
      <path
         d="M622.840 -413.520L624.440 -411.920M624.440 -413.520L622.840 -411.920"
         id="path322" />
      <circle
         id="cloacamaxima.34"
         cx="601.040"
         cy="-415.520"
         r="1.131" />
      <path
         d="M600.240 -416.320L601.840 -414.720M601.840 -416.320L600.240 -414.720"
         id="path325" />
      <circle
         id="cloacamaxima.35"
         cx="584.040"
         cy="-426.560"
         r="1.131" />
      <path
         d="M583.240 -427.360L584.840 -425.760M584.840 -427.360L583.240 -425.760"
         id="path328" />
      <circle
         id="cloacamaxima.36"
         cx="561.080"
         cy="-433.560"
         r="1.131" />
      <path
         d="M560.280 -434.360L561.880 -432.760M561.880 -434.360L560.280 -432.760"
         id="path331" />
      <circle
         id="cloacamaxima.37"
         cx="547.960"
         cy="-438.880"
         r="1.131" />
      <path
         d="M547.160 -439.680L548.760 -438.080M548.760 -439.680L547.160 -438.080"
         id="path334" />
      <circle
         id="cloacamaxima.38"
         cx="540.360"
         cy="-440.760"
         r="1.131" />
      <path
         d="M539.560 -441.560L541.160 -439.960M541.160 -441.560L539.560 -439.960"
         id="path337" />
      <circle
         id="cloacamaxima.39"
         cx="434.720"
         cy="-467.120"
         r="1.131" />
      <path
         d="M433.920 -467.920L435.520 -466.320M435.520 -467.920L433.920 -466.320"
         id="path340" />
      <circle
         id="cloacamaxima.40"
         cx="401.120"
         cy="-474.240"
         r="1.131" />
      <path
         d="M400.320 -475.040L401.920 -473.440M401.920 -475.040L400.320 -473.440"
         id="path343" />
      <circle
         id="cloacamaxima.41"
         cx="392.680"
         cy="-476.680"
         r="1.131" />
      <path
         d="M391.880 -477.480L393.480 -475.880M393.480 -477.480L391.880 -475.880"
         id="path346" />
      <circle
         id="cloacamaxima.42"
         cx="356.960"
         cy="-482.960"
         r="1.131" />
      <path
         d="M356.160 -483.760L357.760 -482.160M357.760 -483.760L356.160 -482.160"
         id="path349" />
      <circle
         id="cloacamaxima.43"
         cx="346.760"
         cy="-476.840"
         r="1.131" />
      <path
         d="M345.960 -477.640L347.560 -476.040M347.560 -477.640L345.960 -476.040"
         id="path352" />
      <circle
         id="cloacamaxima.44"
         cx="341.000"
         cy="-473.920"
         r="1.131" />
      <path
         d="M340.200 -474.720L341.800 -473.120M341.800 -474.720L340.200 -473.120"
         id="path355" />
      <circle
         id="cloacamaxima.45"
         cx="315.880"
         cy="-481.160"
         r="1.131" />
      <path
         d="M315.080 -481.960L316.680 -480.360M316.680 -481.960L315.080 -480.360"
         id="path358" />
      <circle
         id="cloacamaxima.46"
         cx="303.480"
         cy="-491.520"
         r="1.131" />
      <path
         d="M302.680 -492.320L304.280 -490.720M304.280 -492.320L302.680 -490.720"
         id="path361" />
      <circle
         id="cloacamaxima.47"
         cx="287.640"
         cy="-496.360"
         r="1.131" />
      <path
         d="M286.840 -497.160L288.440 -495.560M288.440 -497.160L286.840 -495.560"
         id="path364" />
      <circle
         id="cloacamaxima.48"
         cx="278.160"
         cy="-493.280"
         r="1.131" />
      <path
         d="M277.360 -494.080L278.960 -492.480M278.960 -494.080L277.360 -492.480"
         id="path367" />
      <circle
         id="cloacamaxima.49"
         cx="270.520"
         cy="-494.080"
         r="1.131" />
      <path
         d="M269.720 -494.880L271.320 -493.280M271.320 -494.880L269.720 -493.280"
         id="path370" />
      <circle
         id="cloacamaxima.50"
         cx="255.280"
         cy="-495.680"
         r="1.131" />
      <path
         d="M254.480 -496.480L256.080 -494.880M256.080 -496.480L254.480 -494.880"
         id="path373" />
      <circle
         id="cloacamaxima.51"
         cx="239.600"
         cy="-497.600"
         r="1.131" />
      <path
         d="M238.800 -498.400L240.400 -496.800M240.400 -498.400L238.800 -496.800"
         id="path376" />
      <circle
         id="cloacamaxima.52"
         cx="220.920"
         cy="-543.880"
         r="1.131" />
      <path
         d="M220.120 -544.680L221.720 -543.080M221.720 -544.680L220.120 -543.080"
         id="path379" />
    </g>
  </g>
</svg>
