<?xml version="1.0" encoding="utf-8" standalone="no"?>
<!-- Generated by Therion 5.4.1+? (compiled on 2018-06-25) -->
<!DOCTYPE svg PUBLIC "-//W3C//DTD SVG 1.1//EN" "http://www.w3.org/Graphics/SVG/1.1/DTD/svg11.dtd">
<svg width="3.658cm" height="10.079cm" viewBox="-63.868 -107.865 103.693 285.693" xmlns="http://www.w3.org/2000/svg" xmlns:xlink="http://www.w3.org/1999/xlink">
<defs>
<g id="F_aaaaaaa_hoover.svg">
</g>
<g id="G_aaaaaaa_hoover.svg">
</g>
<g id="B_aaaaaaa_hoover.svg">
</g>
<g id="I_aaaaaaa_hoover.svg">
</g>
<g id="E_aaaaaaa_hoover.svg">
<path fill="none" stroke="#000000" stroke-width="0.500" d="M35.520 149.480L41.760 77.990" />
<path fill="none" stroke="#000000" stroke-width="0.500" d="M35.520 149.480L21.180 223.240" />
<path fill="none" stroke="#000000" stroke-width="0.500" d="M21.180 223.240L35.520 149.480" />
<path fill="none" stroke="#000000" stroke-width="0.500" d="M41.760 77.990L36.540 40.860" />
<path fill="none" stroke="#000000" stroke-width="0.500" d="M41.760 77.990L35.520 149.480" />
<path fill="none" stroke="#000000" stroke-width="0.500" d="M36.540 40.860L2.240 2.760" />
<path fill="none" stroke="#000000" stroke-width="0.500" d="M36.540 40.860L41.760 77.990" />
<path fill="none" stroke="#000000" stroke-width="0.500" d="M2.240 2.760L36.540 40.860" />
<path fill="none" stroke="#000000" stroke-width="0.350" d="M33.520 149.480L37.520 149.480" />
<path fill="none" stroke="#000000" stroke-width="0.350" d="M35.520 147.480L35.520 151.480" />
<path fill="#ffffff" stroke="none" d="M36.320 149.480C36.320 149.692 36.236 149.896 36.086 150.046C35.936 150.196 35.732 150.280 35.520 150.280C35.308 150.280 35.104 150.196 34.954 150.046C34.804 149.896 34.720 149.692 34.720 149.480C34.720 149.268 34.804 149.064 34.954 148.914C35.104 148.764 35.308 148.680 35.520 148.680C35.732 148.680 35.936 148.764 36.086 148.914C36.236 149.064 36.320 149.268 36.320 149.480Z" />
<path fill="none" stroke="#000000" stroke-width="0.500" d="M35.520 149.480h0.001" />
<path fill="none" stroke="#000000" stroke-width="0.350" d="M19.180 223.240L23.180 223.240" />
<path fill="none" stroke="#000000" stroke-width="0.350" d="M21.180 221.240L21.180 225.240" />
<path fill="#ffffff" stroke="none" d="M21.980 223.240C21.980 223.452 21.896 223.656 21.746 223.806C21.596 223.956 21.392 224.040 21.180 224.040C20.968 224.040 20.764 223.956 20.614 223.806C20.464 223.656 20.380 223.452 20.380 223.240C20.380 223.028 20.464 222.824 20.614 222.674C20.764 222.524 20.968 222.440 21.180 222.440C21.392 222.440 21.596 222.524 21.746 222.674C21.896 222.824 21.980 223.028 21.980 223.240Z" />
<path fill="none" stroke="#000000" stroke-width="0.500" d="M21.180 223.240h0.001" />
<path fill="none" stroke="#000000" stroke-width="0.350" d="M39.760 77.990L43.760 77.990" />
<path fill="none" stroke="#000000" stroke-width="0.350" d="M41.760 75.990L41.760 79.990" />
<path fill="#ffffff" stroke="none" d="M42.560 77.990C42.560 78.202 42.476 78.406 42.326 78.556C42.176 78.706 41.972 78.790 41.760 78.790C41.548 78.790 41.344 78.706 41.194 78.556C41.044 78.406 40.960 78.202 40.960 77.990C40.960 77.778 41.044 77.574 41.194 77.424C41.344 77.274 41.548 77.190 41.760 77.190C41.972 77.190 42.176 77.274 42.326 77.424C42.476 77.574 42.560 77.778 42.560 77.990Z" />
<path fill="none" stroke="#000000" stroke-width="0.500" d="M41.760 77.990h0.001" />
<path fill="none" stroke="#000000" stroke-width="0.350" d="M34.540 40.860L38.540 40.860" />
<path fill="none" stroke="#000000" stroke-width="0.350" d="M36.540 38.860L36.540 42.860" />
<path fill="#ffffff" stroke="none" d="M37.340 40.860C37.340 41.072 37.256 41.276 37.106 41.426C36.956 41.576 36.752 41.660 36.540 41.660C36.328 41.660 36.124 41.576 35.974 41.426C35.824 41.276 35.740 41.072 35.740 40.860C35.740 40.648 35.824 40.444 35.974 40.294C36.124 40.144 36.328 40.060 36.540 40.060C36.752 40.060 36.956 40.144 37.106 40.294C37.256 40.444 37.340 40.648 37.340 40.860Z" />
<path fill="none" stroke="#000000" stroke-width="0.500" d="M36.540 40.860h0.001" />
<path fill="none" stroke="#000000" stroke-width="0.350" d="M0.240 2.760L4.240 2.760" />
<path fill="none" stroke="#000000" stroke-width="0.350" d="M2.240 0.760L2.240 4.760" />
<path fill="#ffffff" stroke="none" d="M3.040 2.760C3.040 2.972 2.956 3.176 2.806 3.326C2.656 3.476 2.452 3.560 2.240 3.560C2.028 3.560 1.824 3.476 1.674 3.326C1.524 3.176 1.440 2.972 1.440 2.760C1.440 2.548 1.524 2.344 1.674 2.194C1.824 2.044 2.028 1.960 2.240 1.960C2.452 1.960 2.656 2.044 2.806 2.194C2.956 2.344 3.040 2.548 3.040 2.760Z" />
<path fill="none" stroke="#000000" stroke-width="0.500" d="M2.240 2.760h0.001" />
</g>
<g id="X_aaaaaaa_hoover.svg">
<text font-family="cmss10" font-size="6.974" fill="black" stroke="none" transform="matrix(1.000 0.000 -0.000 -1.000 33.395 147.355)">&#x32;</text>
<text font-family="cmss10" font-size="6.974" fill="black" stroke="none" transform="matrix(1.000 0.000 -0.000 -1.000 19.055 221.115)">&#x31;</text>
<text font-family="cmss10" font-size="6.974" fill="black" stroke="none" transform="matrix(1.000 0.000 -0.000 -1.000 39.635 75.865)">&#x33;</text>
<text font-family="cmss10" font-size="6.974" fill="black" stroke="none" transform="matrix(1.000 0.000 -0.000 -1.000 34.415 38.735)">&#x34;</text>
<text font-family="cmss10" font-size="6.974" fill="black" stroke="none" transform="matrix(1.000 0.000 -0.000 -1.000 0.115 0.635)">&#x35;</text>
</g>
<clipPath id="clip_viewBox">
<path d="M-63.868 -177.828L39.825 -177.828L39.825 107.865L-63.868 107.865z" />
</clipPath>
</defs>
<g transform="scale(1,-1)" fill="#000000" stroke="#000000" stroke-linecap="round" stroke-linejoin="round" stroke-miterlimit="10" fill-rule="evenodd" clip-rule="evenodd" clip-path="url(#clip_viewBox)">
<use x="-35.521" y="-149.482" xlink:href="#E_aaaaaaa_hoover.svg" />
<use x="-32.521" y="-146.482" xlink:href="#X_aaaaaaa_hoover.svg" />
</g>
</svg>
