<?xml version="1.0" encoding="utf-8" standalone="no"?>
<!-- Generated by Therion 5.4.1+? (compiled on 2018-06-25) -->
<!DOCTYPE svg PUBLIC "-//W3C//DTD SVG 1.1//EN" "http://www.w3.org/Graphics/SVG/1.1/DTD/svg11.dtd">
<svg width="33.186cm" height="33.080cm" viewBox="-289.841 -77.918 940.693 937.693" xmlns="http://www.w3.org/2000/svg" xmlns:xlink="http://www.w3.org/1999/xlink">
<defs>
<g id="F_aaaaaaa_mad_cow.svg">
</g>
<g id="G_aaaaaaa_mad_cow.svg">
</g>
<g id="B_aaaaaaa_mad_cow.svg">
</g>
<g id="I_aaaaaaa_mad_cow.svg">
</g>
<g id="E_aaaaaaa_mad_cow.svg">
<path fill="none" stroke="#000000" stroke-width="0.500" d="M261.490 831.430L304.920 794.970" />
<path fill="none" stroke="#000000" stroke-width="0.500" d="M261.490 831.430L269.490 849.460" />
<path fill="none" stroke="#000000" stroke-width="0.500" d="M269.490 849.460L276.740 867.370" />
<path fill="none" stroke="#000000" stroke-width="0.500" d="M269.490 849.460L261.490 831.430" />
<path fill="none" stroke="#000000" stroke-width="0.500" d="M276.740 867.370L238.250 875.540" />
<path fill="none" stroke="#000000" stroke-width="0.500" d="M276.740 867.370L269.490 849.460" />
<path fill="none" stroke="#000000" stroke-width="0.500" d="M238.250 875.540L223.570 868.680" />
<path fill="none" stroke="#000000" stroke-width="0.500" d="M238.250 875.540L276.740 867.370" />
<path fill="none" stroke="#000000" stroke-width="0.500" d="M223.570 868.680L210.920 868.000" />
<path fill="none" stroke="#000000" stroke-width="0.500" d="M223.570 868.680L238.250 875.540" />
<path fill="none" stroke="#000000" stroke-width="0.500" d="M210.920 868.000L204.180 873.890" />
<path fill="none" stroke="#000000" stroke-width="0.500" d="M210.920 868.000L223.570 868.680" />
<path fill="none" stroke="#000000" stroke-width="0.500" d="M204.180 873.890L173.850 837.780" />
<path fill="none" stroke="#000000" stroke-width="0.500" d="M204.180 873.890L210.920 868.000" />
<path fill="none" stroke="#000000" stroke-width="0.500" d="M173.850 837.780L99.920 789.760" />
<path fill="none" stroke="#000000" stroke-width="0.500" d="M173.850 837.780L204.180 873.890" />
<path fill="none" stroke="#000000" stroke-width="0.500" d="M99.920 789.760L90.510 760.730" />
<path fill="none" stroke="#000000" stroke-width="0.500" d="M99.920 789.760L173.850 837.780" />
<path fill="none" stroke="#000000" stroke-width="0.500" d="M90.510 760.730L31.380 796.280" />
<path fill="none" stroke="#000000" stroke-width="0.500" d="M90.510 760.730L99.920 789.760" />
<path fill="none" stroke="#000000" stroke-width="0.500" d="M31.380 796.280L2.240 811.760" />
<path fill="none" stroke="#000000" stroke-width="0.500" d="M31.380 796.280L90.510 760.730" />
<path fill="none" stroke="#000000" stroke-width="0.500" d="M2.240 811.760L13.690 790.210" />
<path fill="none" stroke="#000000" stroke-width="0.500" d="M2.240 811.760L31.380 796.280" />
<path fill="none" stroke="#000000" stroke-width="0.500" d="M13.690 790.210L48.780 743.610" />
<path fill="none" stroke="#000000" stroke-width="0.500" d="M13.690 790.210L2.240 811.760" />
<path fill="none" stroke="#000000" stroke-width="0.500" d="M304.920 794.970L261.490 831.430" />
<path fill="none" stroke="#000000" stroke-width="0.500" d="M48.780 743.610L53.030 682.780" />
<path fill="none" stroke="#000000" stroke-width="0.500" d="M48.780 743.610L13.690 790.210" />
<path fill="none" stroke="#000000" stroke-width="0.500" d="M53.030 682.780L148.390 662.540" />
<path fill="none" stroke="#000000" stroke-width="0.500" d="M53.030 682.780L48.780 743.610" />
<path fill="none" stroke="#000000" stroke-width="0.500" d="M148.390 662.540L155.140 624.050" />
<path fill="none" stroke="#000000" stroke-width="0.500" d="M148.390 662.540L53.030 682.780" />
<path fill="none" stroke="#000000" stroke-width="0.500" d="M155.140 624.050L138.020 600.400" />
<path fill="none" stroke="#000000" stroke-width="0.500" d="M155.140 624.050L148.390 662.540" />
<path fill="none" stroke="#000000" stroke-width="0.500" d="M138.020 600.400L193.290 515.250" />
<path fill="none" stroke="#000000" stroke-width="0.500" d="M138.020 600.400L155.140 624.050" />
<path fill="none" stroke="#000000" stroke-width="0.500" d="M193.290 515.250L203.100 565.650" />
<path fill="none" stroke="#000000" stroke-width="0.500" d="M193.290 515.250L138.020 600.400" />
<path fill="none" stroke="#000000" stroke-width="0.500" d="M203.100 565.650L239.840 581.240" />
<path fill="none" stroke="#000000" stroke-width="0.500" d="M203.100 565.650L193.290 515.250" />
<path fill="none" stroke="#000000" stroke-width="0.500" d="M239.840 581.240L156.440 644.110" />
<path fill="none" stroke="#000000" stroke-width="0.500" d="M239.840 581.240L203.100 565.650" />
<path fill="none" stroke="#000000" stroke-width="0.500" d="M156.440 644.110L155.480 617.580" />
<path fill="none" stroke="#000000" stroke-width="0.500" d="M156.440 644.110L239.840 581.240" />
<path fill="none" stroke="#000000" stroke-width="0.500" d="M155.480 617.580L187.400 604.710" />
<path fill="none" stroke="#000000" stroke-width="0.500" d="M155.480 617.580L156.440 644.110" />
<path fill="none" stroke="#000000" stroke-width="0.500" d="M187.400 604.710L224.470 582.380" />
<path fill="none" stroke="#000000" stroke-width="0.500" d="M187.400 604.710L155.480 617.580" />
<path fill="none" stroke="#000000" stroke-width="0.500" d="M224.470 582.380L209.220 540.420" />
<path fill="none" stroke="#000000" stroke-width="0.500" d="M224.470 582.380L187.400 604.710" />
<path fill="none" stroke="#000000" stroke-width="0.500" d="M209.220 540.420L210.190 485.320" />
<path fill="none" stroke="#000000" stroke-width="0.500" d="M209.220 540.420L224.470 582.380" />
<path fill="none" stroke="#000000" stroke-width="0.500" d="M210.190 485.320L164.610 483.730" />
<path fill="none" stroke="#000000" stroke-width="0.500" d="M210.190 485.320L209.220 540.420" />
<path fill="none" stroke="#000000" stroke-width="0.500" d="M164.610 483.730L162.570 454.020" />
<path fill="none" stroke="#000000" stroke-width="0.500" d="M164.610 483.730L210.190 485.320" />
<path fill="none" stroke="#000000" stroke-width="0.500" d="M162.570 454.020L302.370 376.520" />
<path fill="none" stroke="#000000" stroke-width="0.500" d="M162.570 454.020L164.610 483.730" />
<path fill="none" stroke="#000000" stroke-width="0.500" d="M302.370 376.520L448.240 295.680" />
<path fill="none" stroke="#000000" stroke-width="0.500" d="M302.370 376.520L162.570 454.020" />
<path fill="none" stroke="#000000" stroke-width="0.500" d="M448.240 295.680L474.660 281.620" />
<path fill="none" stroke="#000000" stroke-width="0.500" d="M448.240 295.680L302.370 376.520" />
<path fill="none" stroke="#000000" stroke-width="0.500" d="M474.660 281.620L548.020 248.970" />
<path fill="none" stroke="#000000" stroke-width="0.500" d="M474.660 281.620L448.240 295.680" />
<path fill="none" stroke="#000000" stroke-width="0.500" d="M548.020 248.970L570.920 242.840" />
<path fill="none" stroke="#000000" stroke-width="0.500" d="M548.020 248.970L474.660 281.620" />
<path fill="none" stroke="#000000" stroke-width="0.500" d="M570.920 242.840L624.050 308.440" />
<path fill="none" stroke="#000000" stroke-width="0.500" d="M570.920 242.840L548.020 248.970" />
<path fill="none" stroke="#000000" stroke-width="0.500" d="M624.050 308.440L653.870 364.450" />
<path fill="none" stroke="#000000" stroke-width="0.500" d="M624.050 308.440L570.920 242.840" />
<path fill="none" stroke="#000000" stroke-width="0.500" d="M653.870 364.450L706.360 273.510" />
<path fill="none" stroke="#000000" stroke-width="0.500" d="M653.870 364.450L624.050 308.440" />
<path fill="none" stroke="#000000" stroke-width="0.500" d="M706.360 273.510L727.850 172.260" />
<path fill="none" stroke="#000000" stroke-width="0.500" d="M706.360 273.510L653.870 364.450" />
<path fill="none" stroke="#000000" stroke-width="0.500" d="M727.850 172.260L734.260 142.270" />
<path fill="none" stroke="#000000" stroke-width="0.500" d="M727.850 172.260L706.360 273.510" />
<path fill="none" stroke="#000000" stroke-width="0.500" d="M734.260 142.270L751.770 91.300" />
<path fill="none" stroke="#000000" stroke-width="0.500" d="M734.260 142.270L727.850 172.260" />
<path fill="none" stroke="#000000" stroke-width="0.500" d="M751.770 91.300L804.780 38.290" />
<path fill="none" stroke="#000000" stroke-width="0.500" d="M751.770 91.300L734.260 142.270" />
<path fill="none" stroke="#000000" stroke-width="0.500" d="M804.780 38.290L820.370 39.090" />
<path fill="none" stroke="#000000" stroke-width="0.500" d="M804.780 38.290L751.770 91.300" />
<path fill="none" stroke="#000000" stroke-width="0.500" d="M820.370 39.090L831.490 48.440" />
<path fill="none" stroke="#000000" stroke-width="0.500" d="M820.370 39.090L804.780 38.290" />
<path fill="none" stroke="#000000" stroke-width="0.500" d="M831.490 48.440L857.960 23.780" />
<path fill="none" stroke="#000000" stroke-width="0.500" d="M831.490 48.440L820.370 39.090" />
<path fill="none" stroke="#000000" stroke-width="0.500" d="M857.960 23.780L875.760 2.460" />
<path fill="none" stroke="#000000" stroke-width="0.500" d="M857.960 23.780L831.490 48.440" />
<path fill="none" stroke="#000000" stroke-width="0.500" d="M875.760 2.460L857.960 23.780" />
<path fill="none" stroke="#000000" stroke-width="0.350" d="M259.490 831.430L263.490 831.430" />
<path fill="none" stroke="#000000" stroke-width="0.350" d="M261.490 829.430L261.490 833.430" />
<path fill="#ffffff" stroke="none" d="M262.290 831.430C262.290 831.642 262.206 831.846 262.056 831.996C261.906 832.146 261.702 832.230 261.490 832.230C261.278 832.230 261.074 832.146 260.924 831.996C260.774 831.846 260.690 831.642 260.690 831.430C260.690 831.218 260.774 831.014 260.924 830.864C261.074 830.714 261.278 830.630 261.490 830.630C261.702 830.630 261.906 830.714 262.056 830.864C262.206 831.014 262.290 831.218 262.290 831.430Z" />
<path fill="none" stroke="#000000" stroke-width="0.500" d="M261.490 831.430h0.001" />
<path fill="none" stroke="#000000" stroke-width="0.350" d="M267.490 849.460L271.490 849.460" />
<path fill="none" stroke="#000000" stroke-width="0.350" d="M269.490 847.460L269.490 851.460" />
<path fill="#ffffff" stroke="none" d="M270.290 849.460C270.290 849.672 270.206 849.876 270.056 850.026C269.906 850.176 269.702 850.260 269.490 850.260C269.278 850.260 269.074 850.176 268.924 850.026C268.774 849.876 268.690 849.672 268.690 849.460C268.690 849.248 268.774 849.044 268.924 848.894C269.074 848.744 269.278 848.660 269.490 848.660C269.702 848.660 269.906 848.744 270.056 848.894C270.206 849.044 270.290 849.248 270.290 849.460Z" />
<path fill="none" stroke="#000000" stroke-width="0.500" d="M269.490 849.460h0.001" />
<path fill="none" stroke="#000000" stroke-width="0.350" d="M274.740 867.370L278.740 867.370" />
<path fill="none" stroke="#000000" stroke-width="0.350" d="M276.740 865.370L276.740 869.370" />
<path fill="#ffffff" stroke="none" d="M277.540 867.370C277.540 867.582 277.456 867.786 277.306 867.936C277.156 868.086 276.952 868.170 276.740 868.170C276.528 868.170 276.324 868.086 276.174 867.936C276.024 867.786 275.940 867.582 275.940 867.370C275.940 867.158 276.024 866.954 276.174 866.804C276.324 866.654 276.528 866.570 276.740 866.570C276.952 866.570 277.156 866.654 277.306 866.804C277.456 866.954 277.540 867.158 277.540 867.370Z" />
<path fill="none" stroke="#000000" stroke-width="0.500" d="M276.740 867.370h0.001" />
<path fill="none" stroke="#000000" stroke-width="0.350" d="M236.250 875.540L240.250 875.540" />
<path fill="none" stroke="#000000" stroke-width="0.350" d="M238.250 873.540L238.250 877.540" />
<path fill="#ffffff" stroke="none" d="M239.050 875.540C239.050 875.752 238.966 875.956 238.816 876.106C238.666 876.256 238.462 876.340 238.250 876.340C238.038 876.340 237.834 876.256 237.684 876.106C237.534 875.956 237.450 875.752 237.450 875.540C237.450 875.328 237.534 875.124 237.684 874.974C237.834 874.824 238.038 874.740 238.250 874.740C238.462 874.740 238.666 874.824 238.816 874.974C238.966 875.124 239.050 875.328 239.050 875.540Z" />
<path fill="none" stroke="#000000" stroke-width="0.500" d="M238.250 875.540h0.001" />
<path fill="none" stroke="#000000" stroke-width="0.350" d="M221.570 868.680L225.570 868.680" />
<path fill="none" stroke="#000000" stroke-width="0.350" d="M223.570 866.680L223.570 870.680" />
<path fill="#ffffff" stroke="none" d="M224.370 868.680C224.370 868.892 224.286 869.096 224.136 869.246C223.986 869.396 223.782 869.480 223.570 869.480C223.358 869.480 223.154 869.396 223.004 869.246C222.854 869.096 222.770 868.892 222.770 868.680C222.770 868.468 222.854 868.264 223.004 868.114C223.154 867.964 223.358 867.880 223.570 867.880C223.782 867.880 223.986 867.964 224.136 868.114C224.286 868.264 224.370 868.468 224.370 868.680Z" />
<path fill="none" stroke="#000000" stroke-width="0.500" d="M223.570 868.680h0.001" />
<path fill="none" stroke="#000000" stroke-width="0.350" d="M208.920 868.000L212.920 868.000" />
<path fill="none" stroke="#000000" stroke-width="0.350" d="M210.920 866.000L210.920 870.000" />
<path fill="#ffffff" stroke="none" d="M211.720 868.000C211.720 868.212 211.636 868.416 211.486 868.566C211.336 868.716 211.132 868.800 210.920 868.800C210.708 868.800 210.504 868.716 210.354 868.566C210.204 868.416 210.120 868.212 210.120 868.000C210.120 867.788 210.204 867.584 210.354 867.434C210.504 867.284 210.708 867.200 210.920 867.200C211.132 867.200 211.336 867.284 211.486 867.434C211.636 867.584 211.720 867.788 211.720 868.000Z" />
<path fill="none" stroke="#000000" stroke-width="0.500" d="M210.920 868.000h0.001" />
<path fill="none" stroke="#000000" stroke-width="0.350" d="M202.180 873.890L206.180 873.890" />
<path fill="none" stroke="#000000" stroke-width="0.350" d="M204.180 871.890L204.180 875.890" />
<path fill="#ffffff" stroke="none" d="M204.980 873.890C204.980 874.102 204.896 874.306 204.746 874.456C204.596 874.606 204.392 874.690 204.180 874.690C203.968 874.690 203.764 874.606 203.614 874.456C203.464 874.306 203.380 874.102 203.380 873.890C203.380 873.678 203.464 873.474 203.614 873.324C203.764 873.174 203.968 873.090 204.180 873.090C204.392 873.090 204.596 873.174 204.746 873.324C204.896 873.474 204.980 873.678 204.980 873.890Z" />
<path fill="none" stroke="#000000" stroke-width="0.500" d="M204.180 873.890h0.001" />
<path fill="none" stroke="#000000" stroke-width="0.350" d="M171.850 837.780L175.850 837.780" />
<path fill="none" stroke="#000000" stroke-width="0.350" d="M173.850 835.780L173.850 839.780" />
<path fill="#ffffff" stroke="none" d="M174.650 837.780C174.650 837.992 174.566 838.196 174.416 838.346C174.266 838.496 174.062 838.580 173.850 838.580C173.638 838.580 173.434 838.496 173.284 838.346C173.134 838.196 173.050 837.992 173.050 837.780C173.050 837.568 173.134 837.364 173.284 837.214C173.434 837.064 173.638 836.980 173.850 836.980C174.062 836.980 174.266 837.064 174.416 837.214C174.566 837.364 174.650 837.568 174.650 837.780Z" />
<path fill="none" stroke="#000000" stroke-width="0.500" d="M173.850 837.780h0.001" />
<path fill="none" stroke="#000000" stroke-width="0.350" d="M97.920 789.760L101.920 789.760" />
<path fill="none" stroke="#000000" stroke-width="0.350" d="M99.920 787.760L99.920 791.760" />
<path fill="#ffffff" stroke="none" d="M100.720 789.760C100.720 789.972 100.636 790.176 100.486 790.326C100.336 790.476 100.132 790.560 99.920 790.560C99.708 790.560 99.504 790.476 99.354 790.326C99.204 790.176 99.120 789.972 99.120 789.760C99.120 789.548 99.204 789.344 99.354 789.194C99.504 789.044 99.708 788.960 99.920 788.960C100.132 788.960 100.336 789.044 100.486 789.194C100.636 789.344 100.720 789.548 100.720 789.760Z" />
<path fill="none" stroke="#000000" stroke-width="0.500" d="M99.920 789.760h0.001" />
<path fill="none" stroke="#000000" stroke-width="0.350" d="M88.510 760.730L92.510 760.730" />
<path fill="none" stroke="#000000" stroke-width="0.350" d="M90.510 758.730L90.510 762.730" />
<path fill="#ffffff" stroke="none" d="M91.310 760.730C91.310 760.942 91.226 761.146 91.076 761.296C90.926 761.446 90.722 761.530 90.510 761.530C90.298 761.530 90.094 761.446 89.944 761.296C89.794 761.146 89.710 760.942 89.710 760.730C89.710 760.518 89.794 760.314 89.944 760.164C90.094 760.014 90.298 759.930 90.510 759.930C90.722 759.930 90.926 760.014 91.076 760.164C91.226 760.314 91.310 760.518 91.310 760.730Z" />
<path fill="none" stroke="#000000" stroke-width="0.500" d="M90.510 760.730h0.001" />
<path fill="none" stroke="#000000" stroke-width="0.350" d="M29.380 796.280L33.380 796.280" />
<path fill="none" stroke="#000000" stroke-width="0.350" d="M31.380 794.280L31.380 798.280" />
<path fill="#ffffff" stroke="none" d="M32.180 796.280C32.180 796.492 32.096 796.696 31.946 796.846C31.796 796.996 31.592 797.080 31.380 797.080C31.168 797.080 30.964 796.996 30.814 796.846C30.664 796.696 30.580 796.492 30.580 796.280C30.580 796.068 30.664 795.864 30.814 795.714C30.964 795.564 31.168 795.480 31.380 795.480C31.592 795.480 31.796 795.564 31.946 795.714C32.096 795.864 32.180 796.068 32.180 796.280Z" />
<path fill="none" stroke="#000000" stroke-width="0.500" d="M31.380 796.280h0.001" />
<path fill="none" stroke="#000000" stroke-width="0.350" d="M0.240 811.760L4.240 811.760" />
<path fill="none" stroke="#000000" stroke-width="0.350" d="M2.240 809.760L2.240 813.760" />
<path fill="#ffffff" stroke="none" d="M3.040 811.760C3.040 811.972 2.956 812.176 2.806 812.326C2.656 812.476 2.452 812.560 2.240 812.560C2.028 812.560 1.824 812.476 1.674 812.326C1.524 812.176 1.440 811.972 1.440 811.760C1.440 811.548 1.524 811.344 1.674 811.194C1.824 811.044 2.028 810.960 2.240 810.960C2.452 810.960 2.656 811.044 2.806 811.194C2.956 811.344 3.040 811.548 3.040 811.760Z" />
<path fill="none" stroke="#000000" stroke-width="0.500" d="M2.240 811.760h0.001" />
<path fill="none" stroke="#000000" stroke-width="0.350" d="M11.690 790.210L15.690 790.210" />
<path fill="none" stroke="#000000" stroke-width="0.350" d="M13.690 788.210L13.690 792.210" />
<path fill="#ffffff" stroke="none" d="M14.490 790.210C14.490 790.422 14.406 790.626 14.256 790.776C14.106 790.926 13.902 791.010 13.690 791.010C13.478 791.010 13.274 790.926 13.124 790.776C12.974 790.626 12.890 790.422 12.890 790.210C12.890 789.998 12.974 789.794 13.124 789.644C13.274 789.494 13.478 789.410 13.690 789.410C13.902 789.410 14.106 789.494 14.256 789.644C14.406 789.794 14.490 789.998 14.490 790.210Z" />
<path fill="none" stroke="#000000" stroke-width="0.500" d="M13.690 790.210h0.001" />
<path fill="none" stroke="#000000" stroke-width="0.350" d="M302.920 794.970L306.920 794.970" />
<path fill="none" stroke="#000000" stroke-width="0.350" d="M304.920 792.970L304.920 796.970" />
<path fill="#ffffff" stroke="none" d="M305.720 794.970C305.720 795.182 305.636 795.386 305.486 795.536C305.336 795.686 305.132 795.770 304.920 795.770C304.708 795.770 304.504 795.686 304.354 795.536C304.204 795.386 304.120 795.182 304.120 794.970C304.120 794.758 304.204 794.554 304.354 794.404C304.504 794.254 304.708 794.170 304.920 794.170C305.132 794.170 305.336 794.254 305.486 794.404C305.636 794.554 305.720 794.758 305.720 794.970Z" />
<path fill="none" stroke="#000000" stroke-width="0.500" d="M304.920 794.970h0.001" />
<path fill="none" stroke="#000000" stroke-width="0.350" d="M46.780 743.610L50.780 743.610" />
<path fill="none" stroke="#000000" stroke-width="0.350" d="M48.780 741.610L48.780 745.610" />
<path fill="#ffffff" stroke="none" d="M49.580 743.610C49.580 743.822 49.496 744.026 49.346 744.176C49.196 744.326 48.992 744.410 48.780 744.410C48.568 744.410 48.364 744.326 48.214 744.176C48.064 744.026 47.980 743.822 47.980 743.610C47.980 743.398 48.064 743.194 48.214 743.044C48.364 742.894 48.568 742.810 48.780 742.810C48.992 742.810 49.196 742.894 49.346 743.044C49.496 743.194 49.580 743.398 49.580 743.610Z" />
<path fill="none" stroke="#000000" stroke-width="0.500" d="M48.780 743.610h0.001" />
<path fill="none" stroke="#000000" stroke-width="0.350" d="M51.030 682.780L55.030 682.780" />
<path fill="none" stroke="#000000" stroke-width="0.350" d="M53.030 680.780L53.030 684.780" />
<path fill="#ffffff" stroke="none" d="M53.830 682.780C53.830 682.992 53.746 683.196 53.596 683.346C53.446 683.496 53.242 683.580 53.030 683.580C52.818 683.580 52.614 683.496 52.464 683.346C52.314 683.196 52.230 682.992 52.230 682.780C52.230 682.568 52.314 682.364 52.464 682.214C52.614 682.064 52.818 681.980 53.030 681.980C53.242 681.980 53.446 682.064 53.596 682.214C53.746 682.364 53.830 682.568 53.830 682.780Z" />
<path fill="none" stroke="#000000" stroke-width="0.500" d="M53.030 682.780h0.001" />
<path fill="none" stroke="#000000" stroke-width="0.350" d="M146.390 662.540L150.390 662.540" />
<path fill="none" stroke="#000000" stroke-width="0.350" d="M148.390 660.540L148.390 664.540" />
<path fill="#ffffff" stroke="none" d="M149.190 662.540C149.190 662.752 149.106 662.956 148.956 663.106C148.806 663.256 148.602 663.340 148.390 663.340C148.178 663.340 147.974 663.256 147.824 663.106C147.674 662.956 147.590 662.752 147.590 662.540C147.590 662.328 147.674 662.124 147.824 661.974C147.974 661.824 148.178 661.740 148.390 661.740C148.602 661.740 148.806 661.824 148.956 661.974C149.106 662.124 149.190 662.328 149.190 662.540Z" />
<path fill="none" stroke="#000000" stroke-width="0.500" d="M148.390 662.540h0.001" />
<path fill="none" stroke="#000000" stroke-width="0.350" d="M153.140 624.050L157.140 624.050" />
<path fill="none" stroke="#000000" stroke-width="0.350" d="M155.140 622.050L155.140 626.050" />
<path fill="#ffffff" stroke="none" d="M155.940 624.050C155.940 624.262 155.856 624.466 155.706 624.616C155.556 624.766 155.352 624.850 155.140 624.850C154.928 624.850 154.724 624.766 154.574 624.616C154.424 624.466 154.340 624.262 154.340 624.050C154.340 623.838 154.424 623.634 154.574 623.484C154.724 623.334 154.928 623.250 155.140 623.250C155.352 623.250 155.556 623.334 155.706 623.484C155.856 623.634 155.940 623.838 155.940 624.050Z" />
<path fill="none" stroke="#000000" stroke-width="0.500" d="M155.140 624.050h0.001" />
<path fill="none" stroke="#000000" stroke-width="0.350" d="M136.020 600.400L140.020 600.400" />
<path fill="none" stroke="#000000" stroke-width="0.350" d="M138.020 598.400L138.020 602.400" />
<path fill="#ffffff" stroke="none" d="M138.820 600.400C138.820 600.612 138.736 600.816 138.586 600.966C138.436 601.116 138.232 601.200 138.020 601.200C137.808 601.200 137.604 601.116 137.454 600.966C137.304 600.816 137.220 600.612 137.220 600.400C137.220 600.188 137.304 599.984 137.454 599.834C137.604 599.684 137.808 599.600 138.020 599.600C138.232 599.600 138.436 599.684 138.586 599.834C138.736 599.984 138.820 600.188 138.820 600.400Z" />
<path fill="none" stroke="#000000" stroke-width="0.500" d="M138.020 600.400h0.001" />
<path fill="none" stroke="#000000" stroke-width="0.350" d="M191.290 515.250L195.290 515.250" />
<path fill="none" stroke="#000000" stroke-width="0.350" d="M193.290 513.250L193.290 517.250" />
<path fill="#ffffff" stroke="none" d="M194.090 515.250C194.090 515.462 194.006 515.666 193.856 515.816C193.706 515.966 193.502 516.050 193.290 516.050C193.078 516.050 192.874 515.966 192.724 515.816C192.574 515.666 192.490 515.462 192.490 515.250C192.490 515.038 192.574 514.834 192.724 514.684C192.874 514.534 193.078 514.450 193.290 514.450C193.502 514.450 193.706 514.534 193.856 514.684C194.006 514.834 194.090 515.038 194.090 515.250Z" />
<path fill="none" stroke="#000000" stroke-width="0.500" d="M193.290 515.250h0.001" />
<path fill="none" stroke="#000000" stroke-width="0.350" d="M201.100 565.650L205.100 565.650" />
<path fill="none" stroke="#000000" stroke-width="0.350" d="M203.100 563.650L203.100 567.650" />
<path fill="#ffffff" stroke="none" d="M203.900 565.650C203.900 565.862 203.816 566.066 203.666 566.216C203.516 566.366 203.312 566.450 203.100 566.450C202.888 566.450 202.684 566.366 202.534 566.216C202.384 566.066 202.300 565.862 202.300 565.650C202.300 565.438 202.384 565.234 202.534 565.084C202.684 564.934 202.888 564.850 203.100 564.850C203.312 564.850 203.516 564.934 203.666 565.084C203.816 565.234 203.900 565.438 203.900 565.650Z" />
<path fill="none" stroke="#000000" stroke-width="0.500" d="M203.100 565.650h0.001" />
<path fill="none" stroke="#000000" stroke-width="0.350" d="M237.840 581.240L241.840 581.240" />
<path fill="none" stroke="#000000" stroke-width="0.350" d="M239.840 579.240L239.840 583.240" />
<path fill="#ffffff" stroke="none" d="M240.640 581.240C240.640 581.452 240.556 581.656 240.406 581.806C240.256 581.956 240.052 582.040 239.840 582.040C239.628 582.040 239.424 581.956 239.274 581.806C239.124 581.656 239.040 581.452 239.040 581.240C239.040 581.028 239.124 580.824 239.274 580.674C239.424 580.524 239.628 580.440 239.840 580.440C240.052 580.440 240.256 580.524 240.406 580.674C240.556 580.824 240.640 581.028 240.640 581.240Z" />
<path fill="none" stroke="#000000" stroke-width="0.500" d="M239.840 581.240h0.001" />
<path fill="none" stroke="#000000" stroke-width="0.350" d="M154.440 644.110L158.440 644.110" />
<path fill="none" stroke="#000000" stroke-width="0.350" d="M156.440 642.110L156.440 646.110" />
<path fill="#ffffff" stroke="none" d="M157.240 644.110C157.240 644.322 157.156 644.526 157.006 644.676C156.856 644.826 156.652 644.910 156.440 644.910C156.228 644.910 156.024 644.826 155.874 644.676C155.724 644.526 155.640 644.322 155.640 644.110C155.640 643.898 155.724 643.694 155.874 643.544C156.024 643.394 156.228 643.310 156.440 643.310C156.652 643.310 156.856 643.394 157.006 643.544C157.156 643.694 157.240 643.898 157.240 644.110Z" />
<path fill="none" stroke="#000000" stroke-width="0.500" d="M156.440 644.110h0.001" />
<path fill="none" stroke="#000000" stroke-width="0.350" d="M153.480 617.580L157.480 617.580" />
<path fill="none" stroke="#000000" stroke-width="0.350" d="M155.480 615.580L155.480 619.580" />
<path fill="#ffffff" stroke="none" d="M156.280 617.580C156.280 617.792 156.196 617.996 156.046 618.146C155.896 618.296 155.692 618.380 155.480 618.380C155.268 618.380 155.064 618.296 154.914 618.146C154.764 617.996 154.680 617.792 154.680 617.580C154.680 617.368 154.764 617.164 154.914 617.014C155.064 616.864 155.268 616.780 155.480 616.780C155.692 616.780 155.896 616.864 156.046 617.014C156.196 617.164 156.280 617.368 156.280 617.580Z" />
<path fill="none" stroke="#000000" stroke-width="0.500" d="M155.480 617.580h0.001" />
<path fill="none" stroke="#000000" stroke-width="0.350" d="M185.400 604.710L189.400 604.710" />
<path fill="none" stroke="#000000" stroke-width="0.350" d="M187.400 602.710L187.400 606.710" />
<path fill="#ffffff" stroke="none" d="M188.200 604.710C188.200 604.922 188.116 605.126 187.966 605.276C187.816 605.426 187.612 605.510 187.400 605.510C187.188 605.510 186.984 605.426 186.834 605.276C186.684 605.126 186.600 604.922 186.600 604.710C186.600 604.498 186.684 604.294 186.834 604.144C186.984 603.994 187.188 603.910 187.400 603.910C187.612 603.910 187.816 603.994 187.966 604.144C188.116 604.294 188.200 604.498 188.200 604.710Z" />
<path fill="none" stroke="#000000" stroke-width="0.500" d="M187.400 604.710h0.001" />
<path fill="none" stroke="#000000" stroke-width="0.350" d="M222.470 582.380L226.470 582.380" />
<path fill="none" stroke="#000000" stroke-width="0.350" d="M224.470 580.380L224.470 584.380" />
<path fill="#ffffff" stroke="none" d="M225.270 582.380C225.270 582.592 225.186 582.796 225.036 582.946C224.886 583.096 224.682 583.180 224.470 583.180C224.258 583.180 224.054 583.096 223.904 582.946C223.754 582.796 223.670 582.592 223.670 582.380C223.670 582.168 223.754 581.964 223.904 581.814C224.054 581.664 224.258 581.580 224.470 581.580C224.682 581.580 224.886 581.664 225.036 581.814C225.186 581.964 225.270 582.168 225.270 582.380Z" />
<path fill="none" stroke="#000000" stroke-width="0.500" d="M224.470 582.380h0.001" />
<path fill="none" stroke="#000000" stroke-width="0.350" d="M207.220 540.420L211.220 540.420" />
<path fill="none" stroke="#000000" stroke-width="0.350" d="M209.220 538.420L209.220 542.420" />
<path fill="#ffffff" stroke="none" d="M210.020 540.420C210.020 540.632 209.936 540.836 209.786 540.986C209.636 541.136 209.432 541.220 209.220 541.220C209.008 541.220 208.804 541.136 208.654 540.986C208.504 540.836 208.420 540.632 208.420 540.420C208.420 540.208 208.504 540.004 208.654 539.854C208.804 539.704 209.008 539.620 209.220 539.620C209.432 539.620 209.636 539.704 209.786 539.854C209.936 540.004 210.020 540.208 210.020 540.420Z" />
<path fill="none" stroke="#000000" stroke-width="0.500" d="M209.220 540.420h0.001" />
<path fill="none" stroke="#000000" stroke-width="0.350" d="M208.190 485.320L212.190 485.320" />
<path fill="none" stroke="#000000" stroke-width="0.350" d="M210.190 483.320L210.190 487.320" />
<path fill="#ffffff" stroke="none" d="M210.990 485.320C210.990 485.532 210.906 485.736 210.756 485.886C210.606 486.036 210.402 486.120 210.190 486.120C209.978 486.120 209.774 486.036 209.624 485.886C209.474 485.736 209.390 485.532 209.390 485.320C209.390 485.108 209.474 484.904 209.624 484.754C209.774 484.604 209.978 484.520 210.190 484.520C210.402 484.520 210.606 484.604 210.756 484.754C210.906 484.904 210.990 485.108 210.990 485.320Z" />
<path fill="none" stroke="#000000" stroke-width="0.500" d="M210.190 485.320h0.001" />
<path fill="none" stroke="#000000" stroke-width="0.350" d="M162.610 483.730L166.610 483.730" />
<path fill="none" stroke="#000000" stroke-width="0.350" d="M164.610 481.730L164.610 485.730" />
<path fill="#ffffff" stroke="none" d="M165.410 483.730C165.410 483.942 165.326 484.146 165.176 484.296C165.026 484.446 164.822 484.530 164.610 484.530C164.398 484.530 164.194 484.446 164.044 484.296C163.894 484.146 163.810 483.942 163.810 483.730C163.810 483.518 163.894 483.314 164.044 483.164C164.194 483.014 164.398 482.930 164.610 482.930C164.822 482.930 165.026 483.014 165.176 483.164C165.326 483.314 165.410 483.518 165.410 483.730Z" />
<path fill="none" stroke="#000000" stroke-width="0.500" d="M164.610 483.730h0.001" />
<path fill="none" stroke="#000000" stroke-width="0.350" d="M160.570 454.020L164.570 454.020" />
<path fill="none" stroke="#000000" stroke-width="0.350" d="M162.570 452.020L162.570 456.020" />
<path fill="#ffffff" stroke="none" d="M163.370 454.020C163.370 454.232 163.286 454.436 163.136 454.586C162.986 454.736 162.782 454.820 162.570 454.820C162.358 454.820 162.154 454.736 162.004 454.586C161.854 454.436 161.770 454.232 161.770 454.020C161.770 453.808 161.854 453.604 162.004 453.454C162.154 453.304 162.358 453.220 162.570 453.220C162.782 453.220 162.986 453.304 163.136 453.454C163.286 453.604 163.370 453.808 163.370 454.020Z" />
<path fill="none" stroke="#000000" stroke-width="0.500" d="M162.570 454.020h0.001" />
<path fill="none" stroke="#000000" stroke-width="0.350" d="M300.370 376.520L304.370 376.520" />
<path fill="none" stroke="#000000" stroke-width="0.350" d="M302.370 374.520L302.370 378.520" />
<path fill="#ffffff" stroke="none" d="M303.170 376.520C303.170 376.732 303.086 376.936 302.936 377.086C302.786 377.236 302.582 377.320 302.370 377.320C302.158 377.320 301.954 377.236 301.804 377.086C301.654 376.936 301.570 376.732 301.570 376.520C301.570 376.308 301.654 376.104 301.804 375.954C301.954 375.804 302.158 375.720 302.370 375.720C302.582 375.720 302.786 375.804 302.936 375.954C303.086 376.104 303.170 376.308 303.170 376.520Z" />
<path fill="none" stroke="#000000" stroke-width="0.500" d="M302.370 376.520h0.001" />
<path fill="none" stroke="#000000" stroke-width="0.350" d="M446.240 295.680L450.240 295.680" />
<path fill="none" stroke="#000000" stroke-width="0.350" d="M448.240 293.680L448.240 297.680" />
<path fill="#ffffff" stroke="none" d="M449.040 295.680C449.040 295.892 448.956 296.096 448.806 296.246C448.656 296.396 448.452 296.480 448.240 296.480C448.028 296.480 447.824 296.396 447.674 296.246C447.524 296.096 447.440 295.892 447.440 295.680C447.440 295.468 447.524 295.264 447.674 295.114C447.824 294.964 448.028 294.880 448.240 294.880C448.452 294.880 448.656 294.964 448.806 295.114C448.956 295.264 449.040 295.468 449.040 295.680Z" />
<path fill="none" stroke="#000000" stroke-width="0.500" d="M448.240 295.680h0.001" />
<path fill="none" stroke="#000000" stroke-width="0.350" d="M472.660 281.620L476.660 281.620" />
<path fill="none" stroke="#000000" stroke-width="0.350" d="M474.660 279.620L474.660 283.620" />
<path fill="#ffffff" stroke="none" d="M475.460 281.620C475.460 281.832 475.376 282.036 475.226 282.186C475.076 282.336 474.872 282.420 474.660 282.420C474.448 282.420 474.244 282.336 474.094 282.186C473.944 282.036 473.860 281.832 473.860 281.620C473.860 281.408 473.944 281.204 474.094 281.054C474.244 280.904 474.448 280.820 474.660 280.820C474.872 280.820 475.076 280.904 475.226 281.054C475.376 281.204 475.460 281.408 475.460 281.620Z" />
<path fill="none" stroke="#000000" stroke-width="0.500" d="M474.660 281.620h0.001" />
<path fill="none" stroke="#000000" stroke-width="0.350" d="M546.020 248.970L550.020 248.970" />
<path fill="none" stroke="#000000" stroke-width="0.350" d="M548.020 246.970L548.020 250.970" />
<path fill="#ffffff" stroke="none" d="M548.820 248.970C548.820 249.182 548.736 249.386 548.586 249.536C548.436 249.686 548.232 249.770 548.020 249.770C547.808 249.770 547.604 249.686 547.454 249.536C547.304 249.386 547.220 249.182 547.220 248.970C547.220 248.758 547.304 248.554 547.454 248.404C547.604 248.254 547.808 248.170 548.020 248.170C548.232 248.170 548.436 248.254 548.586 248.404C548.736 248.554 548.820 248.758 548.820 248.970Z" />
<path fill="none" stroke="#000000" stroke-width="0.500" d="M548.020 248.970h0.001" />
<path fill="none" stroke="#000000" stroke-width="0.350" d="M568.920 242.840L572.920 242.840" />
<path fill="none" stroke="#000000" stroke-width="0.350" d="M570.920 240.840L570.920 244.840" />
<path fill="#ffffff" stroke="none" d="M571.720 242.840C571.720 243.052 571.636 243.256 571.486 243.406C571.336 243.556 571.132 243.640 570.920 243.640C570.708 243.640 570.504 243.556 570.354 243.406C570.204 243.256 570.120 243.052 570.120 242.840C570.120 242.628 570.204 242.424 570.354 242.274C570.504 242.124 570.708 242.040 570.920 242.040C571.132 242.040 571.336 242.124 571.486 242.274C571.636 242.424 571.720 242.628 571.720 242.840Z" />
<path fill="none" stroke="#000000" stroke-width="0.500" d="M570.920 242.840h0.001" />
<path fill="none" stroke="#000000" stroke-width="0.350" d="M622.050 308.440L626.050 308.440" />
<path fill="none" stroke="#000000" stroke-width="0.350" d="M624.050 306.440L624.050 310.440" />
<path fill="#ffffff" stroke="none" d="M624.850 308.440C624.850 308.652 624.766 308.856 624.616 309.006C624.466 309.156 624.262 309.240 624.050 309.240C623.838 309.240 623.634 309.156 623.484 309.006C623.334 308.856 623.250 308.652 623.250 308.440C623.250 308.228 623.334 308.024 623.484 307.874C623.634 307.724 623.838 307.640 624.050 307.640C624.262 307.640 624.466 307.724 624.616 307.874C624.766 308.024 624.850 308.228 624.850 308.440Z" />
<path fill="none" stroke="#000000" stroke-width="0.500" d="M624.050 308.440h0.001" />
<path fill="none" stroke="#000000" stroke-width="0.350" d="M651.870 364.450L655.870 364.450" />
<path fill="none" stroke="#000000" stroke-width="0.350" d="M653.870 362.450L653.870 366.450" />
<path fill="#ffffff" stroke="none" d="M654.670 364.450C654.670 364.662 654.586 364.866 654.436 365.016C654.286 365.166 654.082 365.250 653.870 365.250C653.658 365.250 653.454 365.166 653.304 365.016C653.154 364.866 653.070 364.662 653.070 364.450C653.070 364.238 653.154 364.034 653.304 363.884C653.454 363.734 653.658 363.650 653.870 363.650C654.082 363.650 654.286 363.734 654.436 363.884C654.586 364.034 654.670 364.238 654.670 364.450Z" />
<path fill="none" stroke="#000000" stroke-width="0.500" d="M653.870 364.450h0.001" />
<path fill="none" stroke="#000000" stroke-width="0.350" d="M704.360 273.510L708.360 273.510" />
<path fill="none" stroke="#000000" stroke-width="0.350" d="M706.360 271.510L706.360 275.510" />
<path fill="#ffffff" stroke="none" d="M707.160 273.510C707.160 273.722 707.076 273.926 706.926 274.076C706.776 274.226 706.572 274.310 706.360 274.310C706.148 274.310 705.944 274.226 705.794 274.076C705.644 273.926 705.560 273.722 705.560 273.510C705.560 273.298 705.644 273.094 705.794 272.944C705.944 272.794 706.148 272.710 706.360 272.710C706.572 272.710 706.776 272.794 706.926 272.944C707.076 273.094 707.160 273.298 707.160 273.510Z" />
<path fill="none" stroke="#000000" stroke-width="0.500" d="M706.360 273.510h0.001" />
<path fill="none" stroke="#000000" stroke-width="0.350" d="M725.850 172.260L729.850 172.260" />
<path fill="none" stroke="#000000" stroke-width="0.350" d="M727.850 170.260L727.850 174.260" />
<path fill="#ffffff" stroke="none" d="M728.650 172.260C728.650 172.472 728.566 172.676 728.416 172.826C728.266 172.976 728.062 173.060 727.850 173.060C727.638 173.060 727.434 172.976 727.284 172.826C727.134 172.676 727.050 172.472 727.050 172.260C727.050 172.048 727.134 171.844 727.284 171.694C727.434 171.544 727.638 171.460 727.850 171.460C728.062 171.460 728.266 171.544 728.416 171.694C728.566 171.844 728.650 172.048 728.650 172.260Z" />
<path fill="none" stroke="#000000" stroke-width="0.500" d="M727.850 172.260h0.001" />
<path fill="none" stroke="#000000" stroke-width="0.350" d="M732.260 142.270L736.260 142.270" />
<path fill="none" stroke="#000000" stroke-width="0.350" d="M734.260 140.270L734.260 144.270" />
<path fill="#ffffff" stroke="none" d="M735.060 142.270C735.060 142.482 734.976 142.686 734.826 142.836C734.676 142.986 734.472 143.070 734.260 143.070C734.048 143.070 733.844 142.986 733.694 142.836C733.544 142.686 733.460 142.482 733.460 142.270C733.460 142.058 733.544 141.854 733.694 141.704C733.844 141.554 734.048 141.470 734.260 141.470C734.472 141.470 734.676 141.554 734.826 141.704C734.976 141.854 735.060 142.058 735.060 142.270Z" />
<path fill="none" stroke="#000000" stroke-width="0.500" d="M734.260 142.270h0.001" />
<path fill="none" stroke="#000000" stroke-width="0.350" d="M749.770 91.300L753.770 91.300" />
<path fill="none" stroke="#000000" stroke-width="0.350" d="M751.770 89.300L751.770 93.300" />
<path fill="#ffffff" stroke="none" d="M752.570 91.300C752.570 91.512 752.486 91.716 752.336 91.866C752.186 92.016 751.982 92.100 751.770 92.100C751.558 92.100 751.354 92.016 751.204 91.866C751.054 91.716 750.970 91.512 750.970 91.300C750.970 91.088 751.054 90.884 751.204 90.734C751.354 90.584 751.558 90.500 751.770 90.500C751.982 90.500 752.186 90.584 752.336 90.734C752.486 90.884 752.570 91.088 752.570 91.300Z" />
<path fill="none" stroke="#000000" stroke-width="0.500" d="M751.770 91.300h0.001" />
<path fill="none" stroke="#000000" stroke-width="0.350" d="M802.780 38.290L806.780 38.290" />
<path fill="none" stroke="#000000" stroke-width="0.350" d="M804.780 36.290L804.780 40.290" />
<path fill="#ffffff" stroke="none" d="M805.580 38.290C805.580 38.502 805.496 38.706 805.346 38.856C805.196 39.006 804.992 39.090 804.780 39.090C804.568 39.090 804.364 39.006 804.214 38.856C804.064 38.706 803.980 38.502 803.980 38.290C803.980 38.078 804.064 37.874 804.214 37.724C804.364 37.574 804.568 37.490 804.780 37.490C804.992 37.490 805.196 37.574 805.346 37.724C805.496 37.874 805.580 38.078 805.580 38.290Z" />
<path fill="none" stroke="#000000" stroke-width="0.500" d="M804.780 38.290h0.001" />
<path fill="none" stroke="#000000" stroke-width="0.350" d="M818.370 39.090L822.370 39.090" />
<path fill="none" stroke="#000000" stroke-width="0.350" d="M820.370 37.090L820.370 41.090" />
<path fill="#ffffff" stroke="none" d="M821.170 39.090C821.170 39.302 821.086 39.506 820.936 39.656C820.786 39.806 820.582 39.890 820.370 39.890C820.158 39.890 819.954 39.806 819.804 39.656C819.654 39.506 819.570 39.302 819.570 39.090C819.570 38.878 819.654 38.674 819.804 38.524C819.954 38.374 820.158 38.290 820.370 38.290C820.582 38.290 820.786 38.374 820.936 38.524C821.086 38.674 821.170 38.878 821.170 39.090Z" />
<path fill="none" stroke="#000000" stroke-width="0.500" d="M820.370 39.090h0.001" />
<path fill="none" stroke="#000000" stroke-width="0.350" d="M829.490 48.440L833.490 48.440" />
<path fill="none" stroke="#000000" stroke-width="0.350" d="M831.490 46.440L831.490 50.440" />
<path fill="#ffffff" stroke="none" d="M832.290 48.440C832.290 48.652 832.206 48.856 832.056 49.006C831.906 49.156 831.702 49.240 831.490 49.240C831.278 49.240 831.074 49.156 830.924 49.006C830.774 48.856 830.690 48.652 830.690 48.440C830.690 48.228 830.774 48.024 830.924 47.874C831.074 47.724 831.278 47.640 831.490 47.640C831.702 47.640 831.906 47.724 832.056 47.874C832.206 48.024 832.290 48.228 832.290 48.440Z" />
<path fill="none" stroke="#000000" stroke-width="0.500" d="M831.490 48.440h0.001" />
<path fill="none" stroke="#000000" stroke-width="0.350" d="M855.960 23.780L859.960 23.780" />
<path fill="none" stroke="#000000" stroke-width="0.350" d="M857.960 21.780L857.960 25.780" />
<path fill="#ffffff" stroke="none" d="M858.760 23.780C858.760 23.992 858.676 24.196 858.526 24.346C858.376 24.496 858.172 24.580 857.960 24.580C857.748 24.580 857.544 24.496 857.394 24.346C857.244 24.196 857.160 23.992 857.160 23.780C857.160 23.568 857.244 23.364 857.394 23.214C857.544 23.064 857.748 22.980 857.960 22.980C858.172 22.980 858.376 23.064 858.526 23.214C858.676 23.364 858.760 23.568 858.760 23.780Z" />
<path fill="none" stroke="#000000" stroke-width="0.500" d="M857.960 23.780h0.001" />
<path fill="none" stroke="#000000" stroke-width="0.350" d="M873.760 2.460L877.760 2.460" />
<path fill="none" stroke="#000000" stroke-width="0.350" d="M875.760 0.460L875.760 4.460" />
<path fill="#ffffff" stroke="none" d="M876.560 2.460C876.560 2.672 876.476 2.876 876.326 3.026C876.176 3.176 875.972 3.260 875.760 3.260C875.548 3.260 875.344 3.176 875.194 3.026C875.044 2.876 874.960 2.672 874.960 2.460C874.960 2.248 875.044 2.044 875.194 1.894C875.344 1.744 875.548 1.660 875.760 1.660C875.972 1.660 876.176 1.744 876.326 1.894C876.476 2.044 876.560 2.248 876.560 2.460Z" />
<path fill="none" stroke="#000000" stroke-width="0.500" d="M875.760 2.460h0.001" />
</g>
<g id="X_aaaaaaa_mad_cow.svg">
<text font-family="cmss10" font-size="6.974" fill="black" stroke="none" transform="matrix(1.000 0.000 -0.000 -1.000 259.365 829.305)">&#x31;</text>
<text font-family="cmss10" font-size="6.974" fill="black" stroke="none" transform="matrix(1.000 0.000 -0.000 -1.000 267.365 847.335)">&#x32;</text>
<text font-family="cmss10" font-size="6.974" fill="black" stroke="none" transform="matrix(1.000 0.000 -0.000 -1.000 274.615 865.245)">&#x33;</text>
<text font-family="cmss10" font-size="6.974" fill="black" stroke="none" transform="matrix(1.000 0.000 -0.000 -1.000 236.125 873.415)">&#x34;</text>
<text font-family="cmss10" font-size="6.974" fill="black" stroke="none" transform="matrix(1.000 0.000 -0.000 -1.000 221.445 866.555)">&#x35;</text>
<text font-family="cmss10" font-size="6.974" fill="black" stroke="none" transform="matrix(1.000 0.000 -0.000 -1.000 208.795 865.875)">&#x36;</text>
<text font-family="cmss10" font-size="6.974" fill="black" stroke="none" transform="matrix(1.000 0.000 -0.000 -1.000 202.055 871.765)">&#x37;</text>
<text font-family="cmss10" font-size="6.974" fill="black" stroke="none" transform="matrix(1.000 0.000 -0.000 -1.000 171.725 835.655)">&#x38;</text>
<text font-family="cmss10" font-size="6.974" fill="black" stroke="none" transform="matrix(1.000 0.000 -0.000 -1.000 97.795 787.635)">&#x39;</text>
<text font-family="cmss10" font-size="6.974" fill="black" stroke="none" transform="matrix(1.000 0.000 -0.000 -1.000 88.385 758.605)">&#x31;&#x30;</text>
<text font-family="cmss10" font-size="6.974" fill="black" stroke="none" transform="matrix(1.000 0.000 -0.000 -1.000 29.255 794.155)">&#x31;&#x31;</text>
<text font-family="cmss10" font-size="6.974" fill="black" stroke="none" transform="matrix(1.000 0.000 -0.000 -1.000 0.115 809.635)">&#x31;&#x32;</text>
<text font-family="cmss10" font-size="6.974" fill="black" stroke="none" transform="matrix(1.000 0.000 -0.000 -1.000 11.565 788.085)">&#x31;&#x33;</text>
<text font-family="cmss10" font-size="6.974" fill="black" stroke="none" transform="matrix(1.000 0.000 -0.000 -1.000 302.795 794.201)">&#x70;&#x73;&#x65;&#x75;&#x64;&#x6f;&#x73;&#x75;&#x6d;&#x70;</text>
<text font-family="cmss10" font-size="6.974" fill="black" stroke="none" transform="matrix(1.000 0.000 -0.000 -1.000 46.655 741.485)">&#x31;&#x34;</text>
<text font-family="cmss10" font-size="6.974" fill="black" stroke="none" transform="matrix(1.000 0.000 -0.000 -1.000 50.905 680.655)">&#x31;&#x35;</text>
<text font-family="cmss10" font-size="6.974" fill="black" stroke="none" transform="matrix(1.000 0.000 -0.000 -1.000 146.265 660.415)">&#x31;&#x36;</text>
<text font-family="cmss10" font-size="6.974" fill="black" stroke="none" transform="matrix(1.000 0.000 -0.000 -1.000 153.015 621.925)">&#x31;&#x37;</text>
<text font-family="cmss10" font-size="6.974" fill="black" stroke="none" transform="matrix(1.000 0.000 -0.000 -1.000 135.895 598.275)">&#x31;&#x38;</text>
<text font-family="cmss10" font-size="6.974" fill="black" stroke="none" transform="matrix(1.000 0.000 -0.000 -1.000 191.165 513.125)">&#x31;&#x39;</text>
<text font-family="cmss10" font-size="6.974" fill="black" stroke="none" transform="matrix(1.000 0.000 -0.000 -1.000 200.975 563.525)">&#x32;&#x30;</text>
<text font-family="cmss10" font-size="6.974" fill="black" stroke="none" transform="matrix(1.000 0.000 -0.000 -1.000 237.715 579.115)">&#x32;&#x31;</text>
<text font-family="cmss10" font-size="6.974" fill="black" stroke="none" transform="matrix(1.000 0.000 -0.000 -1.000 154.315 641.985)">&#x32;&#x32;</text>
<text font-family="cmss10" font-size="6.974" fill="black" stroke="none" transform="matrix(1.000 0.000 -0.000 -1.000 153.355 615.455)">&#x32;&#x33;</text>
<text font-family="cmss10" font-size="6.974" fill="black" stroke="none" transform="matrix(1.000 0.000 -0.000 -1.000 185.275 602.585)">&#x32;&#x34;</text>
<text font-family="cmss10" font-size="6.974" fill="black" stroke="none" transform="matrix(1.000 0.000 -0.000 -1.000 222.345 580.255)">&#x32;&#x35;</text>
<text font-family="cmss10" font-size="6.974" fill="black" stroke="none" transform="matrix(1.000 0.000 -0.000 -1.000 207.095 538.295)">&#x32;&#x36;</text>
<text font-family="cmss10" font-size="6.974" fill="black" stroke="none" transform="matrix(1.000 0.000 -0.000 -1.000 208.065 483.195)">&#x32;&#x37;</text>
<text font-family="cmss10" font-size="6.974" fill="black" stroke="none" transform="matrix(1.000 0.000 -0.000 -1.000 162.485 481.605)">&#x32;&#x38;</text>
<text font-family="cmss10" font-size="6.974" fill="black" stroke="none" transform="matrix(1.000 0.000 -0.000 -1.000 160.445 451.895)">&#x32;&#x39;</text>
<text font-family="cmss10" font-size="6.974" fill="black" stroke="none" transform="matrix(1.000 0.000 -0.000 -1.000 300.245 374.395)">&#x33;&#x30;</text>
<text font-family="cmss10" font-size="6.974" fill="black" stroke="none" transform="matrix(1.000 0.000 -0.000 -1.000 446.115 293.555)">&#x33;&#x31;</text>
<text font-family="cmss10" font-size="6.974" fill="black" stroke="none" transform="matrix(1.000 0.000 -0.000 -1.000 472.535 279.495)">&#x33;&#x32;</text>
<text font-family="cmss10" font-size="6.974" fill="black" stroke="none" transform="matrix(1.000 0.000 -0.000 -1.000 545.895 246.845)">&#x33;&#x33;</text>
<text font-family="cmss10" font-size="6.974" fill="black" stroke="none" transform="matrix(1.000 0.000 -0.000 -1.000 568.795 240.715)">&#x33;&#x34;</text>
<text font-family="cmss10" font-size="6.974" fill="black" stroke="none" transform="matrix(1.000 0.000 -0.000 -1.000 621.925 306.315)">&#x33;&#x35;</text>
<text font-family="cmss10" font-size="6.974" fill="black" stroke="none" transform="matrix(1.000 0.000 -0.000 -1.000 651.745 362.325)">&#x33;&#x36;</text>
<text font-family="cmss10" font-size="6.974" fill="black" stroke="none" transform="matrix(1.000 0.000 -0.000 -1.000 704.235 271.385)">&#x33;&#x37;</text>
<text font-family="cmss10" font-size="6.974" fill="black" stroke="none" transform="matrix(1.000 0.000 -0.000 -1.000 725.725 170.135)">&#x33;&#x38;</text>
<text font-family="cmss10" font-size="6.974" fill="black" stroke="none" transform="matrix(1.000 0.000 -0.000 -1.000 732.135 140.145)">&#x33;&#x39;</text>
<text font-family="cmss10" font-size="6.974" fill="black" stroke="none" transform="matrix(1.000 0.000 -0.000 -1.000 749.645 89.175)">&#x34;&#x30;</text>
<text font-family="cmss10" font-size="6.974" fill="black" stroke="none" transform="matrix(1.000 0.000 -0.000 -1.000 802.655 36.165)">&#x34;&#x31;</text>
<text font-family="cmss10" font-size="6.974" fill="black" stroke="none" transform="matrix(1.000 0.000 -0.000 -1.000 818.245 36.965)">&#x34;&#x32;</text>
<text font-family="cmss10" font-size="6.974" fill="black" stroke="none" transform="matrix(1.000 0.000 -0.000 -1.000 829.365 46.315)">&#x34;&#x33;</text>
<text font-family="cmss10" font-size="6.974" fill="black" stroke="none" transform="matrix(1.000 0.000 -0.000 -1.000 855.835 21.655)">&#x34;&#x34;</text>
<text font-family="cmss10" font-size="6.974" fill="black" stroke="none" transform="matrix(1.000 0.000 -0.000 -1.000 873.635 0.335)">&#x34;&#x35;</text>
</g>
<clipPath id="clip_viewBox">
<path d="M-289.841 -859.775L650.852 -859.775L650.852 77.918L-289.841 77.918z" />
</clipPath>
</defs>
<g transform="scale(1,-1)" fill="#000000" stroke="#000000" stroke-linecap="round" stroke-linejoin="round" stroke-miterlimit="10" fill-rule="evenodd" clip-rule="evenodd" clip-path="url(#clip_viewBox)">
<use x="-261.494" y="-831.428" xlink:href="#E_aaaaaaa_mad_cow.svg" />
<use x="-258.494" y="-828.428" xlink:href="#X_aaaaaaa_mad_cow.svg" />
</g>
</svg>
