<?xml version="1.0" encoding="utf-8" standalone="no"?>
<!-- Generated by Therion 5.4.1+? (compiled on 2018-06-25) -->
<!DOCTYPE svg PUBLIC "-//W3C//DTD SVG 1.1//EN" "http://www.w3.org/Graphics/SVG/1.1/DTD/svg11.dtd">
<svg width="3.164cm" height="3.411cm" viewBox="-55.606 -65.512 89.693 96.693" xmlns="http://www.w3.org/2000/svg" xmlns:xlink="http://www.w3.org/1999/xlink">
<defs>
<g id="F_aaaaaaa_../../vrtnarija/2001/prisoners/prisoners.svg">
</g>
<g id="G_aaaaaaa_../../vrtnarija/2001/prisoners/prisoners.svg">
</g>
<g id="B_aaaaaaa_../../vrtnarija/2001/prisoners/prisoners.svg">
</g>
<g id="I_aaaaaaa_../../vrtnarija/2001/prisoners/prisoners.svg">
</g>
<g id="E_aaaaaaa_../../vrtnarija/2001/prisoners/prisoners.svg">
<path fill="none" stroke="#000000" stroke-width="0.600" d="M27.260 2.830L26.270 33.170" />
<path fill="none" stroke="#000000" stroke-width="0.600" d="M27.260 2.830L27.260 2.830" />
<path fill="none" stroke="#000000" stroke-width="0.600" d="M27.260 2.830L27.260 2.830" />
<path fill="none" stroke="#000000" stroke-width="0.600" d="M26.270 33.170L2.740 21.120" />
<path fill="none" stroke="#000000" stroke-width="0.600" d="M26.270 33.170L27.260 2.830" />
<path fill="none" stroke="#000000" stroke-width="0.600" d="M2.740 21.120L26.270 33.170" />
<path fill="none" stroke="#000000" stroke-width="0.420" d="M24.860 2.830L29.660 2.830" />
<path fill="none" stroke="#000000" stroke-width="0.420" d="M27.260 0.430L27.260 5.230" />
<path fill="#ffffff" stroke="none" d="M28.220 2.830C28.220 3.085 28.119 3.329 27.939 3.509C27.759 3.689 27.515 3.790 27.260 3.790C27.005 3.790 26.761 3.689 26.581 3.509C26.401 3.329 26.300 3.085 26.300 2.830C26.300 2.575 26.401 2.331 26.581 2.151C26.761 1.971 27.005 1.870 27.260 1.870C27.515 1.870 27.759 1.971 27.939 2.151C28.119 2.331 28.220 2.575 28.220 2.830Z" />
<path fill="none" stroke="#000000" stroke-width="0.600" d="M27.260 2.830h0.001" />
<path fill="none" stroke="#000000" stroke-width="0.420" d="M24.860 2.830L29.660 2.830" />
<path fill="none" stroke="#000000" stroke-width="0.420" d="M27.260 0.430L27.260 5.230" />
<path fill="#ffffff" stroke="none" d="M28.220 2.830C28.220 3.085 28.119 3.329 27.939 3.509C27.759 3.689 27.515 3.790 27.260 3.790C27.005 3.790 26.761 3.689 26.581 3.509C26.401 3.329 26.300 3.085 26.300 2.830C26.300 2.575 26.401 2.331 26.581 2.151C26.761 1.971 27.005 1.870 27.260 1.870C27.515 1.870 27.759 1.971 27.939 2.151C28.119 2.331 28.220 2.575 28.220 2.830Z" />
<path fill="none" stroke="#000000" stroke-width="0.600" d="M27.260 2.830h0.001" />
<path fill="none" stroke="#000000" stroke-width="0.420" d="M23.870 33.170L28.670 33.170" />
<path fill="none" stroke="#000000" stroke-width="0.420" d="M26.270 30.770L26.270 35.570" />
<path fill="#ffffff" stroke="none" d="M27.230 33.170C27.230 33.425 27.129 33.669 26.949 33.849C26.769 34.029 26.525 34.130 26.270 34.130C26.015 34.130 25.771 34.029 25.591 33.849C25.411 33.669 25.310 33.425 25.310 33.170C25.310 32.915 25.411 32.671 25.591 32.491C25.771 32.311 26.015 32.210 26.270 32.210C26.525 32.210 26.769 32.311 26.949 32.491C27.129 32.671 27.230 32.915 27.230 33.170Z" />
<path fill="none" stroke="#000000" stroke-width="0.600" d="M26.270 33.170h0.001" />
<path fill="none" stroke="#000000" stroke-width="0.420" d="M0.340 21.120L5.140 21.120" />
<path fill="none" stroke="#000000" stroke-width="0.420" d="M2.740 18.720L2.740 23.520" />
<path fill="#ffffff" stroke="none" d="M3.700 21.120C3.700 21.375 3.599 21.619 3.419 21.799C3.239 21.979 2.995 22.080 2.740 22.080C2.485 22.080 2.241 21.979 2.061 21.799C1.881 21.619 1.780 21.375 1.780 21.120C1.780 20.865 1.881 20.621 2.061 20.441C2.241 20.261 2.485 20.160 2.740 20.160C2.995 20.160 3.239 20.261 3.419 20.441C3.599 20.621 3.700 20.865 3.700 21.120Z" />
<path fill="none" stroke="#000000" stroke-width="0.600" d="M2.740 21.120h0.001" />
</g>
<g id="X_aaaaaaa_../../vrtnarija/2001/prisoners/prisoners.svg">
<text font-family="cmss10" font-size="7.970" fill="black" stroke="none" transform="matrix(1.000 0.000 -0.000 -1.000 25.310 0.880)">&#x32;</text>
<text font-family="cmss10" font-size="7.970" fill="black" stroke="none" transform="matrix(1.000 0.000 -0.000 -1.000 25.310 0.880)">&#x31;</text>
<text font-family="cmss10" font-size="7.970" fill="black" stroke="none" transform="matrix(1.000 0.000 -0.000 -1.000 24.320 31.220)">&#x33;</text>
<text font-family="cmss10" font-size="7.970" fill="black" stroke="none" transform="matrix(1.000 0.000 -0.000 -1.000 0.790 19.170)">&#x34;</text>
</g>
<clipPath id="clip_viewBox">
<path d="M-55.606 -31.181L34.087 -31.181L34.087 65.512L-55.606 65.512z" />
</clipPath>
</defs>
<g transform="scale(1,-1)" fill="#000000" stroke="#000000" stroke-linecap="round" stroke-linejoin="round" stroke-miterlimit="10" fill-rule="evenodd" clip-rule="evenodd" clip-path="url(#clip_viewBox)">
<use x="-27.260" y="-2.835" xlink:href="#E_aaaaaaa_../../vrtnarija/2001/prisoners/prisoners.svg" />
<use x="-24.260" y="0.165" xlink:href="#X_aaaaaaa_../../vrtnarija/2001/prisoners/prisoners.svg" />
</g>
</svg>
