<?xml version="1.0" encoding="utf-8" standalone="no"?>
<!-- Generated by Therion 5.4.1+? (compiled on 2018-06-25) -->
<!DOCTYPE svg PUBLIC "-//W3C//DTD SVG 1.1//EN" "http://www.w3.org/Graphics/SVG/1.1/DTD/svg11.dtd">
<svg width="3.834cm" height="3.341cm" viewBox="-75.570 -34.606 108.693 94.693" xmlns="http://www.w3.org/2000/svg" xmlns:xlink="http://www.w3.org/1999/xlink">
<defs>
<g id="F_aaaaaaa_fallsrd.svg">
</g>
<g id="G_aaaaaaa_fallsrd.svg">
</g>
<g id="B_aaaaaaa_fallsrd.svg">
</g>
<g id="I_aaaaaaa_fallsrd.svg">
</g>
<g id="E_aaaaaaa_fallsrd.svg">
<path fill="none" stroke="#000000" stroke-width="0.500" d="M47.220 31.740L34.070 17.110" />
<path fill="none" stroke="#000000" stroke-width="0.500" d="M47.220 31.740L23.750 5.660" />
<path fill="none" stroke="#000000" stroke-width="0.500" d="M23.750 5.660L47.220 31.740" />
<path fill="none" stroke="#000000" stroke-width="0.500" d="M34.070 17.110L34.070 17.110" />
<path fill="none" stroke="#000000" stroke-width="0.500" d="M34.070 17.110L47.220 31.740" />
<path fill="none" stroke="#000000" stroke-width="0.500" d="M34.070 17.110L32.200 19.270" />
<path fill="none" stroke="#000000" stroke-width="0.500" d="M34.070 17.110L34.070 17.110" />
<path fill="none" stroke="#000000" stroke-width="0.500" d="M32.200 19.270L32.200 19.270" />
<path fill="none" stroke="#000000" stroke-width="0.500" d="M32.200 19.270L34.070 17.110" />
<path fill="none" stroke="#000000" stroke-width="0.500" d="M32.200 19.270L2.780 2.260" />
<path fill="none" stroke="#000000" stroke-width="0.500" d="M32.200 19.270L32.200 19.270" />
<path fill="none" stroke="#000000" stroke-width="0.500" d="M2.780 2.260L32.200 19.270" />
<path fill="none" stroke="#000000" stroke-width="0.350" d="M45.220 31.740L49.220 31.740" />
<path fill="none" stroke="#000000" stroke-width="0.350" d="M47.220 29.740L47.220 33.740" />
<path fill="#ffffff" stroke="none" d="M48.020 31.740C48.020 31.952 47.936 32.156 47.786 32.306C47.636 32.456 47.432 32.540 47.220 32.540C47.008 32.540 46.804 32.456 46.654 32.306C46.504 32.156 46.420 31.952 46.420 31.740C46.420 31.528 46.504 31.324 46.654 31.174C46.804 31.024 47.008 30.940 47.220 30.940C47.432 30.940 47.636 31.024 47.786 31.174C47.936 31.324 48.020 31.528 48.020 31.740Z" />
<path fill="none" stroke="#000000" stroke-width="0.500" d="M47.220 31.740h0.001" />
<path fill="none" stroke="#000000" stroke-width="0.350" d="M21.750 5.660L25.750 5.660" />
<path fill="none" stroke="#000000" stroke-width="0.350" d="M23.750 3.660L23.750 7.660" />
<path fill="#ffffff" stroke="none" d="M24.550 5.660C24.550 5.872 24.466 6.076 24.316 6.226C24.166 6.376 23.962 6.460 23.750 6.460C23.538 6.460 23.334 6.376 23.184 6.226C23.034 6.076 22.950 5.872 22.950 5.660C22.950 5.448 23.034 5.244 23.184 5.094C23.334 4.944 23.538 4.860 23.750 4.860C23.962 4.860 24.166 4.944 24.316 5.094C24.466 5.244 24.550 5.448 24.550 5.660Z" />
<path fill="none" stroke="#000000" stroke-width="0.500" d="M23.750 5.660h0.001" />
<path fill="none" stroke="#000000" stroke-width="0.350" d="M32.070 17.110L36.070 17.110" />
<path fill="none" stroke="#000000" stroke-width="0.350" d="M34.070 15.110L34.070 19.110" />
<path fill="#ffffff" stroke="none" d="M34.870 17.110C34.870 17.322 34.786 17.526 34.636 17.676C34.486 17.826 34.282 17.910 34.070 17.910C33.858 17.910 33.654 17.826 33.504 17.676C33.354 17.526 33.270 17.322 33.270 17.110C33.270 16.898 33.354 16.694 33.504 16.544C33.654 16.394 33.858 16.310 34.070 16.310C34.282 16.310 34.486 16.394 34.636 16.544C34.786 16.694 34.870 16.898 34.870 17.110Z" />
<path fill="none" stroke="#000000" stroke-width="0.500" d="M34.070 17.110h0.001" />
<path fill="none" stroke="#000000" stroke-width="0.350" d="M32.070 17.110L36.070 17.110" />
<path fill="none" stroke="#000000" stroke-width="0.350" d="M34.070 15.110L34.070 19.110" />
<path fill="#ffffff" stroke="none" d="M34.870 17.110C34.870 17.322 34.786 17.526 34.636 17.676C34.486 17.826 34.282 17.910 34.070 17.910C33.858 17.910 33.654 17.826 33.504 17.676C33.354 17.526 33.270 17.322 33.270 17.110C33.270 16.898 33.354 16.694 33.504 16.544C33.654 16.394 33.858 16.310 34.070 16.310C34.282 16.310 34.486 16.394 34.636 16.544C34.786 16.694 34.870 16.898 34.870 17.110Z" />
<path fill="none" stroke="#000000" stroke-width="0.500" d="M34.070 17.110h0.001" />
<path fill="none" stroke="#000000" stroke-width="0.350" d="M30.200 19.270L34.200 19.270" />
<path fill="none" stroke="#000000" stroke-width="0.350" d="M32.200 17.270L32.200 21.270" />
<path fill="#ffffff" stroke="none" d="M33.000 19.270C33.000 19.482 32.916 19.686 32.766 19.836C32.616 19.986 32.412 20.070 32.200 20.070C31.988 20.070 31.784 19.986 31.634 19.836C31.484 19.686 31.400 19.482 31.400 19.270C31.400 19.058 31.484 18.854 31.634 18.704C31.784 18.554 31.988 18.470 32.200 18.470C32.412 18.470 32.616 18.554 32.766 18.704C32.916 18.854 33.000 19.058 33.000 19.270Z" />
<path fill="none" stroke="#000000" stroke-width="0.500" d="M32.200 19.270h0.001" />
<path fill="none" stroke="#000000" stroke-width="0.350" d="M30.200 19.270L34.200 19.270" />
<path fill="none" stroke="#000000" stroke-width="0.350" d="M32.200 17.270L32.200 21.270" />
<path fill="#ffffff" stroke="none" d="M33.000 19.270C33.000 19.482 32.916 19.686 32.766 19.836C32.616 19.986 32.412 20.070 32.200 20.070C31.988 20.070 31.784 19.986 31.634 19.836C31.484 19.686 31.400 19.482 31.400 19.270C31.400 19.058 31.484 18.854 31.634 18.704C31.784 18.554 31.988 18.470 32.200 18.470C32.412 18.470 32.616 18.554 32.766 18.704C32.916 18.854 33.000 19.058 33.000 19.270Z" />
<path fill="none" stroke="#000000" stroke-width="0.500" d="M32.200 19.270h0.001" />
<path fill="none" stroke="#000000" stroke-width="0.350" d="M0.780 2.260L4.780 2.260" />
<path fill="none" stroke="#000000" stroke-width="0.350" d="M2.780 0.260L2.780 4.260" />
<path fill="#ffffff" stroke="none" d="M3.580 2.260C3.580 2.472 3.496 2.676 3.346 2.826C3.196 2.976 2.992 3.060 2.780 3.060C2.568 3.060 2.364 2.976 2.214 2.826C2.064 2.676 1.980 2.472 1.980 2.260C1.980 2.048 2.064 1.844 2.214 1.694C2.364 1.544 2.568 1.460 2.780 1.460C2.992 1.460 3.196 1.544 3.346 1.694C3.496 1.844 3.580 2.048 3.580 2.260Z" />
<path fill="none" stroke="#000000" stroke-width="0.500" d="M2.780 2.260h0.001" />
</g>
<g id="X_aaaaaaa_fallsrd.svg">
<text font-family="cmss10" font-size="6.974" fill="black" stroke="none" transform="matrix(1.000 0.000 -0.000 -1.000 45.095 29.615)">&#x32;</text>
<text font-family="cmss10" font-size="6.974" fill="black" stroke="none" transform="matrix(1.000 0.000 -0.000 -1.000 21.625 3.535)">&#x31;</text>
<text font-family="cmss10" font-size="6.974" fill="black" stroke="none" transform="matrix(1.000 0.000 -0.000 -1.000 31.945 14.985)">&#x33;</text>
<text font-family="cmss10" font-size="6.974" fill="black" stroke="none" transform="matrix(1.000 0.000 -0.000 -1.000 31.945 14.985)">&#x34;</text>
<text font-family="cmss10" font-size="6.974" fill="black" stroke="none" transform="matrix(1.000 0.000 -0.000 -1.000 30.075 17.145)">&#x35;</text>
<text font-family="cmss10" font-size="6.974" fill="black" stroke="none" transform="matrix(1.000 0.000 -0.000 -1.000 30.075 17.145)">&#x36;</text>
<text font-family="cmss10" font-size="6.974" fill="black" stroke="none" transform="matrix(1.000 0.000 -0.000 -1.000 0.655 0.135)">&#x37;</text>
</g>
<clipPath id="clip_viewBox">
<path d="M-75.570 -60.087L33.123 -60.087L33.123 34.606L-75.570 34.606z" />
</clipPath>
</defs>
<g transform="scale(1,-1)" fill="#000000" stroke="#000000" stroke-linecap="round" stroke-linejoin="round" stroke-miterlimit="10" fill-rule="evenodd" clip-rule="evenodd" clip-path="url(#clip_viewBox)">
<use x="-47.224" y="-31.740" xlink:href="#E_aaaaaaa_fallsrd.svg" />
<use x="-44.224" y="-28.740" xlink:href="#X_aaaaaaa_fallsrd.svg" />
</g>
</svg>
