<?xml version="1.0" encoding="ISO-8859-1"?>
<svg version="1.1" baseProfile="full"
xmlns="http://www.w3.org/2000/svg"
xmlns:xlink="http://www.w3.org/1999/xlink"
xmlns:ev="http://www.w3.org/2001/xml-events"
width="540.280mm" height="466.200mm"
viewBox="0 0 540.280 466.200">
<title>monatip3</title>
<g transform="translate(5.000 461.200)">
<g id="Legs" stroke="black" fill="none" stroke-width="0.4px">
<path d="M200.000 -238.720L220.840 -256.200"/>
<path d="M220.840 -256.200L243.840 -256.200"/>
<path d="M243.840 -256.200L258.640 -237.280"/>
<path d="M258.640 -237.280L272.040 -239.400"/>
<path d="M272.040 -239.400L293.000 -218.480"/>
<path d="M293.000 -218.480L301.640 -200.000"/>
<path d="M301.640 -200.000L330.280 -207.680"/>
</g>
<g id="Labels" font-size="0.600em">
<text transform="translate(200.000 -238.720)">monatip3.37</text>
<text transform="translate(220.840 -256.200)">monatip3.38</text>
<text transform="translate(243.840 -256.200)">monatip3.39</text>
<text transform="translate(258.640 -237.280)">monatip3.40</text>
<text transform="translate(272.040 -239.400)">monatip3.41</text>
<text transform="translate(293.000 -218.480)">monatip3.42</text>
<text transform="translate(301.640 -200.000)">monatip3.43</text>
<text transform="translate(330.280 -207.680)">monatip3.44</text>
</g>
<g id="Stations" stroke="black" fill="none" stroke-width="0.05px">
<circle id="monatip3.37" cx="200.000" cy="-238.720" r="1.131"/>
<path d="M199.200 -239.520L200.800 -237.920M200.800 -239.520L199.200 -237.920"/>
<circle id="monatip3.38" cx="220.840" cy="-256.200" r="1.131"/>
<path d="M220.040 -257.000L221.640 -255.400M221.640 -257.000L220.040 -255.400"/>
<circle id="monatip3.39" cx="243.840" cy="-256.200" r="1.131"/>
<path d="M243.040 -257.000L244.640 -255.400M244.640 -257.000L243.040 -255.400"/>
<circle id="monatip3.40" cx="258.640" cy="-237.280" r="1.131"/>
<path d="M257.840 -238.080L259.440 -236.480M259.440 -238.080L257.840 -236.480"/>
<circle id="monatip3.41" cx="272.040" cy="-239.400" r="1.131"/>
<path d="M271.240 -240.200L272.840 -238.600M272.840 -240.200L271.240 -238.600"/>
<circle id="monatip3.42" cx="293.000" cy="-218.480" r="1.131"/>
<path d="M292.200 -219.280L293.800 -217.680M293.800 -219.280L292.200 -217.680"/>
<circle id="monatip3.43" cx="301.640" cy="-200.000" r="1.131"/>
<path d="M300.840 -200.800L302.440 -199.200M302.440 -200.800L300.840 -199.200"/>
<circle id="monatip3.44" cx="330.280" cy="-207.680" r="1.131"/>
<path d="M329.480 -208.480L331.080 -206.880M331.080 -208.480L329.480 -206.880"/>
</g>
</g>
</svg>
