<?xml version="1.0" encoding="utf-8" standalone="no"?>
<!-- Generated by Therion 5.4.1+? (compiled on 2018-06-25) -->
<!DOCTYPE svg PUBLIC "-//W3C//DTD SVG 1.1//EN" "http://www.w3.org/Graphics/SVG/1.1/DTD/svg11.dtd">
<svg width="18.157cm" height="23.837cm" viewBox="-349.080 -417.129 514.693 675.693" xmlns="http://www.w3.org/2000/svg" xmlns:xlink="http://www.w3.org/1999/xlink">
<defs>
<g id="F_aaaaaaa_leprachaun.svg">
</g>
<g id="G_aaaaaaa_leprachaun.svg">
</g>
<g id="B_aaaaaaa_leprachaun.svg">
</g>
<g id="I_aaaaaaa_leprachaun.svg">
</g>
<g id="E_aaaaaaa_leprachaun.svg">
<path fill="none" stroke="#000000" stroke-width="0.500" d="M320.730 230.220L301.800 251.250" />
<path fill="none" stroke="#000000" stroke-width="0.500" d="M320.730 230.220L337.970 209.690" />
<path fill="none" stroke="#000000" stroke-width="0.500" d="M337.970 209.690L344.370 209.980" />
<path fill="none" stroke="#000000" stroke-width="0.500" d="M337.970 209.690L320.730 230.220" />
<path fill="none" stroke="#000000" stroke-width="0.500" d="M301.800 251.250L316.710 278.180" />
<path fill="none" stroke="#000000" stroke-width="0.500" d="M301.800 251.250L320.730 230.220" />
<path fill="none" stroke="#000000" stroke-width="0.500" d="M316.710 278.180L280.140 303.800" />
<path fill="none" stroke="#000000" stroke-width="0.500" d="M316.710 278.180L301.800 251.250" />
<path fill="none" stroke="#000000" stroke-width="0.500" d="M280.140 303.800L275.720 320.190" />
<path fill="none" stroke="#000000" stroke-width="0.500" d="M280.140 303.800L316.710 278.180" />
<path fill="none" stroke="#000000" stroke-width="0.500" d="M275.720 320.190L263.980 347.910" />
<path fill="none" stroke="#000000" stroke-width="0.500" d="M275.720 320.190L280.140 303.800" />
<path fill="none" stroke="#000000" stroke-width="0.500" d="M263.980 347.910L254.010 378.470" />
<path fill="none" stroke="#000000" stroke-width="0.500" d="M263.980 347.910L275.720 320.190" />
<path fill="none" stroke="#000000" stroke-width="0.500" d="M254.010 378.470L255.250 392.470" />
<path fill="none" stroke="#000000" stroke-width="0.500" d="M254.010 378.470L263.980 347.910" />
<path fill="none" stroke="#000000" stroke-width="0.500" d="M255.250 392.470L248.280 416.740" />
<path fill="none" stroke="#000000" stroke-width="0.500" d="M255.250 392.470L254.010 378.470" />
<path fill="none" stroke="#000000" stroke-width="0.500" d="M248.280 416.740L228.040 483.070" />
<path fill="none" stroke="#000000" stroke-width="0.500" d="M248.280 416.740L255.250 392.470" />
<path fill="none" stroke="#000000" stroke-width="0.500" d="M228.040 483.070L200.320 579.730" />
<path fill="none" stroke="#000000" stroke-width="0.500" d="M228.040 483.070L248.280 416.740" />
<path fill="none" stroke="#000000" stroke-width="0.500" d="M200.320 579.730L162.050 612.950" />
<path fill="none" stroke="#000000" stroke-width="0.500" d="M200.320 579.730L228.040 483.070" />
<path fill="none" stroke="#000000" stroke-width="0.500" d="M162.050 612.950L140.900 554.840" />
<path fill="none" stroke="#000000" stroke-width="0.500" d="M162.050 612.950L200.320 579.730" />
<path fill="none" stroke="#000000" stroke-width="0.500" d="M140.900 554.840L88.410 494.460" />
<path fill="none" stroke="#000000" stroke-width="0.500" d="M140.900 554.840L162.050 612.950" />
<path fill="none" stroke="#000000" stroke-width="0.500" d="M88.410 494.460L48.780 504.330" />
<path fill="none" stroke="#000000" stroke-width="0.500" d="M88.410 494.460L140.900 554.840" />
<path fill="none" stroke="#000000" stroke-width="0.500" d="M48.780 504.330L28.140 520.490" />
<path fill="none" stroke="#000000" stroke-width="0.500" d="M48.780 504.330L88.410 494.460" />
<path fill="none" stroke="#000000" stroke-width="0.500" d="M28.140 520.490L2.690 528.250" />
<path fill="none" stroke="#000000" stroke-width="0.500" d="M28.140 520.490L48.780 504.330" />
<path fill="none" stroke="#000000" stroke-width="0.500" d="M2.690 528.250L28.140 520.490" />
<path fill="none" stroke="#000000" stroke-width="0.500" d="M344.370 209.980L343.470 195.070" />
<path fill="none" stroke="#000000" stroke-width="0.500" d="M344.370 209.980L337.970 209.690" />
<path fill="none" stroke="#000000" stroke-width="0.500" d="M343.470 195.070L356.960 168.540" />
<path fill="none" stroke="#000000" stroke-width="0.500" d="M343.470 195.070L344.370 209.980" />
<path fill="none" stroke="#000000" stroke-width="0.500" d="M356.960 168.540L350.950 159.690" />
<path fill="none" stroke="#000000" stroke-width="0.500" d="M356.960 168.540L343.470 195.070" />
<path fill="none" stroke="#000000" stroke-width="0.500" d="M350.950 159.690L378.620 151.750" />
<path fill="none" stroke="#000000" stroke-width="0.500" d="M350.950 159.690L356.960 168.540" />
<path fill="none" stroke="#000000" stroke-width="0.500" d="M378.620 151.750L378.620 151.750" />
<path fill="none" stroke="#000000" stroke-width="0.500" d="M378.620 151.750L350.950 159.690" />
<path fill="none" stroke="#000000" stroke-width="0.500" d="M378.620 151.750L381.960 145.970" />
<path fill="none" stroke="#000000" stroke-width="0.500" d="M378.620 151.750L378.620 151.750" />
<path fill="none" stroke="#000000" stroke-width="0.500" d="M381.960 145.970L361.440 171.260" />
<path fill="none" stroke="#000000" stroke-width="0.500" d="M381.960 145.970L378.620 151.750" />
<path fill="none" stroke="#000000" stroke-width="0.500" d="M361.440 171.260L364.100 141.100" />
<path fill="none" stroke="#000000" stroke-width="0.500" d="M361.440 171.260L381.960 145.970" />
<path fill="none" stroke="#000000" stroke-width="0.500" d="M364.100 141.100L384.400 102.890" />
<path fill="none" stroke="#000000" stroke-width="0.500" d="M364.100 141.100L361.440 171.260" />
<path fill="none" stroke="#000000" stroke-width="0.500" d="M384.400 102.890L383.040 64.280" />
<path fill="none" stroke="#000000" stroke-width="0.500" d="M384.400 102.890L364.100 141.100" />
<path fill="none" stroke="#000000" stroke-width="0.500" d="M383.040 64.280L426.180 34.060" />
<path fill="none" stroke="#000000" stroke-width="0.500" d="M383.040 64.280L384.400 102.890" />
<path fill="none" stroke="#000000" stroke-width="0.500" d="M426.180 34.060L413.090 46.700" />
<path fill="none" stroke="#000000" stroke-width="0.500" d="M426.180 34.060L383.040 64.280" />
<path fill="none" stroke="#000000" stroke-width="0.500" d="M413.090 46.700L428.560 36.270" />
<path fill="none" stroke="#000000" stroke-width="0.500" d="M413.090 46.700L426.180 34.060" />
<path fill="none" stroke="#000000" stroke-width="0.500" d="M428.560 36.270L449.310 3.050" />
<path fill="none" stroke="#000000" stroke-width="0.500" d="M428.560 36.270L413.090 46.700" />
<path fill="none" stroke="#000000" stroke-width="0.500" d="M449.310 3.050L428.560 36.270" />
<path fill="none" stroke="#000000" stroke-width="0.350" d="M318.730 230.220L322.730 230.220" />
<path fill="none" stroke="#000000" stroke-width="0.350" d="M320.730 228.220L320.730 232.220" />
<path fill="#ffffff" stroke="none" d="M321.530 230.220C321.530 230.432 321.446 230.636 321.296 230.786C321.146 230.936 320.942 231.020 320.730 231.020C320.518 231.020 320.314 230.936 320.164 230.786C320.014 230.636 319.930 230.432 319.930 230.220C319.930 230.008 320.014 229.804 320.164 229.654C320.314 229.504 320.518 229.420 320.730 229.420C320.942 229.420 321.146 229.504 321.296 229.654C321.446 229.804 321.530 230.008 321.530 230.220Z" />
<path fill="none" stroke="#000000" stroke-width="0.500" d="M320.730 230.220h0.001" />
<path fill="none" stroke="#000000" stroke-width="0.350" d="M335.970 209.690L339.970 209.690" />
<path fill="none" stroke="#000000" stroke-width="0.350" d="M337.970 207.690L337.970 211.690" />
<path fill="#ffffff" stroke="none" d="M338.770 209.690C338.770 209.902 338.686 210.106 338.536 210.256C338.386 210.406 338.182 210.490 337.970 210.490C337.758 210.490 337.554 210.406 337.404 210.256C337.254 210.106 337.170 209.902 337.170 209.690C337.170 209.478 337.254 209.274 337.404 209.124C337.554 208.974 337.758 208.890 337.970 208.890C338.182 208.890 338.386 208.974 338.536 209.124C338.686 209.274 338.770 209.478 338.770 209.690Z" />
<path fill="none" stroke="#000000" stroke-width="0.500" d="M337.970 209.690h0.001" />
<path fill="none" stroke="#000000" stroke-width="0.350" d="M299.800 251.250L303.800 251.250" />
<path fill="none" stroke="#000000" stroke-width="0.350" d="M301.800 249.250L301.800 253.250" />
<path fill="#ffffff" stroke="none" d="M302.600 251.250C302.600 251.462 302.516 251.666 302.366 251.816C302.216 251.966 302.012 252.050 301.800 252.050C301.588 252.050 301.384 251.966 301.234 251.816C301.084 251.666 301.000 251.462 301.000 251.250C301.000 251.038 301.084 250.834 301.234 250.684C301.384 250.534 301.588 250.450 301.800 250.450C302.012 250.450 302.216 250.534 302.366 250.684C302.516 250.834 302.600 251.038 302.600 251.250Z" />
<path fill="none" stroke="#000000" stroke-width="0.500" d="M301.800 251.250h0.001" />
<path fill="none" stroke="#000000" stroke-width="0.350" d="M314.710 278.180L318.710 278.180" />
<path fill="none" stroke="#000000" stroke-width="0.350" d="M316.710 276.180L316.710 280.180" />
<path fill="#ffffff" stroke="none" d="M317.510 278.180C317.510 278.392 317.426 278.596 317.276 278.746C317.126 278.896 316.922 278.980 316.710 278.980C316.498 278.980 316.294 278.896 316.144 278.746C315.994 278.596 315.910 278.392 315.910 278.180C315.910 277.968 315.994 277.764 316.144 277.614C316.294 277.464 316.498 277.380 316.710 277.380C316.922 277.380 317.126 277.464 317.276 277.614C317.426 277.764 317.510 277.968 317.510 278.180Z" />
<path fill="none" stroke="#000000" stroke-width="0.500" d="M316.710 278.180h0.001" />
<path fill="none" stroke="#000000" stroke-width="0.350" d="M278.140 303.800L282.140 303.800" />
<path fill="none" stroke="#000000" stroke-width="0.350" d="M280.140 301.800L280.140 305.800" />
<path fill="#ffffff" stroke="none" d="M280.940 303.800C280.940 304.012 280.856 304.216 280.706 304.366C280.556 304.516 280.352 304.600 280.140 304.600C279.928 304.600 279.724 304.516 279.574 304.366C279.424 304.216 279.340 304.012 279.340 303.800C279.340 303.588 279.424 303.384 279.574 303.234C279.724 303.084 279.928 303.000 280.140 303.000C280.352 303.000 280.556 303.084 280.706 303.234C280.856 303.384 280.940 303.588 280.940 303.800Z" />
<path fill="none" stroke="#000000" stroke-width="0.500" d="M280.140 303.800h0.001" />
<path fill="none" stroke="#000000" stroke-width="0.350" d="M273.720 320.190L277.720 320.190" />
<path fill="none" stroke="#000000" stroke-width="0.350" d="M275.720 318.190L275.720 322.190" />
<path fill="#ffffff" stroke="none" d="M276.520 320.190C276.520 320.402 276.436 320.606 276.286 320.756C276.136 320.906 275.932 320.990 275.720 320.990C275.508 320.990 275.304 320.906 275.154 320.756C275.004 320.606 274.920 320.402 274.920 320.190C274.920 319.978 275.004 319.774 275.154 319.624C275.304 319.474 275.508 319.390 275.720 319.390C275.932 319.390 276.136 319.474 276.286 319.624C276.436 319.774 276.520 319.978 276.520 320.190Z" />
<path fill="none" stroke="#000000" stroke-width="0.500" d="M275.720 320.190h0.001" />
<path fill="none" stroke="#000000" stroke-width="0.350" d="M261.980 347.910L265.980 347.910" />
<path fill="none" stroke="#000000" stroke-width="0.350" d="M263.980 345.910L263.980 349.910" />
<path fill="#ffffff" stroke="none" d="M264.780 347.910C264.780 348.122 264.696 348.326 264.546 348.476C264.396 348.626 264.192 348.710 263.980 348.710C263.768 348.710 263.564 348.626 263.414 348.476C263.264 348.326 263.180 348.122 263.180 347.910C263.180 347.698 263.264 347.494 263.414 347.344C263.564 347.194 263.768 347.110 263.980 347.110C264.192 347.110 264.396 347.194 264.546 347.344C264.696 347.494 264.780 347.698 264.780 347.910Z" />
<path fill="none" stroke="#000000" stroke-width="0.500" d="M263.980 347.910h0.001" />
<path fill="none" stroke="#000000" stroke-width="0.350" d="M252.010 378.470L256.010 378.470" />
<path fill="none" stroke="#000000" stroke-width="0.350" d="M254.010 376.470L254.010 380.470" />
<path fill="#ffffff" stroke="none" d="M254.810 378.470C254.810 378.682 254.726 378.886 254.576 379.036C254.426 379.186 254.222 379.270 254.010 379.270C253.798 379.270 253.594 379.186 253.444 379.036C253.294 378.886 253.210 378.682 253.210 378.470C253.210 378.258 253.294 378.054 253.444 377.904C253.594 377.754 253.798 377.670 254.010 377.670C254.222 377.670 254.426 377.754 254.576 377.904C254.726 378.054 254.810 378.258 254.810 378.470Z" />
<path fill="none" stroke="#000000" stroke-width="0.500" d="M254.010 378.470h0.001" />
<path fill="none" stroke="#000000" stroke-width="0.350" d="M253.250 392.470L257.250 392.470" />
<path fill="none" stroke="#000000" stroke-width="0.350" d="M255.250 390.470L255.250 394.470" />
<path fill="#ffffff" stroke="none" d="M256.050 392.470C256.050 392.682 255.966 392.886 255.816 393.036C255.666 393.186 255.462 393.270 255.250 393.270C255.038 393.270 254.834 393.186 254.684 393.036C254.534 392.886 254.450 392.682 254.450 392.470C254.450 392.258 254.534 392.054 254.684 391.904C254.834 391.754 255.038 391.670 255.250 391.670C255.462 391.670 255.666 391.754 255.816 391.904C255.966 392.054 256.050 392.258 256.050 392.470Z" />
<path fill="none" stroke="#000000" stroke-width="0.500" d="M255.250 392.470h0.001" />
<path fill="none" stroke="#000000" stroke-width="0.350" d="M246.280 416.740L250.280 416.740" />
<path fill="none" stroke="#000000" stroke-width="0.350" d="M248.280 414.740L248.280 418.740" />
<path fill="#ffffff" stroke="none" d="M249.080 416.740C249.080 416.952 248.996 417.156 248.846 417.306C248.696 417.456 248.492 417.540 248.280 417.540C248.068 417.540 247.864 417.456 247.714 417.306C247.564 417.156 247.480 416.952 247.480 416.740C247.480 416.528 247.564 416.324 247.714 416.174C247.864 416.024 248.068 415.940 248.280 415.940C248.492 415.940 248.696 416.024 248.846 416.174C248.996 416.324 249.080 416.528 249.080 416.740Z" />
<path fill="none" stroke="#000000" stroke-width="0.500" d="M248.280 416.740h0.001" />
<path fill="none" stroke="#000000" stroke-width="0.350" d="M226.040 483.070L230.040 483.070" />
<path fill="none" stroke="#000000" stroke-width="0.350" d="M228.040 481.070L228.040 485.070" />
<path fill="#ffffff" stroke="none" d="M228.840 483.070C228.840 483.282 228.756 483.486 228.606 483.636C228.456 483.786 228.252 483.870 228.040 483.870C227.828 483.870 227.624 483.786 227.474 483.636C227.324 483.486 227.240 483.282 227.240 483.070C227.240 482.858 227.324 482.654 227.474 482.504C227.624 482.354 227.828 482.270 228.040 482.270C228.252 482.270 228.456 482.354 228.606 482.504C228.756 482.654 228.840 482.858 228.840 483.070Z" />
<path fill="none" stroke="#000000" stroke-width="0.500" d="M228.040 483.070h0.001" />
<path fill="none" stroke="#000000" stroke-width="0.350" d="M198.320 579.730L202.320 579.730" />
<path fill="none" stroke="#000000" stroke-width="0.350" d="M200.320 577.730L200.320 581.730" />
<path fill="#ffffff" stroke="none" d="M201.120 579.730C201.120 579.942 201.036 580.146 200.886 580.296C200.736 580.446 200.532 580.530 200.320 580.530C200.108 580.530 199.904 580.446 199.754 580.296C199.604 580.146 199.520 579.942 199.520 579.730C199.520 579.518 199.604 579.314 199.754 579.164C199.904 579.014 200.108 578.930 200.320 578.930C200.532 578.930 200.736 579.014 200.886 579.164C201.036 579.314 201.120 579.518 201.120 579.730Z" />
<path fill="none" stroke="#000000" stroke-width="0.500" d="M200.320 579.730h0.001" />
<path fill="none" stroke="#000000" stroke-width="0.350" d="M160.050 612.950L164.050 612.950" />
<path fill="none" stroke="#000000" stroke-width="0.350" d="M162.050 610.950L162.050 614.950" />
<path fill="#ffffff" stroke="none" d="M162.850 612.950C162.850 613.162 162.766 613.366 162.616 613.516C162.466 613.666 162.262 613.750 162.050 613.750C161.838 613.750 161.634 613.666 161.484 613.516C161.334 613.366 161.250 613.162 161.250 612.950C161.250 612.738 161.334 612.534 161.484 612.384C161.634 612.234 161.838 612.150 162.050 612.150C162.262 612.150 162.466 612.234 162.616 612.384C162.766 612.534 162.850 612.738 162.850 612.950Z" />
<path fill="none" stroke="#000000" stroke-width="0.500" d="M162.050 612.950h0.001" />
<path fill="none" stroke="#000000" stroke-width="0.350" d="M138.900 554.840L142.900 554.840" />
<path fill="none" stroke="#000000" stroke-width="0.350" d="M140.900 552.840L140.900 556.840" />
<path fill="#ffffff" stroke="none" d="M141.700 554.840C141.700 555.052 141.616 555.256 141.466 555.406C141.316 555.556 141.112 555.640 140.900 555.640C140.688 555.640 140.484 555.556 140.334 555.406C140.184 555.256 140.100 555.052 140.100 554.840C140.100 554.628 140.184 554.424 140.334 554.274C140.484 554.124 140.688 554.040 140.900 554.040C141.112 554.040 141.316 554.124 141.466 554.274C141.616 554.424 141.700 554.628 141.700 554.840Z" />
<path fill="none" stroke="#000000" stroke-width="0.500" d="M140.900 554.840h0.001" />
<path fill="none" stroke="#000000" stroke-width="0.350" d="M86.410 494.460L90.410 494.460" />
<path fill="none" stroke="#000000" stroke-width="0.350" d="M88.410 492.460L88.410 496.460" />
<path fill="#ffffff" stroke="none" d="M89.210 494.460C89.210 494.672 89.126 494.876 88.976 495.026C88.826 495.176 88.622 495.260 88.410 495.260C88.198 495.260 87.994 495.176 87.844 495.026C87.694 494.876 87.610 494.672 87.610 494.460C87.610 494.248 87.694 494.044 87.844 493.894C87.994 493.744 88.198 493.660 88.410 493.660C88.622 493.660 88.826 493.744 88.976 493.894C89.126 494.044 89.210 494.248 89.210 494.460Z" />
<path fill="none" stroke="#000000" stroke-width="0.500" d="M88.410 494.460h0.001" />
<path fill="none" stroke="#000000" stroke-width="0.350" d="M46.780 504.330L50.780 504.330" />
<path fill="none" stroke="#000000" stroke-width="0.350" d="M48.780 502.330L48.780 506.330" />
<path fill="#ffffff" stroke="none" d="M49.580 504.330C49.580 504.542 49.496 504.746 49.346 504.896C49.196 505.046 48.992 505.130 48.780 505.130C48.568 505.130 48.364 505.046 48.214 504.896C48.064 504.746 47.980 504.542 47.980 504.330C47.980 504.118 48.064 503.914 48.214 503.764C48.364 503.614 48.568 503.530 48.780 503.530C48.992 503.530 49.196 503.614 49.346 503.764C49.496 503.914 49.580 504.118 49.580 504.330Z" />
<path fill="none" stroke="#000000" stroke-width="0.500" d="M48.780 504.330h0.001" />
<path fill="none" stroke="#000000" stroke-width="0.350" d="M26.140 520.490L30.140 520.490" />
<path fill="none" stroke="#000000" stroke-width="0.350" d="M28.140 518.490L28.140 522.490" />
<path fill="#ffffff" stroke="none" d="M28.940 520.490C28.940 520.702 28.856 520.906 28.706 521.056C28.556 521.206 28.352 521.290 28.140 521.290C27.928 521.290 27.724 521.206 27.574 521.056C27.424 520.906 27.340 520.702 27.340 520.490C27.340 520.278 27.424 520.074 27.574 519.924C27.724 519.774 27.928 519.690 28.140 519.690C28.352 519.690 28.556 519.774 28.706 519.924C28.856 520.074 28.940 520.278 28.940 520.490Z" />
<path fill="none" stroke="#000000" stroke-width="0.500" d="M28.140 520.490h0.001" />
<path fill="none" stroke="#000000" stroke-width="0.350" d="M0.690 528.250L4.690 528.250" />
<path fill="none" stroke="#000000" stroke-width="0.350" d="M2.690 526.250L2.690 530.250" />
<path fill="#ffffff" stroke="none" d="M3.490 528.250C3.490 528.462 3.406 528.666 3.256 528.816C3.106 528.966 2.902 529.050 2.690 529.050C2.478 529.050 2.274 528.966 2.124 528.816C1.974 528.666 1.890 528.462 1.890 528.250C1.890 528.038 1.974 527.834 2.124 527.684C2.274 527.534 2.478 527.450 2.690 527.450C2.902 527.450 3.106 527.534 3.256 527.684C3.406 527.834 3.490 528.038 3.490 528.250Z" />
<path fill="none" stroke="#000000" stroke-width="0.500" d="M2.690 528.250h0.001" />
<path fill="none" stroke="#000000" stroke-width="0.350" d="M342.370 209.980L346.370 209.980" />
<path fill="none" stroke="#000000" stroke-width="0.350" d="M344.370 207.980L344.370 211.980" />
<path fill="#ffffff" stroke="none" d="M345.170 209.980C345.170 210.192 345.086 210.396 344.936 210.546C344.786 210.696 344.582 210.780 344.370 210.780C344.158 210.780 343.954 210.696 343.804 210.546C343.654 210.396 343.570 210.192 343.570 209.980C343.570 209.768 343.654 209.564 343.804 209.414C343.954 209.264 344.158 209.180 344.370 209.180C344.582 209.180 344.786 209.264 344.936 209.414C345.086 209.564 345.170 209.768 345.170 209.980Z" />
<path fill="none" stroke="#000000" stroke-width="0.500" d="M344.370 209.980h0.001" />
<path fill="none" stroke="#000000" stroke-width="0.350" d="M341.470 195.070L345.470 195.070" />
<path fill="none" stroke="#000000" stroke-width="0.350" d="M343.470 193.070L343.470 197.070" />
<path fill="#ffffff" stroke="none" d="M344.270 195.070C344.270 195.282 344.186 195.486 344.036 195.636C343.886 195.786 343.682 195.870 343.470 195.870C343.258 195.870 343.054 195.786 342.904 195.636C342.754 195.486 342.670 195.282 342.670 195.070C342.670 194.858 342.754 194.654 342.904 194.504C343.054 194.354 343.258 194.270 343.470 194.270C343.682 194.270 343.886 194.354 344.036 194.504C344.186 194.654 344.270 194.858 344.270 195.070Z" />
<path fill="none" stroke="#000000" stroke-width="0.500" d="M343.470 195.070h0.001" />
<path fill="none" stroke="#000000" stroke-width="0.350" d="M354.960 168.540L358.960 168.540" />
<path fill="none" stroke="#000000" stroke-width="0.350" d="M356.960 166.540L356.960 170.540" />
<path fill="#ffffff" stroke="none" d="M357.760 168.540C357.760 168.752 357.676 168.956 357.526 169.106C357.376 169.256 357.172 169.340 356.960 169.340C356.748 169.340 356.544 169.256 356.394 169.106C356.244 168.956 356.160 168.752 356.160 168.540C356.160 168.328 356.244 168.124 356.394 167.974C356.544 167.824 356.748 167.740 356.960 167.740C357.172 167.740 357.376 167.824 357.526 167.974C357.676 168.124 357.760 168.328 357.760 168.540Z" />
<path fill="none" stroke="#000000" stroke-width="0.500" d="M356.960 168.540h0.001" />
<path fill="none" stroke="#000000" stroke-width="0.350" d="M348.950 159.690L352.950 159.690" />
<path fill="none" stroke="#000000" stroke-width="0.350" d="M350.950 157.690L350.950 161.690" />
<path fill="#ffffff" stroke="none" d="M351.750 159.690C351.750 159.902 351.666 160.106 351.516 160.256C351.366 160.406 351.162 160.490 350.950 160.490C350.738 160.490 350.534 160.406 350.384 160.256C350.234 160.106 350.150 159.902 350.150 159.690C350.150 159.478 350.234 159.274 350.384 159.124C350.534 158.974 350.738 158.890 350.950 158.890C351.162 158.890 351.366 158.974 351.516 159.124C351.666 159.274 351.750 159.478 351.750 159.690Z" />
<path fill="none" stroke="#000000" stroke-width="0.500" d="M350.950 159.690h0.001" />
<path fill="none" stroke="#000000" stroke-width="0.350" d="M376.620 151.750L380.620 151.750" />
<path fill="none" stroke="#000000" stroke-width="0.350" d="M378.620 149.750L378.620 153.750" />
<path fill="#ffffff" stroke="none" d="M379.420 151.750C379.420 151.962 379.336 152.166 379.186 152.316C379.036 152.466 378.832 152.550 378.620 152.550C378.408 152.550 378.204 152.466 378.054 152.316C377.904 152.166 377.820 151.962 377.820 151.750C377.820 151.538 377.904 151.334 378.054 151.184C378.204 151.034 378.408 150.950 378.620 150.950C378.832 150.950 379.036 151.034 379.186 151.184C379.336 151.334 379.420 151.538 379.420 151.750Z" />
<path fill="none" stroke="#000000" stroke-width="0.500" d="M378.620 151.750h0.001" />
<path fill="none" stroke="#000000" stroke-width="0.350" d="M376.620 151.750L380.620 151.750" />
<path fill="none" stroke="#000000" stroke-width="0.350" d="M378.620 149.750L378.620 153.750" />
<path fill="#ffffff" stroke="none" d="M379.420 151.750C379.420 151.962 379.336 152.166 379.186 152.316C379.036 152.466 378.832 152.550 378.620 152.550C378.408 152.550 378.204 152.466 378.054 152.316C377.904 152.166 377.820 151.962 377.820 151.750C377.820 151.538 377.904 151.334 378.054 151.184C378.204 151.034 378.408 150.950 378.620 150.950C378.832 150.950 379.036 151.034 379.186 151.184C379.336 151.334 379.420 151.538 379.420 151.750Z" />
<path fill="none" stroke="#000000" stroke-width="0.500" d="M378.620 151.750h0.001" />
<path fill="none" stroke="#000000" stroke-width="0.350" d="M379.960 145.970L383.960 145.970" />
<path fill="none" stroke="#000000" stroke-width="0.350" d="M381.960 143.970L381.960 147.970" />
<path fill="#ffffff" stroke="none" d="M382.760 145.970C382.760 146.182 382.676 146.386 382.526 146.536C382.376 146.686 382.172 146.770 381.960 146.770C381.748 146.770 381.544 146.686 381.394 146.536C381.244 146.386 381.160 146.182 381.160 145.970C381.160 145.758 381.244 145.554 381.394 145.404C381.544 145.254 381.748 145.170 381.960 145.170C382.172 145.170 382.376 145.254 382.526 145.404C382.676 145.554 382.760 145.758 382.760 145.970Z" />
<path fill="none" stroke="#000000" stroke-width="0.500" d="M381.960 145.970h0.001" />
<path fill="none" stroke="#000000" stroke-width="0.350" d="M359.440 171.260L363.440 171.260" />
<path fill="none" stroke="#000000" stroke-width="0.350" d="M361.440 169.260L361.440 173.260" />
<path fill="#ffffff" stroke="none" d="M362.240 171.260C362.240 171.472 362.156 171.676 362.006 171.826C361.856 171.976 361.652 172.060 361.440 172.060C361.228 172.060 361.024 171.976 360.874 171.826C360.724 171.676 360.640 171.472 360.640 171.260C360.640 171.048 360.724 170.844 360.874 170.694C361.024 170.544 361.228 170.460 361.440 170.460C361.652 170.460 361.856 170.544 362.006 170.694C362.156 170.844 362.240 171.048 362.240 171.260Z" />
<path fill="none" stroke="#000000" stroke-width="0.500" d="M361.440 171.260h0.001" />
<path fill="none" stroke="#000000" stroke-width="0.350" d="M362.100 141.100L366.100 141.100" />
<path fill="none" stroke="#000000" stroke-width="0.350" d="M364.100 139.100L364.100 143.100" />
<path fill="#ffffff" stroke="none" d="M364.900 141.100C364.900 141.312 364.816 141.516 364.666 141.666C364.516 141.816 364.312 141.900 364.100 141.900C363.888 141.900 363.684 141.816 363.534 141.666C363.384 141.516 363.300 141.312 363.300 141.100C363.300 140.888 363.384 140.684 363.534 140.534C363.684 140.384 363.888 140.300 364.100 140.300C364.312 140.300 364.516 140.384 364.666 140.534C364.816 140.684 364.900 140.888 364.900 141.100Z" />
<path fill="none" stroke="#000000" stroke-width="0.500" d="M364.100 141.100h0.001" />
<path fill="none" stroke="#000000" stroke-width="0.350" d="M382.400 102.890L386.400 102.890" />
<path fill="none" stroke="#000000" stroke-width="0.350" d="M384.400 100.890L384.400 104.890" />
<path fill="#ffffff" stroke="none" d="M385.200 102.890C385.200 103.102 385.116 103.306 384.966 103.456C384.816 103.606 384.612 103.690 384.400 103.690C384.188 103.690 383.984 103.606 383.834 103.456C383.684 103.306 383.600 103.102 383.600 102.890C383.600 102.678 383.684 102.474 383.834 102.324C383.984 102.174 384.188 102.090 384.400 102.090C384.612 102.090 384.816 102.174 384.966 102.324C385.116 102.474 385.200 102.678 385.200 102.890Z" />
<path fill="none" stroke="#000000" stroke-width="0.500" d="M384.400 102.890h0.001" />
<path fill="none" stroke="#000000" stroke-width="0.350" d="M381.040 64.280L385.040 64.280" />
<path fill="none" stroke="#000000" stroke-width="0.350" d="M383.040 62.280L383.040 66.280" />
<path fill="#ffffff" stroke="none" d="M383.840 64.280C383.840 64.492 383.756 64.696 383.606 64.846C383.456 64.996 383.252 65.080 383.040 65.080C382.828 65.080 382.624 64.996 382.474 64.846C382.324 64.696 382.240 64.492 382.240 64.280C382.240 64.068 382.324 63.864 382.474 63.714C382.624 63.564 382.828 63.480 383.040 63.480C383.252 63.480 383.456 63.564 383.606 63.714C383.756 63.864 383.840 64.068 383.840 64.280Z" />
<path fill="none" stroke="#000000" stroke-width="0.500" d="M383.040 64.280h0.001" />
<path fill="none" stroke="#000000" stroke-width="0.350" d="M424.180 34.060L428.180 34.060" />
<path fill="none" stroke="#000000" stroke-width="0.350" d="M426.180 32.060L426.180 36.060" />
<path fill="#ffffff" stroke="none" d="M426.980 34.060C426.980 34.272 426.896 34.476 426.746 34.626C426.596 34.776 426.392 34.860 426.180 34.860C425.968 34.860 425.764 34.776 425.614 34.626C425.464 34.476 425.380 34.272 425.380 34.060C425.380 33.848 425.464 33.644 425.614 33.494C425.764 33.344 425.968 33.260 426.180 33.260C426.392 33.260 426.596 33.344 426.746 33.494C426.896 33.644 426.980 33.848 426.980 34.060Z" />
<path fill="none" stroke="#000000" stroke-width="0.500" d="M426.180 34.060h0.001" />
<path fill="none" stroke="#000000" stroke-width="0.350" d="M411.090 46.700L415.090 46.700" />
<path fill="none" stroke="#000000" stroke-width="0.350" d="M413.090 44.700L413.090 48.700" />
<path fill="#ffffff" stroke="none" d="M413.890 46.700C413.890 46.912 413.806 47.116 413.656 47.266C413.506 47.416 413.302 47.500 413.090 47.500C412.878 47.500 412.674 47.416 412.524 47.266C412.374 47.116 412.290 46.912 412.290 46.700C412.290 46.488 412.374 46.284 412.524 46.134C412.674 45.984 412.878 45.900 413.090 45.900C413.302 45.900 413.506 45.984 413.656 46.134C413.806 46.284 413.890 46.488 413.890 46.700Z" />
<path fill="none" stroke="#000000" stroke-width="0.500" d="M413.090 46.700h0.001" />
<path fill="none" stroke="#000000" stroke-width="0.350" d="M426.560 36.270L430.560 36.270" />
<path fill="none" stroke="#000000" stroke-width="0.350" d="M428.560 34.270L428.560 38.270" />
<path fill="#ffffff" stroke="none" d="M429.360 36.270C429.360 36.482 429.276 36.686 429.126 36.836C428.976 36.986 428.772 37.070 428.560 37.070C428.348 37.070 428.144 36.986 427.994 36.836C427.844 36.686 427.760 36.482 427.760 36.270C427.760 36.058 427.844 35.854 427.994 35.704C428.144 35.554 428.348 35.470 428.560 35.470C428.772 35.470 428.976 35.554 429.126 35.704C429.276 35.854 429.360 36.058 429.360 36.270Z" />
<path fill="none" stroke="#000000" stroke-width="0.500" d="M428.560 36.270h0.001" />
<path fill="none" stroke="#000000" stroke-width="0.350" d="M447.310 3.050L451.310 3.050" />
<path fill="none" stroke="#000000" stroke-width="0.350" d="M449.310 1.050L449.310 5.050" />
<path fill="#ffffff" stroke="none" d="M450.110 3.050C450.110 3.262 450.026 3.466 449.876 3.616C449.726 3.766 449.522 3.850 449.310 3.850C449.098 3.850 448.894 3.766 448.744 3.616C448.594 3.466 448.510 3.262 448.510 3.050C448.510 2.838 448.594 2.634 448.744 2.484C448.894 2.334 449.098 2.250 449.310 2.250C449.522 2.250 449.726 2.334 449.876 2.484C450.026 2.634 450.110 2.838 450.110 3.050Z" />
<path fill="none" stroke="#000000" stroke-width="0.500" d="M449.310 3.050h0.001" />
</g>
<g id="X_aaaaaaa_leprachaun.svg">
<text font-family="cmss10" font-size="6.974" fill="black" stroke="none" transform="matrix(1.000 0.000 -0.000 -1.000 318.605 228.095)">&#x32;</text>
<text font-family="cmss10" font-size="6.974" fill="black" stroke="none" transform="matrix(1.000 0.000 -0.000 -1.000 335.845 207.565)">&#x31;</text>
<text font-family="cmss10" font-size="6.974" fill="black" stroke="none" transform="matrix(1.000 0.000 -0.000 -1.000 299.675 249.125)">&#x33;</text>
<text font-family="cmss10" font-size="6.974" fill="black" stroke="none" transform="matrix(1.000 0.000 -0.000 -1.000 314.585 276.055)">&#x34;</text>
<text font-family="cmss10" font-size="6.974" fill="black" stroke="none" transform="matrix(1.000 0.000 -0.000 -1.000 278.015 301.675)">&#x35;</text>
<text font-family="cmss10" font-size="6.974" fill="black" stroke="none" transform="matrix(1.000 0.000 -0.000 -1.000 273.595 318.065)">&#x36;</text>
<text font-family="cmss10" font-size="6.974" fill="black" stroke="none" transform="matrix(1.000 0.000 -0.000 -1.000 261.855 345.785)">&#x37;</text>
<text font-family="cmss10" font-size="6.974" fill="black" stroke="none" transform="matrix(1.000 0.000 -0.000 -1.000 251.885 376.345)">&#x38;</text>
<text font-family="cmss10" font-size="6.974" fill="black" stroke="none" transform="matrix(1.000 0.000 -0.000 -1.000 253.125 390.345)">&#x39;</text>
<text font-family="cmss10" font-size="6.974" fill="black" stroke="none" transform="matrix(1.000 0.000 -0.000 -1.000 246.155 414.615)">&#x31;&#x30;</text>
<text font-family="cmss10" font-size="6.974" fill="black" stroke="none" transform="matrix(1.000 0.000 -0.000 -1.000 225.915 480.945)">&#x31;&#x31;</text>
<text font-family="cmss10" font-size="6.974" fill="black" stroke="none" transform="matrix(1.000 0.000 -0.000 -1.000 198.195 577.605)">&#x31;&#x32;</text>
<text font-family="cmss10" font-size="6.974" fill="black" stroke="none" transform="matrix(1.000 0.000 -0.000 -1.000 159.925 610.825)">&#x31;&#x33;</text>
<text font-family="cmss10" font-size="6.974" fill="black" stroke="none" transform="matrix(1.000 0.000 -0.000 -1.000 138.775 552.715)">&#x31;&#x34;</text>
<text font-family="cmss10" font-size="6.974" fill="black" stroke="none" transform="matrix(1.000 0.000 -0.000 -1.000 86.285 492.335)">&#x31;&#x35;</text>
<text font-family="cmss10" font-size="6.974" fill="black" stroke="none" transform="matrix(1.000 0.000 -0.000 -1.000 46.655 502.205)">&#x31;&#x36;</text>
<text font-family="cmss10" font-size="6.974" fill="black" stroke="none" transform="matrix(1.000 0.000 -0.000 -1.000 26.015 518.365)">&#x31;&#x37;</text>
<text font-family="cmss10" font-size="6.974" fill="black" stroke="none" transform="matrix(1.000 0.000 -0.000 -1.000 0.565 526.125)">&#x31;&#x38;</text>
<text font-family="cmss10" font-size="6.974" fill="black" stroke="none" transform="matrix(1.000 0.000 -0.000 -1.000 342.245 207.855)">&#x31;&#x39;</text>
<text font-family="cmss10" font-size="6.974" fill="black" stroke="none" transform="matrix(1.000 0.000 -0.000 -1.000 341.345 192.945)">&#x32;&#x30;</text>
<text font-family="cmss10" font-size="6.974" fill="black" stroke="none" transform="matrix(1.000 0.000 -0.000 -1.000 354.835 166.415)">&#x32;&#x31;</text>
<text font-family="cmss10" font-size="6.974" fill="black" stroke="none" transform="matrix(1.000 0.000 -0.000 -1.000 348.825 157.565)">&#x32;&#x32;</text>
<text font-family="cmss10" font-size="6.974" fill="black" stroke="none" transform="matrix(1.000 0.000 -0.000 -1.000 376.495 149.625)">&#x32;&#x33;</text>
<text font-family="cmss10" font-size="6.974" fill="black" stroke="none" transform="matrix(1.000 0.000 -0.000 -1.000 376.495 149.625)">&#x32;&#x34;</text>
<text font-family="cmss10" font-size="6.974" fill="black" stroke="none" transform="matrix(1.000 0.000 -0.000 -1.000 379.835 143.845)">&#x32;&#x35;</text>
<text font-family="cmss10" font-size="6.974" fill="black" stroke="none" transform="matrix(1.000 0.000 -0.000 -1.000 359.315 169.135)">&#x32;&#x36;</text>
<text font-family="cmss10" font-size="6.974" fill="black" stroke="none" transform="matrix(1.000 0.000 -0.000 -1.000 361.975 138.975)">&#x32;&#x37;</text>
<text font-family="cmss10" font-size="6.974" fill="black" stroke="none" transform="matrix(1.000 0.000 -0.000 -1.000 382.275 100.765)">&#x32;&#x38;</text>
<text font-family="cmss10" font-size="6.974" fill="black" stroke="none" transform="matrix(1.000 0.000 -0.000 -1.000 380.915 62.155)">&#x32;&#x39;</text>
<text font-family="cmss10" font-size="6.974" fill="black" stroke="none" transform="matrix(1.000 0.000 -0.000 -1.000 424.055 31.935)">&#x33;&#x30;</text>
<text font-family="cmss10" font-size="6.974" fill="black" stroke="none" transform="matrix(1.000 0.000 -0.000 -1.000 410.965 44.575)">&#x33;&#x31;</text>
<text font-family="cmss10" font-size="6.974" fill="black" stroke="none" transform="matrix(1.000 0.000 -0.000 -1.000 426.435 34.145)">&#x33;&#x32;</text>
<text font-family="cmss10" font-size="6.974" fill="black" stroke="none" transform="matrix(1.000 0.000 -0.000 -1.000 447.185 0.925)">&#x33;&#x33;</text>
</g>
<clipPath id="clip_viewBox">
<path d="M-349.080 -258.564L165.613 -258.564L165.613 417.129L-349.080 417.129z" />
</clipPath>
</defs>
<g transform="scale(1,-1)" fill="#000000" stroke="#000000" stroke-linecap="round" stroke-linejoin="round" stroke-miterlimit="10" fill-rule="evenodd" clip-rule="evenodd" clip-path="url(#clip_viewBox)">
<use x="-320.734" y="-230.217" xlink:href="#E_aaaaaaa_leprachaun.svg" />
<use x="-317.734" y="-227.217" xlink:href="#X_aaaaaaa_leprachaun.svg" />
</g>
</svg>
