<?xml version="1.0" encoding="UTF-8" standalone="no"?>
<svg
   xmlns:dc="http://purl.org/dc/elements/1.1/"
   xmlns:cc="http://creativecommons.org/ns#"
   xmlns:rdf="http://www.w3.org/1999/02/22-rdf-syntax-ns#"
   xmlns:svg="http://www.w3.org/2000/svg"
   xmlns="http://www.w3.org/2000/svg"
   xmlns:sodipodi="http://sodipodi.sourceforge.net/DTD/sodipodi-0.dtd"
   xmlns:inkscape="http://www.inkscape.org/namespaces/inkscape"
   version="1.1"
   width="558.360mm"
   height="592.880mm"
   viewBox="0 0 558.360 592.880"
   id="svg76"
   sodipodi:docname="the_atrium_extend.svg"
   inkscape:version="0.92.2 5c3e80d, 2017-08-06">
  <metadata
     id="metadata82">
    <rdf:RDF>
      <cc:Work
         rdf:about="">
        <dc:format>image/svg+xml</dc:format>
        <dc:type
           rdf:resource="http://purl.org/dc/dcmitype/StillImage" />
      </cc:Work>
    </rdf:RDF>
  </metadata>
  <defs
     id="defs80" />
  <sodipodi:namedview
     pagecolor="#ffffff"
     bordercolor="#666666"
     borderopacity="1"
     objecttolerance="10"
     gridtolerance="10"
     guidetolerance="10"
     inkscape:pageopacity="0"
     inkscape:pageshadow="2"
     inkscape:window-width="1341"
     inkscape:window-height="759"
     id="namedview78"
     showgrid="false"
     inkscape:zoom="0.42127693"
     inkscape:cx="711.84788"
     inkscape:cy="1233.7925"
     inkscape:window-x="0"
     inkscape:window-y="0"
     inkscape:window-maximized="0"
     inkscape:current-layer="Labels" />
  <title
     id="title2">the_atrium</title>
  <g
     transform="translate(5.000 587.880)"
     id="g74">
    <g
       id="Legs"
       stroke="black"
       fill="none"
       stroke-width="0.4px">
      <path
         d="m 183.42554,-370.28 14.52,-12.6"
         id="path4"
         inkscape:connector-curvature="0" />
      <path
         d="m 141.38554,-305.52 42.04,-64.76"
         id="path6"
         inkscape:connector-curvature="0" />
      <path
         d="m 142.7891,-305.52 29.44,4.12"
         id="path8"
         inkscape:connector-curvature="0" />
      <path
         d="m 172.2291,-301.4 30.76,28.76"
         id="path10"
         inkscape:connector-curvature="0" />
      <path
         d="m 202.9891,-272.64 31.6,-6.72"
         id="path12"
         inkscape:connector-curvature="0" />
      <path
         d="m 141.38554,-305.52 -8.96,6.76"
         id="path14"
         inkscape:connector-curvature="0" />
      <path
         d="m 132.42554,-298.76 -6.44,36.36"
         id="path16"
         inkscape:connector-curvature="0" />
      <path
         d="M 125.98554,-262.4 V -200"
         id="path18"
         inkscape:connector-curvature="0" />
    </g>
    <g
       id="Labels"
       font-size="0.600em">
      <text
         transform="translate(200,-382.88)"
         id="text21">9</text>
      <text
         transform="translate(200.000 -382.880)"
         id="text23">stranglehold.8</text>
      <text
         id="text25"
         x="142.25993"
         y="-305.51999">1</text>
      <text
         id="text27"
         x="128.34302"
         y="-298.76001">2</text>
      <text
         id="text29"
         x="121.73775"
         y="-262.39999">3</text>
      <text
         id="text31"
         x="121.76237"
         y="-200">4</text>
      <text
         id="text33"
         x="171.70001"
         y="-301.39999">5</text>
      <text
         id="text35"
         x="202.46008"
         y="-272.64001">6</text>
      <text
         id="text37"
         x="234.06018"
         y="-279.35999">7</text>
      <text
         id="text39"
         x="179.06578"
         y="-370.28">8</text>
    </g>
    <g
       id="Stations"
       stroke="black"
       fill="none"
       stroke-width="0.05px">
      <circle
         id="the_atrium.9"
         cx="200.000"
         cy="-382.880"
         r="1.131" />
      <path
         d="M199.200 -383.680L200.800 -382.080M200.800 -383.680L199.200 -382.080"
         id="path43" />
      <circle
         id="circle45"
         cx="200.000"
         cy="-382.880"
         r="1.131" />
      <path
         d="M199.200 -383.680L200.800 -382.080M200.800 -383.680L199.200 -382.080"
         id="path47" />
      <circle
         id="the_atrium.1"
         cx="256.560"
         cy="-305.520"
         r="1.131" />
      <path
         d="M255.760 -306.320L257.360 -304.720M257.360 -306.320L255.760 -304.720"
         id="path50" />
      <circle
         id="the_atrium.3"
         cx="271.960"
         cy="-262.400"
         r="1.131" />
      <path
         d="M271.160 -263.200L272.760 -261.600M272.760 -263.200L271.160 -261.600"
         id="path56" />
      <circle
         id="the_atrium.4"
         cx="271.960"
         cy="-200.000"
         r="1.131" />
      <path
         d="M271.160 -200.800L272.760 -199.200M272.760 -200.800L271.160 -199.200"
         id="path59" />
      <circle
         id="the_atrium.5"
         cx="286.000"
         cy="-301.400"
         r="1.131" />
      <path
         d="M285.200 -302.200L286.800 -300.600M286.800 -302.200L285.200 -300.600"
         id="path62" />
      <circle
         id="the_atrium.6"
         cx="316.760"
         cy="-272.640"
         r="1.131" />
      <path
         d="M315.960 -273.440L317.560 -271.840M317.560 -273.440L315.960 -271.840"
         id="path65" />
      <circle
         id="the_atrium.7"
         cx="348.360"
         cy="-279.360"
         r="1.131" />
      <path
         d="M347.560 -280.160L349.160 -278.560M349.160 -280.160L347.560 -278.560"
         id="path68" />
      <circle
         id="the_atrium.8"
         cx="214.520"
         cy="-370.280"
         r="1.131" />
    </g>
  </g>
</svg>
