<?xml version="1.0" encoding="utf-8" standalone="no"?>
<!-- Generated by Therion 5.4.1+? (compiled on 2018-06-25) -->
<!DOCTYPE svg PUBLIC "-//W3C//DTD SVG 1.1//EN" "http://www.w3.org/Graphics/SVG/1.1/DTD/svg11.dtd">
<svg width="4.611cm" height="3.446cm" viewBox="-97.625 -34.954 130.693 97.693" xmlns="http://www.w3.org/2000/svg" xmlns:xlink="http://www.w3.org/1999/xlink">
<defs>
<g id="F_aaaaaaa_candyMountain.svg">
</g>
<g id="G_aaaaaaa_candyMountain.svg">
</g>
<g id="B_aaaaaaa_candyMountain.svg">
</g>
<g id="I_aaaaaaa_candyMountain.svg">
</g>
<g id="E_aaaaaaa_candyMountain.svg">
<path fill="none" stroke="#000000" stroke-width="0.500" d="M69.280 34.390L64.520 15.290" />
<path fill="none" stroke="#000000" stroke-width="0.500" d="M64.520 15.290L64.520 15.290" />
<path fill="none" stroke="#000000" stroke-width="0.500" d="M64.520 15.290L69.280 34.390" />
<path fill="none" stroke="#000000" stroke-width="0.500" d="M64.520 15.290L64.520 15.290" />
<path fill="none" stroke="#000000" stroke-width="0.500" d="M64.520 15.290L64.520 15.290" />
<path fill="none" stroke="#000000" stroke-width="0.500" d="M64.520 15.290L64.520 15.290" />
<path fill="none" stroke="#000000" stroke-width="0.500" d="M64.520 15.290L64.520 15.290" />
<path fill="none" stroke="#000000" stroke-width="0.500" d="M64.520 15.290L61.630 3.660" />
<path fill="none" stroke="#000000" stroke-width="0.500" d="M64.520 15.290L64.520 15.290" />
<path fill="none" stroke="#000000" stroke-width="0.500" d="M61.630 3.660L47.340 3.150" />
<path fill="none" stroke="#000000" stroke-width="0.500" d="M61.630 3.660L64.520 15.290" />
<path fill="none" stroke="#000000" stroke-width="0.500" d="M47.340 3.150L31.460 10.580" />
<path fill="none" stroke="#000000" stroke-width="0.500" d="M47.340 3.150L61.630 3.660" />
<path fill="none" stroke="#000000" stroke-width="0.500" d="M31.460 10.580L14.170 7.800" />
<path fill="none" stroke="#000000" stroke-width="0.500" d="M31.460 10.580L47.340 3.150" />
<path fill="none" stroke="#000000" stroke-width="0.500" d="M14.170 7.800L2.720 34.850" />
<path fill="none" stroke="#000000" stroke-width="0.500" d="M14.170 7.800L31.460 10.580" />
<path fill="none" stroke="#000000" stroke-width="0.500" d="M2.720 34.850L7.990 27.820" />
<path fill="none" stroke="#000000" stroke-width="0.500" d="M2.720 34.850L14.170 7.800" />
<path fill="none" stroke="#000000" stroke-width="0.500" d="M7.990 27.820L2.720 34.850" />
<path fill="none" stroke="#000000" stroke-width="0.350" d="M67.280 34.390L71.280 34.390" />
<path fill="none" stroke="#000000" stroke-width="0.350" d="M69.280 32.390L69.280 36.390" />
<path fill="#ffffff" stroke="none" d="M70.080 34.390C70.080 34.602 69.996 34.806 69.846 34.956C69.696 35.106 69.492 35.190 69.280 35.190C69.068 35.190 68.864 35.106 68.714 34.956C68.564 34.806 68.480 34.602 68.480 34.390C68.480 34.178 68.564 33.974 68.714 33.824C68.864 33.674 69.068 33.590 69.280 33.590C69.492 33.590 69.696 33.674 69.846 33.824C69.996 33.974 70.080 34.178 70.080 34.390Z" />
<path fill="none" stroke="#000000" stroke-width="0.500" d="M69.280 34.390h0.001" />
<path fill="none" stroke="#000000" stroke-width="0.350" d="M62.520 15.290L66.520 15.290" />
<path fill="none" stroke="#000000" stroke-width="0.350" d="M64.520 13.290L64.520 17.290" />
<path fill="#ffffff" stroke="none" d="M65.320 15.290C65.320 15.502 65.236 15.706 65.086 15.856C64.936 16.006 64.732 16.090 64.520 16.090C64.308 16.090 64.104 16.006 63.954 15.856C63.804 15.706 63.720 15.502 63.720 15.290C63.720 15.078 63.804 14.874 63.954 14.724C64.104 14.574 64.308 14.490 64.520 14.490C64.732 14.490 64.936 14.574 65.086 14.724C65.236 14.874 65.320 15.078 65.320 15.290Z" />
<path fill="none" stroke="#000000" stroke-width="0.500" d="M64.520 15.290h0.001" />
<path fill="none" stroke="#000000" stroke-width="0.350" d="M62.520 15.290L66.520 15.290" />
<path fill="none" stroke="#000000" stroke-width="0.350" d="M64.520 13.290L64.520 17.290" />
<path fill="#ffffff" stroke="none" d="M65.320 15.290C65.320 15.502 65.236 15.706 65.086 15.856C64.936 16.006 64.732 16.090 64.520 16.090C64.308 16.090 64.104 16.006 63.954 15.856C63.804 15.706 63.720 15.502 63.720 15.290C63.720 15.078 63.804 14.874 63.954 14.724C64.104 14.574 64.308 14.490 64.520 14.490C64.732 14.490 64.936 14.574 65.086 14.724C65.236 14.874 65.320 15.078 65.320 15.290Z" />
<path fill="none" stroke="#000000" stroke-width="0.500" d="M64.520 15.290h0.001" />
<path fill="none" stroke="#000000" stroke-width="0.350" d="M62.520 15.290L66.520 15.290" />
<path fill="none" stroke="#000000" stroke-width="0.350" d="M64.520 13.290L64.520 17.290" />
<path fill="#ffffff" stroke="none" d="M65.320 15.290C65.320 15.502 65.236 15.706 65.086 15.856C64.936 16.006 64.732 16.090 64.520 16.090C64.308 16.090 64.104 16.006 63.954 15.856C63.804 15.706 63.720 15.502 63.720 15.290C63.720 15.078 63.804 14.874 63.954 14.724C64.104 14.574 64.308 14.490 64.520 14.490C64.732 14.490 64.936 14.574 65.086 14.724C65.236 14.874 65.320 15.078 65.320 15.290Z" />
<path fill="none" stroke="#000000" stroke-width="0.500" d="M64.520 15.290h0.001" />
<path fill="none" stroke="#000000" stroke-width="0.350" d="M62.520 15.290L66.520 15.290" />
<path fill="none" stroke="#000000" stroke-width="0.350" d="M64.520 13.290L64.520 17.290" />
<path fill="#ffffff" stroke="none" d="M65.320 15.290C65.320 15.502 65.236 15.706 65.086 15.856C64.936 16.006 64.732 16.090 64.520 16.090C64.308 16.090 64.104 16.006 63.954 15.856C63.804 15.706 63.720 15.502 63.720 15.290C63.720 15.078 63.804 14.874 63.954 14.724C64.104 14.574 64.308 14.490 64.520 14.490C64.732 14.490 64.936 14.574 65.086 14.724C65.236 14.874 65.320 15.078 65.320 15.290Z" />
<path fill="none" stroke="#000000" stroke-width="0.500" d="M64.520 15.290h0.001" />
<path fill="none" stroke="#000000" stroke-width="0.350" d="M59.630 3.660L63.630 3.660" />
<path fill="none" stroke="#000000" stroke-width="0.350" d="M61.630 1.660L61.630 5.660" />
<path fill="#ffffff" stroke="none" d="M62.430 3.660C62.430 3.872 62.346 4.076 62.196 4.226C62.046 4.376 61.842 4.460 61.630 4.460C61.418 4.460 61.214 4.376 61.064 4.226C60.914 4.076 60.830 3.872 60.830 3.660C60.830 3.448 60.914 3.244 61.064 3.094C61.214 2.944 61.418 2.860 61.630 2.860C61.842 2.860 62.046 2.944 62.196 3.094C62.346 3.244 62.430 3.448 62.430 3.660Z" />
<path fill="none" stroke="#000000" stroke-width="0.500" d="M61.630 3.660h0.001" />
<path fill="none" stroke="#000000" stroke-width="0.350" d="M45.340 3.150L49.340 3.150" />
<path fill="none" stroke="#000000" stroke-width="0.350" d="M47.340 1.150L47.340 5.150" />
<path fill="#ffffff" stroke="none" d="M48.140 3.150C48.140 3.362 48.056 3.566 47.906 3.716C47.756 3.866 47.552 3.950 47.340 3.950C47.128 3.950 46.924 3.866 46.774 3.716C46.624 3.566 46.540 3.362 46.540 3.150C46.540 2.938 46.624 2.734 46.774 2.584C46.924 2.434 47.128 2.350 47.340 2.350C47.552 2.350 47.756 2.434 47.906 2.584C48.056 2.734 48.140 2.938 48.140 3.150Z" />
<path fill="none" stroke="#000000" stroke-width="0.500" d="M47.340 3.150h0.001" />
<path fill="none" stroke="#000000" stroke-width="0.350" d="M29.460 10.580L33.460 10.580" />
<path fill="none" stroke="#000000" stroke-width="0.350" d="M31.460 8.580L31.460 12.580" />
<path fill="#ffffff" stroke="none" d="M32.260 10.580C32.260 10.792 32.176 10.996 32.026 11.146C31.876 11.296 31.672 11.380 31.460 11.380C31.248 11.380 31.044 11.296 30.894 11.146C30.744 10.996 30.660 10.792 30.660 10.580C30.660 10.368 30.744 10.164 30.894 10.014C31.044 9.864 31.248 9.780 31.460 9.780C31.672 9.780 31.876 9.864 32.026 10.014C32.176 10.164 32.260 10.368 32.260 10.580Z" />
<path fill="none" stroke="#000000" stroke-width="0.500" d="M31.460 10.580h0.001" />
<path fill="none" stroke="#000000" stroke-width="0.350" d="M12.170 7.800L16.170 7.800" />
<path fill="none" stroke="#000000" stroke-width="0.350" d="M14.170 5.800L14.170 9.800" />
<path fill="#ffffff" stroke="none" d="M14.970 7.800C14.970 8.012 14.886 8.216 14.736 8.366C14.586 8.516 14.382 8.600 14.170 8.600C13.958 8.600 13.754 8.516 13.604 8.366C13.454 8.216 13.370 8.012 13.370 7.800C13.370 7.588 13.454 7.384 13.604 7.234C13.754 7.084 13.958 7.000 14.170 7.000C14.382 7.000 14.586 7.084 14.736 7.234C14.886 7.384 14.970 7.588 14.970 7.800Z" />
<path fill="none" stroke="#000000" stroke-width="0.500" d="M14.170 7.800h0.001" />
<path fill="none" stroke="#000000" stroke-width="0.350" d="M0.720 34.850L4.720 34.850" />
<path fill="none" stroke="#000000" stroke-width="0.350" d="M2.720 32.850L2.720 36.850" />
<path fill="#ffffff" stroke="none" d="M3.520 34.850C3.520 35.062 3.436 35.266 3.286 35.416C3.136 35.566 2.932 35.650 2.720 35.650C2.508 35.650 2.304 35.566 2.154 35.416C2.004 35.266 1.920 35.062 1.920 34.850C1.920 34.638 2.004 34.434 2.154 34.284C2.304 34.134 2.508 34.050 2.720 34.050C2.932 34.050 3.136 34.134 3.286 34.284C3.436 34.434 3.520 34.638 3.520 34.850Z" />
<path fill="none" stroke="#000000" stroke-width="0.500" d="M2.720 34.850h0.001" />
<path fill="none" stroke="#000000" stroke-width="0.350" d="M5.990 27.820L9.990 27.820" />
<path fill="none" stroke="#000000" stroke-width="0.350" d="M7.990 25.820L7.990 29.820" />
<path fill="#ffffff" stroke="none" d="M8.790 27.820C8.790 28.032 8.706 28.236 8.556 28.386C8.406 28.536 8.202 28.620 7.990 28.620C7.778 28.620 7.574 28.536 7.424 28.386C7.274 28.236 7.190 28.032 7.190 27.820C7.190 27.608 7.274 27.404 7.424 27.254C7.574 27.104 7.778 27.020 7.990 27.020C8.202 27.020 8.406 27.104 8.556 27.254C8.706 27.404 8.790 27.608 8.790 27.820Z" />
<path fill="none" stroke="#000000" stroke-width="0.500" d="M7.990 27.820h0.001" />
</g>
<g id="X_aaaaaaa_candyMountain.svg">
<text font-family="cmss10" font-size="6.974" fill="black" stroke="none" transform="matrix(1.000 0.000 -0.000 -1.000 67.155 31.265)">&#x31;</text>
<text font-family="cmss10" font-size="6.974" fill="black" stroke="none" transform="matrix(1.000 0.000 -0.000 -1.000 62.395 12.165)">&#x32;</text>
<text font-family="cmss10" font-size="6.974" fill="black" stroke="none" transform="matrix(1.000 0.000 -0.000 -1.000 62.395 12.165)">&#x33;</text>
<text font-family="cmss10" font-size="6.974" fill="black" stroke="none" transform="matrix(1.000 0.000 -0.000 -1.000 62.395 12.165)">&#x34;</text>
<text font-family="cmss10" font-size="6.974" fill="black" stroke="none" transform="matrix(1.000 0.000 -0.000 -1.000 62.395 12.165)">&#x35;</text>
<text font-family="cmss10" font-size="6.974" fill="black" stroke="none" transform="matrix(1.000 0.000 -0.000 -1.000 59.505 0.535)">&#x36;</text>
<text font-family="cmss10" font-size="6.974" fill="black" stroke="none" transform="matrix(1.000 0.000 -0.000 -1.000 45.215 0.025)">&#x37;</text>
<text font-family="cmss10" font-size="6.974" fill="black" stroke="none" transform="matrix(1.000 0.000 -0.000 -1.000 29.335 7.455)">&#x38;</text>
<text font-family="cmss10" font-size="6.974" fill="black" stroke="none" transform="matrix(1.000 0.000 -0.000 -1.000 12.045 4.675)">&#x39;</text>
<text font-family="cmss10" font-size="6.974" fill="black" stroke="none" transform="matrix(1.000 0.000 -0.000 -1.000 0.595 31.725)">&#x31;&#x30;</text>
<text font-family="cmss10" font-size="6.974" fill="black" stroke="none" transform="matrix(1.000 0.000 -0.000 -1.000 5.865 24.695)">&#x31;&#x31;</text>
</g>
<clipPath id="clip_viewBox">
<path d="M-97.625 -62.739L33.068 -62.739L33.068 34.954L-97.625 34.954z" />
</clipPath>
</defs>
<g transform="scale(1,-1)" fill="#000000" stroke="#000000" stroke-linecap="round" stroke-linejoin="round" stroke-miterlimit="10" fill-rule="evenodd" clip-rule="evenodd" clip-path="url(#clip_viewBox)">
<use x="-69.279" y="-34.392" xlink:href="#E_aaaaaaa_candyMountain.svg" />
<use x="-66.279" y="-30.392" xlink:href="#X_aaaaaaa_candyMountain.svg" />
</g>
</svg>
