0
SECTION
2
HEADER
9
$EXTMIN
10
5404457.560000
20
5123274.600000
30
1134.030000
9
$EXTMAX
10
5404678.460000
20
5123841.200000
30
1731.100000
9
$PDMODE
70
3
9
$PDSIZE
40
  0.80
0
ENDSEC
0
SECTION
2
TABLES
0
TABLE
2
LAYER
70
10
0
LAYER
2
CentreLine
70
64
62
5
6
CONTINUOUS
0
LAYER
2
Stations
70
64
62
7
6
CONTINUOUS
0
LAYER
2
Labels
70
64
62
7
6
CONTINUOUS
0
ENDTAB
0
ENDSEC
0
SECTION
2
ENTITIES
0
LINE
8
CentreLine
10
5404593.99
20
5123711.58
30
1712.62
11
5404593.99
21
5123711.53
31
1692.65
0
LINE
8
CentreLine
10
5404593.99
20
5123711.53
30
1692.65
11
5404587.66
21
5123702.54
31
1686.70
0
LINE
8
CentreLine
10
5404587.66
20
5123702.54
30
1686.70
11
5404584.63
21
5123701.12
31
1683.71
0
LINE
8
CentreLine
10
5404584.63
20
5123701.12
30
1683.71
11
5404584.57
21
5123698.12
31
1683.57
0
LINE
8
CentreLine
10
5404584.57
20
5123698.12
30
1683.57
11
5404579.15
21
5123696.36
31
1676.88
0
LINE
8
CentreLine
10
5404579.15
20
5123696.36
30
1676.88
11
5404577.31
21
5123695.50
31
1671.90
0
LINE
8
CentreLine
10
5404577.31
20
5123695.50
30
1671.90
11
5404578.65
21
5123693.58
31
1664.29
0
LINE
8
CentreLine
10
5404578.65
20
5123693.58
30
1664.29
11
5404577.72
21
5123695.75
31
1665.66
0
LINE
8
CentreLine
10
5404577.72
20
5123695.75
30
1665.66
11
5404569.71
21
5123699.30
31
1662.72
0
LINE
8
CentreLine
10
5404569.71
20
5123699.30
30
1662.72
11
5404571.19
21
5123707.85
31
1677.47
0
LINE
8
CentreLine
10
5404571.19
20
5123707.85
30
1677.47
11
5404570.93
21
5123710.35
31
1687.68
0
LINE
8
CentreLine
10
5404570.93
20
5123710.35
30
1687.68
11
5404570.76
21
5123711.93
31
1688.46
0
LINE
8
CentreLine
10
5404570.76
20
5123711.93
30
1688.46
11
5404569.55
21
5123713.27
31
1689.83
0
LINE
8
CentreLine
10
5404569.55
20
5123713.27
30
1689.83
11
5404572.14
21
5123714.89
31
1691.62
0
LINE
8
CentreLine
10
5404572.14
20
5123714.89
30
1691.62
11
5404571.98
21
5123717.83
31
1696.37
0
LINE
8
CentreLine
10
5404571.98
20
5123717.83
30
1696.37
11
5404570.10
21
5123721.52
31
1698.32
0
LINE
8
CentreLine
10
5404570.10
20
5123721.52
30
1698.32
11
5404565.79
21
5123722.66
31
1697.88
0
LINE
8
CentreLine
10
5404565.79
20
5123722.66
30
1697.88
11
5404560.84
21
5123720.96
31
1695.58
0
LINE
8
CentreLine
10
5404560.84
20
5123720.96
30
1695.58
11
5404556.36
21
5123723.85
31
1697.34
0
LINE
8
CentreLine
10
5404556.36
20
5123723.85
30
1697.34
11
5404564.59
21
5123746.91
31
1721.24
0
LINE
8
CentreLine
10
5404564.59
20
5123746.91
30
1721.24
11
5404560.70
21
5123746.29
31
1721.33
0
LINE
8
CentreLine
10
5404591.07
20
5123719.96
30
1730.99
11
5404591.06
21
5123720.18
31
1720.42
0
LINE
8
CentreLine
10
5404591.06
20
5123720.18
30
1720.42
11
5404593.99
21
5123711.58
31
1712.62
0
LINE
8
CentreLine
10
5404591.07
20
5123719.96
30
1730.99
11
5404587.80
21
5123725.43
31
1730.40
0
LINE
8
CentreLine
10
5404587.80
20
5123725.43
30
1730.40
11
5404588.73
21
5123726.86
31
1730.39
0
LINE
8
CentreLine
10
5404588.73
20
5123726.86
30
1730.39
11
5404586.70
21
5123729.06
31
1730.37
0
LINE
8
CentreLine
10
5404586.70
20
5123729.06
30
1730.37
11
5404575.22
21
5123742.89
31
1729.51
0
LINE
8
CentreLine
10
5404575.22
20
5123742.89
30
1729.51
11
5404560.70
21
5123746.29
31
1721.33
0
LINE
8
CentreLine
10
5404591.07
20
5123719.96
30
1730.99
11
5404593.79
21
5123715.22
31
1731.10
0
LINE
8
CentreLine
10
5404593.79
20
5123715.22
30
1731.10
11
5404593.98
21
5123711.73
31
1721.52
0
LINE
8
CentreLine
10
5404593.98
20
5123711.73
30
1721.52
11
5404593.99
21
5123711.58
31
1712.62
0
LINE
8
CentreLine
10
5404578.65
20
5123693.58
30
1664.29
11
5404580.46
21
5123689.31
31
1661.61
0
LINE
8
CentreLine
10
5404580.46
20
5123689.31
30
1661.61
11
5404576.93
21
5123686.25
31
1660.09
0
LINE
8
CentreLine
10
5404576.93
20
5123686.25
30
1660.09
11
5404579.07
21
5123682.24
31
1638.74
0
LINE
8
CentreLine
10
5404579.07
20
5123682.24
30
1638.74
11
5404580.42
21
5123680.15
31
1638.96
0
LINE
8
CentreLine
10
5404580.42
20
5123680.15
30
1638.96
11
5404585.91
21
5123677.11
31
1636.03
0
LINE
8
CentreLine
10
5404585.91
20
5123677.11
30
1636.03
11
5404586.57
21
5123676.11
31
1635.80
0
LINE
8
CentreLine
10
5404586.57
20
5123676.11
30
1635.80
11
5404584.99
21
5123673.93
31
1632.60
0
LINE
8
CentreLine
10
5404584.99
20
5123673.93
30
1632.60
11
5404584.99
21
5123666.19
31
1615.20
0
LINE
8
CentreLine
10
5404584.99
20
5123666.19
30
1615.20
11
5404585.93
21
5123661.35
31
1607.31
0
LINE
8
CentreLine
10
5404585.93
20
5123661.35
30
1607.31
11
5404589.31
21
5123652.54
31
1601.19
0
LINE
8
CentreLine
10
5404589.31
20
5123652.54
30
1601.19
11
5404583.43
21
5123644.14
31
1599.19
0
LINE
8
CentreLine
10
5404583.43
20
5123644.14
30
1599.19
11
5404586.53
21
5123640.57
31
1598.27
0
LINE
8
CentreLine
10
5404586.53
20
5123640.57
30
1598.27
11
5404589.65
21
5123645.75
31
1593.88
0
LINE
8
CentreLine
10
5404589.65
20
5123645.75
30
1593.88
11
5404586.97
21
5123642.07
31
1591.94
0
LINE
8
CentreLine
10
5404586.97
20
5123642.07
30
1591.94
11
5404589.31
21
5123640.30
31
1591.32
0
LINE
8
CentreLine
10
5404589.31
20
5123640.30
30
1591.32
11
5404592.35
21
5123641.12
31
1589.28
0
LINE
8
CentreLine
10
5404592.35
20
5123641.12
30
1589.28
11
5404593.82
21
5123638.93
31
1588.42
0
LINE
8
CentreLine
10
5404593.82
20
5123638.93
30
1588.42
11
5404594.04
21
5123634.80
31
1586.92
0
LINE
8
CentreLine
10
5404594.04
20
5123634.80
30
1586.92
11
5404593.26
21
5123632.09
31
1566.79
0
LINE
8
CentreLine
10
5404593.26
20
5123632.09
30
1566.79
11
5404600.03
21
5123622.77
31
1567.20
0
LINE
8
CentreLine
10
5404600.03
20
5123622.77
30
1567.20
11
5404597.91
21
5123617.52
31
1568.40
0
LINE
8
CentreLine
10
5404597.91
20
5123617.52
30
1568.40
11
5404595.16
21
5123621.75
31
1579.22
0
LINE
8
CentreLine
10
5404595.16
20
5123621.75
30
1579.22
11
5404596.37
21
5123624.14
31
1580.25
0
LINE
8
CentreLine
10
5404596.37
20
5123624.14
30
1580.25
11
5404603.91
21
5123610.54
31
1576.94
0
LINE
8
CentreLine
10
5404603.91
20
5123610.54
30
1576.94
11
5404605.59
21
5123609.08
31
1573.99
0
LINE
8
CentreLine
10
5404605.59
20
5123609.08
30
1573.99
11
5404605.00
21
5123605.30
31
1575.30
0
LINE
8
CentreLine
10
5404605.00
20
5123605.30
30
1575.30
11
5404607.83
21
5123602.47
31
1576.68
0
LINE
8
CentreLine
10
5404607.83
20
5123602.47
30
1576.68
11
5404610.41
21
5123594.98
31
1575.99
0
LINE
8
CentreLine
10
5404610.41
20
5123594.98
30
1575.99
11
5404605.47
21
5123593.56
31
1579.08
0
LINE
8
CentreLine
10
5404605.47
20
5123593.56
30
1579.08
11
5404600.03
21
5123595.12
31
1579.08
0
LINE
8
CentreLine
10
5404600.03
20
5123595.12
30
1579.08
11
5404600.14
21
5123592.08
31
1579.35
0
LINE
8
CentreLine
10
5404600.14
20
5123592.08
30
1579.35
11
5404596.82
21
5123590.09
31
1580.10
0
LINE
8
CentreLine
10
5404596.82
20
5123590.09
30
1580.10
11
5404599.03
21
5123588.86
31
1581.07
0
LINE
8
CentreLine
10
5404599.03
20
5123588.86
30
1581.07
11
5404599.03
21
5123588.86
31
1578.04
0
LINE
8
CentreLine
10
5404599.03
20
5123588.86
30
1578.04
11
5404598.87
21
5123586.64
31
1577.49
0
LINE
8
CentreLine
10
5404598.87
20
5123586.64
30
1577.49
11
5404598.87
21
5123586.64
31
1574.75
0
LINE
8
CentreLine
10
5404598.87
20
5123586.64
30
1574.75
11
5404599.09
21
5123592.67
31
1575.28
0
LINE
8
CentreLine
10
5404599.09
20
5123592.67
30
1575.28
11
5404596.76
21
5123592.63
31
1574.24
0
LINE
8
CentreLine
10
5404596.76
20
5123592.63
30
1574.24
11
5404595.85
21
5123590.26
31
1573.61
0
LINE
8
CentreLine
10
5404595.85
20
5123590.26
30
1573.61
11
5404595.85
21
5123590.26
31
1569.01
0
LINE
8
CentreLine
10
5404595.85
20
5123590.26
30
1569.01
11
5404591.64
21
5123592.59
31
1567.72
0
LINE
8
CentreLine
10
5404591.64
20
5123592.59
30
1567.72
11
5404587.97
21
5123593.18
31
1572.31
0
LINE
8
CentreLine
10
5404587.97
20
5123593.18
30
1572.31
11
5404587.59
21
5123590.11
31
1572.42
0
LINE
8
CentreLine
10
5404587.59
20
5123590.11
30
1572.42
11
5404585.37
21
5123582.85
31
1569.35
0
LINE
8
CentreLine
10
5404585.37
20
5123582.85
30
1569.35
11
5404585.70
21
5123579.09
31
1567.51
0
LINE
8
CentreLine
10
5404585.70
20
5123579.09
30
1567.51
11
5404583.93
21
5123576.56
31
1568.64
0
LINE
8
CentreLine
10
5404583.93
20
5123576.56
30
1568.64
11
5404579.72
21
5123569.55
31
1569.35
0
LINE
8
CentreLine
10
5404579.72
20
5123569.55
30
1569.35
11
5404578.86
21
5123565.49
31
1569.35
0
LINE
8
CentreLine
10
5404578.86
20
5123565.49
30
1569.35
11
5404578.33
21
5123562.79
31
1566.87
0
LINE
8
CentreLine
10
5404578.33
20
5123562.79
30
1566.87
11
5404579.19
21
5123564.28
31
1565.21
0
LINE
8
CentreLine
10
5404579.19
20
5123564.28
30
1565.21
11
5404578.85
21
5123557.85
31
1562.61
0
LINE
8
CentreLine
10
5404578.85
20
5123557.85
30
1562.61
11
5404578.77
21
5123555.32
31
1560.25
0
LINE
8
CentreLine
10
5404578.77
20
5123555.32
30
1560.25
11
5404582.61
21
5123548.38
31
1557.20
0
LINE
8
CentreLine
10
5404582.61
20
5123548.38
30
1557.20
11
5404578.43
21
5123538.53
31
1557.20
0
LINE
8
CentreLine
10
5404578.43
20
5123538.53
30
1557.20
11
5404579.48
21
5123535.64
31
1554.80
0
LINE
8
CentreLine
10
5404579.48
20
5123535.64
30
1554.80
11
5404583.85
21
5123531.28
31
1547.45
0
LINE
8
CentreLine
10
5404583.85
20
5123531.28
30
1547.45
11
5404586.84
21
5123528.28
31
1545.19
0
LINE
8
CentreLine
10
5404586.84
20
5123528.28
30
1545.19
11
5404586.68
21
5123523.49
31
1543.45
0
LINE
8
CentreLine
10
5404586.68
20
5123523.49
30
1543.45
11
5404587.24
21
5123512.71
31
1543.45
0
LINE
8
CentreLine
10
5404587.24
20
5123512.71
30
1543.45
11
5404584.37
21
5123507.32
31
1541.23
0
LINE
8
CentreLine
10
5404584.37
20
5123507.32
30
1541.23
11
5404587.91
21
5123506.37
31
1536.86
0
LINE
8
CentreLine
10
5404587.91
20
5123506.37
30
1536.86
11
5404591.61
21
5123501.09
31
1534.12
0
LINE
8
CentreLine
10
5404591.61
20
5123501.09
30
1534.12
11
5404585.06
21
5123498.70
31
1519.17
0
LINE
8
CentreLine
10
5404585.06
20
5123498.70
30
1519.17
11
5404594.34
21
5123482.62
31
1522.11
0
LINE
8
CentreLine
10
5404594.34
20
5123482.62
30
1522.11
11
5404600.29
21
5123473.11
31
1517.58
0
LINE
8
CentreLine
10
5404600.29
20
5123473.11
30
1517.58
11
5404599.66
21
5123467.14
31
1517.58
0
LINE
8
CentreLine
10
5404599.66
20
5123467.14
30
1517.58
11
5404597.61
21
5123463.59
31
1517.58
0
LINE
8
CentreLine
10
5404597.61
20
5123463.59
30
1517.58
11
5404597.39
21
5123459.50
31
1517.58
0
LINE
8
CentreLine
10
5404597.39
20
5123459.50
30
1517.58
11
5404594.94
21
5123457.44
31
1516.15
0
LINE
8
CentreLine
10
5404594.94
20
5123457.44
30
1516.15
11
5404594.94
21
5123447.67
31
1512.60
0
LINE
8
CentreLine
10
5404594.94
20
5123447.67
30
1512.60
11
5404601.18
21
5123436.87
31
1515.48
0
LINE
8
CentreLine
10
5404601.18
20
5123436.87
30
1515.48
11
5404608.36
21
5123430.85
31
1512.97
0
LINE
8
CentreLine
10
5404608.36
20
5123430.85
30
1512.97
11
5404616.63
21
5123439.72
31
1515.54
0
LINE
8
CentreLine
10
5404616.63
20
5123439.72
30
1515.54
11
5404623.61
21
5123442.97
31
1515.54
0
LINE
8
CentreLine
10
5404623.61
20
5123442.97
30
1515.54
11
5404621.47
21
5123449.95
31
1515.80
0
LINE
8
CentreLine
10
5404621.47
20
5123449.95
30
1515.80
11
5404614.38
21
5123456.56
31
1514.78
0
LINE
8
CentreLine
10
5404614.38
20
5123456.56
30
1514.78
11
5404620.95
21
5123470.01
31
1517.42
0
LINE
8
CentreLine
10
5404620.95
20
5123470.01
30
1517.42
11
5404624.00
21
5123477.57
31
1515.39
0
LINE
8
CentreLine
10
5404624.00
20
5123477.57
30
1515.39
11
5404623.96
21
5123478.76
31
1515.24
0
LINE
8
CentreLine
10
5404623.96
20
5123478.76
30
1515.24
11
5404628.34
21
5123484.17
31
1520.12
0
LINE
8
CentreLine
10
5404628.34
20
5123484.17
30
1520.12
11
5404625.08
21
5123492.23
31
1522.45
0
LINE
8
CentreLine
10
5404625.08
20
5123492.23
30
1522.45
11
5404619.39
21
5123499.52
31
1523.42
0
LINE
8
CentreLine
10
5404619.39
20
5123499.52
30
1523.42
11
5404616.96
21
5123498.59
31
1523.37
0
LINE
8
CentreLine
10
5404616.96
20
5123498.59
30
1523.37
11
5404613.97
21
5123509.01
31
1525.98
0
LINE
8
CentreLine
10
5404613.97
20
5123509.01
30
1525.98
11
5404621.79
21
5123516.05
31
1532.55
0
LINE
8
CentreLine
10
5404621.79
20
5123516.05
30
1532.55
11
5404622.43
21
5123518.84
31
1537.13
0
LINE
8
CentreLine
10
5404622.43
20
5123518.84
30
1537.13
11
5404622.24
21
5123524.43
31
1538.21
0
LINE
8
CentreLine
10
5404622.24
20
5123524.43
30
1538.21
11
5404628.28
21
5123527.64
31
1539.92
0
LINE
8
CentreLine
10
5404628.28
20
5123527.64
30
1539.92
11
5404627.14
21
5123535.70
31
1544.62
0
LINE
8
CentreLine
10
5404627.14
20
5123535.70
30
1544.62
11
5404627.98
21
5123542.51
31
1545.71
0
LINE
8
CentreLine
10
5404627.98
20
5123542.51
30
1545.71
11
5404632.38
21
5123551.16
31
1548.13
0
LINE
8
CentreLine
10
5404632.38
20
5123551.16
30
1548.13
11
5404634.29
21
5123552.20
31
1548.47
0
LINE
8
CentreLine
10
5404634.29
20
5123552.20
30
1548.47
11
5404633.58
21
5123558.04
31
1548.88
0
LINE
8
CentreLine
10
5404633.58
20
5123558.04
30
1548.88
11
5404636.56
21
5123558.19
31
1549.14
0
LINE
8
CentreLine
10
5404636.56
20
5123558.19
30
1549.14
11
5404633.47
21
5123567.18
31
1549.14
0
LINE
8
CentreLine
10
5404633.47
20
5123567.18
30
1549.14
11
5404630.60
21
5123568.31
31
1550.33
0
LINE
8
CentreLine
10
5404630.60
20
5123568.31
30
1550.33
11
5404627.29
21
5123571.85
31
1550.33
0
LINE
8
CentreLine
10
5404627.29
20
5123571.85
30
1550.33
11
5404627.16
21
5123573.43
31
1551.85
0
LINE
8
CentreLine
10
5404597.91
20
5123617.52
30
1568.40
11
5404601.98
21
5123615.07
31
1566.28
0
LINE
8
CentreLine
10
5404601.98
20
5123615.07
30
1566.28
11
5404601.02
21
5123608.67
31
1559.34
0
LINE
8
CentreLine
10
5404601.02
20
5123608.67
30
1559.34
11
5404600.39
21
5123605.40
31
1554.22
0
LINE
8
CentreLine
10
5404600.39
20
5123605.40
30
1554.22
11
5404603.65
21
5123602.26
31
1549.84
0
LINE
8
CentreLine
10
5404603.65
20
5123602.26
30
1549.84
11
5404608.08
21
5123604.82
31
1552.34
0
LINE
8
CentreLine
10
5404608.08
20
5123604.82
30
1552.34
11
5404611.27
21
5123608.12
31
1552.02
0
LINE
8
CentreLine
10
5404611.27
20
5123608.12
30
1552.02
11
5404611.44
21
5123604.89
31
1549.50
0
LINE
8
CentreLine
10
5404611.44
20
5123604.89
30
1549.50
11
5404613.47
21
5123596.09
31
1546.56
0
LINE
8
CentreLine
10
5404613.47
20
5123596.09
30
1546.56
11
5404617.70
21
5123591.63
31
1545.70
0
LINE
8
CentreLine
10
5404605.59
20
5123609.08
30
1573.99
11
5404605.77
21
5123604.08
31
1570.49
0
LINE
8
CentreLine
10
5404605.77
20
5123604.08
30
1570.49
11
5404606.88
21
5123606.71
31
1569.99
0
LINE
8
CentreLine
10
5404606.88
20
5123606.71
30
1569.99
11
5404607.93
21
5123609.31
31
1570.74
0
LINE
8
CentreLine
10
5404607.93
20
5123609.31
30
1570.74
11
5404608.27
21
5123611.43
31
1571.23
0
LINE
8
CentreLine
10
5404608.27
20
5123611.43
30
1571.23
11
5404611.35
21
5123612.61
31
1571.17
0
LINE
8
CentreLine
10
5404608.27
20
5123611.43
30
1571.23
11
5404607.22
21
5123610.98
31
1568.78
0
LINE
8
CentreLine
10
5404607.22
20
5123610.98
30
1568.78
11
5404607.57
21
5123609.77
31
1567.80
0
LINE
8
CentreLine
10
5404607.57
20
5123609.77
30
1567.80
11
5404612.34
21
5123610.70
31
1567.20
0
LINE
8
CentreLine
10
5404603.65
20
5123602.26
30
1549.84
11
5404609.41
21
5123605.45
31
1553.20
0
LINE
8
CentreLine
10
5404609.41
20
5123605.45
30
1553.20
11
5404612.26
21
5123606.27
31
1552.73
0
LINE
8
CentreLine
10
5404612.26
20
5123606.27
30
1552.73
11
5404612.18
21
5123601.68
31
1550.08
0
LINE
8
CentreLine
10
5404612.18
20
5123601.68
30
1550.08
11
5404614.14
21
5123594.84
31
1548.05
0
LINE
8
CentreLine
10
5404614.14
20
5123594.84
30
1548.05
11
5404618.45
21
5123589.79
31
1547.70
0
LINE
8
CentreLine
10
5404618.45
20
5123589.79
30
1547.70
11
5404622.40
21
5123586.11
31
1546.94
0
LINE
8
CentreLine
10
5404622.40
20
5123586.11
30
1546.94
11
5404628.53
21
5123584.47
31
1548.94
0
LINE
8
CentreLine
10
5404628.53
20
5123584.47
30
1548.94
11
5404628.98
21
5123579.29
31
1547.30
0
LINE
8
CentreLine
10
5404628.98
20
5123579.29
30
1547.30
11
5404632.66
21
5123575.21
31
1547.40
0
LINE
8
CentreLine
10
5404632.66
20
5123575.21
30
1547.40
11
5404636.31
21
5123572.14
31
1548.72
0
LINE
8
CentreLine
10
5404636.31
20
5123572.14
30
1548.72
11
5404640.72
21
5123569.89
31
1548.72
0
LINE
8
CentreLine
10
5404640.72
20
5123569.89
30
1548.72
11
5404637.73
21
5123572.07
31
1548.72
0
LINE
8
CentreLine
10
5404637.73
20
5123572.07
30
1548.72
11
5404639.98
21
5123574.94
31
1548.72
0
LINE
8
CentreLine
10
5404639.98
20
5123574.94
30
1548.72
11
5404647.73
21
5123570.10
31
1544.65
0
LINE
8
CentreLine
10
5404647.73
20
5123570.10
30
1544.65
11
5404651.66
21
5123573.18
31
1544.91
0
LINE
8
CentreLine
10
5404651.66
20
5123573.18
30
1544.91
11
5404657.32
21
5123571.97
31
1545.32
0
LINE
8
CentreLine
10
5404657.32
20
5123571.97
30
1545.32
11
5404660.80
21
5123565.70
31
1543.12
0
LINE
8
CentreLine
10
5404660.80
20
5123565.70
30
1543.12
11
5404665.19
21
5123560.99
31
1542.79
0
LINE
8
CentreLine
10
5404665.19
20
5123560.99
30
1542.79
11
5404669.15
21
5123562.20
31
1538.79
0
LINE
8
CentreLine
10
5404669.15
20
5123562.20
30
1538.79
11
5404669.15
21
5123562.20
31
1533.29
0
LINE
8
CentreLine
10
5404669.15
20
5123562.20
30
1533.29
11
5404666.06
21
5123552.12
31
1532.74
0
LINE
8
CentreLine
10
5404666.06
20
5123552.12
30
1532.74
11
5404666.06
21
5123550.51
31
1528.75
0
LINE
8
CentreLine
10
5404666.06
20
5123550.51
30
1528.75
11
5404666.06
21
5123550.51
31
1507.45
0
LINE
8
CentreLine
10
5404666.06
20
5123550.51
30
1507.45
11
5404661.63
21
5123551.29
31
1507.45
0
LINE
8
CentreLine
10
5404661.63
20
5123551.29
30
1507.45
11
5404658.55
21
5123548.79
31
1504.67
0
LINE
8
CentreLine
10
5404658.55
20
5123548.79
30
1504.67
11
5404653.54
21
5123537.56
31
1504.67
0
LINE
8
CentreLine
10
5404653.54
20
5123537.56
30
1504.67
11
5404641.19
21
5123534.93
31
1505.44
0
LINE
8
CentreLine
10
5404641.19
20
5123534.93
30
1505.44
11
5404630.08
21
5123534.16
31
1504.27
0
LINE
8
CentreLine
10
5404630.08
20
5123534.16
30
1504.27
11
5404615.21
21
5123526.58
31
1503.69
0
LINE
8
CentreLine
10
5404615.21
20
5123526.58
30
1503.69
11
5404611.81
21
5123512.95
31
1504.06
0
LINE
8
CentreLine
10
5404611.81
20
5123512.95
30
1504.06
11
5404606.61
21
5123507.93
31
1500.76
0
LINE
8
CentreLine
10
5404606.61
20
5123507.93
30
1500.76
11
5404598.50
21
5123505.45
31
1502.72
0
LINE
8
CentreLine
10
5404598.50
20
5123505.45
30
1502.72
11
5404597.43
21
5123500.43
31
1499.51
0
LINE
8
CentreLine
10
5404597.43
20
5123500.43
30
1499.51
11
5404593.03
21
5123493.64
31
1499.23
0
LINE
8
CentreLine
10
5404593.03
20
5123493.64
30
1499.23
11
5404594.66
21
5123489.58
31
1496.70
0
LINE
8
CentreLine
10
5404594.66
20
5123489.58
30
1496.70
11
5404591.99
21
5123486.81
31
1496.09
0
LINE
8
CentreLine
10
5404591.99
20
5123486.81
30
1496.09
11
5404590.36
21
5123482.98
31
1493.07
0
LINE
8
CentreLine
10
5404590.36
20
5123482.98
30
1493.07
11
5404590.00
21
5123481.43
31
1491.78
0
LINE
8
CentreLine
10
5404590.00
20
5123481.43
30
1491.78
11
5404590.00
21
5123481.43
31
1464.18
0
LINE
8
CentreLine
10
5404590.36
20
5123482.98
30
1493.07
11
5404593.60
21
5123488.58
31
1497.60
0
LINE
8
CentreLine
10
5404593.60
20
5123488.58
30
1497.60
11
5404589.28
21
5123482.42
31
1500.33
0
LINE
8
CentreLine
10
5404589.28
20
5123482.42
30
1500.33
11
5404584.34
21
5123478.56
31
1502.02
0
LINE
8
CentreLine
10
5404584.34
20
5123478.56
30
1502.02
11
5404582.05
21
5123474.59
31
1501.62
0
LINE
8
CentreLine
10
5404582.05
20
5123474.59
30
1501.62
11
5404576.99
21
5123478.83
31
1501.62
0
LINE
8
CentreLine
10
5404576.99
20
5123478.83
30
1501.62
11
5404566.44
21
5123482.67
31
1499.64
0
LINE
8
CentreLine
10
5404566.44
20
5123482.67
30
1499.64
11
5404562.41
21
5123478.64
31
1498.11
0
LINE
8
CentreLine
10
5404562.41
20
5123478.64
30
1498.11
11
5404571.97
21
5123452.37
31
1496.64
0
LINE
8
CentreLine
10
5404571.97
20
5123452.37
30
1496.64
11
5404570.70
21
5123451.22
31
1491.95
0
LINE
8
CentreLine
10
5404570.70
20
5123451.22
30
1491.95
11
5404562.09
21
5123443.47
31
1488.84
0
LINE
8
CentreLine
10
5404562.09
20
5123443.47
30
1488.84
11
5404561.50
21
5123440.14
31
1487.93
0
LINE
8
CentreLine
10
5404561.50
20
5123440.14
30
1487.93
11
5404564.39
21
5123432.19
31
1484.86
0
LINE
8
CentreLine
10
5404564.39
20
5123432.19
30
1484.86
11
5404566.29
21
5123428.90
31
1491.44
0
LINE
8
CentreLine
10
5404608.36
20
5123430.85
30
1512.97
11
5404605.70
21
5123427.56
31
1511.43
0
LINE
8
CentreLine
10
5404605.70
20
5123427.56
30
1511.43
11
5404597.90
21
5123420.03
31
1509.52
0
LINE
8
CentreLine
10
5404597.90
20
5123420.03
30
1509.52
11
5404592.36
21
5123414.68
31
1505.92
0
LINE
8
CentreLine
10
5404592.36
20
5123414.68
30
1505.92
11
5404592.36
21
5123414.68
31
1499.12
0
LINE
8
CentreLine
10
5404592.36
20
5123414.68
30
1499.12
11
5404587.47
21
5123409.62
31
1500.62
0
LINE
8
CentreLine
10
5404587.47
20
5123409.62
30
1500.62
11
5404583.49
21
5123406.27
31
1500.62
0
LINE
8
CentreLine
10
5404583.49
20
5123406.27
30
1500.62
11
5404577.59
21
5123399.95
31
1497.48
0
LINE
8
CentreLine
10
5404577.59
20
5123399.95
30
1497.48
11
5404576.51
21
5123397.41
31
1494.18
0
LINE
8
CentreLine
10
5404576.51
20
5123397.41
30
1494.18
11
5404574.22
21
5123392.90
31
1489.94
0
LINE
8
CentreLine
10
5404574.22
20
5123392.90
30
1489.94
11
5404568.62
21
5123388.37
31
1489.94
0
LINE
8
CentreLine
10
5404568.62
20
5123388.37
30
1489.94
11
5404562.03
21
5123382.84
31
1489.94
0
LINE
8
CentreLine
10
5404562.03
20
5123382.84
30
1489.94
11
5404555.55
21
5123377.78
31
1480.13
0
LINE
8
CentreLine
10
5404555.55
20
5123377.78
30
1480.13
11
5404555.55
21
5123377.78
31
1438.63
0
LINE
8
CentreLine
10
5404555.55
20
5123377.78
30
1438.63
11
5404544.06
21
5123368.14
31
1438.63
0
LINE
8
CentreLine
10
5404544.06
20
5123368.14
30
1438.63
11
5404537.86
21
5123365.88
31
1439.80
0
LINE
8
CentreLine
10
5404537.86
20
5123365.88
30
1439.80
11
5404534.65
21
5123366.86
31
1437.27
0
LINE
8
CentreLine
10
5404534.65
20
5123366.86
30
1437.27
11
5404531.10
21
5123362.63
31
1432.64
0
LINE
8
CentreLine
10
5404531.10
20
5123362.63
30
1432.64
11
5404529.18
21
5123365.38
31
1430.86
0
LINE
8
CentreLine
10
5404529.18
20
5123365.38
30
1430.86
11
5404528.05
21
5123352.48
31
1429.72
0
LINE
8
CentreLine
10
5404528.05
20
5123352.48
30
1429.72
11
5404531.42
21
5123348.17
31
1426.81
0
LINE
8
CentreLine
10
5404531.42
20
5123348.17
30
1426.81
11
5404527.05
21
5123342.96
31
1426.81
0
LINE
8
CentreLine
10
5404527.05
20
5123342.96
30
1426.81
11
5404521.83
21
5123341.56
31
1426.81
0
LINE
8
CentreLine
10
5404521.83
20
5123341.56
30
1426.81
11
5404521.83
21
5123341.56
31
1404.81
0
LINE
8
CentreLine
10
5404521.83
20
5123341.56
30
1404.81
11
5404527.81
21
5123338.11
31
1399.03
0
LINE
8
CentreLine
10
5404527.81
20
5123338.11
30
1399.03
11
5404527.81
21
5123338.11
31
1380.23
0
LINE
8
CentreLine
10
5404527.81
20
5123338.11
30
1380.23
11
5404524.54
21
5123325.93
31
1362.21
0
LINE
8
CentreLine
10
5404524.54
20
5123325.93
30
1362.21
11
5404522.05
21
5123322.37
31
1359.17
0
LINE
8
CentreLine
10
5404522.05
20
5123322.37
30
1359.17
11
5404511.65
21
5123324.20
31
1358.24
0
LINE
8
CentreLine
10
5404511.65
20
5123324.20
30
1358.24
11
5404507.82
21
5123318.74
31
1339.92
0
LINE
8
CentreLine
10
5404507.82
20
5123318.74
30
1339.92
11
5404504.05
21
5123316.90
31
1339.92
0
LINE
8
CentreLine
10
5404504.05
20
5123316.90
30
1339.92
11
5404491.51
21
5123313.54
31
1324.45
0
LINE
8
CentreLine
10
5404491.51
20
5123313.54
30
1324.45
11
5404491.51
21
5123313.54
31
1300.45
0
LINE
8
CentreLine
10
5404491.51
20
5123313.54
30
1300.45
11
5404496.70
21
5123309.63
31
1289.19
0
LINE
8
CentreLine
10
5404496.70
20
5123309.63
30
1289.19
11
5404496.70
21
5123309.63
31
1276.59
0
LINE
8
CentreLine
10
5404496.70
20
5123309.63
30
1276.59
11
5404496.70
21
5123303.05
31
1273.66
0
LINE
8
CentreLine
10
5404496.70
20
5123303.05
30
1273.66
11
5404498.34
21
5123298.00
31
1272.23
0
LINE
8
CentreLine
10
5404498.34
20
5123298.00
30
1272.23
11
5404498.07
21
5123290.29
31
1263.97
0
LINE
8
CentreLine
10
5404498.07
20
5123290.29
30
1263.97
11
5404497.68
21
5123284.74
31
1261.72
0
LINE
8
CentreLine
10
5404497.68
20
5123284.74
30
1261.72
11
5404495.56
21
5123277.34
31
1254.02
0
LINE
8
CentreLine
10
5404495.56
20
5123277.34
30
1254.02
11
5404495.56
21
5123277.34
31
1233.32
0
LINE
8
CentreLine
10
5404495.56
20
5123277.34
30
1233.32
11
5404491.18
21
5123274.60
31
1230.91
0
LINE
8
CentreLine
10
5404491.18
20
5123274.60
30
1230.91
11
5404485.49
21
5123276.44
31
1230.38
0
LINE
8
CentreLine
10
5404485.49
20
5123276.44
30
1230.38
11
5404482.29
21
5123275.76
31
1229.98
0
LINE
8
CentreLine
10
5404482.29
20
5123275.76
30
1229.98
11
5404477.57
21
5123281.59
31
1229.98
0
LINE
8
CentreLine
10
5404477.57
20
5123281.59
30
1229.98
11
5404471.25
21
5123285.54
31
1221.10
0
LINE
8
CentreLine
10
5404471.25
20
5123285.54
30
1221.10
11
5404471.25
21
5123285.54
31
1207.10
0
LINE
8
CentreLine
10
5404471.25
20
5123285.54
30
1207.10
11
5404470.62
21
5123291.51
31
1207.10
0
LINE
8
CentreLine
10
5404470.62
20
5123291.51
30
1207.10
11
5404467.43
21
5123293.43
31
1206.31
0
LINE
8
CentreLine
10
5404467.43
20
5123293.43
30
1206.31
11
5404467.43
21
5123293.43
31
1178.21
0
LINE
8
CentreLine
10
5404467.43
20
5123293.43
30
1206.31
11
5404457.56
21
5123289.44
31
1163.61
0
LINE
8
CentreLine
10
5404457.56
20
5123289.44
30
1163.61
11
5404459.06
21
5123300.06
31
1154.61
0
LINE
8
CentreLine
10
5404459.06
20
5123300.06
30
1154.61
11
5404459.77
21
5123302.26
31
1153.43
0
LINE
8
CentreLine
10
5404459.77
20
5123302.26
30
1153.43
11
5404461.70
21
5123302.36
31
1150.88
0
LINE
8
CentreLine
10
5404461.70
20
5123302.36
30
1150.88
11
5404464.75
21
5123303.54
31
1148.58
0
LINE
8
CentreLine
10
5404464.75
20
5123303.54
30
1148.58
11
5404466.61
21
5123308.14
31
1147.97
0
LINE
8
CentreLine
10
5404466.61
20
5123308.14
30
1147.97
11
5404468.57
21
5123311.40
31
1144.43
0
LINE
8
CentreLine
10
5404468.57
20
5123311.40
30
1144.43
11
5404468.57
21
5123311.40
31
1134.03
0
LINE
8
CentreLine
10
5404666.06
20
5123550.51
30
1507.45
11
5404667.98
21
5123553.58
31
1511.33
0
LINE
8
CentreLine
10
5404667.98
20
5123553.58
30
1511.33
11
5404674.86
21
5123556.79
31
1511.59
0
LINE
8
CentreLine
10
5404674.86
20
5123556.79
30
1511.59
11
5404670.82
21
5123562.15
31
1510.53
0
LINE
8
CentreLine
10
5404670.82
20
5123562.15
30
1510.53
11
5404675.62
21
5123566.18
31
1511.86
0
LINE
8
CentreLine
10
5404675.62
20
5123566.18
30
1511.86
11
5404678.25
21
5123567.13
31
1510.11
0
LINE
8
CentreLine
10
5404678.25
20
5123567.13
30
1510.11
11
5404677.61
21
5123570.14
31
1506.69
0
LINE
8
CentreLine
10
5404677.61
20
5123570.14
30
1506.69
11
5404678.46
21
5123579.88
31
1510.25
0
LINE
8
CentreLine
10
5404678.46
20
5123579.88
30
1510.25
11
5404667.57
21
5123585.19
31
1508.12
0
LINE
8
CentreLine
10
5404667.57
20
5123585.19
30
1508.12
11
5404662.56
21
5123590.03
31
1512.81
0
LINE
8
CentreLine
10
5404662.56
20
5123590.03
30
1512.81
11
5404649.62
21
5123593.98
31
1514.96
0
LINE
8
CentreLine
10
5404649.62
20
5123593.98
30
1514.96
11
5404646.40
21
5123600.90
31
1512.91
0
LINE
8
CentreLine
10
5404646.40
20
5123600.90
30
1512.91
11
5404650.99
21
5123620.81
31
1521.59
0
LINE
8
CentreLine
10
5404650.99
20
5123620.81
30
1521.59
11
5404656.63
21
5123628.87
31
1524.97
0
LINE
8
CentreLine
10
5404656.63
20
5123628.87
30
1524.97
11
5404656.28
21
5123638.92
31
1530.55
0
LINE
8
CentreLine
10
5404656.28
20
5123638.92
30
1530.55
11
5404646.63
21
5123640.10
31
1529.35
0
LINE
8
CentreLine
10
5404646.63
20
5123640.10
30
1529.35
11
5404646.48
21
5123648.66
31
1531.17
0
LINE
8
CentreLine
10
5404646.48
20
5123648.66
30
1531.17
11
5404642.15
21
5123658.38
31
1530.05
0
LINE
8
CentreLine
10
5404642.15
20
5123658.38
30
1530.05
11
5404631.83
21
5123665.34
31
1523.43
0
LINE
8
CentreLine
10
5404631.83
20
5123665.34
30
1523.43
11
5404622.83
21
5123672.38
31
1521.42
0
LINE
8
CentreLine
10
5404622.83
20
5123672.38
30
1521.42
11
5404622.83
21
5123672.38
31
1526.22
0
LINE
8
CentreLine
10
5404622.83
20
5123672.38
30
1526.22
11
5404619.80
21
5123676.71
31
1526.59
0
LINE
8
CentreLine
10
5404619.80
20
5123676.71
30
1526.59
11
5404616.52
21
5123677.77
31
1524.98
0
LINE
8
CentreLine
10
5404616.52
20
5123677.77
30
1524.98
11
5404610.62
21
5123684.80
31
1527.44
0
LINE
8
CentreLine
10
5404610.62
20
5123684.80
30
1527.44
11
5404604.63
21
5123690.39
31
1533.84
0
LINE
8
CentreLine
10
5404604.63
20
5123690.39
30
1533.84
11
5404597.64
21
5123692.53
31
1532.16
0
LINE
8
CentreLine
10
5404597.64
20
5123692.53
30
1532.16
11
5404591.81
21
5123699.23
31
1534.54
0
LINE
8
CentreLine
10
5404591.81
20
5123699.23
30
1534.54
11
5404592.36
21
5123701.81
31
1539.48
0
LINE
8
CentreLine
10
5404592.36
20
5123701.81
30
1539.48
11
5404590.78
21
5123704.89
31
1539.97
0
LINE
8
CentreLine
10
5404590.78
20
5123704.89
30
1539.97
11
5404588.96
21
5123706.72
31
1541.06
0
LINE
8
CentreLine
10
5404588.96
20
5123706.72
30
1541.06
11
5404586.14
21
5123706.27
31
1540.56
0
LINE
8
CentreLine
10
5404586.14
20
5123706.27
30
1540.56
11
5404583.18
21
5123706.79
31
1543.78
0
LINE
8
CentreLine
10
5404583.18
20
5123706.79
30
1543.78
11
5404585.95
21
5123709.46
31
1547.12
0
LINE
8
CentreLine
10
5404585.95
20
5123709.46
30
1547.12
11
5404588.11
21
5123712.55
31
1548.13
0
LINE
8
CentreLine
10
5404588.11
20
5123712.55
30
1548.13
11
5404580.15
21
5123718.34
31
1552.31
0
LINE
8
CentreLine
10
5404580.15
20
5123718.34
30
1552.31
11
5404573.80
21
5123720.40
31
1554.74
0
LINE
8
CentreLine
10
5404573.80
20
5123720.40
30
1554.74
11
5404572.41
21
5123723.68
31
1556.56
0
LINE
8
CentreLine
10
5404572.41
20
5123723.68
30
1556.56
11
5404572.30
21
5123725.75
31
1552.12
0
LINE
8
CentreLine
10
5404572.30
20
5123725.75
30
1552.12
11
5404568.26
21
5123734.03
31
1553.41
0
LINE
8
CentreLine
10
5404568.26
20
5123734.03
30
1553.41
11
5404569.66
21
5123737.50
31
1554.07
0
LINE
8
CentreLine
10
5404569.66
20
5123737.50
30
1554.07
11
5404568.49
21
5123740.73
31
1555.68
0
LINE
8
CentreLine
10
5404568.49
20
5123740.73
30
1555.68
11
5404569.39
21
5123745.37
31
1557.31
0
LINE
8
CentreLine
10
5404569.39
20
5123745.37
30
1557.31
11
5404567.03
21
5123745.04
31
1557.64
0
LINE
8
CentreLine
10
5404567.03
20
5123745.04
30
1557.64
11
5404566.70
21
5123748.81
31
1556.34
0
LINE
8
CentreLine
10
5404566.70
20
5123748.81
30
1556.34
11
5404563.61
21
5123748.86
31
1557.17
0
LINE
8
CentreLine
10
5404563.61
20
5123748.86
30
1557.17
11
5404562.70
21
5123754.66
31
1557.78
0
LINE
8
CentreLine
10
5404562.70
20
5123754.66
30
1557.78
11
5404565.78
21
5123757.64
31
1560.16
0
LINE
8
CentreLine
10
5404565.78
20
5123757.64
30
1560.16
11
5404569.87
21
5123769.53
31
1564.49
0
LINE
8
CentreLine
10
5404569.87
20
5123769.53
30
1564.49
11
5404569.45
21
5123775.57
31
1566.23
0
LINE
8
CentreLine
10
5404569.45
20
5123775.57
30
1566.23
11
5404573.90
21
5123784.30
31
1569.41
0
LINE
8
CentreLine
10
5404573.90
20
5123784.30
30
1569.41
11
5404573.34
21
5123787.48
31
1574.58
0
LINE
8
CentreLine
10
5404573.34
20
5123787.48
30
1574.58
11
5404570.83
21
5123791.07
31
1575.04
0
LINE
8
CentreLine
10
5404570.83
20
5123791.07
30
1575.04
11
5404570.83
21
5123791.07
31
1581.24
0
LINE
8
CentreLine
10
5404570.83
20
5123791.07
30
1581.24
11
5404570.83
21
5123793.32
31
1587.44
0
LINE
8
CentreLine
10
5404570.83
20
5123793.32
30
1587.44
11
5404562.09
21
5123809.75
31
1594.22
0
LINE
8
CentreLine
10
5404562.09
20
5123809.75
30
1594.22
11
5404575.20
21
5123817.62
31
1606.16
0
LINE
8
CentreLine
10
5404575.20
20
5123817.62
30
1606.16
11
5404584.18
21
5123831.46
31
1610.27
0
LINE
8
CentreLine
10
5404584.18
20
5123831.46
30
1610.27
11
5404564.21
21
5123841.20
31
1630.28
0
LINE
8
CentreLine
10
5404521.83
20
5123341.56
30
1426.81
11
5404512.26
21
5123333.53
31
1426.81
0
LINE
8
CentreLine
10
5404512.26
20
5123333.53
30
1426.81
11
5404511.09
21
5123329.70
31
1426.81
0
LINE
8
CentreLine
10
5404511.09
20
5123329.70
30
1426.81
11
5404511.09
21
5123329.70
31
1414.31
0
TEXT
8
Labels
10
5404511.09
20
5123329.70
30
1414.31
40
  0.60
1
prim.ajdovscina.1
0
POINT
8
Stations
10
5404511.09
20
5123329.70
30
1414.31
0
TEXT
8
Labels
10
5404511.09
20
5123329.70
30
1426.81
40
  0.60
1
prim.ajdovscina.2
0
POINT
8
Stations
10
5404511.09
20
5123329.70
30
1426.81
0
TEXT
8
Labels
10
5404512.26
20
5123333.53
30
1426.81
40
  0.60
1
prim.ajdovscina.3
0
POINT
8
Stations
10
5404512.26
20
5123333.53
30
1426.81
0
TEXT
8
Labels
10
5404521.83
20
5123341.56
30
1426.81
40
  0.60
1
prim.ajdovscina.4
0
POINT
8
Stations
10
5404521.83
20
5123341.56
30
1426.81
0
TEXT
8
Labels
10
5404564.21
20
5123841.20
30
1630.28
40
  0.60
1
prim.smer0.0
0
POINT
8
Stations
10
5404564.21
20
5123841.20
30
1630.28
0
TEXT
8
Labels
10
5404584.18
20
5123831.46
30
1610.27
40
  0.60
1
prim.smer0.1
0
POINT
8
Stations
10
5404584.18
20
5123831.46
30
1610.27
0
TEXT
8
Labels
10
5404575.20
20
5123817.62
30
1606.16
40
  0.60
1
prim.smer0.2
0
POINT
8
Stations
10
5404575.20
20
5123817.62
30
1606.16
0
TEXT
8
Labels
10
5404562.09
20
5123809.75
30
1594.22
40
  0.60
1
prim.smer0.3
0
POINT
8
Stations
10
5404562.09
20
5123809.75
30
1594.22
0
TEXT
8
Labels
10
5404570.83
20
5123793.32
30
1587.44
40
  0.60
1
prim.smer0.4
0
POINT
8
Stations
10
5404570.83
20
5123793.32
30
1587.44
0
TEXT
8
Labels
10
5404570.83
20
5123791.07
30
1581.24
40
  0.60
1
prim.smer0.5
0
POINT
8
Stations
10
5404570.83
20
5123791.07
30
1581.24
0
TEXT
8
Labels
10
5404570.83
20
5123791.07
30
1575.04
40
  0.60
1
prim.smer0.6
0
POINT
8
Stations
10
5404570.83
20
5123791.07
30
1575.04
0
TEXT
8
Labels
10
5404573.34
20
5123787.48
30
1574.58
40
  0.60
1
prim.smer0.7
0
POINT
8
Stations
10
5404573.34
20
5123787.48
30
1574.58
0
TEXT
8
Labels
10
5404573.90
20
5123784.30
30
1569.41
40
  0.60
1
prim.smer0.8
0
POINT
8
Stations
10
5404573.90
20
5123784.30
30
1569.41
0
TEXT
8
Labels
10
5404569.45
20
5123775.57
30
1566.23
40
  0.60
1
prim.smer0.9
0
POINT
8
Stations
10
5404569.45
20
5123775.57
30
1566.23
0
TEXT
8
Labels
10
5404569.87
20
5123769.53
30
1564.49
40
  0.60
1
prim.smer0.10
0
POINT
8
Stations
10
5404569.87
20
5123769.53
30
1564.49
0
TEXT
8
Labels
10
5404565.78
20
5123757.64
30
1560.16
40
  0.60
1
prim.smer0.11
0
POINT
8
Stations
10
5404565.78
20
5123757.64
30
1560.16
0
TEXT
8
Labels
10
5404562.70
20
5123754.66
30
1557.78
40
  0.60
1
prim.smer0.12
0
POINT
8
Stations
10
5404562.70
20
5123754.66
30
1557.78
0
TEXT
8
Labels
10
5404563.61
20
5123748.86
30
1557.17
40
  0.60
1
prim.smer0.13
0
POINT
8
Stations
10
5404563.61
20
5123748.86
30
1557.17
0
TEXT
8
Labels
10
5404566.70
20
5123748.81
30
1556.34
40
  0.60
1
prim.smer0.14
0
POINT
8
Stations
10
5404566.70
20
5123748.81
30
1556.34
0
TEXT
8
Labels
10
5404567.03
20
5123745.04
30
1557.64
40
  0.60
1
prim.smer0.15
0
POINT
8
Stations
10
5404567.03
20
5123745.04
30
1557.64
0
TEXT
8
Labels
10
5404569.39
20
5123745.37
30
1557.31
40
  0.60
1
prim.smer0.16
0
POINT
8
Stations
10
5404569.39
20
5123745.37
30
1557.31
0
TEXT
8
Labels
10
5404568.49
20
5123740.73
30
1555.68
40
  0.60
1
prim.smer0.17
0
POINT
8
Stations
10
5404568.49
20
5123740.73
30
1555.68
0
TEXT
8
Labels
10
5404569.66
20
5123737.50
30
1554.07
40
  0.60
1
prim.smer0.18
0
POINT
8
Stations
10
5404569.66
20
5123737.50
30
1554.07
0
TEXT
8
Labels
10
5404568.26
20
5123734.03
30
1553.41
40
  0.60
1
prim.smer0.19
0
POINT
8
Stations
10
5404568.26
20
5123734.03
30
1553.41
0
TEXT
8
Labels
10
5404572.30
20
5123725.75
30
1552.12
40
  0.60
1
prim.smer0.20
0
POINT
8
Stations
10
5404572.30
20
5123725.75
30
1552.12
0
TEXT
8
Labels
10
5404572.41
20
5123723.68
30
1556.56
40
  0.60
1
prim.smer0.21
0
POINT
8
Stations
10
5404572.41
20
5123723.68
30
1556.56
0
TEXT
8
Labels
10
5404573.80
20
5123720.40
30
1554.74
40
  0.60
1
prim.smer0.22
0
POINT
8
Stations
10
5404573.80
20
5123720.40
30
1554.74
0
TEXT
8
Labels
10
5404580.15
20
5123718.34
30
1552.31
40
  0.60
1
prim.smer0.23
0
POINT
8
Stations
10
5404580.15
20
5123718.34
30
1552.31
0
TEXT
8
Labels
10
5404588.11
20
5123712.55
30
1548.13
40
  0.60
1
prim.smer0.24
0
POINT
8
Stations
10
5404588.11
20
5123712.55
30
1548.13
0
TEXT
8
Labels
10
5404585.95
20
5123709.46
30
1547.12
40
  0.60
1
prim.smer0.25
0
POINT
8
Stations
10
5404585.95
20
5123709.46
30
1547.12
0
TEXT
8
Labels
10
5404583.18
20
5123706.79
30
1543.78
40
  0.60
1
prim.smer0.26
0
POINT
8
Stations
10
5404583.18
20
5123706.79
30
1543.78
0
TEXT
8
Labels
10
5404586.14
20
5123706.27
30
1540.56
40
  0.60
1
prim.smer0.27
0
POINT
8
Stations
10
5404586.14
20
5123706.27
30
1540.56
0
TEXT
8
Labels
10
5404588.96
20
5123706.72
30
1541.06
40
  0.60
1
prim.smer0.28
0
POINT
8
Stations
10
5404588.96
20
5123706.72
30
1541.06
0
TEXT
8
Labels
10
5404590.78
20
5123704.89
30
1539.97
40
  0.60
1
prim.smer0.29
0
POINT
8
Stations
10
5404590.78
20
5123704.89
30
1539.97
0
TEXT
8
Labels
10
5404592.36
20
5123701.81
30
1539.48
40
  0.60
1
prim.smer0.30
0
POINT
8
Stations
10
5404592.36
20
5123701.81
30
1539.48
0
TEXT
8
Labels
10
5404591.81
20
5123699.23
30
1534.54
40
  0.60
1
prim.smer0.31
0
POINT
8
Stations
10
5404591.81
20
5123699.23
30
1534.54
0
TEXT
8
Labels
10
5404597.64
20
5123692.53
30
1532.16
40
  0.60
1
prim.smer0.32
0
POINT
8
Stations
10
5404597.64
20
5123692.53
30
1532.16
0
TEXT
8
Labels
10
5404604.63
20
5123690.39
30
1533.84
40
  0.60
1
prim.smer0.33
0
POINT
8
Stations
10
5404604.63
20
5123690.39
30
1533.84
0
TEXT
8
Labels
10
5404610.62
20
5123684.80
30
1527.44
40
  0.60
1
prim.smer0.34
0
POINT
8
Stations
10
5404610.62
20
5123684.80
30
1527.44
0
TEXT
8
Labels
10
5404616.52
20
5123677.77
30
1524.98
40
  0.60
1
prim.smer0.35
0
POINT
8
Stations
10
5404616.52
20
5123677.77
30
1524.98
0
TEXT
8
Labels
10
5404619.80
20
5123676.71
30
1526.59
40
  0.60
1
prim.smer0.36
0
POINT
8
Stations
10
5404619.80
20
5123676.71
30
1526.59
0
TEXT
8
Labels
10
5404622.83
20
5123672.38
30
1526.22
40
  0.60
1
prim.smer0.37
0
POINT
8
Stations
10
5404622.83
20
5123672.38
30
1526.22
0
TEXT
8
Labels
10
5404622.83
20
5123672.38
30
1521.42
40
  0.60
1
prim.smer0.38
0
POINT
8
Stations
10
5404622.83
20
5123672.38
30
1521.42
0
TEXT
8
Labels
10
5404631.83
20
5123665.34
30
1523.43
40
  0.60
1
prim.smer0.39
0
POINT
8
Stations
10
5404631.83
20
5123665.34
30
1523.43
0
TEXT
8
Labels
10
5404642.15
20
5123658.38
30
1530.05
40
  0.60
1
prim.smer0.40
0
POINT
8
Stations
10
5404642.15
20
5123658.38
30
1530.05
0
TEXT
8
Labels
10
5404646.48
20
5123648.66
30
1531.17
40
  0.60
1
prim.smer0.41
0
POINT
8
Stations
10
5404646.48
20
5123648.66
30
1531.17
0
TEXT
8
Labels
10
5404646.63
20
5123640.10
30
1529.35
40
  0.60
1
prim.smer0.42
0
POINT
8
Stations
10
5404646.63
20
5123640.10
30
1529.35
0
TEXT
8
Labels
10
5404656.28
20
5123638.92
30
1530.55
40
  0.60
1
prim.smer0.43
0
POINT
8
Stations
10
5404656.28
20
5123638.92
30
1530.55
0
TEXT
8
Labels
10
5404656.63
20
5123628.87
30
1524.97
40
  0.60
1
prim.smer0.44
0
POINT
8
Stations
10
5404656.63
20
5123628.87
30
1524.97
0
TEXT
8
Labels
10
5404650.99
20
5123620.81
30
1521.59
40
  0.60
1
prim.smer0.45
0
POINT
8
Stations
10
5404650.99
20
5123620.81
30
1521.59
0
TEXT
8
Labels
10
5404646.40
20
5123600.90
30
1512.91
40
  0.60
1
prim.smer0.46
0
POINT
8
Stations
10
5404646.40
20
5123600.90
30
1512.91
0
TEXT
8
Labels
10
5404649.62
20
5123593.98
30
1514.96
40
  0.60
1
prim.smer0.47
0
POINT
8
Stations
10
5404649.62
20
5123593.98
30
1514.96
0
TEXT
8
Labels
10
5404662.56
20
5123590.03
30
1512.81
40
  0.60
1
prim.smer0.48
0
POINT
8
Stations
10
5404662.56
20
5123590.03
30
1512.81
0
TEXT
8
Labels
10
5404667.57
20
5123585.19
30
1508.12
40
  0.60
1
prim.smer0.49
0
POINT
8
Stations
10
5404667.57
20
5123585.19
30
1508.12
0
TEXT
8
Labels
10
5404678.46
20
5123579.88
30
1510.25
40
  0.60
1
prim.smer0.50
0
POINT
8
Stations
10
5404678.46
20
5123579.88
30
1510.25
0
TEXT
8
Labels
10
5404677.61
20
5123570.14
30
1506.69
40
  0.60
1
prim.smer0.51
0
POINT
8
Stations
10
5404677.61
20
5123570.14
30
1506.69
0
TEXT
8
Labels
10
5404678.25
20
5123567.13
30
1510.11
40
  0.60
1
prim.smer0.52
0
POINT
8
Stations
10
5404678.25
20
5123567.13
30
1510.11
0
TEXT
8
Labels
10
5404675.62
20
5123566.18
30
1511.86
40
  0.60
1
prim.smer0.53
0
POINT
8
Stations
10
5404675.62
20
5123566.18
30
1511.86
0
TEXT
8
Labels
10
5404670.82
20
5123562.15
30
1510.53
40
  0.60
1
prim.smer0.54
0
POINT
8
Stations
10
5404670.82
20
5123562.15
30
1510.53
0
TEXT
8
Labels
10
5404674.86
20
5123556.79
30
1511.59
40
  0.60
1
prim.smer0.55
0
POINT
8
Stations
10
5404674.86
20
5123556.79
30
1511.59
0
TEXT
8
Labels
10
5404667.98
20
5123553.58
30
1511.33
40
  0.60
1
prim.smer0.56
0
POINT
8
Stations
10
5404667.98
20
5123553.58
30
1511.33
0
TEXT
8
Labels
10
5404666.06
20
5123550.51
30
1507.45
40
  0.60
1
prim.smer0.57
0
POINT
8
Stations
10
5404666.06
20
5123550.51
30
1507.45
0
TEXT
8
Labels
10
5404468.57
20
5123311.40
30
1134.03
40
  0.60
1
prim.milanova.9
0
POINT
8
Stations
10
5404468.57
20
5123311.40
30
1134.03
0
TEXT
8
Labels
10
5404468.57
20
5123311.40
30
1144.43
40
  0.60
1
prim.milanova.8
0
POINT
8
Stations
10
5404468.57
20
5123311.40
30
1144.43
0
TEXT
8
Labels
10
5404466.61
20
5123308.14
30
1147.97
40
  0.60
1
prim.milanova.7
0
POINT
8
Stations
10
5404466.61
20
5123308.14
30
1147.97
0
TEXT
8
Labels
10
5404464.75
20
5123303.54
30
1148.58
40
  0.60
1
prim.milanova.6
0
POINT
8
Stations
10
5404464.75
20
5123303.54
30
1148.58
0
TEXT
8
Labels
10
5404461.70
20
5123302.36
30
1150.88
40
  0.60
1
prim.milanova.5
0
POINT
8
Stations
10
5404461.70
20
5123302.36
30
1150.88
0
TEXT
8
Labels
10
5404459.77
20
5123302.26
30
1153.43
40
  0.60
1
prim.milanova.4
0
POINT
8
Stations
10
5404459.77
20
5123302.26
30
1153.43
0
TEXT
8
Labels
10
5404459.06
20
5123300.06
30
1154.61
40
  0.60
1
prim.milanova.3
0
POINT
8
Stations
10
5404459.06
20
5123300.06
30
1154.61
0
TEXT
8
Labels
10
5404457.56
20
5123289.44
30
1163.61
40
  0.60
1
prim.milanova.2
0
POINT
8
Stations
10
5404457.56
20
5123289.44
30
1163.61
0
TEXT
8
Labels
10
5404467.43
20
5123293.43
30
1206.31
40
  0.60
1
prim.milanova.1
0
POINT
8
Stations
10
5404467.43
20
5123293.43
30
1206.31
0
TEXT
8
Labels
10
5404467.43
20
5123293.43
30
1178.21
40
  0.60
1
prim.spodnji.16
0
POINT
8
Stations
10
5404467.43
20
5123293.43
30
1178.21
0
TEXT
8
Labels
10
5404467.43
20
5123293.43
30
1206.31
40
  0.60
1
prim.spodnji.15
0
POINT
8
Stations
10
5404467.43
20
5123293.43
30
1206.31
0
TEXT
8
Labels
10
5404470.62
20
5123291.51
30
1207.10
40
  0.60
1
prim.spodnji.14
0
POINT
8
Stations
10
5404470.62
20
5123291.51
30
1207.10
0
TEXT
8
Labels
10
5404471.25
20
5123285.54
30
1207.10
40
  0.60
1
prim.spodnji.13
0
POINT
8
Stations
10
5404471.25
20
5123285.54
30
1207.10
0
TEXT
8
Labels
10
5404471.25
20
5123285.54
30
1221.10
40
  0.60
1
prim.spodnji.12
0
POINT
8
Stations
10
5404471.25
20
5123285.54
30
1221.10
0
TEXT
8
Labels
10
5404477.57
20
5123281.59
30
1229.98
40
  0.60
1
prim.spodnji.11
0
POINT
8
Stations
10
5404477.57
20
5123281.59
30
1229.98
0
TEXT
8
Labels
10
5404482.29
20
5123275.76
30
1229.98
40
  0.60
1
prim.spodnji.10
0
POINT
8
Stations
10
5404482.29
20
5123275.76
30
1229.98
0
TEXT
8
Labels
10
5404485.49
20
5123276.44
30
1230.38
40
  0.60
1
prim.spodnji.9
0
POINT
8
Stations
10
5404485.49
20
5123276.44
30
1230.38
0
TEXT
8
Labels
10
5404491.18
20
5123274.60
30
1230.91
40
  0.60
1
prim.spodnji.8
0
POINT
8
Stations
10
5404491.18
20
5123274.60
30
1230.91
0
TEXT
8
Labels
10
5404495.56
20
5123277.34
30
1233.32
40
  0.60
1
prim.spodnji.7
0
POINT
8
Stations
10
5404495.56
20
5123277.34
30
1233.32
0
TEXT
8
Labels
10
5404495.56
20
5123277.34
30
1254.02
40
  0.60
1
prim.spodnji.6
0
POINT
8
Stations
10
5404495.56
20
5123277.34
30
1254.02
0
TEXT
8
Labels
10
5404497.68
20
5123284.74
30
1261.72
40
  0.60
1
prim.spodnji.5
0
POINT
8
Stations
10
5404497.68
20
5123284.74
30
1261.72
0
TEXT
8
Labels
10
5404498.07
20
5123290.29
30
1263.97
40
  0.60
1
prim.spodnji.4
0
POINT
8
Stations
10
5404498.07
20
5123290.29
30
1263.97
0
TEXT
8
Labels
10
5404498.34
20
5123298.00
30
1272.23
40
  0.60
1
prim.spodnji.3
0
POINT
8
Stations
10
5404498.34
20
5123298.00
30
1272.23
0
TEXT
8
Labels
10
5404496.70
20
5123303.05
30
1273.66
40
  0.60
1
prim.spodnji.2
0
POINT
8
Stations
10
5404496.70
20
5123303.05
30
1273.66
0
TEXT
8
Labels
10
5404496.70
20
5123309.63
30
1276.59
40
  0.60
1
prim.spodnji.1
0
POINT
8
Stations
10
5404496.70
20
5123309.63
30
1276.59
0
TEXT
8
Labels
10
5404496.70
20
5123309.63
30
1276.59
40
  0.60
1
prim.zima00.1
0
POINT
8
Stations
10
5404496.70
20
5123309.63
30
1276.59
0
TEXT
8
Labels
10
5404496.70
20
5123309.63
30
1289.19
40
  0.60
1
prim.zima00.2
0
POINT
8
Stations
10
5404496.70
20
5123309.63
30
1289.19
0
TEXT
8
Labels
10
5404491.51
20
5123313.54
30
1300.45
40
  0.60
1
prim.zima00.3
0
POINT
8
Stations
10
5404491.51
20
5123313.54
30
1300.45
0
TEXT
8
Labels
10
5404491.51
20
5123313.54
30
1324.45
40
  0.60
1
prim.zima00.4
0
POINT
8
Stations
10
5404491.51
20
5123313.54
30
1324.45
0
TEXT
8
Labels
10
5404504.05
20
5123316.90
30
1339.92
40
  0.60
1
prim.zima00.5
0
POINT
8
Stations
10
5404504.05
20
5123316.90
30
1339.92
0
TEXT
8
Labels
10
5404507.82
20
5123318.74
30
1339.92
40
  0.60
1
prim.zima00.6
0
POINT
8
Stations
10
5404507.82
20
5123318.74
30
1339.92
0
TEXT
8
Labels
10
5404511.65
20
5123324.20
30
1358.24
40
  0.60
1
prim.zima00.7
0
POINT
8
Stations
10
5404511.65
20
5123324.20
30
1358.24
0
TEXT
8
Labels
10
5404522.05
20
5123322.37
30
1359.17
40
  0.60
1
prim.zima00.8
0
POINT
8
Stations
10
5404522.05
20
5123322.37
30
1359.17
0
TEXT
8
Labels
10
5404524.54
20
5123325.93
30
1362.21
40
  0.60
1
prim.zima00.9
0
POINT
8
Stations
10
5404524.54
20
5123325.93
30
1362.21
0
TEXT
8
Labels
10
5404527.81
20
5123338.11
30
1380.23
40
  0.60
1
prim.zima00.10
0
POINT
8
Stations
10
5404527.81
20
5123338.11
30
1380.23
0
TEXT
8
Labels
10
5404527.81
20
5123338.11
30
1399.03
40
  0.60
1
prim.zima00.11
0
POINT
8
Stations
10
5404527.81
20
5123338.11
30
1399.03
0
TEXT
8
Labels
10
5404521.83
20
5123341.56
30
1404.81
40
  0.60
1
prim.zima00.12
0
POINT
8
Stations
10
5404521.83
20
5123341.56
30
1404.81
0
TEXT
8
Labels
10
5404521.83
20
5123341.56
30
1426.81
40
  0.60
1
prim.zima00.13
0
POINT
8
Stations
10
5404521.83
20
5123341.56
30
1426.81
0
TEXT
8
Labels
10
5404527.05
20
5123342.96
30
1426.81
40
  0.60
1
prim.zima00.14
0
POINT
8
Stations
10
5404527.05
20
5123342.96
30
1426.81
0
TEXT
8
Labels
10
5404531.42
20
5123348.17
30
1426.81
40
  0.60
1
prim.zima00.15
0
POINT
8
Stations
10
5404531.42
20
5123348.17
30
1426.81
0
TEXT
8
Labels
10
5404528.05
20
5123352.48
30
1429.72
40
  0.60
1
prim.zima00.16
0
POINT
8
Stations
10
5404528.05
20
5123352.48
30
1429.72
0
TEXT
8
Labels
10
5404529.18
20
5123365.38
30
1430.86
40
  0.60
1
prim.zima00.17
0
POINT
8
Stations
10
5404529.18
20
5123365.38
30
1430.86
0
TEXT
8
Labels
10
5404531.10
20
5123362.63
30
1432.64
40
  0.60
1
prim.zima00.18
0
POINT
8
Stations
10
5404531.10
20
5123362.63
30
1432.64
0
TEXT
8
Labels
10
5404534.65
20
5123366.86
30
1437.27
40
  0.60
1
prim.zima00.19
0
POINT
8
Stations
10
5404534.65
20
5123366.86
30
1437.27
0
TEXT
8
Labels
10
5404537.86
20
5123365.88
30
1439.80
40
  0.60
1
prim.zima00.20
0
POINT
8
Stations
10
5404537.86
20
5123365.88
30
1439.80
0
TEXT
8
Labels
10
5404544.06
20
5123368.14
30
1438.63
40
  0.60
1
prim.zima00.21
0
POINT
8
Stations
10
5404544.06
20
5123368.14
30
1438.63
0
TEXT
8
Labels
10
5404555.55
20
5123377.78
30
1438.63
40
  0.60
1
prim.zima00.22
0
POINT
8
Stations
10
5404555.55
20
5123377.78
30
1438.63
0
TEXT
8
Labels
10
5404555.55
20
5123377.78
30
1438.63
40
  0.60
1
prim.ttt.1
0
POINT
8
Stations
10
5404555.55
20
5123377.78
30
1438.63
0
TEXT
8
Labels
10
5404555.55
20
5123377.78
30
1480.13
40
  0.60
1
prim.ttt.2
0
POINT
8
Stations
10
5404555.55
20
5123377.78
30
1480.13
0
TEXT
8
Labels
10
5404562.03
20
5123382.84
30
1489.94
40
  0.60
1
prim.ttt.3
0
POINT
8
Stations
10
5404562.03
20
5123382.84
30
1489.94
0
TEXT
8
Labels
10
5404568.62
20
5123388.37
30
1489.94
40
  0.60
1
prim.ttt.4
0
POINT
8
Stations
10
5404568.62
20
5123388.37
30
1489.94
0
TEXT
8
Labels
10
5404574.22
20
5123392.90
30
1489.94
40
  0.60
1
prim.ttt.5
0
POINT
8
Stations
10
5404574.22
20
5123392.90
30
1489.94
0
TEXT
8
Labels
10
5404576.51
20
5123397.41
30
1494.18
40
  0.60
1
prim.ttt.6
0
POINT
8
Stations
10
5404576.51
20
5123397.41
30
1494.18
0
TEXT
8
Labels
10
5404577.59
20
5123399.95
30
1497.48
40
  0.60
1
prim.ttt.7
0
POINT
8
Stations
10
5404577.59
20
5123399.95
30
1497.48
0
TEXT
8
Labels
10
5404583.49
20
5123406.27
30
1500.62
40
  0.60
1
prim.ttt.8
0
POINT
8
Stations
10
5404583.49
20
5123406.27
30
1500.62
0
TEXT
8
Labels
10
5404587.47
20
5123409.62
30
1500.62
40
  0.60
1
prim.ttt.9
0
POINT
8
Stations
10
5404587.47
20
5123409.62
30
1500.62
0
TEXT
8
Labels
10
5404592.36
20
5123414.68
30
1499.12
40
  0.60
1
prim.ttt.10
0
POINT
8
Stations
10
5404592.36
20
5123414.68
30
1499.12
0
TEXT
8
Labels
10
5404592.36
20
5123414.68
30
1505.92
40
  0.60
1
prim.ttt.11
0
POINT
8
Stations
10
5404592.36
20
5123414.68
30
1505.92
0
TEXT
8
Labels
10
5404597.90
20
5123420.03
30
1509.52
40
  0.60
1
prim.ttt.12
0
POINT
8
Stations
10
5404597.90
20
5123420.03
30
1509.52
0
TEXT
8
Labels
10
5404605.70
20
5123427.56
30
1511.43
40
  0.60
1
prim.ttt.13
0
POINT
8
Stations
10
5404605.70
20
5123427.56
30
1511.43
0
TEXT
8
Labels
10
5404566.29
20
5123428.90
30
1491.44
40
  0.60
1
prim.galerija2.1
0
POINT
8
Stations
10
5404566.29
20
5123428.90
30
1491.44
0
TEXT
8
Labels
10
5404564.39
20
5123432.19
30
1484.86
40
  0.60
1
prim.galerija2.2
0
POINT
8
Stations
10
5404564.39
20
5123432.19
30
1484.86
0
TEXT
8
Labels
10
5404561.50
20
5123440.14
30
1487.93
40
  0.60
1
prim.galerija2.3
0
POINT
8
Stations
10
5404561.50
20
5123440.14
30
1487.93
0
TEXT
8
Labels
10
5404562.09
20
5123443.47
30
1488.84
40
  0.60
1
prim.galerija2.4
0
POINT
8
Stations
10
5404562.09
20
5123443.47
30
1488.84
0
TEXT
8
Labels
10
5404570.70
20
5123451.22
30
1491.95
40
  0.60
1
prim.galerija2.5
0
POINT
8
Stations
10
5404570.70
20
5123451.22
30
1491.95
0
TEXT
8
Labels
10
5404571.97
20
5123452.37
30
1496.64
40
  0.60
1
prim.galerija2.6
0
POINT
8
Stations
10
5404571.97
20
5123452.37
30
1496.64
0
TEXT
8
Labels
10
5404562.41
20
5123478.64
30
1498.11
40
  0.60
1
prim.galerija2.7
0
POINT
8
Stations
10
5404562.41
20
5123478.64
30
1498.11
0
TEXT
8
Labels
10
5404566.44
20
5123482.67
30
1499.64
40
  0.60
1
prim.galerija2.8
0
POINT
8
Stations
10
5404566.44
20
5123482.67
30
1499.64
0
TEXT
8
Labels
10
5404576.99
20
5123478.83
30
1501.62
40
  0.60
1
prim.galerija2.9
0
POINT
8
Stations
10
5404576.99
20
5123478.83
30
1501.62
0
TEXT
8
Labels
10
5404582.05
20
5123474.59
30
1501.62
40
  0.60
1
prim.galerija2.10
0
POINT
8
Stations
10
5404582.05
20
5123474.59
30
1501.62
0
TEXT
8
Labels
10
5404584.34
20
5123478.56
30
1502.02
40
  0.60
1
prim.galerija2.11
0
POINT
8
Stations
10
5404584.34
20
5123478.56
30
1502.02
0
TEXT
8
Labels
10
5404589.28
20
5123482.42
30
1500.33
40
  0.60
1
prim.galerija2.12
0
POINT
8
Stations
10
5404589.28
20
5123482.42
30
1500.33
0
TEXT
8
Labels
10
5404593.60
20
5123488.58
30
1497.60
40
  0.60
1
prim.galerija2.13
0
POINT
8
Stations
10
5404593.60
20
5123488.58
30
1497.60
0
TEXT
8
Labels
10
5404590.36
20
5123482.98
30
1493.07
40
  0.60
1
prim.galerija2.14
0
POINT
8
Stations
10
5404590.36
20
5123482.98
30
1493.07
0
TEXT
8
Labels
10
5404590.00
20
5123481.43
30
1464.18
40
  0.60
1
prim.galerija.1
0
POINT
8
Stations
10
5404590.00
20
5123481.43
30
1464.18
0
TEXT
8
Labels
10
5404590.00
20
5123481.43
30
1491.78
40
  0.60
1
prim.galerija.2
0
POINT
8
Stations
10
5404590.00
20
5123481.43
30
1491.78
0
TEXT
8
Labels
10
5404590.36
20
5123482.98
30
1493.07
40
  0.60
1
prim.galerija.3
0
POINT
8
Stations
10
5404590.36
20
5123482.98
30
1493.07
0
TEXT
8
Labels
10
5404591.99
20
5123486.81
30
1496.09
40
  0.60
1
prim.galerija.4
0
POINT
8
Stations
10
5404591.99
20
5123486.81
30
1496.09
0
TEXT
8
Labels
10
5404594.66
20
5123489.58
30
1496.70
40
  0.60
1
prim.galerija.5
0
POINT
8
Stations
10
5404594.66
20
5123489.58
30
1496.70
0
TEXT
8
Labels
10
5404593.03
20
5123493.64
30
1499.23
40
  0.60
1
prim.galerija.6
0
POINT
8
Stations
10
5404593.03
20
5123493.64
30
1499.23
0
TEXT
8
Labels
10
5404597.43
20
5123500.43
30
1499.51
40
  0.60
1
prim.galerija.7
0
POINT
8
Stations
10
5404597.43
20
5123500.43
30
1499.51
0
TEXT
8
Labels
10
5404598.50
20
5123505.45
30
1502.72
40
  0.60
1
prim.galerija.8
0
POINT
8
Stations
10
5404598.50
20
5123505.45
30
1502.72
0
TEXT
8
Labels
10
5404606.61
20
5123507.93
30
1500.76
40
  0.60
1
prim.galerija.9
0
POINT
8
Stations
10
5404606.61
20
5123507.93
30
1500.76
0
TEXT
8
Labels
10
5404611.81
20
5123512.95
30
1504.06
40
  0.60
1
prim.galerija.10
0
POINT
8
Stations
10
5404611.81
20
5123512.95
30
1504.06
0
TEXT
8
Labels
10
5404615.21
20
5123526.58
30
1503.69
40
  0.60
1
prim.galerija.11
0
POINT
8
Stations
10
5404615.21
20
5123526.58
30
1503.69
0
TEXT
8
Labels
10
5404630.08
20
5123534.16
30
1504.27
40
  0.60
1
prim.galerija.12
0
POINT
8
Stations
10
5404630.08
20
5123534.16
30
1504.27
0
TEXT
8
Labels
10
5404641.19
20
5123534.93
30
1505.44
40
  0.60
1
prim.galerija.13
0
POINT
8
Stations
10
5404641.19
20
5123534.93
30
1505.44
0
TEXT
8
Labels
10
5404653.54
20
5123537.56
30
1504.67
40
  0.60
1
prim.galerija.14
0
POINT
8
Stations
10
5404653.54
20
5123537.56
30
1504.67
0
TEXT
8
Labels
10
5404658.55
20
5123548.79
30
1504.67
40
  0.60
1
prim.galerija.15
0
POINT
8
Stations
10
5404658.55
20
5123548.79
30
1504.67
0
TEXT
8
Labels
10
5404661.63
20
5123551.29
30
1507.45
40
  0.60
1
prim.galerija.16
0
POINT
8
Stations
10
5404661.63
20
5123551.29
30
1507.45
0
TEXT
8
Labels
10
5404666.06
20
5123550.51
30
1507.45
40
  0.60
1
prim.galerija.17
0
POINT
8
Stations
10
5404666.06
20
5123550.51
30
1507.45
0
TEXT
8
Labels
10
5404666.06
20
5123550.51
30
1528.75
40
  0.60
1
prim.galerija.18
0
POINT
8
Stations
10
5404666.06
20
5123550.51
30
1528.75
0
TEXT
8
Labels
10
5404666.06
20
5123552.12
30
1532.74
40
  0.60
1
prim.galerija.19
0
POINT
8
Stations
10
5404666.06
20
5123552.12
30
1532.74
0
TEXT
8
Labels
10
5404669.15
20
5123562.20
30
1533.29
40
  0.60
1
prim.galerija.20
0
POINT
8
Stations
10
5404669.15
20
5123562.20
30
1533.29
0
TEXT
8
Labels
10
5404669.15
20
5123562.20
30
1538.79
40
  0.60
1
prim.galerija.21
0
POINT
8
Stations
10
5404669.15
20
5123562.20
30
1538.79
0
TEXT
8
Labels
10
5404665.19
20
5123560.99
30
1542.79
40
  0.60
1
prim.galerija.22
0
POINT
8
Stations
10
5404665.19
20
5123560.99
30
1542.79
0
TEXT
8
Labels
10
5404660.80
20
5123565.70
30
1543.12
40
  0.60
1
prim.galerija.23
0
POINT
8
Stations
10
5404660.80
20
5123565.70
30
1543.12
0
TEXT
8
Labels
10
5404657.32
20
5123571.97
30
1545.32
40
  0.60
1
prim.galerija.24
0
POINT
8
Stations
10
5404657.32
20
5123571.97
30
1545.32
0
TEXT
8
Labels
10
5404651.66
20
5123573.18
30
1544.91
40
  0.60
1
prim.galerija.25
0
POINT
8
Stations
10
5404651.66
20
5123573.18
30
1544.91
0
TEXT
8
Labels
10
5404647.73
20
5123570.10
30
1544.65
40
  0.60
1
prim.galerija.26
0
POINT
8
Stations
10
5404647.73
20
5123570.10
30
1544.65
0
TEXT
8
Labels
10
5404639.98
20
5123574.94
30
1548.72
40
  0.60
1
prim.galerija.27
0
POINT
8
Stations
10
5404639.98
20
5123574.94
30
1548.72
0
TEXT
8
Labels
10
5404637.73
20
5123572.07
30
1548.72
40
  0.60
1
prim.galerija.28
0
POINT
8
Stations
10
5404637.73
20
5123572.07
30
1548.72
0
TEXT
8
Labels
10
5404640.72
20
5123569.89
30
1548.72
40
  0.60
1
prim.galerija.29
0
POINT
8
Stations
10
5404640.72
20
5123569.89
30
1548.72
0
TEXT
8
Labels
10
5404640.72
20
5123569.89
30
1548.72
40
  0.60
1
prim.risa2.12
0
POINT
8
Stations
10
5404640.72
20
5123569.89
30
1548.72
0
TEXT
8
Labels
10
5404636.31
20
5123572.14
30
1548.72
40
  0.60
1
prim.risa2.11
0
POINT
8
Stations
10
5404636.31
20
5123572.14
30
1548.72
0
TEXT
8
Labels
10
5404632.66
20
5123575.21
30
1547.40
40
  0.60
1
prim.risa2.10
0
POINT
8
Stations
10
5404632.66
20
5123575.21
30
1547.40
0
TEXT
8
Labels
10
5404628.98
20
5123579.29
30
1547.30
40
  0.60
1
prim.risa2.9
0
POINT
8
Stations
10
5404628.98
20
5123579.29
30
1547.30
0
TEXT
8
Labels
10
5404628.53
20
5123584.47
30
1548.94
40
  0.60
1
prim.risa2.8
0
POINT
8
Stations
10
5404628.53
20
5123584.47
30
1548.94
0
TEXT
8
Labels
10
5404622.40
20
5123586.11
30
1546.94
40
  0.60
1
prim.risa2.7
0
POINT
8
Stations
10
5404622.40
20
5123586.11
30
1546.94
0
TEXT
8
Labels
10
5404618.45
20
5123589.79
30
1547.70
40
  0.60
1
prim.risa2.6
0
POINT
8
Stations
10
5404618.45
20
5123589.79
30
1547.70
0
TEXT
8
Labels
10
5404614.14
20
5123594.84
30
1548.05
40
  0.60
1
prim.risa2.5
0
POINT
8
Stations
10
5404614.14
20
5123594.84
30
1548.05
0
TEXT
8
Labels
10
5404612.18
20
5123601.68
30
1550.08
40
  0.60
1
prim.risa2.4
0
POINT
8
Stations
10
5404612.18
20
5123601.68
30
1550.08
0
TEXT
8
Labels
10
5404612.26
20
5123606.27
30
1552.73
40
  0.60
1
prim.risa2.3
0
POINT
8
Stations
10
5404612.26
20
5123606.27
30
1552.73
0
TEXT
8
Labels
10
5404609.41
20
5123605.45
30
1553.20
40
  0.60
1
prim.risa2.2
0
POINT
8
Stations
10
5404609.41
20
5123605.45
30
1553.20
0
TEXT
8
Labels
10
5404603.65
20
5123602.26
30
1549.84
40
  0.60
1
prim.risa2.1
0
POINT
8
Stations
10
5404603.65
20
5123602.26
30
1549.84
0
TEXT
8
Labels
10
5404612.34
20
5123610.70
30
1567.20
40
  0.60
1
prim.podor.9
0
POINT
8
Stations
10
5404612.34
20
5123610.70
30
1567.20
0
TEXT
8
Labels
10
5404607.57
20
5123609.77
30
1567.80
40
  0.60
1
prim.podor.8
0
POINT
8
Stations
10
5404607.57
20
5123609.77
30
1567.80
0
TEXT
8
Labels
10
5404607.22
20
5123610.98
30
1568.78
40
  0.60
1
prim.podor.7
0
POINT
8
Stations
10
5404607.22
20
5123610.98
30
1568.78
0
TEXT
8
Labels
10
5404611.35
20
5123612.61
30
1571.17
40
  0.60
1
prim.podor.6
0
POINT
8
Stations
10
5404611.35
20
5123612.61
30
1571.17
0
TEXT
8
Labels
10
5404608.27
20
5123611.43
30
1571.23
40
  0.60
1
prim.podor.5
0
POINT
8
Stations
10
5404608.27
20
5123611.43
30
1571.23
0
TEXT
8
Labels
10
5404607.93
20
5123609.31
30
1570.74
40
  0.60
1
prim.podor.4
0
POINT
8
Stations
10
5404607.93
20
5123609.31
30
1570.74
0
TEXT
8
Labels
10
5404606.88
20
5123606.71
30
1569.99
40
  0.60
1
prim.podor.3
0
POINT
8
Stations
10
5404606.88
20
5123606.71
30
1569.99
0
TEXT
8
Labels
10
5404605.77
20
5123604.08
30
1570.49
40
  0.60
1
prim.podor.2
0
POINT
8
Stations
10
5404605.77
20
5123604.08
30
1570.49
0
TEXT
8
Labels
10
5404605.59
20
5123609.08
30
1573.99
40
  0.60
1
prim.podor.1
0
POINT
8
Stations
10
5404605.59
20
5123609.08
30
1573.99
0
TEXT
8
Labels
10
5404617.70
20
5123591.63
30
1545.70
40
  0.60
1
prim.risa1.1
0
POINT
8
Stations
10
5404617.70
20
5123591.63
30
1545.70
0
TEXT
8
Labels
10
5404613.47
20
5123596.09
30
1546.56
40
  0.60
1
prim.risa1.2
0
POINT
8
Stations
10
5404613.47
20
5123596.09
30
1546.56
0
TEXT
8
Labels
10
5404611.44
20
5123604.89
30
1549.50
40
  0.60
1
prim.risa1.3
0
POINT
8
Stations
10
5404611.44
20
5123604.89
30
1549.50
0
TEXT
8
Labels
10
5404611.27
20
5123608.12
30
1552.02
40
  0.60
1
prim.risa1.4
0
POINT
8
Stations
10
5404611.27
20
5123608.12
30
1552.02
0
TEXT
8
Labels
10
5404608.08
20
5123604.82
30
1552.34
40
  0.60
1
prim.risa1.5
0
POINT
8
Stations
10
5404608.08
20
5123604.82
30
1552.34
0
TEXT
8
Labels
10
5404603.65
20
5123602.26
30
1549.84
40
  0.60
1
prim.risa1.6
0
POINT
8
Stations
10
5404603.65
20
5123602.26
30
1549.84
0
TEXT
8
Labels
10
5404603.65
20
5123602.26
30
1549.84
40
  0.60
1
prim.risanke.1
0
POINT
8
Stations
10
5404603.65
20
5123602.26
30
1549.84
0
TEXT
8
Labels
10
5404600.39
20
5123605.40
30
1554.22
40
  0.60
1
prim.risanke.2
0
POINT
8
Stations
10
5404600.39
20
5123605.40
30
1554.22
0
TEXT
8
Labels
10
5404601.02
20
5123608.67
30
1559.34
40
  0.60
1
prim.risanke.3
0
POINT
8
Stations
10
5404601.02
20
5123608.67
30
1559.34
0
TEXT
8
Labels
10
5404601.98
20
5123615.07
30
1566.28
40
  0.60
1
prim.risanke.4
0
POINT
8
Stations
10
5404601.98
20
5123615.07
30
1566.28
0
TEXT
8
Labels
10
5404597.91
20
5123617.52
30
1568.40
40
  0.60
1
prim.risanke.5
0
POINT
8
Stations
10
5404597.91
20
5123617.52
30
1568.40
0
TEXT
8
Labels
10
5404627.16
20
5123573.43
30
1551.85
40
  0.60
1
prim.pov.27
0
POINT
8
Stations
10
5404627.16
20
5123573.43
30
1551.85
0
TEXT
8
Labels
10
5404627.29
20
5123571.85
30
1550.33
40
  0.60
1
prim.pov.26
0
POINT
8
Stations
10
5404627.29
20
5123571.85
30
1550.33
0
TEXT
8
Labels
10
5404630.60
20
5123568.31
30
1550.33
40
  0.60
1
prim.pov.25
0
POINT
8
Stations
10
5404630.60
20
5123568.31
30
1550.33
0
TEXT
8
Labels
10
5404633.47
20
5123567.18
30
1549.14
40
  0.60
1
prim.pov.24
0
POINT
8
Stations
10
5404633.47
20
5123567.18
30
1549.14
0
TEXT
8
Labels
10
5404636.56
20
5123558.19
30
1549.14
40
  0.60
1
prim.pov.23
0
POINT
8
Stations
10
5404636.56
20
5123558.19
30
1549.14
0
TEXT
8
Labels
10
5404633.58
20
5123558.04
30
1548.88
40
  0.60
1
prim.pov.22
0
POINT
8
Stations
10
5404633.58
20
5123558.04
30
1548.88
0
TEXT
8
Labels
10
5404634.29
20
5123552.20
30
1548.47
40
  0.60
1
prim.pov.21
0
POINT
8
Stations
10
5404634.29
20
5123552.20
30
1548.47
0
TEXT
8
Labels
10
5404632.38
20
5123551.16
30
1548.13
40
  0.60
1
prim.pov.20
0
POINT
8
Stations
10
5404632.38
20
5123551.16
30
1548.13
0
TEXT
8
Labels
10
5404627.98
20
5123542.51
30
1545.71
40
  0.60
1
prim.pov.19
0
POINT
8
Stations
10
5404627.98
20
5123542.51
30
1545.71
0
TEXT
8
Labels
10
5404627.14
20
5123535.70
30
1544.62
40
  0.60
1
prim.pov.18
0
POINT
8
Stations
10
5404627.14
20
5123535.70
30
1544.62
0
TEXT
8
Labels
10
5404628.28
20
5123527.64
30
1539.92
40
  0.60
1
prim.pov.17
0
POINT
8
Stations
10
5404628.28
20
5123527.64
30
1539.92
0
TEXT
8
Labels
10
5404622.24
20
5123524.43
30
1538.21
40
  0.60
1
prim.pov.16
0
POINT
8
Stations
10
5404622.24
20
5123524.43
30
1538.21
0
TEXT
8
Labels
10
5404622.43
20
5123518.84
30
1537.13
40
  0.60
1
prim.pov.15
0
POINT
8
Stations
10
5404622.43
20
5123518.84
30
1537.13
0
TEXT
8
Labels
10
5404621.79
20
5123516.05
30
1532.55
40
  0.60
1
prim.pov.14
0
POINT
8
Stations
10
5404621.79
20
5123516.05
30
1532.55
0
TEXT
8
Labels
10
5404613.97
20
5123509.01
30
1525.98
40
  0.60
1
prim.pov.13
0
POINT
8
Stations
10
5404613.97
20
5123509.01
30
1525.98
0
TEXT
8
Labels
10
5404616.96
20
5123498.59
30
1523.37
40
  0.60
1
prim.pov.12
0
POINT
8
Stations
10
5404616.96
20
5123498.59
30
1523.37
0
TEXT
8
Labels
10
5404619.39
20
5123499.52
30
1523.42
40
  0.60
1
prim.pov.11
0
POINT
8
Stations
10
5404619.39
20
5123499.52
30
1523.42
0
TEXT
8
Labels
10
5404625.08
20
5123492.23
30
1522.45
40
  0.60
1
prim.pov.10
0
POINT
8
Stations
10
5404625.08
20
5123492.23
30
1522.45
0
TEXT
8
Labels
10
5404628.34
20
5123484.17
30
1520.12
40
  0.60
1
prim.pov.9
0
POINT
8
Stations
10
5404628.34
20
5123484.17
30
1520.12
0
TEXT
8
Labels
10
5404623.96
20
5123478.76
30
1515.24
40
  0.60
1
prim.pov.8
0
POINT
8
Stations
10
5404623.96
20
5123478.76
30
1515.24
0
TEXT
8
Labels
10
5404624.00
20
5123477.57
30
1515.39
40
  0.60
1
prim.pov.7
0
POINT
8
Stations
10
5404624.00
20
5123477.57
30
1515.39
0
TEXT
8
Labels
10
5404620.95
20
5123470.01
30
1517.42
40
  0.60
1
prim.pov.6
0
POINT
8
Stations
10
5404620.95
20
5123470.01
30
1517.42
0
TEXT
8
Labels
10
5404614.38
20
5123456.56
30
1514.78
40
  0.60
1
prim.pov.5
0
POINT
8
Stations
10
5404614.38
20
5123456.56
30
1514.78
0
TEXT
8
Labels
10
5404621.47
20
5123449.95
30
1515.80
40
  0.60
1
prim.pov.4
0
POINT
8
Stations
10
5404621.47
20
5123449.95
30
1515.80
0
TEXT
8
Labels
10
5404623.61
20
5123442.97
30
1515.54
40
  0.60
1
prim.pov.3
0
POINT
8
Stations
10
5404623.61
20
5123442.97
30
1515.54
0
TEXT
8
Labels
10
5404616.63
20
5123439.72
30
1515.54
40
  0.60
1
prim.pov.2
0
POINT
8
Stations
10
5404616.63
20
5123439.72
30
1515.54
0
TEXT
8
Labels
10
5404608.36
20
5123430.85
30
1512.97
40
  0.60
1
prim.pov.1
0
POINT
8
Stations
10
5404608.36
20
5123430.85
30
1512.97
0
TEXT
8
Labels
10
5404608.36
20
5123430.85
30
1512.97
40
  0.60
1
prim.ttt.14
0
POINT
8
Stations
10
5404608.36
20
5123430.85
30
1512.97
0
TEXT
8
Labels
10
5404601.18
20
5123436.87
30
1515.48
40
  0.60
1
prim.ttt.15
0
POINT
8
Stations
10
5404601.18
20
5123436.87
30
1515.48
0
TEXT
8
Labels
10
5404594.94
20
5123447.67
30
1512.60
40
  0.60
1
prim.ttt.16
0
POINT
8
Stations
10
5404594.94
20
5123447.67
30
1512.60
0
TEXT
8
Labels
10
5404594.94
20
5123457.44
30
1516.15
40
  0.60
1
prim.ttt.17
0
POINT
8
Stations
10
5404594.94
20
5123457.44
30
1516.15
0
TEXT
8
Labels
10
5404597.39
20
5123459.50
30
1517.58
40
  0.60
1
prim.ttt.18
0
POINT
8
Stations
10
5404597.39
20
5123459.50
30
1517.58
0
TEXT
8
Labels
10
5404597.61
20
5123463.59
30
1517.58
40
  0.60
1
prim.ttt.19
0
POINT
8
Stations
10
5404597.61
20
5123463.59
30
1517.58
0
TEXT
8
Labels
10
5404599.66
20
5123467.14
30
1517.58
40
  0.60
1
prim.ttt.20
0
POINT
8
Stations
10
5404599.66
20
5123467.14
30
1517.58
0
TEXT
8
Labels
10
5404600.29
20
5123473.11
30
1517.58
40
  0.60
1
prim.ttt.21
0
POINT
8
Stations
10
5404600.29
20
5123473.11
30
1517.58
0
TEXT
8
Labels
10
5404594.34
20
5123482.62
30
1522.11
40
  0.60
1
prim.ttt.22
0
POINT
8
Stations
10
5404594.34
20
5123482.62
30
1522.11
0
TEXT
8
Labels
10
5404585.06
20
5123498.70
30
1519.17
40
  0.60
1
prim.ttt.23
0
POINT
8
Stations
10
5404585.06
20
5123498.70
30
1519.17
0
TEXT
8
Labels
10
5404591.61
20
5123501.09
30
1534.12
40
  0.60
1
prim.ttt.24
0
POINT
8
Stations
10
5404591.61
20
5123501.09
30
1534.12
0
TEXT
8
Labels
10
5404587.91
20
5123506.37
30
1536.86
40
  0.60
1
prim.ttt.25
0
POINT
8
Stations
10
5404587.91
20
5123506.37
30
1536.86
0
TEXT
8
Labels
10
5404584.37
20
5123507.32
30
1541.23
40
  0.60
1
prim.ttt.26
0
POINT
8
Stations
10
5404584.37
20
5123507.32
30
1541.23
0
TEXT
8
Labels
10
5404587.24
20
5123512.71
30
1543.45
40
  0.60
1
prim.ttt.27
0
POINT
8
Stations
10
5404587.24
20
5123512.71
30
1543.45
0
TEXT
8
Labels
10
5404586.68
20
5123523.49
30
1543.45
40
  0.60
1
prim.ttt.28
0
POINT
8
Stations
10
5404586.68
20
5123523.49
30
1543.45
0
TEXT
8
Labels
10
5404586.84
20
5123528.28
30
1545.19
40
  0.60
1
prim.ttt.29
0
POINT
8
Stations
10
5404586.84
20
5123528.28
30
1545.19
0
TEXT
8
Labels
10
5404583.85
20
5123531.28
30
1547.45
40
  0.60
1
prim.ttt.30
0
POINT
8
Stations
10
5404583.85
20
5123531.28
30
1547.45
0
TEXT
8
Labels
10
5404579.48
20
5123535.64
30
1554.80
40
  0.60
1
prim.ttt.31
0
POINT
8
Stations
10
5404579.48
20
5123535.64
30
1554.80
0
TEXT
8
Labels
10
5404578.43
20
5123538.53
30
1557.20
40
  0.60
1
prim.ttt.32
0
POINT
8
Stations
10
5404578.43
20
5123538.53
30
1557.20
0
TEXT
8
Labels
10
5404582.61
20
5123548.38
30
1557.20
40
  0.60
1
prim.ttt.33
0
POINT
8
Stations
10
5404582.61
20
5123548.38
30
1557.20
0
TEXT
8
Labels
10
5404578.77
20
5123555.32
30
1560.25
40
  0.60
1
prim.ttt.34
0
POINT
8
Stations
10
5404578.77
20
5123555.32
30
1560.25
0
TEXT
8
Labels
10
5404578.77
20
5123555.32
30
1560.25
40
  0.60
1
prim.prima2.1
0
POINT
8
Stations
10
5404578.77
20
5123555.32
30
1560.25
0
TEXT
8
Labels
10
5404578.85
20
5123557.85
30
1562.61
40
  0.60
1
prim.prima2.2
0
POINT
8
Stations
10
5404578.85
20
5123557.85
30
1562.61
0
TEXT
8
Labels
10
5404579.19
20
5123564.28
30
1565.21
40
  0.60
1
prim.prima2.3
0
POINT
8
Stations
10
5404579.19
20
5123564.28
30
1565.21
0
TEXT
8
Labels
10
5404578.33
20
5123562.79
30
1566.87
40
  0.60
1
prim.prima2.4
0
POINT
8
Stations
10
5404578.33
20
5123562.79
30
1566.87
0
TEXT
8
Labels
10
5404578.86
20
5123565.49
30
1569.35
40
  0.60
1
prim.prima2.5
0
POINT
8
Stations
10
5404578.86
20
5123565.49
30
1569.35
0
TEXT
8
Labels
10
5404579.72
20
5123569.55
30
1569.35
40
  0.60
1
prim.prima2.6
0
POINT
8
Stations
10
5404579.72
20
5123569.55
30
1569.35
0
TEXT
8
Labels
10
5404583.93
20
5123576.56
30
1568.64
40
  0.60
1
prim.prima2.7
0
POINT
8
Stations
10
5404583.93
20
5123576.56
30
1568.64
0
TEXT
8
Labels
10
5404585.70
20
5123579.09
30
1567.51
40
  0.60
1
prim.prima2.8
0
POINT
8
Stations
10
5404585.70
20
5123579.09
30
1567.51
0
TEXT
8
Labels
10
5404585.37
20
5123582.85
30
1569.35
40
  0.60
1
prim.prima2.9
0
POINT
8
Stations
10
5404585.37
20
5123582.85
30
1569.35
0
TEXT
8
Labels
10
5404587.59
20
5123590.11
30
1572.42
40
  0.60
1
prim.prima2.10
0
POINT
8
Stations
10
5404587.59
20
5123590.11
30
1572.42
0
TEXT
8
Labels
10
5404587.97
20
5123593.18
30
1572.31
40
  0.60
1
prim.prima2.11
0
POINT
8
Stations
10
5404587.97
20
5123593.18
30
1572.31
0
TEXT
8
Labels
10
5404591.64
20
5123592.59
30
1567.72
40
  0.60
1
prim.prima2.12
0
POINT
8
Stations
10
5404591.64
20
5123592.59
30
1567.72
0
TEXT
8
Labels
10
5404595.85
20
5123590.26
30
1569.01
40
  0.60
1
prim.prima2.13
0
POINT
8
Stations
10
5404595.85
20
5123590.26
30
1569.01
0
TEXT
8
Labels
10
5404595.85
20
5123590.26
30
1573.61
40
  0.60
1
prim.prima2.14
0
POINT
8
Stations
10
5404595.85
20
5123590.26
30
1573.61
0
TEXT
8
Labels
10
5404596.76
20
5123592.63
30
1574.24
40
  0.60
1
prim.prima2.15
0
POINT
8
Stations
10
5404596.76
20
5123592.63
30
1574.24
0
TEXT
8
Labels
10
5404599.09
20
5123592.67
30
1575.28
40
  0.60
1
prim.prima2.16
0
POINT
8
Stations
10
5404599.09
20
5123592.67
30
1575.28
0
TEXT
8
Labels
10
5404598.87
20
5123586.64
30
1574.75
40
  0.60
1
prim.prima2.17
0
POINT
8
Stations
10
5404598.87
20
5123586.64
30
1574.75
0
TEXT
8
Labels
10
5404598.87
20
5123586.64
30
1577.49
40
  0.60
1
prim.prima2.18
0
POINT
8
Stations
10
5404598.87
20
5123586.64
30
1577.49
0
TEXT
8
Labels
10
5404599.03
20
5123588.86
30
1578.04
40
  0.60
1
prim.prima2.19
0
POINT
8
Stations
10
5404599.03
20
5123588.86
30
1578.04
0
TEXT
8
Labels
10
5404599.03
20
5123588.86
30
1581.07
40
  0.60
1
prim.prima2.20
0
POINT
8
Stations
10
5404599.03
20
5123588.86
30
1581.07
0
TEXT
8
Labels
10
5404596.82
20
5123590.09
30
1580.10
40
  0.60
1
prim.prima2.21
0
POINT
8
Stations
10
5404596.82
20
5123590.09
30
1580.10
0
TEXT
8
Labels
10
5404600.14
20
5123592.08
30
1579.35
40
  0.60
1
prim.prima2.22
0
POINT
8
Stations
10
5404600.14
20
5123592.08
30
1579.35
0
TEXT
8
Labels
10
5404600.03
20
5123595.12
30
1579.08
40
  0.60
1
prim.prima2.23
0
POINT
8
Stations
10
5404600.03
20
5123595.12
30
1579.08
0
TEXT
8
Labels
10
5404605.47
20
5123593.56
30
1579.08
40
  0.60
1
prim.prima2.24
0
POINT
8
Stations
10
5404605.47
20
5123593.56
30
1579.08
0
TEXT
8
Labels
10
5404610.41
20
5123594.98
30
1575.99
40
  0.60
1
prim.prima2.25
0
POINT
8
Stations
10
5404610.41
20
5123594.98
30
1575.99
0
TEXT
8
Labels
10
5404607.83
20
5123602.47
30
1576.68
40
  0.60
1
prim.prima2.26
0
POINT
8
Stations
10
5404607.83
20
5123602.47
30
1576.68
0
TEXT
8
Labels
10
5404605.00
20
5123605.30
30
1575.30
40
  0.60
1
prim.prima2.27
0
POINT
8
Stations
10
5404605.00
20
5123605.30
30
1575.30
0
TEXT
8
Labels
10
5404605.59
20
5123609.08
30
1573.99
40
  0.60
1
prim.prima2.28
0
POINT
8
Stations
10
5404605.59
20
5123609.08
30
1573.99
0
TEXT
8
Labels
10
5404603.91
20
5123610.54
30
1576.94
40
  0.60
1
prim.prima2.29
0
POINT
8
Stations
10
5404603.91
20
5123610.54
30
1576.94
0
TEXT
8
Labels
10
5404596.37
20
5123624.14
30
1580.25
40
  0.60
1
prim.prima2.30
0
POINT
8
Stations
10
5404596.37
20
5123624.14
30
1580.25
0
TEXT
8
Labels
10
5404595.16
20
5123621.75
30
1579.22
40
  0.60
1
prim.prima2.31
0
POINT
8
Stations
10
5404595.16
20
5123621.75
30
1579.22
0
TEXT
8
Labels
10
5404597.91
20
5123617.52
30
1568.40
40
  0.60
1
prim.prima2.32
0
POINT
8
Stations
10
5404597.91
20
5123617.52
30
1568.40
0
TEXT
8
Labels
10
5404597.91
20
5123617.52
30
1568.40
40
  0.60
1
prim.prima1.1
0
POINT
8
Stations
10
5404597.91
20
5123617.52
30
1568.40
0
TEXT
8
Labels
10
5404600.03
20
5123622.77
30
1567.20
40
  0.60
1
prim.prima1.2
0
POINT
8
Stations
10
5404600.03
20
5123622.77
30
1567.20
0
TEXT
8
Labels
10
5404593.26
20
5123632.09
30
1566.79
40
  0.60
1
prim.prima1.3
0
POINT
8
Stations
10
5404593.26
20
5123632.09
30
1566.79
0
TEXT
8
Labels
10
5404594.04
20
5123634.80
30
1586.92
40
  0.60
1
prim.prima1.4
0
POINT
8
Stations
10
5404594.04
20
5123634.80
30
1586.92
0
TEXT
8
Labels
10
5404593.82
20
5123638.93
30
1588.42
40
  0.60
1
prim.prima1.5
0
POINT
8
Stations
10
5404593.82
20
5123638.93
30
1588.42
0
TEXT
8
Labels
10
5404592.35
20
5123641.12
30
1589.28
40
  0.60
1
prim.prima1.6
0
POINT
8
Stations
10
5404592.35
20
5123641.12
30
1589.28
0
TEXT
8
Labels
10
5404589.31
20
5123640.30
30
1591.32
40
  0.60
1
prim.prima1.7
0
POINT
8
Stations
10
5404589.31
20
5123640.30
30
1591.32
0
TEXT
8
Labels
10
5404586.97
20
5123642.07
30
1591.94
40
  0.60
1
prim.prima1.8
0
POINT
8
Stations
10
5404586.97
20
5123642.07
30
1591.94
0
TEXT
8
Labels
10
5404589.65
20
5123645.75
30
1593.88
40
  0.60
1
prim.prima1.9
0
POINT
8
Stations
10
5404589.65
20
5123645.75
30
1593.88
0
TEXT
8
Labels
10
5404586.53
20
5123640.57
30
1598.27
40
  0.60
1
prim.prima1.10
0
POINT
8
Stations
10
5404586.53
20
5123640.57
30
1598.27
0
TEXT
8
Labels
10
5404583.43
20
5123644.14
30
1599.19
40
  0.60
1
prim.prima1.11
0
POINT
8
Stations
10
5404583.43
20
5123644.14
30
1599.19
0
TEXT
8
Labels
10
5404589.31
20
5123652.54
30
1601.19
40
  0.60
1
prim.prima1.12
0
POINT
8
Stations
10
5404589.31
20
5123652.54
30
1601.19
0
TEXT
8
Labels
10
5404585.93
20
5123661.35
30
1607.31
40
  0.60
1
prim.prima1.13
0
POINT
8
Stations
10
5404585.93
20
5123661.35
30
1607.31
0
TEXT
8
Labels
10
5404584.99
20
5123666.19
30
1615.20
40
  0.60
1
prim.prima1.14
0
POINT
8
Stations
10
5404584.99
20
5123666.19
30
1615.20
0
TEXT
8
Labels
10
5404584.99
20
5123673.93
30
1632.60
40
  0.60
1
prim.prima1.15
0
POINT
8
Stations
10
5404584.99
20
5123673.93
30
1632.60
0
TEXT
8
Labels
10
5404586.57
20
5123676.11
30
1635.80
40
  0.60
1
prim.prima1.16
0
POINT
8
Stations
10
5404586.57
20
5123676.11
30
1635.80
0
TEXT
8
Labels
10
5404585.91
20
5123677.11
30
1636.03
40
  0.60
1
prim.prima1.17
0
POINT
8
Stations
10
5404585.91
20
5123677.11
30
1636.03
0
TEXT
8
Labels
10
5404580.42
20
5123680.15
30
1638.96
40
  0.60
1
prim.prima1.18
0
POINT
8
Stations
10
5404580.42
20
5123680.15
30
1638.96
0
TEXT
8
Labels
10
5404579.07
20
5123682.24
30
1638.74
40
  0.60
1
prim.prima1.19
0
POINT
8
Stations
10
5404579.07
20
5123682.24
30
1638.74
0
TEXT
8
Labels
10
5404576.93
20
5123686.25
30
1660.09
40
  0.60
1
prim.prima1.20
0
POINT
8
Stations
10
5404576.93
20
5123686.25
30
1660.09
0
TEXT
8
Labels
10
5404580.46
20
5123689.31
30
1661.61
40
  0.60
1
prim.prima1.21
0
POINT
8
Stations
10
5404580.46
20
5123689.31
30
1661.61
0
TEXT
8
Labels
10
5404593.98
20
5123711.73
30
1721.52
40
  0.60
1
prim.drugi.8
0
POINT
8
Stations
10
5404593.98
20
5123711.73
30
1721.52
0
TEXT
8
Labels
10
5404593.79
20
5123715.22
30
1731.10
40
  0.60
1
prim.drugi.9
0
POINT
8
Stations
10
5404593.79
20
5123715.22
30
1731.10
0
TEXT
8
Labels
10
5404575.22
20
5123742.89
30
1729.51
40
  0.60
1
prim.drugi.14
0
POINT
8
Stations
10
5404575.22
20
5123742.89
30
1729.51
0
TEXT
8
Labels
10
5404586.70
20
5123729.06
30
1730.37
40
  0.60
1
prim.drugi.13
0
POINT
8
Stations
10
5404586.70
20
5123729.06
30
1730.37
0
TEXT
8
Labels
10
5404588.73
20
5123726.86
30
1730.39
40
  0.60
1
prim.drugi.12
0
POINT
8
Stations
10
5404588.73
20
5123726.86
30
1730.39
0
TEXT
8
Labels
10
5404587.80
20
5123725.43
30
1730.40
40
  0.60
1
prim.drugi.11
0
POINT
8
Stations
10
5404587.80
20
5123725.43
30
1730.40
0
TEXT
8
Labels
10
5404593.99
20
5123711.58
30
1712.62
40
  0.60
1
prim.drugi.10b
0
POINT
8
Stations
10
5404593.99
20
5123711.58
30
1712.62
0
TEXT
8
Labels
10
5404591.06
20
5123720.18
30
1720.42
40
  0.60
1
prim.drugi.10a
0
POINT
8
Stations
10
5404591.06
20
5123720.18
30
1720.42
0
TEXT
8
Labels
10
5404564.59
20
5123746.91
30
1721.24
40
  0.60
1
prim.prima1.34
0
POINT
8
Stations
10
5404564.59
20
5123746.91
30
1721.24
0
TEXT
8
Labels
10
5404556.36
20
5123723.85
30
1697.34
40
  0.60
1
prim.prima1.33
0
POINT
8
Stations
10
5404556.36
20
5123723.85
30
1697.34
0
TEXT
8
Labels
10
5404560.84
20
5123720.96
30
1695.58
40
  0.60
1
prim.prima1.32
0
POINT
8
Stations
10
5404560.84
20
5123720.96
30
1695.58
0
TEXT
8
Labels
10
5404565.79
20
5123722.66
30
1697.88
40
  0.60
1
prim.prima1.31
0
POINT
8
Stations
10
5404565.79
20
5123722.66
30
1697.88
0
TEXT
8
Labels
10
5404570.10
20
5123721.52
30
1698.32
40
  0.60
1
prim.prima1.30
0
POINT
8
Stations
10
5404570.10
20
5123721.52
30
1698.32
0
TEXT
8
Labels
10
5404571.98
20
5123717.83
30
1696.37
40
  0.60
1
prim.prima1.29
0
POINT
8
Stations
10
5404571.98
20
5123717.83
30
1696.37
0
TEXT
8
Labels
10
5404572.14
20
5123714.89
30
1691.62
40
  0.60
1
prim.prima1.28
0
POINT
8
Stations
10
5404572.14
20
5123714.89
30
1691.62
0
TEXT
8
Labels
10
5404569.55
20
5123713.27
30
1689.83
40
  0.60
1
prim.prima1.27
0
POINT
8
Stations
10
5404569.55
20
5123713.27
30
1689.83
0
TEXT
8
Labels
10
5404570.76
20
5123711.93
30
1688.46
40
  0.60
1
prim.prima1.26
0
POINT
8
Stations
10
5404570.76
20
5123711.93
30
1688.46
0
TEXT
8
Labels
10
5404570.93
20
5123710.35
30
1687.68
40
  0.60
1
prim.prima1.25
0
POINT
8
Stations
10
5404570.93
20
5123710.35
30
1687.68
0
TEXT
8
Labels
10
5404571.19
20
5123707.85
30
1677.47
40
  0.60
1
prim.prima1.24
0
POINT
8
Stations
10
5404571.19
20
5123707.85
30
1677.47
0
TEXT
8
Labels
10
5404569.71
20
5123699.30
30
1662.72
40
  0.60
1
prim.prima1.23
0
POINT
8
Stations
10
5404569.71
20
5123699.30
30
1662.72
0
TEXT
8
Labels
10
5404577.72
20
5123695.75
30
1665.66
40
  0.60
1
prim.prima1.22
0
POINT
8
Stations
10
5404577.72
20
5123695.75
30
1665.66
0
TEXT
8
Labels
10
5404578.65
20
5123693.58
30
1664.29
40
  0.60
1
prim.prima1.21b
0
POINT
8
Stations
10
5404578.65
20
5123693.58
30
1664.29
0
TEXT
8
Labels
10
5404578.65
20
5123693.58
30
1664.29
40
  0.60
1
prim.drugi.1
0
POINT
8
Stations
10
5404578.65
20
5123693.58
30
1664.29
0
TEXT
8
Labels
10
5404577.31
20
5123695.50
30
1671.90
40
  0.60
1
prim.drugi.2
0
POINT
8
Stations
10
5404577.31
20
5123695.50
30
1671.90
0
TEXT
8
Labels
10
5404579.15
20
5123696.36
30
1676.88
40
  0.60
1
prim.drugi.3
0
POINT
8
Stations
10
5404579.15
20
5123696.36
30
1676.88
0
TEXT
8
Labels
10
5404584.57
20
5123698.12
30
1683.57
40
  0.60
1
prim.drugi.4
0
POINT
8
Stations
10
5404584.57
20
5123698.12
30
1683.57
0
TEXT
8
Labels
10
5404584.63
20
5123701.12
30
1683.71
40
  0.60
1
prim.drugi.5
0
POINT
8
Stations
10
5404584.63
20
5123701.12
30
1683.71
0
TEXT
8
Labels
10
5404587.66
20
5123702.54
30
1686.70
40
  0.60
1
prim.drugi.6
0
POINT
8
Stations
10
5404587.66
20
5123702.54
30
1686.70
0
TEXT
8
Labels
10
5404593.99
20
5123711.53
30
1692.65
40
  0.60
1
prim.drugi.7
0
POINT
8
Stations
10
5404593.99
20
5123711.53
30
1692.65
0
TEXT
8
Labels
10
5404593.99
20
5123711.58
30
1712.62
40
  0.60
1
prim.drugi.7a
0
POINT
8
Stations
10
5404593.99
20
5123711.58
30
1712.62
0
TEXT
8
Labels
10
5404591.07
20
5123719.96
30
1730.99
40
  0.60
1
prim.drugi.10
0
POINT
8
Stations
10
5404591.07
20
5123719.96
30
1730.99
0
TEXT
8
Labels
10
5404560.70
20
5123746.29
30
1721.33
40
  0.60
1
prim.drugi.15
0
POINT
8
Stations
10
5404560.70
20
5123746.29
30
1721.33
0
TEXT
8
Labels
10
5404560.70
20
5123746.29
30
1721.33
40
  0.60
1
prim.prima1.35
0
POINT
8
Stations
10
5404560.70
20
5123746.29
30
1721.33
000
ENDSEC
000
EOF
