<?xml version="1.0" encoding="ISO-8859-1"?>
<svg version="1.1" baseProfile="full"
xmlns="http://www.w3.org/2000/svg"
xmlns:xlink="http://www.w3.org/1999/xlink"
xmlns:ev="http://www.w3.org/2001/xml-events"
width="437.640mm" height="475.760mm"
viewBox="0 0 437.640 475.760">
<title>deeper_than_most</title>
<g transform="translate(5.000 470.760)">
<g id="Legs" stroke="black" fill="none" stroke-width="0.4px">
<path d="M200.000 -265.760L213.200 -241.960"/>
<path d="M213.200 -241.960L227.640 -200.000"/>
</g>
<g id="Labels" font-size="0.600em">
<text transform="translate(200.000 -265.760)">deeper_than_most.1</text>
<text transform="translate(200.000 -265.760)">tiger_tiger.1</text>
<text transform="translate(213.200 -241.960)">deeper_than_most.2</text>
<text transform="translate(227.640 -200.000)">deeper_than_most.3</text>
</g>
<g id="Stations" stroke="black" fill="none" stroke-width="0.05px">
<circle id="deeper_than_most.1" cx="200.000" cy="-265.760" r="1.131"/>
<path d="M199.200 -266.560L200.800 -264.960M200.800 -266.560L199.200 -264.960"/>
<circle id="deeper_than_most.1" cx="200.000" cy="-265.760" r="1.131"/>
<path d="M199.200 -266.560L200.800 -264.960M200.800 -266.560L199.200 -264.960"/>
<circle id="deeper_than_most.2" cx="213.200" cy="-241.960" r="1.131"/>
<path d="M212.400 -242.760L214.000 -241.160M214.000 -242.760L212.400 -241.160"/>
<circle id="deeper_than_most.3" cx="227.640" cy="-200.000" r="1.131"/>
<path d="M226.840 -200.800L228.440 -199.200M228.440 -200.800L226.840 -199.200"/>
</g>
</g>
</svg>
