<?xml version="1.0" encoding="ISO-8859-1"?>
<svg version="1.1" baseProfile="full"
xmlns="http://www.w3.org/2000/svg"
xmlns:xlink="http://www.w3.org/1999/xlink"
xmlns:ev="http://www.w3.org/2001/xml-events"
width="479.160mm" height="441.080mm"
viewBox="0 0 479.160 441.080">
<title>purgatory</title>
<g transform="translate(5.000 436.080)">
<g id="Legs" stroke="black" fill="none" stroke-width="0.4px">
<path d="M200.000 -229.040L214.520 -231.080"/>
<path d="M214.520 -231.080L218.400 -210.480"/>
<path d="M218.400 -210.480L230.080 -209.440"/>
<path d="M230.080 -209.440L247.080 -200.000"/>
<path d="M247.080 -200.000L259.440 -202.920"/>
<path d="M259.440 -202.920L269.160 -200.520"/>
<path d="M230.080 -209.440L244.040 -213.760"/>
<path d="M244.040 -213.760L263.280 -216.440"/>
</g>
<g id="Labels" font-size="0.600em">
<text transform="translate(200.000 -229.040)">purgatory.0</text>
<text transform="translate(214.520 -231.080)">purgatory.1</text>
<text transform="translate(218.400 -210.480)">purgatory.2</text>
<text transform="translate(230.080 -209.440)">purgatory.3</text>
<text transform="translate(244.040 -213.760)">purgatory.4</text>
<text transform="translate(263.280 -216.440)">purgatory.5</text>
<text transform="translate(247.080 -200.000)">purgatory.6</text>
<text transform="translate(259.440 -202.920)">purgatory.7</text>
<text transform="translate(269.160 -200.520)">purgatory.9</text>
</g>
<g id="Stations" stroke="black" fill="none" stroke-width="0.05px">
<circle id="purgatory.0" cx="200.000" cy="-229.040" r="1.131"/>
<path d="M199.200 -229.840L200.800 -228.240M200.800 -229.840L199.200 -228.240"/>
<circle id="purgatory.1" cx="214.520" cy="-231.080" r="1.131"/>
<path d="M213.720 -231.880L215.320 -230.280M215.320 -231.880L213.720 -230.280"/>
<circle id="purgatory.2" cx="218.400" cy="-210.480" r="1.131"/>
<path d="M217.600 -211.280L219.200 -209.680M219.200 -211.280L217.600 -209.680"/>
<circle id="purgatory.3" cx="230.080" cy="-209.440" r="1.131"/>
<path d="M229.280 -210.240L230.880 -208.640M230.880 -210.240L229.280 -208.640"/>
<circle id="purgatory.4" cx="244.040" cy="-213.760" r="1.131"/>
<path d="M243.240 -214.560L244.840 -212.960M244.840 -214.560L243.240 -212.960"/>
<circle id="purgatory.5" cx="263.280" cy="-216.440" r="1.131"/>
<path d="M262.480 -217.240L264.080 -215.640M264.080 -217.240L262.480 -215.640"/>
<circle id="purgatory.6" cx="247.080" cy="-200.000" r="1.131"/>
<path d="M246.280 -200.800L247.880 -199.200M247.880 -200.800L246.280 -199.200"/>
<circle id="purgatory.7" cx="259.440" cy="-202.920" r="1.131"/>
<path d="M258.640 -203.720L260.240 -202.120M260.240 -203.720L258.640 -202.120"/>
<circle id="purgatory.9" cx="269.160" cy="-200.520" r="1.131"/>
<path d="M268.360 -201.320L269.960 -199.720M269.960 -201.320L268.360 -199.720"/>
</g>
</g>
</svg>
