<?xml version="1.0" encoding="utf-8" standalone="no"?>
<!-- Generated by Therion 5.4.1+? (compiled on 2018-06-25) -->
<!DOCTYPE svg PUBLIC "-//W3C//DTD SVG 1.1//EN" "http://www.w3.org/Graphics/SVG/1.1/DTD/svg11.dtd">
<svg width="9.726cm" height="19.392cm" viewBox="-66.181 -73.726 275.693 549.693" xmlns="http://www.w3.org/2000/svg" xmlns:xlink="http://www.w3.org/1999/xlink">
<defs>
<g id="F_aaaaaaa_greed.svg">
</g>
<g id="G_aaaaaaa_greed.svg">
</g>
<g id="B_aaaaaaa_greed.svg">
</g>
<g id="I_aaaaaaa_greed.svg">
</g>
<g id="E_aaaaaaa_greed.svg">
<path fill="none" stroke="#000000" stroke-width="0.500" d="M37.830 447.620L46.910 487.020" />
<path fill="none" stroke="#000000" stroke-width="0.500" d="M37.830 447.620L3.030 441.500" />
<path fill="none" stroke="#000000" stroke-width="0.500" d="M3.030 441.500L37.830 447.620" />
<path fill="none" stroke="#000000" stroke-width="0.500" d="M46.910 487.020L41.070 419.730" />
<path fill="none" stroke="#000000" stroke-width="0.500" d="M46.910 487.020L37.830 447.620" />
<path fill="none" stroke="#000000" stroke-width="0.500" d="M41.070 419.730L30.800 398.690" />
<path fill="none" stroke="#000000" stroke-width="0.500" d="M41.070 419.730L46.910 487.020" />
<path fill="none" stroke="#000000" stroke-width="0.500" d="M30.800 398.690L29.670 385.880" />
<path fill="none" stroke="#000000" stroke-width="0.500" d="M30.800 398.690L41.070 419.730" />
<path fill="none" stroke="#000000" stroke-width="0.500" d="M29.670 385.880L47.530 375.560" />
<path fill="none" stroke="#000000" stroke-width="0.500" d="M29.670 385.880L30.800 398.690" />
<path fill="none" stroke="#000000" stroke-width="0.500" d="M47.530 375.560L60.400 350.280" />
<path fill="none" stroke="#000000" stroke-width="0.500" d="M47.530 375.560L29.670 385.880" />
<path fill="none" stroke="#000000" stroke-width="0.500" d="M60.400 350.280L60.400 350.280" />
<path fill="none" stroke="#000000" stroke-width="0.500" d="M60.400 350.280L47.530 375.560" />
<path fill="none" stroke="#000000" stroke-width="0.500" d="M60.400 350.280L60.850 337.520" />
<path fill="none" stroke="#000000" stroke-width="0.500" d="M60.400 350.280L60.400 350.280" />
<path fill="none" stroke="#000000" stroke-width="0.500" d="M60.850 337.520L65.560 310.820" />
<path fill="none" stroke="#000000" stroke-width="0.500" d="M60.850 337.520L60.400 350.280" />
<path fill="none" stroke="#000000" stroke-width="0.500" d="M65.560 310.820L65.560 289.900" />
<path fill="none" stroke="#000000" stroke-width="0.500" d="M65.560 310.820L60.850 337.520" />
<path fill="none" stroke="#000000" stroke-width="0.500" d="M65.560 289.900L78.310 278.450" />
<path fill="none" stroke="#000000" stroke-width="0.500" d="M65.560 289.900L65.560 310.820" />
<path fill="none" stroke="#000000" stroke-width="0.500" d="M78.310 278.450L78.310 260.480" />
<path fill="none" stroke="#000000" stroke-width="0.500" d="M78.310 278.450L65.560 289.900" />
<path fill="none" stroke="#000000" stroke-width="0.500" d="M78.310 260.480L91.580 267.000" />
<path fill="none" stroke="#000000" stroke-width="0.500" d="M78.310 260.480L78.310 278.450" />
<path fill="none" stroke="#000000" stroke-width="0.500" d="M91.580 267.000L119.470 220.620" />
<path fill="none" stroke="#000000" stroke-width="0.500" d="M91.580 267.000L78.310 260.480" />
<path fill="none" stroke="#000000" stroke-width="0.500" d="M119.470 220.620L116.300 207.020" />
<path fill="none" stroke="#000000" stroke-width="0.500" d="M119.470 220.620L91.580 267.000" />
<path fill="none" stroke="#000000" stroke-width="0.500" d="M116.300 207.020L135.120 166.650" />
<path fill="none" stroke="#000000" stroke-width="0.500" d="M116.300 207.020L119.470 220.620" />
<path fill="none" stroke="#000000" stroke-width="0.500" d="M135.120 166.650L158.760 159.900" />
<path fill="none" stroke="#000000" stroke-width="0.500" d="M135.120 166.650L116.300 207.020" />
<path fill="none" stroke="#000000" stroke-width="0.500" d="M158.760 159.900L165.960 137.740" />
<path fill="none" stroke="#000000" stroke-width="0.500" d="M158.760 159.900L135.120 166.650" />
<path fill="none" stroke="#000000" stroke-width="0.500" d="M165.960 137.740L182.000 62.340" />
<path fill="none" stroke="#000000" stroke-width="0.500" d="M165.960 137.740L158.760 159.900" />
<path fill="none" stroke="#000000" stroke-width="0.500" d="M182.000 62.340L193.510 38.690" />
<path fill="none" stroke="#000000" stroke-width="0.500" d="M182.000 62.340L165.960 137.740" />
<path fill="none" stroke="#000000" stroke-width="0.500" d="M193.510 38.690L210.970 2.980" />
<path fill="none" stroke="#000000" stroke-width="0.500" d="M193.510 38.690L182.000 62.340" />
<path fill="none" stroke="#000000" stroke-width="0.500" d="M210.970 2.980L193.510 38.690" />
<path fill="none" stroke="#000000" stroke-width="0.350" d="M35.830 447.620L39.830 447.620" />
<path fill="none" stroke="#000000" stroke-width="0.350" d="M37.830 445.620L37.830 449.620" />
<path fill="#ffffff" stroke="none" d="M38.630 447.620C38.630 447.832 38.546 448.036 38.396 448.186C38.246 448.336 38.042 448.420 37.830 448.420C37.618 448.420 37.414 448.336 37.264 448.186C37.114 448.036 37.030 447.832 37.030 447.620C37.030 447.408 37.114 447.204 37.264 447.054C37.414 446.904 37.618 446.820 37.830 446.820C38.042 446.820 38.246 446.904 38.396 447.054C38.546 447.204 38.630 447.408 38.630 447.620Z" />
<path fill="none" stroke="#000000" stroke-width="0.500" d="M37.830 447.620h0.001" />
<path fill="none" stroke="#000000" stroke-width="0.350" d="M1.030 441.500L5.030 441.500" />
<path fill="none" stroke="#000000" stroke-width="0.350" d="M3.030 439.500L3.030 443.500" />
<path fill="#ffffff" stroke="none" d="M3.830 441.500C3.830 441.712 3.746 441.916 3.596 442.066C3.446 442.216 3.242 442.300 3.030 442.300C2.818 442.300 2.614 442.216 2.464 442.066C2.314 441.916 2.230 441.712 2.230 441.500C2.230 441.288 2.314 441.084 2.464 440.934C2.614 440.784 2.818 440.700 3.030 440.700C3.242 440.700 3.446 440.784 3.596 440.934C3.746 441.084 3.830 441.288 3.830 441.500Z" />
<path fill="none" stroke="#000000" stroke-width="0.500" d="M3.030 441.500h0.001" />
<path fill="none" stroke="#000000" stroke-width="0.350" d="M44.910 487.020L48.910 487.020" />
<path fill="none" stroke="#000000" stroke-width="0.350" d="M46.910 485.020L46.910 489.020" />
<path fill="#ffffff" stroke="none" d="M47.710 487.020C47.710 487.232 47.626 487.436 47.476 487.586C47.326 487.736 47.122 487.820 46.910 487.820C46.698 487.820 46.494 487.736 46.344 487.586C46.194 487.436 46.110 487.232 46.110 487.020C46.110 486.808 46.194 486.604 46.344 486.454C46.494 486.304 46.698 486.220 46.910 486.220C47.122 486.220 47.326 486.304 47.476 486.454C47.626 486.604 47.710 486.808 47.710 487.020Z" />
<path fill="none" stroke="#000000" stroke-width="0.500" d="M46.910 487.020h0.001" />
<path fill="none" stroke="#000000" stroke-width="0.350" d="M39.070 419.730L43.070 419.730" />
<path fill="none" stroke="#000000" stroke-width="0.350" d="M41.070 417.730L41.070 421.730" />
<path fill="#ffffff" stroke="none" d="M41.870 419.730C41.870 419.942 41.786 420.146 41.636 420.296C41.486 420.446 41.282 420.530 41.070 420.530C40.858 420.530 40.654 420.446 40.504 420.296C40.354 420.146 40.270 419.942 40.270 419.730C40.270 419.518 40.354 419.314 40.504 419.164C40.654 419.014 40.858 418.930 41.070 418.930C41.282 418.930 41.486 419.014 41.636 419.164C41.786 419.314 41.870 419.518 41.870 419.730Z" />
<path fill="none" stroke="#000000" stroke-width="0.500" d="M41.070 419.730h0.001" />
<path fill="none" stroke="#000000" stroke-width="0.350" d="M28.800 398.690L32.800 398.690" />
<path fill="none" stroke="#000000" stroke-width="0.350" d="M30.800 396.690L30.800 400.690" />
<path fill="#ffffff" stroke="none" d="M31.600 398.690C31.600 398.902 31.516 399.106 31.366 399.256C31.216 399.406 31.012 399.490 30.800 399.490C30.588 399.490 30.384 399.406 30.234 399.256C30.084 399.106 30.000 398.902 30.000 398.690C30.000 398.478 30.084 398.274 30.234 398.124C30.384 397.974 30.588 397.890 30.800 397.890C31.012 397.890 31.216 397.974 31.366 398.124C31.516 398.274 31.600 398.478 31.600 398.690Z" />
<path fill="none" stroke="#000000" stroke-width="0.500" d="M30.800 398.690h0.001" />
<path fill="none" stroke="#000000" stroke-width="0.350" d="M27.670 385.880L31.670 385.880" />
<path fill="none" stroke="#000000" stroke-width="0.350" d="M29.670 383.880L29.670 387.880" />
<path fill="#ffffff" stroke="none" d="M30.470 385.880C30.470 386.092 30.386 386.296 30.236 386.446C30.086 386.596 29.882 386.680 29.670 386.680C29.458 386.680 29.254 386.596 29.104 386.446C28.954 386.296 28.870 386.092 28.870 385.880C28.870 385.668 28.954 385.464 29.104 385.314C29.254 385.164 29.458 385.080 29.670 385.080C29.882 385.080 30.086 385.164 30.236 385.314C30.386 385.464 30.470 385.668 30.470 385.880Z" />
<path fill="none" stroke="#000000" stroke-width="0.500" d="M29.670 385.880h0.001" />
<path fill="none" stroke="#000000" stroke-width="0.350" d="M45.530 375.560L49.530 375.560" />
<path fill="none" stroke="#000000" stroke-width="0.350" d="M47.530 373.560L47.530 377.560" />
<path fill="#ffffff" stroke="none" d="M48.330 375.560C48.330 375.772 48.246 375.976 48.096 376.126C47.946 376.276 47.742 376.360 47.530 376.360C47.318 376.360 47.114 376.276 46.964 376.126C46.814 375.976 46.730 375.772 46.730 375.560C46.730 375.348 46.814 375.144 46.964 374.994C47.114 374.844 47.318 374.760 47.530 374.760C47.742 374.760 47.946 374.844 48.096 374.994C48.246 375.144 48.330 375.348 48.330 375.560Z" />
<path fill="none" stroke="#000000" stroke-width="0.500" d="M47.530 375.560h0.001" />
<path fill="none" stroke="#000000" stroke-width="0.350" d="M58.400 350.280L62.400 350.280" />
<path fill="none" stroke="#000000" stroke-width="0.350" d="M60.400 348.280L60.400 352.280" />
<path fill="#ffffff" stroke="none" d="M61.200 350.280C61.200 350.492 61.116 350.696 60.966 350.846C60.816 350.996 60.612 351.080 60.400 351.080C60.188 351.080 59.984 350.996 59.834 350.846C59.684 350.696 59.600 350.492 59.600 350.280C59.600 350.068 59.684 349.864 59.834 349.714C59.984 349.564 60.188 349.480 60.400 349.480C60.612 349.480 60.816 349.564 60.966 349.714C61.116 349.864 61.200 350.068 61.200 350.280Z" />
<path fill="none" stroke="#000000" stroke-width="0.500" d="M60.400 350.280h0.001" />
<path fill="none" stroke="#000000" stroke-width="0.350" d="M58.400 350.280L62.400 350.280" />
<path fill="none" stroke="#000000" stroke-width="0.350" d="M60.400 348.280L60.400 352.280" />
<path fill="#ffffff" stroke="none" d="M61.200 350.280C61.200 350.492 61.116 350.696 60.966 350.846C60.816 350.996 60.612 351.080 60.400 351.080C60.188 351.080 59.984 350.996 59.834 350.846C59.684 350.696 59.600 350.492 59.600 350.280C59.600 350.068 59.684 349.864 59.834 349.714C59.984 349.564 60.188 349.480 60.400 349.480C60.612 349.480 60.816 349.564 60.966 349.714C61.116 349.864 61.200 350.068 61.200 350.280Z" />
<path fill="none" stroke="#000000" stroke-width="0.500" d="M60.400 350.280h0.001" />
<path fill="none" stroke="#000000" stroke-width="0.350" d="M58.850 337.520L62.850 337.520" />
<path fill="none" stroke="#000000" stroke-width="0.350" d="M60.850 335.520L60.850 339.520" />
<path fill="#ffffff" stroke="none" d="M61.650 337.520C61.650 337.732 61.566 337.936 61.416 338.086C61.266 338.236 61.062 338.320 60.850 338.320C60.638 338.320 60.434 338.236 60.284 338.086C60.134 337.936 60.050 337.732 60.050 337.520C60.050 337.308 60.134 337.104 60.284 336.954C60.434 336.804 60.638 336.720 60.850 336.720C61.062 336.720 61.266 336.804 61.416 336.954C61.566 337.104 61.650 337.308 61.650 337.520Z" />
<path fill="none" stroke="#000000" stroke-width="0.500" d="M60.850 337.520h0.001" />
<path fill="none" stroke="#000000" stroke-width="0.350" d="M63.560 310.820L67.560 310.820" />
<path fill="none" stroke="#000000" stroke-width="0.350" d="M65.560 308.820L65.560 312.820" />
<path fill="#ffffff" stroke="none" d="M66.360 310.820C66.360 311.032 66.276 311.236 66.126 311.386C65.976 311.536 65.772 311.620 65.560 311.620C65.348 311.620 65.144 311.536 64.994 311.386C64.844 311.236 64.760 311.032 64.760 310.820C64.760 310.608 64.844 310.404 64.994 310.254C65.144 310.104 65.348 310.020 65.560 310.020C65.772 310.020 65.976 310.104 66.126 310.254C66.276 310.404 66.360 310.608 66.360 310.820Z" />
<path fill="none" stroke="#000000" stroke-width="0.500" d="M65.560 310.820h0.001" />
<path fill="none" stroke="#000000" stroke-width="0.350" d="M63.560 289.900L67.560 289.900" />
<path fill="none" stroke="#000000" stroke-width="0.350" d="M65.560 287.900L65.560 291.900" />
<path fill="#ffffff" stroke="none" d="M66.360 289.900C66.360 290.112 66.276 290.316 66.126 290.466C65.976 290.616 65.772 290.700 65.560 290.700C65.348 290.700 65.144 290.616 64.994 290.466C64.844 290.316 64.760 290.112 64.760 289.900C64.760 289.688 64.844 289.484 64.994 289.334C65.144 289.184 65.348 289.100 65.560 289.100C65.772 289.100 65.976 289.184 66.126 289.334C66.276 289.484 66.360 289.688 66.360 289.900Z" />
<path fill="none" stroke="#000000" stroke-width="0.500" d="M65.560 289.900h0.001" />
<path fill="none" stroke="#000000" stroke-width="0.350" d="M76.310 278.450L80.310 278.450" />
<path fill="none" stroke="#000000" stroke-width="0.350" d="M78.310 276.450L78.310 280.450" />
<path fill="#ffffff" stroke="none" d="M79.110 278.450C79.110 278.662 79.026 278.866 78.876 279.016C78.726 279.166 78.522 279.250 78.310 279.250C78.098 279.250 77.894 279.166 77.744 279.016C77.594 278.866 77.510 278.662 77.510 278.450C77.510 278.238 77.594 278.034 77.744 277.884C77.894 277.734 78.098 277.650 78.310 277.650C78.522 277.650 78.726 277.734 78.876 277.884C79.026 278.034 79.110 278.238 79.110 278.450Z" />
<path fill="none" stroke="#000000" stroke-width="0.500" d="M78.310 278.450h0.001" />
<path fill="none" stroke="#000000" stroke-width="0.350" d="M76.310 260.480L80.310 260.480" />
<path fill="none" stroke="#000000" stroke-width="0.350" d="M78.310 258.480L78.310 262.480" />
<path fill="#ffffff" stroke="none" d="M79.110 260.480C79.110 260.692 79.026 260.896 78.876 261.046C78.726 261.196 78.522 261.280 78.310 261.280C78.098 261.280 77.894 261.196 77.744 261.046C77.594 260.896 77.510 260.692 77.510 260.480C77.510 260.268 77.594 260.064 77.744 259.914C77.894 259.764 78.098 259.680 78.310 259.680C78.522 259.680 78.726 259.764 78.876 259.914C79.026 260.064 79.110 260.268 79.110 260.480Z" />
<path fill="none" stroke="#000000" stroke-width="0.500" d="M78.310 260.480h0.001" />
<path fill="none" stroke="#000000" stroke-width="0.350" d="M89.580 267.000L93.580 267.000" />
<path fill="none" stroke="#000000" stroke-width="0.350" d="M91.580 265.000L91.580 269.000" />
<path fill="#ffffff" stroke="none" d="M92.380 267.000C92.380 267.212 92.296 267.416 92.146 267.566C91.996 267.716 91.792 267.800 91.580 267.800C91.368 267.800 91.164 267.716 91.014 267.566C90.864 267.416 90.780 267.212 90.780 267.000C90.780 266.788 90.864 266.584 91.014 266.434C91.164 266.284 91.368 266.200 91.580 266.200C91.792 266.200 91.996 266.284 92.146 266.434C92.296 266.584 92.380 266.788 92.380 267.000Z" />
<path fill="none" stroke="#000000" stroke-width="0.500" d="M91.580 267.000h0.001" />
<path fill="none" stroke="#000000" stroke-width="0.350" d="M117.470 220.620L121.470 220.620" />
<path fill="none" stroke="#000000" stroke-width="0.350" d="M119.470 218.620L119.470 222.620" />
<path fill="#ffffff" stroke="none" d="M120.270 220.620C120.270 220.832 120.186 221.036 120.036 221.186C119.886 221.336 119.682 221.420 119.470 221.420C119.258 221.420 119.054 221.336 118.904 221.186C118.754 221.036 118.670 220.832 118.670 220.620C118.670 220.408 118.754 220.204 118.904 220.054C119.054 219.904 119.258 219.820 119.470 219.820C119.682 219.820 119.886 219.904 120.036 220.054C120.186 220.204 120.270 220.408 120.270 220.620Z" />
<path fill="none" stroke="#000000" stroke-width="0.500" d="M119.470 220.620h0.001" />
<path fill="none" stroke="#000000" stroke-width="0.350" d="M114.300 207.020L118.300 207.020" />
<path fill="none" stroke="#000000" stroke-width="0.350" d="M116.300 205.020L116.300 209.020" />
<path fill="#ffffff" stroke="none" d="M117.100 207.020C117.100 207.232 117.016 207.436 116.866 207.586C116.716 207.736 116.512 207.820 116.300 207.820C116.088 207.820 115.884 207.736 115.734 207.586C115.584 207.436 115.500 207.232 115.500 207.020C115.500 206.808 115.584 206.604 115.734 206.454C115.884 206.304 116.088 206.220 116.300 206.220C116.512 206.220 116.716 206.304 116.866 206.454C117.016 206.604 117.100 206.808 117.100 207.020Z" />
<path fill="none" stroke="#000000" stroke-width="0.500" d="M116.300 207.020h0.001" />
<path fill="none" stroke="#000000" stroke-width="0.350" d="M133.120 166.650L137.120 166.650" />
<path fill="none" stroke="#000000" stroke-width="0.350" d="M135.120 164.650L135.120 168.650" />
<path fill="#ffffff" stroke="none" d="M135.920 166.650C135.920 166.862 135.836 167.066 135.686 167.216C135.536 167.366 135.332 167.450 135.120 167.450C134.908 167.450 134.704 167.366 134.554 167.216C134.404 167.066 134.320 166.862 134.320 166.650C134.320 166.438 134.404 166.234 134.554 166.084C134.704 165.934 134.908 165.850 135.120 165.850C135.332 165.850 135.536 165.934 135.686 166.084C135.836 166.234 135.920 166.438 135.920 166.650Z" />
<path fill="none" stroke="#000000" stroke-width="0.500" d="M135.120 166.650h0.001" />
<path fill="none" stroke="#000000" stroke-width="0.350" d="M156.760 159.900L160.760 159.900" />
<path fill="none" stroke="#000000" stroke-width="0.350" d="M158.760 157.900L158.760 161.900" />
<path fill="#ffffff" stroke="none" d="M159.560 159.900C159.560 160.112 159.476 160.316 159.326 160.466C159.176 160.616 158.972 160.700 158.760 160.700C158.548 160.700 158.344 160.616 158.194 160.466C158.044 160.316 157.960 160.112 157.960 159.900C157.960 159.688 158.044 159.484 158.194 159.334C158.344 159.184 158.548 159.100 158.760 159.100C158.972 159.100 159.176 159.184 159.326 159.334C159.476 159.484 159.560 159.688 159.560 159.900Z" />
<path fill="none" stroke="#000000" stroke-width="0.500" d="M158.760 159.900h0.001" />
<path fill="none" stroke="#000000" stroke-width="0.350" d="M163.960 137.740L167.960 137.740" />
<path fill="none" stroke="#000000" stroke-width="0.350" d="M165.960 135.740L165.960 139.740" />
<path fill="#ffffff" stroke="none" d="M166.760 137.740C166.760 137.952 166.676 138.156 166.526 138.306C166.376 138.456 166.172 138.540 165.960 138.540C165.748 138.540 165.544 138.456 165.394 138.306C165.244 138.156 165.160 137.952 165.160 137.740C165.160 137.528 165.244 137.324 165.394 137.174C165.544 137.024 165.748 136.940 165.960 136.940C166.172 136.940 166.376 137.024 166.526 137.174C166.676 137.324 166.760 137.528 166.760 137.740Z" />
<path fill="none" stroke="#000000" stroke-width="0.500" d="M165.960 137.740h0.001" />
<path fill="none" stroke="#000000" stroke-width="0.350" d="M180.000 62.340L184.000 62.340" />
<path fill="none" stroke="#000000" stroke-width="0.350" d="M182.000 60.340L182.000 64.340" />
<path fill="#ffffff" stroke="none" d="M182.800 62.340C182.800 62.552 182.716 62.756 182.566 62.906C182.416 63.056 182.212 63.140 182.000 63.140C181.788 63.140 181.584 63.056 181.434 62.906C181.284 62.756 181.200 62.552 181.200 62.340C181.200 62.128 181.284 61.924 181.434 61.774C181.584 61.624 181.788 61.540 182.000 61.540C182.212 61.540 182.416 61.624 182.566 61.774C182.716 61.924 182.800 62.128 182.800 62.340Z" />
<path fill="none" stroke="#000000" stroke-width="0.500" d="M182.000 62.340h0.001" />
<path fill="none" stroke="#000000" stroke-width="0.350" d="M191.510 38.690L195.510 38.690" />
<path fill="none" stroke="#000000" stroke-width="0.350" d="M193.510 36.690L193.510 40.690" />
<path fill="#ffffff" stroke="none" d="M194.310 38.690C194.310 38.902 194.226 39.106 194.076 39.256C193.926 39.406 193.722 39.490 193.510 39.490C193.298 39.490 193.094 39.406 192.944 39.256C192.794 39.106 192.710 38.902 192.710 38.690C192.710 38.478 192.794 38.274 192.944 38.124C193.094 37.974 193.298 37.890 193.510 37.890C193.722 37.890 193.926 37.974 194.076 38.124C194.226 38.274 194.310 38.478 194.310 38.690Z" />
<path fill="none" stroke="#000000" stroke-width="0.500" d="M193.510 38.690h0.001" />
<path fill="none" stroke="#000000" stroke-width="0.350" d="M208.970 2.980L212.970 2.980" />
<path fill="none" stroke="#000000" stroke-width="0.350" d="M210.970 0.980L210.970 4.980" />
<path fill="#ffffff" stroke="none" d="M211.770 2.980C211.770 3.192 211.686 3.396 211.536 3.546C211.386 3.696 211.182 3.780 210.970 3.780C210.758 3.780 210.554 3.696 210.404 3.546C210.254 3.396 210.170 3.192 210.170 2.980C210.170 2.768 210.254 2.564 210.404 2.414C210.554 2.264 210.758 2.180 210.970 2.180C211.182 2.180 211.386 2.264 211.536 2.414C211.686 2.564 211.770 2.768 211.770 2.980Z" />
<path fill="none" stroke="#000000" stroke-width="0.500" d="M210.970 2.980h0.001" />
</g>
<g id="X_aaaaaaa_greed.svg">
<text font-family="cmss10" font-size="6.974" fill="black" stroke="none" transform="matrix(1.000 0.000 -0.000 -1.000 35.705 445.495)">&#x32;</text>
<text font-family="cmss10" font-size="6.974" fill="black" stroke="none" transform="matrix(1.000 0.000 -0.000 -1.000 0.905 439.375)">&#x31;</text>
<text font-family="cmss10" font-size="6.974" fill="black" stroke="none" transform="matrix(1.000 0.000 -0.000 -1.000 44.785 484.895)">&#x33;</text>
<text font-family="cmss10" font-size="6.974" fill="black" stroke="none" transform="matrix(1.000 0.000 -0.000 -1.000 38.945 417.605)">&#x34;</text>
<text font-family="cmss10" font-size="6.974" fill="black" stroke="none" transform="matrix(1.000 0.000 -0.000 -1.000 28.675 396.565)">&#x35;</text>
<text font-family="cmss10" font-size="6.974" fill="black" stroke="none" transform="matrix(1.000 0.000 -0.000 -1.000 27.545 383.755)">&#x36;</text>
<text font-family="cmss10" font-size="6.974" fill="black" stroke="none" transform="matrix(1.000 0.000 -0.000 -1.000 45.405 373.435)">&#x37;</text>
<text font-family="cmss10" font-size="6.974" fill="black" stroke="none" transform="matrix(1.000 0.000 -0.000 -1.000 58.275 348.155)">&#x38;</text>
<text font-family="cmss10" font-size="6.974" fill="black" stroke="none" transform="matrix(1.000 0.000 -0.000 -1.000 58.275 348.155)">&#x39;</text>
<text font-family="cmss10" font-size="6.974" fill="black" stroke="none" transform="matrix(1.000 0.000 -0.000 -1.000 58.725 335.395)">&#x31;&#x30;</text>
<text font-family="cmss10" font-size="6.974" fill="black" stroke="none" transform="matrix(1.000 0.000 -0.000 -1.000 63.435 308.695)">&#x31;&#x31;</text>
<text font-family="cmss10" font-size="6.974" fill="black" stroke="none" transform="matrix(1.000 0.000 -0.000 -1.000 63.435 287.775)">&#x31;&#x32;</text>
<text font-family="cmss10" font-size="6.974" fill="black" stroke="none" transform="matrix(1.000 0.000 -0.000 -1.000 76.185 276.325)">&#x31;&#x33;</text>
<text font-family="cmss10" font-size="6.974" fill="black" stroke="none" transform="matrix(1.000 0.000 -0.000 -1.000 76.185 258.355)">&#x31;&#x34;</text>
<text font-family="cmss10" font-size="6.974" fill="black" stroke="none" transform="matrix(1.000 0.000 -0.000 -1.000 89.455 264.875)">&#x31;&#x35;</text>
<text font-family="cmss10" font-size="6.974" fill="black" stroke="none" transform="matrix(1.000 0.000 -0.000 -1.000 117.345 218.495)">&#x31;&#x36;</text>
<text font-family="cmss10" font-size="6.974" fill="black" stroke="none" transform="matrix(1.000 0.000 -0.000 -1.000 114.175 204.895)">&#x31;&#x37;</text>
<text font-family="cmss10" font-size="6.974" fill="black" stroke="none" transform="matrix(1.000 0.000 -0.000 -1.000 132.995 164.525)">&#x31;&#x38;</text>
<text font-family="cmss10" font-size="6.974" fill="black" stroke="none" transform="matrix(1.000 0.000 -0.000 -1.000 156.635 157.775)">&#x31;&#x39;</text>
<text font-family="cmss10" font-size="6.974" fill="black" stroke="none" transform="matrix(1.000 0.000 -0.000 -1.000 163.835 135.615)">&#x32;&#x30;</text>
<text font-family="cmss10" font-size="6.974" fill="black" stroke="none" transform="matrix(1.000 0.000 -0.000 -1.000 179.875 60.215)">&#x32;&#x31;</text>
<text font-family="cmss10" font-size="6.974" fill="black" stroke="none" transform="matrix(1.000 0.000 -0.000 -1.000 191.385 36.565)">&#x32;&#x32;</text>
<text font-family="cmss10" font-size="6.974" fill="black" stroke="none" transform="matrix(1.000 0.000 -0.000 -1.000 208.845 0.855)">&#x32;&#x33;</text>
</g>
<clipPath id="clip_viewBox">
<path d="M-66.181 -475.967L209.512 -475.967L209.512 73.726L-66.181 73.726z" />
</clipPath>
</defs>
<g transform="scale(1,-1)" fill="#000000" stroke="#000000" stroke-linecap="round" stroke-linejoin="round" stroke-miterlimit="10" fill-rule="evenodd" clip-rule="evenodd" clip-path="url(#clip_viewBox)">
<use x="-37.835" y="-447.620" xlink:href="#E_aaaaaaa_greed.svg" />
<use x="-34.835" y="-444.620" xlink:href="#X_aaaaaaa_greed.svg" />
</g>
</svg>
