<?xml version="1.0" encoding="ISO-8859-1"?>
<svg version="1.1" baseProfile="full"
xmlns="http://www.w3.org/2000/svg"
xmlns:xlink="http://www.w3.org/1999/xlink"
xmlns:ev="http://www.w3.org/2001/xml-events"
width="925.560mm" height="522.360mm"
viewBox="0 0 925.560 522.360">
<title>monatip1</title>
<g transform="translate(5.000 517.360)">
<g id="Legs" stroke="black" fill="none" stroke-width="0.4px">
<path d="M200.000 -290.320L263.360 -295.880"/>
<path d="M263.360 -295.880L284.240 -299.160"/>
<path d="M284.240 -299.160L314.080 -302.840"/>
<path d="M314.080 -302.840L341.560 -307.200"/>
<path d="M341.560 -307.200L360.840 -312.360"/>
<path d="M360.840 -312.360L360.840 -306.360"/>
<path d="M360.840 -306.360L376.440 -311.120"/>
<path d="M376.440 -311.120L391.800 -312.200"/>
<path d="M391.800 -312.200L405.080 -311.760"/>
<path d="M405.080 -311.760L413.600 -304.600"/>
<path d="M413.600 -304.600L426.320 -297.840"/>
<path d="M426.320 -297.840L426.320 -257.840"/>
<path d="M426.320 -257.840L468.880 -275.880"/>
<path d="M468.880 -275.880L488.760 -274.840"/>
<path d="M488.760 -274.840L488.760 -218.440"/>
<path d="M488.760 -218.440L520.080 -239.600"/>
<path d="M520.080 -239.600L543.080 -215.760"/>
<path d="M543.080 -215.760L572.320 -234.760"/>
<path d="M572.320 -234.760L584.960 -237.200"/>
<path d="M584.960 -237.200L584.960 -200.000"/>
<path d="M584.960 -200.000L601.240 -244.720"/>
<path d="M601.240 -244.720L628.240 -276.920"/>
<path d="M628.240 -276.920L650.120 -274.240"/>
<path d="M650.120 -274.240L685.440 -265.400"/>
<path d="M685.440 -265.400L715.560 -264.880"/>
<path d="M650.120 -274.240L650.120 -234.240"/>
</g>
<g id="Labels" font-size="0.600em">
<text transform="translate(200.000 -290.320)">monatip1.1</text>
<text transform="translate(263.360 -295.880)">monatip1.2</text>
<text transform="translate(284.240 -299.160)">monatip1.3</text>
<text transform="translate(314.080 -302.840)">monatip1.4</text>
<text transform="translate(341.560 -307.200)">monatip1.5</text>
<text transform="translate(360.840 -312.360)">monatip1.6</text>
<text transform="translate(360.840 -306.360)">monatip1.7</text>
<text transform="translate(376.440 -311.120)">monatip1.8</text>
<text transform="translate(391.800 -312.200)">monatip1.9</text>
<text transform="translate(405.080 -311.760)">monatip1.10</text>
<text transform="translate(413.600 -304.600)">monatip1.11</text>
<text transform="translate(426.320 -297.840)">monatip1.12</text>
<text transform="translate(426.320 -257.840)">monatip1.13</text>
<text transform="translate(468.880 -275.880)">monatip1.14</text>
<text transform="translate(488.760 -274.840)">monatip1.15</text>
<text transform="translate(488.760 -218.440)">monatip1.16</text>
<text transform="translate(520.080 -239.600)">monatip1.17</text>
<text transform="translate(543.080 -215.760)">monatip1.18</text>
<text transform="translate(572.320 -234.760)">monatip1.19</text>
<text transform="translate(584.960 -237.200)">monatip1.20</text>
<text transform="translate(584.960 -200.000)">monatip1.21</text>
<text transform="translate(601.240 -244.720)">monatip1.22</text>
<text transform="translate(628.240 -276.920)">monatip1.23</text>
<text transform="translate(650.120 -274.240)">monatip1.24</text>
<text transform="translate(650.120 -234.240)">monatip1.25</text>
<text transform="translate(685.440 -265.400)">monatip1.26</text>
<text transform="translate(715.560 -264.880)">monatip1.27</text>
</g>
</g>
</svg>
