<?xml version="1.0" encoding="ISO-8859-1"?>
<svg version="1.1" baseProfile="full"
xmlns="http://www.w3.org/2000/svg"
xmlns:xlink="http://www.w3.org/1999/xlink"
xmlns:ev="http://www.w3.org/2001/xml-events"
width="696.160mm" height="642.880mm"
viewBox="0 0 696.160 642.880">
<title>Upside_Down_Chamber</title>
<g transform="translate(5.000 637.880)">
<g id="Legs" stroke="black" fill="none" stroke-width="0.4px">
<path d="M208.320 -427.280L200.000 -432.880"/>
<path d="M225.840 -327.600L208.320 -427.280"/>
<path d="M274.320 -288.360L225.840 -327.600"/>
<path d="M282.520 -270.840L274.320 -288.360"/>
<path d="M384.160 -274.360L282.520 -270.840"/>
<path d="M384.160 -274.360L428.240 -301.920"/>
<path d="M400.480 -270.320L384.160 -274.360"/>
<path d="M411.640 -259.880L400.480 -270.320"/>
<path d="M455.960 -237.320L411.640 -259.880"/>
<path d="M486.160 -200.000L455.960 -237.320"/>
</g>
<g id="Labels" font-size="0.600em">
<text transform="translate(200.000 -432.880)">upside_down_chamber.11</text>
<text transform="translate(200.000 -432.880)">colony.1</text>
<text transform="translate(486.160 -200.000)">upside_down_chamber.1</text>
<text transform="translate(455.960 -237.320)">upside_down_chamber.2</text>
<text transform="translate(411.640 -259.880)">upside_down_chamber.3</text>
<text transform="translate(400.480 -270.320)">upside_down_chamber.4</text>
<text transform="translate(384.160 -274.360)">upside_down_chamber.5</text>
<text transform="translate(428.240 -301.920)">upside_down_chamber.6</text>
<text transform="translate(282.520 -270.840)">upside_down_chamber.7</text>
<text transform="translate(274.320 -288.360)">upside_down_chamber.8</text>
<text transform="translate(225.840 -327.600)">upside_down_chamber.9</text>
<text transform="translate(208.320 -427.280)">upside_down_chamber.10</text>
</g>
<g id="Stations" stroke="black" fill="none" stroke-width="0.05px">
<circle id="upside_down_chamber.11" cx="200.000" cy="-432.880" r="1.131"/>
<path d="M199.200 -433.680L200.800 -432.080M200.800 -433.680L199.200 -432.080"/>
<circle id="upside_down_chamber.11" cx="200.000" cy="-432.880" r="1.131"/>
<path d="M199.200 -433.680L200.800 -432.080M200.800 -433.680L199.200 -432.080"/>
<circle id="upside_down_chamber.1" cx="486.160" cy="-200.000" r="1.131"/>
<path d="M485.360 -200.800L486.960 -199.200M486.960 -200.800L485.360 -199.200"/>
<circle id="upside_down_chamber.2" cx="455.960" cy="-237.320" r="1.131"/>
<path d="M455.160 -238.120L456.760 -236.520M456.760 -238.120L455.160 -236.520"/>
<circle id="upside_down_chamber.3" cx="411.640" cy="-259.880" r="1.131"/>
<path d="M410.840 -260.680L412.440 -259.080M412.440 -260.680L410.840 -259.080"/>
<circle id="upside_down_chamber.4" cx="400.480" cy="-270.320" r="1.131"/>
<path d="M399.680 -271.120L401.280 -269.520M401.280 -271.120L399.680 -269.520"/>
<circle id="upside_down_chamber.5" cx="384.160" cy="-274.360" r="1.131"/>
<path d="M383.360 -275.160L384.960 -273.560M384.960 -275.160L383.360 -273.560"/>
<circle id="upside_down_chamber.6" cx="428.240" cy="-301.920" r="1.131"/>
<path d="M427.440 -302.720L429.040 -301.120M429.040 -302.720L427.440 -301.120"/>
<circle id="upside_down_chamber.7" cx="282.520" cy="-270.840" r="1.131"/>
<path d="M281.720 -271.640L283.320 -270.040M283.320 -271.640L281.720 -270.040"/>
<circle id="upside_down_chamber.8" cx="274.320" cy="-288.360" r="1.131"/>
<path d="M273.520 -289.160L275.120 -287.560M275.120 -289.160L273.520 -287.560"/>
<circle id="upside_down_chamber.9" cx="225.840" cy="-327.600" r="1.131"/>
<path d="M225.040 -328.400L226.640 -326.800M226.640 -328.400L225.040 -326.800"/>
<circle id="upside_down_chamber.10" cx="208.320" cy="-427.280" r="1.131"/>
<path d="M207.520 -428.080L209.120 -426.480M209.120 -428.080L207.520 -426.480"/>
</g>
</g>
</svg>
