<?xml version="1.0" encoding="ISO-8859-1"?>
<svg version="1.1" baseProfile="full"
xmlns="http://www.w3.org/2000/svg"
xmlns:xlink="http://www.w3.org/1999/xlink"
xmlns:ev="http://www.w3.org/2001/xml-events"
width="860.200mm" height="606.000mm"
viewBox="0 0 860.200 606.000">
<title>electric_dreams</title>
<g transform="translate(5.000 601.000)">
<g id="Legs" stroke="black" fill="none" stroke-width="0.4px">
<path d="M200.000 -364.160L200.000 -360.160"/>
<path d="M210.640 -365.280L200.000 -364.160"/>
<path d="M215.280 -380.560L210.640 -365.280"/>
<path d="M228.680 -388.240L215.280 -380.560"/>
<path d="M240.560 -396.000L228.680 -388.240"/>
<path d="M240.560 -392.000L240.560 -396.000"/>
<path d="M259.280 -388.680L240.560 -392.000"/>
<path d="M276.880 -390.840L259.280 -388.680"/>
<path d="M299.840 -384.240L276.880 -390.840"/>
<path d="M324.360 -381.680L299.840 -384.240"/>
<path d="M342.120 -360.520L324.360 -381.680"/>
<path d="M372.400 -349.520L342.120 -360.520"/>
<path d="M405.440 -341.280L372.400 -349.520"/>
<path d="M424.800 -338.560L405.440 -341.280"/>
<path d="M478.160 -326.240L424.800 -338.560"/>
<path d="M489.200 -310.480L478.160 -326.240"/>
<path d="M489.200 -263.960L489.200 -310.480"/>
<path d="M518.000 -260.440L489.200 -263.960"/>
<path d="M518.000 -200.000L518.000 -260.440"/>
<path d="M554.240 -208.360L518.000 -200.000"/>
<path d="M605.440 -204.800L554.240 -208.360"/>
<path d="M620.640 -207.200L605.440 -204.800"/>
<path d="M645.720 -207.200L620.640 -207.200"/>
<path d="M645.720 -207.200L650.200 -207.280"/>
</g>
<g id="Labels" font-size="0.600em">
<text transform="translate(200.000 -360.160)">electric_dreams.25</text>
<text transform="translate(200.000 -360.160)">karstaway.26</text>
<text transform="translate(650.200 -207.280)">electric_dreams.1</text>
<text transform="translate(645.720 -207.200)">electric_dreams.2</text>
<text transform="translate(620.640 -207.200)">electric_dreams.3</text>
<text transform="translate(605.440 -204.800)">electric_dreams.4</text>
<text transform="translate(554.240 -208.360)">electric_dreams.5</text>
<text transform="translate(518.000 -200.000)">electric_dreams.6</text>
<text transform="translate(518.000 -260.440)">electric_dreams.7</text>
<text transform="translate(489.200 -263.960)">electric_dreams.8</text>
<text transform="translate(489.200 -310.480)">electric_dreams.9</text>
<text transform="translate(478.160 -326.240)">electric_dreams.10</text>
<text transform="translate(424.800 -338.560)">electric_dreams.11</text>
<text transform="translate(405.440 -341.280)">electric_dreams.12</text>
<text transform="translate(372.400 -349.520)">electric_dreams.13</text>
<text transform="translate(342.120 -360.520)">electric_dreams.14</text>
<text transform="translate(324.360 -381.680)">electric_dreams.15</text>
<text transform="translate(299.840 -384.240)">electric_dreams.16</text>
<text transform="translate(276.880 -390.840)">electric_dreams.17</text>
<text transform="translate(259.280 -388.680)">electric_dreams.18</text>
<text transform="translate(240.560 -392.000)">electric_dreams.19</text>
<text transform="translate(240.560 -396.000)">electric_dreams.20</text>
<text transform="translate(228.680 -388.240)">electric_dreams.21</text>
<text transform="translate(215.280 -380.560)">electric_dreams.22</text>
<text transform="translate(210.640 -365.280)">electric_dreams.23</text>
<text transform="translate(200.000 -364.160)">electric_dreams.24</text>
</g>
<g id="Stations" stroke="black" fill="none" stroke-width="0.05px">
<circle id="electric_dreams.25" cx="200.000" cy="-360.160" r="1.131"/>
<path d="M199.200 -360.960L200.800 -359.360M200.800 -360.960L199.200 -359.360"/>
<circle id="electric_dreams.25" cx="200.000" cy="-360.160" r="1.131"/>
<path d="M199.200 -360.960L200.800 -359.360M200.800 -360.960L199.200 -359.360"/>
<circle id="electric_dreams.1" cx="650.200" cy="-207.280" r="1.131"/>
<path d="M649.400 -208.080L651.000 -206.480M651.000 -208.080L649.400 -206.480"/>
<circle id="electric_dreams.2" cx="645.720" cy="-207.200" r="1.131"/>
<path d="M644.920 -208.000L646.520 -206.400M646.520 -208.000L644.920 -206.400"/>
<circle id="electric_dreams.3" cx="620.640" cy="-207.200" r="1.131"/>
<path d="M619.840 -208.000L621.440 -206.400M621.440 -208.000L619.840 -206.400"/>
<circle id="electric_dreams.4" cx="605.440" cy="-204.800" r="1.131"/>
<path d="M604.640 -205.600L606.240 -204.000M606.240 -205.600L604.640 -204.000"/>
<circle id="electric_dreams.5" cx="554.240" cy="-208.360" r="1.131"/>
<path d="M553.440 -209.160L555.040 -207.560M555.040 -209.160L553.440 -207.560"/>
<circle id="electric_dreams.6" cx="518.000" cy="-200.000" r="1.131"/>
<path d="M517.200 -200.800L518.800 -199.200M518.800 -200.800L517.200 -199.200"/>
<circle id="electric_dreams.7" cx="518.000" cy="-260.440" r="1.131"/>
<path d="M517.200 -261.240L518.800 -259.640M518.800 -261.240L517.200 -259.640"/>
<circle id="electric_dreams.8" cx="489.200" cy="-263.960" r="1.131"/>
<path d="M488.400 -264.760L490.000 -263.160M490.000 -264.760L488.400 -263.160"/>
<circle id="electric_dreams.9" cx="489.200" cy="-310.480" r="1.131"/>
<path d="M488.400 -311.280L490.000 -309.680M490.000 -311.280L488.400 -309.680"/>
<circle id="electric_dreams.10" cx="478.160" cy="-326.240" r="1.131"/>
<path d="M477.360 -327.040L478.960 -325.440M478.960 -327.040L477.360 -325.440"/>
<circle id="electric_dreams.11" cx="424.800" cy="-338.560" r="1.131"/>
<path d="M424.000 -339.360L425.600 -337.760M425.600 -339.360L424.000 -337.760"/>
<circle id="electric_dreams.12" cx="405.440" cy="-341.280" r="1.131"/>
<path d="M404.640 -342.080L406.240 -340.480M406.240 -342.080L404.640 -340.480"/>
<circle id="electric_dreams.13" cx="372.400" cy="-349.520" r="1.131"/>
<path d="M371.600 -350.320L373.200 -348.720M373.200 -350.320L371.600 -348.720"/>
<circle id="electric_dreams.14" cx="342.120" cy="-360.520" r="1.131"/>
<path d="M341.320 -361.320L342.920 -359.720M342.920 -361.320L341.320 -359.720"/>
<circle id="electric_dreams.15" cx="324.360" cy="-381.680" r="1.131"/>
<path d="M323.560 -382.480L325.160 -380.880M325.160 -382.480L323.560 -380.880"/>
<circle id="electric_dreams.16" cx="299.840" cy="-384.240" r="1.131"/>
<path d="M299.040 -385.040L300.640 -383.440M300.640 -385.040L299.040 -383.440"/>
<circle id="electric_dreams.17" cx="276.880" cy="-390.840" r="1.131"/>
<path d="M276.080 -391.640L277.680 -390.040M277.680 -391.640L276.080 -390.040"/>
<circle id="electric_dreams.18" cx="259.280" cy="-388.680" r="1.131"/>
<path d="M258.480 -389.480L260.080 -387.880M260.080 -389.480L258.480 -387.880"/>
<circle id="electric_dreams.19" cx="240.560" cy="-392.000" r="1.131"/>
<path d="M239.760 -392.800L241.360 -391.200M241.360 -392.800L239.760 -391.200"/>
<circle id="electric_dreams.20" cx="240.560" cy="-396.000" r="1.131"/>
<path d="M239.760 -396.800L241.360 -395.200M241.360 -396.800L239.760 -395.200"/>
<circle id="electric_dreams.21" cx="228.680" cy="-388.240" r="1.131"/>
<path d="M227.880 -389.040L229.480 -387.440M229.480 -389.040L227.880 -387.440"/>
<circle id="electric_dreams.22" cx="215.280" cy="-380.560" r="1.131"/>
<path d="M214.480 -381.360L216.080 -379.760M216.080 -381.360L214.480 -379.760"/>
<circle id="electric_dreams.23" cx="210.640" cy="-365.280" r="1.131"/>
<path d="M209.840 -366.080L211.440 -364.480M211.440 -366.080L209.840 -364.480"/>
<circle id="electric_dreams.24" cx="200.000" cy="-364.160" r="1.131"/>
<path d="M199.200 -364.960L200.800 -363.360M200.800 -364.960L199.200 -363.360"/>
</g>
</g>
</svg>
