<?xml version="1.0" encoding="utf-8" standalone="no"?>
<!-- Generated by Therion 5.4.1+? (compiled on 2018-06-25) -->
<!DOCTYPE svg PUBLIC "-//W3C//DTD SVG 1.1//EN" "http://www.w3.org/Graphics/SVG/1.1/DTD/svg11.dtd">
<svg width="7.080cm" height="11.631cm" viewBox="-167.435 -298.186 200.693 329.693" xmlns="http://www.w3.org/2000/svg" xmlns:xlink="http://www.w3.org/1999/xlink">
<defs>
<g id="F_aaaaaaa_mushroom.svg">
</g>
<g id="G_aaaaaaa_mushroom.svg">
</g>
<g id="B_aaaaaaa_mushroom.svg">
</g>
<g id="I_aaaaaaa_mushroom.svg">
</g>
<g id="E_aaaaaaa_mushroom.svg">
<path fill="none" stroke="#000000" stroke-width="0.500" d="M139.090 3.160L121.340 26.690" />
<path fill="none" stroke="#000000" stroke-width="0.500" d="M121.340 26.690L108.080 30.710" />
<path fill="none" stroke="#000000" stroke-width="0.500" d="M121.340 26.690L139.090 3.160" />
<path fill="none" stroke="#000000" stroke-width="0.500" d="M108.080 30.710L100.930 42.170" />
<path fill="none" stroke="#000000" stroke-width="0.500" d="M108.080 30.710L121.340 26.690" />
<path fill="none" stroke="#000000" stroke-width="0.500" d="M100.930 42.170L89.030 38.930" />
<path fill="none" stroke="#000000" stroke-width="0.500" d="M100.930 42.170L108.080 30.710" />
<path fill="none" stroke="#000000" stroke-width="0.500" d="M89.030 38.930L84.380 51.750" />
<path fill="none" stroke="#000000" stroke-width="0.500" d="M89.030 38.930L100.930 42.170" />
<path fill="none" stroke="#000000" stroke-width="0.500" d="M84.380 51.750L92.200 115.530" />
<path fill="none" stroke="#000000" stroke-width="0.500" d="M84.380 51.750L102.410 14.730" />
<path fill="none" stroke="#000000" stroke-width="0.500" d="M84.380 51.750L89.030 38.930" />
<path fill="none" stroke="#000000" stroke-width="0.500" d="M102.410 14.730L84.380 51.750" />
<path fill="none" stroke="#000000" stroke-width="0.500" d="M92.200 115.530L91.580 132.420" />
<path fill="none" stroke="#000000" stroke-width="0.500" d="M92.200 115.530L84.380 51.750" />
<path fill="none" stroke="#000000" stroke-width="0.500" d="M91.580 132.420L93.340 152.600" />
<path fill="none" stroke="#000000" stroke-width="0.500" d="M91.580 132.420L92.200 115.530" />
<path fill="none" stroke="#000000" stroke-width="0.500" d="M93.340 152.600L86.310 165.360" />
<path fill="none" stroke="#000000" stroke-width="0.500" d="M93.340 152.600L91.580 132.420" />
<path fill="none" stroke="#000000" stroke-width="0.500" d="M86.310 165.360L62.100 160.200" />
<path fill="none" stroke="#000000" stroke-width="0.500" d="M86.310 165.360L93.340 152.600" />
<path fill="none" stroke="#000000" stroke-width="0.500" d="M62.100 160.200L35.340 158.390" />
<path fill="none" stroke="#000000" stroke-width="0.500" d="M62.100 160.200L86.310 165.360" />
<path fill="none" stroke="#000000" stroke-width="0.500" d="M35.340 158.390L31.310 155.660" />
<path fill="none" stroke="#000000" stroke-width="0.500" d="M35.340 158.390L62.100 160.200" />
<path fill="none" stroke="#000000" stroke-width="0.500" d="M31.310 155.660L6.770 193.480" />
<path fill="none" stroke="#000000" stroke-width="0.500" d="M31.310 155.660L35.340 158.390" />
<path fill="none" stroke="#000000" stroke-width="0.500" d="M6.770 193.480L9.660 248.410" />
<path fill="none" stroke="#000000" stroke-width="0.500" d="M6.770 193.480L31.310 155.660" />
<path fill="none" stroke="#000000" stroke-width="0.500" d="M9.660 248.410L2.910 266.840" />
<path fill="none" stroke="#000000" stroke-width="0.500" d="M9.660 248.410L6.770 193.480" />
<path fill="none" stroke="#000000" stroke-width="0.500" d="M2.910 266.840L9.660 248.410" />
<path fill="none" stroke="#000000" stroke-width="0.350" d="M137.090 3.160L141.090 3.160" />
<path fill="none" stroke="#000000" stroke-width="0.350" d="M139.090 1.160L139.090 5.160" />
<path fill="#ffffff" stroke="none" d="M139.890 3.160C139.890 3.372 139.806 3.576 139.656 3.726C139.506 3.876 139.302 3.960 139.090 3.960C138.878 3.960 138.674 3.876 138.524 3.726C138.374 3.576 138.290 3.372 138.290 3.160C138.290 2.948 138.374 2.744 138.524 2.594C138.674 2.444 138.878 2.360 139.090 2.360C139.302 2.360 139.506 2.444 139.656 2.594C139.806 2.744 139.890 2.948 139.890 3.160Z" />
<path fill="none" stroke="#000000" stroke-width="0.500" d="M139.090 3.160h0.001" />
<path fill="none" stroke="#000000" stroke-width="0.350" d="M119.340 26.690L123.340 26.690" />
<path fill="none" stroke="#000000" stroke-width="0.350" d="M121.340 24.690L121.340 28.690" />
<path fill="#ffffff" stroke="none" d="M122.140 26.690C122.140 26.902 122.056 27.106 121.906 27.256C121.756 27.406 121.552 27.490 121.340 27.490C121.128 27.490 120.924 27.406 120.774 27.256C120.624 27.106 120.540 26.902 120.540 26.690C120.540 26.478 120.624 26.274 120.774 26.124C120.924 25.974 121.128 25.890 121.340 25.890C121.552 25.890 121.756 25.974 121.906 26.124C122.056 26.274 122.140 26.478 122.140 26.690Z" />
<path fill="none" stroke="#000000" stroke-width="0.500" d="M121.340 26.690h0.001" />
<path fill="none" stroke="#000000" stroke-width="0.350" d="M106.080 30.710L110.080 30.710" />
<path fill="none" stroke="#000000" stroke-width="0.350" d="M108.080 28.710L108.080 32.710" />
<path fill="#ffffff" stroke="none" d="M108.880 30.710C108.880 30.922 108.796 31.126 108.646 31.276C108.496 31.426 108.292 31.510 108.080 31.510C107.868 31.510 107.664 31.426 107.514 31.276C107.364 31.126 107.280 30.922 107.280 30.710C107.280 30.498 107.364 30.294 107.514 30.144C107.664 29.994 107.868 29.910 108.080 29.910C108.292 29.910 108.496 29.994 108.646 30.144C108.796 30.294 108.880 30.498 108.880 30.710Z" />
<path fill="none" stroke="#000000" stroke-width="0.500" d="M108.080 30.710h0.001" />
<path fill="none" stroke="#000000" stroke-width="0.350" d="M98.930 42.170L102.930 42.170" />
<path fill="none" stroke="#000000" stroke-width="0.350" d="M100.930 40.170L100.930 44.170" />
<path fill="#ffffff" stroke="none" d="M101.730 42.170C101.730 42.382 101.646 42.586 101.496 42.736C101.346 42.886 101.142 42.970 100.930 42.970C100.718 42.970 100.514 42.886 100.364 42.736C100.214 42.586 100.130 42.382 100.130 42.170C100.130 41.958 100.214 41.754 100.364 41.604C100.514 41.454 100.718 41.370 100.930 41.370C101.142 41.370 101.346 41.454 101.496 41.604C101.646 41.754 101.730 41.958 101.730 42.170Z" />
<path fill="none" stroke="#000000" stroke-width="0.500" d="M100.930 42.170h0.001" />
<path fill="none" stroke="#000000" stroke-width="0.350" d="M87.030 38.930L91.030 38.930" />
<path fill="none" stroke="#000000" stroke-width="0.350" d="M89.030 36.930L89.030 40.930" />
<path fill="#ffffff" stroke="none" d="M89.830 38.930C89.830 39.142 89.746 39.346 89.596 39.496C89.446 39.646 89.242 39.730 89.030 39.730C88.818 39.730 88.614 39.646 88.464 39.496C88.314 39.346 88.230 39.142 88.230 38.930C88.230 38.718 88.314 38.514 88.464 38.364C88.614 38.214 88.818 38.130 89.030 38.130C89.242 38.130 89.446 38.214 89.596 38.364C89.746 38.514 89.830 38.718 89.830 38.930Z" />
<path fill="none" stroke="#000000" stroke-width="0.500" d="M89.030 38.930h0.001" />
<path fill="none" stroke="#000000" stroke-width="0.350" d="M82.380 51.750L86.380 51.750" />
<path fill="none" stroke="#000000" stroke-width="0.350" d="M84.380 49.750L84.380 53.750" />
<path fill="#ffffff" stroke="none" d="M85.180 51.750C85.180 51.962 85.096 52.166 84.946 52.316C84.796 52.466 84.592 52.550 84.380 52.550C84.168 52.550 83.964 52.466 83.814 52.316C83.664 52.166 83.580 51.962 83.580 51.750C83.580 51.538 83.664 51.334 83.814 51.184C83.964 51.034 84.168 50.950 84.380 50.950C84.592 50.950 84.796 51.034 84.946 51.184C85.096 51.334 85.180 51.538 85.180 51.750Z" />
<path fill="none" stroke="#000000" stroke-width="0.500" d="M84.380 51.750h0.001" />
<path fill="none" stroke="#000000" stroke-width="0.350" d="M100.410 14.730L104.410 14.730" />
<path fill="none" stroke="#000000" stroke-width="0.350" d="M102.410 12.730L102.410 16.730" />
<path fill="#ffffff" stroke="none" d="M103.210 14.730C103.210 14.942 103.126 15.146 102.976 15.296C102.826 15.446 102.622 15.530 102.410 15.530C102.198 15.530 101.994 15.446 101.844 15.296C101.694 15.146 101.610 14.942 101.610 14.730C101.610 14.518 101.694 14.314 101.844 14.164C101.994 14.014 102.198 13.930 102.410 13.930C102.622 13.930 102.826 14.014 102.976 14.164C103.126 14.314 103.210 14.518 103.210 14.730Z" />
<path fill="none" stroke="#000000" stroke-width="0.500" d="M102.410 14.730h0.001" />
<path fill="none" stroke="#000000" stroke-width="0.350" d="M90.200 115.530L94.200 115.530" />
<path fill="none" stroke="#000000" stroke-width="0.350" d="M92.200 113.530L92.200 117.530" />
<path fill="#ffffff" stroke="none" d="M93.000 115.530C93.000 115.742 92.916 115.946 92.766 116.096C92.616 116.246 92.412 116.330 92.200 116.330C91.988 116.330 91.784 116.246 91.634 116.096C91.484 115.946 91.400 115.742 91.400 115.530C91.400 115.318 91.484 115.114 91.634 114.964C91.784 114.814 91.988 114.730 92.200 114.730C92.412 114.730 92.616 114.814 92.766 114.964C92.916 115.114 93.000 115.318 93.000 115.530Z" />
<path fill="none" stroke="#000000" stroke-width="0.500" d="M92.200 115.530h0.001" />
<path fill="none" stroke="#000000" stroke-width="0.350" d="M89.580 132.420L93.580 132.420" />
<path fill="none" stroke="#000000" stroke-width="0.350" d="M91.580 130.420L91.580 134.420" />
<path fill="#ffffff" stroke="none" d="M92.380 132.420C92.380 132.632 92.296 132.836 92.146 132.986C91.996 133.136 91.792 133.220 91.580 133.220C91.368 133.220 91.164 133.136 91.014 132.986C90.864 132.836 90.780 132.632 90.780 132.420C90.780 132.208 90.864 132.004 91.014 131.854C91.164 131.704 91.368 131.620 91.580 131.620C91.792 131.620 91.996 131.704 92.146 131.854C92.296 132.004 92.380 132.208 92.380 132.420Z" />
<path fill="none" stroke="#000000" stroke-width="0.500" d="M91.580 132.420h0.001" />
<path fill="none" stroke="#000000" stroke-width="0.350" d="M91.340 152.600L95.340 152.600" />
<path fill="none" stroke="#000000" stroke-width="0.350" d="M93.340 150.600L93.340 154.600" />
<path fill="#ffffff" stroke="none" d="M94.140 152.600C94.140 152.812 94.056 153.016 93.906 153.166C93.756 153.316 93.552 153.400 93.340 153.400C93.128 153.400 92.924 153.316 92.774 153.166C92.624 153.016 92.540 152.812 92.540 152.600C92.540 152.388 92.624 152.184 92.774 152.034C92.924 151.884 93.128 151.800 93.340 151.800C93.552 151.800 93.756 151.884 93.906 152.034C94.056 152.184 94.140 152.388 94.140 152.600Z" />
<path fill="none" stroke="#000000" stroke-width="0.500" d="M93.340 152.600h0.001" />
<path fill="none" stroke="#000000" stroke-width="0.350" d="M84.310 165.360L88.310 165.360" />
<path fill="none" stroke="#000000" stroke-width="0.350" d="M86.310 163.360L86.310 167.360" />
<path fill="#ffffff" stroke="none" d="M87.110 165.360C87.110 165.572 87.026 165.776 86.876 165.926C86.726 166.076 86.522 166.160 86.310 166.160C86.098 166.160 85.894 166.076 85.744 165.926C85.594 165.776 85.510 165.572 85.510 165.360C85.510 165.148 85.594 164.944 85.744 164.794C85.894 164.644 86.098 164.560 86.310 164.560C86.522 164.560 86.726 164.644 86.876 164.794C87.026 164.944 87.110 165.148 87.110 165.360Z" />
<path fill="none" stroke="#000000" stroke-width="0.500" d="M86.310 165.360h0.001" />
<path fill="none" stroke="#000000" stroke-width="0.350" d="M60.100 160.200L64.100 160.200" />
<path fill="none" stroke="#000000" stroke-width="0.350" d="M62.100 158.200L62.100 162.200" />
<path fill="#ffffff" stroke="none" d="M62.900 160.200C62.900 160.412 62.816 160.616 62.666 160.766C62.516 160.916 62.312 161.000 62.100 161.000C61.888 161.000 61.684 160.916 61.534 160.766C61.384 160.616 61.300 160.412 61.300 160.200C61.300 159.988 61.384 159.784 61.534 159.634C61.684 159.484 61.888 159.400 62.100 159.400C62.312 159.400 62.516 159.484 62.666 159.634C62.816 159.784 62.900 159.988 62.900 160.200Z" />
<path fill="none" stroke="#000000" stroke-width="0.500" d="M62.100 160.200h0.001" />
<path fill="none" stroke="#000000" stroke-width="0.350" d="M33.340 158.390L37.340 158.390" />
<path fill="none" stroke="#000000" stroke-width="0.350" d="M35.340 156.390L35.340 160.390" />
<path fill="#ffffff" stroke="none" d="M36.140 158.390C36.140 158.602 36.056 158.806 35.906 158.956C35.756 159.106 35.552 159.190 35.340 159.190C35.128 159.190 34.924 159.106 34.774 158.956C34.624 158.806 34.540 158.602 34.540 158.390C34.540 158.178 34.624 157.974 34.774 157.824C34.924 157.674 35.128 157.590 35.340 157.590C35.552 157.590 35.756 157.674 35.906 157.824C36.056 157.974 36.140 158.178 36.140 158.390Z" />
<path fill="none" stroke="#000000" stroke-width="0.500" d="M35.340 158.390h0.001" />
<path fill="none" stroke="#000000" stroke-width="0.350" d="M29.310 155.660L33.310 155.660" />
<path fill="none" stroke="#000000" stroke-width="0.350" d="M31.310 153.660L31.310 157.660" />
<path fill="#ffffff" stroke="none" d="M32.110 155.660C32.110 155.872 32.026 156.076 31.876 156.226C31.726 156.376 31.522 156.460 31.310 156.460C31.098 156.460 30.894 156.376 30.744 156.226C30.594 156.076 30.510 155.872 30.510 155.660C30.510 155.448 30.594 155.244 30.744 155.094C30.894 154.944 31.098 154.860 31.310 154.860C31.522 154.860 31.726 154.944 31.876 155.094C32.026 155.244 32.110 155.448 32.110 155.660Z" />
<path fill="none" stroke="#000000" stroke-width="0.500" d="M31.310 155.660h0.001" />
<path fill="none" stroke="#000000" stroke-width="0.350" d="M4.770 193.480L8.770 193.480" />
<path fill="none" stroke="#000000" stroke-width="0.350" d="M6.770 191.480L6.770 195.480" />
<path fill="#ffffff" stroke="none" d="M7.570 193.480C7.570 193.692 7.486 193.896 7.336 194.046C7.186 194.196 6.982 194.280 6.770 194.280C6.558 194.280 6.354 194.196 6.204 194.046C6.054 193.896 5.970 193.692 5.970 193.480C5.970 193.268 6.054 193.064 6.204 192.914C6.354 192.764 6.558 192.680 6.770 192.680C6.982 192.680 7.186 192.764 7.336 192.914C7.486 193.064 7.570 193.268 7.570 193.480Z" />
<path fill="none" stroke="#000000" stroke-width="0.500" d="M6.770 193.480h0.001" />
<path fill="none" stroke="#000000" stroke-width="0.350" d="M7.660 248.410L11.660 248.410" />
<path fill="none" stroke="#000000" stroke-width="0.350" d="M9.660 246.410L9.660 250.410" />
<path fill="#ffffff" stroke="none" d="M10.460 248.410C10.460 248.622 10.376 248.826 10.226 248.976C10.076 249.126 9.872 249.210 9.660 249.210C9.448 249.210 9.244 249.126 9.094 248.976C8.944 248.826 8.860 248.622 8.860 248.410C8.860 248.198 8.944 247.994 9.094 247.844C9.244 247.694 9.448 247.610 9.660 247.610C9.872 247.610 10.076 247.694 10.226 247.844C10.376 247.994 10.460 248.198 10.460 248.410Z" />
<path fill="none" stroke="#000000" stroke-width="0.500" d="M9.660 248.410h0.001" />
<path fill="none" stroke="#000000" stroke-width="0.350" d="M0.910 266.840L4.910 266.840" />
<path fill="none" stroke="#000000" stroke-width="0.350" d="M2.910 264.840L2.910 268.840" />
<path fill="#ffffff" stroke="none" d="M3.710 266.840C3.710 267.052 3.626 267.256 3.476 267.406C3.326 267.556 3.122 267.640 2.910 267.640C2.698 267.640 2.494 267.556 2.344 267.406C2.194 267.256 2.110 267.052 2.110 266.840C2.110 266.628 2.194 266.424 2.344 266.274C2.494 266.124 2.698 266.040 2.910 266.040C3.122 266.040 3.326 266.124 3.476 266.274C3.626 266.424 3.710 266.628 3.710 266.840Z" />
<path fill="none" stroke="#000000" stroke-width="0.500" d="M2.910 266.840h0.001" />
</g>
<g id="X_aaaaaaa_mushroom.svg">
<text font-family="cmss10" font-size="6.974" fill="black" stroke="none" transform="matrix(1.000 0.000 -0.000 -1.000 136.965 0.035)">&#x31;</text>
<text font-family="cmss10" font-size="6.974" fill="black" stroke="none" transform="matrix(1.000 0.000 -0.000 -1.000 119.215 23.565)">&#x32;</text>
<text font-family="cmss10" font-size="6.974" fill="black" stroke="none" transform="matrix(1.000 0.000 -0.000 -1.000 105.955 27.585)">&#x33;</text>
<text font-family="cmss10" font-size="6.974" fill="black" stroke="none" transform="matrix(1.000 0.000 -0.000 -1.000 98.805 39.045)">&#x34;</text>
<text font-family="cmss10" font-size="6.974" fill="black" stroke="none" transform="matrix(1.000 0.000 -0.000 -1.000 86.905 35.805)">&#x35;</text>
<text font-family="cmss10" font-size="6.974" fill="black" stroke="none" transform="matrix(1.000 0.000 -0.000 -1.000 82.255 48.625)">&#x36;</text>
<text font-family="cmss10" font-size="6.974" fill="black" stroke="none" transform="matrix(1.000 0.000 -0.000 -1.000 100.285 11.605)">&#x37;</text>
<text font-family="cmss10" font-size="6.974" fill="black" stroke="none" transform="matrix(1.000 0.000 -0.000 -1.000 90.075 112.405)">&#x38;</text>
<text font-family="cmss10" font-size="6.974" fill="black" stroke="none" transform="matrix(1.000 0.000 -0.000 -1.000 89.455 129.295)">&#x39;</text>
<text font-family="cmss10" font-size="6.974" fill="black" stroke="none" transform="matrix(1.000 0.000 -0.000 -1.000 91.215 149.475)">&#x31;&#x30;</text>
<text font-family="cmss10" font-size="6.974" fill="black" stroke="none" transform="matrix(1.000 0.000 -0.000 -1.000 84.185 162.235)">&#x31;&#x31;</text>
<text font-family="cmss10" font-size="6.974" fill="black" stroke="none" transform="matrix(1.000 0.000 -0.000 -1.000 59.975 157.075)">&#x31;&#x32;</text>
<text font-family="cmss10" font-size="6.974" fill="black" stroke="none" transform="matrix(1.000 0.000 -0.000 -1.000 33.215 155.265)">&#x31;&#x33;</text>
<text font-family="cmss10" font-size="6.974" fill="black" stroke="none" transform="matrix(1.000 0.000 -0.000 -1.000 29.185 152.535)">&#x31;&#x34;</text>
<text font-family="cmss10" font-size="6.974" fill="black" stroke="none" transform="matrix(1.000 0.000 -0.000 -1.000 4.645 190.355)">&#x31;&#x35;</text>
<text font-family="cmss10" font-size="6.974" fill="black" stroke="none" transform="matrix(1.000 0.000 -0.000 -1.000 7.535 245.285)">&#x31;&#x36;</text>
<text font-family="cmss10" font-size="6.974" fill="black" stroke="none" transform="matrix(1.000 0.000 -0.000 -1.000 0.785 263.715)">&#x31;&#x37;</text>
</g>
<clipPath id="clip_viewBox">
<path d="M-167.435 -31.507L33.258 -31.507L33.258 298.186L-167.435 298.186z" />
</clipPath>
</defs>
<g transform="scale(1,-1)" fill="#000000" stroke="#000000" stroke-linecap="round" stroke-linejoin="round" stroke-miterlimit="10" fill-rule="evenodd" clip-rule="evenodd" clip-path="url(#clip_viewBox)">
<use x="-139.088" y="-3.161" xlink:href="#E_aaaaaaa_mushroom.svg" />
<use x="-136.088" y="0.839" xlink:href="#X_aaaaaaa_mushroom.svg" />
</g>
</svg>
