<?xml version="1.0" encoding="UTF-8" standalone="no"?>
<svg
   xmlns:dc="http://purl.org/dc/elements/1.1/"
   xmlns:cc="http://creativecommons.org/ns#"
   xmlns:rdf="http://www.w3.org/1999/02/22-rdf-syntax-ns#"
   xmlns:svg="http://www.w3.org/2000/svg"
   xmlns="http://www.w3.org/2000/svg"
   xmlns:sodipodi="http://sodipodi.sourceforge.net/DTD/sodipodi-0.dtd"
   xmlns:inkscape="http://www.inkscape.org/namespaces/inkscape"
   version="1.1"
   width="1019.240mm"
   height="645.920mm"
   viewBox="0 0 1019.240 645.920"
   id="svg279"
   sodipodi:docname="canticle_for_migovec_extend.svg"
   inkscape:version="0.92.2 5c3e80d, 2017-08-06">
  <metadata
     id="metadata285">
    <rdf:RDF>
      <cc:Work
         rdf:about="">
        <dc:format>image/svg+xml</dc:format>
        <dc:type
           rdf:resource="http://purl.org/dc/dcmitype/StillImage" />
      </cc:Work>
    </rdf:RDF>
  </metadata>
  <defs
     id="defs283" />
  <sodipodi:namedview
     pagecolor="#ffffff"
     bordercolor="#666666"
     borderopacity="1"
     objecttolerance="10"
     gridtolerance="10"
     guidetolerance="10"
     inkscape:pageopacity="0"
     inkscape:pageshadow="2"
     inkscape:window-width="742"
     inkscape:window-height="480"
     id="namedview281"
     showgrid="false"
     inkscape:zoom="0.084106786"
     inkscape:cx="1926.1228"
     inkscape:cy="1220.6362"
     inkscape:window-x="0"
     inkscape:window-y="0"
     inkscape:window-maximized="0"
     inkscape:current-layer="svg279" />
  <title
     id="title2">canticle_for_migovec</title>
  <g
     transform="translate(5.000 640.920)"
     id="g277">
    <g
       id="Legs"
       stroke="black"
       fill="none"
       stroke-width="0.4px">
      <path
         d="M206.480 -434.800L200.000 -435.920"
         id="path4" />
      <path
         d="M208.640 -356.400L206.480 -434.800"
         id="path6" />
      <path
         d="M224.960 -359.280L208.640 -356.400"
         id="path8" />
      <path
         d="M250.320 -359.520L224.960 -359.280"
         id="path10" />
      <path
         d="M255.880 -348.840L250.320 -359.520"
         id="path12" />
      <path
         d="M268.120 -347.800L255.880 -348.840"
         id="path14" />
      <path
         d="M280.520 -345.120L268.120 -347.800"
         id="path16" />
      <path
         d="M320.600 -337.000L280.520 -345.120"
         id="path18" />
      <path
         d="M328.640 -338.840L320.600 -337.000"
         id="path20" />
      <path
         d="M338.520 -321.480L328.640 -338.840"
         id="path22" />
      <path
         d="M345.120 -322.360L338.520 -321.480"
         id="path24" />
      <path
         d="M373.320 -298.280L345.120 -322.360"
         id="path26" />
      <path
         d="M390.440 -277.080L373.320 -298.280"
         id="path28" />
      <path
         d="M398.680 -274.880L390.440 -277.080"
         id="path30" />
      <path
         d="M431.920 -228.840L398.680 -274.880"
         id="path32" />
      <path
         d="M447.720 -230.760L431.920 -228.840"
         id="path34" />
      <path
         d="M466.800 -230.240L447.720 -230.760"
         id="path36" />
      <path
         d="M498.360 -228.800L466.800 -230.240"
         id="path38" />
      <path
         d="M508.880 -232.560L498.360 -228.800"
         id="path40" />
      <path
         d="M515.840 -232.680L508.880 -232.560"
         id="path42" />
      <path
         d="M550.040 -229.520L515.840 -232.680"
         id="path44" />
      <path
         d="M563.400 -228.040L550.040 -229.520"
         id="path46" />
      <path
         d="M579.880 -227.240L563.400 -228.040"
         id="path48" />
      <path
         d="M612.360 -223.680L579.880 -227.240"
         id="path50" />
      <path
         d="M619.720 -226.800L612.360 -223.680"
         id="path52" />
      <path
         d="M633.600 -227.520L619.720 -226.800"
         id="path54" />
      <path
         d="M662.680 -225.920L633.600 -227.520"
         id="path56" />
      <path
         d="M675.640 -220.040L662.680 -225.920"
         id="path58" />
      <path
         d="M696.720 -216.000L675.640 -220.040"
         id="path60" />
      <path
         d="M713.240 -217.640L696.720 -216.000"
         id="path62" />
      <path
         d="M726.480 -212.800L713.240 -217.640"
         id="path64" />
      <path
         d="M743.960 -210.360L726.480 -212.800"
         id="path66" />
      <path
         d="M765.440 -216.280L743.960 -210.360"
         id="path68" />
      <path
         d="M773.560 -216.200L765.440 -216.280"
         id="path70" />
      <path
         d="M781.520 -216.120L773.560 -216.200"
         id="path72" />
      <path
         d="M793.440 -213.000L781.520 -216.120"
         id="path74" />
      <path
         d="M809.240 -200.000L793.440 -213.000"
         id="path76" />
    </g>
    <g
       id="Labels"
       font-size="0.600em">
      <text
         transform="translate(200,-435.92)"
         id="text79">38</text>
      <text
         transform="translate(200.000 -435.920)"
         id="text81">bath.20</text>
      <text
         transform="translate(809.24,-200)"
         id="text83">1</text>
      <text
         transform="translate(793.44,-213)"
         id="text85">2</text>
      <text
         transform="translate(781.52,-216.12)"
         id="text87">3</text>
      <text
         transform="translate(773.56,-216.2)"
         id="text89">4</text>
      <text
         transform="translate(765.44,-216.28)"
         id="text91">5</text>
      <text
         transform="translate(743.96,-210.36)"
         id="text93">6</text>
      <text
         transform="translate(726.48,-212.8)"
         id="text95">7</text>
      <text
         transform="translate(713.24,-217.64)"
         id="text97">8</text>
      <text
         transform="translate(696.72,-216)"
         id="text99">9</text>
      <text
         transform="translate(675.64,-220.04)"
         id="text101">10</text>
      <text
         transform="translate(662.68,-225.92)"
         id="text103">11</text>
      <text
         transform="translate(633.6,-227.52)"
         id="text105">12</text>
      <text
         transform="translate(619.72,-226.8)"
         id="text107">13</text>
      <text
         transform="translate(612.36,-223.68)"
         id="text109">14</text>
      <text
         transform="translate(579.88,-227.24)"
         id="text111">15</text>
      <text
         transform="translate(563.4,-228.04)"
         id="text113">16</text>
      <text
         transform="translate(550.04,-229.52)"
         id="text115">17</text>
      <text
         transform="translate(515.84,-232.68)"
         id="text117">18</text>
      <text
         transform="translate(508.88,-232.56)"
         id="text119">19</text>
      <text
         transform="translate(498.36,-228.8)"
         id="text121">20</text>
      <text
         transform="translate(466.8,-230.24)"
         id="text123">21</text>
      <text
         transform="translate(447.72,-230.76)"
         id="text125">22</text>
      <text
         transform="translate(431.92,-228.84)"
         id="text127">23</text>
      <text
         transform="translate(398.68,-274.88)"
         id="text129">24</text>
      <text
         transform="translate(390.44,-277.08)"
         id="text131">25</text>
      <text
         transform="translate(373.32,-298.28)"
         id="text133">26</text>
      <text
         transform="translate(345.12,-322.36)"
         id="text135">27</text>
      <text
         transform="translate(338.52,-321.48)"
         id="text137">28</text>
      <text
         transform="translate(328.64,-338.84)"
         id="text139">29</text>
      <text
         transform="translate(320.6,-337)"
         id="text141">30</text>
      <text
         transform="translate(280.52,-345.12)"
         id="text143">31</text>
      <text
         transform="translate(268.12,-347.8)"
         id="text145">32</text>
      <text
         transform="translate(255.88,-348.84)"
         id="text147">33</text>
      <text
         transform="translate(250.32,-359.52)"
         id="text149">34</text>
      <text
         transform="translate(224.96,-359.28)"
         id="text151">35</text>
      <text
         transform="translate(208.64,-356.4)"
         id="text153">36</text>
      <text
         transform="translate(206.48,-434.8)"
         id="text155">37</text>
    </g>
    <g
       id="Stations"
       stroke="black"
       fill="none"
       stroke-width="0.05px">
      <circle
         id="canticle_for_migovec.38"
         cx="200.000"
         cy="-435.920"
         r="1.131" />
      <path
         d="M199.200 -436.720L200.800 -435.120M200.800 -436.720L199.200 -435.120"
         id="path159" />
      <circle
         id="circle161"
         cx="200.000"
         cy="-435.920"
         r="1.131" />
      <path
         d="M199.200 -436.720L200.800 -435.120M200.800 -436.720L199.200 -435.120"
         id="path163" />
      <circle
         id="canticle_for_migovec.1"
         cx="809.240"
         cy="-200.000"
         r="1.131" />
      <path
         d="M808.440 -200.800L810.040 -199.200M810.040 -200.800L808.440 -199.200"
         id="path166" />
      <circle
         id="canticle_for_migovec.2"
         cx="793.440"
         cy="-213.000"
         r="1.131" />
      <path
         d="M792.640 -213.800L794.240 -212.200M794.240 -213.800L792.640 -212.200"
         id="path169" />
      <circle
         id="canticle_for_migovec.3"
         cx="781.520"
         cy="-216.120"
         r="1.131" />
      <path
         d="M780.720 -216.920L782.320 -215.320M782.320 -216.920L780.720 -215.320"
         id="path172" />
      <circle
         id="canticle_for_migovec.4"
         cx="773.560"
         cy="-216.200"
         r="1.131" />
      <path
         d="M772.760 -217.000L774.360 -215.400M774.360 -217.000L772.760 -215.400"
         id="path175" />
      <circle
         id="canticle_for_migovec.5"
         cx="765.440"
         cy="-216.280"
         r="1.131" />
      <path
         d="M764.640 -217.080L766.240 -215.480M766.240 -217.080L764.640 -215.480"
         id="path178" />
      <circle
         id="canticle_for_migovec.6"
         cx="743.960"
         cy="-210.360"
         r="1.131" />
      <path
         d="M743.160 -211.160L744.760 -209.560M744.760 -211.160L743.160 -209.560"
         id="path181" />
      <circle
         id="canticle_for_migovec.7"
         cx="726.480"
         cy="-212.800"
         r="1.131" />
      <path
         d="M725.680 -213.600L727.280 -212.000M727.280 -213.600L725.680 -212.000"
         id="path184" />
      <circle
         id="canticle_for_migovec.8"
         cx="713.240"
         cy="-217.640"
         r="1.131" />
      <path
         d="M712.440 -218.440L714.040 -216.840M714.040 -218.440L712.440 -216.840"
         id="path187" />
      <circle
         id="canticle_for_migovec.9"
         cx="696.720"
         cy="-216.000"
         r="1.131" />
      <path
         d="M695.920 -216.800L697.520 -215.200M697.520 -216.800L695.920 -215.200"
         id="path190" />
      <circle
         id="canticle_for_migovec.10"
         cx="675.640"
         cy="-220.040"
         r="1.131" />
      <path
         d="M674.840 -220.840L676.440 -219.240M676.440 -220.840L674.840 -219.240"
         id="path193" />
      <circle
         id="canticle_for_migovec.11"
         cx="662.680"
         cy="-225.920"
         r="1.131" />
      <path
         d="M661.880 -226.720L663.480 -225.120M663.480 -226.720L661.880 -225.120"
         id="path196" />
      <circle
         id="canticle_for_migovec.12"
         cx="633.600"
         cy="-227.520"
         r="1.131" />
      <path
         d="M632.800 -228.320L634.400 -226.720M634.400 -228.320L632.800 -226.720"
         id="path199" />
      <circle
         id="canticle_for_migovec.13"
         cx="619.720"
         cy="-226.800"
         r="1.131" />
      <path
         d="M618.920 -227.600L620.520 -226.000M620.520 -227.600L618.920 -226.000"
         id="path202" />
      <circle
         id="canticle_for_migovec.14"
         cx="612.360"
         cy="-223.680"
         r="1.131" />
      <path
         d="M611.560 -224.480L613.160 -222.880M613.160 -224.480L611.560 -222.880"
         id="path205" />
      <circle
         id="canticle_for_migovec.15"
         cx="579.880"
         cy="-227.240"
         r="1.131" />
      <path
         d="M579.080 -228.040L580.680 -226.440M580.680 -228.040L579.080 -226.440"
         id="path208" />
      <circle
         id="canticle_for_migovec.16"
         cx="563.400"
         cy="-228.040"
         r="1.131" />
      <path
         d="M562.600 -228.840L564.200 -227.240M564.200 -228.840L562.600 -227.240"
         id="path211" />
      <circle
         id="canticle_for_migovec.17"
         cx="550.040"
         cy="-229.520"
         r="1.131" />
      <path
         d="M549.240 -230.320L550.840 -228.720M550.840 -230.320L549.240 -228.720"
         id="path214" />
      <circle
         id="canticle_for_migovec.18"
         cx="515.840"
         cy="-232.680"
         r="1.131" />
      <path
         d="M515.040 -233.480L516.640 -231.880M516.640 -233.480L515.040 -231.880"
         id="path217" />
      <circle
         id="canticle_for_migovec.19"
         cx="508.880"
         cy="-232.560"
         r="1.131" />
      <path
         d="M508.080 -233.360L509.680 -231.760M509.680 -233.360L508.080 -231.760"
         id="path220" />
      <circle
         id="canticle_for_migovec.20"
         cx="498.360"
         cy="-228.800"
         r="1.131" />
      <path
         d="M497.560 -229.600L499.160 -228.000M499.160 -229.600L497.560 -228.000"
         id="path223" />
      <circle
         id="canticle_for_migovec.21"
         cx="466.800"
         cy="-230.240"
         r="1.131" />
      <path
         d="M466.000 -231.040L467.600 -229.440M467.600 -231.040L466.000 -229.440"
         id="path226" />
      <circle
         id="canticle_for_migovec.22"
         cx="447.720"
         cy="-230.760"
         r="1.131" />
      <path
         d="M446.920 -231.560L448.520 -229.960M448.520 -231.560L446.920 -229.960"
         id="path229" />
      <circle
         id="canticle_for_migovec.23"
         cx="431.920"
         cy="-228.840"
         r="1.131" />
      <path
         d="M431.120 -229.640L432.720 -228.040M432.720 -229.640L431.120 -228.040"
         id="path232" />
      <circle
         id="canticle_for_migovec.24"
         cx="398.680"
         cy="-274.880"
         r="1.131" />
      <path
         d="M397.880 -275.680L399.480 -274.080M399.480 -275.680L397.880 -274.080"
         id="path235" />
      <circle
         id="canticle_for_migovec.25"
         cx="390.440"
         cy="-277.080"
         r="1.131" />
      <path
         d="M389.640 -277.880L391.240 -276.280M391.240 -277.880L389.640 -276.280"
         id="path238" />
      <circle
         id="canticle_for_migovec.26"
         cx="373.320"
         cy="-298.280"
         r="1.131" />
      <path
         d="M372.520 -299.080L374.120 -297.480M374.120 -299.080L372.520 -297.480"
         id="path241" />
      <circle
         id="canticle_for_migovec.27"
         cx="345.120"
         cy="-322.360"
         r="1.131" />
      <path
         d="M344.320 -323.160L345.920 -321.560M345.920 -323.160L344.320 -321.560"
         id="path244" />
      <circle
         id="canticle_for_migovec.28"
         cx="338.520"
         cy="-321.480"
         r="1.131" />
      <path
         d="M337.720 -322.280L339.320 -320.680M339.320 -322.280L337.720 -320.680"
         id="path247" />
      <circle
         id="canticle_for_migovec.29"
         cx="328.640"
         cy="-338.840"
         r="1.131" />
      <path
         d="M327.840 -339.640L329.440 -338.040M329.440 -339.640L327.840 -338.040"
         id="path250" />
      <circle
         id="canticle_for_migovec.30"
         cx="320.600"
         cy="-337.000"
         r="1.131" />
      <path
         d="M319.800 -337.800L321.400 -336.200M321.400 -337.800L319.800 -336.200"
         id="path253" />
      <circle
         id="canticle_for_migovec.31"
         cx="280.520"
         cy="-345.120"
         r="1.131" />
      <path
         d="M279.720 -345.920L281.320 -344.320M281.320 -345.920L279.720 -344.320"
         id="path256" />
      <circle
         id="canticle_for_migovec.32"
         cx="268.120"
         cy="-347.800"
         r="1.131" />
      <path
         d="M267.320 -348.600L268.920 -347.000M268.920 -348.600L267.320 -347.000"
         id="path259" />
      <circle
         id="canticle_for_migovec.33"
         cx="255.880"
         cy="-348.840"
         r="1.131" />
      <path
         d="M255.080 -349.640L256.680 -348.040M256.680 -349.640L255.080 -348.040"
         id="path262" />
      <circle
         id="canticle_for_migovec.34"
         cx="250.320"
         cy="-359.520"
         r="1.131" />
      <path
         d="M249.520 -360.320L251.120 -358.720M251.120 -360.320L249.520 -358.720"
         id="path265" />
      <circle
         id="canticle_for_migovec.35"
         cx="224.960"
         cy="-359.280"
         r="1.131" />
      <path
         d="M224.160 -360.080L225.760 -358.480M225.760 -360.080L224.160 -358.480"
         id="path268" />
      <circle
         id="canticle_for_migovec.36"
         cx="208.640"
         cy="-356.400"
         r="1.131" />
      <path
         d="M207.840 -357.200L209.440 -355.600M209.440 -357.200L207.840 -355.600"
         id="path271" />
      <circle
         id="canticle_for_migovec.37"
         cx="206.480"
         cy="-434.800"
         r="1.131" />
      <path
         d="M205.680 -435.600L207.280 -434.000M207.280 -435.600L205.680 -434.000"
         id="path274" />
    </g>
  </g>
</svg>
