<?xml version="1.0" encoding="ISO-8859-1"?>
<svg version="1.1" baseProfile="full"
xmlns="http://www.w3.org/2000/svg"
xmlns:xlink="http://www.w3.org/1999/xlink"
xmlns:ev="http://www.w3.org/2001/xml-events"
width="573.800mm" height="676.640mm"
viewBox="0 0 573.800 676.640">
<title>pivnica_resurvey</title>
<g transform="translate(5.000 671.640)">
<g id="Legs" stroke="black" fill="none" stroke-width="0.4px">
<path d="M236.520 -451.880L200.000 -466.640"/>
<path d="M236.520 -451.880L258.280 -443.080"/>
<path d="M258.280 -443.080L258.280 -429.400"/>
<path d="M258.280 -429.400L285.480 -430.360"/>
<path d="M285.480 -430.360L288.480 -424.720"/>
<path d="M288.480 -424.720L296.640 -413.920"/>
<path d="M296.640 -413.920L296.640 -354.280"/>
<path d="M296.640 -354.280L312.400 -354.560"/>
<path d="M312.400 -354.560L326.440 -358.040"/>
<path d="M326.440 -358.040L354.000 -296.080"/>
<path d="M354.000 -296.080L363.800 -285.160"/>
<path d="M363.800 -285.160L363.800 -200.000"/>
</g>
<g id="Labels" font-size="0.600em">
<text transform="translate(200.000 -466.640)">pivnica_resurvey.1</text>
<text transform="translate(200.000 -466.640)">buckwheat_resurvey.1</text>
<text transform="translate(236.520 -451.880)">pivnica_resurvey.2</text>
<text transform="translate(258.280 -443.080)">pivnica_resurvey.3</text>
<text transform="translate(258.280 -429.400)">pivnica_resurvey.4</text>
<text transform="translate(285.480 -430.360)">pivnica_resurvey.5</text>
<text transform="translate(288.480 -424.720)">pivnica_resurvey.6</text>
<text transform="translate(296.640 -413.920)">pivnica_resurvey.7</text>
<text transform="translate(296.640 -354.280)">pivnica_resurvey.8</text>
<text transform="translate(312.400 -354.560)">pivnica_resurvey.9</text>
<text transform="translate(326.440 -358.040)">pivnica_resurvey.10</text>
<text transform="translate(354.000 -296.080)">pivnica_resurvey.11</text>
<text transform="translate(363.800 -285.160)">pivnica_resurvey.12</text>
<text transform="translate(363.800 -200.000)">pivnica_resurvey.13</text>
</g>
<g id="Stations" stroke="black" fill="none" stroke-width="0.05px">
<circle id="pivnica_resurvey.1" cx="200.000" cy="-466.640" r="1.131"/>
<path d="M199.200 -467.440L200.800 -465.840M200.800 -467.440L199.200 -465.840"/>
<circle id="pivnica_resurvey.1" cx="200.000" cy="-466.640" r="1.131"/>
<path d="M199.200 -467.440L200.800 -465.840M200.800 -467.440L199.200 -465.840"/>
<circle id="pivnica_resurvey.2" cx="236.520" cy="-451.880" r="1.131"/>
<path d="M235.720 -452.680L237.320 -451.080M237.320 -452.680L235.720 -451.080"/>
<circle id="pivnica_resurvey.3" cx="258.280" cy="-443.080" r="1.131"/>
<path d="M257.480 -443.880L259.080 -442.280M259.080 -443.880L257.480 -442.280"/>
<circle id="pivnica_resurvey.4" cx="258.280" cy="-429.400" r="1.131"/>
<path d="M257.480 -430.200L259.080 -428.600M259.080 -430.200L257.480 -428.600"/>
<circle id="pivnica_resurvey.5" cx="285.480" cy="-430.360" r="1.131"/>
<path d="M284.680 -431.160L286.280 -429.560M286.280 -431.160L284.680 -429.560"/>
<circle id="pivnica_resurvey.6" cx="288.480" cy="-424.720" r="1.131"/>
<path d="M287.680 -425.520L289.280 -423.920M289.280 -425.520L287.680 -423.920"/>
<circle id="pivnica_resurvey.7" cx="296.640" cy="-413.920" r="1.131"/>
<path d="M295.840 -414.720L297.440 -413.120M297.440 -414.720L295.840 -413.120"/>
<circle id="pivnica_resurvey.8" cx="296.640" cy="-354.280" r="1.131"/>
<path d="M295.840 -355.080L297.440 -353.480M297.440 -355.080L295.840 -353.480"/>
<circle id="pivnica_resurvey.9" cx="312.400" cy="-354.560" r="1.131"/>
<path d="M311.600 -355.360L313.200 -353.760M313.200 -355.360L311.600 -353.760"/>
<circle id="pivnica_resurvey.10" cx="326.440" cy="-358.040" r="1.131"/>
<path d="M325.640 -358.840L327.240 -357.240M327.240 -358.840L325.640 -357.240"/>
<circle id="pivnica_resurvey.11" cx="354.000" cy="-296.080" r="1.131"/>
<path d="M353.200 -296.880L354.800 -295.280M354.800 -296.880L353.200 -295.280"/>
<circle id="pivnica_resurvey.12" cx="363.800" cy="-285.160" r="1.131"/>
<path d="M363.000 -285.960L364.600 -284.360M364.600 -285.960L363.000 -284.360"/>
<circle id="pivnica_resurvey.13" cx="363.800" cy="-200.000" r="1.131"/>
<path d="M363.000 -200.800L364.600 -199.200M364.600 -200.800L363.000 -199.200"/>
</g>
</g>
</svg>
