<?xml version="1.0" encoding="ISO-8859-1"?>
<svg version="1.1" baseProfile="full"
xmlns="http://www.w3.org/2000/svg"
xmlns:xlink="http://www.w3.org/1999/xlink"
xmlns:ev="http://www.w3.org/2001/xml-events"
width="1157.760mm" height="1024.120mm"
viewBox="0 0 1157.760 1024.120">
<title>prima1</title>
<g transform="translate(5.000 1019.120)">
<g id="Legs" stroke="black" fill="none" stroke-width="0.4px">
<path d="M215.720 -813.880L200.000 -814.120"/>
<path d="M315.720 -720.600L215.720 -813.880"/>
<path d="M337.000 -713.680L315.720 -720.600"/>
<path d="M357.920 -722.960L337.000 -713.680"/>
<path d="M375.680 -724.840L357.920 -722.960"/>
<path d="M392.200 -717.120L375.680 -724.840"/>
<path d="M404.040 -698.240L392.200 -717.120"/>
<path d="M416.280 -691.160L404.040 -698.240"/>
<path d="M423.480 -685.760L416.280 -691.160"/>
<path d="M429.800 -682.680L423.480 -685.760"/>
<path d="M439.960 -642.000L429.800 -682.680"/>
<path d="M475.160 -583.400L439.960 -642.000"/>
<path d="M510.120 -595.440L475.160 -583.400"/>
<path d="M519.520 -590.000L510.120 -595.440"/>
<path d="M538.080 -579.280L519.520 -590.000"/>
<path d="M556.760 -573.200L538.080 -579.280"/>
<path d="M574.920 -487.800L556.760 -573.200"/>
<path d="M584.840 -488.680L574.920 -487.800"/>
<path d="M609.960 -476.960L584.840 -488.680"/>
<path d="M614.720 -476.040L609.960 -476.960"/>
<path d="M625.520 -463.240L614.720 -476.040"/>
<path d="M656.480 -393.640L625.520 -463.240"/>
<path d="M676.200 -362.080L656.480 -393.640"/>
<path d="M713.920 -337.600L676.200 -362.080"/>
<path d="M754.960 -329.600L713.920 -337.600"/>
<path d="M773.840 -325.920L754.960 -329.600"/>
<path d="M798.080 -308.360L773.840 -325.920"/>
<path d="M816.320 -300.600L798.080 -308.360"/>
<path d="M828.080 -298.120L816.320 -300.600"/>
<path d="M840.640 -289.960L828.080 -298.120"/>
<path d="M851.200 -286.520L840.640 -289.960"/>
<path d="M867.760 -280.520L851.200 -286.520"/>
<path d="M879.040 -200.000L867.760 -280.520"/>
<path d="M925.120 -201.640L879.040 -200.000"/>
<path d="M947.760 -206.440L925.120 -201.640"/>
</g>
<g id="Labels" font-size="0.600em">
<text transform="translate(200.000 -814.120)">prima1.35</text>
<text transform="translate(947.760 -206.440)">prima1.1</text>
<text transform="translate(925.120 -201.640)">prima1.2</text>
<text transform="translate(879.040 -200.000)">prima1.3</text>
<text transform="translate(867.760 -280.520)">prima1.4</text>
<text transform="translate(851.200 -286.520)">prima1.5</text>
<text transform="translate(840.640 -289.960)">prima1.6</text>
<text transform="translate(828.080 -298.120)">prima1.7</text>
<text transform="translate(816.320 -300.600)">prima1.8</text>
<text transform="translate(798.080 -308.360)">prima1.9</text>
<text transform="translate(773.840 -325.920)">prima1.10</text>
<text transform="translate(754.960 -329.600)">prima1.11</text>
<text transform="translate(713.920 -337.600)">prima1.12</text>
<text transform="translate(676.200 -362.080)">prima1.13</text>
<text transform="translate(656.480 -393.640)">prima1.14</text>
<text transform="translate(625.520 -463.240)">prima1.15</text>
<text transform="translate(614.720 -476.040)">prima1.16</text>
<text transform="translate(609.960 -476.960)">prima1.17</text>
<text transform="translate(584.840 -488.680)">prima1.18</text>
<text transform="translate(574.920 -487.800)">prima1.19</text>
<text transform="translate(556.760 -573.200)">prima1.20</text>
<text transform="translate(538.080 -579.280)">prima1.21</text>
<text transform="translate(519.520 -590.000)">prima1.21b</text>
<text transform="translate(510.120 -595.440)">prima1.22</text>
<text transform="translate(475.160 -583.400)">prima1.23</text>
<text transform="translate(439.960 -642.000)">prima1.24</text>
<text transform="translate(429.800 -682.680)">prima1.25</text>
<text transform="translate(423.480 -685.760)">prima1.26</text>
<text transform="translate(416.280 -691.160)">prima1.27</text>
<text transform="translate(404.040 -698.240)">prima1.28</text>
<text transform="translate(392.200 -717.120)">prima1.29</text>
<text transform="translate(375.680 -724.840)">prima1.30</text>
<text transform="translate(357.920 -722.960)">prima1.31</text>
<text transform="translate(337.000 -713.680)">prima1.32</text>
<text transform="translate(315.720 -720.600)">prima1.33</text>
<text transform="translate(215.720 -813.880)">prima1.34</text>
</g>
<g id="Stations" stroke="black" fill="none" stroke-width="0.05px">
<circle id="prima1.35" cx="200.000" cy="-814.120" r="1.131"/>
<path d="M199.200 -814.920L200.800 -813.320M200.800 -814.920L199.200 -813.320"/>
<circle id="prima1.1" cx="947.760" cy="-206.440" r="1.131"/>
<path d="M946.960 -207.240L948.560 -205.640M948.560 -207.240L946.960 -205.640"/>
<circle id="prima1.2" cx="925.120" cy="-201.640" r="1.131"/>
<path d="M924.320 -202.440L925.920 -200.840M925.920 -202.440L924.320 -200.840"/>
<circle id="prima1.3" cx="879.040" cy="-200.000" r="1.131"/>
<path d="M878.240 -200.800L879.840 -199.200M879.840 -200.800L878.240 -199.200"/>
<circle id="prima1.4" cx="867.760" cy="-280.520" r="1.131"/>
<path d="M866.960 -281.320L868.560 -279.720M868.560 -281.320L866.960 -279.720"/>
<circle id="prima1.5" cx="851.200" cy="-286.520" r="1.131"/>
<path d="M850.400 -287.320L852.000 -285.720M852.000 -287.320L850.400 -285.720"/>
<circle id="prima1.6" cx="840.640" cy="-289.960" r="1.131"/>
<path d="M839.840 -290.760L841.440 -289.160M841.440 -290.760L839.840 -289.160"/>
<circle id="prima1.7" cx="828.080" cy="-298.120" r="1.131"/>
<path d="M827.280 -298.920L828.880 -297.320M828.880 -298.920L827.280 -297.320"/>
<circle id="prima1.8" cx="816.320" cy="-300.600" r="1.131"/>
<path d="M815.520 -301.400L817.120 -299.800M817.120 -301.400L815.520 -299.800"/>
<circle id="prima1.9" cx="798.080" cy="-308.360" r="1.131"/>
<path d="M797.280 -309.160L798.880 -307.560M798.880 -309.160L797.280 -307.560"/>
<circle id="prima1.10" cx="773.840" cy="-325.920" r="1.131"/>
<path d="M773.040 -326.720L774.640 -325.120M774.640 -326.720L773.040 -325.120"/>
<circle id="prima1.11" cx="754.960" cy="-329.600" r="1.131"/>
<path d="M754.160 -330.400L755.760 -328.800M755.760 -330.400L754.160 -328.800"/>
<circle id="prima1.12" cx="713.920" cy="-337.600" r="1.131"/>
<path d="M713.120 -338.400L714.720 -336.800M714.720 -338.400L713.120 -336.800"/>
<circle id="prima1.13" cx="676.200" cy="-362.080" r="1.131"/>
<path d="M675.400 -362.880L677.000 -361.280M677.000 -362.880L675.400 -361.280"/>
<circle id="prima1.14" cx="656.480" cy="-393.640" r="1.131"/>
<path d="M655.680 -394.440L657.280 -392.840M657.280 -394.440L655.680 -392.840"/>
<circle id="prima1.15" cx="625.520" cy="-463.240" r="1.131"/>
<path d="M624.720 -464.040L626.320 -462.440M626.320 -464.040L624.720 -462.440"/>
<circle id="prima1.16" cx="614.720" cy="-476.040" r="1.131"/>
<path d="M613.920 -476.840L615.520 -475.240M615.520 -476.840L613.920 -475.240"/>
<circle id="prima1.17" cx="609.960" cy="-476.960" r="1.131"/>
<path d="M609.160 -477.760L610.760 -476.160M610.760 -477.760L609.160 -476.160"/>
<circle id="prima1.18" cx="584.840" cy="-488.680" r="1.131"/>
<path d="M584.040 -489.480L585.640 -487.880M585.640 -489.480L584.040 -487.880"/>
<circle id="prima1.19" cx="574.920" cy="-487.800" r="1.131"/>
<path d="M574.120 -488.600L575.720 -487.000M575.720 -488.600L574.120 -487.000"/>
<circle id="prima1.20" cx="556.760" cy="-573.200" r="1.131"/>
<path d="M555.960 -574.000L557.560 -572.400M557.560 -574.000L555.960 -572.400"/>
<circle id="prima1.21" cx="538.080" cy="-579.280" r="1.131"/>
<path d="M537.280 -580.080L538.880 -578.480M538.880 -580.080L537.280 -578.480"/>
<circle id="prima1.21b" cx="519.520" cy="-590.000" r="1.131"/>
<path d="M518.720 -590.800L520.320 -589.200M520.320 -590.800L518.720 -589.200"/>
<circle id="prima1.22" cx="510.120" cy="-595.440" r="1.131"/>
<path d="M509.320 -596.240L510.920 -594.640M510.920 -596.240L509.320 -594.640"/>
<circle id="prima1.23" cx="475.160" cy="-583.400" r="1.131"/>
<path d="M474.360 -584.200L475.960 -582.600M475.960 -584.200L474.360 -582.600"/>
<circle id="prima1.24" cx="439.960" cy="-642.000" r="1.131"/>
<path d="M439.160 -642.800L440.760 -641.200M440.760 -642.800L439.160 -641.200"/>
<circle id="prima1.25" cx="429.800" cy="-682.680" r="1.131"/>
<path d="M429.000 -683.480L430.600 -681.880M430.600 -683.480L429.000 -681.880"/>
<circle id="prima1.26" cx="423.480" cy="-685.760" r="1.131"/>
<path d="M422.680 -686.560L424.280 -684.960M424.280 -686.560L422.680 -684.960"/>
<circle id="prima1.27" cx="416.280" cy="-691.160" r="1.131"/>
<path d="M415.480 -691.960L417.080 -690.360M417.080 -691.960L415.480 -690.360"/>
<circle id="prima1.28" cx="404.040" cy="-698.240" r="1.131"/>
<path d="M403.240 -699.040L404.840 -697.440M404.840 -699.040L403.240 -697.440"/>
<circle id="prima1.29" cx="392.200" cy="-717.120" r="1.131"/>
<path d="M391.400 -717.920L393.000 -716.320M393.000 -717.920L391.400 -716.320"/>
<circle id="prima1.30" cx="375.680" cy="-724.840" r="1.131"/>
<path d="M374.880 -725.640L376.480 -724.040M376.480 -725.640L374.880 -724.040"/>
<circle id="prima1.31" cx="357.920" cy="-722.960" r="1.131"/>
<path d="M357.120 -723.760L358.720 -722.160M358.720 -723.760L357.120 -722.160"/>
<circle id="prima1.32" cx="337.000" cy="-713.680" r="1.131"/>
<path d="M336.200 -714.480L337.800 -712.880M337.800 -714.480L336.200 -712.880"/>
<circle id="prima1.33" cx="315.720" cy="-720.600" r="1.131"/>
<path d="M314.920 -721.400L316.520 -719.800M316.520 -721.400L314.920 -719.800"/>
<circle id="prima1.34" cx="215.720" cy="-813.880" r="1.131"/>
<path d="M214.920 -814.680L216.520 -813.080M216.520 -814.680L214.920 -813.080"/>
</g>
</g>
</svg>
