0
SECTION
2
HEADER
9
$EXTMIN
10
0.000000
20
0.000000
30
0.000000
9
$EXTMAX
10
188.060000
20
136.840000
30
51.870000
9
$PDMODE
70
3
9
$PDSIZE
40
  0.80
0
ENDSEC
0
SECTION
2
TABLES
0
TABLE
2
LTYPE
70
10
0
LTYPE
2
CONTINUOUS
70
64
3
Continuous
72
65
73
0
40
0.0
0
LTYPE
2
DASHED
70
64
3
Dashed
72
65
73
2
40
2.5
49
1.25
49
-1.25
0
ENDTAB
0
TABLE
2
LAYER
70
10
0
LAYER
2
CentreLine
70
64
62
5
6
CONTINUOUS
0
LAYER
2
Stations
70
64
62
7
6
CONTINUOUS
0
LAYER
2
Labels
70
64
62
7
6
CONTINUOUS
0
LAYER
2
Surface
70
64
62
5
6
DASHED
0
LAYER
2
SurfaceStations
70
64
62
7
6
CONTINUOUS
0
LAYER
2
SurfaceLabels
70
64
62
7
6
CONTINUOUS
0
LAYER
2
Grid
70
64
62
7
6
CONTINUOUS
0
ENDTAB
0
ENDSEC
0
SECTION
2
ENTITIES
0
LINE
8
Grid
10
100.00
20
  0.00
30
0
11
100.00
21
136.84
31
0
0
LINE
8
Grid
10
  0.00
20
100.00
30
0
11
188.06
21
100.00
31
0
0
LINE
8
CentreLine
10
127.24
20
 86.84
30
 39.51
11
131.85
21
 81.35
31
 46.19
0
LINE
8
CentreLine
10
131.85
20
 81.35
30
 46.19
11
138.06
21
 76.14
31
 51.87
0
LINE
8
CentreLine
10
138.06
20
 76.14
30
 51.87
11
137.80
21
 68.74
31
 51.87
0
LINE
8
CentreLine
10
137.80
20
 68.74
30
 51.87
11
137.80
21
 68.74
31
 15.57
0
LINE
8
CentreLine
10
137.80
20
 68.74
30
 15.57
11
134.80
21
 67.65
31
  9.57
0
LINE
8
CentreLine
10
134.80
20
 67.65
30
  9.57
11
129.81
21
 69.98
31
  4.78
0
LINE
8
CentreLine
10
129.81
20
 69.98
30
  4.78
11
126.47
21
 68.76
31
  4.22
0
LINE
8
CentreLine
10
126.47
20
 68.76
30
  4.22
11
121.05
21
 70.73
31
  2.56
0
LINE
8
CentreLine
10
121.05
20
 70.73
30
  2.56
11
113.57
21
 71.39
31
  1.37
0
LINE
8
CentreLine
10
113.57
20
 71.39
30
  1.37
11
109.42
21
 70.28
31
  1.52
0
LINE
8
CentreLine
10
109.42
20
 70.28
30
  1.52
11
110.66
21
 64.42
31
  1.94
0
LINE
8
CentreLine
10
110.66
20
 64.42
30
  1.94
11
111.48
21
 62.58
31
  2.52
0
LINE
8
CentreLine
10
111.48
20
 62.58
30
  2.52
11
108.40
21
 62.25
31
  2.63
0
LINE
8
CentreLine
10
108.40
20
 62.25
30
  2.63
11
106.60
21
 61.67
31
  1.98
0
LINE
8
CentreLine
10
106.60
20
 61.67
30
  1.98
11
102.29
21
 60.99
31
  1.44
0
LINE
8
CentreLine
10
102.29
20
 60.99
30
  1.44
11
103.66
21
 58.71
31
  0.97
0
LINE
8
CentreLine
10
103.66
20
 58.71
30
  0.97
11
 98.60
21
 56.56
31
  1.16
0
LINE
8
CentreLine
10
 98.60
20
 56.56
30
  1.16
11
 95.08
21
 57.70
31
  0.31
0
LINE
8
CentreLine
10
 95.08
20
 57.70
30
  0.31
11
 92.22
21
 57.25
31
  0.46
0
LINE
8
CentreLine
10
 92.22
20
 57.25
30
  0.46
11
 92.29
21
 53.20
31
  2.18
0
LINE
8
CentreLine
10
 92.29
20
 53.20
30
  2.18
11
 88.74
21
 50.00
31
  2.60
0
LINE
8
CentreLine
10
 88.74
20
 50.00
30
  2.60
11
 82.24
21
 50.23
31
  2.49
0
LINE
8
CentreLine
10
 82.24
20
 50.23
30
  2.49
11
 77.89
21
 58.42
31
  0.00
0
LINE
8
CentreLine
10
 77.89
20
 58.42
30
  0.00
11
 74.43
21
 58.90
31
  0.31
0
LINE
8
CentreLine
10
 74.43
20
 58.90
30
  0.31
11
 72.74
21
 60.27
31
  0.04
0
LINE
8
CentreLine
10
 72.74
20
 60.27
30
  0.04
11
 68.68
21
 60.92
31
  1.87
0
LINE
8
CentreLine
10
 68.68
20
 60.92
30
  1.87
11
 66.98
21
 58.96
31
 11.53
0
LINE
8
CentreLine
10
 66.98
20
 58.96
30
 11.53
11
 64.48
21
 61.46
31
  7.99
0
LINE
8
CentreLine
10
 64.48
20
 61.46
30
  7.99
11
 61.34
21
 65.21
31
  6.95
0
LINE
8
CentreLine
10
 61.34
20
 65.21
30
  6.95
11
 58.61
21
 66.15
31
  8.55
0
LINE
8
CentreLine
10
 58.61
20
 66.15
30
  8.55
11
 50.00
21
 70.16
31
 33.29
000
ENDSEC
000
EOF
