<?xml version="1.0" encoding="UTF-8" standalone="no"?>
<svg
   xmlns:dc="http://purl.org/dc/elements/1.1/"
   xmlns:cc="http://creativecommons.org/ns#"
   xmlns:rdf="http://www.w3.org/1999/02/22-rdf-syntax-ns#"
   xmlns:svg="http://www.w3.org/2000/svg"
   xmlns="http://www.w3.org/2000/svg"
   xmlns:sodipodi="http://sodipodi.sourceforge.net/DTD/sodipodi-0.dtd"
   xmlns:inkscape="http://www.inkscape.org/namespaces/inkscape"
   version="1.1"
   width="979.640mm"
   height="617.480mm"
   viewBox="0 0 979.640 617.480"
   id="svg231"
   sodipodi:docname="monatip5_extend.svg"
   inkscape:version="0.92.2 5c3e80d, 2017-08-06">
  <metadata
     id="metadata237">
    <rdf:RDF>
      <cc:Work
         rdf:about="">
        <dc:format>image/svg+xml</dc:format>
        <dc:type
           rdf:resource="http://purl.org/dc/dcmitype/StillImage" />
      </cc:Work>
    </rdf:RDF>
  </metadata>
  <defs
     id="defs235" />
  <sodipodi:namedview
     pagecolor="#ffffff"
     bordercolor="#666666"
     borderopacity="1"
     objecttolerance="10"
     gridtolerance="10"
     guidetolerance="10"
     inkscape:pageopacity="0"
     inkscape:pageshadow="2"
     inkscape:window-width="1394"
     inkscape:window-height="767"
     id="namedview233"
     showgrid="false"
     inkscape:zoom="0.99002454"
     inkscape:cx="1019.5573"
     inkscape:cy="1453.522"
     inkscape:window-x="0"
     inkscape:window-y="0"
     inkscape:window-maximized="0"
     inkscape:current-layer="svg231" />
  <title
     id="title2">monatip5</title>
  <g
     id="g2822">
    <path
       inkscape:connector-curvature="0"
       id="path4"
       d="m 243,239.2 -38,98.96"
       style="fill:none;stroke:#000000;stroke-width:0.40000001px" />
    <path
       inkscape:connector-curvature="0"
       id="path6"
       d="M 254.56,232.8 243,239.2"
       style="fill:none;stroke:#000000;stroke-width:0.40000001px" />
    <path
       inkscape:connector-curvature="0"
       id="path8"
       d="M 274.12,236.96 254.56,232.8"
       style="fill:none;stroke:#000000;stroke-width:0.40000001px" />
    <path
       inkscape:connector-curvature="0"
       id="path10"
       d="M 288.24,251.12 274.12,236.96"
       style="fill:none;stroke:#000000;stroke-width:0.40000001px" />
    <path
       inkscape:connector-curvature="0"
       id="path12"
       d="m 298.64,212.48 -10.4,38.64"
       style="fill:none;stroke:#000000;stroke-width:0.40000001px" />
    <path
       inkscape:connector-curvature="0"
       id="path14"
       d="m 315.08,205.16 -16.44,7.32"
       style="fill:none;stroke:#000000;stroke-width:0.40000001px" />
    <path
       inkscape:connector-curvature="0"
       id="path16"
       d="m 323.76,206.24 -8.68,-1.08"
       style="fill:none;stroke:#000000;stroke-width:0.40000001px" />
    <path
       inkscape:connector-curvature="0"
       id="path18"
       d="m 337.76,205 -14,1.24"
       style="fill:none;stroke:#000000;stroke-width:0.40000001px" />
    <path
       inkscape:connector-curvature="0"
       id="path20"
       d="M 374.84,214.96 337.76,205"
       style="fill:none;stroke:#000000;stroke-width:0.40000001px" />
    <path
       inkscape:connector-curvature="0"
       id="path22"
       d="m 400.84,215.4 -26,-0.44"
       style="fill:none;stroke:#000000;stroke-width:0.40000001px" />
    <path
       inkscape:connector-curvature="0"
       id="path24"
       d="m 419.96,213.72 -19.12,1.68"
       style="fill:none;stroke:#000000;stroke-width:0.40000001px" />
    <path
       inkscape:connector-curvature="0"
       id="path26"
       d="m 436.16,206.84 -16.2,6.88"
       style="fill:none;stroke:#000000;stroke-width:0.40000001px" />
    <path
       inkscape:connector-curvature="0"
       id="path28"
       d="m 447.76,206.24 -11.6,0.6"
       style="fill:none;stroke:#000000;stroke-width:0.40000001px" />
    <path
       inkscape:connector-curvature="0"
       id="path30"
       d="m 462.56,209.64 -14.8,-3.4"
       style="fill:none;stroke:#000000;stroke-width:0.40000001px" />
    <path
       inkscape:connector-curvature="0"
       id="path32"
       d="m 484.56,208.88 -22,0.76"
       style="fill:none;stroke:#000000;stroke-width:0.40000001px" />
    <path
       inkscape:connector-curvature="0"
       id="path34"
       d="m 495.2,210.76 -10.64,-1.88"
       style="fill:none;stroke:#000000;stroke-width:0.40000001px" />
    <path
       inkscape:connector-curvature="0"
       id="path36"
       d="M 512.64,212.92 495.2,210.76"
       style="fill:none;stroke:#000000;stroke-width:0.40000001px" />
    <path
       inkscape:connector-curvature="0"
       id="path38"
       d="m 520.2,215.52 -7.56,-2.6"
       style="fill:none;stroke:#000000;stroke-width:0.40000001px" />
    <path
       inkscape:connector-curvature="0"
       id="path40"
       d="m 532.6,215.08 -12.4,0.44"
       style="fill:none;stroke:#000000;stroke-width:0.40000001px" />
    <path
       inkscape:connector-curvature="0"
       id="path42"
       d="m 540.64,212.76 -8.04,2.32"
       style="fill:none;stroke:#000000;stroke-width:0.40000001px" />
    <path
       inkscape:connector-curvature="0"
       id="path44"
       d="m 564.6,211.08 -23.96,1.68"
       style="fill:none;stroke:#000000;stroke-width:0.40000001px" />
    <path
       inkscape:connector-curvature="0"
       id="path46"
       d="m 581.8,210.48 -17.2,0.6"
       style="fill:none;stroke:#000000;stroke-width:0.40000001px" />
    <path
       inkscape:connector-curvature="0"
       id="path48"
       d="M 611.84,215.24 581.8,210.48"
       style="fill:none;stroke:#000000;stroke-width:0.40000001px" />
    <path
       inkscape:connector-curvature="0"
       id="path50"
       d="m 634.92,221.88 -23.08,-6.64"
       style="fill:none;stroke:#000000;stroke-width:0.40000001px" />
    <path
       inkscape:connector-curvature="0"
       id="path52"
       d="m 649.12,224.12 -14.2,-2.24"
       style="fill:none;stroke:#000000;stroke-width:0.40000001px" />
    <path
       inkscape:connector-curvature="0"
       id="path54"
       d="M 671.16,243.28 649.12,224.12"
       style="fill:none;stroke:#000000;stroke-width:0.40000001px" />
    <path
       inkscape:connector-curvature="0"
       id="path56"
       d="m 683.92,267.28 -12.76,-24"
       style="fill:none;stroke:#000000;stroke-width:0.40000001px" />
    <path
       inkscape:connector-curvature="0"
       id="path58"
       d="M 683.92,412.48 V 267.28"
       style="fill:none;stroke:#000000;stroke-width:0.40000001px" />
    <path
       inkscape:connector-curvature="0"
       id="path60"
       d="m 713.52,412.48 h -29.6"
       style="fill:none;stroke:#000000;stroke-width:0.40000001px" />
    <path
       inkscape:connector-curvature="0"
       id="path62"
       d="m 745.96,389.76 -32.44,22.72"
       style="fill:none;stroke:#000000;stroke-width:0.40000001px" />
    <path
       inkscape:connector-curvature="0"
       id="path64"
       d="m 774.64,363.04 -28.68,26.72"
       style="fill:none;stroke:#000000;stroke-width:0.40000001px" />
    <text
       y="243.28"
       x="671.15997"
       id="text67"
       style="font-size:3.52777767px">1</text>
    <text
       y="224.12"
       x="649.12"
       id="text69"
       style="font-size:3.52777767px">2</text>
    <text
       y="221.88"
       x="634.91998"
       id="text71"
       style="font-size:3.52777767px">3</text>
    <text
       y="215.24001"
       x="611.84003"
       id="text73"
       style="font-size:3.52777767px">4</text>
    <text
       y="210.48"
       x="581.79999"
       id="text75"
       style="font-size:3.52777767px">5</text>
    <text
       y="211.08"
       x="564.59998"
       id="text77"
       style="font-size:3.52777767px">6</text>
    <text
       y="212.75999"
       x="540.64001"
       id="text79"
       style="font-size:3.52777767px">7</text>
    <text
       y="215.08"
       x="532.59998"
       id="text81"
       style="font-size:3.52777767px">8</text>
    <text
       y="215.52"
       x="520.20001"
       id="text83"
       style="font-size:3.52777767px">9</text>
    <text
       y="212.92"
       x="512.64001"
       id="text85"
       style="font-size:3.52777767px">10</text>
    <text
       y="210.75999"
       x="495.20001"
       id="text87"
       style="font-size:3.52777767px">11</text>
    <text
       y="208.88"
       x="484.56"
       id="text89"
       style="font-size:3.52777767px">12</text>
    <text
       y="209.64"
       x="462.56"
       id="text91"
       style="font-size:3.52777767px">13</text>
    <text
       y="206.24001"
       x="447.76001"
       id="text93"
       style="font-size:3.52777767px">14</text>
    <text
       y="206.84"
       x="436.16"
       id="text95"
       style="font-size:3.52777767px">15</text>
    <text
       y="213.72"
       x="419.95999"
       id="text97"
       style="font-size:3.52777767px">16</text>
    <text
       y="215.39999"
       x="400.84"
       id="text99"
       style="font-size:3.52777767px">17</text>
    <text
       y="214.96001"
       x="374.84"
       id="text101"
       style="font-size:3.52777767px">18</text>
    <text
       y="205"
       x="337.76001"
       id="text103"
       style="font-size:3.52777767px">19</text>
    <text
       y="206.24001"
       x="323.76001"
       id="text105"
       style="font-size:3.52777767px">20</text>
    <text
       y="205.16"
       x="315.07999"
       id="text107"
       style="font-size:3.52777767px">21</text>
    <text
       y="212.48"
       x="298.64001"
       id="text109"
       style="font-size:3.52777767px">22</text>
    <text
       y="251.12"
       x="288.23999"
       id="text111"
       style="font-size:3.52777767px">23</text>
    <text
       y="236.96001"
       x="274.12"
       id="text113"
       style="font-size:3.52777767px">24</text>
    <text
       y="232.8"
       x="254.56"
       id="text115"
       style="font-size:3.52777767px">25</text>
    <text
       y="239.2"
       x="243"
       id="text117"
       style="font-size:3.52777767px">26</text>
    <text
       y="338.16"
       x="205"
       id="text119"
       style="font-size:3.52777767px">27</text>
    <text
       y="363.04001"
       x="774.64001"
       id="text121"
       style="font-size:3.52777767px">101</text>
    <text
       y="389.76001"
       x="745.96002"
       id="text123"
       style="font-size:3.52777767px">102</text>
    <text
       y="412.48001"
       x="713.52002"
       id="text125"
       style="font-size:3.52777767px">103</text>
    <text
       y="412.48001"
       x="683.91998"
       id="text127"
       style="font-size:3.52777767px">104</text>
    <text
       y="267.28"
       x="683.91998"
       id="text129"
       style="font-size:3.52777767px">105</text>
    <circle
       r="1.131"
       cy="243.27998"
       cx="671.15997"
       id="monatip5.1"
       style="fill:none;stroke:#000000;stroke-width:0.05px" />
    <path
       inkscape:connector-curvature="0"
       id="path133"
       d="m 670.36,242.48 1.6,1.6 m 0,-1.6 -1.6,1.6"
       style="fill:none;stroke:#000000;stroke-width:0.05px" />
    <circle
       r="1.131"
       cy="224.12001"
       cx="649.12"
       id="monatip5.2"
       style="fill:none;stroke:#000000;stroke-width:0.05px" />
    <path
       inkscape:connector-curvature="0"
       id="path136"
       d="m 648.32,223.32 1.6,1.6 m 0,-1.6 -1.6,1.6"
       style="fill:none;stroke:#000000;stroke-width:0.05px" />
    <circle
       r="1.131"
       cy="221.87999"
       cx="634.91998"
       id="monatip5.3"
       style="fill:none;stroke:#000000;stroke-width:0.05px" />
    <path
       inkscape:connector-curvature="0"
       id="path139"
       d="m 634.12,221.08 1.6,1.6 m 0,-1.6 -1.6,1.6"
       style="fill:none;stroke:#000000;stroke-width:0.05px" />
    <circle
       r="1.131"
       cy="215.24001"
       cx="611.84003"
       id="monatip5.4"
       style="fill:none;stroke:#000000;stroke-width:0.05px" />
    <path
       inkscape:connector-curvature="0"
       id="path142"
       d="m 611.04,214.44 1.6,1.6 m 0,-1.6 -1.6,1.6"
       style="fill:none;stroke:#000000;stroke-width:0.05px" />
    <circle
       r="1.131"
       cy="210.48"
       cx="581.79999"
       id="monatip5.5"
       style="fill:none;stroke:#000000;stroke-width:0.05px" />
    <path
       inkscape:connector-curvature="0"
       id="path145"
       d="m 581,209.68 1.6,1.6 m 0,-1.6 -1.6,1.6"
       style="fill:none;stroke:#000000;stroke-width:0.05px" />
    <circle
       r="1.131"
       cy="211.08"
       cx="564.59998"
       id="monatip5.6"
       style="fill:none;stroke:#000000;stroke-width:0.05px" />
    <path
       inkscape:connector-curvature="0"
       id="path148"
       d="m 563.8,210.28 1.6,1.6 m 0,-1.6 -1.6,1.6"
       style="fill:none;stroke:#000000;stroke-width:0.05px" />
    <circle
       r="1.131"
       cy="212.75999"
       cx="540.64001"
       id="monatip5.7"
       style="fill:none;stroke:#000000;stroke-width:0.05px" />
    <path
       inkscape:connector-curvature="0"
       id="path151"
       d="m 539.84,211.96 1.6,1.6 m 0,-1.6 -1.6,1.6"
       style="fill:none;stroke:#000000;stroke-width:0.05px" />
    <circle
       r="1.131"
       cy="215.08"
       cx="532.59998"
       id="monatip5.8"
       style="fill:none;stroke:#000000;stroke-width:0.05px" />
    <path
       inkscape:connector-curvature="0"
       id="path154"
       d="m 531.8,214.28 1.6,1.6 m 0,-1.6 -1.6,1.6"
       style="fill:none;stroke:#000000;stroke-width:0.05px" />
    <circle
       r="1.131"
       cy="215.52"
       cx="520.20001"
       id="monatip5.9"
       style="fill:none;stroke:#000000;stroke-width:0.05px" />
    <path
       inkscape:connector-curvature="0"
       id="path157"
       d="m 519.4,214.72 1.6,1.6 m 0,-1.6 -1.6,1.6"
       style="fill:none;stroke:#000000;stroke-width:0.05px" />
    <circle
       r="1.131"
       cy="212.92"
       cx="512.64001"
       id="monatip5.10"
       style="fill:none;stroke:#000000;stroke-width:0.05px" />
    <path
       inkscape:connector-curvature="0"
       id="path160"
       d="m 511.84,212.12 1.6,1.6 m 0,-1.6 -1.6,1.6"
       style="fill:none;stroke:#000000;stroke-width:0.05px" />
    <circle
       r="1.131"
       cy="210.75999"
       cx="495.20001"
       id="monatip5.11"
       style="fill:none;stroke:#000000;stroke-width:0.05px" />
    <path
       inkscape:connector-curvature="0"
       id="path163"
       d="m 494.4,209.96 1.6,1.6 m 0,-1.6 -1.6,1.6"
       style="fill:none;stroke:#000000;stroke-width:0.05px" />
    <circle
       r="1.131"
       cy="208.87999"
       cx="484.56"
       id="monatip5.12"
       style="fill:none;stroke:#000000;stroke-width:0.05px" />
    <path
       inkscape:connector-curvature="0"
       id="path166"
       d="m 483.76,208.08 1.6,1.6 m 0,-1.6 -1.6,1.6"
       style="fill:none;stroke:#000000;stroke-width:0.05px" />
    <circle
       r="1.131"
       cy="209.64"
       cx="462.56"
       id="monatip5.13"
       style="fill:none;stroke:#000000;stroke-width:0.05px" />
    <path
       inkscape:connector-curvature="0"
       id="path169"
       d="m 461.76,208.84 1.6,1.6 m 0,-1.6 -1.6,1.6"
       style="fill:none;stroke:#000000;stroke-width:0.05px" />
    <circle
       r="1.131"
       cy="206.24001"
       cx="447.76001"
       id="monatip5.14"
       style="fill:none;stroke:#000000;stroke-width:0.05px" />
    <path
       inkscape:connector-curvature="0"
       id="path172"
       d="m 446.96,205.44 1.6,1.6 m 0,-1.6 -1.6,1.6"
       style="fill:none;stroke:#000000;stroke-width:0.05px" />
    <circle
       r="1.131"
       cy="206.83998"
       cx="436.16"
       id="monatip5.15"
       style="fill:none;stroke:#000000;stroke-width:0.05px" />
    <path
       inkscape:connector-curvature="0"
       id="path175"
       d="m 435.36,206.04 1.6,1.6 m 0,-1.6 -1.6,1.6"
       style="fill:none;stroke:#000000;stroke-width:0.05px" />
    <circle
       r="1.131"
       cy="213.71999"
       cx="419.95999"
       id="monatip5.16"
       style="fill:none;stroke:#000000;stroke-width:0.05px" />
    <path
       inkscape:connector-curvature="0"
       id="path178"
       d="m 419.16,212.92 1.6,1.6 m 0,-1.6 -1.6,1.6"
       style="fill:none;stroke:#000000;stroke-width:0.05px" />
    <circle
       r="1.131"
       cy="215.40001"
       cx="400.84"
       id="monatip5.17"
       style="fill:none;stroke:#000000;stroke-width:0.05px" />
    <path
       inkscape:connector-curvature="0"
       id="path181"
       d="m 400.04,214.6 1.6,1.6 m 0,-1.6 -1.6,1.6"
       style="fill:none;stroke:#000000;stroke-width:0.05px" />
    <circle
       r="1.131"
       cy="214.96001"
       cx="374.84"
       id="monatip5.18"
       style="fill:none;stroke:#000000;stroke-width:0.05px" />
    <path
       inkscape:connector-curvature="0"
       id="path184"
       d="m 374.04,214.16 1.6,1.6 m 0,-1.6 -1.6,1.6"
       style="fill:none;stroke:#000000;stroke-width:0.05px" />
    <circle
       r="1.131"
       cy="204.99998"
       cx="337.76001"
       id="monatip5.19"
       style="fill:none;stroke:#000000;stroke-width:0.05px" />
    <path
       inkscape:connector-curvature="0"
       id="path187"
       d="m 336.96,204.2 1.6,1.6 m 0,-1.6 -1.6,1.6"
       style="fill:none;stroke:#000000;stroke-width:0.05px" />
    <circle
       r="1.131"
       cy="206.24001"
       cx="323.76001"
       id="monatip5.20"
       style="fill:none;stroke:#000000;stroke-width:0.05px" />
    <path
       inkscape:connector-curvature="0"
       id="path190"
       d="m 322.96,205.44 1.6,1.6 m 0,-1.6 -1.6,1.6"
       style="fill:none;stroke:#000000;stroke-width:0.05px" />
    <circle
       r="1.131"
       cy="205.15999"
       cx="315.07999"
       id="monatip5.21"
       style="fill:none;stroke:#000000;stroke-width:0.05px" />
    <path
       inkscape:connector-curvature="0"
       id="path193"
       d="m 314.28,204.36 1.6,1.6 m 0,-1.6 -1.6,1.6"
       style="fill:none;stroke:#000000;stroke-width:0.05px" />
    <circle
       r="1.131"
       cy="212.48"
       cx="298.64001"
       id="monatip5.22"
       style="fill:none;stroke:#000000;stroke-width:0.05px" />
    <path
       inkscape:connector-curvature="0"
       id="path196"
       d="m 297.84,211.68 1.6,1.6 m 0,-1.6 -1.6,1.6"
       style="fill:none;stroke:#000000;stroke-width:0.05px" />
    <circle
       r="1.131"
       cy="251.12001"
       cx="288.23999"
       id="monatip5.23"
       style="fill:none;stroke:#000000;stroke-width:0.05px" />
    <path
       inkscape:connector-curvature="0"
       id="path199"
       d="m 287.44,250.32 1.6,1.6 m 0,-1.6 -1.6,1.6"
       style="fill:none;stroke:#000000;stroke-width:0.05px" />
    <circle
       r="1.131"
       cy="236.96001"
       cx="274.12"
       id="monatip5.24"
       style="fill:none;stroke:#000000;stroke-width:0.05px" />
    <path
       inkscape:connector-curvature="0"
       id="path202"
       d="m 273.32,236.16 1.6,1.6 m 0,-1.6 -1.6,1.6"
       style="fill:none;stroke:#000000;stroke-width:0.05px" />
    <circle
       r="1.131"
       cy="232.8"
       cx="254.56"
       id="monatip5.25"
       style="fill:none;stroke:#000000;stroke-width:0.05px" />
    <path
       inkscape:connector-curvature="0"
       id="path205"
       d="m 253.76,232 1.6,1.6 m 0,-1.6 -1.6,1.6"
       style="fill:none;stroke:#000000;stroke-width:0.05px" />
    <circle
       r="1.131"
       cy="239.2"
       cx="243"
       id="monatip5.26"
       style="fill:none;stroke:#000000;stroke-width:0.05px" />
    <path
       inkscape:connector-curvature="0"
       id="path208"
       d="m 242.2,238.4 1.6,1.6 m 0,-1.6 -1.6,1.6"
       style="fill:none;stroke:#000000;stroke-width:0.05px" />
    <circle
       r="1.131"
       cy="338.16"
       cx="205"
       id="monatip5.27"
       style="fill:none;stroke:#000000;stroke-width:0.05px" />
    <path
       inkscape:connector-curvature="0"
       id="path211"
       d="m 204.2,337.36 1.6,1.6 m 0,-1.6 -1.6,1.6"
       style="fill:none;stroke:#000000;stroke-width:0.05px" />
    <circle
       r="1.131"
       cy="363.04001"
       cx="774.64001"
       id="monatip5.101"
       style="fill:none;stroke:#000000;stroke-width:0.05px" />
    <path
       inkscape:connector-curvature="0"
       id="path214"
       d="m 773.84,362.24 1.6,1.6 m 0,-1.6 -1.6,1.6"
       style="fill:none;stroke:#000000;stroke-width:0.05px" />
    <circle
       r="1.131"
       cy="389.76001"
       cx="745.96002"
       id="monatip5.102"
       style="fill:none;stroke:#000000;stroke-width:0.05px" />
    <path
       inkscape:connector-curvature="0"
       id="path217"
       d="m 745.16,388.96 1.6,1.6 m 0,-1.6 -1.6,1.6"
       style="fill:none;stroke:#000000;stroke-width:0.05px" />
    <circle
       r="1.131"
       cy="412.48001"
       cx="713.52002"
       id="monatip5.103"
       style="fill:none;stroke:#000000;stroke-width:0.05px" />
    <path
       inkscape:connector-curvature="0"
       id="path220"
       d="m 712.72,411.68 1.6,1.6 m 0,-1.6 -1.6,1.6"
       style="fill:none;stroke:#000000;stroke-width:0.05px" />
    <circle
       r="1.131"
       cy="412.48001"
       cx="683.91998"
       id="monatip5.104"
       style="fill:none;stroke:#000000;stroke-width:0.05px" />
    <path
       inkscape:connector-curvature="0"
       id="path223"
       d="m 683.12,411.68 1.6,1.6 m 0,-1.6 -1.6,1.6"
       style="fill:none;stroke:#000000;stroke-width:0.05px" />
    <circle
       r="1.131"
       cy="267.28"
       cx="683.91998"
       id="monatip5.105"
       style="fill:none;stroke:#000000;stroke-width:0.05px" />
    <path
       inkscape:connector-curvature="0"
       id="path226"
       d="m 683.12,266.48 1.6,1.6 m 0,-1.6 -1.6,1.6"
       style="fill:none;stroke:#000000;stroke-width:0.05px" />
  </g>
  <path
     style="opacity:1;fill:none;fill-opacity:1;fill-rule:nonzero;stroke:#000000;stroke-width:1.04199994;stroke-linecap:butt;stroke-linejoin:bevel;stroke-miterlimit:4;stroke-dasharray:none;stroke-dashoffset:0;stroke-opacity:1"
     d="m 249.34356,314.82019 c 0,0 0.66813,-19.50921 0.66813,-20.97908 0,-1.46986 -0.26725,-8.55196 0.53449,-10.68996 0.80175,-2.13799 1.87075,-4.00875 1.87075,-4.00875 0,0 0.93537,-6.94846 0.93537,-7.61659 0,-0.66812 2.00437,-6.0131 2.00437,-6.54762 0,-0.53449 0.26725,-16.56945 0.26725,-16.56945 l 5.61224,-1.46987"
     id="path4762"
     inkscape:connector-curvature="0" />
  <path
     style="opacity:1;fill:none;fill-opacity:1;fill-rule:nonzero;stroke:#000000;stroke-width:1.04199994;stroke-linecap:butt;stroke-linejoin:bevel;stroke-miterlimit:4;stroke-dasharray:none;stroke-dashoffset:0;stroke-opacity:1"
     d="m 262.97327,248.67599 c 0,0 6.68125,0.93537 6.81486,1.60349 0.13362,0.66813 0.66813,2.80612 0.93539,3.34062 0.26722,0.5345 2.53886,1.87074 2.53886,1.87074 l 12.15982,1.20263 5.21137,-0.66812 10.15548,-0.53451"
     id="path4764"
     inkscape:connector-curvature="0" />
  <path
     style="opacity:1;fill:none;fill-opacity:1;fill-rule:nonzero;stroke:#000000;stroke-width:1.04199994;stroke-linecap:butt;stroke-linejoin:bevel;stroke-miterlimit:4;stroke-dasharray:none;stroke-dashoffset:0;stroke-opacity:1"
     d="m 303.06065,255.08997 3.20702,-16.8367 c 0,0 -0.13364,-3.34062 0.53448,-5.21136 0.66813,-1.87075 -0.53448,-8.55198 0.66813,-11.22447 1.20261,-2.67249 0.66812,-9.88822 0.66812,-9.88822"
     id="path4766"
     inkscape:connector-curvature="0" />
  <path
     style="opacity:1;fill:none;fill-opacity:1;fill-rule:nonzero;stroke:#000000;stroke-width:1.04199994;stroke-linecap:butt;stroke-linejoin:bevel;stroke-miterlimit:4;stroke-dasharray:none;stroke-dashoffset:0;stroke-opacity:1"
     d="m 295.17702,208.54074 c -0.37796,1.13384 -4.91331,10.01561 -5.85819,10.77151 -0.94485,0.75589 -4.15743,3.96845 -5.10228,5.10229 -0.94488,1.13384 -11.14946,5.10229 -12.47227,5.48024 -1.32281,0.37794 -8.31485,-0.18898 -9.07074,-0.37795 -0.7559,-0.18897 -3.59051,-5.85819 -3.59051,-5.85819 0,0 -1.13384,-8.50382 -1.13384,-9.07074 0,-0.56692 -7.55895,-6.23613 -7.55895,-6.23613 l -6.61408,-14.92893"
     id="path4768"
     inkscape:connector-curvature="0" />
  <path
     style="opacity:1;fill:none;fill-opacity:1;fill-rule:nonzero;stroke:#000000;stroke-width:1.04199994;stroke-linecap:butt;stroke-linejoin:bevel;stroke-miterlimit:4;stroke-dasharray:none;stroke-dashoffset:0;stroke-opacity:1"
     d="m 218.0754,194.69164 -1.6035,24.58693 c 0,0 0,14.43146 -1.06899,16.56945 -1.069,2.138 -4.81049,8.55198 -4.81049,8.55198 0,0 -1.6035,6.94848 -2.138,9.62098 -0.53449,2.67249 -2.13799,14.96594 -2.67249,17.10393 -0.5345,2.13802 -4.27599,9.08648 -5.34498,12.29347 -1.069,3.20702 -1.6035,6.94849 -1.6035,9.08648 0,2.13799 -2.67249,8.01749 -2.67249,10.15548 0,2.13799 -1.069,5.34498 -1.069,7.48297 0,2.13799 -1.069,4.27601 -1.069,4.27601"
     id="path4770"
     inkscape:connector-curvature="0" />
  <path
     style="opacity:1;fill:none;fill-opacity:1;fill-rule:nonzero;stroke:#000000;stroke-width:1.04199994;stroke-linecap:butt;stroke-linejoin:bevel;stroke-miterlimit:4;stroke-dasharray:none;stroke-dashoffset:0;stroke-opacity:1"
     d="m 308.1384,211.92922 4.51869,-3.9554 4.4409,-0.47243 c 0,0 2.45282,1.40625 4.15742,0.47243 1.70458,-0.93382 6.42509,0.0945 6.80305,0.0945 0.37796,0 8.97625,0.28346 8.97625,0.28346 l 6.80305,1.60628 c 0,0 -0.94486,0.85038 2.36217,0.94487 3.30706,0.0945 10.48806,1.70076 10.48806,1.70076 l 3.87395,0.85038 c 0,0 -0.18897,3.40153 -0.0945,3.96845 0.0945,0.56692 -0.0945,6.70857 -0.0945,6.70857 0,0 6.33064,1.4173 7.46445,1.4173 1.13385,0 7.46448,-0.47243 8.0314,-0.47243 0.56693,0 4.53536,-0.0945 4.53536,-0.0945 l 1.70077,-8.59831"
     id="path4772"
     inkscape:connector-curvature="0" />
  <path
     style="opacity:1;fill:none;fill-opacity:1;fill-rule:nonzero;stroke:#000000;stroke-width:1.04199994;stroke-linecap:butt;stroke-linejoin:bevel;stroke-miterlimit:4;stroke-dasharray:none;stroke-dashoffset:0;stroke-opacity:1"
     d="m 384.46712,208.72971 -3.87395,-0.47243 c 0,0 -1.03936,-3.40153 -0.94488,-4.25191 0.0945,-0.85038 -1.98421,-9.63766 -1.98421,-9.63766"
     id="path4774"
     inkscape:connector-curvature="0" />
  <path
     style="opacity:1;fill:none;fill-opacity:1;fill-rule:nonzero;stroke:#000000;stroke-width:1.04199994;stroke-linecap:butt;stroke-linejoin:bevel;stroke-miterlimit:4;stroke-dasharray:none;stroke-dashoffset:0;stroke-opacity:1"
     d="m 364.5304,195.50155 c 0.0945,0.37795 -1.60629,5.29127 -1.88974,5.85819 -0.28347,0.56692 -1.32281,3.68499 -1.70076,4.06293 -0.37796,0.37795 -0.85038,1.41731 -1.70077,1.32282 -0.85037,-0.0945 -3.40154,-0.18897 -5.48024,-0.56692 -2.07872,-0.37795 -5.00779,-0.56692 -6.70856,-0.94487 -1.70077,-0.37795 -3.87398,0.37795 -6.33063,-0.94487 -2.45666,-1.32281 -3.87395,-1.98422 -5.10228,-1.88973 -1.22833,0.0945 -2.9291,0.47243 -4.53538,0.37794 -1.60629,-0.0945 -4.72435,0.66141 -4.72435,0.66141 l -4.44087,-0.94487 -13.32267,-0.66141 c 0,0 -3.68499,1.60628 -4.25191,1.79525 -0.56692,0.18898 -3.11806,0.94487 -5.00779,1.70077 -1.88974,0.75589 -4.15743,3.21255 -4.15743,3.21255"
     id="path4776"
     inkscape:connector-curvature="0" />
  <path
     style="opacity:1;fill:none;fill-opacity:1;fill-rule:nonzero;stroke:#000000;stroke-width:1.04199994;stroke-linecap:butt;stroke-linejoin:bevel;stroke-miterlimit:4;stroke-dasharray:none;stroke-dashoffset:0;stroke-opacity:1"
     d="m 382.10492,216.38315 c 0,0 16.33509,-0.18315 17.93507,-0.18315 1.60002,0 9.37168,0.65559 10.69449,0.37213 1.32281,-0.28346 10.1101,-1.88974 12.66124,-2.36217 2.55116,-0.47244 15.30688,-6.70857 17.00765,-6.70857 1.70077,0 21.35664,2.93861 21.35664,2.93861"
     id="path4778"
     inkscape:connector-curvature="0" />
</svg>
