<?xml version="1.0" encoding="UTF-8" standalone="no"?>
<!-- Created with Inkscape (http://www.inkscape.org/) -->

<svg
   xmlns:dc="http://purl.org/dc/elements/1.1/"
   xmlns:cc="http://creativecommons.org/ns#"
   xmlns:rdf="http://www.w3.org/1999/02/22-rdf-syntax-ns#"
   xmlns:svg="http://www.w3.org/2000/svg"
   xmlns="http://www.w3.org/2000/svg"
   xmlns:xlink="http://www.w3.org/1999/xlink"
   xmlns:sodipodi="http://sodipodi.sourceforge.net/DTD/sodipodi-0.dtd"
   xmlns:inkscape="http://www.inkscape.org/namespaces/inkscape"
   width="28.5072mm"
   height="33.334675mm"
   viewBox="0 0 28.507201 33.334675"
   version="1.1"
   id="svg8"
   inkscape:version="0.92.2 5c3e80d, 2017-08-06"
   sodipodi:docname="kr9_logo.svg">
  <defs
     id="defs2" />
  <sodipodi:namedview
     id="base"
     pagecolor="#ffffff"
     bordercolor="#666666"
     borderopacity="1.0"
     inkscape:pageopacity="0.0"
     inkscape:pageshadow="2"
     inkscape:zoom="0.98994949"
     inkscape:cx="162.73484"
     inkscape:cy="25.444243"
     inkscape:document-units="mm"
     inkscape:current-layer="g906"
     showgrid="false"
     fit-margin-top="0"
     fit-margin-left="0"
     fit-margin-right="0"
     fit-margin-bottom="0"
     inkscape:window-width="1440"
     inkscape:window-height="762"
     inkscape:window-x="53"
     inkscape:window-y="15"
     inkscape:window-maximized="0" />
  <metadata
     id="metadata5">
    <rdf:RDF>
      <cc:Work
         rdf:about="">
        <dc:format>image/svg+xml</dc:format>
        <dc:type
           rdf:resource="http://purl.org/dc/dcmitype/StillImage" />
        <dc:title></dc:title>
      </cc:Work>
    </rdf:RDF>
  </metadata>
  <g
     inkscape:label="Layer 1"
     inkscape:groupmode="layer"
     id="layer1"
     transform="translate(-284.99912,-11.348296)">
    <image
       sodipodi:absref="/Users/AchilleTalon/Desktop/LogoKR9.png"
       y="6.241818"
       x="11.358183"
       id="image72"
       xlink:href="file:///Users/AchilleTalon/Desktop/LogoKR9.png"
       preserveAspectRatio="none"
       height="67.46875"
       width="189.70625" />
    <path
       style="opacity:1;fill:#003061;fill-opacity:1;fill-rule:nonzero;stroke:none;stroke-width:0.24042447;stroke-linecap:butt;stroke-linejoin:bevel;stroke-miterlimit:4.36141777;stroke-dasharray:none;stroke-dashoffset:0;stroke-opacity:1"
       d="m 106.07983,74.390166 c -3.49565,0 -6.32943,2.83378 -6.32943,6.32942 0.003,1.25112 0.12175,2.47336 0.81876,3.51234 0,0 -1.54995,0.20689 -2.10641,0.76335 -0.36348,0.36348 -0.25445,0.77875 -0.25445,0.77875 h 3.99142 c -0.81314,-0.80191 -1.35786,-1.83606 -1.55924,-2.9602 -0.1186,-0.45309 -0.18012,-0.91921 -0.18314,-1.38755 6e-5,-3.10519 2.5173,-5.62242 5.62249,-5.62248 3.10518,6e-5 5.62242,2.51729 5.62248,5.62248 -0.004,0.47291 -0.0673,0.94345 -0.18885,1.40047 -0.20142,1.11847 -0.74278,2.14764 -1.5503,2.94728 h 3.98819 c 0,0 0.61793,-0.41527 0.25445,-0.77875 -0.55658,-0.55658 -2.61581,-0.76335 -2.61581,-0.76335 0.69719,-1.03892 0.81638,-2.26117 0.81926,-3.51234 0,-3.49564 -2.83378,-6.32942 -6.32942,-6.32942 z"
       id="path75"
       inkscape:connector-curvature="0"
       sodipodi:nodetypes="sccscccccccccsccs" />
    <circle
       style="opacity:1;fill:#f09500;fill-opacity:1;fill-rule:nonzero;stroke:none;stroke-width:0.22263318;stroke-linecap:butt;stroke-linejoin:bevel;stroke-miterlimit:4.36141777;stroke-dasharray:none;stroke-dashoffset:0;stroke-opacity:1"
       id="path97"
       cx="109.41371"
       cy="83.302803"
       r="5.1172628" />
    <path
       style="opacity:1;fill:#ffffff;fill-opacity:1;fill-rule:nonzero;stroke:none;stroke-width:0.31580785;stroke-linecap:butt;stroke-linejoin:bevel;stroke-miterlimit:4.36141777;stroke-dasharray:none;stroke-dashoffset:0;stroke-opacity:1"
       d="m 109.33835,79.848326 h 0.36556 l 2.20085,1.60401 c 0,0 0.49239,1.38392 1.28693,1.69726 0.79455,0.31334 1.28321,0.82065 1.28321,0.82065 l -0.0336,0.32453 -1.24217,-0.28723 -1.26083,-1.45106 -0.6789,-1.04074 c 0,0 -1.39884,-1.11161 -1.41376,-1.1228 -0.0149,-0.0112 -0.50732,-0.54462 -0.50732,-0.54462 z"
       id="path110"
       inkscape:connector-curvature="0" />
    <path
       style="opacity:1;fill:#003061;fill-opacity:1;fill-rule:nonzero;stroke:none;stroke-width:0.31580785;stroke-linecap:butt;stroke-linejoin:bevel;stroke-miterlimit:4.36141777;stroke-dasharray:none;stroke-dashoffset:0;stroke-opacity:1"
       d="m 114.44133,84.294776 c 0,0 -1.82036,-0.98478 -2.0591,-1.43241 -0.23873,-0.44763 -0.71621,-1.34289 -0.71621,-1.34289 l -2.32767,-1.67115 c 0,0 -0.74605,1.8502 -2.4172,2.9842 -1.67115,1.13399 -2.05909,1.40257 -2.05909,1.40257"
       id="path102"
       inkscape:connector-curvature="0" />
    <path
       style="opacity:1;fill:#f09500;fill-opacity:1;fill-rule:nonzero;stroke:none;stroke-width:0.31580785;stroke-linecap:butt;stroke-linejoin:bevel;stroke-miterlimit:4.36141777;stroke-dasharray:none;stroke-dashoffset:0;stroke-opacity:1"
       d="m 108.44324,81.811346 2.14847,2.1313 -0.61176,-1.23844 0.23874,-0.25366 0.46255,0.29842 -0.61176,-0.79081 0.53715,-0.29842 -0.76097,-0.52224 -0.3965,-0.71814"
       id="path104"
       inkscape:connector-curvature="0"
       sodipodi:nodetypes="ccccccccc" />
    <path
       style="opacity:1;fill:#f09500;fill-opacity:1;fill-rule:nonzero;stroke:none;stroke-width:0.31580785;stroke-linecap:butt;stroke-linejoin:bevel;stroke-miterlimit:4.36141777;stroke-dasharray:none;stroke-dashoffset:0;stroke-opacity:1"
       d="m 106.34971,83.619496 2.09353,-1.80815 0.23037,1.044 -0.56674,-0.25684 0.3317,1.01269 -2.78298,0.36491 z"
       id="path106"
       inkscape:connector-curvature="0"
       sodipodi:nodetypes="ccccccc" />
    <path
       style="opacity:1;fill:#003061;fill-opacity:1;fill-rule:nonzero;stroke:none;stroke-width:0.24042447;stroke-linecap:butt;stroke-linejoin:bevel;stroke-miterlimit:4.36141777;stroke-dasharray:none;stroke-dashoffset:0;stroke-opacity:1"
       d="m 105.28456,84.085916 c 0,0 0.46644,0.25703 1.20541,0.38555 0.73897,0.12851 7.30073,0.98127 7.46138,1.30256 -1.49782,2.04792 -1.48733,2.36131 -4.27568,0.94836 -0.46256,-0.25882 -1.70047,-1.10493 -4.24368,-2.03324 -1.74979,-0.63869 -0.74864,-0.61132 -0.74864,-0.61132"
       id="path108"
       inkscape:connector-curvature="0"
       sodipodi:nodetypes="csccsc" />
    <text
       xml:space="preserve"
       style="font-style:normal;font-variant:normal;font-weight:normal;font-stretch:normal;font-size:4.31719923px;line-height:0%;font-family:'Oriya MN';-inkscape-font-specification:'Oriya MN';text-align:start;writing-mode:lr-tb;text-anchor:start;opacity:1;fill:#f09500;fill-opacity:1;fill-rule:nonzero;stroke:none;stroke-width:0.27813023;stroke-linecap:butt;stroke-linejoin:bevel;stroke-miterlimit:4.36141777;stroke-dasharray:none;stroke-dashoffset:0;stroke-opacity:1"
       x="82.743103"
       y="93.766541"
       id="text124"><tspan
         sodipodi:role="line"
         id="tspan122"
         x="82.743103"
         y="93.766541"
         style="fill:#f09500;fill-opacity:1;stroke-width:0.27813023">Innsbruck</tspan></text>
    <g
       id="g221"
       transform="translate(88.824405,-90.714286)">
      <path
         style="opacity:1;fill:#003061;fill-opacity:1;fill-rule:nonzero;stroke:none;stroke-width:0.41153437;stroke-linecap:butt;stroke-linejoin:bevel;stroke-miterlimit:4.36141777;stroke-dasharray:none;stroke-dashoffset:0;stroke-opacity:1"
         d="m 147.27266,100.32533 c -5.9835,0 -10.83408,4.85058 -10.83408,10.83407 0.005,2.14154 0.2084,4.23364 1.40147,6.01207 0,0 -2.65305,0.35413 -3.60554,1.30662 -0.62217,0.62217 -0.43554,1.33299 -0.43554,1.33299 h 6.83211 c -1.39185,-1.37263 -2.32425,-3.14278 -2.66895,-5.06698 -0.20301,-0.77555 -0.30831,-1.57341 -0.31348,-2.37506 1e-4,-5.31516 4.30886,-9.6239 9.62401,-9.624 5.31514,1e-4 9.62389,4.30884 9.624,9.624 -0.007,0.80948 -0.1152,1.6149 -0.32326,2.39718 -0.34477,1.91449 -1.27141,3.67612 -2.65365,5.04486 h 6.82659 c 0,0 1.05771,-0.71082 0.43554,-1.33299 -0.9527,-0.95269 -4.47748,-1.30662 -4.47748,-1.30662 1.19338,-1.77832 1.3974,-3.87045 1.40233,-6.01207 0,-5.98349 -4.85058,-10.83407 -10.83407,-10.83407 z"
         id="path126"
         inkscape:connector-curvature="0"
         sodipodi:nodetypes="sccscccccccccsccs" />
      <g
         transform="matrix(1.678977,0,0,1.678977,-57.550657,-33.235381)"
         id="g190">
        <circle
           r="5.1172628"
           cy="86.710785"
           cx="122.01563"
           id="circle172"
           style="opacity:1;fill:#f09500;fill-opacity:1;fill-rule:nonzero;stroke:none;stroke-width:0.22263318;stroke-linecap:butt;stroke-linejoin:bevel;stroke-miterlimit:4.36141777;stroke-dasharray:none;stroke-dashoffset:0;stroke-opacity:1" />
        <path
           sodipodi:nodetypes="ccccccccccccc"
           inkscape:connector-curvature="0"
           id="path174"
           d="m 121.7472,83.894239 0.94974,0.520598 0.85429,1.284123 0.9405,-0.334242 c 0,0 1.60683,1.722773 2.08719,2.493183 0.78165,0.84438 0.95353,0.291967 0.95353,0.291967 l -1.08368,1.144972 0.18291,-0.288439 -1.73901,-1.502444 -0.83789,-1.284471 c 0,0 -1.72644,-1.371938 -1.74485,-1.385748 -0.0184,-0.01382 -0.62605,-0.672165 -0.62605,-0.672165 z"
           style="opacity:1;fill:#ffffff;fill-opacity:1;fill-rule:nonzero;stroke:none;stroke-width:0.38976684;stroke-linecap:butt;stroke-linejoin:bevel;stroke-miterlimit:4.36141777;stroke-dasharray:none;stroke-dashoffset:0;stroke-opacity:1" />
        <path
           sodipodi:nodetypes="cscsssccsc"
           inkscape:connector-curvature="0"
           id="path176"
           d="m 124.51412,90.251612 c 0,0 2.02985,-1.052612 2.08826,-1.217505 0.0584,-0.164895 0.0799,-0.398848 -0.0674,-0.675078 -0.0737,-0.138116 -0.59231,-0.974863 -0.79159,-1.227027 -0.19928,-0.252163 -1.09948,-1.38112 -1.40247,-1.559881 0,0 -0.68733,0.358465 -0.84978,0.175359 -0.16245,-0.183106 -0.56615,-0.876471 -0.56615,-0.876471 l -1.24113,-0.709436 c 0,0 -0.38968,1.184494 -1.75918,2.388613 -1.13786,1.000442 -2.4111,2.622408 -2.4111,2.622408"
           style="opacity:1;fill:#003061;fill-opacity:1;fill-rule:nonzero;stroke:none;stroke-width:0.38976684;stroke-linecap:butt;stroke-linejoin:bevel;stroke-miterlimit:4.36141777;stroke-dasharray:none;stroke-dashoffset:0;stroke-opacity:1" />
        <path
           sodipodi:nodetypes="ccccccccc"
           inkscape:connector-curvature="0"
           id="path178"
           d="m 120.57914,86.584313 2.65162,2.630428 -0.75503,-1.52847 0.29465,-0.313064 0.57088,0.368307 -0.75503,-0.97601 0.66295,-0.368307 -0.93919,-0.644543 -0.48935,-0.886321"
           style="opacity:1;fill:#f09500;fill-opacity:1;fill-rule:nonzero;stroke:none;stroke-width:0.38976684;stroke-linecap:butt;stroke-linejoin:bevel;stroke-miterlimit:4.36141777;stroke-dasharray:none;stroke-dashoffset:0;stroke-opacity:1" />
        <path
           sodipodi:nodetypes="ccccccc"
           inkscape:connector-curvature="0"
           id="path180"
           d="m 117.99533,88.815913 2.58381,-2.2316 0.28432,1.288494 -0.69946,-0.31699 0.40938,1.249852 -3.05978,0.366925 z"
           style="opacity:1;fill:#f09500;fill-opacity:1;fill-rule:nonzero;stroke:none;stroke-width:0.38976684;stroke-linecap:butt;stroke-linejoin:bevel;stroke-miterlimit:4.36141777;stroke-dasharray:none;stroke-dashoffset:0;stroke-opacity:1" />
        <path
           sodipodi:nodetypes="cccccccccc"
           inkscape:connector-curvature="0"
           id="path202"
           d="m 121.16159,91.889906 c 0,0 -1.24093,-0.70751 -1.1284,-0.960773 0.11256,-0.253262 0.99274,-0.528837 1.33042,-0.655469 0.33769,-0.126633 1.83527,-0.372239 1.8512,-0.715581 0.0159,-0.34334 -0.91457,-1.238175 -0.91457,-1.238175 l 0.74572,0.605018 c 0,0 0.26734,0.576877 0.45025,0.647228 0.18291,0.07035 0.87235,-0.01407 0.71758,0.126631 -0.15477,0.140703 -1.11154,0.450246 -1.28039,0.717579 -0.16884,0.267334 4.0539,1.672696 4.0539,1.672696"
           style="opacity:1;fill:#ffffff;fill-opacity:1;fill-rule:nonzero;stroke:none;stroke-width:0.29780039;stroke-linecap:butt;stroke-linejoin:bevel;stroke-miterlimit:4.36141777;stroke-dasharray:none;stroke-dashoffset:0;stroke-opacity:1" />
      </g>
      <g
         id="g906"
         transform="matrix(0.7354958,0,0,0.7354958,55.107333,31.531943)">
        <text
           xml:space="preserve"
           style="font-style:normal;font-variant:normal;font-weight:normal;font-stretch:normal;font-size:20.89570427px;line-height:0%;font-family:'Helvetica Neue';-inkscape-font-specification:'Helvetica Neue';text-align:start;writing-mode:lr-tb;text-anchor:start;opacity:1;fill:#003061;fill-opacity:1;fill-rule:nonzero;stroke:none;stroke-width:1.34617984;stroke-linecap:butt;stroke-linejoin:bevel;stroke-miterlimit:4.36141777;stroke-dasharray:none;stroke-dashoffset:0;stroke-opacity:1"
           x="188.35519"
           y="138.95856"
           id="text116"
           transform="scale(1.0184628,0.98187189)"><tspan
             sodipodi:role="line"
             id="tspan114"
             x="188.35519"
             y="138.95856"
             style="font-style:normal;font-variant:normal;font-weight:normal;font-stretch:normal;font-family:sans-serif;-inkscape-font-specification:sans-serif;stroke-width:1.34617984">KR</tspan></text>
        <text
           transform="scale(1.0184628,0.98187189)"
           id="text194"
           y="138.95856"
           x="215.04031"
           style="font-style:normal;font-variant:normal;font-weight:normal;font-stretch:normal;font-size:20.89570427px;line-height:0%;font-family:'Helvetica Neue';-inkscape-font-specification:'Helvetica Neue';text-align:start;writing-mode:lr-tb;text-anchor:start;opacity:1;fill:#f09500;fill-opacity:1;fill-rule:nonzero;stroke:none;stroke-width:1.34617984;stroke-linecap:butt;stroke-linejoin:bevel;stroke-miterlimit:4.36141777;stroke-dasharray:none;stroke-dashoffset:0;stroke-opacity:1"
           xml:space="preserve"><tspan
             style="font-style:normal;font-variant:normal;font-weight:normal;font-stretch:normal;font-family:sans-serif;-inkscape-font-specification:sans-serif;fill:#f09500;fill-opacity:1;stroke-width:1.34617984"
             y="138.95856"
             x="215.04031"
             id="tspan192"
             sodipodi:role="line">9</tspan></text>
        <text
           id="text198"
           y="141.16867"
           x="193.00995"
           style="font-style:normal;font-variant:normal;font-weight:normal;font-stretch:normal;font-size:4.31719923px;line-height:0%;font-family:'Oriya MN';-inkscape-font-specification:'Oriya MN';text-align:start;writing-mode:lr-tb;text-anchor:start;opacity:1;fill:#003061;fill-opacity:1;fill-rule:nonzero;stroke:none;stroke-width:0.27813023;stroke-linecap:butt;stroke-linejoin:bevel;stroke-miterlimit:4.36141777;stroke-dasharray:none;stroke-dashoffset:0;stroke-opacity:1"
           xml:space="preserve"><tspan
             style="font-style:normal;font-variant:normal;font-weight:normal;font-stretch:normal;font-family:'Oriya Sangam MN';-inkscape-font-specification:'Oriya Sangam MN';letter-spacing:1.02884113px;fill:#003061;fill-opacity:1;stroke-width:0.27813023"
             y="141.16867"
             x="193.00995"
             id="tspan196"
             sodipodi:role="line">INNSBRUCK</tspan></text>
      </g>
      <path
         inkscape:connector-curvature="0"
         id="path204"
         d="m 151.14092,110.93029 0.33187,1.66897 -1.37309,-1.32467 z"
         style="opacity:1;fill:#f09500;fill-opacity:1;fill-rule:nonzero;stroke:none;stroke-width:0.5;stroke-linecap:butt;stroke-linejoin:bevel;stroke-miterlimit:4.36141777;stroke-dasharray:none;stroke-dashoffset:0;stroke-opacity:1"
         sodipodi:nodetypes="cccc" />
      <path
         inkscape:connector-curvature="0"
         d="m 196.17471,116.03121 c 0.0385,-0.0473 0.0717,-0.0995 0.11557,-0.14198 0.15114,-0.14647 0.44724,-0.35612 0.59827,-0.4694 0.15848,-0.11883 0.31725,-0.23737 0.47495,-0.35728 0.6205,-0.47183 0.47963,-0.36605 1.11346,-0.87886 1.05749,-0.86263 1.98716,-1.84667 2.84437,-2.90449 0.46259,-0.56028 0.8533,-1.17377 1.28202,-1.75916 0.43814,-0.54094 0.92148,-1.04257 1.37032,-1.57478 0.16894,-0.20034 0.32753,-0.40871 0.48307,-0.61945 0.0345,-0.0467 0.0687,-0.0933 0.10348,-0.13966 0.0272,-0.0362 0.0427,-0.0861 0.0821,-0.10822 0.71463,-0.40279 1.44659,-0.77405 2.16989,-1.16109 0.44581,0.36389 0.74435,0.87263 1.0723,1.33714 0.41962,0.59431 0.38218,0.53597 0.81665,1.11686 0.31798,0.38431 0.62895,0.77322 0.96746,1.13974 0.051,0.0551 0.28278,0.30588 0.35765,0.36497 0.0471,0.0372 0.10302,0.0617 0.1544,0.0925 0.52925,0.18233 0.90358,-0.0405 1.3489,-0.30852 -3.04975,1.80244 -1.81808,1.12158 -1.22349,0.56902 0.15978,-0.1485 0.30651,-0.30886 0.46672,-0.45685 0.74518,-0.38618 1.44705,-0.87086 2.23549,-1.15856 0.13358,-0.0488 0.25112,0.13358 0.37307,0.20668 0.19181,0.11496 0.38063,0.23483 0.56791,0.35702 0.9424,0.61487 1.86346,1.26413 2.7909,1.9011 1.68335,1.18375 3.4649,2.21348 5.23889,3.25225 0.43175,0.23969 0.84394,0.51742 1.24191,0.80956 0.17083,0.12535 0.33333,0.26194 0.50463,0.3867 0.22275,0.16223 0.4515,0.31605 0.67723,0.47407 0,0 -1.71753,1.10596 -1.71753,1.10596 v 0 c -0.25369,-0.14401 -0.51057,-0.28264 -0.76107,-0.43218 -0.60711,-0.36244 -1.18792,-0.76998 -1.76531,-1.17718 -0.59301,-0.4388 -1.18149,-0.8849 -1.78396,-1.31072 -1.03913,-0.73447 -2.10532,-1.42975 -3.17363,-2.12072 -0.98427,-0.60623 -1.96872,-1.23839 -3.01991,-1.72648 -0.21574,-0.1002 -0.43653,-0.19113 -0.66309,-0.26353 -0.12225,-0.0391 -0.47794,0.0124 -0.37878,-0.0695 0.54581,-0.44871 1.20561,-0.73725 1.80841,-1.10586 -0.0529,0.0356 -0.10901,0.0666 -0.15852,0.10698 -0.0869,0.0707 -0.28585,0.2819 -0.35752,0.35176 -0.78141,0.76166 -1.6533,1.20601 -2.68431,1.73795 -0.54937,0.27876 -0.96145,0.42189 -1.54172,0.12411 -0.055,-0.0467 -0.11463,-0.0883 -0.16513,-0.1398 -0.14385,-0.14633 -0.18839,-0.24334 -0.30556,-0.41571 -0.27838,-0.40952 -0.56188,-0.81594 -0.85433,-1.21554 -0.38577,-0.52056 -0.42994,-0.59426 -0.84403,-1.09622 -0.26176,-0.31728 -0.62307,-0.78755 -0.99074,-1.0005 -0.0461,-0.0267 -0.10268,-0.0289 -0.15394,-0.0435 0.64077,-0.38753 1.27217,-0.79101 1.92232,-1.16259 0.0443,-0.0253 -0.0629,0.08 -0.0958,0.11867 -0.22144,0.26024 -0.43083,0.53008 -0.65206,0.79075 -0.44243,0.52978 -0.91386,1.03373 -1.36221,1.55795 -0.46314,0.60098 -0.87569,1.24204 -1.38004,1.81111 -0.88293,1.07122 -1.84746,2.07023 -2.90304,2.97368 -0.67014,0.56837 -1.35595,1.11997 -2.0498,1.65795 0,0 -2.19674,0.97362 -2.19674,0.97362 z"
         id="path878"
         style="opacity:1;fill:#ffffff;fill-opacity:1;fill-rule:nonzero;stroke:none;stroke-width:0.11296906;stroke-linecap:butt;stroke-linejoin:bevel;stroke-miterlimit:4.36141777;stroke-dasharray:none;stroke-dashoffset:0;stroke-opacity:1" />
      <g
         id="g910"
         transform="matrix(1,0,0,0.91084501,0,10.681756)">
        <path
           style="opacity:1;fill:#003061;fill-opacity:1;fill-rule:nonzero;stroke:none;stroke-width:0.41153437;stroke-linecap:butt;stroke-linejoin:bevel;stroke-miterlimit:4.36141777;stroke-dasharray:none;stroke-dashoffset:0;stroke-opacity:1"
           d="m 210.77269,100.32533 c -5.9835,0 -10.83408,4.85058 -10.83408,10.83407 0.005,2.14154 0.2084,4.23364 1.40147,6.01207 l -3.60554,1.30662 -0.43554,1.33299 h 6.83211 c -1.39185,-1.37263 -2.32425,-3.14278 -2.66895,-5.06698 -0.20301,-0.77555 -0.30831,-1.57341 -0.31348,-2.37506 10e-5,-5.31516 4.30886,-9.6239 9.62401,-9.624 5.31514,1e-4 9.62389,4.30884 9.624,9.624 -0.007,0.80948 -0.1152,1.6149 -0.32326,2.39718 -0.34477,1.91449 -1.27141,3.67612 -2.65365,5.04486 h 6.82659 l 0.43554,-1.33299 -4.47748,-1.30662 c 1.19338,-1.77832 1.3974,-3.87045 1.40233,-6.01207 0,-5.98349 -4.85058,-10.83407 -10.83407,-10.83407 z"
           id="path41"
           inkscape:connector-curvature="0"
           sodipodi:nodetypes="scccccccccccccccs" />
        <path
           inkscape:connector-curvature="0"
           d="m 197.55588,115.47897 c 0.0341,-0.0419 0.0635,-0.0881 0.1023,-0.12568 0.13379,-0.12966 0.3959,-0.31524 0.52959,-0.41551 0.14029,-0.10519 0.28083,-0.21012 0.42043,-0.31627 0.54926,-0.41766 0.42456,-0.32402 0.98563,-0.77796 0.93609,-0.7636 1.75903,-1.63467 2.51783,-2.57105 0.40948,-0.49596 0.75534,-1.03902 1.13484,-1.55721 0.38784,-0.47884 0.81569,-0.92288 1.21301,-1.39399 0.14954,-0.17734 0.28993,-0.36179 0.42761,-0.54834 0.0305,-0.0413 0.0608,-0.0826 0.0916,-0.12362 0.0241,-0.032 0.0378,-0.0762 0.0727,-0.0958 0.63259,-0.35655 1.28052,-0.68519 1.92078,-1.02779 0.39463,0.32211 0.6589,0.77245 0.9492,1.18363 0.37145,0.52608 0.33831,0.47444 0.7229,0.98864 0.28147,0.34019 0.55674,0.68446 0.85639,1.0089 0.0451,0.0488 0.25032,0.27076 0.31659,0.32307 0.0417,0.0329 0.0912,0.0546 0.13668,0.0819 0.46849,0.1614 0.79985,-0.0359 1.19404,-0.2731 -2.69963,1.59551 -1.60936,0.99282 -1.08303,0.50369 0.14144,-0.13145 0.27132,-0.2734 0.41314,-0.4044 0.65963,-0.34185 1.28093,-0.77088 1.97885,-1.02556 0.11825,-0.0432 0.22229,0.11825 0.33024,0.18296 0.16979,0.10176 0.33694,0.20787 0.50272,0.31603 0.83421,0.54428 1.64953,1.11901 2.4705,1.68285 1.49009,1.04785 3.06712,1.95937 4.63745,2.87889 0.38219,0.21217 0.74706,0.45802 1.09934,0.71662 0.15122,0.11096 0.29506,0.23187 0.4467,0.3423 0.19717,0.14361 0.39966,0.27977 0.59948,0.41965 0,0 -1.52036,0.97899 -1.52036,0.97899 v 0 c -0.22456,-0.12747 -0.45195,-0.25019 -0.67369,-0.38256 -0.53742,-0.32083 -1.05155,-0.68159 -1.56265,-1.04204 -0.52493,-0.38842 -1.04586,-0.78331 -1.57916,-1.16025 -0.91984,-0.65015 -1.86363,-1.26561 -2.80929,-1.87725 -0.87128,-0.53664 -1.74271,-1.09622 -2.67322,-1.52828 -0.19097,-0.0887 -0.38642,-0.16919 -0.58697,-0.23328 -0.10821,-0.0346 -0.42307,0.011 -0.33529,-0.0615 0.48315,-0.3972 1.0672,-0.65261 1.6008,-0.97891 -0.0468,0.0315 -0.0965,0.059 -0.14032,0.0947 -0.0769,0.0626 -0.25304,0.24954 -0.31648,0.31138 -0.6917,0.67422 -1.4635,1.06756 -2.37615,1.53843 -0.4863,0.24676 -0.85107,0.37346 -1.36472,0.10986 -0.0487,-0.0413 -0.10147,-0.0782 -0.14618,-0.12375 -0.12733,-0.12953 -0.16676,-0.2154 -0.27048,-0.36798 -0.24642,-0.36251 -0.49737,-0.72227 -0.75625,-1.076 -0.34148,-0.4608 -0.38058,-0.52604 -0.74713,-0.97037 -0.23171,-0.28086 -0.55154,-0.69714 -0.877,-0.88564 -0.0408,-0.0236 -0.0909,-0.0256 -0.13627,-0.0385 0.56721,-0.34304 1.12612,-0.7002 1.70163,-1.02912 0.0392,-0.0224 -0.0557,0.0708 -0.0848,0.10505 -0.19602,0.23036 -0.38137,0.46922 -0.5772,0.69997 -0.39164,0.46896 -0.80895,0.91505 -1.20583,1.37909 -0.40997,0.53199 -0.77516,1.09945 -1.22161,1.60319 -0.78156,0.94824 -1.63536,1.83257 -2.56976,2.6323 -0.59321,0.50312 -1.20029,0.99139 -1.81448,1.46761 0,0 -1.94455,0.86185 -1.94455,0.86185 z"
           id="path61"
           style="opacity:1;fill:#f09500;fill-opacity:1;fill-rule:nonzero;stroke:none;stroke-width:0.1;stroke-linecap:butt;stroke-linejoin:bevel;stroke-miterlimit:4.36141777;stroke-dasharray:none;stroke-dashoffset:0;stroke-opacity:1" />
      </g>
      <g
         id="g898">
        <text
           transform="scale(1.0184628,0.98187189)"
           id="text882"
           y="138.95856"
           x="125.48674"
           style="font-style:normal;font-variant:normal;font-weight:normal;font-stretch:normal;font-size:20.89570427px;line-height:0%;font-family:'Helvetica Neue';-inkscape-font-specification:'Helvetica Neue';text-align:start;writing-mode:lr-tb;text-anchor:start;opacity:1;fill:#003061;fill-opacity:1;fill-rule:nonzero;stroke:none;stroke-width:1.34617984;stroke-linecap:butt;stroke-linejoin:bevel;stroke-miterlimit:4.36141777;stroke-dasharray:none;stroke-dashoffset:0;stroke-opacity:1"
           xml:space="preserve"><tspan
             style="font-style:normal;font-variant:normal;font-weight:normal;font-stretch:normal;font-family:sans-serif;-inkscape-font-specification:sans-serif;stroke-width:1.34617984"
             y="138.95856"
             x="125.48674"
             id="tspan880"
             sodipodi:role="line">KR</tspan></text>
        <text
           xml:space="preserve"
           style="font-style:normal;font-variant:normal;font-weight:normal;font-stretch:normal;font-size:20.89570427px;line-height:0%;font-family:'Helvetica Neue';-inkscape-font-specification:'Helvetica Neue';text-align:start;writing-mode:lr-tb;text-anchor:start;opacity:1;fill:#f09500;fill-opacity:1;fill-rule:nonzero;stroke:none;stroke-width:1.34617984;stroke-linecap:butt;stroke-linejoin:bevel;stroke-miterlimit:4.36141777;stroke-dasharray:none;stroke-dashoffset:0;stroke-opacity:1"
           x="151.46544"
           y="138.95856"
           id="text886"
           transform="scale(1.0184628,0.98187189)"><tspan
             sodipodi:role="line"
             id="tspan884"
             x="151.46544"
             y="138.95856"
             style="font-style:normal;font-variant:normal;font-weight:normal;font-stretch:normal;font-family:sans-serif;-inkscape-font-specification:sans-serif;fill:#f09500;fill-opacity:1;stroke-width:1.34617984">9</tspan></text>
        <text
           xml:space="preserve"
           style="font-style:normal;font-variant:normal;font-weight:normal;font-stretch:normal;font-size:4.31719923px;line-height:0%;font-family:'Oriya MN';-inkscape-font-specification:'Oriya MN';text-align:start;writing-mode:lr-tb;text-anchor:start;opacity:1;fill:#003061;fill-opacity:1;fill-rule:nonzero;stroke:none;stroke-width:0.27813023;stroke-linecap:butt;stroke-linejoin:bevel;stroke-miterlimit:4.36141777;stroke-dasharray:none;stroke-dashoffset:0;stroke-opacity:1"
           x="128.98073"
           y="141.16867"
           id="text890"><tspan
             sodipodi:role="line"
             id="tspan888"
             x="128.98073"
             y="141.16867"
             style="font-style:normal;font-variant:normal;font-weight:normal;font-stretch:normal;font-family:'Oriya Sangam MN';-inkscape-font-specification:'Oriya Sangam MN';letter-spacing:1.84943759px;fill:#003061;fill-opacity:1;stroke-width:0.27813023">Innsbruck</tspan></text>
      </g>
    </g>
  </g>
</svg>
