<?xml version="1.0" encoding="ISO-8859-1"?>
<svg version="1.1" baseProfile="full"
xmlns="http://www.w3.org/2000/svg"
xmlns:xlink="http://www.w3.org/1999/xlink"
xmlns:ev="http://www.w3.org/2001/xml-events"
width="550.920mm" height="479.480mm"
viewBox="0 0 550.920 479.480">
<title>octarine</title>
<g transform="translate(5.000 474.480)">
<g id="Legs" stroke="black" fill="none" stroke-width="0.4px">
<path d="M214.120 -268.480L200.000 -269.480"/>
<path d="M214.120 -251.480L214.120 -268.480"/>
<path d="M230.600 -252.920L214.120 -251.480"/>
<path d="M244.920 -250.400L230.600 -252.920"/>
<path d="M265.000 -250.400L244.920 -250.400"/>
<path d="M276.360 -250.800L265.000 -250.400"/>
<path d="M302.880 -250.320L276.360 -250.800"/>
<path d="M312.160 -248.000L302.880 -250.320"/>
<path d="M319.400 -243.320L312.160 -248.000"/>
<path d="M319.400 -201.880L319.400 -243.320"/>
<path d="M340.920 -200.000L319.400 -201.880"/>
</g>
<g id="Labels" font-size="0.600em">
<text transform="translate(200.000 -269.480)">octarine.11</text>
<text transform="translate(200.000 -269.480)">purgatory.4</text>
<text transform="translate(340.920 -200.000)">octarine.0</text>
<text transform="translate(319.400 -201.880)">octarine.1</text>
<text transform="translate(319.400 -243.320)">octarine.2</text>
<text transform="translate(312.160 -248.000)">octarine.3</text>
<text transform="translate(302.880 -250.320)">octarine.4</text>
<text transform="translate(276.360 -250.800)">octarine.5</text>
<text transform="translate(265.000 -250.400)">octarine.6</text>
<text transform="translate(244.920 -250.400)">octarine.7</text>
<text transform="translate(230.600 -252.920)">octarine.8</text>
<text transform="translate(214.120 -251.480)">octarine.9</text>
<text transform="translate(214.120 -268.480)">octarine.10</text>
</g>
<g id="Stations" stroke="black" fill="none" stroke-width="0.05px">
<circle id="octarine.11" cx="200.000" cy="-269.480" r="1.131"/>
<path d="M199.200 -270.280L200.800 -268.680M200.800 -270.280L199.200 -268.680"/>
<circle id="octarine.11" cx="200.000" cy="-269.480" r="1.131"/>
<path d="M199.200 -270.280L200.800 -268.680M200.800 -270.280L199.200 -268.680"/>
<circle id="octarine.0" cx="340.920" cy="-200.000" r="1.131"/>
<path d="M340.120 -200.800L341.720 -199.200M341.720 -200.800L340.120 -199.200"/>
<circle id="octarine.1" cx="319.400" cy="-201.880" r="1.131"/>
<path d="M318.600 -202.680L320.200 -201.080M320.200 -202.680L318.600 -201.080"/>
<circle id="octarine.2" cx="319.400" cy="-243.320" r="1.131"/>
<path d="M318.600 -244.120L320.200 -242.520M320.200 -244.120L318.600 -242.520"/>
<circle id="octarine.3" cx="312.160" cy="-248.000" r="1.131"/>
<path d="M311.360 -248.800L312.960 -247.200M312.960 -248.800L311.360 -247.200"/>
<circle id="octarine.4" cx="302.880" cy="-250.320" r="1.131"/>
<path d="M302.080 -251.120L303.680 -249.520M303.680 -251.120L302.080 -249.520"/>
<circle id="octarine.5" cx="276.360" cy="-250.800" r="1.131"/>
<path d="M275.560 -251.600L277.160 -250.000M277.160 -251.600L275.560 -250.000"/>
<circle id="octarine.6" cx="265.000" cy="-250.400" r="1.131"/>
<path d="M264.200 -251.200L265.800 -249.600M265.800 -251.200L264.200 -249.600"/>
<circle id="octarine.7" cx="244.920" cy="-250.400" r="1.131"/>
<path d="M244.120 -251.200L245.720 -249.600M245.720 -251.200L244.120 -249.600"/>
<circle id="octarine.8" cx="230.600" cy="-252.920" r="1.131"/>
<path d="M229.800 -253.720L231.400 -252.120M231.400 -253.720L229.800 -252.120"/>
<circle id="octarine.9" cx="214.120" cy="-251.480" r="1.131"/>
<path d="M213.320 -252.280L214.920 -250.680M214.920 -252.280L213.320 -250.680"/>
<circle id="octarine.10" cx="214.120" cy="-268.480" r="1.131"/>
<path d="M213.320 -269.280L214.920 -267.680M214.920 -269.280L213.320 -267.680"/>
</g>
</g>
</svg>
