<?xml version="1.0" encoding="utf-8" standalone="no"?>
<!-- Generated by Therion 5.4.1+? (compiled on 2018-06-25) -->
<!DOCTYPE svg PUBLIC "-//W3C//DTD SVG 1.1//EN" "http://www.w3.org/Graphics/SVG/1.1/DTD/svg11.dtd">
<svg width="9.056cm" height="43.240cm" viewBox="-127.970 -34.265 256.693 1225.693" xmlns="http://www.w3.org/2000/svg" xmlns:xlink="http://www.w3.org/1999/xlink">
<defs>
<g id="F_aaaaaaa_potato.svg">
</g>
<g id="G_aaaaaaa_potato.svg">
</g>
<g id="B_aaaaaaa_potato.svg">
</g>
<g id="I_aaaaaaa_potato.svg">
</g>
<g id="E_aaaaaaa_potato.svg">
<path fill="none" stroke="#000000" stroke-width="0.500" d="M99.620 1163.080L123.830 1119.370" />
<path fill="none" stroke="#000000" stroke-width="0.500" d="M123.830 1119.370L134.550 1064.380" />
<path fill="none" stroke="#000000" stroke-width="0.500" d="M123.830 1119.370L99.620 1163.080" />
<path fill="none" stroke="#000000" stroke-width="0.500" d="M134.550 1064.380L135.960 984.220" />
<path fill="none" stroke="#000000" stroke-width="0.500" d="M134.550 1064.380L123.830 1119.370" />
<path fill="none" stroke="#000000" stroke-width="0.500" d="M135.960 984.220L124.230 961.200" />
<path fill="none" stroke="#000000" stroke-width="0.500" d="M135.960 984.220L134.550 1064.380" />
<path fill="none" stroke="#000000" stroke-width="0.500" d="M124.230 961.200L135.340 802.290" />
<path fill="none" stroke="#000000" stroke-width="0.500" d="M124.230 961.200L135.960 984.220" />
<path fill="none" stroke="#000000" stroke-width="0.500" d="M135.340 802.290L175.480 750.920" />
<path fill="none" stroke="#000000" stroke-width="0.500" d="M135.340 802.290L124.230 961.200" />
<path fill="none" stroke="#000000" stroke-width="0.500" d="M175.480 750.920L195.260 677.000" />
<path fill="none" stroke="#000000" stroke-width="0.500" d="M175.480 750.920L135.340 802.290" />
<path fill="none" stroke="#000000" stroke-width="0.500" d="M195.260 677.000L140.840 680.800" />
<path fill="none" stroke="#000000" stroke-width="0.500" d="M195.260 677.000L175.480 750.920" />
<path fill="none" stroke="#000000" stroke-width="0.500" d="M140.840 680.800L149.170 633.340" />
<path fill="none" stroke="#000000" stroke-width="0.500" d="M140.840 680.800L195.260 677.000" />
<path fill="none" stroke="#000000" stroke-width="0.500" d="M149.170 633.340L185.170 539.570" />
<path fill="none" stroke="#000000" stroke-width="0.500" d="M149.170 633.340L140.840 680.800" />
<path fill="none" stroke="#000000" stroke-width="0.500" d="M185.170 539.570L170.490 491.440" />
<path fill="none" stroke="#000000" stroke-width="0.500" d="M185.170 539.570L149.170 633.340" />
<path fill="none" stroke="#000000" stroke-width="0.500" d="M170.490 491.440L159.830 404.760" />
<path fill="none" stroke="#000000" stroke-width="0.500" d="M170.490 491.440L185.170 539.570" />
<path fill="none" stroke="#000000" stroke-width="0.500" d="M159.830 404.760L123.890 377.710" />
<path fill="none" stroke="#000000" stroke-width="0.500" d="M159.830 404.760L170.490 491.440" />
<path fill="none" stroke="#000000" stroke-width="0.500" d="M123.890 377.710L80.120 269.260" />
<path fill="none" stroke="#000000" stroke-width="0.500" d="M123.890 377.710L159.830 404.760" />
<path fill="none" stroke="#000000" stroke-width="0.500" d="M80.120 269.260L85.000 222.430" />
<path fill="none" stroke="#000000" stroke-width="0.500" d="M80.120 269.260L123.890 377.710" />
<path fill="none" stroke="#000000" stroke-width="0.500" d="M85.000 222.430L50.580 186.770" />
<path fill="none" stroke="#000000" stroke-width="0.500" d="M85.000 222.430L80.120 269.260" />
<path fill="none" stroke="#000000" stroke-width="0.500" d="M50.580 186.770L50.810 171.470" />
<path fill="none" stroke="#000000" stroke-width="0.500" d="M50.580 186.770L85.000 222.430" />
<path fill="none" stroke="#000000" stroke-width="0.500" d="M50.810 171.470L29.320 151.400" />
<path fill="none" stroke="#000000" stroke-width="0.500" d="M50.810 171.470L50.580 186.770" />
<path fill="none" stroke="#000000" stroke-width="0.500" d="M29.320 151.400L18.380 126.910" />
<path fill="none" stroke="#000000" stroke-width="0.500" d="M29.320 151.400L50.810 171.470" />
<path fill="none" stroke="#000000" stroke-width="0.500" d="M18.380 126.910L2.740 72.200" />
<path fill="none" stroke="#000000" stroke-width="0.500" d="M18.380 126.910L29.320 151.400" />
<path fill="none" stroke="#000000" stroke-width="0.500" d="M2.740 72.200L43.330 58.990" />
<path fill="none" stroke="#000000" stroke-width="0.500" d="M2.740 72.200L18.380 126.910" />
<path fill="none" stroke="#000000" stroke-width="0.500" d="M43.330 58.990L62.550 55.250" />
<path fill="none" stroke="#000000" stroke-width="0.500" d="M43.330 58.990L2.740 72.200" />
<path fill="none" stroke="#000000" stroke-width="0.500" d="M62.550 55.250L75.640 9.610" />
<path fill="none" stroke="#000000" stroke-width="0.500" d="M62.550 55.250L43.330 58.990" />
<path fill="none" stroke="#000000" stroke-width="0.500" d="M75.640 9.610L69.180 2.920" />
<path fill="none" stroke="#000000" stroke-width="0.500" d="M75.640 9.610L62.550 55.250" />
<path fill="none" stroke="#000000" stroke-width="0.500" d="M69.180 2.920L75.640 9.610" />
<path fill="none" stroke="#000000" stroke-width="0.350" d="M97.620 1163.080L101.620 1163.080" />
<path fill="none" stroke="#000000" stroke-width="0.350" d="M99.620 1161.080L99.620 1165.080" />
<path fill="#ffffff" stroke="none" d="M100.420 1163.080C100.420 1163.292 100.336 1163.496 100.186 1163.646C100.036 1163.796 99.832 1163.880 99.620 1163.880C99.408 1163.880 99.204 1163.796 99.054 1163.646C98.904 1163.496 98.820 1163.292 98.820 1163.080C98.820 1162.868 98.904 1162.664 99.054 1162.514C99.204 1162.364 99.408 1162.280 99.620 1162.280C99.832 1162.280 100.036 1162.364 100.186 1162.514C100.336 1162.664 100.420 1162.868 100.420 1163.080Z" />
<path fill="none" stroke="#000000" stroke-width="0.500" d="M99.620 1163.080h0.001" />
<path fill="none" stroke="#000000" stroke-width="0.350" d="M121.830 1119.370L125.830 1119.370" />
<path fill="none" stroke="#000000" stroke-width="0.350" d="M123.830 1117.370L123.830 1121.370" />
<path fill="#ffffff" stroke="none" d="M124.630 1119.370C124.630 1119.582 124.546 1119.786 124.396 1119.936C124.246 1120.086 124.042 1120.170 123.830 1120.170C123.618 1120.170 123.414 1120.086 123.264 1119.936C123.114 1119.786 123.030 1119.582 123.030 1119.370C123.030 1119.158 123.114 1118.954 123.264 1118.804C123.414 1118.654 123.618 1118.570 123.830 1118.570C124.042 1118.570 124.246 1118.654 124.396 1118.804C124.546 1118.954 124.630 1119.158 124.630 1119.370Z" />
<path fill="none" stroke="#000000" stroke-width="0.500" d="M123.830 1119.370h0.001" />
<path fill="none" stroke="#000000" stroke-width="0.350" d="M132.550 1064.380L136.550 1064.380" />
<path fill="none" stroke="#000000" stroke-width="0.350" d="M134.550 1062.380L134.550 1066.380" />
<path fill="#ffffff" stroke="none" d="M135.350 1064.380C135.350 1064.592 135.266 1064.796 135.116 1064.946C134.966 1065.096 134.762 1065.180 134.550 1065.180C134.338 1065.180 134.134 1065.096 133.984 1064.946C133.834 1064.796 133.750 1064.592 133.750 1064.380C133.750 1064.168 133.834 1063.964 133.984 1063.814C134.134 1063.664 134.338 1063.580 134.550 1063.580C134.762 1063.580 134.966 1063.664 135.116 1063.814C135.266 1063.964 135.350 1064.168 135.350 1064.380Z" />
<path fill="none" stroke="#000000" stroke-width="0.500" d="M134.550 1064.380h0.001" />
<path fill="none" stroke="#000000" stroke-width="0.350" d="M133.960 984.220L137.960 984.220" />
<path fill="none" stroke="#000000" stroke-width="0.350" d="M135.960 982.220L135.960 986.220" />
<path fill="#ffffff" stroke="none" d="M136.760 984.220C136.760 984.432 136.676 984.636 136.526 984.786C136.376 984.936 136.172 985.020 135.960 985.020C135.748 985.020 135.544 984.936 135.394 984.786C135.244 984.636 135.160 984.432 135.160 984.220C135.160 984.008 135.244 983.804 135.394 983.654C135.544 983.504 135.748 983.420 135.960 983.420C136.172 983.420 136.376 983.504 136.526 983.654C136.676 983.804 136.760 984.008 136.760 984.220Z" />
<path fill="none" stroke="#000000" stroke-width="0.500" d="M135.960 984.220h0.001" />
<path fill="none" stroke="#000000" stroke-width="0.350" d="M122.230 961.200L126.230 961.200" />
<path fill="none" stroke="#000000" stroke-width="0.350" d="M124.230 959.200L124.230 963.200" />
<path fill="#ffffff" stroke="none" d="M125.030 961.200C125.030 961.412 124.946 961.616 124.796 961.766C124.646 961.916 124.442 962.000 124.230 962.000C124.018 962.000 123.814 961.916 123.664 961.766C123.514 961.616 123.430 961.412 123.430 961.200C123.430 960.988 123.514 960.784 123.664 960.634C123.814 960.484 124.018 960.400 124.230 960.400C124.442 960.400 124.646 960.484 124.796 960.634C124.946 960.784 125.030 960.988 125.030 961.200Z" />
<path fill="none" stroke="#000000" stroke-width="0.500" d="M124.230 961.200h0.001" />
<path fill="none" stroke="#000000" stroke-width="0.350" d="M133.340 802.290L137.340 802.290" />
<path fill="none" stroke="#000000" stroke-width="0.350" d="M135.340 800.290L135.340 804.290" />
<path fill="#ffffff" stroke="none" d="M136.140 802.290C136.140 802.502 136.056 802.706 135.906 802.856C135.756 803.006 135.552 803.090 135.340 803.090C135.128 803.090 134.924 803.006 134.774 802.856C134.624 802.706 134.540 802.502 134.540 802.290C134.540 802.078 134.624 801.874 134.774 801.724C134.924 801.574 135.128 801.490 135.340 801.490C135.552 801.490 135.756 801.574 135.906 801.724C136.056 801.874 136.140 802.078 136.140 802.290Z" />
<path fill="none" stroke="#000000" stroke-width="0.500" d="M135.340 802.290h0.001" />
<path fill="none" stroke="#000000" stroke-width="0.350" d="M173.480 750.920L177.480 750.920" />
<path fill="none" stroke="#000000" stroke-width="0.350" d="M175.480 748.920L175.480 752.920" />
<path fill="#ffffff" stroke="none" d="M176.280 750.920C176.280 751.132 176.196 751.336 176.046 751.486C175.896 751.636 175.692 751.720 175.480 751.720C175.268 751.720 175.064 751.636 174.914 751.486C174.764 751.336 174.680 751.132 174.680 750.920C174.680 750.708 174.764 750.504 174.914 750.354C175.064 750.204 175.268 750.120 175.480 750.120C175.692 750.120 175.896 750.204 176.046 750.354C176.196 750.504 176.280 750.708 176.280 750.920Z" />
<path fill="none" stroke="#000000" stroke-width="0.500" d="M175.480 750.920h0.001" />
<path fill="none" stroke="#000000" stroke-width="0.350" d="M193.260 677.000L197.260 677.000" />
<path fill="none" stroke="#000000" stroke-width="0.350" d="M195.260 675.000L195.260 679.000" />
<path fill="#ffffff" stroke="none" d="M196.060 677.000C196.060 677.212 195.976 677.416 195.826 677.566C195.676 677.716 195.472 677.800 195.260 677.800C195.048 677.800 194.844 677.716 194.694 677.566C194.544 677.416 194.460 677.212 194.460 677.000C194.460 676.788 194.544 676.584 194.694 676.434C194.844 676.284 195.048 676.200 195.260 676.200C195.472 676.200 195.676 676.284 195.826 676.434C195.976 676.584 196.060 676.788 196.060 677.000Z" />
<path fill="none" stroke="#000000" stroke-width="0.500" d="M195.260 677.000h0.001" />
<path fill="none" stroke="#000000" stroke-width="0.350" d="M138.840 680.800L142.840 680.800" />
<path fill="none" stroke="#000000" stroke-width="0.350" d="M140.840 678.800L140.840 682.800" />
<path fill="#ffffff" stroke="none" d="M141.640 680.800C141.640 681.012 141.556 681.216 141.406 681.366C141.256 681.516 141.052 681.600 140.840 681.600C140.628 681.600 140.424 681.516 140.274 681.366C140.124 681.216 140.040 681.012 140.040 680.800C140.040 680.588 140.124 680.384 140.274 680.234C140.424 680.084 140.628 680.000 140.840 680.000C141.052 680.000 141.256 680.084 141.406 680.234C141.556 680.384 141.640 680.588 141.640 680.800Z" />
<path fill="none" stroke="#000000" stroke-width="0.500" d="M140.840 680.800h0.001" />
<path fill="none" stroke="#000000" stroke-width="0.350" d="M147.170 633.340L151.170 633.340" />
<path fill="none" stroke="#000000" stroke-width="0.350" d="M149.170 631.340L149.170 635.340" />
<path fill="#ffffff" stroke="none" d="M149.970 633.340C149.970 633.552 149.886 633.756 149.736 633.906C149.586 634.056 149.382 634.140 149.170 634.140C148.958 634.140 148.754 634.056 148.604 633.906C148.454 633.756 148.370 633.552 148.370 633.340C148.370 633.128 148.454 632.924 148.604 632.774C148.754 632.624 148.958 632.540 149.170 632.540C149.382 632.540 149.586 632.624 149.736 632.774C149.886 632.924 149.970 633.128 149.970 633.340Z" />
<path fill="none" stroke="#000000" stroke-width="0.500" d="M149.170 633.340h0.001" />
<path fill="none" stroke="#000000" stroke-width="0.350" d="M183.170 539.570L187.170 539.570" />
<path fill="none" stroke="#000000" stroke-width="0.350" d="M185.170 537.570L185.170 541.570" />
<path fill="#ffffff" stroke="none" d="M185.970 539.570C185.970 539.782 185.886 539.986 185.736 540.136C185.586 540.286 185.382 540.370 185.170 540.370C184.958 540.370 184.754 540.286 184.604 540.136C184.454 539.986 184.370 539.782 184.370 539.570C184.370 539.358 184.454 539.154 184.604 539.004C184.754 538.854 184.958 538.770 185.170 538.770C185.382 538.770 185.586 538.854 185.736 539.004C185.886 539.154 185.970 539.358 185.970 539.570Z" />
<path fill="none" stroke="#000000" stroke-width="0.500" d="M185.170 539.570h0.001" />
<path fill="none" stroke="#000000" stroke-width="0.350" d="M168.490 491.440L172.490 491.440" />
<path fill="none" stroke="#000000" stroke-width="0.350" d="M170.490 489.440L170.490 493.440" />
<path fill="#ffffff" stroke="none" d="M171.290 491.440C171.290 491.652 171.206 491.856 171.056 492.006C170.906 492.156 170.702 492.240 170.490 492.240C170.278 492.240 170.074 492.156 169.924 492.006C169.774 491.856 169.690 491.652 169.690 491.440C169.690 491.228 169.774 491.024 169.924 490.874C170.074 490.724 170.278 490.640 170.490 490.640C170.702 490.640 170.906 490.724 171.056 490.874C171.206 491.024 171.290 491.228 171.290 491.440Z" />
<path fill="none" stroke="#000000" stroke-width="0.500" d="M170.490 491.440h0.001" />
<path fill="none" stroke="#000000" stroke-width="0.350" d="M157.830 404.760L161.830 404.760" />
<path fill="none" stroke="#000000" stroke-width="0.350" d="M159.830 402.760L159.830 406.760" />
<path fill="#ffffff" stroke="none" d="M160.630 404.760C160.630 404.972 160.546 405.176 160.396 405.326C160.246 405.476 160.042 405.560 159.830 405.560C159.618 405.560 159.414 405.476 159.264 405.326C159.114 405.176 159.030 404.972 159.030 404.760C159.030 404.548 159.114 404.344 159.264 404.194C159.414 404.044 159.618 403.960 159.830 403.960C160.042 403.960 160.246 404.044 160.396 404.194C160.546 404.344 160.630 404.548 160.630 404.760Z" />
<path fill="none" stroke="#000000" stroke-width="0.500" d="M159.830 404.760h0.001" />
<path fill="none" stroke="#000000" stroke-width="0.350" d="M121.890 377.710L125.890 377.710" />
<path fill="none" stroke="#000000" stroke-width="0.350" d="M123.890 375.710L123.890 379.710" />
<path fill="#ffffff" stroke="none" d="M124.690 377.710C124.690 377.922 124.606 378.126 124.456 378.276C124.306 378.426 124.102 378.510 123.890 378.510C123.678 378.510 123.474 378.426 123.324 378.276C123.174 378.126 123.090 377.922 123.090 377.710C123.090 377.498 123.174 377.294 123.324 377.144C123.474 376.994 123.678 376.910 123.890 376.910C124.102 376.910 124.306 376.994 124.456 377.144C124.606 377.294 124.690 377.498 124.690 377.710Z" />
<path fill="none" stroke="#000000" stroke-width="0.500" d="M123.890 377.710h0.001" />
<path fill="none" stroke="#000000" stroke-width="0.350" d="M78.120 269.260L82.120 269.260" />
<path fill="none" stroke="#000000" stroke-width="0.350" d="M80.120 267.260L80.120 271.260" />
<path fill="#ffffff" stroke="none" d="M80.920 269.260C80.920 269.472 80.836 269.676 80.686 269.826C80.536 269.976 80.332 270.060 80.120 270.060C79.908 270.060 79.704 269.976 79.554 269.826C79.404 269.676 79.320 269.472 79.320 269.260C79.320 269.048 79.404 268.844 79.554 268.694C79.704 268.544 79.908 268.460 80.120 268.460C80.332 268.460 80.536 268.544 80.686 268.694C80.836 268.844 80.920 269.048 80.920 269.260Z" />
<path fill="none" stroke="#000000" stroke-width="0.500" d="M80.120 269.260h0.001" />
<path fill="none" stroke="#000000" stroke-width="0.350" d="M83.000 222.430L87.000 222.430" />
<path fill="none" stroke="#000000" stroke-width="0.350" d="M85.000 220.430L85.000 224.430" />
<path fill="#ffffff" stroke="none" d="M85.800 222.430C85.800 222.642 85.716 222.846 85.566 222.996C85.416 223.146 85.212 223.230 85.000 223.230C84.788 223.230 84.584 223.146 84.434 222.996C84.284 222.846 84.200 222.642 84.200 222.430C84.200 222.218 84.284 222.014 84.434 221.864C84.584 221.714 84.788 221.630 85.000 221.630C85.212 221.630 85.416 221.714 85.566 221.864C85.716 222.014 85.800 222.218 85.800 222.430Z" />
<path fill="none" stroke="#000000" stroke-width="0.500" d="M85.000 222.430h0.001" />
<path fill="none" stroke="#000000" stroke-width="0.350" d="M48.580 186.770L52.580 186.770" />
<path fill="none" stroke="#000000" stroke-width="0.350" d="M50.580 184.770L50.580 188.770" />
<path fill="#ffffff" stroke="none" d="M51.380 186.770C51.380 186.982 51.296 187.186 51.146 187.336C50.996 187.486 50.792 187.570 50.580 187.570C50.368 187.570 50.164 187.486 50.014 187.336C49.864 187.186 49.780 186.982 49.780 186.770C49.780 186.558 49.864 186.354 50.014 186.204C50.164 186.054 50.368 185.970 50.580 185.970C50.792 185.970 50.996 186.054 51.146 186.204C51.296 186.354 51.380 186.558 51.380 186.770Z" />
<path fill="none" stroke="#000000" stroke-width="0.500" d="M50.580 186.770h0.001" />
<path fill="none" stroke="#000000" stroke-width="0.350" d="M48.810 171.470L52.810 171.470" />
<path fill="none" stroke="#000000" stroke-width="0.350" d="M50.810 169.470L50.810 173.470" />
<path fill="#ffffff" stroke="none" d="M51.610 171.470C51.610 171.682 51.526 171.886 51.376 172.036C51.226 172.186 51.022 172.270 50.810 172.270C50.598 172.270 50.394 172.186 50.244 172.036C50.094 171.886 50.010 171.682 50.010 171.470C50.010 171.258 50.094 171.054 50.244 170.904C50.394 170.754 50.598 170.670 50.810 170.670C51.022 170.670 51.226 170.754 51.376 170.904C51.526 171.054 51.610 171.258 51.610 171.470Z" />
<path fill="none" stroke="#000000" stroke-width="0.500" d="M50.810 171.470h0.001" />
<path fill="none" stroke="#000000" stroke-width="0.350" d="M27.320 151.400L31.320 151.400" />
<path fill="none" stroke="#000000" stroke-width="0.350" d="M29.320 149.400L29.320 153.400" />
<path fill="#ffffff" stroke="none" d="M30.120 151.400C30.120 151.612 30.036 151.816 29.886 151.966C29.736 152.116 29.532 152.200 29.320 152.200C29.108 152.200 28.904 152.116 28.754 151.966C28.604 151.816 28.520 151.612 28.520 151.400C28.520 151.188 28.604 150.984 28.754 150.834C28.904 150.684 29.108 150.600 29.320 150.600C29.532 150.600 29.736 150.684 29.886 150.834C30.036 150.984 30.120 151.188 30.120 151.400Z" />
<path fill="none" stroke="#000000" stroke-width="0.500" d="M29.320 151.400h0.001" />
<path fill="none" stroke="#000000" stroke-width="0.350" d="M16.380 126.910L20.380 126.910" />
<path fill="none" stroke="#000000" stroke-width="0.350" d="M18.380 124.910L18.380 128.910" />
<path fill="#ffffff" stroke="none" d="M19.180 126.910C19.180 127.122 19.096 127.326 18.946 127.476C18.796 127.626 18.592 127.710 18.380 127.710C18.168 127.710 17.964 127.626 17.814 127.476C17.664 127.326 17.580 127.122 17.580 126.910C17.580 126.698 17.664 126.494 17.814 126.344C17.964 126.194 18.168 126.110 18.380 126.110C18.592 126.110 18.796 126.194 18.946 126.344C19.096 126.494 19.180 126.698 19.180 126.910Z" />
<path fill="none" stroke="#000000" stroke-width="0.500" d="M18.380 126.910h0.001" />
<path fill="none" stroke="#000000" stroke-width="0.350" d="M0.740 72.200L4.740 72.200" />
<path fill="none" stroke="#000000" stroke-width="0.350" d="M2.740 70.200L2.740 74.200" />
<path fill="#ffffff" stroke="none" d="M3.540 72.200C3.540 72.412 3.456 72.616 3.306 72.766C3.156 72.916 2.952 73.000 2.740 73.000C2.528 73.000 2.324 72.916 2.174 72.766C2.024 72.616 1.940 72.412 1.940 72.200C1.940 71.988 2.024 71.784 2.174 71.634C2.324 71.484 2.528 71.400 2.740 71.400C2.952 71.400 3.156 71.484 3.306 71.634C3.456 71.784 3.540 71.988 3.540 72.200Z" />
<path fill="none" stroke="#000000" stroke-width="0.500" d="M2.740 72.200h0.001" />
<path fill="none" stroke="#000000" stroke-width="0.350" d="M41.330 58.990L45.330 58.990" />
<path fill="none" stroke="#000000" stroke-width="0.350" d="M43.330 56.990L43.330 60.990" />
<path fill="#ffffff" stroke="none" d="M44.130 58.990C44.130 59.202 44.046 59.406 43.896 59.556C43.746 59.706 43.542 59.790 43.330 59.790C43.118 59.790 42.914 59.706 42.764 59.556C42.614 59.406 42.530 59.202 42.530 58.990C42.530 58.778 42.614 58.574 42.764 58.424C42.914 58.274 43.118 58.190 43.330 58.190C43.542 58.190 43.746 58.274 43.896 58.424C44.046 58.574 44.130 58.778 44.130 58.990Z" />
<path fill="none" stroke="#000000" stroke-width="0.500" d="M43.330 58.990h0.001" />
<path fill="none" stroke="#000000" stroke-width="0.350" d="M60.550 55.250L64.550 55.250" />
<path fill="none" stroke="#000000" stroke-width="0.350" d="M62.550 53.250L62.550 57.250" />
<path fill="#ffffff" stroke="none" d="M63.350 55.250C63.350 55.462 63.266 55.666 63.116 55.816C62.966 55.966 62.762 56.050 62.550 56.050C62.338 56.050 62.134 55.966 61.984 55.816C61.834 55.666 61.750 55.462 61.750 55.250C61.750 55.038 61.834 54.834 61.984 54.684C62.134 54.534 62.338 54.450 62.550 54.450C62.762 54.450 62.966 54.534 63.116 54.684C63.266 54.834 63.350 55.038 63.350 55.250Z" />
<path fill="none" stroke="#000000" stroke-width="0.500" d="M62.550 55.250h0.001" />
<path fill="none" stroke="#000000" stroke-width="0.350" d="M73.640 9.610L77.640 9.610" />
<path fill="none" stroke="#000000" stroke-width="0.350" d="M75.640 7.610L75.640 11.610" />
<path fill="#ffffff" stroke="none" d="M76.440 9.610C76.440 9.822 76.356 10.026 76.206 10.176C76.056 10.326 75.852 10.410 75.640 10.410C75.428 10.410 75.224 10.326 75.074 10.176C74.924 10.026 74.840 9.822 74.840 9.610C74.840 9.398 74.924 9.194 75.074 9.044C75.224 8.894 75.428 8.810 75.640 8.810C75.852 8.810 76.056 8.894 76.206 9.044C76.356 9.194 76.440 9.398 76.440 9.610Z" />
<path fill="none" stroke="#000000" stroke-width="0.500" d="M75.640 9.610h0.001" />
<path fill="none" stroke="#000000" stroke-width="0.350" d="M67.180 2.920L71.180 2.920" />
<path fill="none" stroke="#000000" stroke-width="0.350" d="M69.180 0.920L69.180 4.920" />
<path fill="#ffffff" stroke="none" d="M69.980 2.920C69.980 3.132 69.896 3.336 69.746 3.486C69.596 3.636 69.392 3.720 69.180 3.720C68.968 3.720 68.764 3.636 68.614 3.486C68.464 3.336 68.380 3.132 68.380 2.920C68.380 2.708 68.464 2.504 68.614 2.354C68.764 2.204 68.968 2.120 69.180 2.120C69.392 2.120 69.596 2.204 69.746 2.354C69.896 2.504 69.980 2.708 69.980 2.920Z" />
<path fill="none" stroke="#000000" stroke-width="0.500" d="M69.180 2.920h0.001" />
</g>
<g id="X_aaaaaaa_potato.svg">
<text font-family="cmss10" font-size="6.974" fill="black" stroke="none" transform="matrix(1.000 0.000 -0.000 -1.000 97.495 1160.955)">&#x31;</text>
<text font-family="cmss10" font-size="6.974" fill="black" stroke="none" transform="matrix(1.000 0.000 -0.000 -1.000 121.705 1117.245)">&#x32;</text>
<text font-family="cmss10" font-size="6.974" fill="black" stroke="none" transform="matrix(1.000 0.000 -0.000 -1.000 132.425 1062.255)">&#x33;</text>
<text font-family="cmss10" font-size="6.974" fill="black" stroke="none" transform="matrix(1.000 0.000 -0.000 -1.000 133.835 982.095)">&#x34;</text>
<text font-family="cmss10" font-size="6.974" fill="black" stroke="none" transform="matrix(1.000 0.000 -0.000 -1.000 122.105 959.075)">&#x35;</text>
<text font-family="cmss10" font-size="6.974" fill="black" stroke="none" transform="matrix(1.000 0.000 -0.000 -1.000 133.215 800.165)">&#x36;</text>
<text font-family="cmss10" font-size="6.974" fill="black" stroke="none" transform="matrix(1.000 0.000 -0.000 -1.000 173.355 748.795)">&#x37;</text>
<text font-family="cmss10" font-size="6.974" fill="black" stroke="none" transform="matrix(1.000 0.000 -0.000 -1.000 193.135 674.875)">&#x38;</text>
<text font-family="cmss10" font-size="6.974" fill="black" stroke="none" transform="matrix(1.000 0.000 -0.000 -1.000 138.715 678.675)">&#x39;</text>
<text font-family="cmss10" font-size="6.974" fill="black" stroke="none" transform="matrix(1.000 0.000 -0.000 -1.000 147.045 631.215)">&#x31;&#x30;</text>
<text font-family="cmss10" font-size="6.974" fill="black" stroke="none" transform="matrix(1.000 0.000 -0.000 -1.000 183.045 537.445)">&#x31;&#x31;</text>
<text font-family="cmss10" font-size="6.974" fill="black" stroke="none" transform="matrix(1.000 0.000 -0.000 -1.000 168.365 489.315)">&#x31;&#x32;</text>
<text font-family="cmss10" font-size="6.974" fill="black" stroke="none" transform="matrix(1.000 0.000 -0.000 -1.000 157.705 402.635)">&#x31;&#x33;</text>
<text font-family="cmss10" font-size="6.974" fill="black" stroke="none" transform="matrix(1.000 0.000 -0.000 -1.000 121.765 375.585)">&#x31;&#x34;</text>
<text font-family="cmss10" font-size="6.974" fill="black" stroke="none" transform="matrix(1.000 0.000 -0.000 -1.000 77.995 267.135)">&#x31;&#x35;</text>
<text font-family="cmss10" font-size="6.974" fill="black" stroke="none" transform="matrix(1.000 0.000 -0.000 -1.000 82.875 220.305)">&#x31;&#x36;</text>
<text font-family="cmss10" font-size="6.974" fill="black" stroke="none" transform="matrix(1.000 0.000 -0.000 -1.000 48.455 184.645)">&#x31;&#x37;</text>
<text font-family="cmss10" font-size="6.974" fill="black" stroke="none" transform="matrix(1.000 0.000 -0.000 -1.000 48.685 169.345)">&#x31;&#x38;</text>
<text font-family="cmss10" font-size="6.974" fill="black" stroke="none" transform="matrix(1.000 0.000 -0.000 -1.000 27.195 149.275)">&#x31;&#x39;</text>
<text font-family="cmss10" font-size="6.974" fill="black" stroke="none" transform="matrix(1.000 0.000 -0.000 -1.000 16.255 124.785)">&#x32;&#x30;</text>
<text font-family="cmss10" font-size="6.974" fill="black" stroke="none" transform="matrix(1.000 0.000 -0.000 -1.000 0.615 70.075)">&#x32;&#x31;</text>
<text font-family="cmss10" font-size="6.974" fill="black" stroke="none" transform="matrix(1.000 0.000 -0.000 -1.000 41.205 56.865)">&#x32;&#x32;</text>
<text font-family="cmss10" font-size="6.974" fill="black" stroke="none" transform="matrix(1.000 0.000 -0.000 -1.000 60.425 53.125)">&#x32;&#x33;</text>
<text font-family="cmss10" font-size="6.974" fill="black" stroke="none" transform="matrix(1.000 0.000 -0.000 -1.000 73.515 7.485)">&#x32;&#x34;</text>
<text font-family="cmss10" font-size="6.974" fill="black" stroke="none" transform="matrix(1.000 0.000 -0.000 -1.000 67.055 0.795)">&#x32;&#x35;</text>
</g>
<clipPath id="clip_viewBox">
<path d="M-127.970 -1191.428L128.723 -1191.428L128.723 34.265L-127.970 34.265z" />
</clipPath>
</defs>
<g transform="scale(1,-1)" fill="#000000" stroke="#000000" stroke-linecap="round" stroke-linejoin="round" stroke-miterlimit="10" fill-rule="evenodd" clip-rule="evenodd" clip-path="url(#clip_viewBox)">
<use x="-99.624" y="-1163.082" xlink:href="#E_aaaaaaa_potato.svg" />
<use x="-96.624" y="-1160.082" xlink:href="#X_aaaaaaa_potato.svg" />
</g>
</svg>
