<?xml version="1.0" encoding="UTF-8" standalone="no"?>
<svg
   xmlns:dc="http://purl.org/dc/elements/1.1/"
   xmlns:cc="http://creativecommons.org/ns#"
   xmlns:rdf="http://www.w3.org/1999/02/22-rdf-syntax-ns#"
   xmlns:svg="http://www.w3.org/2000/svg"
   xmlns="http://www.w3.org/2000/svg"
   xmlns:sodipodi="http://sodipodi.sourceforge.net/DTD/sodipodi-0.dtd"
   xmlns:inkscape="http://www.inkscape.org/namespaces/inkscape"
   version="1.1"
   width="448.120mm"
   height="465.800mm"
   viewBox="0 0 448.120 465.800"
   id="svg62"
   sodipodi:docname="ubend_det_extend.svg"
   inkscape:version="0.92.2 5c3e80d, 2017-08-06">
  <metadata
     id="metadata68">
    <rdf:RDF>
      <cc:Work
         rdf:about="">
        <dc:format>image/svg+xml</dc:format>
        <dc:type
           rdf:resource="http://purl.org/dc/dcmitype/StillImage" />
      </cc:Work>
    </rdf:RDF>
  </metadata>
  <defs
     id="defs66" />
  <sodipodi:namedview
     pagecolor="#ffffff"
     bordercolor="#666666"
     borderopacity="1"
     objecttolerance="10"
     gridtolerance="10"
     guidetolerance="10"
     inkscape:pageopacity="0"
     inkscape:pageshadow="2"
     inkscape:window-width="740"
     inkscape:window-height="480"
     id="namedview64"
     showgrid="false"
     inkscape:zoom="0.53621012"
     inkscape:cx="860.59652"
     inkscape:cy="923.02313"
     inkscape:window-x="0"
     inkscape:window-y="0"
     inkscape:window-maximized="0"
     inkscape:current-layer="svg62" />
  <title
     id="title2">ubend_det</title>
  <g
     transform="matrix(-1,0,0,1,445.9683,460.8)"
     id="g60">
    <g
       id="Legs"
       style="fill:none;stroke:#000000;stroke-width:0.40000001px">
      <path
         d="m 200,-203 v -52.8"
         id="path4"
         inkscape:connector-curvature="0" />
      <path
         d="M 215.64,-203 H 200"
         id="path6"
         inkscape:connector-curvature="0" />
      <path
         d="m 224.28,-201.6 -8.64,-1.4"
         id="path8"
         inkscape:connector-curvature="0" />
      <path
         d="m 226.92,-201.6 h -2.64"
         id="path10"
         inkscape:connector-curvature="0" />
      <path
         d="m 233.16,-200.96 -6.24,-0.64"
         id="path12"
         inkscape:connector-curvature="0" />
      <path
         d="m 233.16,-200.96 4.96,0.96"
         id="path14"
         inkscape:connector-curvature="0" />
    </g>
    <g
       id="Labels"
       font-size="0.600em"
       style="font-size:7.20000029px">
      <text
         transform="translate(200,-255.8)"
         id="text17">7</text>
      <text
         transform="translate(200,-255.8)"
         id="text19">ubend3.8</text>
      <text
         transform="translate(233.16,-200.96)"
         id="text21">1</text>
      <text
         transform="translate(226.92,-201.6)"
         id="text23">2</text>
      <text
         transform="translate(238.12,-200)"
         id="text25">3</text>
      <text
         transform="translate(224.28,-201.6)"
         id="text27">4</text>
      <text
         transform="translate(215.64,-203)"
         id="text29">5</text>
      <text
         transform="translate(200,-203)"
         id="text31">6</text>
    </g>
    <g
       id="Stations"
       style="fill:none;stroke:#000000;stroke-width:0.05px">
      <circle
         id="ubend_det.7"
         cx="200"
         cy="-255.8"
         r="1.131" />
      <path
         d="m 199.2,-256.6 1.6,1.6 m 0,-1.6 -1.6,1.6"
         id="path35"
         inkscape:connector-curvature="0" />
      <circle
         id="circle37"
         cx="200"
         cy="-255.8"
         r="1.131" />
      <path
         d="m 199.2,-256.6 1.6,1.6 m 0,-1.6 -1.6,1.6"
         id="path39"
         inkscape:connector-curvature="0" />
      <circle
         id="ubend_det.1"
         cx="233.16"
         cy="-200.96001"
         r="1.131" />
      <path
         d="m 232.36,-201.76 1.6,1.6 m 0,-1.6 -1.6,1.6"
         id="path42"
         inkscape:connector-curvature="0" />
      <circle
         id="ubend_det.2"
         cx="226.92"
         cy="-201.60001"
         r="1.131" />
      <path
         d="m 226.12,-202.4 1.6,1.6 m 0,-1.6 -1.6,1.6"
         id="path45"
         inkscape:connector-curvature="0" />
      <circle
         id="ubend_det.3"
         cx="238.12"
         cy="-200"
         r="1.131" />
      <path
         d="m 237.32,-200.8 1.6,1.6 m 0,-1.6 -1.6,1.6"
         id="path48"
         inkscape:connector-curvature="0" />
      <circle
         id="ubend_det.4"
         cx="224.28"
         cy="-201.60001"
         r="1.131" />
      <path
         d="m 223.48,-202.4 1.6,1.6 m 0,-1.6 -1.6,1.6"
         id="path51"
         inkscape:connector-curvature="0" />
      <circle
         id="ubend_det.5"
         cx="215.64"
         cy="-203"
         r="1.131" />
      <path
         d="m 214.84,-203.8 1.6,1.6 m 0,-1.6 -1.6,1.6"
         id="path54"
         inkscape:connector-curvature="0" />
      <circle
         id="ubend_det.6"
         cx="200"
         cy="-203"
         r="1.131" />
      <path
         d="m 199.2,-203.8 1.6,1.6 m 0,-1.6 -1.6,1.6"
         id="path57"
         inkscape:connector-curvature="0" />
    </g>
  </g>
</svg>
