<?xml version="1.0" encoding="utf-8" standalone="no"?>
<!-- Generated by Therion 5.4.1+? (compiled on 2018-06-25) -->
<!DOCTYPE svg PUBLIC "-//W3C//DTD SVG 1.1//EN" "http://www.w3.org/Graphics/SVG/1.1/DTD/svg11.dtd">
<svg width="12.830cm" height="18.827cm" viewBox="-330.157 -487.833 363.693 533.693" xmlns="http://www.w3.org/2000/svg" xmlns:xlink="http://www.w3.org/1999/xlink">
<defs>
<g id="F_aaaaaaa_soda.svg">
</g>
<g id="G_aaaaaaa_soda.svg">
</g>
<g id="B_aaaaaaa_soda.svg">
</g>
<g id="I_aaaaaaa_soda.svg">
</g>
<g id="E_aaaaaaa_soda.svg">
<path fill="none" stroke="#000000" stroke-width="0.500" d="M301.810 17.510L297.450 3.170" />
<path fill="none" stroke="#000000" stroke-width="0.500" d="M297.450 3.170L266.430 20.350" />
<path fill="none" stroke="#000000" stroke-width="0.500" d="M297.450 3.170L301.810 17.510" />
<path fill="none" stroke="#000000" stroke-width="0.500" d="M266.430 20.350L271.650 39.790" />
<path fill="none" stroke="#000000" stroke-width="0.500" d="M266.430 20.350L297.450 3.170" />
<path fill="none" stroke="#000000" stroke-width="0.500" d="M271.650 39.790L252.710 54.590" />
<path fill="none" stroke="#000000" stroke-width="0.500" d="M271.650 39.790L266.430 20.350" />
<path fill="none" stroke="#000000" stroke-width="0.500" d="M252.710 54.590L231.850 70.920" />
<path fill="none" stroke="#000000" stroke-width="0.500" d="M252.710 54.590L271.650 39.790" />
<path fill="none" stroke="#000000" stroke-width="0.500" d="M231.850 70.920L215.640 66.270" />
<path fill="none" stroke="#000000" stroke-width="0.500" d="M231.850 70.920L252.710 54.590" />
<path fill="none" stroke="#000000" stroke-width="0.500" d="M215.640 66.270L209.570 61.850" />
<path fill="none" stroke="#000000" stroke-width="0.500" d="M215.640 66.270L231.850 70.920" />
<path fill="none" stroke="#000000" stroke-width="0.500" d="M209.570 61.850L193.240 77.100" />
<path fill="none" stroke="#000000" stroke-width="0.500" d="M209.570 61.850L215.640 66.270" />
<path fill="none" stroke="#000000" stroke-width="0.500" d="M193.240 77.100L180.320 81.800" />
<path fill="none" stroke="#000000" stroke-width="0.500" d="M193.240 77.100L209.570 61.850" />
<path fill="none" stroke="#000000" stroke-width="0.500" d="M180.320 81.800L157.470 103.120" />
<path fill="none" stroke="#000000" stroke-width="0.500" d="M180.320 81.800L193.240 77.100" />
<path fill="none" stroke="#000000" stroke-width="0.500" d="M157.470 103.120L137.570 104.880" />
<path fill="none" stroke="#000000" stroke-width="0.500" d="M157.470 103.120L180.320 81.800" />
<path fill="none" stroke="#000000" stroke-width="0.500" d="M137.570 104.880L130.090 102.440" />
<path fill="none" stroke="#000000" stroke-width="0.500" d="M137.570 104.880L157.470 103.120" />
<path fill="none" stroke="#000000" stroke-width="0.500" d="M130.090 102.440L112.120 106.920" />
<path fill="none" stroke="#000000" stroke-width="0.500" d="M130.090 102.440L137.570 104.880" />
<path fill="none" stroke="#000000" stroke-width="0.500" d="M112.120 106.920L115.630 67.120" />
<path fill="none" stroke="#000000" stroke-width="0.500" d="M112.120 106.920L130.090 102.440" />
<path fill="none" stroke="#000000" stroke-width="0.500" d="M115.630 67.120L78.330 108.510" />
<path fill="none" stroke="#000000" stroke-width="0.500" d="M115.630 67.120L112.120 106.920" />
<path fill="none" stroke="#000000" stroke-width="0.500" d="M78.330 108.510L57.690 121.370" />
<path fill="none" stroke="#000000" stroke-width="0.500" d="M78.330 108.510L115.630 67.120" />
<path fill="none" stroke="#000000" stroke-width="0.500" d="M57.690 121.370L57.690 121.370" />
<path fill="none" stroke="#000000" stroke-width="0.500" d="M57.690 121.370L78.330 108.510" />
<path fill="none" stroke="#000000" stroke-width="0.500" d="M57.690 121.370L39.950 146.720" />
<path fill="none" stroke="#000000" stroke-width="0.500" d="M57.690 121.370L57.690 121.370" />
<path fill="none" stroke="#000000" stroke-width="0.500" d="M39.950 146.720L38.300 128.060" />
<path fill="none" stroke="#000000" stroke-width="0.500" d="M39.950 146.720L40.290 165.480" />
<path fill="none" stroke="#000000" stroke-width="0.500" d="M39.950 146.720L57.690 121.370" />
<path fill="none" stroke="#000000" stroke-width="0.500" d="M40.290 165.480L25.040 179.200" />
<path fill="none" stroke="#000000" stroke-width="0.500" d="M40.290 165.480L39.950 146.720" />
<path fill="none" stroke="#000000" stroke-width="0.500" d="M25.040 179.200L10.410 202.670" />
<path fill="none" stroke="#000000" stroke-width="0.500" d="M25.040 179.200L40.290 165.480" />
<path fill="none" stroke="#000000" stroke-width="0.500" d="M10.410 202.670L8.200 191.500" />
<path fill="none" stroke="#000000" stroke-width="0.500" d="M10.410 202.670L25.040 179.200" />
<path fill="none" stroke="#000000" stroke-width="0.500" d="M8.200 191.500L10.520 224.220" />
<path fill="none" stroke="#000000" stroke-width="0.500" d="M8.200 191.500L10.410 202.670" />
<path fill="none" stroke="#000000" stroke-width="0.500" d="M10.520 224.220L12.220 257.040" />
<path fill="none" stroke="#000000" stroke-width="0.500" d="M10.520 224.220L8.200 191.500" />
<path fill="none" stroke="#000000" stroke-width="0.500" d="M12.220 257.040L4.000 287.770" />
<path fill="none" stroke="#000000" stroke-width="0.500" d="M12.220 257.040L10.520 224.220" />
<path fill="none" stroke="#000000" stroke-width="0.500" d="M4.000 287.770L12.220 257.040" />
<path fill="none" stroke="#000000" stroke-width="0.500" d="M63.130 392.880L63.130 334.480" />
<path fill="none" stroke="#000000" stroke-width="0.500" d="M63.130 392.880L2.190 470.830" />
<path fill="none" stroke="#000000" stroke-width="0.500" d="M2.190 470.830L63.130 392.880" />
<path fill="none" stroke="#000000" stroke-width="0.500" d="M63.130 334.480L72.030 295.880" />
<path fill="none" stroke="#000000" stroke-width="0.500" d="M63.130 334.480L63.130 392.880" />
<path fill="none" stroke="#000000" stroke-width="0.500" d="M72.030 295.880L77.140 254.040" />
<path fill="none" stroke="#000000" stroke-width="0.500" d="M72.030 295.880L63.130 334.480" />
<path fill="none" stroke="#000000" stroke-width="0.500" d="M77.140 254.040L75.210 198.480" />
<path fill="none" stroke="#000000" stroke-width="0.500" d="M77.140 254.040L72.030 295.880" />
<path fill="none" stroke="#000000" stroke-width="0.500" d="M75.210 198.480L41.310 94.050" />
<path fill="none" stroke="#000000" stroke-width="0.500" d="M75.210 198.480L77.140 254.040" />
<path fill="none" stroke="#000000" stroke-width="0.500" d="M41.310 94.050L41.310 94.050" />
<path fill="none" stroke="#000000" stroke-width="0.500" d="M41.310 94.050L75.210 198.480" />
<path fill="none" stroke="#000000" stroke-width="0.500" d="M41.310 94.050L38.300 128.060" />
<path fill="none" stroke="#000000" stroke-width="0.500" d="M41.310 94.050L41.310 94.050" />
<path fill="none" stroke="#000000" stroke-width="0.500" d="M38.300 128.060L39.950 146.720" />
<path fill="none" stroke="#000000" stroke-width="0.500" d="M38.300 128.060L41.310 94.050" />
<path fill="none" stroke="#000000" stroke-width="0.350" d="M299.810 17.510L303.810 17.510" />
<path fill="none" stroke="#000000" stroke-width="0.350" d="M301.810 15.510L301.810 19.510" />
<path fill="#ffffff" stroke="none" d="M302.610 17.510C302.610 17.722 302.526 17.926 302.376 18.076C302.226 18.226 302.022 18.310 301.810 18.310C301.598 18.310 301.394 18.226 301.244 18.076C301.094 17.926 301.010 17.722 301.010 17.510C301.010 17.298 301.094 17.094 301.244 16.944C301.394 16.794 301.598 16.710 301.810 16.710C302.022 16.710 302.226 16.794 302.376 16.944C302.526 17.094 302.610 17.298 302.610 17.510Z" />
<path fill="none" stroke="#000000" stroke-width="0.500" d="M301.810 17.510h0.001" />
<path fill="none" stroke="#000000" stroke-width="0.350" d="M295.450 3.170L299.450 3.170" />
<path fill="none" stroke="#000000" stroke-width="0.350" d="M297.450 1.170L297.450 5.170" />
<path fill="#ffffff" stroke="none" d="M298.250 3.170C298.250 3.382 298.166 3.586 298.016 3.736C297.866 3.886 297.662 3.970 297.450 3.970C297.238 3.970 297.034 3.886 296.884 3.736C296.734 3.586 296.650 3.382 296.650 3.170C296.650 2.958 296.734 2.754 296.884 2.604C297.034 2.454 297.238 2.370 297.450 2.370C297.662 2.370 297.866 2.454 298.016 2.604C298.166 2.754 298.250 2.958 298.250 3.170Z" />
<path fill="none" stroke="#000000" stroke-width="0.500" d="M297.450 3.170h0.001" />
<path fill="none" stroke="#000000" stroke-width="0.350" d="M264.430 20.350L268.430 20.350" />
<path fill="none" stroke="#000000" stroke-width="0.350" d="M266.430 18.350L266.430 22.350" />
<path fill="#ffffff" stroke="none" d="M267.230 20.350C267.230 20.562 267.146 20.766 266.996 20.916C266.846 21.066 266.642 21.150 266.430 21.150C266.218 21.150 266.014 21.066 265.864 20.916C265.714 20.766 265.630 20.562 265.630 20.350C265.630 20.138 265.714 19.934 265.864 19.784C266.014 19.634 266.218 19.550 266.430 19.550C266.642 19.550 266.846 19.634 266.996 19.784C267.146 19.934 267.230 20.138 267.230 20.350Z" />
<path fill="none" stroke="#000000" stroke-width="0.500" d="M266.430 20.350h0.001" />
<path fill="none" stroke="#000000" stroke-width="0.350" d="M269.650 39.790L273.650 39.790" />
<path fill="none" stroke="#000000" stroke-width="0.350" d="M271.650 37.790L271.650 41.790" />
<path fill="#ffffff" stroke="none" d="M272.450 39.790C272.450 40.002 272.366 40.206 272.216 40.356C272.066 40.506 271.862 40.590 271.650 40.590C271.438 40.590 271.234 40.506 271.084 40.356C270.934 40.206 270.850 40.002 270.850 39.790C270.850 39.578 270.934 39.374 271.084 39.224C271.234 39.074 271.438 38.990 271.650 38.990C271.862 38.990 272.066 39.074 272.216 39.224C272.366 39.374 272.450 39.578 272.450 39.790Z" />
<path fill="none" stroke="#000000" stroke-width="0.500" d="M271.650 39.790h0.001" />
<path fill="none" stroke="#000000" stroke-width="0.350" d="M250.710 54.590L254.710 54.590" />
<path fill="none" stroke="#000000" stroke-width="0.350" d="M252.710 52.590L252.710 56.590" />
<path fill="#ffffff" stroke="none" d="M253.510 54.590C253.510 54.802 253.426 55.006 253.276 55.156C253.126 55.306 252.922 55.390 252.710 55.390C252.498 55.390 252.294 55.306 252.144 55.156C251.994 55.006 251.910 54.802 251.910 54.590C251.910 54.378 251.994 54.174 252.144 54.024C252.294 53.874 252.498 53.790 252.710 53.790C252.922 53.790 253.126 53.874 253.276 54.024C253.426 54.174 253.510 54.378 253.510 54.590Z" />
<path fill="none" stroke="#000000" stroke-width="0.500" d="M252.710 54.590h0.001" />
<path fill="none" stroke="#000000" stroke-width="0.350" d="M229.850 70.920L233.850 70.920" />
<path fill="none" stroke="#000000" stroke-width="0.350" d="M231.850 68.920L231.850 72.920" />
<path fill="#ffffff" stroke="none" d="M232.650 70.920C232.650 71.132 232.566 71.336 232.416 71.486C232.266 71.636 232.062 71.720 231.850 71.720C231.638 71.720 231.434 71.636 231.284 71.486C231.134 71.336 231.050 71.132 231.050 70.920C231.050 70.708 231.134 70.504 231.284 70.354C231.434 70.204 231.638 70.120 231.850 70.120C232.062 70.120 232.266 70.204 232.416 70.354C232.566 70.504 232.650 70.708 232.650 70.920Z" />
<path fill="none" stroke="#000000" stroke-width="0.500" d="M231.850 70.920h0.001" />
<path fill="none" stroke="#000000" stroke-width="0.350" d="M213.640 66.270L217.640 66.270" />
<path fill="none" stroke="#000000" stroke-width="0.350" d="M215.640 64.270L215.640 68.270" />
<path fill="#ffffff" stroke="none" d="M216.440 66.270C216.440 66.482 216.356 66.686 216.206 66.836C216.056 66.986 215.852 67.070 215.640 67.070C215.428 67.070 215.224 66.986 215.074 66.836C214.924 66.686 214.840 66.482 214.840 66.270C214.840 66.058 214.924 65.854 215.074 65.704C215.224 65.554 215.428 65.470 215.640 65.470C215.852 65.470 216.056 65.554 216.206 65.704C216.356 65.854 216.440 66.058 216.440 66.270Z" />
<path fill="none" stroke="#000000" stroke-width="0.500" d="M215.640 66.270h0.001" />
<path fill="none" stroke="#000000" stroke-width="0.350" d="M207.570 61.850L211.570 61.850" />
<path fill="none" stroke="#000000" stroke-width="0.350" d="M209.570 59.850L209.570 63.850" />
<path fill="#ffffff" stroke="none" d="M210.370 61.850C210.370 62.062 210.286 62.266 210.136 62.416C209.986 62.566 209.782 62.650 209.570 62.650C209.358 62.650 209.154 62.566 209.004 62.416C208.854 62.266 208.770 62.062 208.770 61.850C208.770 61.638 208.854 61.434 209.004 61.284C209.154 61.134 209.358 61.050 209.570 61.050C209.782 61.050 209.986 61.134 210.136 61.284C210.286 61.434 210.370 61.638 210.370 61.850Z" />
<path fill="none" stroke="#000000" stroke-width="0.500" d="M209.570 61.850h0.001" />
<path fill="none" stroke="#000000" stroke-width="0.350" d="M191.240 77.100L195.240 77.100" />
<path fill="none" stroke="#000000" stroke-width="0.350" d="M193.240 75.100L193.240 79.100" />
<path fill="#ffffff" stroke="none" d="M194.040 77.100C194.040 77.312 193.956 77.516 193.806 77.666C193.656 77.816 193.452 77.900 193.240 77.900C193.028 77.900 192.824 77.816 192.674 77.666C192.524 77.516 192.440 77.312 192.440 77.100C192.440 76.888 192.524 76.684 192.674 76.534C192.824 76.384 193.028 76.300 193.240 76.300C193.452 76.300 193.656 76.384 193.806 76.534C193.956 76.684 194.040 76.888 194.040 77.100Z" />
<path fill="none" stroke="#000000" stroke-width="0.500" d="M193.240 77.100h0.001" />
<path fill="none" stroke="#000000" stroke-width="0.350" d="M178.320 81.800L182.320 81.800" />
<path fill="none" stroke="#000000" stroke-width="0.350" d="M180.320 79.800L180.320 83.800" />
<path fill="#ffffff" stroke="none" d="M181.120 81.800C181.120 82.012 181.036 82.216 180.886 82.366C180.736 82.516 180.532 82.600 180.320 82.600C180.108 82.600 179.904 82.516 179.754 82.366C179.604 82.216 179.520 82.012 179.520 81.800C179.520 81.588 179.604 81.384 179.754 81.234C179.904 81.084 180.108 81.000 180.320 81.000C180.532 81.000 180.736 81.084 180.886 81.234C181.036 81.384 181.120 81.588 181.120 81.800Z" />
<path fill="none" stroke="#000000" stroke-width="0.500" d="M180.320 81.800h0.001" />
<path fill="none" stroke="#000000" stroke-width="0.350" d="M155.470 103.120L159.470 103.120" />
<path fill="none" stroke="#000000" stroke-width="0.350" d="M157.470 101.120L157.470 105.120" />
<path fill="#ffffff" stroke="none" d="M158.270 103.120C158.270 103.332 158.186 103.536 158.036 103.686C157.886 103.836 157.682 103.920 157.470 103.920C157.258 103.920 157.054 103.836 156.904 103.686C156.754 103.536 156.670 103.332 156.670 103.120C156.670 102.908 156.754 102.704 156.904 102.554C157.054 102.404 157.258 102.320 157.470 102.320C157.682 102.320 157.886 102.404 158.036 102.554C158.186 102.704 158.270 102.908 158.270 103.120Z" />
<path fill="none" stroke="#000000" stroke-width="0.500" d="M157.470 103.120h0.001" />
<path fill="none" stroke="#000000" stroke-width="0.350" d="M135.570 104.880L139.570 104.880" />
<path fill="none" stroke="#000000" stroke-width="0.350" d="M137.570 102.880L137.570 106.880" />
<path fill="#ffffff" stroke="none" d="M138.370 104.880C138.370 105.092 138.286 105.296 138.136 105.446C137.986 105.596 137.782 105.680 137.570 105.680C137.358 105.680 137.154 105.596 137.004 105.446C136.854 105.296 136.770 105.092 136.770 104.880C136.770 104.668 136.854 104.464 137.004 104.314C137.154 104.164 137.358 104.080 137.570 104.080C137.782 104.080 137.986 104.164 138.136 104.314C138.286 104.464 138.370 104.668 138.370 104.880Z" />
<path fill="none" stroke="#000000" stroke-width="0.500" d="M137.570 104.880h0.001" />
<path fill="none" stroke="#000000" stroke-width="0.350" d="M128.090 102.440L132.090 102.440" />
<path fill="none" stroke="#000000" stroke-width="0.350" d="M130.090 100.440L130.090 104.440" />
<path fill="#ffffff" stroke="none" d="M130.890 102.440C130.890 102.652 130.806 102.856 130.656 103.006C130.506 103.156 130.302 103.240 130.090 103.240C129.878 103.240 129.674 103.156 129.524 103.006C129.374 102.856 129.290 102.652 129.290 102.440C129.290 102.228 129.374 102.024 129.524 101.874C129.674 101.724 129.878 101.640 130.090 101.640C130.302 101.640 130.506 101.724 130.656 101.874C130.806 102.024 130.890 102.228 130.890 102.440Z" />
<path fill="none" stroke="#000000" stroke-width="0.500" d="M130.090 102.440h0.001" />
<path fill="none" stroke="#000000" stroke-width="0.350" d="M110.120 106.920L114.120 106.920" />
<path fill="none" stroke="#000000" stroke-width="0.350" d="M112.120 104.920L112.120 108.920" />
<path fill="#ffffff" stroke="none" d="M112.920 106.920C112.920 107.132 112.836 107.336 112.686 107.486C112.536 107.636 112.332 107.720 112.120 107.720C111.908 107.720 111.704 107.636 111.554 107.486C111.404 107.336 111.320 107.132 111.320 106.920C111.320 106.708 111.404 106.504 111.554 106.354C111.704 106.204 111.908 106.120 112.120 106.120C112.332 106.120 112.536 106.204 112.686 106.354C112.836 106.504 112.920 106.708 112.920 106.920Z" />
<path fill="none" stroke="#000000" stroke-width="0.500" d="M112.120 106.920h0.001" />
<path fill="none" stroke="#000000" stroke-width="0.350" d="M113.630 67.120L117.630 67.120" />
<path fill="none" stroke="#000000" stroke-width="0.350" d="M115.630 65.120L115.630 69.120" />
<path fill="#ffffff" stroke="none" d="M116.430 67.120C116.430 67.332 116.346 67.536 116.196 67.686C116.046 67.836 115.842 67.920 115.630 67.920C115.418 67.920 115.214 67.836 115.064 67.686C114.914 67.536 114.830 67.332 114.830 67.120C114.830 66.908 114.914 66.704 115.064 66.554C115.214 66.404 115.418 66.320 115.630 66.320C115.842 66.320 116.046 66.404 116.196 66.554C116.346 66.704 116.430 66.908 116.430 67.120Z" />
<path fill="none" stroke="#000000" stroke-width="0.500" d="M115.630 67.120h0.001" />
<path fill="none" stroke="#000000" stroke-width="0.350" d="M76.330 108.510L80.330 108.510" />
<path fill="none" stroke="#000000" stroke-width="0.350" d="M78.330 106.510L78.330 110.510" />
<path fill="#ffffff" stroke="none" d="M79.130 108.510C79.130 108.722 79.046 108.926 78.896 109.076C78.746 109.226 78.542 109.310 78.330 109.310C78.118 109.310 77.914 109.226 77.764 109.076C77.614 108.926 77.530 108.722 77.530 108.510C77.530 108.298 77.614 108.094 77.764 107.944C77.914 107.794 78.118 107.710 78.330 107.710C78.542 107.710 78.746 107.794 78.896 107.944C79.046 108.094 79.130 108.298 79.130 108.510Z" />
<path fill="none" stroke="#000000" stroke-width="0.500" d="M78.330 108.510h0.001" />
<path fill="none" stroke="#000000" stroke-width="0.350" d="M55.690 121.370L59.690 121.370" />
<path fill="none" stroke="#000000" stroke-width="0.350" d="M57.690 119.370L57.690 123.370" />
<path fill="#ffffff" stroke="none" d="M58.490 121.370C58.490 121.582 58.406 121.786 58.256 121.936C58.106 122.086 57.902 122.170 57.690 122.170C57.478 122.170 57.274 122.086 57.124 121.936C56.974 121.786 56.890 121.582 56.890 121.370C56.890 121.158 56.974 120.954 57.124 120.804C57.274 120.654 57.478 120.570 57.690 120.570C57.902 120.570 58.106 120.654 58.256 120.804C58.406 120.954 58.490 121.158 58.490 121.370Z" />
<path fill="none" stroke="#000000" stroke-width="0.500" d="M57.690 121.370h0.001" />
<path fill="none" stroke="#000000" stroke-width="0.350" d="M55.690 121.370L59.690 121.370" />
<path fill="none" stroke="#000000" stroke-width="0.350" d="M57.690 119.370L57.690 123.370" />
<path fill="#ffffff" stroke="none" d="M58.490 121.370C58.490 121.582 58.406 121.786 58.256 121.936C58.106 122.086 57.902 122.170 57.690 122.170C57.478 122.170 57.274 122.086 57.124 121.936C56.974 121.786 56.890 121.582 56.890 121.370C56.890 121.158 56.974 120.954 57.124 120.804C57.274 120.654 57.478 120.570 57.690 120.570C57.902 120.570 58.106 120.654 58.256 120.804C58.406 120.954 58.490 121.158 58.490 121.370Z" />
<path fill="none" stroke="#000000" stroke-width="0.500" d="M57.690 121.370h0.001" />
<path fill="none" stroke="#000000" stroke-width="0.350" d="M37.950 146.720L41.950 146.720" />
<path fill="none" stroke="#000000" stroke-width="0.350" d="M39.950 144.720L39.950 148.720" />
<path fill="#ffffff" stroke="none" d="M40.750 146.720C40.750 146.932 40.666 147.136 40.516 147.286C40.366 147.436 40.162 147.520 39.950 147.520C39.738 147.520 39.534 147.436 39.384 147.286C39.234 147.136 39.150 146.932 39.150 146.720C39.150 146.508 39.234 146.304 39.384 146.154C39.534 146.004 39.738 145.920 39.950 145.920C40.162 145.920 40.366 146.004 40.516 146.154C40.666 146.304 40.750 146.508 40.750 146.720Z" />
<path fill="none" stroke="#000000" stroke-width="0.500" d="M39.950 146.720h0.001" />
<path fill="none" stroke="#000000" stroke-width="0.350" d="M38.290 165.480L42.290 165.480" />
<path fill="none" stroke="#000000" stroke-width="0.350" d="M40.290 163.480L40.290 167.480" />
<path fill="#ffffff" stroke="none" d="M41.090 165.480C41.090 165.692 41.006 165.896 40.856 166.046C40.706 166.196 40.502 166.280 40.290 166.280C40.078 166.280 39.874 166.196 39.724 166.046C39.574 165.896 39.490 165.692 39.490 165.480C39.490 165.268 39.574 165.064 39.724 164.914C39.874 164.764 40.078 164.680 40.290 164.680C40.502 164.680 40.706 164.764 40.856 164.914C41.006 165.064 41.090 165.268 41.090 165.480Z" />
<path fill="none" stroke="#000000" stroke-width="0.500" d="M40.290 165.480h0.001" />
<path fill="none" stroke="#000000" stroke-width="0.350" d="M23.040 179.200L27.040 179.200" />
<path fill="none" stroke="#000000" stroke-width="0.350" d="M25.040 177.200L25.040 181.200" />
<path fill="#ffffff" stroke="none" d="M25.840 179.200C25.840 179.412 25.756 179.616 25.606 179.766C25.456 179.916 25.252 180.000 25.040 180.000C24.828 180.000 24.624 179.916 24.474 179.766C24.324 179.616 24.240 179.412 24.240 179.200C24.240 178.988 24.324 178.784 24.474 178.634C24.624 178.484 24.828 178.400 25.040 178.400C25.252 178.400 25.456 178.484 25.606 178.634C25.756 178.784 25.840 178.988 25.840 179.200Z" />
<path fill="none" stroke="#000000" stroke-width="0.500" d="M25.040 179.200h0.001" />
<path fill="none" stroke="#000000" stroke-width="0.350" d="M8.410 202.670L12.410 202.670" />
<path fill="none" stroke="#000000" stroke-width="0.350" d="M10.410 200.670L10.410 204.670" />
<path fill="#ffffff" stroke="none" d="M11.210 202.670C11.210 202.882 11.126 203.086 10.976 203.236C10.826 203.386 10.622 203.470 10.410 203.470C10.198 203.470 9.994 203.386 9.844 203.236C9.694 203.086 9.610 202.882 9.610 202.670C9.610 202.458 9.694 202.254 9.844 202.104C9.994 201.954 10.198 201.870 10.410 201.870C10.622 201.870 10.826 201.954 10.976 202.104C11.126 202.254 11.210 202.458 11.210 202.670Z" />
<path fill="none" stroke="#000000" stroke-width="0.500" d="M10.410 202.670h0.001" />
<path fill="none" stroke="#000000" stroke-width="0.350" d="M6.200 191.500L10.200 191.500" />
<path fill="none" stroke="#000000" stroke-width="0.350" d="M8.200 189.500L8.200 193.500" />
<path fill="#ffffff" stroke="none" d="M9.000 191.500C9.000 191.712 8.916 191.916 8.766 192.066C8.616 192.216 8.412 192.300 8.200 192.300C7.988 192.300 7.784 192.216 7.634 192.066C7.484 191.916 7.400 191.712 7.400 191.500C7.400 191.288 7.484 191.084 7.634 190.934C7.784 190.784 7.988 190.700 8.200 190.700C8.412 190.700 8.616 190.784 8.766 190.934C8.916 191.084 9.000 191.288 9.000 191.500Z" />
<path fill="none" stroke="#000000" stroke-width="0.500" d="M8.200 191.500h0.001" />
<path fill="none" stroke="#000000" stroke-width="0.350" d="M8.520 224.220L12.520 224.220" />
<path fill="none" stroke="#000000" stroke-width="0.350" d="M10.520 222.220L10.520 226.220" />
<path fill="#ffffff" stroke="none" d="M11.320 224.220C11.320 224.432 11.236 224.636 11.086 224.786C10.936 224.936 10.732 225.020 10.520 225.020C10.308 225.020 10.104 224.936 9.954 224.786C9.804 224.636 9.720 224.432 9.720 224.220C9.720 224.008 9.804 223.804 9.954 223.654C10.104 223.504 10.308 223.420 10.520 223.420C10.732 223.420 10.936 223.504 11.086 223.654C11.236 223.804 11.320 224.008 11.320 224.220Z" />
<path fill="none" stroke="#000000" stroke-width="0.500" d="M10.520 224.220h0.001" />
<path fill="none" stroke="#000000" stroke-width="0.350" d="M10.220 257.040L14.220 257.040" />
<path fill="none" stroke="#000000" stroke-width="0.350" d="M12.220 255.040L12.220 259.040" />
<path fill="#ffffff" stroke="none" d="M13.020 257.040C13.020 257.252 12.936 257.456 12.786 257.606C12.636 257.756 12.432 257.840 12.220 257.840C12.008 257.840 11.804 257.756 11.654 257.606C11.504 257.456 11.420 257.252 11.420 257.040C11.420 256.828 11.504 256.624 11.654 256.474C11.804 256.324 12.008 256.240 12.220 256.240C12.432 256.240 12.636 256.324 12.786 256.474C12.936 256.624 13.020 256.828 13.020 257.040Z" />
<path fill="none" stroke="#000000" stroke-width="0.500" d="M12.220 257.040h0.001" />
<path fill="none" stroke="#000000" stroke-width="0.350" d="M2.000 287.770L6.000 287.770" />
<path fill="none" stroke="#000000" stroke-width="0.350" d="M4.000 285.770L4.000 289.770" />
<path fill="#ffffff" stroke="none" d="M4.800 287.770C4.800 287.982 4.716 288.186 4.566 288.336C4.416 288.486 4.212 288.570 4.000 288.570C3.788 288.570 3.584 288.486 3.434 288.336C3.284 288.186 3.200 287.982 3.200 287.770C3.200 287.558 3.284 287.354 3.434 287.204C3.584 287.054 3.788 286.970 4.000 286.970C4.212 286.970 4.416 287.054 4.566 287.204C4.716 287.354 4.800 287.558 4.800 287.770Z" />
<path fill="none" stroke="#000000" stroke-width="0.500" d="M4.000 287.770h0.001" />
<path fill="none" stroke="#000000" stroke-width="0.350" d="M61.130 392.880L65.130 392.880" />
<path fill="none" stroke="#000000" stroke-width="0.350" d="M63.130 390.880L63.130 394.880" />
<path fill="#ffffff" stroke="none" d="M63.930 392.880C63.930 393.092 63.846 393.296 63.696 393.446C63.546 393.596 63.342 393.680 63.130 393.680C62.918 393.680 62.714 393.596 62.564 393.446C62.414 393.296 62.330 393.092 62.330 392.880C62.330 392.668 62.414 392.464 62.564 392.314C62.714 392.164 62.918 392.080 63.130 392.080C63.342 392.080 63.546 392.164 63.696 392.314C63.846 392.464 63.930 392.668 63.930 392.880Z" />
<path fill="none" stroke="#000000" stroke-width="0.500" d="M63.130 392.880h0.001" />
<path fill="none" stroke="#000000" stroke-width="0.350" d="M0.190 470.830L4.190 470.830" />
<path fill="none" stroke="#000000" stroke-width="0.350" d="M2.190 468.830L2.190 472.830" />
<path fill="#ffffff" stroke="none" d="M2.990 470.830C2.990 471.042 2.906 471.246 2.756 471.396C2.606 471.546 2.402 471.630 2.190 471.630C1.978 471.630 1.774 471.546 1.624 471.396C1.474 471.246 1.390 471.042 1.390 470.830C1.390 470.618 1.474 470.414 1.624 470.264C1.774 470.114 1.978 470.030 2.190 470.030C2.402 470.030 2.606 470.114 2.756 470.264C2.906 470.414 2.990 470.618 2.990 470.830Z" />
<path fill="none" stroke="#000000" stroke-width="0.500" d="M2.190 470.830h0.001" />
<path fill="none" stroke="#000000" stroke-width="0.350" d="M61.130 334.480L65.130 334.480" />
<path fill="none" stroke="#000000" stroke-width="0.350" d="M63.130 332.480L63.130 336.480" />
<path fill="#ffffff" stroke="none" d="M63.930 334.480C63.930 334.692 63.846 334.896 63.696 335.046C63.546 335.196 63.342 335.280 63.130 335.280C62.918 335.280 62.714 335.196 62.564 335.046C62.414 334.896 62.330 334.692 62.330 334.480C62.330 334.268 62.414 334.064 62.564 333.914C62.714 333.764 62.918 333.680 63.130 333.680C63.342 333.680 63.546 333.764 63.696 333.914C63.846 334.064 63.930 334.268 63.930 334.480Z" />
<path fill="none" stroke="#000000" stroke-width="0.500" d="M63.130 334.480h0.001" />
<path fill="none" stroke="#000000" stroke-width="0.350" d="M70.030 295.880L74.030 295.880" />
<path fill="none" stroke="#000000" stroke-width="0.350" d="M72.030 293.880L72.030 297.880" />
<path fill="#ffffff" stroke="none" d="M72.830 295.880C72.830 296.092 72.746 296.296 72.596 296.446C72.446 296.596 72.242 296.680 72.030 296.680C71.818 296.680 71.614 296.596 71.464 296.446C71.314 296.296 71.230 296.092 71.230 295.880C71.230 295.668 71.314 295.464 71.464 295.314C71.614 295.164 71.818 295.080 72.030 295.080C72.242 295.080 72.446 295.164 72.596 295.314C72.746 295.464 72.830 295.668 72.830 295.880Z" />
<path fill="none" stroke="#000000" stroke-width="0.500" d="M72.030 295.880h0.001" />
<path fill="none" stroke="#000000" stroke-width="0.350" d="M75.140 254.040L79.140 254.040" />
<path fill="none" stroke="#000000" stroke-width="0.350" d="M77.140 252.040L77.140 256.040" />
<path fill="#ffffff" stroke="none" d="M77.940 254.040C77.940 254.252 77.856 254.456 77.706 254.606C77.556 254.756 77.352 254.840 77.140 254.840C76.928 254.840 76.724 254.756 76.574 254.606C76.424 254.456 76.340 254.252 76.340 254.040C76.340 253.828 76.424 253.624 76.574 253.474C76.724 253.324 76.928 253.240 77.140 253.240C77.352 253.240 77.556 253.324 77.706 253.474C77.856 253.624 77.940 253.828 77.940 254.040Z" />
<path fill="none" stroke="#000000" stroke-width="0.500" d="M77.140 254.040h0.001" />
<path fill="none" stroke="#000000" stroke-width="0.350" d="M73.210 198.480L77.210 198.480" />
<path fill="none" stroke="#000000" stroke-width="0.350" d="M75.210 196.480L75.210 200.480" />
<path fill="#ffffff" stroke="none" d="M76.010 198.480C76.010 198.692 75.926 198.896 75.776 199.046C75.626 199.196 75.422 199.280 75.210 199.280C74.998 199.280 74.794 199.196 74.644 199.046C74.494 198.896 74.410 198.692 74.410 198.480C74.410 198.268 74.494 198.064 74.644 197.914C74.794 197.764 74.998 197.680 75.210 197.680C75.422 197.680 75.626 197.764 75.776 197.914C75.926 198.064 76.010 198.268 76.010 198.480Z" />
<path fill="none" stroke="#000000" stroke-width="0.500" d="M75.210 198.480h0.001" />
<path fill="none" stroke="#000000" stroke-width="0.350" d="M39.310 94.050L43.310 94.050" />
<path fill="none" stroke="#000000" stroke-width="0.350" d="M41.310 92.050L41.310 96.050" />
<path fill="#ffffff" stroke="none" d="M42.110 94.050C42.110 94.262 42.026 94.466 41.876 94.616C41.726 94.766 41.522 94.850 41.310 94.850C41.098 94.850 40.894 94.766 40.744 94.616C40.594 94.466 40.510 94.262 40.510 94.050C40.510 93.838 40.594 93.634 40.744 93.484C40.894 93.334 41.098 93.250 41.310 93.250C41.522 93.250 41.726 93.334 41.876 93.484C42.026 93.634 42.110 93.838 42.110 94.050Z" />
<path fill="none" stroke="#000000" stroke-width="0.500" d="M41.310 94.050h0.001" />
<path fill="none" stroke="#000000" stroke-width="0.350" d="M39.310 94.050L43.310 94.050" />
<path fill="none" stroke="#000000" stroke-width="0.350" d="M41.310 92.050L41.310 96.050" />
<path fill="#ffffff" stroke="none" d="M42.110 94.050C42.110 94.262 42.026 94.466 41.876 94.616C41.726 94.766 41.522 94.850 41.310 94.850C41.098 94.850 40.894 94.766 40.744 94.616C40.594 94.466 40.510 94.262 40.510 94.050C40.510 93.838 40.594 93.634 40.744 93.484C40.894 93.334 41.098 93.250 41.310 93.250C41.522 93.250 41.726 93.334 41.876 93.484C42.026 93.634 42.110 93.838 42.110 94.050Z" />
<path fill="none" stroke="#000000" stroke-width="0.500" d="M41.310 94.050h0.001" />
<path fill="none" stroke="#000000" stroke-width="0.350" d="M36.300 128.060L40.300 128.060" />
<path fill="none" stroke="#000000" stroke-width="0.350" d="M38.300 126.060L38.300 130.060" />
<path fill="#ffffff" stroke="none" d="M39.100 128.060C39.100 128.272 39.016 128.476 38.866 128.626C38.716 128.776 38.512 128.860 38.300 128.860C38.088 128.860 37.884 128.776 37.734 128.626C37.584 128.476 37.500 128.272 37.500 128.060C37.500 127.848 37.584 127.644 37.734 127.494C37.884 127.344 38.088 127.260 38.300 127.260C38.512 127.260 38.716 127.344 38.866 127.494C39.016 127.644 39.100 127.848 39.100 128.060Z" />
<path fill="none" stroke="#000000" stroke-width="0.500" d="M38.300 128.060h0.001" />
</g>
<g id="X_aaaaaaa_soda.svg">
<text font-family="cmss10" font-size="6.974" fill="black" stroke="none" transform="matrix(1.000 0.000 -0.000 -1.000 299.685 14.385)">&#x31;</text>
<text font-family="cmss10" font-size="6.974" fill="black" stroke="none" transform="matrix(1.000 0.000 -0.000 -1.000 295.325 0.045)">&#x32;</text>
<text font-family="cmss10" font-size="6.974" fill="black" stroke="none" transform="matrix(1.000 0.000 -0.000 -1.000 264.305 17.225)">&#x33;</text>
<text font-family="cmss10" font-size="6.974" fill="black" stroke="none" transform="matrix(1.000 0.000 -0.000 -1.000 269.525 36.665)">&#x34;</text>
<text font-family="cmss10" font-size="6.974" fill="black" stroke="none" transform="matrix(1.000 0.000 -0.000 -1.000 250.585 51.465)">&#x35;</text>
<text font-family="cmss10" font-size="6.974" fill="black" stroke="none" transform="matrix(1.000 0.000 -0.000 -1.000 229.725 67.795)">&#x36;</text>
<text font-family="cmss10" font-size="6.974" fill="black" stroke="none" transform="matrix(1.000 0.000 -0.000 -1.000 213.515 63.145)">&#x37;</text>
<text font-family="cmss10" font-size="6.974" fill="black" stroke="none" transform="matrix(1.000 0.000 -0.000 -1.000 207.445 58.725)">&#x38;</text>
<text font-family="cmss10" font-size="6.974" fill="black" stroke="none" transform="matrix(1.000 0.000 -0.000 -1.000 191.115 73.975)">&#x39;</text>
<text font-family="cmss10" font-size="6.974" fill="black" stroke="none" transform="matrix(1.000 0.000 -0.000 -1.000 178.195 78.675)">&#x31;&#x30;</text>
<text font-family="cmss10" font-size="6.974" fill="black" stroke="none" transform="matrix(1.000 0.000 -0.000 -1.000 155.345 99.995)">&#x31;&#x31;</text>
<text font-family="cmss10" font-size="6.974" fill="black" stroke="none" transform="matrix(1.000 0.000 -0.000 -1.000 135.445 101.755)">&#x31;&#x32;</text>
<text font-family="cmss10" font-size="6.974" fill="black" stroke="none" transform="matrix(1.000 0.000 -0.000 -1.000 127.965 99.315)">&#x31;&#x33;</text>
<text font-family="cmss10" font-size="6.974" fill="black" stroke="none" transform="matrix(1.000 0.000 -0.000 -1.000 109.995 103.795)">&#x31;&#x34;</text>
<text font-family="cmss10" font-size="6.974" fill="black" stroke="none" transform="matrix(1.000 0.000 -0.000 -1.000 113.505 63.995)">&#x31;&#x35;</text>
<text font-family="cmss10" font-size="6.974" fill="black" stroke="none" transform="matrix(1.000 0.000 -0.000 -1.000 76.205 105.385)">&#x31;&#x36;</text>
<text font-family="cmss10" font-size="6.974" fill="black" stroke="none" transform="matrix(1.000 0.000 -0.000 -1.000 55.565 118.245)">&#x31;&#x37;</text>
<text font-family="cmss10" font-size="6.974" fill="black" stroke="none" transform="matrix(1.000 0.000 -0.000 -1.000 55.565 118.245)">&#x31;&#x38;</text>
<text font-family="cmss10" font-size="6.974" fill="black" stroke="none" transform="matrix(1.000 0.000 -0.000 -1.000 37.825 143.595)">&#x31;&#x39;</text>
<text font-family="cmss10" font-size="6.974" fill="black" stroke="none" transform="matrix(1.000 0.000 -0.000 -1.000 38.165 162.355)">&#x32;&#x30;</text>
<text font-family="cmss10" font-size="6.974" fill="black" stroke="none" transform="matrix(1.000 0.000 -0.000 -1.000 22.915 176.075)">&#x32;&#x31;</text>
<text font-family="cmss10" font-size="6.974" fill="black" stroke="none" transform="matrix(1.000 0.000 -0.000 -1.000 8.285 199.545)">&#x32;&#x32;</text>
<text font-family="cmss10" font-size="6.974" fill="black" stroke="none" transform="matrix(1.000 0.000 -0.000 -1.000 6.075 188.375)">&#x32;&#x33;</text>
<text font-family="cmss10" font-size="6.974" fill="black" stroke="none" transform="matrix(1.000 0.000 -0.000 -1.000 8.395 221.095)">&#x32;&#x34;</text>
<text font-family="cmss10" font-size="6.974" fill="black" stroke="none" transform="matrix(1.000 0.000 -0.000 -1.000 10.095 253.915)">&#x32;&#x35;</text>
<text font-family="cmss10" font-size="6.974" fill="black" stroke="none" transform="matrix(1.000 0.000 -0.000 -1.000 1.875 284.645)">&#x32;&#x36;</text>
<text font-family="cmss10" font-size="6.974" fill="black" stroke="none" transform="matrix(1.000 0.000 -0.000 -1.000 61.005 389.755)">&#x32;&#x38;</text>
<text font-family="cmss10" font-size="6.974" fill="black" stroke="none" transform="matrix(1.000 0.000 -0.000 -1.000 0.065 467.705)">&#x32;&#x37;</text>
<text font-family="cmss10" font-size="6.974" fill="black" stroke="none" transform="matrix(1.000 0.000 -0.000 -1.000 61.005 331.355)">&#x32;&#x39;</text>
<text font-family="cmss10" font-size="6.974" fill="black" stroke="none" transform="matrix(1.000 0.000 -0.000 -1.000 69.905 292.755)">&#x33;&#x30;</text>
<text font-family="cmss10" font-size="6.974" fill="black" stroke="none" transform="matrix(1.000 0.000 -0.000 -1.000 75.015 250.915)">&#x33;&#x31;</text>
<text font-family="cmss10" font-size="6.974" fill="black" stroke="none" transform="matrix(1.000 0.000 -0.000 -1.000 73.085 195.355)">&#x33;&#x32;</text>
<text font-family="cmss10" font-size="6.974" fill="black" stroke="none" transform="matrix(1.000 0.000 -0.000 -1.000 39.185 90.925)">&#x33;&#x33;</text>
<text font-family="cmss10" font-size="6.974" fill="black" stroke="none" transform="matrix(1.000 0.000 -0.000 -1.000 39.185 90.925)">&#x33;&#x34;</text>
<text font-family="cmss10" font-size="6.974" fill="black" stroke="none" transform="matrix(1.000 0.000 -0.000 -1.000 36.175 124.935)">&#x33;&#x35;</text>
</g>
<clipPath id="clip_viewBox">
<path d="M-330.157 -45.860L33.535 -45.860L33.535 487.833L-330.157 487.833z" />
</clipPath>
</defs>
<g transform="scale(1,-1)" fill="#000000" stroke="#000000" stroke-linecap="round" stroke-linejoin="round" stroke-miterlimit="10" fill-rule="evenodd" clip-rule="evenodd" clip-path="url(#clip_viewBox)">
<use x="-301.811" y="-17.513" xlink:href="#E_aaaaaaa_soda.svg" />
<use x="-298.811" y="-13.513" xlink:href="#X_aaaaaaa_soda.svg" />
</g>
</svg>
