0
SECTION
2
HEADER
9
$EXTMIN
10
0.000000
20
0.000000
30
0.000000
9
$EXTMAX
10
157.800000
20
299.170000
30
52.630000
9
$PDMODE
70
3
9
$PDSIZE
40
  0.80
0
ENDSEC
0
SECTION
2
TABLES
0
TABLE
2
LTYPE
70
10
0
LTYPE
2
CONTINUOUS
70
64
3
Continuous
72
65
73
0
40
0.0
0
LTYPE
2
DASHED
70
64
3
Dashed
72
65
73
2
40
2.5
49
1.25
49
-1.25
0
ENDTAB
0
TABLE
2
LAYER
70
10
0
LAYER
2
CentreLine
70
64
62
5
6
CONTINUOUS
0
LAYER
2
Stations
70
64
62
7
6
CONTINUOUS
0
LAYER
2
Labels
70
64
62
7
6
CONTINUOUS
0
LAYER
2
Surface
70
64
62
5
6
DASHED
0
LAYER
2
SurfaceStations
70
64
62
7
6
CONTINUOUS
0
LAYER
2
SurfaceLabels
70
64
62
7
6
CONTINUOUS
0
LAYER
2
Grid
70
64
62
7
6
CONTINUOUS
0
ENDTAB
0
ENDSEC
0
SECTION
2
ENTITIES
0
LINE
8
Grid
10
100.00
20
  0.00
30
0
11
100.00
21
299.17
31
0
0
LINE
8
Grid
10
  0.00
20
100.00
30
0
11
157.80
21
100.00
31
0
0
LINE
8
Grid
10
  0.00
20
200.00
30
0
11
157.80
21
200.00
31
0
0
LINE
8
CentreLine
10
 69.82
20
249.17
30
  1.05
11
 69.48
21
246.73
31
  0.00
0
LINE
8
CentreLine
10
 69.48
20
246.73
30
  0.00
11
 67.61
21
246.40
31
  5.22
0
LINE
8
CentreLine
10
 67.61
20
246.40
30
  5.22
11
 67.61
21
246.40
31
 23.72
0
LINE
8
CentreLine
10
 67.61
20
246.40
30
 23.72
11
 61.65
21
247.99
31
 22.41
0
LINE
8
CentreLine
10
 61.65
20
247.99
30
 22.41
11
 55.70
21
241.37
31
 25.48
0
LINE
8
CentreLine
10
 61.65
20
247.99
30
 22.41
11
 67.06
21
243.84
31
 20.19
0
LINE
8
CentreLine
10
 67.06
20
243.84
30
 20.19
11
 75.58
21
226.39
31
 19.18
0
LINE
8
CentreLine
10
 75.58
20
226.39
30
 19.18
11
 89.11
21
214.20
31
 20.13
0
LINE
8
CentreLine
10
 89.11
20
214.20
30
 20.13
11
 94.46
21
208.76
31
 21.61
0
LINE
8
CentreLine
10
 94.46
20
208.76
30
 21.61
11
 98.93
21
196.79
31
 19.59
0
LINE
8
CentreLine
10
 98.93
20
196.79
30
 19.59
11
 93.89
21
207.61
31
 17.38
0
LINE
8
CentreLine
10
 93.89
20
207.61
30
 17.38
11
 86.15
21
208.29
31
 19.60
0
LINE
8
CentreLine
10
 86.15
20
208.29
30
 19.60
11
 84.72
21
196.65
31
 21.88
0
LINE
8
CentreLine
10
 84.72
20
196.65
30
 21.88
11
 83.42
21
189.64
31
 23.20
0
LINE
8
CentreLine
10
 83.42
20
189.64
30
 23.20
11
 90.76
21
166.36
31
 24.70
0
LINE
8
CentreLine
10
 90.76
20
166.36
30
 24.70
11
 97.83
21
160.64
31
 24.86
0
LINE
8
CentreLine
10
 97.83
20
160.64
30
 24.86
11
101.22
21
150.21
31
 25.24
0
LINE
8
CentreLine
10
101.22
20
150.21
30
 25.24
11
107.80
21
138.34
31
 31.28
0
LINE
8
CentreLine
10
107.80
20
138.34
30
 31.28
11
 97.07
21
130.26
31
 37.26
0
LINE
8
CentreLine
10
 97.07
20
130.26
30
 37.26
11
 95.66
21
128.45
31
 39.19
0
LINE
8
CentreLine
10
 95.66
20
128.45
30
 39.19
11
 85.97
21
121.15
31
 38.55
0
LINE
8
CentreLine
10
 85.97
20
121.15
30
 38.55
11
 78.08
21
109.88
31
 39.03
0
LINE
8
CentreLine
10
 78.08
20
109.88
30
 39.03
11
 64.60
21
102.10
31
 43.20
0
LINE
8
CentreLine
10
 64.60
20
102.10
30
 43.20
11
 63.54
21
 92.06
31
 46.29
0
LINE
8
CentreLine
10
 63.54
20
 92.06
30
 46.29
11
 65.50
21
 87.86
31
 51.17
0
LINE
8
CentreLine
10
 65.50
20
 87.86
30
 51.17
11
 69.44
21
 78.11
31
 48.93
0
LINE
8
CentreLine
10
 69.44
20
 78.11
30
 48.93
11
 66.69
21
 72.72
31
 47.20
0
LINE
8
CentreLine
10
 66.69
20
 72.72
30
 47.20
11
 57.27
21
 62.62
31
 44.26
0
LINE
8
CentreLine
10
 57.27
20
 62.62
30
 44.26
11
 50.00
21
 67.34
31
 45.79
0
LINE
8
CentreLine
10
 69.44
20
 78.11
30
 48.93
11
 72.11
21
 77.57
31
 49.17
0
LINE
8
CentreLine
10
 72.11
20
 77.57
30
 49.17
11
 75.32
21
 79.73
31
 51.23
0
LINE
8
CentreLine
10
 75.32
20
 79.73
30
 51.23
11
 82.20
21
 80.03
31
 50.51
0
LINE
8
CentreLine
10
 82.20
20
 80.03
30
 50.51
11
 87.85
21
 73.64
31
 47.90
0
LINE
8
CentreLine
10
 87.85
20
 73.64
30
 47.90
11
 86.33
21
 64.97
31
 50.59
0
LINE
8
CentreLine
10
 86.33
20
 64.97
30
 50.59
11
 89.95
21
 58.94
31
 51.20
0
LINE
8
CentreLine
10
 89.95
20
 58.94
30
 51.20
11
 91.33
21
 55.69
31
 52.63
0
LINE
8
CentreLine
10
 91.33
20
 55.69
30
 52.63
11
 98.36
21
 50.00
31
 52.47
000
ENDSEC
000
EOF
