<?xml version="1.0" encoding="UTF-8" standalone="no"?>
<svg
   xmlns:dc="http://purl.org/dc/elements/1.1/"
   xmlns:cc="http://creativecommons.org/ns#"
   xmlns:rdf="http://www.w3.org/1999/02/22-rdf-syntax-ns#"
   xmlns:svg="http://www.w3.org/2000/svg"
   xmlns="http://www.w3.org/2000/svg"
   xmlns:sodipodi="http://sodipodi.sourceforge.net/DTD/sodipodi-0.dtd"
   xmlns:inkscape="http://www.inkscape.org/namespaces/inkscape"
   version="1.1"
   width="513.840mm"
   height="495.640mm"
   viewBox="0 0 513.840 495.640"
   id="svg76"
   sodipodi:docname="tight_and_scrotty_extend.svg"
   inkscape:version="0.92.2 5c3e80d, 2017-08-06">
  <metadata
     id="metadata82">
    <rdf:RDF>
      <cc:Work
         rdf:about="">
        <dc:format>image/svg+xml</dc:format>
        <dc:type
           rdf:resource="http://purl.org/dc/dcmitype/StillImage" />
      </cc:Work>
    </rdf:RDF>
  </metadata>
  <defs
     id="defs80" />
  <sodipodi:namedview
     pagecolor="#ffffff"
     bordercolor="#666666"
     borderopacity="1"
     objecttolerance="10"
     gridtolerance="10"
     guidetolerance="10"
     inkscape:pageopacity="0"
     inkscape:pageshadow="2"
     inkscape:window-width="1268"
     inkscape:window-height="739"
     id="namedview78"
     showgrid="false"
     inkscape:zoom="0.50392757"
     inkscape:cx="569.63813"
     inkscape:cy="938.1563"
     inkscape:window-x="0"
     inkscape:window-y="0"
     inkscape:window-maximized="0"
     inkscape:current-layer="svg76" />
  <title
     id="title2">tight_and_scrotty</title>
  <path
     style="fill:none;stroke:#000000;stroke-width:0.40000001px"
     d="m 212.68917,208.36 -7.16,-3.36"
     id="path4"
     inkscape:connector-curvature="0" />
  <path
     style="fill:none;stroke:#000000;stroke-width:0.40000001px"
     d="m 193.75729,208.36 h 19.2"
     id="path6"
     inkscape:connector-curvature="0" />
  <path
     style="fill:none;stroke:#000000;stroke-width:0.40000001px"
     d="M 193.75729,227.04 V 208.36"
     id="path8"
     inkscape:connector-curvature="0" />
  <path
     style="fill:none;stroke:#000000;stroke-width:0.40000001px"
     d="m 163.79729,224.4 29.96,2.64"
     id="path10"
     inkscape:connector-curvature="0" />
  <path
     style="fill:none;stroke:#000000;stroke-width:0.40000001px"
     d="m 146.19729,223.48 17.6,0.92"
     id="path12"
     inkscape:connector-curvature="0" />
  <path
     style="fill:none;stroke:#000000;stroke-width:0.40000001px"
     d="M 146.19729,237.2 V 223.48"
     id="path14"
     inkscape:connector-curvature="0" />
  <path
     style="fill:none;stroke:#000000;stroke-width:0.40000001px"
     d="m 133.27729,238.32 12.92,-1.12"
     id="path16"
     inkscape:connector-curvature="0" />
  <path
     style="fill:none;stroke:#000000;stroke-width:0.40000001px"
     d="m 116.27729,290.64 17,-52.32"
     id="path18"
     inkscape:connector-curvature="0" />
  <text
     style="font-size:3.88055539px"
     id="text21"
     x="205.52916"
     y="205">9</text>
  <text
     style="font-size:3.88055539px"
     id="text25"
     x="-116.27731"
     y="290.64001"
     transform="scale(-1,1)">1</text>
  <text
     style="font-size:3.88055539px"
     id="text27"
     x="-133.27731"
     y="238.32001"
     transform="scale(-1,1)">2</text>
  <text
     style="font-size:3.88055539px"
     id="text29"
     x="-146.1973"
     y="237.2"
     transform="scale(-1,1)">3</text>
  <text
     style="font-size:3.88055539px"
     id="text31"
     x="-146.1973"
     y="223.48"
     transform="scale(-1,1)">4</text>
  <text
     style="font-size:3.88055539px"
     id="text33"
     x="-163.7973"
     y="224.39999"
     transform="scale(-1,1)">5</text>
  <text
     style="font-size:3.88055539px"
     id="text35"
     x="-193.75737"
     y="227.03999"
     transform="scale(-1,1)">6</text>
  <text
     style="font-size:3.88055539px"
     id="text37"
     x="-193.75737"
     y="208.36"
     transform="scale(-1,1)">7</text>
  <text
     style="font-size:3.88055539px"
     id="text39"
     x="-212.95735"
     y="208.36"
     transform="scale(-1,1)">8</text>
  <circle
     style="fill:none;stroke:#000000;stroke-width:0.05px"
     id="tight_and_scrotty.9"
     cx="205.52916"
     cy="204.99998"
     r="1.131" />
  <path
     style="fill:none;stroke:#000000;stroke-width:0.05px"
     d="m 204.72917,204.2 1.6,1.6 m 0,-1.6 -1.6,1.6"
     id="path43"
     inkscape:connector-curvature="0" />
  <circle
     style="fill:none;stroke:#000000;stroke-width:0.05px"
     id="circle45"
     cx="205.52916"
     cy="204.99998"
     r="1.131" />
  <path
     style="fill:none;stroke:#000000;stroke-width:0.05px"
     d="m 204.72917,204.2 1.6,1.6 m 0,-1.6 -1.6,1.6"
     id="path47"
     inkscape:connector-curvature="0" />
  <circle
     style="fill:none;stroke:#000000;stroke-width:0.05px"
     id="tight_and_scrotty.1"
     cx="-116.27731"
     cy="290.64001"
     r="1.131"
     transform="scale(-1,1)" />
  <path
     style="fill:none;stroke:#000000;stroke-width:0.05px"
     d="m 117.07729,289.84 -1.6,1.6 m 0,-1.6 1.6,1.6"
     id="path50"
     inkscape:connector-curvature="0" />
  <circle
     style="fill:none;stroke:#000000;stroke-width:0.05px"
     id="tight_and_scrotty.2"
     cx="-133.27731"
     cy="238.31999"
     r="1.131"
     transform="scale(-1,1)" />
  <path
     style="fill:none;stroke:#000000;stroke-width:0.05px"
     d="m 134.07729,237.52 -1.6,1.6 m 0,-1.6 1.6,1.6"
     id="path53"
     inkscape:connector-curvature="0" />
  <circle
     style="fill:none;stroke:#000000;stroke-width:0.05px"
     id="tight_and_scrotty.3"
     cx="-146.1973"
     cy="237.2"
     r="1.131"
     transform="scale(-1,1)" />
  <path
     style="fill:none;stroke:#000000;stroke-width:0.05px"
     d="m 146.99729,236.4 -1.6,1.6 m 0,-1.6 1.6,1.6"
     id="path56"
     inkscape:connector-curvature="0" />
  <circle
     style="fill:none;stroke:#000000;stroke-width:0.05px"
     id="tight_and_scrotty.4"
     cx="-146.1973"
     cy="223.48"
     r="1.131"
     transform="scale(-1,1)" />
  <path
     style="fill:none;stroke:#000000;stroke-width:0.05px"
     d="m 146.99729,222.68 -1.6,1.6 m 0,-1.6 1.6,1.6"
     id="path59"
     inkscape:connector-curvature="0" />
  <circle
     style="fill:none;stroke:#000000;stroke-width:0.05px"
     id="tight_and_scrotty.5"
     cx="-163.7973"
     cy="224.40001"
     r="1.131"
     transform="scale(-1,1)" />
  <path
     style="fill:none;stroke:#000000;stroke-width:0.05px"
     d="m 164.59729,223.6 -1.6,1.6 m 0,-1.6 1.6,1.6"
     id="path62"
     inkscape:connector-curvature="0" />
  <circle
     style="fill:none;stroke:#000000;stroke-width:0.05px"
     id="tight_and_scrotty.6"
     cx="-193.75737"
     cy="227.03999"
     r="1.131"
     transform="scale(-1,1)" />
  <path
     style="fill:none;stroke:#000000;stroke-width:0.05px"
     d="m 194.55729,226.24 -1.6,1.6 m 0,-1.6 1.6,1.6"
     id="path65"
     inkscape:connector-curvature="0" />
  <circle
     style="fill:none;stroke:#000000;stroke-width:0.05px"
     id="tight_and_scrotty.7"
     cx="-193.75737"
     cy="208.36"
     r="1.131"
     transform="scale(-1,1)" />
  <path
     style="fill:none;stroke:#000000;stroke-width:0.05px"
     d="m 194.55729,207.56 -1.6,1.6 m 0,-1.6 1.6,1.6"
     id="path68"
     inkscape:connector-curvature="0" />
  <circle
     style="fill:none;stroke:#000000;stroke-width:0.05px"
     id="tight_and_scrotty.8"
     cx="-212.95735"
     cy="208.36"
     r="1.131"
     transform="scale(-1,1)" />
  <path
     style="fill:none;stroke:#000000;stroke-width:0.05px"
     d="m 213.75729,207.56 -1.6,1.6 m 0,-1.6 1.6,1.6"
     id="path71"
     inkscape:connector-curvature="0" />
</svg>
