<?xml version="1.0" encoding="utf-8" standalone="no"?>
<!-- Generated by Therion 5.4.1+? (compiled on 2018-06-25) -->
<!DOCTYPE svg PUBLIC "-//W3C//DTD SVG 1.1//EN" "http://www.w3.org/Graphics/SVG/1.1/DTD/svg11.dtd">
<svg width="14.700cm" height="36.819cm" viewBox="-302.206 -1007.504 416.693 1043.693" xmlns="http://www.w3.org/2000/svg" xmlns:xlink="http://www.w3.org/1999/xlink">
<defs>
<g id="F_aaaaaaa_miles.svg">
</g>
<g id="G_aaaaaaa_miles.svg">
</g>
<g id="B_aaaaaaa_miles.svg">
</g>
<g id="I_aaaaaaa_miles.svg">
</g>
<g id="E_aaaaaaa_miles.svg">
<path fill="none" stroke="#000000" stroke-width="0.500" d="M273.860 7.840L229.470 32.450" />
<path fill="none" stroke="#000000" stroke-width="0.500" d="M273.860 7.840L320.740 15.270" />
<path fill="none" stroke="#000000" stroke-width="0.500" d="M320.740 15.270L326.640 2.630" />
<path fill="none" stroke="#000000" stroke-width="0.500" d="M320.740 15.270L273.860 7.840" />
<path fill="none" stroke="#000000" stroke-width="0.500" d="M229.470 32.450L222.840 27.460" />
<path fill="none" stroke="#000000" stroke-width="0.500" d="M229.470 32.450L273.860 7.840" />
<path fill="none" stroke="#000000" stroke-width="0.500" d="M222.840 27.460L219.550 34.260" />
<path fill="none" stroke="#000000" stroke-width="0.500" d="M222.840 27.460L229.470 32.450" />
<path fill="none" stroke="#000000" stroke-width="0.500" d="M219.550 34.260L215.980 37.040" />
<path fill="none" stroke="#000000" stroke-width="0.500" d="M219.550 34.260L222.840 27.460" />
<path fill="none" stroke="#000000" stroke-width="0.500" d="M215.980 37.040L211.440 43.560" />
<path fill="none" stroke="#000000" stroke-width="0.500" d="M215.980 37.040L219.550 34.260" />
<path fill="none" stroke="#000000" stroke-width="0.500" d="M211.440 43.560L184.740 98.270" />
<path fill="none" stroke="#000000" stroke-width="0.500" d="M211.440 43.560L215.980 37.040" />
<path fill="none" stroke="#000000" stroke-width="0.500" d="M184.740 98.270L162.460 171.120" />
<path fill="none" stroke="#000000" stroke-width="0.500" d="M184.740 98.270L211.440 43.560" />
<path fill="none" stroke="#000000" stroke-width="0.500" d="M162.460 171.120L146.700 210.070" />
<path fill="none" stroke="#000000" stroke-width="0.500" d="M162.460 171.120L184.740 98.270" />
<path fill="none" stroke="#000000" stroke-width="0.500" d="M146.700 210.070L136.040 249.860" />
<path fill="none" stroke="#000000" stroke-width="0.500" d="M146.700 210.070L162.460 171.120" />
<path fill="none" stroke="#000000" stroke-width="0.500" d="M136.040 249.860L127.710 268.570" />
<path fill="none" stroke="#000000" stroke-width="0.500" d="M136.040 249.860L146.700 210.070" />
<path fill="none" stroke="#000000" stroke-width="0.500" d="M127.710 268.570L119.490 307.410" />
<path fill="none" stroke="#000000" stroke-width="0.500" d="M127.710 268.570L136.040 249.860" />
<path fill="none" stroke="#000000" stroke-width="0.500" d="M119.490 307.410L118.010 328.040" />
<path fill="none" stroke="#000000" stroke-width="0.500" d="M119.490 307.410L127.710 268.570" />
<path fill="none" stroke="#000000" stroke-width="0.500" d="M118.010 328.040L82.350 461.270" />
<path fill="none" stroke="#000000" stroke-width="0.500" d="M118.010 328.040L119.490 307.410" />
<path fill="none" stroke="#000000" stroke-width="0.500" d="M82.350 461.270L58.310 597.510" />
<path fill="none" stroke="#000000" stroke-width="0.500" d="M82.350 461.270L118.010 328.040" />
<path fill="none" stroke="#000000" stroke-width="0.500" d="M58.310 597.510L49.980 630.950" />
<path fill="none" stroke="#000000" stroke-width="0.500" d="M58.310 597.510L82.350 461.270" />
<path fill="none" stroke="#000000" stroke-width="0.500" d="M49.980 630.950L35.350 675.910" />
<path fill="none" stroke="#000000" stroke-width="0.500" d="M49.980 630.950L58.310 597.510" />
<path fill="none" stroke="#000000" stroke-width="0.500" d="M35.350 675.910L42.380 720.420" />
<path fill="none" stroke="#000000" stroke-width="0.500" d="M35.350 675.910L49.980 630.950" />
<path fill="none" stroke="#000000" stroke-width="0.500" d="M42.380 720.420L54.060 803.530" />
<path fill="none" stroke="#000000" stroke-width="0.500" d="M42.380 720.420L35.350 675.910" />
<path fill="none" stroke="#000000" stroke-width="0.500" d="M54.060 803.530L47.880 847.690" />
<path fill="none" stroke="#000000" stroke-width="0.500" d="M54.060 803.530L42.380 720.420" />
<path fill="none" stroke="#000000" stroke-width="0.500" d="M47.880 847.690L33.030 890.780" />
<path fill="none" stroke="#000000" stroke-width="0.500" d="M47.880 847.690L54.060 803.530" />
<path fill="none" stroke="#000000" stroke-width="0.500" d="M33.030 890.780L27.700 924.400" />
<path fill="none" stroke="#000000" stroke-width="0.500" d="M33.030 890.780L47.880 847.690" />
<path fill="none" stroke="#000000" stroke-width="0.500" d="M27.700 924.400L10.750 971.000" />
<path fill="none" stroke="#000000" stroke-width="0.500" d="M27.700 924.400L33.030 890.780" />
<path fill="none" stroke="#000000" stroke-width="0.500" d="M10.750 971.000L2.640 981.370" />
<path fill="none" stroke="#000000" stroke-width="0.500" d="M10.750 971.000L27.700 924.400" />
<path fill="none" stroke="#000000" stroke-width="0.500" d="M2.640 981.370L10.750 971.000" />
<path fill="none" stroke="#000000" stroke-width="0.500" d="M326.640 2.630L326.640 2.630" />
<path fill="none" stroke="#000000" stroke-width="0.500" d="M326.640 2.630L320.740 15.270" />
<path fill="none" stroke="#000000" stroke-width="0.500" d="M326.640 2.630L338.040 9.490" />
<path fill="none" stroke="#000000" stroke-width="0.500" d="M326.640 2.630L326.640 2.630" />
<path fill="none" stroke="#000000" stroke-width="0.500" d="M338.040 9.490L351.360 13.510" />
<path fill="none" stroke="#000000" stroke-width="0.500" d="M338.040 9.490L326.640 2.630" />
<path fill="none" stroke="#000000" stroke-width="0.500" d="M351.360 13.510L338.040 9.490" />
<path fill="none" stroke="#000000" stroke-width="0.350" d="M271.860 7.840L275.860 7.840" />
<path fill="none" stroke="#000000" stroke-width="0.350" d="M273.860 5.840L273.860 9.840" />
<path fill="#ffffff" stroke="none" d="M274.660 7.840C274.660 8.052 274.576 8.256 274.426 8.406C274.276 8.556 274.072 8.640 273.860 8.640C273.648 8.640 273.444 8.556 273.294 8.406C273.144 8.256 273.060 8.052 273.060 7.840C273.060 7.628 273.144 7.424 273.294 7.274C273.444 7.124 273.648 7.040 273.860 7.040C274.072 7.040 274.276 7.124 274.426 7.274C274.576 7.424 274.660 7.628 274.660 7.840Z" />
<path fill="none" stroke="#000000" stroke-width="0.500" d="M273.860 7.840h0.001" />
<path fill="none" stroke="#000000" stroke-width="0.350" d="M318.740 15.270L322.740 15.270" />
<path fill="none" stroke="#000000" stroke-width="0.350" d="M320.740 13.270L320.740 17.270" />
<path fill="#ffffff" stroke="none" d="M321.540 15.270C321.540 15.482 321.456 15.686 321.306 15.836C321.156 15.986 320.952 16.070 320.740 16.070C320.528 16.070 320.324 15.986 320.174 15.836C320.024 15.686 319.940 15.482 319.940 15.270C319.940 15.058 320.024 14.854 320.174 14.704C320.324 14.554 320.528 14.470 320.740 14.470C320.952 14.470 321.156 14.554 321.306 14.704C321.456 14.854 321.540 15.058 321.540 15.270Z" />
<path fill="none" stroke="#000000" stroke-width="0.500" d="M320.740 15.270h0.001" />
<path fill="none" stroke="#000000" stroke-width="0.350" d="M227.470 32.450L231.470 32.450" />
<path fill="none" stroke="#000000" stroke-width="0.350" d="M229.470 30.450L229.470 34.450" />
<path fill="#ffffff" stroke="none" d="M230.270 32.450C230.270 32.662 230.186 32.866 230.036 33.016C229.886 33.166 229.682 33.250 229.470 33.250C229.258 33.250 229.054 33.166 228.904 33.016C228.754 32.866 228.670 32.662 228.670 32.450C228.670 32.238 228.754 32.034 228.904 31.884C229.054 31.734 229.258 31.650 229.470 31.650C229.682 31.650 229.886 31.734 230.036 31.884C230.186 32.034 230.270 32.238 230.270 32.450Z" />
<path fill="none" stroke="#000000" stroke-width="0.500" d="M229.470 32.450h0.001" />
<path fill="none" stroke="#000000" stroke-width="0.350" d="M220.840 27.460L224.840 27.460" />
<path fill="none" stroke="#000000" stroke-width="0.350" d="M222.840 25.460L222.840 29.460" />
<path fill="#ffffff" stroke="none" d="M223.640 27.460C223.640 27.672 223.556 27.876 223.406 28.026C223.256 28.176 223.052 28.260 222.840 28.260C222.628 28.260 222.424 28.176 222.274 28.026C222.124 27.876 222.040 27.672 222.040 27.460C222.040 27.248 222.124 27.044 222.274 26.894C222.424 26.744 222.628 26.660 222.840 26.660C223.052 26.660 223.256 26.744 223.406 26.894C223.556 27.044 223.640 27.248 223.640 27.460Z" />
<path fill="none" stroke="#000000" stroke-width="0.500" d="M222.840 27.460h0.001" />
<path fill="none" stroke="#000000" stroke-width="0.350" d="M217.550 34.260L221.550 34.260" />
<path fill="none" stroke="#000000" stroke-width="0.350" d="M219.550 32.260L219.550 36.260" />
<path fill="#ffffff" stroke="none" d="M220.350 34.260C220.350 34.472 220.266 34.676 220.116 34.826C219.966 34.976 219.762 35.060 219.550 35.060C219.338 35.060 219.134 34.976 218.984 34.826C218.834 34.676 218.750 34.472 218.750 34.260C218.750 34.048 218.834 33.844 218.984 33.694C219.134 33.544 219.338 33.460 219.550 33.460C219.762 33.460 219.966 33.544 220.116 33.694C220.266 33.844 220.350 34.048 220.350 34.260Z" />
<path fill="none" stroke="#000000" stroke-width="0.500" d="M219.550 34.260h0.001" />
<path fill="none" stroke="#000000" stroke-width="0.350" d="M213.980 37.040L217.980 37.040" />
<path fill="none" stroke="#000000" stroke-width="0.350" d="M215.980 35.040L215.980 39.040" />
<path fill="#ffffff" stroke="none" d="M216.780 37.040C216.780 37.252 216.696 37.456 216.546 37.606C216.396 37.756 216.192 37.840 215.980 37.840C215.768 37.840 215.564 37.756 215.414 37.606C215.264 37.456 215.180 37.252 215.180 37.040C215.180 36.828 215.264 36.624 215.414 36.474C215.564 36.324 215.768 36.240 215.980 36.240C216.192 36.240 216.396 36.324 216.546 36.474C216.696 36.624 216.780 36.828 216.780 37.040Z" />
<path fill="none" stroke="#000000" stroke-width="0.500" d="M215.980 37.040h0.001" />
<path fill="none" stroke="#000000" stroke-width="0.350" d="M209.440 43.560L213.440 43.560" />
<path fill="none" stroke="#000000" stroke-width="0.350" d="M211.440 41.560L211.440 45.560" />
<path fill="#ffffff" stroke="none" d="M212.240 43.560C212.240 43.772 212.156 43.976 212.006 44.126C211.856 44.276 211.652 44.360 211.440 44.360C211.228 44.360 211.024 44.276 210.874 44.126C210.724 43.976 210.640 43.772 210.640 43.560C210.640 43.348 210.724 43.144 210.874 42.994C211.024 42.844 211.228 42.760 211.440 42.760C211.652 42.760 211.856 42.844 212.006 42.994C212.156 43.144 212.240 43.348 212.240 43.560Z" />
<path fill="none" stroke="#000000" stroke-width="0.500" d="M211.440 43.560h0.001" />
<path fill="none" stroke="#000000" stroke-width="0.350" d="M182.740 98.270L186.740 98.270" />
<path fill="none" stroke="#000000" stroke-width="0.350" d="M184.740 96.270L184.740 100.270" />
<path fill="#ffffff" stroke="none" d="M185.540 98.270C185.540 98.482 185.456 98.686 185.306 98.836C185.156 98.986 184.952 99.070 184.740 99.070C184.528 99.070 184.324 98.986 184.174 98.836C184.024 98.686 183.940 98.482 183.940 98.270C183.940 98.058 184.024 97.854 184.174 97.704C184.324 97.554 184.528 97.470 184.740 97.470C184.952 97.470 185.156 97.554 185.306 97.704C185.456 97.854 185.540 98.058 185.540 98.270Z" />
<path fill="none" stroke="#000000" stroke-width="0.500" d="M184.740 98.270h0.001" />
<path fill="none" stroke="#000000" stroke-width="0.350" d="M160.460 171.120L164.460 171.120" />
<path fill="none" stroke="#000000" stroke-width="0.350" d="M162.460 169.120L162.460 173.120" />
<path fill="#ffffff" stroke="none" d="M163.260 171.120C163.260 171.332 163.176 171.536 163.026 171.686C162.876 171.836 162.672 171.920 162.460 171.920C162.248 171.920 162.044 171.836 161.894 171.686C161.744 171.536 161.660 171.332 161.660 171.120C161.660 170.908 161.744 170.704 161.894 170.554C162.044 170.404 162.248 170.320 162.460 170.320C162.672 170.320 162.876 170.404 163.026 170.554C163.176 170.704 163.260 170.908 163.260 171.120Z" />
<path fill="none" stroke="#000000" stroke-width="0.500" d="M162.460 171.120h0.001" />
<path fill="none" stroke="#000000" stroke-width="0.350" d="M144.700 210.070L148.700 210.070" />
<path fill="none" stroke="#000000" stroke-width="0.350" d="M146.700 208.070L146.700 212.070" />
<path fill="#ffffff" stroke="none" d="M147.500 210.070C147.500 210.282 147.416 210.486 147.266 210.636C147.116 210.786 146.912 210.870 146.700 210.870C146.488 210.870 146.284 210.786 146.134 210.636C145.984 210.486 145.900 210.282 145.900 210.070C145.900 209.858 145.984 209.654 146.134 209.504C146.284 209.354 146.488 209.270 146.700 209.270C146.912 209.270 147.116 209.354 147.266 209.504C147.416 209.654 147.500 209.858 147.500 210.070Z" />
<path fill="none" stroke="#000000" stroke-width="0.500" d="M146.700 210.070h0.001" />
<path fill="none" stroke="#000000" stroke-width="0.350" d="M134.040 249.860L138.040 249.860" />
<path fill="none" stroke="#000000" stroke-width="0.350" d="M136.040 247.860L136.040 251.860" />
<path fill="#ffffff" stroke="none" d="M136.840 249.860C136.840 250.072 136.756 250.276 136.606 250.426C136.456 250.576 136.252 250.660 136.040 250.660C135.828 250.660 135.624 250.576 135.474 250.426C135.324 250.276 135.240 250.072 135.240 249.860C135.240 249.648 135.324 249.444 135.474 249.294C135.624 249.144 135.828 249.060 136.040 249.060C136.252 249.060 136.456 249.144 136.606 249.294C136.756 249.444 136.840 249.648 136.840 249.860Z" />
<path fill="none" stroke="#000000" stroke-width="0.500" d="M136.040 249.860h0.001" />
<path fill="none" stroke="#000000" stroke-width="0.350" d="M125.710 268.570L129.710 268.570" />
<path fill="none" stroke="#000000" stroke-width="0.350" d="M127.710 266.570L127.710 270.570" />
<path fill="#ffffff" stroke="none" d="M128.510 268.570C128.510 268.782 128.426 268.986 128.276 269.136C128.126 269.286 127.922 269.370 127.710 269.370C127.498 269.370 127.294 269.286 127.144 269.136C126.994 268.986 126.910 268.782 126.910 268.570C126.910 268.358 126.994 268.154 127.144 268.004C127.294 267.854 127.498 267.770 127.710 267.770C127.922 267.770 128.126 267.854 128.276 268.004C128.426 268.154 128.510 268.358 128.510 268.570Z" />
<path fill="none" stroke="#000000" stroke-width="0.500" d="M127.710 268.570h0.001" />
<path fill="none" stroke="#000000" stroke-width="0.350" d="M117.490 307.410L121.490 307.410" />
<path fill="none" stroke="#000000" stroke-width="0.350" d="M119.490 305.410L119.490 309.410" />
<path fill="#ffffff" stroke="none" d="M120.290 307.410C120.290 307.622 120.206 307.826 120.056 307.976C119.906 308.126 119.702 308.210 119.490 308.210C119.278 308.210 119.074 308.126 118.924 307.976C118.774 307.826 118.690 307.622 118.690 307.410C118.690 307.198 118.774 306.994 118.924 306.844C119.074 306.694 119.278 306.610 119.490 306.610C119.702 306.610 119.906 306.694 120.056 306.844C120.206 306.994 120.290 307.198 120.290 307.410Z" />
<path fill="none" stroke="#000000" stroke-width="0.500" d="M119.490 307.410h0.001" />
<path fill="none" stroke="#000000" stroke-width="0.350" d="M116.010 328.040L120.010 328.040" />
<path fill="none" stroke="#000000" stroke-width="0.350" d="M118.010 326.040L118.010 330.040" />
<path fill="#ffffff" stroke="none" d="M118.810 328.040C118.810 328.252 118.726 328.456 118.576 328.606C118.426 328.756 118.222 328.840 118.010 328.840C117.798 328.840 117.594 328.756 117.444 328.606C117.294 328.456 117.210 328.252 117.210 328.040C117.210 327.828 117.294 327.624 117.444 327.474C117.594 327.324 117.798 327.240 118.010 327.240C118.222 327.240 118.426 327.324 118.576 327.474C118.726 327.624 118.810 327.828 118.810 328.040Z" />
<path fill="none" stroke="#000000" stroke-width="0.500" d="M118.010 328.040h0.001" />
<path fill="none" stroke="#000000" stroke-width="0.350" d="M80.350 461.270L84.350 461.270" />
<path fill="none" stroke="#000000" stroke-width="0.350" d="M82.350 459.270L82.350 463.270" />
<path fill="#ffffff" stroke="none" d="M83.150 461.270C83.150 461.482 83.066 461.686 82.916 461.836C82.766 461.986 82.562 462.070 82.350 462.070C82.138 462.070 81.934 461.986 81.784 461.836C81.634 461.686 81.550 461.482 81.550 461.270C81.550 461.058 81.634 460.854 81.784 460.704C81.934 460.554 82.138 460.470 82.350 460.470C82.562 460.470 82.766 460.554 82.916 460.704C83.066 460.854 83.150 461.058 83.150 461.270Z" />
<path fill="none" stroke="#000000" stroke-width="0.500" d="M82.350 461.270h0.001" />
<path fill="none" stroke="#000000" stroke-width="0.350" d="M56.310 597.510L60.310 597.510" />
<path fill="none" stroke="#000000" stroke-width="0.350" d="M58.310 595.510L58.310 599.510" />
<path fill="#ffffff" stroke="none" d="M59.110 597.510C59.110 597.722 59.026 597.926 58.876 598.076C58.726 598.226 58.522 598.310 58.310 598.310C58.098 598.310 57.894 598.226 57.744 598.076C57.594 597.926 57.510 597.722 57.510 597.510C57.510 597.298 57.594 597.094 57.744 596.944C57.894 596.794 58.098 596.710 58.310 596.710C58.522 596.710 58.726 596.794 58.876 596.944C59.026 597.094 59.110 597.298 59.110 597.510Z" />
<path fill="none" stroke="#000000" stroke-width="0.500" d="M58.310 597.510h0.001" />
<path fill="none" stroke="#000000" stroke-width="0.350" d="M47.980 630.950L51.980 630.950" />
<path fill="none" stroke="#000000" stroke-width="0.350" d="M49.980 628.950L49.980 632.950" />
<path fill="#ffffff" stroke="none" d="M50.780 630.950C50.780 631.162 50.696 631.366 50.546 631.516C50.396 631.666 50.192 631.750 49.980 631.750C49.768 631.750 49.564 631.666 49.414 631.516C49.264 631.366 49.180 631.162 49.180 630.950C49.180 630.738 49.264 630.534 49.414 630.384C49.564 630.234 49.768 630.150 49.980 630.150C50.192 630.150 50.396 630.234 50.546 630.384C50.696 630.534 50.780 630.738 50.780 630.950Z" />
<path fill="none" stroke="#000000" stroke-width="0.500" d="M49.980 630.950h0.001" />
<path fill="none" stroke="#000000" stroke-width="0.350" d="M33.350 675.910L37.350 675.910" />
<path fill="none" stroke="#000000" stroke-width="0.350" d="M35.350 673.910L35.350 677.910" />
<path fill="#ffffff" stroke="none" d="M36.150 675.910C36.150 676.122 36.066 676.326 35.916 676.476C35.766 676.626 35.562 676.710 35.350 676.710C35.138 676.710 34.934 676.626 34.784 676.476C34.634 676.326 34.550 676.122 34.550 675.910C34.550 675.698 34.634 675.494 34.784 675.344C34.934 675.194 35.138 675.110 35.350 675.110C35.562 675.110 35.766 675.194 35.916 675.344C36.066 675.494 36.150 675.698 36.150 675.910Z" />
<path fill="none" stroke="#000000" stroke-width="0.500" d="M35.350 675.910h0.001" />
<path fill="none" stroke="#000000" stroke-width="0.350" d="M40.380 720.420L44.380 720.420" />
<path fill="none" stroke="#000000" stroke-width="0.350" d="M42.380 718.420L42.380 722.420" />
<path fill="#ffffff" stroke="none" d="M43.180 720.420C43.180 720.632 43.096 720.836 42.946 720.986C42.796 721.136 42.592 721.220 42.380 721.220C42.168 721.220 41.964 721.136 41.814 720.986C41.664 720.836 41.580 720.632 41.580 720.420C41.580 720.208 41.664 720.004 41.814 719.854C41.964 719.704 42.168 719.620 42.380 719.620C42.592 719.620 42.796 719.704 42.946 719.854C43.096 720.004 43.180 720.208 43.180 720.420Z" />
<path fill="none" stroke="#000000" stroke-width="0.500" d="M42.380 720.420h0.001" />
<path fill="none" stroke="#000000" stroke-width="0.350" d="M52.060 803.530L56.060 803.530" />
<path fill="none" stroke="#000000" stroke-width="0.350" d="M54.060 801.530L54.060 805.530" />
<path fill="#ffffff" stroke="none" d="M54.860 803.530C54.860 803.742 54.776 803.946 54.626 804.096C54.476 804.246 54.272 804.330 54.060 804.330C53.848 804.330 53.644 804.246 53.494 804.096C53.344 803.946 53.260 803.742 53.260 803.530C53.260 803.318 53.344 803.114 53.494 802.964C53.644 802.814 53.848 802.730 54.060 802.730C54.272 802.730 54.476 802.814 54.626 802.964C54.776 803.114 54.860 803.318 54.860 803.530Z" />
<path fill="none" stroke="#000000" stroke-width="0.500" d="M54.060 803.530h0.001" />
<path fill="none" stroke="#000000" stroke-width="0.350" d="M45.880 847.690L49.880 847.690" />
<path fill="none" stroke="#000000" stroke-width="0.350" d="M47.880 845.690L47.880 849.690" />
<path fill="#ffffff" stroke="none" d="M48.680 847.690C48.680 847.902 48.596 848.106 48.446 848.256C48.296 848.406 48.092 848.490 47.880 848.490C47.668 848.490 47.464 848.406 47.314 848.256C47.164 848.106 47.080 847.902 47.080 847.690C47.080 847.478 47.164 847.274 47.314 847.124C47.464 846.974 47.668 846.890 47.880 846.890C48.092 846.890 48.296 846.974 48.446 847.124C48.596 847.274 48.680 847.478 48.680 847.690Z" />
<path fill="none" stroke="#000000" stroke-width="0.500" d="M47.880 847.690h0.001" />
<path fill="none" stroke="#000000" stroke-width="0.350" d="M31.030 890.780L35.030 890.780" />
<path fill="none" stroke="#000000" stroke-width="0.350" d="M33.030 888.780L33.030 892.780" />
<path fill="#ffffff" stroke="none" d="M33.830 890.780C33.830 890.992 33.746 891.196 33.596 891.346C33.446 891.496 33.242 891.580 33.030 891.580C32.818 891.580 32.614 891.496 32.464 891.346C32.314 891.196 32.230 890.992 32.230 890.780C32.230 890.568 32.314 890.364 32.464 890.214C32.614 890.064 32.818 889.980 33.030 889.980C33.242 889.980 33.446 890.064 33.596 890.214C33.746 890.364 33.830 890.568 33.830 890.780Z" />
<path fill="none" stroke="#000000" stroke-width="0.500" d="M33.030 890.780h0.001" />
<path fill="none" stroke="#000000" stroke-width="0.350" d="M25.700 924.400L29.700 924.400" />
<path fill="none" stroke="#000000" stroke-width="0.350" d="M27.700 922.400L27.700 926.400" />
<path fill="#ffffff" stroke="none" d="M28.500 924.400C28.500 924.612 28.416 924.816 28.266 924.966C28.116 925.116 27.912 925.200 27.700 925.200C27.488 925.200 27.284 925.116 27.134 924.966C26.984 924.816 26.900 924.612 26.900 924.400C26.900 924.188 26.984 923.984 27.134 923.834C27.284 923.684 27.488 923.600 27.700 923.600C27.912 923.600 28.116 923.684 28.266 923.834C28.416 923.984 28.500 924.188 28.500 924.400Z" />
<path fill="none" stroke="#000000" stroke-width="0.500" d="M27.700 924.400h0.001" />
<path fill="none" stroke="#000000" stroke-width="0.350" d="M8.750 971.000L12.750 971.000" />
<path fill="none" stroke="#000000" stroke-width="0.350" d="M10.750 969.000L10.750 973.000" />
<path fill="#ffffff" stroke="none" d="M11.550 971.000C11.550 971.212 11.466 971.416 11.316 971.566C11.166 971.716 10.962 971.800 10.750 971.800C10.538 971.800 10.334 971.716 10.184 971.566C10.034 971.416 9.950 971.212 9.950 971.000C9.950 970.788 10.034 970.584 10.184 970.434C10.334 970.284 10.538 970.200 10.750 970.200C10.962 970.200 11.166 970.284 11.316 970.434C11.466 970.584 11.550 970.788 11.550 971.000Z" />
<path fill="none" stroke="#000000" stroke-width="0.500" d="M10.750 971.000h0.001" />
<path fill="none" stroke="#000000" stroke-width="0.350" d="M0.640 981.370L4.640 981.370" />
<path fill="none" stroke="#000000" stroke-width="0.350" d="M2.640 979.370L2.640 983.370" />
<path fill="#ffffff" stroke="none" d="M3.440 981.370C3.440 981.582 3.356 981.786 3.206 981.936C3.056 982.086 2.852 982.170 2.640 982.170C2.428 982.170 2.224 982.086 2.074 981.936C1.924 981.786 1.840 981.582 1.840 981.370C1.840 981.158 1.924 980.954 2.074 980.804C2.224 980.654 2.428 980.570 2.640 980.570C2.852 980.570 3.056 980.654 3.206 980.804C3.356 980.954 3.440 981.158 3.440 981.370Z" />
<path fill="none" stroke="#000000" stroke-width="0.500" d="M2.640 981.370h0.001" />
<path fill="none" stroke="#000000" stroke-width="0.350" d="M324.640 2.630L328.640 2.630" />
<path fill="none" stroke="#000000" stroke-width="0.350" d="M326.640 0.630L326.640 4.630" />
<path fill="#ffffff" stroke="none" d="M327.440 2.630C327.440 2.842 327.356 3.046 327.206 3.196C327.056 3.346 326.852 3.430 326.640 3.430C326.428 3.430 326.224 3.346 326.074 3.196C325.924 3.046 325.840 2.842 325.840 2.630C325.840 2.418 325.924 2.214 326.074 2.064C326.224 1.914 326.428 1.830 326.640 1.830C326.852 1.830 327.056 1.914 327.206 2.064C327.356 2.214 327.440 2.418 327.440 2.630Z" />
<path fill="none" stroke="#000000" stroke-width="0.500" d="M326.640 2.630h0.001" />
<path fill="none" stroke="#000000" stroke-width="0.350" d="M324.640 2.630L328.640 2.630" />
<path fill="none" stroke="#000000" stroke-width="0.350" d="M326.640 0.630L326.640 4.630" />
<path fill="#ffffff" stroke="none" d="M327.440 2.630C327.440 2.842 327.356 3.046 327.206 3.196C327.056 3.346 326.852 3.430 326.640 3.430C326.428 3.430 326.224 3.346 326.074 3.196C325.924 3.046 325.840 2.842 325.840 2.630C325.840 2.418 325.924 2.214 326.074 2.064C326.224 1.914 326.428 1.830 326.640 1.830C326.852 1.830 327.056 1.914 327.206 2.064C327.356 2.214 327.440 2.418 327.440 2.630Z" />
<path fill="none" stroke="#000000" stroke-width="0.500" d="M326.640 2.630h0.001" />
<path fill="none" stroke="#000000" stroke-width="0.350" d="M336.040 9.490L340.040 9.490" />
<path fill="none" stroke="#000000" stroke-width="0.350" d="M338.040 7.490L338.040 11.490" />
<path fill="#ffffff" stroke="none" d="M338.840 9.490C338.840 9.702 338.756 9.906 338.606 10.056C338.456 10.206 338.252 10.290 338.040 10.290C337.828 10.290 337.624 10.206 337.474 10.056C337.324 9.906 337.240 9.702 337.240 9.490C337.240 9.278 337.324 9.074 337.474 8.924C337.624 8.774 337.828 8.690 338.040 8.690C338.252 8.690 338.456 8.774 338.606 8.924C338.756 9.074 338.840 9.278 338.840 9.490Z" />
<path fill="none" stroke="#000000" stroke-width="0.500" d="M338.040 9.490h0.001" />
<path fill="none" stroke="#000000" stroke-width="0.350" d="M349.360 13.510L353.360 13.510" />
<path fill="none" stroke="#000000" stroke-width="0.350" d="M351.360 11.510L351.360 15.510" />
<path fill="#ffffff" stroke="none" d="M352.160 13.510C352.160 13.722 352.076 13.926 351.926 14.076C351.776 14.226 351.572 14.310 351.360 14.310C351.148 14.310 350.944 14.226 350.794 14.076C350.644 13.926 350.560 13.722 350.560 13.510C350.560 13.298 350.644 13.094 350.794 12.944C350.944 12.794 351.148 12.710 351.360 12.710C351.572 12.710 351.776 12.794 351.926 12.944C352.076 13.094 352.160 13.298 352.160 13.510Z" />
<path fill="none" stroke="#000000" stroke-width="0.500" d="M351.360 13.510h0.001" />
</g>
<g id="X_aaaaaaa_miles.svg">
<text font-family="cmss10" font-size="6.974" fill="black" stroke="none" transform="matrix(1.000 0.000 -0.000 -1.000 271.735 5.715)">&#x32;</text>
<text font-family="cmss10" font-size="6.974" fill="black" stroke="none" transform="matrix(1.000 0.000 -0.000 -1.000 318.615 13.145)">&#x31;</text>
<text font-family="cmss10" font-size="6.974" fill="black" stroke="none" transform="matrix(1.000 0.000 -0.000 -1.000 227.345 30.325)">&#x33;</text>
<text font-family="cmss10" font-size="6.974" fill="black" stroke="none" transform="matrix(1.000 0.000 -0.000 -1.000 220.715 25.335)">&#x34;</text>
<text font-family="cmss10" font-size="6.974" fill="black" stroke="none" transform="matrix(1.000 0.000 -0.000 -1.000 217.425 32.135)">&#x35;</text>
<text font-family="cmss10" font-size="6.974" fill="black" stroke="none" transform="matrix(1.000 0.000 -0.000 -1.000 213.855 34.915)">&#x36;</text>
<text font-family="cmss10" font-size="6.974" fill="black" stroke="none" transform="matrix(1.000 0.000 -0.000 -1.000 209.315 41.435)">&#x37;</text>
<text font-family="cmss10" font-size="6.974" fill="black" stroke="none" transform="matrix(1.000 0.000 -0.000 -1.000 182.615 96.145)">&#x38;</text>
<text font-family="cmss10" font-size="6.974" fill="black" stroke="none" transform="matrix(1.000 0.000 -0.000 -1.000 160.335 168.995)">&#x39;</text>
<text font-family="cmss10" font-size="6.974" fill="black" stroke="none" transform="matrix(1.000 0.000 -0.000 -1.000 144.575 207.945)">&#x31;&#x30;</text>
<text font-family="cmss10" font-size="6.974" fill="black" stroke="none" transform="matrix(1.000 0.000 -0.000 -1.000 133.915 247.735)">&#x31;&#x31;</text>
<text font-family="cmss10" font-size="6.974" fill="black" stroke="none" transform="matrix(1.000 0.000 -0.000 -1.000 125.585 266.445)">&#x31;&#x32;</text>
<text font-family="cmss10" font-size="6.974" fill="black" stroke="none" transform="matrix(1.000 0.000 -0.000 -1.000 117.365 305.285)">&#x31;&#x33;</text>
<text font-family="cmss10" font-size="6.974" fill="black" stroke="none" transform="matrix(1.000 0.000 -0.000 -1.000 115.885 325.915)">&#x31;&#x34;</text>
<text font-family="cmss10" font-size="6.974" fill="black" stroke="none" transform="matrix(1.000 0.000 -0.000 -1.000 80.225 459.145)">&#x31;&#x35;</text>
<text font-family="cmss10" font-size="6.974" fill="black" stroke="none" transform="matrix(1.000 0.000 -0.000 -1.000 56.185 595.385)">&#x31;&#x36;</text>
<text font-family="cmss10" font-size="6.974" fill="black" stroke="none" transform="matrix(1.000 0.000 -0.000 -1.000 47.855 628.825)">&#x31;&#x37;</text>
<text font-family="cmss10" font-size="6.974" fill="black" stroke="none" transform="matrix(1.000 0.000 -0.000 -1.000 33.225 673.785)">&#x31;&#x38;</text>
<text font-family="cmss10" font-size="6.974" fill="black" stroke="none" transform="matrix(1.000 0.000 -0.000 -1.000 40.255 718.295)">&#x31;&#x39;</text>
<text font-family="cmss10" font-size="6.974" fill="black" stroke="none" transform="matrix(1.000 0.000 -0.000 -1.000 51.935 801.405)">&#x32;&#x30;</text>
<text font-family="cmss10" font-size="6.974" fill="black" stroke="none" transform="matrix(1.000 0.000 -0.000 -1.000 45.755 845.565)">&#x32;&#x31;</text>
<text font-family="cmss10" font-size="6.974" fill="black" stroke="none" transform="matrix(1.000 0.000 -0.000 -1.000 30.905 888.655)">&#x32;&#x32;</text>
<text font-family="cmss10" font-size="6.974" fill="black" stroke="none" transform="matrix(1.000 0.000 -0.000 -1.000 25.575 922.275)">&#x32;&#x33;</text>
<text font-family="cmss10" font-size="6.974" fill="black" stroke="none" transform="matrix(1.000 0.000 -0.000 -1.000 8.625 968.875)">&#x32;&#x34;</text>
<text font-family="cmss10" font-size="6.974" fill="black" stroke="none" transform="matrix(1.000 0.000 -0.000 -1.000 0.515 979.245)">&#x32;&#x35;</text>
<text font-family="cmss10" font-size="6.974" fill="black" stroke="none" transform="matrix(1.000 0.000 -0.000 -1.000 324.515 0.505)">&#x32;&#x36;</text>
<text font-family="cmss10" font-size="6.974" fill="black" stroke="none" transform="matrix(1.000 0.000 -0.000 -1.000 324.515 0.505)">&#x32;&#x37;</text>
<text font-family="cmss10" font-size="6.974" fill="black" stroke="none" transform="matrix(1.000 0.000 -0.000 -1.000 335.915 7.365)">&#x32;&#x38;</text>
<text font-family="cmss10" font-size="6.974" fill="black" stroke="none" transform="matrix(1.000 0.000 -0.000 -1.000 349.235 11.385)">&#x32;&#x39;</text>
</g>
<clipPath id="clip_viewBox">
<path d="M-302.206 -36.189L114.487 -36.189L114.487 1007.504L-302.206 1007.504z" />
</clipPath>
</defs>
<g transform="scale(1,-1)" fill="#000000" stroke="#000000" stroke-linecap="round" stroke-linejoin="round" stroke-miterlimit="10" fill-rule="evenodd" clip-rule="evenodd" clip-path="url(#clip_viewBox)">
<use x="-273.860" y="-7.843" xlink:href="#E_aaaaaaa_miles.svg" />
<use x="-270.860" y="-4.843" xlink:href="#X_aaaaaaa_miles.svg" />
</g>
</svg>
