<?xml version="1.0" encoding="ISO-8859-1"?>
<svg version="1.1" baseProfile="full"
xmlns="http://www.w3.org/2000/svg"
xmlns:xlink="http://www.w3.org/1999/xlink"
xmlns:ev="http://www.w3.org/2001/xml-events"
width="194.890mm" height="134.790mm"
viewBox="0 0 194.890 134.790">
<title>plumbers_paradise</title>
<g transform="translate(5.000 129.790)">
<g id="Legs" stroke="black" fill="none" stroke-width="0.4px">
<path d="M52.210 -73.990L50.000 -74.790"/>
<path d="M56.460 -72.180L52.210 -73.990"/>
<path d="M58.350 -71.850L56.460 -72.180"/>
<path d="M60.740 -64.480L58.350 -71.850"/>
<path d="M62.600 -54.950L60.740 -64.480"/>
<path d="M62.600 -54.950L65.130 -50.000"/>
<path d="M63.860 -55.170L62.600 -54.950"/>
<path d="M68.390 -58.230L63.860 -55.170"/>
<path d="M73.950 -57.150L68.390 -58.230"/>
<path d="M79.960 -52.620L73.950 -57.150"/>
<path d="M80.770 -53.150L79.960 -52.620"/>
<path d="M83.850 -53.200L80.770 -53.150"/>
<path d="M92.090 -53.200L83.850 -53.200"/>
<path d="M98.870 -52.850L92.090 -53.200"/>
<path d="M101.970 -52.790L98.870 -52.850"/>
<path d="M107.070 -53.780L101.970 -52.790"/>
<path d="M110.330 -52.600L107.070 -53.780"/>
<path d="M115.290 -52.510L110.330 -52.600"/>
<path d="M121.200 -52.920L115.290 -52.510"/>
<path d="M126.330 -52.740L121.200 -52.920"/>
<path d="M129.440 -52.470L126.330 -52.740"/>
<path d="M132.130 -52.850L129.440 -52.470"/>
<path d="M133.800 -53.780L132.130 -52.850"/>
<path d="M133.800 -53.780L134.890 -54.400"/>
</g>
</g>
</svg>
