<?xml version="1.0" encoding="ISO-8859-1"?>
<svg version="1.1" baseProfile="full"
xmlns="http://www.w3.org/2000/svg"
xmlns:xlink="http://www.w3.org/1999/xlink"
xmlns:ev="http://www.w3.org/2001/xml-events"
width="837.720mm" height="556.720mm"
viewBox="0 0 837.720 556.720">
<title>therock</title>
<g transform="translate(5.000 551.720)">
<g id="Legs" stroke="black" fill="none" stroke-width="0.4px">
<path d="M219.040 -271.240L200.000 -257.400"/>
<path d="M238.040 -286.080L219.040 -271.240"/>
<path d="M238.040 -286.080L263.640 -293.920"/>
<path d="M263.640 -293.920L280.720 -311.560"/>
<path d="M280.720 -311.560L288.160 -323.000"/>
<path d="M288.160 -323.000L300.120 -329.920"/>
<path d="M300.120 -329.920L307.800 -340.120"/>
<path d="M307.800 -340.120L316.520 -346.000"/>
<path d="M316.520 -346.000L329.920 -346.720"/>
<path d="M329.920 -346.720L344.360 -340.880"/>
<path d="M344.360 -340.880L371.440 -310.800"/>
<path d="M371.440 -310.800L435.840 -301.760"/>
<path d="M435.840 -301.760L464.040 -290.360"/>
<path d="M464.040 -290.360L491.080 -278.880"/>
<path d="M491.080 -278.880L498.440 -268.360"/>
<path d="M498.440 -268.360L504.800 -259.960"/>
<path d="M504.800 -259.960L511.880 -257.800"/>
<path d="M511.880 -257.800L529.360 -249.640"/>
<path d="M529.360 -249.640L546.400 -235.840"/>
<path d="M546.400 -235.840L565.480 -223.920"/>
<path d="M565.480 -223.920L565.480 -212.880"/>
<path d="M565.480 -212.880L580.040 -204.160"/>
<path d="M580.040 -204.160L606.240 -200.000"/>
<path d="M606.240 -200.000L627.720 -211.440"/>
</g>
<g id="Labels" font-size="0.600em">
<text transform="translate(238.040 -286.080)">the_rock.1</text>
<text transform="translate(219.040 -271.240)">the_rock.2</text>
<text transform="translate(200.000 -257.400)">the_rock.3</text>
<text transform="translate(263.640 -293.920)">the_rock.4</text>
<text transform="translate(280.720 -311.560)">the_rock.5</text>
<text transform="translate(288.160 -323.000)">the_rock.6</text>
<text transform="translate(300.120 -329.920)">the_rock.7</text>
<text transform="translate(307.800 -340.120)">the_rock.8</text>
<text transform="translate(316.520 -346.000)">the_rock.9</text>
<text transform="translate(329.920 -346.720)">the_rock.10</text>
<text transform="translate(344.360 -340.880)">the_rock.11</text>
<text transform="translate(371.440 -310.800)">the_rock.12</text>
<text transform="translate(435.840 -301.760)">the_rock.13</text>
<text transform="translate(464.040 -290.360)">the_rock.14</text>
<text transform="translate(491.080 -278.880)">the_rock.15</text>
<text transform="translate(498.440 -268.360)">the_rock.16</text>
<text transform="translate(504.800 -259.960)">the_rock.17</text>
<text transform="translate(511.880 -257.800)">the_rock.18</text>
<text transform="translate(529.360 -249.640)">the_rock.19</text>
<text transform="translate(546.400 -235.840)">the_rock.20</text>
<text transform="translate(565.480 -223.920)">the_rock.21</text>
<text transform="translate(565.480 -212.880)">the_rock.22</text>
<text transform="translate(580.040 -204.160)">the_rock.23</text>
<text transform="translate(606.240 -200.000)">the_rock.24</text>
<text transform="translate(627.720 -211.440)">the_rock.25</text>
</g>
<g id="Stations" stroke="black" fill="none" stroke-width="0.05px">
<circle id="the_rock.1" cx="238.040" cy="-286.080" r="1.131"/>
<path d="M237.240 -286.880L238.840 -285.280M238.840 -286.880L237.240 -285.280"/>
<circle id="the_rock.2" cx="219.040" cy="-271.240" r="1.131"/>
<path d="M218.240 -272.040L219.840 -270.440M219.840 -272.040L218.240 -270.440"/>
<circle id="the_rock.3" cx="200.000" cy="-257.400" r="1.131"/>
<path d="M199.200 -258.200L200.800 -256.600M200.800 -258.200L199.200 -256.600"/>
<circle id="the_rock.4" cx="263.640" cy="-293.920" r="1.131"/>
<path d="M262.840 -294.720L264.440 -293.120M264.440 -294.720L262.840 -293.120"/>
<circle id="the_rock.5" cx="280.720" cy="-311.560" r="1.131"/>
<path d="M279.920 -312.360L281.520 -310.760M281.520 -312.360L279.920 -310.760"/>
<circle id="the_rock.6" cx="288.160" cy="-323.000" r="1.131"/>
<path d="M287.360 -323.800L288.960 -322.200M288.960 -323.800L287.360 -322.200"/>
<circle id="the_rock.7" cx="300.120" cy="-329.920" r="1.131"/>
<path d="M299.320 -330.720L300.920 -329.120M300.920 -330.720L299.320 -329.120"/>
<circle id="the_rock.8" cx="307.800" cy="-340.120" r="1.131"/>
<path d="M307.000 -340.920L308.600 -339.320M308.600 -340.920L307.000 -339.320"/>
<circle id="the_rock.9" cx="316.520" cy="-346.000" r="1.131"/>
<path d="M315.720 -346.800L317.320 -345.200M317.320 -346.800L315.720 -345.200"/>
<circle id="the_rock.10" cx="329.920" cy="-346.720" r="1.131"/>
<path d="M329.120 -347.520L330.720 -345.920M330.720 -347.520L329.120 -345.920"/>
<circle id="the_rock.11" cx="344.360" cy="-340.880" r="1.131"/>
<path d="M343.560 -341.680L345.160 -340.080M345.160 -341.680L343.560 -340.080"/>
<circle id="the_rock.12" cx="371.440" cy="-310.800" r="1.131"/>
<path d="M370.640 -311.600L372.240 -310.000M372.240 -311.600L370.640 -310.000"/>
<circle id="the_rock.13" cx="435.840" cy="-301.760" r="1.131"/>
<path d="M435.040 -302.560L436.640 -300.960M436.640 -302.560L435.040 -300.960"/>
<circle id="the_rock.14" cx="464.040" cy="-290.360" r="1.131"/>
<path d="M463.240 -291.160L464.840 -289.560M464.840 -291.160L463.240 -289.560"/>
<circle id="the_rock.15" cx="491.080" cy="-278.880" r="1.131"/>
<path d="M490.280 -279.680L491.880 -278.080M491.880 -279.680L490.280 -278.080"/>
<circle id="the_rock.16" cx="498.440" cy="-268.360" r="1.131"/>
<path d="M497.640 -269.160L499.240 -267.560M499.240 -269.160L497.640 -267.560"/>
<circle id="the_rock.17" cx="504.800" cy="-259.960" r="1.131"/>
<path d="M504.000 -260.760L505.600 -259.160M505.600 -260.760L504.000 -259.160"/>
<circle id="the_rock.18" cx="511.880" cy="-257.800" r="1.131"/>
<path d="M511.080 -258.600L512.680 -257.000M512.680 -258.600L511.080 -257.000"/>
<circle id="the_rock.19" cx="529.360" cy="-249.640" r="1.131"/>
<path d="M528.560 -250.440L530.160 -248.840M530.160 -250.440L528.560 -248.840"/>
<circle id="the_rock.20" cx="546.400" cy="-235.840" r="1.131"/>
<path d="M545.600 -236.640L547.200 -235.040M547.200 -236.640L545.600 -235.040"/>
<circle id="the_rock.21" cx="565.480" cy="-223.920" r="1.131"/>
<path d="M564.680 -224.720L566.280 -223.120M566.280 -224.720L564.680 -223.120"/>
<circle id="the_rock.22" cx="565.480" cy="-212.880" r="1.131"/>
<path d="M564.680 -213.680L566.280 -212.080M566.280 -213.680L564.680 -212.080"/>
<circle id="the_rock.23" cx="580.040" cy="-204.160" r="1.131"/>
<path d="M579.240 -204.960L580.840 -203.360M580.840 -204.960L579.240 -203.360"/>
<circle id="the_rock.24" cx="606.240" cy="-200.000" r="1.131"/>
<path d="M605.440 -200.800L607.040 -199.200M607.040 -200.800L605.440 -199.200"/>
<circle id="the_rock.25" cx="627.720" cy="-211.440" r="1.131"/>
<path d="M626.920 -212.240L628.520 -210.640M628.520 -212.240L626.920 -210.640"/>
</g>
</g>
</svg>
