<?xml version="1.0" encoding="UTF-8" standalone="no"?>
<svg
   xmlns:dc="http://purl.org/dc/elements/1.1/"
   xmlns:cc="http://creativecommons.org/ns#"
   xmlns:rdf="http://www.w3.org/1999/02/22-rdf-syntax-ns#"
   xmlns:svg="http://www.w3.org/2000/svg"
   xmlns="http://www.w3.org/2000/svg"
   xmlns:sodipodi="http://sodipodi.sourceforge.net/DTD/sodipodi-0.dtd"
   xmlns:inkscape="http://www.inkscape.org/namespaces/inkscape"
   version="1.1"
   width="587.360mm"
   height="503.720mm"
   viewBox="0 0 587.360 503.720"
   id="svg90"
   sodipodi:docname="battery_flattery_extend.svg"
   inkscape:version="0.92.2 5c3e80d, 2017-08-06">
  <metadata
     id="metadata96">
    <rdf:RDF>
      <cc:Work
         rdf:about="">
        <dc:format>image/svg+xml</dc:format>
        <dc:type
           rdf:resource="http://purl.org/dc/dcmitype/StillImage" />
      </cc:Work>
    </rdf:RDF>
  </metadata>
  <defs
     id="defs94" />
  <sodipodi:namedview
     pagecolor="#ffffff"
     bordercolor="#666666"
     borderopacity="1"
     objecttolerance="10"
     gridtolerance="10"
     guidetolerance="10"
     inkscape:pageopacity="0"
     inkscape:pageshadow="2"
     inkscape:window-width="1260"
     inkscape:window-height="668"
     id="namedview92"
     showgrid="false"
     inkscape:zoom="0.49584425"
     inkscape:cx="1168.8313"
     inkscape:cy="868.61298"
     inkscape:window-x="0"
     inkscape:window-y="0"
     inkscape:window-maximized="0"
     inkscape:current-layer="Labels" />
  <title
     id="title2">battery_flattery</title>
  <g
     transform="translate(5.000 498.720)"
     id="g88">
    <g
       id="Legs"
       stroke="black"
       fill="none"
       stroke-width="0.4px">
      <path
         d="M210.760 -291.640L200.000 -293.720"
         id="path4" />
      <path
         d="M210.760 -222.440L210.760 -291.640"
         id="path6" />
      <path
         d="M214.960 -218.520L210.760 -222.440"
         id="path8" />
      <path
         d="M214.960 -218.520L226.960 -218.520"
         id="path10" />
      <path
         d="M226.960 -218.520L255.840 -206.240"
         id="path12" />
      <path
         d="M255.840 -206.240L299.680 -211.640"
         id="path14" />
      <path
         d="M299.680 -211.640L319.920 -211.640"
         id="path16" />
      <path
         d="M319.920 -211.640L341.320 -209.760"
         id="path18" />
      <path
         d="M341.320 -209.760L369.720 -200.000"
         id="path20" />
      <path
         d="M369.720 -200.000L377.360 -203.720"
         id="path22" />
    </g>
    <g
       id="Labels"
       font-size="0.600em">
      <text
         transform="translate(200,-293.72)"
         id="text25">11</text>
      <text
         transform="translate(210.76,-222.44)"
         id="text29">1</text>
      <text
         transform="translate(214.96,-218.52)"
         id="text31">2</text>
      <text
         transform="translate(226.96,-218.52)"
         id="text33">3</text>
      <text
         transform="translate(255.84,-206.24)"
         id="text35">4</text>
      <text
         transform="translate(299.68,-211.64)"
         id="text37">5</text>
      <text
         transform="translate(319.92,-211.64)"
         id="text39">6</text>
      <text
         transform="translate(341.32,-209.76)"
         id="text41">7</text>
      <text
         transform="translate(369.72,-200)"
         id="text43">8</text>
      <text
         transform="translate(377.36,-203.72)"
         id="text45">9</text>
      <text
         transform="translate(210.76,-291.64)"
         id="text47">10</text>
    </g>
    <g
       id="Stations"
       stroke="black"
       fill="none"
       stroke-width="0.05px">
      <circle
         id="battery_flattery.11"
         cx="200.000"
         cy="-293.720"
         r="1.131" />
      <path
         d="M199.200 -294.520L200.800 -292.920M200.800 -294.520L199.200 -292.920"
         id="path51" />
      <circle
         id="circle53"
         cx="200.000"
         cy="-293.720"
         r="1.131" />
      <path
         d="M199.200 -294.520L200.800 -292.920M200.800 -294.520L199.200 -292.920"
         id="path55" />
      <circle
         id="battery_flattery.1"
         cx="210.760"
         cy="-222.440"
         r="1.131" />
      <path
         d="M209.960 -223.240L211.560 -221.640M211.560 -223.240L209.960 -221.640"
         id="path58" />
      <circle
         id="battery_flattery.2"
         cx="214.960"
         cy="-218.520"
         r="1.131" />
      <path
         d="M214.160 -219.320L215.760 -217.720M215.760 -219.320L214.160 -217.720"
         id="path61" />
      <circle
         id="battery_flattery.3"
         cx="226.960"
         cy="-218.520"
         r="1.131" />
      <path
         d="M226.160 -219.320L227.760 -217.720M227.760 -219.320L226.160 -217.720"
         id="path64" />
      <circle
         id="battery_flattery.4"
         cx="255.840"
         cy="-206.240"
         r="1.131" />
      <path
         d="M255.040 -207.040L256.640 -205.440M256.640 -207.040L255.040 -205.440"
         id="path67" />
      <circle
         id="battery_flattery.5"
         cx="299.680"
         cy="-211.640"
         r="1.131" />
      <path
         d="M298.880 -212.440L300.480 -210.840M300.480 -212.440L298.880 -210.840"
         id="path70" />
      <circle
         id="battery_flattery.6"
         cx="319.920"
         cy="-211.640"
         r="1.131" />
      <path
         d="M319.120 -212.440L320.720 -210.840M320.720 -212.440L319.120 -210.840"
         id="path73" />
      <circle
         id="battery_flattery.7"
         cx="341.320"
         cy="-209.760"
         r="1.131" />
      <path
         d="M340.520 -210.560L342.120 -208.960M342.120 -210.560L340.520 -208.960"
         id="path76" />
      <circle
         id="battery_flattery.8"
         cx="369.720"
         cy="-200.000"
         r="1.131" />
      <path
         d="M368.920 -200.800L370.520 -199.200M370.520 -200.800L368.920 -199.200"
         id="path79" />
      <circle
         id="battery_flattery.9"
         cx="377.360"
         cy="-203.720"
         r="1.131" />
      <path
         d="M376.560 -204.520L378.160 -202.920M378.160 -204.520L376.560 -202.920"
         id="path82" />
      <circle
         id="battery_flattery.10"
         cx="210.760"
         cy="-291.640"
         r="1.131" />
      <path
         d="M209.960 -292.440L211.560 -290.840M211.560 -292.440L209.960 -290.840"
         id="path85" />
    </g>
  </g>
</svg>
