<?xml version="1.0" encoding="utf-8" standalone="no"?>
<!-- Generated by Therion 5.4.1+? (compiled on 2018-06-25) -->
<!DOCTYPE svg PUBLIC "-//W3C//DTD SVG 1.1//EN" "http://www.w3.org/Graphics/SVG/1.1/DTD/svg11.dtd">
<svg width="3.693cm" height="6.621cm" viewBox="-64.329 -33.920 104.693 187.693" xmlns="http://www.w3.org/2000/svg" xmlns:xlink="http://www.w3.org/1999/xlink">
<defs>
<g id="F_aaaaaaa_brownriceinlet.svg">
</g>
<g id="G_aaaaaaa_brownriceinlet.svg">
</g>
<g id="B_aaaaaaa_brownriceinlet.svg">
</g>
<g id="I_aaaaaaa_brownriceinlet.svg">
</g>
<g id="E_aaaaaaa_brownriceinlet.svg">
<path fill="none" stroke="#000000" stroke-width="0.500" d="M35.980 125.430L33.890 95.720" />
<path fill="none" stroke="#000000" stroke-width="0.500" d="M33.890 95.720L43.470 35.510" />
<path fill="none" stroke="#000000" stroke-width="0.500" d="M33.890 95.720L35.980 125.430" />
<path fill="none" stroke="#000000" stroke-width="0.500" d="M43.470 35.510L37.850 28.600" />
<path fill="none" stroke="#000000" stroke-width="0.500" d="M43.470 35.510L33.890 95.720" />
<path fill="none" stroke="#000000" stroke-width="0.500" d="M37.850 28.600L20.510 6.430" />
<path fill="none" stroke="#000000" stroke-width="0.500" d="M37.850 28.600L43.470 35.510" />
<path fill="none" stroke="#000000" stroke-width="0.500" d="M20.510 6.430L2.530 2.570" />
<path fill="none" stroke="#000000" stroke-width="0.500" d="M20.510 6.430L37.850 28.600" />
<path fill="none" stroke="#000000" stroke-width="0.500" d="M2.530 2.570L20.510 6.430" />
<path fill="none" stroke="#000000" stroke-width="0.350" d="M33.980 125.430L37.980 125.430" />
<path fill="none" stroke="#000000" stroke-width="0.350" d="M35.980 123.430L35.980 127.430" />
<path fill="#ffffff" stroke="none" d="M36.780 125.430C36.780 125.642 36.696 125.846 36.546 125.996C36.396 126.146 36.192 126.230 35.980 126.230C35.768 126.230 35.564 126.146 35.414 125.996C35.264 125.846 35.180 125.642 35.180 125.430C35.180 125.218 35.264 125.014 35.414 124.864C35.564 124.714 35.768 124.630 35.980 124.630C36.192 124.630 36.396 124.714 36.546 124.864C36.696 125.014 36.780 125.218 36.780 125.430Z" />
<path fill="none" stroke="#000000" stroke-width="0.500" d="M35.980 125.430h0.001" />
<path fill="none" stroke="#000000" stroke-width="0.350" d="M31.890 95.720L35.890 95.720" />
<path fill="none" stroke="#000000" stroke-width="0.350" d="M33.890 93.720L33.890 97.720" />
<path fill="#ffffff" stroke="none" d="M34.690 95.720C34.690 95.932 34.606 96.136 34.456 96.286C34.306 96.436 34.102 96.520 33.890 96.520C33.678 96.520 33.474 96.436 33.324 96.286C33.174 96.136 33.090 95.932 33.090 95.720C33.090 95.508 33.174 95.304 33.324 95.154C33.474 95.004 33.678 94.920 33.890 94.920C34.102 94.920 34.306 95.004 34.456 95.154C34.606 95.304 34.690 95.508 34.690 95.720Z" />
<path fill="none" stroke="#000000" stroke-width="0.500" d="M33.890 95.720h0.001" />
<path fill="none" stroke="#000000" stroke-width="0.350" d="M41.470 35.510L45.470 35.510" />
<path fill="none" stroke="#000000" stroke-width="0.350" d="M43.470 33.510L43.470 37.510" />
<path fill="#ffffff" stroke="none" d="M44.270 35.510C44.270 35.722 44.186 35.926 44.036 36.076C43.886 36.226 43.682 36.310 43.470 36.310C43.258 36.310 43.054 36.226 42.904 36.076C42.754 35.926 42.670 35.722 42.670 35.510C42.670 35.298 42.754 35.094 42.904 34.944C43.054 34.794 43.258 34.710 43.470 34.710C43.682 34.710 43.886 34.794 44.036 34.944C44.186 35.094 44.270 35.298 44.270 35.510Z" />
<path fill="none" stroke="#000000" stroke-width="0.500" d="M43.470 35.510h0.001" />
<path fill="none" stroke="#000000" stroke-width="0.350" d="M35.850 28.600L39.850 28.600" />
<path fill="none" stroke="#000000" stroke-width="0.350" d="M37.850 26.600L37.850 30.600" />
<path fill="#ffffff" stroke="none" d="M38.650 28.600C38.650 28.812 38.566 29.016 38.416 29.166C38.266 29.316 38.062 29.400 37.850 29.400C37.638 29.400 37.434 29.316 37.284 29.166C37.134 29.016 37.050 28.812 37.050 28.600C37.050 28.388 37.134 28.184 37.284 28.034C37.434 27.884 37.638 27.800 37.850 27.800C38.062 27.800 38.266 27.884 38.416 28.034C38.566 28.184 38.650 28.388 38.650 28.600Z" />
<path fill="none" stroke="#000000" stroke-width="0.500" d="M37.850 28.600h0.001" />
<path fill="none" stroke="#000000" stroke-width="0.350" d="M18.510 6.430L22.510 6.430" />
<path fill="none" stroke="#000000" stroke-width="0.350" d="M20.510 4.430L20.510 8.430" />
<path fill="#ffffff" stroke="none" d="M21.310 6.430C21.310 6.642 21.226 6.846 21.076 6.996C20.926 7.146 20.722 7.230 20.510 7.230C20.298 7.230 20.094 7.146 19.944 6.996C19.794 6.846 19.710 6.642 19.710 6.430C19.710 6.218 19.794 6.014 19.944 5.864C20.094 5.714 20.298 5.630 20.510 5.630C20.722 5.630 20.926 5.714 21.076 5.864C21.226 6.014 21.310 6.218 21.310 6.430Z" />
<path fill="none" stroke="#000000" stroke-width="0.500" d="M20.510 6.430h0.001" />
<path fill="none" stroke="#000000" stroke-width="0.350" d="M0.530 2.570L4.530 2.570" />
<path fill="none" stroke="#000000" stroke-width="0.350" d="M2.530 0.570L2.530 4.570" />
<path fill="#ffffff" stroke="none" d="M3.330 2.570C3.330 2.782 3.246 2.986 3.096 3.136C2.946 3.286 2.742 3.370 2.530 3.370C2.318 3.370 2.114 3.286 1.964 3.136C1.814 2.986 1.730 2.782 1.730 2.570C1.730 2.358 1.814 2.154 1.964 2.004C2.114 1.854 2.318 1.770 2.530 1.770C2.742 1.770 2.946 1.854 3.096 2.004C3.246 2.154 3.330 2.358 3.330 2.570Z" />
<path fill="none" stroke="#000000" stroke-width="0.500" d="M2.530 2.570h0.001" />
</g>
<g id="X_aaaaaaa_brownriceinlet.svg">
<text font-family="cmss10" font-size="6.974" fill="black" stroke="none" transform="matrix(1.000 0.000 -0.000 -1.000 33.855 123.305)">&#x31;</text>
<text font-family="cmss10" font-size="6.974" fill="black" stroke="none" transform="matrix(1.000 0.000 -0.000 -1.000 31.765 93.595)">&#x32;</text>
<text font-family="cmss10" font-size="6.974" fill="black" stroke="none" transform="matrix(1.000 0.000 -0.000 -1.000 41.345 33.385)">&#x33;</text>
<text font-family="cmss10" font-size="6.974" fill="black" stroke="none" transform="matrix(1.000 0.000 -0.000 -1.000 35.725 26.475)">&#x34;</text>
<text font-family="cmss10" font-size="6.974" fill="black" stroke="none" transform="matrix(1.000 0.000 -0.000 -1.000 18.385 4.305)">&#x35;</text>
<text font-family="cmss10" font-size="6.974" fill="black" stroke="none" transform="matrix(1.000 0.000 -0.000 -1.000 0.405 0.445)">&#x36;</text>
</g>
<clipPath id="clip_viewBox">
<path d="M-64.329 -153.773L40.364 -153.773L40.364 33.920L-64.329 33.920z" />
</clipPath>
</defs>
<g transform="scale(1,-1)" fill="#000000" stroke="#000000" stroke-linecap="round" stroke-linejoin="round" stroke-miterlimit="10" fill-rule="evenodd" clip-rule="evenodd" clip-path="url(#clip_viewBox)">
<use x="-35.983" y="-125.427" xlink:href="#E_aaaaaaa_brownriceinlet.svg" />
<use x="-32.983" y="-122.427" xlink:href="#X_aaaaaaa_brownriceinlet.svg" />
</g>
</svg>
