<?xml version="1.0" encoding="ISO-8859-1"?>
<svg version="1.1" baseProfile="full"
xmlns="http://www.w3.org/2000/svg"
xmlns:xlink="http://www.w3.org/1999/xlink"
xmlns:ev="http://www.w3.org/2001/xml-events"
width="463.200mm" height="521.920mm"
viewBox="0 0 463.200 521.920">
<title>mighty_fine_indeed</title>
<g transform="translate(5.000 516.920)">
<g id="Legs" stroke="black" fill="none" stroke-width="0.4px">
<path d="M206.240 -311.920L200.000 -311.400"/>
<path d="M239.440 -240.640L206.240 -311.920"/>
<path d="M244.360 -209.840L239.440 -240.640"/>
<path d="M253.200 -200.000L244.360 -209.840"/>
</g>
<g id="Labels" font-size="0.600em">
<text transform="translate(200.000 -311.400)">mighty_fine_indeed.5</text>
<text transform="translate(200.000 -311.400)">karstaway.1</text>
<text transform="translate(253.200 -200.000)">mighty_fine_indeed.1</text>
<text transform="translate(244.360 -209.840)">mighty_fine_indeed.2</text>
<text transform="translate(239.440 -240.640)">mighty_fine_indeed.3</text>
<text transform="translate(206.240 -311.920)">mighty_fine_indeed.4</text>
</g>
<g id="Stations" stroke="black" fill="none" stroke-width="0.05px">
<circle id="mighty_fine_indeed.5" cx="200.000" cy="-311.400" r="1.131"/>
<path d="M199.200 -312.200L200.800 -310.600M200.800 -312.200L199.200 -310.600"/>
<circle id="mighty_fine_indeed.5" cx="200.000" cy="-311.400" r="1.131"/>
<path d="M199.200 -312.200L200.800 -310.600M200.800 -312.200L199.200 -310.600"/>
<circle id="mighty_fine_indeed.1" cx="253.200" cy="-200.000" r="1.131"/>
<path d="M252.400 -200.800L254.000 -199.200M254.000 -200.800L252.400 -199.200"/>
<circle id="mighty_fine_indeed.2" cx="244.360" cy="-209.840" r="1.131"/>
<path d="M243.560 -210.640L245.160 -209.040M245.160 -210.640L243.560 -209.040"/>
<circle id="mighty_fine_indeed.3" cx="239.440" cy="-240.640" r="1.131"/>
<path d="M238.640 -241.440L240.240 -239.840M240.240 -241.440L238.640 -239.840"/>
<circle id="mighty_fine_indeed.4" cx="206.240" cy="-311.920" r="1.131"/>
<path d="M205.440 -312.720L207.040 -311.120M207.040 -312.720L205.440 -311.120"/>
</g>
</g>
</svg>
