0
SECTION
2
HEADER
9
$EXTMIN
10
0.000000
20
0.000000
30
0.000000
9
$EXTMAX
10
142.880000
20
115.290000
30
26.410000
9
$PDMODE
70
3
9
$PDSIZE
40
  0.80
0
ENDSEC
0
SECTION
2
TABLES
0
TABLE
2
LTYPE
70
10
0
LTYPE
2
CONTINUOUS
70
64
3
Continuous
72
65
73
0
40
0.0
0
LTYPE
2
DASHED
70
64
3
Dashed
72
65
73
2
40
2.5
49
1.25
49
-1.25
0
ENDTAB
0
TABLE
2
LAYER
70
10
0
LAYER
2
CentreLine
70
64
62
5
6
CONTINUOUS
0
LAYER
2
Stations
70
64
62
7
6
CONTINUOUS
0
LAYER
2
Labels
70
64
62
7
6
CONTINUOUS
0
LAYER
2
Surface
70
64
62
5
6
DASHED
0
LAYER
2
SurfaceStations
70
64
62
7
6
CONTINUOUS
0
LAYER
2
SurfaceLabels
70
64
62
7
6
CONTINUOUS
0
LAYER
2
Grid
70
64
62
7
6
CONTINUOUS
0
ENDTAB
0
ENDSEC
0
SECTION
2
ENTITIES
0
LINE
8
Grid
10
100.00
20
  0.00
30
0
11
100.00
21
115.29
31
0
0
LINE
8
Grid
10
  0.00
20
100.00
30
0
11
142.88
21
100.00
31
0
0
LINE
8
CentreLine
10
 66.43
20
 61.35
30
 22.28
11
 66.43
21
 61.35
31
 25.78
0
LINE
8
CentreLine
10
 66.43
20
 61.35
30
 22.28
11
 65.79
21
 59.50
31
 20.32
0
LINE
8
CentreLine
10
 65.79
20
 59.50
30
 20.32
11
 70.64
21
 55.85
31
 20.96
0
LINE
8
CentreLine
10
 70.64
20
 55.85
30
 20.96
11
 69.74
21
 53.23
31
 21.60
0
LINE
8
CentreLine
10
 69.74
20
 53.23
30
 21.60
11
 69.74
21
 53.23
31
 22.80
0
LINE
8
CentreLine
10
 69.74
20
 53.23
30
 22.80
11
 69.74
21
 53.23
31
 12.30
0
LINE
8
CentreLine
10
 69.74
20
 53.23
30
 12.30
11
 64.69
21
 50.88
31
 16.64
0
LINE
8
CentreLine
10
 64.69
20
 50.88
30
 16.64
11
 62.52
21
 55.53
31
 18.12
0
LINE
8
CentreLine
10
 62.52
20
 55.53
30
 18.12
11
 62.61
21
 57.17
31
 20.37
0
LINE
8
CentreLine
10
 62.61
20
 57.17
30
 20.37
11
 56.70
21
 57.07
31
 20.68
0
LINE
8
CentreLine
10
 56.70
20
 57.07
30
 20.68
11
 56.70
21
 57.07
31
 23.14
0
LINE
8
CentreLine
10
 56.70
20
 57.07
30
 23.14
11
 54.96
21
 55.20
31
 23.23
0
LINE
8
CentreLine
10
 54.96
20
 55.20
30
 23.23
11
 54.63
21
 57.54
31
 23.82
0
LINE
8
CentreLine
10
 54.63
20
 57.54
30
 23.82
11
 52.45
21
 61.04
31
 24.25
0
LINE
8
CentreLine
10
 52.45
20
 61.04
30
 24.25
11
 50.00
21
 58.98
31
 26.41
0
LINE
8
CentreLine
10
 69.74
20
 53.23
30
 12.30
11
 71.11
21
 51.95
31
 12.13
0
LINE
8
CentreLine
10
 71.11
20
 51.95
30
 12.13
11
 73.71
21
 55.29
31
  7.09
0
LINE
8
CentreLine
10
 73.71
20
 55.29
30
  7.09
11
 76.76
21
 54.64
31
  7.04
0
LINE
8
CentreLine
10
 76.76
20
 54.64
30
  7.04
11
 75.89
21
 52.25
31
  6.01
0
LINE
8
CentreLine
10
 75.89
20
 52.25
30
  6.01
11
 79.11
21
 50.00
31
  6.78
0
LINE
8
CentreLine
10
 79.11
20
 50.00
30
  6.78
11
 80.81
21
 54.93
31
  6.78
0
LINE
8
CentreLine
10
 80.81
20
 54.93
30
  6.78
11
 80.19
21
 56.96
31
  7.23
0
LINE
8
CentreLine
10
 80.19
20
 56.96
30
  7.23
11
 80.10
21
 58.60
31
  7.11
0
LINE
8
CentreLine
10
 80.10
20
 58.60
30
  7.11
11
 82.31
21
 57.16
31
  5.46
0
LINE
8
CentreLine
10
 82.31
20
 57.16
30
  5.46
11
 84.55
21
 56.60
31
  4.89
0
LINE
8
CentreLine
10
 84.55
20
 56.60
30
  4.89
11
 85.36
21
 60.43
31
  6.63
0
LINE
8
CentreLine
10
 85.36
20
 60.43
30
  6.63
11
 87.25
21
 57.52
31
  5.70
0
LINE
8
CentreLine
10
 87.25
20
 57.52
30
  5.70
11
 88.55
21
 59.78
31
  6.02
0
LINE
8
CentreLine
10
 88.55
20
 59.78
30
  6.02
11
 88.55
21
 59.78
31
  3.65
0
LINE
8
CentreLine
10
 88.55
20
 59.78
30
  3.65
11
 92.75
21
 63.84
31
  3.65
0
LINE
8
CentreLine
10
 92.75
20
 63.84
30
  3.65
11
 92.88
21
 61.42
31
  0.06
0
LINE
8
CentreLine
10
 92.88
20
 61.42
30
  0.06
11
 92.61
21
 65.29
31
  0.00
000
ENDSEC
000
EOF
