<?xml version="1.0" encoding="ISO-8859-1"?>
<svg version="1.1" baseProfile="full"
xmlns="http://www.w3.org/2000/svg"
xmlns:xlink="http://www.w3.org/1999/xlink"
xmlns:ev="http://www.w3.org/2001/xml-events"
width="693.480mm" height="499.560mm"
viewBox="0 0 693.480 499.560">
<title>lost_in_a_dream</title>
<g transform="translate(5.000 494.560)">
<g id="Legs" stroke="black" fill="none" stroke-width="0.4px">
<path d="M207.800 -288.520L200.000 -289.560"/>
<path d="M213.600 -285.920L207.800 -288.520"/>
<path d="M240.040 -276.440L213.600 -285.920"/>
<path d="M243.440 -272.400L240.040 -276.440"/>
<path d="M262.680 -266.200L243.440 -272.400"/>
<path d="M285.400 -266.640L262.680 -266.200"/>
<path d="M296.040 -263.960L285.400 -266.640"/>
<path d="M310.120 -259.320L296.040 -263.960"/>
<path d="M321.760 -258.720L310.120 -259.320"/>
<path d="M325.040 -256.920L321.760 -258.720"/>
<path d="M334.600 -255.680L325.040 -256.920"/>
<path d="M348.040 -248.760L334.600 -255.680"/>
<path d="M360.280 -234.920L348.040 -248.760"/>
<path d="M366.880 -234.840L360.280 -234.920"/>
<path d="M389.240 -220.680L366.880 -234.840"/>
<path d="M393.480 -220.880L389.240 -220.680"/>
<path d="M408.640 -220.080L393.480 -220.880"/>
<path d="M409.600 -211.760L408.640 -220.080"/>
<path d="M421.120 -215.280L409.600 -211.760"/>
<path d="M436.080 -212.080L421.120 -215.280"/>
<path d="M443.600 -209.040L436.080 -212.080"/>
<path d="M461.920 -201.400L443.600 -209.040"/>
<path d="M465.160 -200.000L461.920 -201.400"/>
<path d="M483.480 -201.160L465.160 -200.000"/>
</g>
<g id="Labels" font-size="0.600em">
<text transform="translate(200.000 -289.560)">lost_in_a_dream.25</text>
<text transform="translate(200.000 -289.560)">pivnica_resurvey.13</text>
<text transform="translate(483.480 -201.160)">lost_in_a_dream.1</text>
<text transform="translate(465.160 -200.000)">lost_in_a_dream.2</text>
<text transform="translate(461.920 -201.400)">lost_in_a_dream.3</text>
<text transform="translate(443.600 -209.040)">lost_in_a_dream.4</text>
<text transform="translate(436.080 -212.080)">lost_in_a_dream.5</text>
<text transform="translate(421.120 -215.280)">lost_in_a_dream.6</text>
<text transform="translate(409.600 -211.760)">lost_in_a_dream.7</text>
<text transform="translate(408.640 -220.080)">lost_in_a_dream.8</text>
<text transform="translate(393.480 -220.880)">lost_in_a_dream.9</text>
<text transform="translate(389.240 -220.680)">lost_in_a_dream.10</text>
<text transform="translate(366.880 -234.840)">lost_in_a_dream.11</text>
<text transform="translate(360.280 -234.920)">lost_in_a_dream.12</text>
<text transform="translate(348.040 -248.760)">lost_in_a_dream.13</text>
<text transform="translate(334.600 -255.680)">lost_in_a_dream.14</text>
<text transform="translate(325.040 -256.920)">lost_in_a_dream.15</text>
<text transform="translate(321.760 -258.720)">lost_in_a_dream.16</text>
<text transform="translate(310.120 -259.320)">lost_in_a_dream.17</text>
<text transform="translate(296.040 -263.960)">lost_in_a_dream.18</text>
<text transform="translate(285.400 -266.640)">lost_in_a_dream.19</text>
<text transform="translate(262.680 -266.200)">lost_in_a_dream.20</text>
<text transform="translate(243.440 -272.400)">lost_in_a_dream.21</text>
<text transform="translate(240.040 -276.440)">lost_in_a_dream.22</text>
<text transform="translate(213.600 -285.920)">lost_in_a_dream.23</text>
<text transform="translate(207.800 -288.520)">lost_in_a_dream.24</text>
</g>
<g id="Stations" stroke="black" fill="none" stroke-width="0.05px">
<circle id="lost_in_a_dream.25" cx="200.000" cy="-289.560" r="1.131"/>
<path d="M199.200 -290.360L200.800 -288.760M200.800 -290.360L199.200 -288.760"/>
<circle id="lost_in_a_dream.25" cx="200.000" cy="-289.560" r="1.131"/>
<path d="M199.200 -290.360L200.800 -288.760M200.800 -290.360L199.200 -288.760"/>
<circle id="lost_in_a_dream.1" cx="483.480" cy="-201.160" r="1.131"/>
<path d="M482.680 -201.960L484.280 -200.360M484.280 -201.960L482.680 -200.360"/>
<circle id="lost_in_a_dream.2" cx="465.160" cy="-200.000" r="1.131"/>
<path d="M464.360 -200.800L465.960 -199.200M465.960 -200.800L464.360 -199.200"/>
<circle id="lost_in_a_dream.3" cx="461.920" cy="-201.400" r="1.131"/>
<path d="M461.120 -202.200L462.720 -200.600M462.720 -202.200L461.120 -200.600"/>
<circle id="lost_in_a_dream.4" cx="443.600" cy="-209.040" r="1.131"/>
<path d="M442.800 -209.840L444.400 -208.240M444.400 -209.840L442.800 -208.240"/>
<circle id="lost_in_a_dream.5" cx="436.080" cy="-212.080" r="1.131"/>
<path d="M435.280 -212.880L436.880 -211.280M436.880 -212.880L435.280 -211.280"/>
<circle id="lost_in_a_dream.6" cx="421.120" cy="-215.280" r="1.131"/>
<path d="M420.320 -216.080L421.920 -214.480M421.920 -216.080L420.320 -214.480"/>
<circle id="lost_in_a_dream.7" cx="409.600" cy="-211.760" r="1.131"/>
<path d="M408.800 -212.560L410.400 -210.960M410.400 -212.560L408.800 -210.960"/>
<circle id="lost_in_a_dream.8" cx="408.640" cy="-220.080" r="1.131"/>
<path d="M407.840 -220.880L409.440 -219.280M409.440 -220.880L407.840 -219.280"/>
<circle id="lost_in_a_dream.9" cx="393.480" cy="-220.880" r="1.131"/>
<path d="M392.680 -221.680L394.280 -220.080M394.280 -221.680L392.680 -220.080"/>
<circle id="lost_in_a_dream.10" cx="389.240" cy="-220.680" r="1.131"/>
<path d="M388.440 -221.480L390.040 -219.880M390.040 -221.480L388.440 -219.880"/>
<circle id="lost_in_a_dream.11" cx="366.880" cy="-234.840" r="1.131"/>
<path d="M366.080 -235.640L367.680 -234.040M367.680 -235.640L366.080 -234.040"/>
<circle id="lost_in_a_dream.12" cx="360.280" cy="-234.920" r="1.131"/>
<path d="M359.480 -235.720L361.080 -234.120M361.080 -235.720L359.480 -234.120"/>
<circle id="lost_in_a_dream.13" cx="348.040" cy="-248.760" r="1.131"/>
<path d="M347.240 -249.560L348.840 -247.960M348.840 -249.560L347.240 -247.960"/>
<circle id="lost_in_a_dream.14" cx="334.600" cy="-255.680" r="1.131"/>
<path d="M333.800 -256.480L335.400 -254.880M335.400 -256.480L333.800 -254.880"/>
<circle id="lost_in_a_dream.15" cx="325.040" cy="-256.920" r="1.131"/>
<path d="M324.240 -257.720L325.840 -256.120M325.840 -257.720L324.240 -256.120"/>
<circle id="lost_in_a_dream.16" cx="321.760" cy="-258.720" r="1.131"/>
<path d="M320.960 -259.520L322.560 -257.920M322.560 -259.520L320.960 -257.920"/>
<circle id="lost_in_a_dream.17" cx="310.120" cy="-259.320" r="1.131"/>
<path d="M309.320 -260.120L310.920 -258.520M310.920 -260.120L309.320 -258.520"/>
<circle id="lost_in_a_dream.18" cx="296.040" cy="-263.960" r="1.131"/>
<path d="M295.240 -264.760L296.840 -263.160M296.840 -264.760L295.240 -263.160"/>
<circle id="lost_in_a_dream.19" cx="285.400" cy="-266.640" r="1.131"/>
<path d="M284.600 -267.440L286.200 -265.840M286.200 -267.440L284.600 -265.840"/>
<circle id="lost_in_a_dream.20" cx="262.680" cy="-266.200" r="1.131"/>
<path d="M261.880 -267.000L263.480 -265.400M263.480 -267.000L261.880 -265.400"/>
<circle id="lost_in_a_dream.21" cx="243.440" cy="-272.400" r="1.131"/>
<path d="M242.640 -273.200L244.240 -271.600M244.240 -273.200L242.640 -271.600"/>
<circle id="lost_in_a_dream.22" cx="240.040" cy="-276.440" r="1.131"/>
<path d="M239.240 -277.240L240.840 -275.640M240.840 -277.240L239.240 -275.640"/>
<circle id="lost_in_a_dream.23" cx="213.600" cy="-285.920" r="1.131"/>
<path d="M212.800 -286.720L214.400 -285.120M214.400 -286.720L212.800 -285.120"/>
<circle id="lost_in_a_dream.24" cx="207.800" cy="-288.520" r="1.131"/>
<path d="M207.000 -289.320L208.600 -287.720M208.600 -289.320L207.000 -287.720"/>
</g>
</g>
</svg>
