<?xml version="1.0" encoding="ISO-8859-1"?>
<svg version="1.1" baseProfile="full"
xmlns="http://www.w3.org/2000/svg"
xmlns:xlink="http://www.w3.org/1999/xlink"
xmlns:ev="http://www.w3.org/2001/xml-events"
width="416.000mm" height="466.920mm"
viewBox="0 0 416.000 466.920">
<title>diagonalley</title>
<g transform="translate(5.000 461.920)">
<g id="Legs" stroke="black" fill="none" stroke-width="0.4px">
<path d="M200.000 -256.920L200.000 -218.120"/>
<path d="M200.000 -218.120L206.000 -219.600"/>
<path d="M206.000 -219.600L206.000 -200.000"/>
</g>
<g id="Labels" font-size="0.600em">
<text transform="translate(200.000 -256.920)">diagonalley.1</text>
<text transform="translate(200.000 -256.920)">lumos.19</text>
<text transform="translate(200.000 -218.120)">diagonalley.2</text>
<text transform="translate(206.000 -219.600)">diagonalley.3</text>
<text transform="translate(206.000 -200.000)">diagonalley.4</text>
</g>
<g id="Stations" stroke="black" fill="none" stroke-width="0.05px">
<circle id="diagonalley.1" cx="200.000" cy="-256.920" r="1.131"/>
<path d="M199.200 -257.720L200.800 -256.120M200.800 -257.720L199.200 -256.120"/>
<circle id="diagonalley.1" cx="200.000" cy="-256.920" r="1.131"/>
<path d="M199.200 -257.720L200.800 -256.120M200.800 -257.720L199.200 -256.120"/>
<circle id="diagonalley.2" cx="200.000" cy="-218.120" r="1.131"/>
<path d="M199.200 -218.920L200.800 -217.320M200.800 -218.920L199.200 -217.320"/>
<circle id="diagonalley.3" cx="206.000" cy="-219.600" r="1.131"/>
<path d="M205.200 -220.400L206.800 -218.800M206.800 -220.400L205.200 -218.800"/>
<circle id="diagonalley.4" cx="206.000" cy="-200.000" r="1.131"/>
<path d="M205.200 -200.800L206.800 -199.200M206.800 -200.800L205.200 -199.200"/>
</g>
</g>
</svg>
