<?xml version="1.0" encoding="ISO-8859-1"?>
<svg version="1.1" baseProfile="full"
xmlns="http://www.w3.org/2000/svg"
xmlns:xlink="http://www.w3.org/1999/xlink"
xmlns:ev="http://www.w3.org/2001/xml-events"
width="170.660mm" height="127.350mm"
viewBox="0 0 170.660 127.350">
<title>The_Stile</title>
<g transform="translate(5.000 122.350)">
<g id="Legs" stroke="black" fill="none" stroke-width="0.4px">
<path d="M50.000 -67.350L57.120 -63.720"/>
<path d="M57.120 -63.720L61.130 -62.570"/>
<path d="M61.130 -62.570L65.400 -62.500"/>
<path d="M65.400 -62.500L69.370 -62.570"/>
<path d="M69.370 -62.570L73.320 -62.840"/>
<path d="M73.320 -62.840L77.960 -62.520"/>
<path d="M77.960 -62.520L81.630 -62.520"/>
<path d="M81.630 -62.520L85.280 -62.070"/>
<path d="M85.280 -62.070L88.060 -61.920"/>
<path d="M88.060 -61.920L89.950 -61.660"/>
<path d="M89.950 -61.660L92.710 -59.730"/>
<path d="M92.710 -59.730L96.920 -55.940"/>
<path d="M96.920 -55.940L104.240 -52.520"/>
<path d="M104.240 -52.520L108.350 -51.260"/>
<path d="M108.350 -51.260L109.610 -50.000"/>
<path d="M109.610 -50.000L110.660 -50.410"/>
</g>
</g>
</svg>
