<?xml version="1.0" encoding="utf-8" standalone="no"?>
<!-- Generated by Therion 5.4.1+? (compiled on 2018-06-25) -->
<!DOCTYPE svg PUBLIC "-//W3C//DTD SVG 1.1//EN" "http://www.w3.org/Graphics/SVG/1.1/DTD/svg11.dtd">
<svg width="2.988cm" height="4.293cm" viewBox="-42.254 -90.721 84.693 121.693" xmlns="http://www.w3.org/2000/svg" xmlns:xlink="http://www.w3.org/1999/xlink">
<defs>
<g id="F_aaaaaaa_thirdthoughts.svg">
</g>
<g id="G_aaaaaaa_thirdthoughts.svg">
</g>
<g id="B_aaaaaaa_thirdthoughts.svg">
</g>
<g id="I_aaaaaaa_thirdthoughts.svg">
</g>
<g id="E_aaaaaaa_thirdthoughts.svg">
<path fill="none" stroke="#000000" stroke-width="0.500" d="M13.910 2.630L13.910 2.630" />
<path fill="none" stroke="#000000" stroke-width="0.500" d="M13.910 2.630L16.800 16.290" />
<path fill="none" stroke="#000000" stroke-width="0.500" d="M13.910 2.630L13.910 2.630" />
<path fill="none" stroke="#000000" stroke-width="0.500" d="M16.800 16.290L23.430 24.450" />
<path fill="none" stroke="#000000" stroke-width="0.500" d="M16.800 16.290L13.910 2.630" />
<path fill="none" stroke="#000000" stroke-width="0.500" d="M23.430 24.450L5.910 47.640" />
<path fill="none" stroke="#000000" stroke-width="0.500" d="M23.430 24.450L16.800 16.290" />
<path fill="none" stroke="#000000" stroke-width="0.500" d="M5.910 47.640L2.570 59.370" />
<path fill="none" stroke="#000000" stroke-width="0.500" d="M5.910 47.640L23.430 24.450" />
<path fill="none" stroke="#000000" stroke-width="0.500" d="M2.570 59.370L2.570 59.370" />
<path fill="none" stroke="#000000" stroke-width="0.500" d="M2.570 59.370L5.910 47.640" />
<path fill="none" stroke="#000000" stroke-width="0.500" d="M2.570 59.370L2.850 58.180" />
<path fill="none" stroke="#000000" stroke-width="0.500" d="M2.570 59.370L2.570 59.370" />
<path fill="none" stroke="#000000" stroke-width="0.500" d="M2.850 58.180L2.570 59.370" />
<path fill="none" stroke="#000000" stroke-width="0.350" d="M11.910 2.630L15.910 2.630" />
<path fill="none" stroke="#000000" stroke-width="0.350" d="M13.910 0.630L13.910 4.630" />
<path fill="#ffffff" stroke="none" d="M14.710 2.630C14.710 2.842 14.626 3.046 14.476 3.196C14.326 3.346 14.122 3.430 13.910 3.430C13.698 3.430 13.494 3.346 13.344 3.196C13.194 3.046 13.110 2.842 13.110 2.630C13.110 2.418 13.194 2.214 13.344 2.064C13.494 1.914 13.698 1.830 13.910 1.830C14.122 1.830 14.326 1.914 14.476 2.064C14.626 2.214 14.710 2.418 14.710 2.630Z" />
<path fill="none" stroke="#000000" stroke-width="0.500" d="M13.910 2.630h0.001" />
<path fill="none" stroke="#000000" stroke-width="0.350" d="M11.910 2.630L15.910 2.630" />
<path fill="none" stroke="#000000" stroke-width="0.350" d="M13.910 0.630L13.910 4.630" />
<path fill="#ffffff" stroke="none" d="M14.710 2.630C14.710 2.842 14.626 3.046 14.476 3.196C14.326 3.346 14.122 3.430 13.910 3.430C13.698 3.430 13.494 3.346 13.344 3.196C13.194 3.046 13.110 2.842 13.110 2.630C13.110 2.418 13.194 2.214 13.344 2.064C13.494 1.914 13.698 1.830 13.910 1.830C14.122 1.830 14.326 1.914 14.476 2.064C14.626 2.214 14.710 2.418 14.710 2.630Z" />
<path fill="none" stroke="#000000" stroke-width="0.500" d="M13.910 2.630h0.001" />
<path fill="none" stroke="#000000" stroke-width="0.350" d="M14.800 16.290L18.800 16.290" />
<path fill="none" stroke="#000000" stroke-width="0.350" d="M16.800 14.290L16.800 18.290" />
<path fill="#ffffff" stroke="none" d="M17.600 16.290C17.600 16.502 17.516 16.706 17.366 16.856C17.216 17.006 17.012 17.090 16.800 17.090C16.588 17.090 16.384 17.006 16.234 16.856C16.084 16.706 16.000 16.502 16.000 16.290C16.000 16.078 16.084 15.874 16.234 15.724C16.384 15.574 16.588 15.490 16.800 15.490C17.012 15.490 17.216 15.574 17.366 15.724C17.516 15.874 17.600 16.078 17.600 16.290Z" />
<path fill="none" stroke="#000000" stroke-width="0.500" d="M16.800 16.290h0.001" />
<path fill="none" stroke="#000000" stroke-width="0.350" d="M21.430 24.450L25.430 24.450" />
<path fill="none" stroke="#000000" stroke-width="0.350" d="M23.430 22.450L23.430 26.450" />
<path fill="#ffffff" stroke="none" d="M24.230 24.450C24.230 24.662 24.146 24.866 23.996 25.016C23.846 25.166 23.642 25.250 23.430 25.250C23.218 25.250 23.014 25.166 22.864 25.016C22.714 24.866 22.630 24.662 22.630 24.450C22.630 24.238 22.714 24.034 22.864 23.884C23.014 23.734 23.218 23.650 23.430 23.650C23.642 23.650 23.846 23.734 23.996 23.884C24.146 24.034 24.230 24.238 24.230 24.450Z" />
<path fill="none" stroke="#000000" stroke-width="0.500" d="M23.430 24.450h0.001" />
<path fill="none" stroke="#000000" stroke-width="0.350" d="M3.910 47.640L7.910 47.640" />
<path fill="none" stroke="#000000" stroke-width="0.350" d="M5.910 45.640L5.910 49.640" />
<path fill="#ffffff" stroke="none" d="M6.710 47.640C6.710 47.852 6.626 48.056 6.476 48.206C6.326 48.356 6.122 48.440 5.910 48.440C5.698 48.440 5.494 48.356 5.344 48.206C5.194 48.056 5.110 47.852 5.110 47.640C5.110 47.428 5.194 47.224 5.344 47.074C5.494 46.924 5.698 46.840 5.910 46.840C6.122 46.840 6.326 46.924 6.476 47.074C6.626 47.224 6.710 47.428 6.710 47.640Z" />
<path fill="none" stroke="#000000" stroke-width="0.500" d="M5.910 47.640h0.001" />
<path fill="none" stroke="#000000" stroke-width="0.350" d="M0.570 59.370L4.570 59.370" />
<path fill="none" stroke="#000000" stroke-width="0.350" d="M2.570 57.370L2.570 61.370" />
<path fill="#ffffff" stroke="none" d="M3.370 59.370C3.370 59.582 3.286 59.786 3.136 59.936C2.986 60.086 2.782 60.170 2.570 60.170C2.358 60.170 2.154 60.086 2.004 59.936C1.854 59.786 1.770 59.582 1.770 59.370C1.770 59.158 1.854 58.954 2.004 58.804C2.154 58.654 2.358 58.570 2.570 58.570C2.782 58.570 2.986 58.654 3.136 58.804C3.286 58.954 3.370 59.158 3.370 59.370Z" />
<path fill="none" stroke="#000000" stroke-width="0.500" d="M2.570 59.370h0.001" />
<path fill="none" stroke="#000000" stroke-width="0.350" d="M0.570 59.370L4.570 59.370" />
<path fill="none" stroke="#000000" stroke-width="0.350" d="M2.570 57.370L2.570 61.370" />
<path fill="#ffffff" stroke="none" d="M3.370 59.370C3.370 59.582 3.286 59.786 3.136 59.936C2.986 60.086 2.782 60.170 2.570 60.170C2.358 60.170 2.154 60.086 2.004 59.936C1.854 59.786 1.770 59.582 1.770 59.370C1.770 59.158 1.854 58.954 2.004 58.804C2.154 58.654 2.358 58.570 2.570 58.570C2.782 58.570 2.986 58.654 3.136 58.804C3.286 58.954 3.370 59.158 3.370 59.370Z" />
<path fill="none" stroke="#000000" stroke-width="0.500" d="M2.570 59.370h0.001" />
<path fill="none" stroke="#000000" stroke-width="0.350" d="M0.850 58.180L4.850 58.180" />
<path fill="none" stroke="#000000" stroke-width="0.350" d="M2.850 56.180L2.850 60.180" />
<path fill="#ffffff" stroke="none" d="M3.650 58.180C3.650 58.392 3.566 58.596 3.416 58.746C3.266 58.896 3.062 58.980 2.850 58.980C2.638 58.980 2.434 58.896 2.284 58.746C2.134 58.596 2.050 58.392 2.050 58.180C2.050 57.968 2.134 57.764 2.284 57.614C2.434 57.464 2.638 57.380 2.850 57.380C3.062 57.380 3.266 57.464 3.416 57.614C3.566 57.764 3.650 57.968 3.650 58.180Z" />
<path fill="none" stroke="#000000" stroke-width="0.500" d="M2.850 58.180h0.001" />
</g>
<g id="X_aaaaaaa_thirdthoughts.svg">
<text font-family="cmss10" font-size="6.974" fill="black" stroke="none" transform="matrix(1.000 0.000 -0.000 -1.000 11.785 0.505)">&#x31;</text>
<text font-family="cmss10" font-size="6.974" fill="black" stroke="none" transform="matrix(1.000 0.000 -0.000 -1.000 11.785 0.505)">&#x32;</text>
<text font-family="cmss10" font-size="6.974" fill="black" stroke="none" transform="matrix(1.000 0.000 -0.000 -1.000 14.675 14.165)">&#x33;</text>
<text font-family="cmss10" font-size="6.974" fill="black" stroke="none" transform="matrix(1.000 0.000 -0.000 -1.000 21.305 22.325)">&#x34;</text>
<text font-family="cmss10" font-size="6.974" fill="black" stroke="none" transform="matrix(1.000 0.000 -0.000 -1.000 3.785 45.515)">&#x35;</text>
<text font-family="cmss10" font-size="6.974" fill="black" stroke="none" transform="matrix(1.000 0.000 -0.000 -1.000 0.445 57.245)">&#x36;</text>
<text font-family="cmss10" font-size="6.974" fill="black" stroke="none" transform="matrix(1.000 0.000 -0.000 -1.000 0.445 57.245)">&#x37;</text>
<text font-family="cmss10" font-size="6.974" fill="black" stroke="none" transform="matrix(1.000 0.000 -0.000 -1.000 0.725 56.055)">&#x38;</text>
</g>
<clipPath id="clip_viewBox">
<path d="M-42.254 -30.972L42.439 -30.972L42.439 90.721L-42.254 90.721z" />
</clipPath>
</defs>
<g transform="scale(1,-1)" fill="#000000" stroke="#000000" stroke-linecap="round" stroke-linejoin="round" stroke-miterlimit="10" fill-rule="evenodd" clip-rule="evenodd" clip-path="url(#clip_viewBox)">
<use x="-13.907" y="-2.625" xlink:href="#E_aaaaaaa_thirdthoughts.svg" />
<use x="-10.907" y="0.375" xlink:href="#X_aaaaaaa_thirdthoughts.svg" />
</g>
</svg>
