<?xml version="1.0" encoding="UTF-8" standalone="no"?>
<svg
   xmlns:dc="http://purl.org/dc/elements/1.1/"
   xmlns:cc="http://creativecommons.org/ns#"
   xmlns:rdf="http://www.w3.org/1999/02/22-rdf-syntax-ns#"
   xmlns:svg="http://www.w3.org/2000/svg"
   xmlns="http://www.w3.org/2000/svg"
   xmlns:sodipodi="http://sodipodi.sourceforge.net/DTD/sodipodi-0.dtd"
   xmlns:inkscape="http://www.inkscape.org/namespaces/inkscape"
   version="1.1"
   width="1076.160mm"
   height="540.240mm"
   viewBox="0 0 1076.160 540.240"
   id="svg357"
   sodipodi:docname="monatip4_extend.svg"
   inkscape:version="0.92.2 5c3e80d, 2017-08-06">
  <metadata
     id="metadata363">
    <rdf:RDF>
      <cc:Work
         rdf:about="">
        <dc:format>image/svg+xml</dc:format>
        <dc:type
           rdf:resource="http://purl.org/dc/dcmitype/StillImage" />
      </cc:Work>
    </rdf:RDF>
  </metadata>
  <defs
     id="defs361" />
  <sodipodi:namedview
     pagecolor="#ffffff"
     bordercolor="#666666"
     borderopacity="1"
     objecttolerance="10"
     gridtolerance="10"
     guidetolerance="10"
     inkscape:pageopacity="0"
     inkscape:pageshadow="2"
     inkscape:window-width="1320"
     inkscape:window-height="702"
     id="namedview359"
     showgrid="false"
     inkscape:zoom="0.31863291"
     inkscape:cx="3443.3172"
     inkscape:cy="679.32081"
     inkscape:window-x="0"
     inkscape:window-y="0"
     inkscape:window-maximized="0"
     inkscape:current-layer="svg357" />
  <title
     id="title2">monatip4</title>
  <path
     style="fill:none;stroke:#000000;stroke-width:0.40000001px"
     d="M 205,206.24 228.88,205"
     id="path4"
     inkscape:connector-curvature="0" />
  <path
     style="fill:none;stroke:#000000;stroke-width:0.40000001px"
     d="m 228.88,205 9.08,7.64"
     id="path6"
     inkscape:connector-curvature="0" />
  <path
     style="fill:none;stroke:#000000;stroke-width:0.40000001px"
     d="m 237.96,212.64 13.4,-3.36"
     id="path8"
     inkscape:connector-curvature="0" />
  <path
     style="fill:none;stroke:#000000;stroke-width:0.40000001px"
     d="m 251.36,209.28 14,0.24"
     id="path10"
     inkscape:connector-curvature="0" />
  <path
     style="fill:none;stroke:#000000;stroke-width:0.40000001px"
     d="m 265.36,209.52 10.6,0.56"
     id="path12"
     inkscape:connector-curvature="0" />
  <path
     style="fill:none;stroke:#000000;stroke-width:0.40000001px"
     d="m 275.96,210.08 v 10.6"
     id="path14"
     inkscape:connector-curvature="0" />
  <path
     style="fill:none;stroke:#000000;stroke-width:0.40000001px"
     d="m 275.96,220.68 15.2,15.24"
     id="path16"
     inkscape:connector-curvature="0" />
  <path
     style="fill:none;stroke:#000000;stroke-width:0.40000001px"
     d="m 291.16,235.92 48.92,-10.4"
     id="path18"
     inkscape:connector-curvature="0" />
  <path
     style="fill:none;stroke:#000000;stroke-width:0.40000001px"
     d="m 340.08,225.52 15.64,4.16"
     id="path20"
     inkscape:connector-curvature="0" />
  <path
     style="fill:none;stroke:#000000;stroke-width:0.40000001px"
     d="m 355.72,229.68 18.2,1.92"
     id="path22"
     inkscape:connector-curvature="0" />
  <path
     style="fill:none;stroke:#000000;stroke-width:0.40000001px"
     d="m 373.92,231.6 14.8,0.8"
     id="path24"
     inkscape:connector-curvature="0" />
  <path
     style="fill:none;stroke:#000000;stroke-width:0.40000001px"
     d="m 388.72,232.4 12.92,-3.24"
     id="path26"
     inkscape:connector-curvature="0" />
  <path
     style="fill:none;stroke:#000000;stroke-width:0.40000001px"
     d="m 401.64,229.16 17.6,4.4"
     id="path28"
     inkscape:connector-curvature="0" />
  <path
     style="fill:none;stroke:#000000;stroke-width:0.40000001px"
     d="m 419.24,233.56 16.6,-0.88"
     id="path30"
     inkscape:connector-curvature="0" />
  <path
     style="fill:none;stroke:#000000;stroke-width:0.40000001px"
     d="m 435.84,232.68 10.4,2.2"
     id="path32"
     inkscape:connector-curvature="0" />
  <path
     style="fill:none;stroke:#000000;stroke-width:0.40000001px"
     d="m 446.24,234.88 5.96,15.64"
     id="path34"
     inkscape:connector-curvature="0" />
  <path
     style="fill:none;stroke:#000000;stroke-width:0.40000001px"
     d="m 452.2,250.52 20.56,2.16"
     id="path36"
     inkscape:connector-curvature="0" />
  <path
     style="fill:none;stroke:#000000;stroke-width:0.40000001px"
     d="m 472.76,252.68 16.84,2.64"
     id="path38"
     inkscape:connector-curvature="0" />
  <path
     style="fill:none;stroke:#000000;stroke-width:0.40000001px"
     d="m 489.6,255.32 17.2,0.6"
     id="path40"
     inkscape:connector-curvature="0" />
  <path
     style="fill:none;stroke:#000000;stroke-width:0.40000001px"
     d="m 506.8,255.92 13.8,2.44"
     id="path42"
     inkscape:connector-curvature="0" />
  <path
     style="fill:none;stroke:#000000;stroke-width:0.40000001px"
     d="M 520.6,258.36 531.76,256"
     id="path44"
     inkscape:connector-curvature="0" />
  <path
     style="fill:none;stroke:#000000;stroke-width:0.40000001px"
     d="m 531.76,256 9.8,0.68"
     id="path46"
     inkscape:connector-curvature="0" />
  <path
     style="fill:none;stroke:#000000;stroke-width:0.40000001px"
     d="m 541.56,256.68 9.08,3.48"
     id="path48"
     inkscape:connector-curvature="0" />
  <path
     style="fill:none;stroke:#000000;stroke-width:0.40000001px"
     d="m 550.64,260.16 19.24,8.56"
     id="path50"
     inkscape:connector-curvature="0" />
  <path
     style="fill:none;stroke:#000000;stroke-width:0.40000001px"
     d="m 569.88,268.72 9.44,1.32"
     id="path52"
     inkscape:connector-curvature="0" />
  <path
     style="fill:none;stroke:#000000;stroke-width:0.40000001px"
     d="m 579.32,270.04 8.96,2.72"
     id="path54"
     inkscape:connector-curvature="0" />
  <path
     style="fill:none;stroke:#000000;stroke-width:0.40000001px"
     d="m 588.28,272.76 19.52,9.12"
     id="path56"
     inkscape:connector-curvature="0" />
  <path
     style="fill:none;stroke:#000000;stroke-width:0.40000001px"
     d="m 607.8,281.88 16,7.8"
     id="path58"
     inkscape:connector-curvature="0" />
  <path
     style="fill:none;stroke:#000000;stroke-width:0.40000001px"
     d="m 932.10759,289.68 -15.4,0.52"
     id="path60"
     inkscape:connector-curvature="0" />
  <path
     style="fill:none;stroke:#000000;stroke-width:0.40000001px"
     d="m 916.70759,290.2 -11.88,2.76"
     id="path62"
     inkscape:connector-curvature="0" />
  <path
     style="fill:none;stroke:#000000;stroke-width:0.40000001px"
     d="m 904.82759,292.96 -8.16,7.64"
     id="path64"
     inkscape:connector-curvature="0" />
  <path
     style="fill:none;stroke:#000000;stroke-width:0.40000001px"
     d="m 896.66759,300.6 -9.52,-2.36"
     id="path66"
     inkscape:connector-curvature="0" />
  <path
     style="fill:none;stroke:#000000;stroke-width:0.40000001px"
     d="m 887.14759,298.24 -7.88,2.24"
     id="path68"
     inkscape:connector-curvature="0" />
  <path
     style="fill:none;stroke:#000000;stroke-width:0.40000001px"
     d="m 879.26759,300.48 -8.04,-1"
     id="path70"
     inkscape:connector-curvature="0" />
  <path
     style="fill:none;stroke:#000000;stroke-width:0.40000001px"
     d="m 871.22759,299.48 -11.84,8.64"
     id="path72"
     inkscape:connector-curvature="0" />
  <path
     style="fill:none;stroke:#000000;stroke-width:0.40000001px"
     d="m 859.38759,308.12 -8.64,3.68"
     id="path74"
     inkscape:connector-curvature="0" />
  <path
     style="fill:none;stroke:#000000;stroke-width:0.40000001px"
     d="m 850.74759,311.8 -12.08,-0.44"
     id="path76"
     inkscape:connector-curvature="0" />
  <path
     style="fill:none;stroke:#000000;stroke-width:0.40000001px"
     d="m 838.66759,311.36 -13.52,-2.12"
     id="path78"
     inkscape:connector-curvature="0" />
  <path
     style="fill:none;stroke:#000000;stroke-width:0.40000001px"
     d="m 825.14759,309.24 -7.44,3.28"
     id="path80"
     inkscape:connector-curvature="0" />
  <path
     style="fill:none;stroke:#000000;stroke-width:0.40000001px"
     d="m 817.70759,312.52 -5.4,-1.24"
     id="path82"
     inkscape:connector-curvature="0" />
  <path
     style="fill:none;stroke:#000000;stroke-width:0.40000001px"
     d="m 812.30759,311.28 -17,3.28"
     id="path84"
     inkscape:connector-curvature="0" />
  <path
     style="fill:none;stroke:#000000;stroke-width:0.40000001px"
     d="m 795.30759,314.56 -19.32,2.72"
     id="path86"
     inkscape:connector-curvature="0" />
  <path
     style="fill:none;stroke:#000000;stroke-width:0.40000001px"
     d="m 775.98759,317.28 -9.4,-1.32"
     id="path88"
     inkscape:connector-curvature="0" />
  <path
     style="fill:none;stroke:#000000;stroke-width:0.40000001px"
     d="m 766.58759,315.96 -6.36,-2.2"
     id="path90"
     inkscape:connector-curvature="0" />
  <path
     style="fill:none;stroke:#000000;stroke-width:0.40000001px"
     d="m 760.22759,313.76 -12.04,-0.84"
     id="path92"
     inkscape:connector-curvature="0" />
  <path
     style="fill:none;stroke:#000000;stroke-width:0.40000001px"
     d="m 748.18759,312.92 -9.08,4.64"
     id="path94"
     inkscape:connector-curvature="0" />
  <path
     style="fill:none;stroke:#000000;stroke-width:0.40000001px"
     d="m 739.10759,317.56 -7.92,4.36"
     id="path96"
     inkscape:connector-curvature="0" />
  <path
     style="fill:none;stroke:#000000;stroke-width:0.40000001px"
     d="m 731.18759,321.92 -14.24,13.32"
     id="path98"
     inkscape:connector-curvature="0" />
  <path
     style="fill:none;stroke:#000000;stroke-width:0.40000001px"
     d="m 716.94759,335.24 -32.2,-6.28"
     id="path100"
     inkscape:connector-curvature="0" />
  <text
     style="font-size:3.52777777px;"
     id="text103"
     x="205"
     y="206.24001">1</text>
  <text
     style="font-size:3.52777777px;"
     id="text105"
     x="228.88"
     y="205">2</text>
  <text
     style="font-size:3.52777777px;"
     id="text107"
     x="237.96001"
     y="212.64">3</text>
  <text
     style="font-size:3.52777777px;"
     id="text109"
     x="251.36"
     y="209.28">4</text>
  <text
     style="font-size:3.52777777px;"
     id="text111"
     x="265.35999"
     y="209.52">5</text>
  <text
     style="font-size:3.52777777px;"
     id="text113"
     x="275.95999"
     y="210.08">6</text>
  <text
     style="font-size:3.52777777px;"
     id="text115"
     x="275.95999"
     y="220.67999">7</text>
  <text
     style="font-size:3.52777777px;"
     id="text117"
     x="291.16"
     y="235.92">8</text>
  <text
     style="font-size:3.52777777px;"
     id="text119"
     x="340.07999"
     y="225.52">9</text>
  <text
     style="font-size:3.52777777px;"
     id="text121"
     x="355.72"
     y="229.67999">10</text>
  <text
     style="font-size:3.52777777px;"
     id="text123"
     x="373.92001"
     y="231.60001">11</text>
  <text
     style="font-size:3.52777777px;"
     id="text125"
     x="388.72"
     y="232.39999">12</text>
  <text
     style="font-size:3.52777777px;"
     id="text127"
     x="401.64001"
     y="229.16">13</text>
  <text
     style="font-size:3.52777777px;"
     id="text129"
     x="419.23999"
     y="233.56">14</text>
  <text
     style="font-size:3.52777777px;"
     id="text131"
     x="435.84"
     y="232.67999">15</text>
  <text
     style="font-size:3.52777777px;"
     id="text133"
     x="446.23999"
     y="234.88">16</text>
  <text
     style="font-size:3.52777777px;"
     id="text135"
     x="452.20001"
     y="250.52">17</text>
  <text
     style="font-size:3.52777777px;"
     id="text137"
     x="472.76001"
     y="252.67999">18</text>
  <text
     style="font-size:3.52777777px;"
     id="text139"
     x="489.60001"
     y="255.32001">19</text>
  <text
     style="font-size:3.52777777px;"
     id="text141"
     x="506.79999"
     y="255.92">20</text>
  <text
     style="font-size:3.52777777px;"
     id="text143"
     x="520.59998"
     y="258.35999">21</text>
  <text
     style="font-size:3.52777777px;"
     id="text145"
     x="531.76001"
     y="256">22</text>
  <text
     style="font-size:3.52777777px;"
     id="text147"
     x="541.56"
     y="256.67999">23</text>
  <text
     style="font-size:3.52777777px;"
     id="text149"
     x="550.64001"
     y="260.16">24</text>
  <text
     style="font-size:3.52777777px;"
     id="text151"
     x="569.88"
     y="268.72">25</text>
  <text
     style="font-size:3.52777777px;"
     id="text153"
     x="579.32001"
     y="270.04001">26</text>
  <text
     style="font-size:3.52777777px;"
     id="text155"
     x="588.28003"
     y="272.76001">27</text>
  <text
     style="font-size:3.52777777px;"
     id="text157"
     x="607.79999"
     y="281.88">28</text>
  <text
     style="font-size:3.52777767px"
     id="text159"
     x="927.38422"
     y="289.16101">29</text>
  <text
     style="font-size:3.52777767px"
     id="text161"
     x="912.18237"
     y="290.20001">30</text>
  <text
     style="font-size:3.52777777px;"
     id="text163"
     x="-904.82751"
     y="292.95999"
     transform="scale(-1,1)">31</text>
  <text
     style="font-size:3.52777777px;"
     id="text165"
     x="-896.66754"
     y="300.60001"
     transform="scale(-1,1)">32</text>
  <text
     style="font-size:3.52777777px;"
     id="text167"
     x="-887.14752"
     y="298.23999"
     transform="scale(-1,1)">33</text>
  <text
     style="font-size:3.52777777px;"
     id="text169"
     x="-879.26752"
     y="300.48001"
     transform="scale(-1,1)">34</text>
  <text
     style="font-size:3.52777777px;"
     id="text171"
     x="-871.22754"
     y="299.48001"
     transform="scale(-1,1)">35</text>
  <text
     style="font-size:3.52777777px;"
     id="text173"
     x="-859.38751"
     y="308.12"
     transform="scale(-1,1)">36</text>
  <text
     style="font-size:3.52777777px;"
     id="text175"
     x="-850.74756"
     y="311.79999"
     transform="scale(-1,1)">37</text>
  <text
     style="font-size:3.52777777px;"
     id="text177"
     x="-838.66754"
     y="311.35999"
     transform="scale(-1,1)">38</text>
  <text
     style="font-size:3.52777777px;"
     id="text179"
     x="-825.14752"
     y="309.23999"
     transform="scale(-1,1)">39</text>
  <text
     style="font-size:3.52777777px;"
     id="text181"
     x="-817.70752"
     y="312.51999"
     transform="scale(-1,1)">40</text>
  <text
     style="font-size:3.52777777px;"
     id="text183"
     x="-812.30756"
     y="311.28"
     transform="scale(-1,1)">41</text>
  <text
     style="font-size:3.52777777px;"
     id="text185"
     x="-795.30756"
     y="314.56"
     transform="scale(-1,1)">42</text>
  <text
     style="font-size:3.52777767px"
     id="text187"
     x="771.67438"
     y="319.66733">43</text>
  <text
     style="font-size:3.52777767px"
     id="text189"
     x="762.12268"
     y="315.95999">44</text>
  <text
     style="font-size:3.52777767px"
     id="text191"
     x="755.87292"
     y="313.76001">45</text>
  <text
     style="font-size:3.52777767px"
     id="text193"
     x="743.56549"
     y="313.12759">46</text>
  <text
     style="font-size:3.52777777px;"
     id="text195"
     x="-739.10754"
     y="317.56"
     transform="scale(-1,1)">47</text>
  <text
     style="font-size:3.52777767px"
     id="text197"
     x="726.0072"
     y="321.92001">48</text>
  <text
     style="font-size:3.52777767px"
     id="text199"
     x="712.51715"
     y="337.5235">49</text>
  <text
     style="font-size:3.52777767px"
     id="text201"
     x="680.44946"
     y="329.37518">50</text>
  <circle
     style="fill:none;stroke:#000000;stroke-width:0.05px"
     id="monatip4.1"
     cx="205"
     cy="206.24001"
     r="1.131" />
  <path
     style="fill:none;stroke:#000000;stroke-width:0.05px"
     d="m 204.2,205.44 1.6,1.6 m 0,-1.6 -1.6,1.6"
     id="path205"
     inkscape:connector-curvature="0" />
  <circle
     style="fill:none;stroke:#000000;stroke-width:0.05px"
     id="monatip4.2"
     cx="228.88"
     cy="205.00002"
     r="1.131" />
  <path
     style="fill:none;stroke:#000000;stroke-width:0.05px"
     d="m 228.08,204.2 1.6,1.6 m 0,-1.6 -1.6,1.6"
     id="path208"
     inkscape:connector-curvature="0" />
  <circle
     style="fill:none;stroke:#000000;stroke-width:0.05px"
     id="monatip4.3"
     cx="237.96001"
     cy="212.64"
     r="1.131" />
  <path
     style="fill:none;stroke:#000000;stroke-width:0.05px"
     d="m 237.16,211.84 1.6,1.6 m 0,-1.6 -1.6,1.6"
     id="path211"
     inkscape:connector-curvature="0" />
  <circle
     style="fill:none;stroke:#000000;stroke-width:0.05px"
     id="monatip4.4"
     cx="251.36"
     cy="209.28001"
     r="1.131" />
  <path
     style="fill:none;stroke:#000000;stroke-width:0.05px"
     d="m 250.56,208.48 1.6,1.6 m 0,-1.6 -1.6,1.6"
     id="path214"
     inkscape:connector-curvature="0" />
  <circle
     style="fill:none;stroke:#000000;stroke-width:0.05px"
     id="monatip4.5"
     cx="265.35999"
     cy="209.52"
     r="1.131" />
  <path
     style="fill:none;stroke:#000000;stroke-width:0.05px"
     d="m 264.56,208.72 1.6,1.6 m 0,-1.6 -1.6,1.6"
     id="path217"
     inkscape:connector-curvature="0" />
  <circle
     style="fill:none;stroke:#000000;stroke-width:0.05px"
     id="monatip4.6"
     cx="275.95999"
     cy="210.08"
     r="1.131" />
  <path
     style="fill:none;stroke:#000000;stroke-width:0.05px"
     d="m 275.16,209.28 1.6,1.6 m 0,-1.6 -1.6,1.6"
     id="path220"
     inkscape:connector-curvature="0" />
  <circle
     style="fill:none;stroke:#000000;stroke-width:0.05px"
     id="monatip4.7"
     cx="275.95999"
     cy="220.68001"
     r="1.131" />
  <path
     style="fill:none;stroke:#000000;stroke-width:0.05px"
     d="m 275.16,219.88 1.6,1.6 m 0,-1.6 -1.6,1.6"
     id="path223"
     inkscape:connector-curvature="0" />
  <circle
     style="fill:none;stroke:#000000;stroke-width:0.05px"
     id="monatip4.8"
     cx="291.16"
     cy="235.92"
     r="1.131" />
  <path
     style="fill:none;stroke:#000000;stroke-width:0.05px"
     d="m 290.36,235.12 1.6,1.6 m 0,-1.6 -1.6,1.6"
     id="path226"
     inkscape:connector-curvature="0" />
  <circle
     style="fill:none;stroke:#000000;stroke-width:0.05px"
     id="monatip4.9"
     cx="340.07999"
     cy="225.52"
     r="1.131" />
  <path
     style="fill:none;stroke:#000000;stroke-width:0.05px"
     d="m 339.28,224.72 1.6,1.6 m 0,-1.6 -1.6,1.6"
     id="path229"
     inkscape:connector-curvature="0" />
  <circle
     style="fill:none;stroke:#000000;stroke-width:0.05px"
     id="monatip4.10"
     cx="355.72"
     cy="229.68001"
     r="1.131" />
  <path
     style="fill:none;stroke:#000000;stroke-width:0.05px"
     d="m 354.92,228.88 1.6,1.6 m 0,-1.6 -1.6,1.6"
     id="path232"
     inkscape:connector-curvature="0" />
  <circle
     style="fill:none;stroke:#000000;stroke-width:0.05px"
     id="monatip4.11"
     cx="373.92001"
     cy="231.59999"
     r="1.131" />
  <path
     style="fill:none;stroke:#000000;stroke-width:0.05px"
     d="m 373.12,230.8 1.6,1.6 m 0,-1.6 -1.6,1.6"
     id="path235"
     inkscape:connector-curvature="0" />
  <circle
     style="fill:none;stroke:#000000;stroke-width:0.05px"
     id="monatip4.12"
     cx="388.72"
     cy="232.40001"
     r="1.131" />
  <path
     style="fill:none;stroke:#000000;stroke-width:0.05px"
     d="m 387.92,231.6 1.6,1.6 m 0,-1.6 -1.6,1.6"
     id="path238"
     inkscape:connector-curvature="0" />
  <circle
     style="fill:none;stroke:#000000;stroke-width:0.05px"
     id="monatip4.13"
     cx="401.64001"
     cy="229.16002"
     r="1.131" />
  <path
     style="fill:none;stroke:#000000;stroke-width:0.05px"
     d="m 400.84,228.36 1.6,1.6 m 0,-1.6 -1.6,1.6"
     id="path241"
     inkscape:connector-curvature="0" />
  <circle
     style="fill:none;stroke:#000000;stroke-width:0.05px"
     id="monatip4.14"
     cx="419.23999"
     cy="233.56001"
     r="1.131" />
  <path
     style="fill:none;stroke:#000000;stroke-width:0.05px"
     d="m 418.44,232.76 1.6,1.6 m 0,-1.6 -1.6,1.6"
     id="path244"
     inkscape:connector-curvature="0" />
  <circle
     style="fill:none;stroke:#000000;stroke-width:0.05px"
     id="monatip4.15"
     cx="435.84"
     cy="232.68001"
     r="1.131" />
  <path
     style="fill:none;stroke:#000000;stroke-width:0.05px"
     d="m 435.04,231.88 1.6,1.6 m 0,-1.6 -1.6,1.6"
     id="path247"
     inkscape:connector-curvature="0" />
  <circle
     style="fill:none;stroke:#000000;stroke-width:0.05px"
     id="monatip4.16"
     cx="446.23999"
     cy="234.88002"
     r="1.131" />
  <path
     style="fill:none;stroke:#000000;stroke-width:0.05px"
     d="m 445.44,234.08 1.6,1.6 m 0,-1.6 -1.6,1.6"
     id="path250"
     inkscape:connector-curvature="0" />
  <circle
     style="fill:none;stroke:#000000;stroke-width:0.05px"
     id="monatip4.17"
     cx="452.20001"
     cy="250.52"
     r="1.131" />
  <path
     style="fill:none;stroke:#000000;stroke-width:0.05px"
     d="m 451.4,249.72 1.6,1.6 m 0,-1.6 -1.6,1.6"
     id="path253"
     inkscape:connector-curvature="0" />
  <circle
     style="fill:none;stroke:#000000;stroke-width:0.05px"
     id="monatip4.18"
     cx="472.76001"
     cy="252.68001"
     r="1.131" />
  <path
     style="fill:none;stroke:#000000;stroke-width:0.05px"
     d="m 471.96,251.88 1.6,1.6 m 0,-1.6 -1.6,1.6"
     id="path256"
     inkscape:connector-curvature="0" />
  <circle
     style="fill:none;stroke:#000000;stroke-width:0.05px"
     id="monatip4.19"
     cx="489.60001"
     cy="255.31999"
     r="1.131" />
  <path
     style="fill:none;stroke:#000000;stroke-width:0.05px"
     d="m 488.8,254.52 1.6,1.6 m 0,-1.6 -1.6,1.6"
     id="path259"
     inkscape:connector-curvature="0" />
  <circle
     style="fill:none;stroke:#000000;stroke-width:0.05px"
     id="monatip4.20"
     cx="506.79999"
     cy="255.92"
     r="1.131" />
  <path
     style="fill:none;stroke:#000000;stroke-width:0.05px"
     d="m 506,255.12 1.6,1.6 m 0,-1.6 -1.6,1.6"
     id="path262"
     inkscape:connector-curvature="0" />
  <circle
     style="fill:none;stroke:#000000;stroke-width:0.05px"
     id="monatip4.21"
     cx="520.59998"
     cy="258.35999"
     r="1.131" />
  <path
     style="fill:none;stroke:#000000;stroke-width:0.05px"
     d="m 519.8,257.56 1.6,1.6 m 0,-1.6 -1.6,1.6"
     id="path265"
     inkscape:connector-curvature="0" />
  <circle
     style="fill:none;stroke:#000000;stroke-width:0.05px"
     id="monatip4.22"
     cx="531.76001"
     cy="256"
     r="1.131" />
  <path
     style="fill:none;stroke:#000000;stroke-width:0.05px"
     d="m 530.96,255.2 1.6,1.6 m 0,-1.6 -1.6,1.6"
     id="path268"
     inkscape:connector-curvature="0" />
  <circle
     style="fill:none;stroke:#000000;stroke-width:0.05px"
     id="monatip4.23"
     cx="541.56"
     cy="256.67999"
     r="1.131" />
  <path
     style="fill:none;stroke:#000000;stroke-width:0.05px"
     d="m 540.76,255.88 1.6,1.6 m 0,-1.6 -1.6,1.6"
     id="path271"
     inkscape:connector-curvature="0" />
  <circle
     style="fill:none;stroke:#000000;stroke-width:0.05px"
     id="monatip4.24"
     cx="550.64001"
     cy="260.16"
     r="1.131" />
  <path
     style="fill:none;stroke:#000000;stroke-width:0.05px"
     d="m 549.84,259.36 1.6,1.6 m 0,-1.6 -1.6,1.6"
     id="path274"
     inkscape:connector-curvature="0" />
  <circle
     style="fill:none;stroke:#000000;stroke-width:0.05px"
     id="monatip4.25"
     cx="569.88"
     cy="268.72"
     r="1.131" />
  <path
     style="fill:none;stroke:#000000;stroke-width:0.05px"
     d="m 569.08,267.92 1.6,1.6 m 0,-1.6 -1.6,1.6"
     id="path277"
     inkscape:connector-curvature="0" />
  <circle
     style="fill:none;stroke:#000000;stroke-width:0.05px"
     id="monatip4.26"
     cx="579.32001"
     cy="270.03998"
     r="1.131" />
  <path
     style="fill:none;stroke:#000000;stroke-width:0.05px"
     d="m 578.52,269.24 1.6,1.6 m 0,-1.6 -1.6,1.6"
     id="path280"
     inkscape:connector-curvature="0" />
  <circle
     style="fill:none;stroke:#000000;stroke-width:0.05px"
     id="monatip4.27"
     cx="588.28003"
     cy="272.75998"
     r="1.131" />
  <path
     style="fill:none;stroke:#000000;stroke-width:0.05px"
     d="m 587.48,271.96 1.6,1.6 m 0,-1.6 -1.6,1.6"
     id="path283"
     inkscape:connector-curvature="0" />
  <circle
     style="fill:none;stroke:#000000;stroke-width:0.05px"
     id="monatip4.28"
     cx="607.79999"
     cy="281.88"
     r="1.131" />
  <path
     style="fill:none;stroke:#000000;stroke-width:0.05px"
     d="m 607,281.08 1.6,1.6 m 0,-1.6 -1.6,1.6"
     id="path286"
     inkscape:connector-curvature="0" />
  <circle
     style="fill:none;stroke:#000000;stroke-width:0.05px"
     id="monatip4.29"
     cx="-932.10754"
     cy="289.67999"
     r="1.131"
     transform="scale(-1,1)" />
  <path
     style="fill:none;stroke:#000000;stroke-width:0.05px"
     d="m 932.90759,288.88 -1.6,1.6 m 0,-1.6 1.6,1.6"
     id="path289"
     inkscape:connector-curvature="0" />
  <circle
     style="fill:none;stroke:#000000;stroke-width:0.05px"
     id="monatip4.30"
     cx="-916.70752"
     cy="290.20001"
     r="1.131"
     transform="scale(-1,1)" />
  <path
     style="fill:none;stroke:#000000;stroke-width:0.05px"
     d="m 917.50759,289.4 -1.6,1.6 m 0,-1.6 1.6,1.6"
     id="path292"
     inkscape:connector-curvature="0" />
  <circle
     style="fill:none;stroke:#000000;stroke-width:0.05px"
     id="monatip4.31"
     cx="-904.82751"
     cy="292.95999"
     r="1.131"
     transform="scale(-1,1)" />
  <path
     style="fill:none;stroke:#000000;stroke-width:0.05px"
     d="m 905.62759,292.16 -1.6,1.6 m 0,-1.6 1.6,1.6"
     id="path295"
     inkscape:connector-curvature="0" />
  <circle
     style="fill:none;stroke:#000000;stroke-width:0.05px"
     id="monatip4.32"
     cx="-896.66754"
     cy="300.60001"
     r="1.131"
     transform="scale(-1,1)" />
  <path
     style="fill:none;stroke:#000000;stroke-width:0.05px"
     d="m 897.46759,299.8 -1.6,1.6 m 0,-1.6 1.6,1.6"
     id="path298"
     inkscape:connector-curvature="0" />
  <circle
     style="fill:none;stroke:#000000;stroke-width:0.05px"
     id="monatip4.33"
     cx="-887.14752"
     cy="298.23999"
     r="1.131"
     transform="scale(-1,1)" />
  <path
     style="fill:none;stroke:#000000;stroke-width:0.05px"
     d="m 887.94759,297.44 -1.6,1.6 m 0,-1.6 1.6,1.6"
     id="path301"
     inkscape:connector-curvature="0" />
  <circle
     style="fill:none;stroke:#000000;stroke-width:0.05px"
     id="monatip4.34"
     cx="-879.26752"
     cy="300.48001"
     r="1.131"
     transform="scale(-1,1)" />
  <path
     style="fill:none;stroke:#000000;stroke-width:0.05px"
     d="m 880.06759,299.68 -1.6,1.6 m 0,-1.6 1.6,1.6"
     id="path304"
     inkscape:connector-curvature="0" />
  <circle
     style="fill:none;stroke:#000000;stroke-width:0.05px"
     id="monatip4.35"
     cx="-871.22754"
     cy="299.48001"
     r="1.131"
     transform="scale(-1,1)" />
  <path
     style="fill:none;stroke:#000000;stroke-width:0.05px"
     d="m 872.02759,298.68 -1.6,1.6 m 0,-1.6 1.6,1.6"
     id="path307"
     inkscape:connector-curvature="0" />
  <circle
     style="fill:none;stroke:#000000;stroke-width:0.05px"
     id="monatip4.36"
     cx="-859.38751"
     cy="308.12"
     r="1.131"
     transform="scale(-1,1)" />
  <path
     style="fill:none;stroke:#000000;stroke-width:0.05px"
     d="m 860.18759,307.32 -1.6,1.6 m 0,-1.6 1.6,1.6"
     id="path310"
     inkscape:connector-curvature="0" />
  <circle
     style="fill:none;stroke:#000000;stroke-width:0.05px"
     id="monatip4.37"
     cx="-850.74756"
     cy="311.79999"
     r="1.131"
     transform="scale(-1,1)" />
  <path
     style="fill:none;stroke:#000000;stroke-width:0.05px"
     d="m 851.54759,311 -1.6,1.6 m 0,-1.6 1.6,1.6"
     id="path313"
     inkscape:connector-curvature="0" />
  <circle
     style="fill:none;stroke:#000000;stroke-width:0.05px"
     id="monatip4.38"
     cx="-838.66754"
     cy="311.35999"
     r="1.131"
     transform="scale(-1,1)" />
  <path
     style="fill:none;stroke:#000000;stroke-width:0.05px"
     d="m 839.46759,310.56 -1.6,1.6 m 0,-1.6 1.6,1.6"
     id="path316"
     inkscape:connector-curvature="0" />
  <circle
     style="fill:none;stroke:#000000;stroke-width:0.05px"
     id="monatip4.39"
     cx="-825.14752"
     cy="309.23999"
     r="1.131"
     transform="scale(-1,1)" />
  <path
     style="fill:none;stroke:#000000;stroke-width:0.05px"
     d="m 825.94759,308.44 -1.6,1.6 m 0,-1.6 1.6,1.6"
     id="path319"
     inkscape:connector-curvature="0" />
  <circle
     style="fill:none;stroke:#000000;stroke-width:0.05px"
     id="monatip4.40"
     cx="-817.70752"
     cy="312.51999"
     r="1.131"
     transform="scale(-1,1)" />
  <path
     style="fill:none;stroke:#000000;stroke-width:0.05px"
     d="m 818.50759,311.72 -1.6,1.6 m 0,-1.6 1.6,1.6"
     id="path322"
     inkscape:connector-curvature="0" />
  <circle
     style="fill:none;stroke:#000000;stroke-width:0.05px"
     id="monatip4.41"
     cx="-812.30756"
     cy="311.28"
     r="1.131"
     transform="scale(-1,1)" />
  <path
     style="fill:none;stroke:#000000;stroke-width:0.05px"
     d="m 813.10759,310.48 -1.6,1.6 m 0,-1.6 1.6,1.6"
     id="path325"
     inkscape:connector-curvature="0" />
  <circle
     style="fill:none;stroke:#000000;stroke-width:0.05px"
     id="monatip4.42"
     cx="-795.30756"
     cy="314.56"
     r="1.131"
     transform="scale(-1,1)" />
  <path
     style="fill:none;stroke:#000000;stroke-width:0.05px"
     d="m 796.10759,313.76 -1.6,1.6 m 0,-1.6 1.6,1.6"
     id="path328"
     inkscape:connector-curvature="0" />
  <circle
     style="fill:none;stroke:#000000;stroke-width:0.05px"
     id="monatip4.43"
     cx="-775.98755"
     cy="317.28"
     r="1.131"
     transform="scale(-1,1)" />
  <path
     style="fill:none;stroke:#000000;stroke-width:0.05px"
     d="m 776.78759,316.48 -1.6,1.6 m 0,-1.6 1.6,1.6"
     id="path331"
     inkscape:connector-curvature="0" />
  <circle
     style="fill:none;stroke:#000000;stroke-width:0.05px"
     id="monatip4.44"
     cx="-766.58752"
     cy="315.95999"
     r="1.131"
     transform="scale(-1,1)" />
  <path
     style="fill:none;stroke:#000000;stroke-width:0.05px"
     d="m 767.38759,315.16 -1.6,1.6 m 0,-1.6 1.6,1.6"
     id="path334"
     inkscape:connector-curvature="0" />
  <circle
     style="fill:none;stroke:#000000;stroke-width:0.05px"
     id="monatip4.45"
     cx="-760.22754"
     cy="313.76001"
     r="1.131"
     transform="scale(-1,1)" />
  <path
     style="fill:none;stroke:#000000;stroke-width:0.05px"
     d="m 761.02759,312.96 -1.6,1.6 m 0,-1.6 1.6,1.6"
     id="path337"
     inkscape:connector-curvature="0" />
  <circle
     style="fill:none;stroke:#000000;stroke-width:0.05px"
     id="monatip4.46"
     cx="-748.18756"
     cy="312.91998"
     r="1.131"
     transform="scale(-1,1)" />
  <path
     style="fill:none;stroke:#000000;stroke-width:0.05px"
     d="m 748.98759,312.12 -1.6,1.6 m 0,-1.6 1.6,1.6"
     id="path340"
     inkscape:connector-curvature="0" />
  <circle
     style="fill:none;stroke:#000000;stroke-width:0.05px"
     id="monatip4.47"
     cx="-739.10754"
     cy="317.56"
     r="1.131"
     transform="scale(-1,1)" />
  <path
     style="fill:none;stroke:#000000;stroke-width:0.05px"
     d="m 739.90759,316.76 -1.6,1.6 m 0,-1.6 1.6,1.6"
     id="path343"
     inkscape:connector-curvature="0" />
  <circle
     style="fill:none;stroke:#000000;stroke-width:0.05px"
     id="monatip4.48"
     cx="-731.18756"
     cy="321.91998"
     r="1.131"
     transform="scale(-1,1)" />
  <path
     style="fill:none;stroke:#000000;stroke-width:0.05px"
     d="m 731.98759,321.12 -1.6,1.6 m 0,-1.6 1.6,1.6"
     id="path346"
     inkscape:connector-curvature="0" />
  <circle
     style="fill:none;stroke:#000000;stroke-width:0.05px"
     id="monatip4.49"
     cx="-716.94751"
     cy="335.23999"
     r="1.131"
     transform="scale(-1,1)" />
  <path
     style="fill:none;stroke:#000000;stroke-width:0.05px"
     d="m 717.74759,334.44 -1.6,1.6 m 0,-1.6 1.6,1.6"
     id="path349"
     inkscape:connector-curvature="0" />
  <circle
     style="fill:none;stroke:#000000;stroke-width:0.05px"
     id="monatip4.50"
     cx="-684.74756"
     cy="328.95999"
     r="1.131"
     transform="scale(-1,1)" />
  <path
     style="fill:none;stroke:#000000;stroke-width:0.05px"
     d="m 685.54759,328.16 -1.6,1.6 m 0,-1.6 1.6,1.6"
     id="path352"
     inkscape:connector-curvature="0" />
</svg>
