<?xml version="1.0" encoding="UTF-8" standalone="no"?>
<svg
   xmlns:dc="http://purl.org/dc/elements/1.1/"
   xmlns:cc="http://creativecommons.org/ns#"
   xmlns:rdf="http://www.w3.org/1999/02/22-rdf-syntax-ns#"
   xmlns:svg="http://www.w3.org/2000/svg"
   xmlns="http://www.w3.org/2000/svg"
   xmlns:sodipodi="http://sodipodi.sourceforge.net/DTD/sodipodi-0.dtd"
   xmlns:inkscape="http://www.inkscape.org/namespaces/inkscape"
   version="1.1"
   width="462.440mm"
   height="495.000mm"
   viewBox="0 0 462.440 495.000"
   id="svg68"
   sodipodi:docname="buckwheat_resurvey_extend.svg"
   inkscape:version="0.92.2 5c3e80d, 2017-08-06">
  <metadata
     id="metadata74">
    <rdf:RDF>
      <cc:Work
         rdf:about="">
        <dc:format>image/svg+xml</dc:format>
        <dc:type
           rdf:resource="http://purl.org/dc/dcmitype/StillImage" />
      </cc:Work>
    </rdf:RDF>
  </metadata>
  <defs
     id="defs72" />
  <sodipodi:namedview
     pagecolor="#ffffff"
     bordercolor="#666666"
     borderopacity="1"
     objecttolerance="10"
     gridtolerance="10"
     guidetolerance="10"
     inkscape:pageopacity="0"
     inkscape:pageshadow="2"
     inkscape:window-width="740"
     inkscape:window-height="480"
     id="namedview70"
     showgrid="false"
     inkscape:zoom="1.0091582"
     inkscape:cx="832.01731"
     inkscape:cy="1042.7083"
     inkscape:window-x="0"
     inkscape:window-y="0"
     inkscape:window-maximized="0"
     inkscape:current-layer="svg68" />
  <title
     id="title2">buckwheat_resurvey</title>
  <g
     transform="translate(5.000 490.000)"
     id="g66">
    <g
       id="Legs"
       stroke="black"
       fill="none"
       stroke-width="0.4px">
      <path
         d="M216.640 -279.560L200.000 -285.000"
         id="path4" />
      <path
         d="M223.480 -269.440L216.640 -279.560"
         id="path6" />
      <path
         d="M223.480 -200.000L223.480 -269.440"
         id="path8" />
      <path
         d="M238.040 -209.760L223.480 -200.000"
         id="path10" />
      <path
         d="M238.040 -228.600L238.040 -209.760"
         id="path12" />
      <path
         d="M252.440 -229.120L238.040 -228.600"
         id="path14" />
    </g>
    <g
       id="Labels"
       font-size="0.600em">
      <text
         transform="translate(223.48,-200)"
         id="text17">4</text>
      <text
         transform="translate(200,-285)"
         id="text19">7</text>
      <text
         transform="translate(200.000 -285.000)"
         id="text21">ttt_resurvey.1</text>
      <text
         transform="translate(223.480 -200.000)"
         id="text23">what_a_coincidence.1</text>
      <text
         transform="translate(252.44,-229.12)"
         id="text25">1</text>
      <text
         transform="translate(238.04,-228.6)"
         id="text27">2</text>
      <text
         transform="translate(238.04,-209.76)"
         id="text29">3</text>
      <text
         transform="translate(223.48,-269.44)"
         id="text31">5</text>
      <text
         transform="translate(216.64,-279.56)"
         id="text33">6</text>
    </g>
    <g
       id="Stations"
       stroke="black"
       fill="none"
       stroke-width="0.05px">
      <circle
         id="buckwheat_resurvey.4"
         cx="223.480"
         cy="-200.000"
         r="1.131" />
      <path
         d="M222.680 -200.800L224.280 -199.200M224.280 -200.800L222.680 -199.200"
         id="path37" />
      <circle
         id="buckwheat_resurvey.7"
         cx="200.000"
         cy="-285.000"
         r="1.131" />
      <path
         d="M199.200 -285.800L200.800 -284.200M200.800 -285.800L199.200 -284.200"
         id="path40" />
      <circle
         id="circle42"
         cx="200.000"
         cy="-285.000"
         r="1.131" />
      <path
         d="M199.200 -285.800L200.800 -284.200M200.800 -285.800L199.200 -284.200"
         id="path44" />
      <circle
         id="circle46"
         cx="223.480"
         cy="-200.000"
         r="1.131" />
      <path
         d="M222.680 -200.800L224.280 -199.200M224.280 -200.800L222.680 -199.200"
         id="path48" />
      <circle
         id="buckwheat_resurvey.1"
         cx="252.440"
         cy="-229.120"
         r="1.131" />
      <path
         d="M251.640 -229.920L253.240 -228.320M253.240 -229.920L251.640 -228.320"
         id="path51" />
      <circle
         id="buckwheat_resurvey.2"
         cx="238.040"
         cy="-228.600"
         r="1.131" />
      <path
         d="M237.240 -229.400L238.840 -227.800M238.840 -229.400L237.240 -227.800"
         id="path54" />
      <circle
         id="buckwheat_resurvey.3"
         cx="238.040"
         cy="-209.760"
         r="1.131" />
      <path
         d="M237.240 -210.560L238.840 -208.960M238.840 -210.560L237.240 -208.960"
         id="path57" />
      <circle
         id="buckwheat_resurvey.5"
         cx="223.480"
         cy="-269.440"
         r="1.131" />
      <path
         d="M222.680 -270.240L224.280 -268.640M224.280 -270.240L222.680 -268.640"
         id="path60" />
      <circle
         id="buckwheat_resurvey.6"
         cx="216.640"
         cy="-279.560"
         r="1.131" />
      <path
         d="M215.840 -280.360L217.440 -278.760M217.440 -280.360L215.840 -278.760"
         id="path63" />
    </g>
  </g>
</svg>
