<?xml version="1.0" encoding="UTF-8" standalone="no"?>
<svg
   xmlns:dc="http://purl.org/dc/elements/1.1/"
   xmlns:cc="http://creativecommons.org/ns#"
   xmlns:rdf="http://www.w3.org/1999/02/22-rdf-syntax-ns#"
   xmlns:svg="http://www.w3.org/2000/svg"
   xmlns="http://www.w3.org/2000/svg"
   xmlns:sodipodi="http://sodipodi.sourceforge.net/DTD/sodipodi-0.dtd"
   xmlns:inkscape="http://www.inkscape.org/namespaces/inkscape"
   version="1.1"
   width="977.400mm"
   height="922.520mm"
   viewBox="0 0 977.400 922.520"
   id="svg238"
   sodipodi:docname="polnotletna_extend.svg"
   inkscape:version="0.92.2 5c3e80d, 2017-08-06">
  <metadata
     id="metadata244">
    <rdf:RDF>
      <cc:Work
         rdf:about="">
        <dc:format>image/svg+xml</dc:format>
        <dc:type
           rdf:resource="http://purl.org/dc/dcmitype/StillImage" />
      </cc:Work>
    </rdf:RDF>
  </metadata>
  <defs
     id="defs242" />
  <sodipodi:namedview
     pagecolor="#ffffff"
     bordercolor="#666666"
     borderopacity="1"
     objecttolerance="10"
     gridtolerance="10"
     guidetolerance="10"
     inkscape:pageopacity="0"
     inkscape:pageshadow="2"
     inkscape:window-width="1348"
     inkscape:window-height="693"
     id="namedview240"
     showgrid="false"
     inkscape:zoom="0.66664968"
     inkscape:cx="2216.1665"
     inkscape:cy="1614.8331"
     inkscape:window-x="0"
     inkscape:window-y="0"
     inkscape:window-maximized="0"
     inkscape:current-layer="svg238" />
  <title
     id="title2">below_donji_milanovac</title>
  <path
     style="fill:none;stroke:#000000;stroke-width:0.40000001px"
     d="m 687.6663,456.04 16.96,-27.12"
     id="path16"
     inkscape:connector-curvature="0" />
  <path
     style="fill:none;stroke:#000000;stroke-width:0.40000001px"
     d="m 678.5463,463.2 9.12,-7.16"
     id="path18"
     inkscape:connector-curvature="0" />
  <path
     style="fill:none;stroke:#000000;stroke-width:0.40000001px"
     d="m 670.6263,462.08 7.92,1.12"
     id="path20"
     inkscape:connector-curvature="0" />
  <path
     style="fill:none;stroke:#000000;stroke-width:0.40000001px"
     d="m 635.0663,463.92 35.56,-1.84"
     id="path22"
     inkscape:connector-curvature="0" />
  <path
     style="fill:none;stroke:#000000;stroke-width:0.40000001px"
     d="m 611.4663,464.36 23.6,-0.44"
     id="path24"
     inkscape:connector-curvature="0" />
  <path
     style="fill:none;stroke:#000000;stroke-width:0.40000001px"
     d="m 583.7863,470.72 27.68,-6.36"
     id="path26"
     inkscape:connector-curvature="0" />
  <path
     style="fill:none;stroke:#000000;stroke-width:0.40000001px"
     d="m 564.4663,473.8 19.32,-3.08"
     id="path28"
     inkscape:connector-curvature="0" />
  <path
     style="fill:none;stroke:#000000;stroke-width:0.40000001px"
     d="m 549.6263,474.32 14.84,-0.52"
     id="path30"
     inkscape:connector-curvature="0" />
  <path
     style="fill:none;stroke:#000000;stroke-width:0.40000001px"
     d="m 535.5863,484.92 14.04,-10.6"
     id="path32"
     inkscape:connector-curvature="0" />
  <path
     style="fill:none;stroke:#000000;stroke-width:0.40000001px"
     d="m 523.1863,485.12 12.4,-0.2"
     id="path34"
     inkscape:connector-curvature="0" />
  <path
     style="fill:none;stroke:#000000;stroke-width:0.40000001px"
     d="m 522.8,517.52 v -32.4"
     id="path36"
     inkscape:connector-curvature="0" />
  <path
     style="fill:none;stroke:#000000;stroke-width:0.40000001px"
     d="M 538.68,523 522.8,517.52"
     id="path38"
     inkscape:connector-curvature="0" />
  <path
     style="fill:none;stroke:#000000;stroke-width:0.40000001px"
     d="M 538.68,543 V 523"
     id="path40"
     inkscape:connector-curvature="0" />
  <path
     style="fill:none;stroke:#000000;stroke-width:0.40000001px"
     d="M 569.28,548.96 538.68,543"
     id="path42"
     inkscape:connector-curvature="0" />
  <path
     style="fill:none;stroke:#000000;stroke-width:0.40000001px"
     d="m 601.2,558.08 -31.92,-9.12"
     id="path44"
     inkscape:connector-curvature="0" />
  <path
     style="fill:none;stroke:#000000;stroke-width:0.40000001px"
     d="M 622.68,560.72 601.2,558.08"
     id="path46"
     inkscape:connector-curvature="0" />
  <path
     style="fill:none;stroke:#000000;stroke-width:0.40000001px"
     d="m 633.84,561.52 -11.16,-0.8"
     id="path48"
     inkscape:connector-curvature="0" />
  <path
     style="fill:none;stroke:#000000;stroke-width:0.40000001px"
     d="m 659.16,565.08 -25.32,-3.56"
     id="path50"
     inkscape:connector-curvature="0" />
  <text
     style="font-size:4.23333316px;"
     id="text85"
     x="659.15997"
     y="565.08002">9</text>
  <text
     style="font-size:4.23333316px;"
     id="text87"
     x="633.84003"
     y="561.52002">10</text>
  <text
     style="font-size:4.23333316px;"
     id="text89"
     x="622.67999"
     y="560.71997">11</text>
  <text
     style="font-size:4.23333316px;"
     id="text91"
     x="601.20001"
     y="558.08002">12</text>
  <text
     style="font-size:4.23333316px;"
     id="text93"
     x="569.28003"
     y="548.96002">13</text>
  <text
     style="font-size:4.23333316px;"
     id="text95"
     x="538.67999"
     y="543">14</text>
  <text
     style="font-size:4.23333316px;"
     id="text97"
     x="538.67999"
     y="523">15</text>
  <text
     style="font-size:4.23333316px;"
     id="text99"
     x="522.79999"
     y="517.52002">16</text>
  <text
     style="font-size:4.23333311px"
     id="text101"
     x="518.20123"
     y="485.12">17</text>
  <text
     style="font-size:4.23333311px"
     id="text103"
     x="530.3963"
     y="484.92001">18</text>
  <text
     style="font-size:4.23333311px"
     id="text105"
     x="544.45984"
     y="474.32001">19</text>
  <text
     style="font-size:4.23333311px"
     id="text107"
     x="559.69238"
     y="473.79999">20</text>
  <text
     style="font-size:4.23333311px"
     id="text109"
     x="579.32288"
     y="470.72">21</text>
  <text
     style="font-size:4.23333311px"
     id="text111"
     x="607.09668"
     y="464.35999">22</text>
  <text
     style="font-size:4.23333311px"
     id="text113"
     x="630.45642"
     y="463.92001">23</text>
  <text
     style="font-size:4.23333311px"
     id="text115"
     x="665.72943"
     y="462.07999">24</text>
  <text
     style="font-size:4.23333311px"
     id="text117"
     x="674.02448"
     y="463.20001">25</text>
  <text
     style="font-size:4.23333311px"
     id="text119"
     x="682.8515"
     y="456.04001">26</text>
  <text
     style="font-size:4.23333311px"
     id="text121"
     x="700.08105"
     y="428.92001">27</text>
  <circle
     style="fill:none;stroke:#000000;stroke-width:0.05px"
     id="below_donji_milanovac.9"
     cx="659.15997"
     cy="565.08002"
     r="1.131" />
  <path
     style="fill:none;stroke:#000000;stroke-width:0.05px"
     d="m 658.36,564.28 1.6,1.6 m 0,-1.6 -1.6,1.6"
     id="path161"
     inkscape:connector-curvature="0" />
  <circle
     style="fill:none;stroke:#000000;stroke-width:0.05px"
     id="below_donji_milanovac.10"
     cx="633.84003"
     cy="561.52002"
     r="1.131" />
  <path
     style="fill:none;stroke:#000000;stroke-width:0.05px"
     d="m 633.04,560.72 1.6,1.6 m 0,-1.6 -1.6,1.6"
     id="path164"
     inkscape:connector-curvature="0" />
  <circle
     style="fill:none;stroke:#000000;stroke-width:0.05px"
     id="below_donji_milanovac.11"
     cx="622.67999"
     cy="560.72003"
     r="1.131" />
  <path
     style="fill:none;stroke:#000000;stroke-width:0.05px"
     d="m 621.88,559.92 1.6,1.6 m 0,-1.6 -1.6,1.6"
     id="path167"
     inkscape:connector-curvature="0" />
  <circle
     style="fill:none;stroke:#000000;stroke-width:0.05px"
     id="below_donji_milanovac.12"
     cx="601.20001"
     cy="558.08002"
     r="1.131" />
  <path
     style="fill:none;stroke:#000000;stroke-width:0.05px"
     d="m 600.4,557.28 1.6,1.6 m 0,-1.6 -1.6,1.6"
     id="path170"
     inkscape:connector-curvature="0" />
  <circle
     style="fill:none;stroke:#000000;stroke-width:0.05px"
     id="below_donji_milanovac.13"
     cx="569.28003"
     cy="548.96002"
     r="1.131" />
  <path
     style="fill:none;stroke:#000000;stroke-width:0.05px"
     d="m 568.48,548.16 1.6,1.6 m 0,-1.6 -1.6,1.6"
     id="path173"
     inkscape:connector-curvature="0" />
  <circle
     style="fill:none;stroke:#000000;stroke-width:0.05px"
     id="below_donji_milanovac.14"
     cx="538.67999"
     cy="543"
     r="1.131" />
  <path
     style="fill:none;stroke:#000000;stroke-width:0.05px"
     d="m 537.88,542.2 1.6,1.6 m 0,-1.6 -1.6,1.6"
     id="path176"
     inkscape:connector-curvature="0" />
  <circle
     style="fill:none;stroke:#000000;stroke-width:0.05px"
     id="below_donji_milanovac.15"
     cx="538.67999"
     cy="523"
     r="1.131" />
  <path
     style="fill:none;stroke:#000000;stroke-width:0.05px"
     d="m 537.88,522.2 1.6,1.6 m 0,-1.6 -1.6,1.6"
     id="path179"
     inkscape:connector-curvature="0" />
  <circle
     style="fill:none;stroke:#000000;stroke-width:0.05px"
     id="below_donji_milanovac.16"
     cx="522.79999"
     cy="517.52002"
     r="1.131" />
  <path
     style="fill:none;stroke:#000000;stroke-width:0.05px"
     d="m 522,516.72 1.6,1.6 m 0,-1.6 -1.6,1.6"
     id="path182"
     inkscape:connector-curvature="0" />
  <circle
     style="fill:none;stroke:#000000;stroke-width:0.05px"
     id="below_donji_milanovac.17"
     cx="-523.18622"
     cy="485.12"
     r="1.131"
     transform="scale(-1,1)" />
  <path
     style="fill:none;stroke:#000000;stroke-width:0.05px"
     d="m 523.9863,484.32 -1.6,1.6 m 0,-1.6 1.6,1.6"
     id="path185"
     inkscape:connector-curvature="0" />
  <circle
     style="fill:none;stroke:#000000;stroke-width:0.05px"
     id="below_donji_milanovac.18"
     cx="-535.58636"
     cy="484.91998"
     r="1.131"
     transform="scale(-1,1)" />
  <path
     style="fill:none;stroke:#000000;stroke-width:0.05px"
     d="m 536.3863,484.12 -1.6,1.6 m 0,-1.6 1.6,1.6"
     id="path188"
     inkscape:connector-curvature="0" />
  <circle
     style="fill:none;stroke:#000000;stroke-width:0.05px"
     id="below_donji_milanovac.19"
     cx="-549.62646"
     cy="474.31998"
     r="1.131"
     transform="scale(-1,1)" />
  <path
     style="fill:none;stroke:#000000;stroke-width:0.05px"
     d="m 550.4263,473.52 -1.6,1.6 m 0,-1.6 1.6,1.6"
     id="path191"
     inkscape:connector-curvature="0" />
  <circle
     style="fill:none;stroke:#000000;stroke-width:0.05px"
     id="below_donji_milanovac.20"
     cx="-564.46643"
     cy="473.79999"
     r="1.131"
     transform="scale(-1,1)" />
  <path
     style="fill:none;stroke:#000000;stroke-width:0.05px"
     d="m 565.2663,473 -1.6,1.6 m 0,-1.6 1.6,1.6"
     id="path194"
     inkscape:connector-curvature="0" />
  <circle
     style="fill:none;stroke:#000000;stroke-width:0.05px"
     id="below_donji_milanovac.21"
     cx="-583.78638"
     cy="470.72"
     r="1.131"
     transform="scale(-1,1)" />
  <path
     style="fill:none;stroke:#000000;stroke-width:0.05px"
     d="m 584.5863,469.92 -1.6,1.6 m 0,-1.6 1.6,1.6"
     id="path197"
     inkscape:connector-curvature="0" />
  <circle
     style="fill:none;stroke:#000000;stroke-width:0.05px"
     id="below_donji_milanovac.22"
     cx="-611.46643"
     cy="464.35999"
     r="1.131"
     transform="scale(-1,1)" />
  <path
     style="fill:none;stroke:#000000;stroke-width:0.05px"
     d="m 612.2663,463.56 -1.6,1.6 m 0,-1.6 1.6,1.6"
     id="path200"
     inkscape:connector-curvature="0" />
  <circle
     style="fill:none;stroke:#000000;stroke-width:0.05px"
     id="below_donji_milanovac.23"
     cx="-635.06641"
     cy="463.91998"
     r="1.131"
     transform="scale(-1,1)" />
  <path
     style="fill:none;stroke:#000000;stroke-width:0.05px"
     d="m 635.8663,463.12 -1.6,1.6 m 0,-1.6 1.6,1.6"
     id="path203"
     inkscape:connector-curvature="0" />
  <circle
     style="fill:none;stroke:#000000;stroke-width:0.05px"
     id="below_donji_milanovac.24"
     cx="-670.62653"
     cy="462.07999"
     r="1.131"
     transform="scale(-1,1)" />
  <path
     style="fill:none;stroke:#000000;stroke-width:0.05px"
     d="m 671.4263,461.28 -1.6,1.6 m 0,-1.6 1.6,1.6"
     id="path206"
     inkscape:connector-curvature="0" />
  <circle
     style="fill:none;stroke:#000000;stroke-width:0.05px"
     id="below_donji_milanovac.25"
     cx="-678.54657"
     cy="463.19998"
     r="1.131"
     transform="scale(-1,1)" />
  <path
     style="fill:none;stroke:#000000;stroke-width:0.05px"
     d="m 679.3463,462.4 -1.6,1.6 m 0,-1.6 1.6,1.6"
     id="path209"
     inkscape:connector-curvature="0" />
  <circle
     style="fill:none;stroke:#000000;stroke-width:0.05px"
     id="below_donji_milanovac.26"
     cx="-687.66656"
     cy="456.03998"
     r="1.131"
     transform="scale(-1,1)" />
  <path
     style="fill:none;stroke:#000000;stroke-width:0.05px"
     d="m 688.4663,455.24 -1.6,1.6 m 0,-1.6 1.6,1.6"
     id="path212"
     inkscape:connector-curvature="0" />
  <circle
     style="fill:none;stroke:#000000;stroke-width:0.05px"
     id="below_donji_milanovac.33"
     cx="205"
     cy="204.99998"
     r="1.131" />
  <path
     style="fill:none;stroke:#000000;stroke-width:0.05px"
     d="m 204.2,204.2 1.6,1.6 m 0,-1.6 -1.6,1.6"
     id="path233"
     inkscape:connector-curvature="0" />
</svg>
