<?xml version="1.0" encoding="ISO-8859-1"?>
<svg version="1.1" baseProfile="full"
xmlns="http://www.w3.org/2000/svg"
xmlns:xlink="http://www.w3.org/1999/xlink"
xmlns:ev="http://www.w3.org/2001/xml-events"
width="623.720mm" height="597.440mm"
viewBox="0 0 623.720 597.440">
<title>pivnica_2_resurvey</title>
<g transform="translate(5.000 592.440)">
<g id="Legs" stroke="black" fill="none" stroke-width="0.4px">
<path d="M212.440 -387.440L200.000 -386.520"/>
<path d="M225.160 -371.440L212.440 -387.440"/>
<path d="M247.520 -362.840L225.160 -371.440"/>
<path d="M263.920 -284.280L247.520 -362.840"/>
<path d="M272.120 -283.560L263.920 -284.280"/>
<path d="M279.800 -280.200L272.120 -283.560"/>
<path d="M290.680 -269.840L279.800 -280.200"/>
<path d="M316.600 -281.160L290.680 -269.840"/>
<path d="M319.600 -275.200L316.600 -281.160"/>
<path d="M331.720 -274.320L319.600 -275.200"/>
<path d="M348.040 -244.440L331.720 -274.320"/>
<path d="M348.040 -244.440L359.520 -240.720"/>
<path d="M359.520 -240.720L374.680 -234.920"/>
<path d="M374.680 -234.920L381.120 -230.680"/>
<path d="M381.120 -230.680L406.760 -200.000"/>
<path d="M406.760 -200.000L409.760 -202.840"/>
<path d="M409.760 -202.840L413.720 -203.840"/>
<path d="M354.960 -238.960L348.040 -244.440"/>
</g>
<g id="Labels" font-size="0.600em">
<text transform="translate(354.960 -238.960)">pivnica_2_resurvey.0</text>
<text transform="translate(348.040 -244.440)">pivnica_2_resurvey.1</text>
<text transform="translate(331.720 -274.320)">pivnica_2_resurvey.2</text>
<text transform="translate(359.520 -240.720)">pivnica_2_resurvey.3</text>
<text transform="translate(374.680 -234.920)">pivnica_2_resurvey.4</text>
<text transform="translate(381.120 -230.680)">pivnica_2_resurvey.5</text>
<text transform="translate(406.760 -200.000)">pivnica_2_resurvey.6</text>
<text transform="translate(409.760 -202.840)">pivnica_2_resurvey.7</text>
<text transform="translate(413.720 -203.840)">pivnica_2_resurvey.8</text>
<text transform="translate(319.600 -275.200)">pivnica_2_resurvey.9</text>
<text transform="translate(316.600 -281.160)">pivnica_2_resurvey.10</text>
<text transform="translate(290.680 -269.840)">pivnica_2_resurvey.11</text>
<text transform="translate(279.800 -280.200)">pivnica_2_resurvey.12</text>
<text transform="translate(272.120 -283.560)">pivnica_2_resurvey.13</text>
<text transform="translate(263.920 -284.280)">pivnica_2_resurvey.14</text>
<text transform="translate(247.520 -362.840)">pivnica_2_resurvey.15</text>
<text transform="translate(225.160 -371.440)">pivnica_2_resurvey.16</text>
<text transform="translate(212.440 -387.440)">pivnica_2_resurvey.17</text>
<text transform="translate(200.000 -386.520)">pivnica_2_resurvey.18</text>
</g>
<g id="Stations" stroke="black" fill="none" stroke-width="0.05px">
<circle id="pivnica_2_resurvey.0" cx="354.960" cy="-238.960" r="1.131"/>
<path d="M354.160 -239.760L355.760 -238.160M355.760 -239.760L354.160 -238.160"/>
<circle id="pivnica_2_resurvey.1" cx="348.040" cy="-244.440" r="1.131"/>
<path d="M347.240 -245.240L348.840 -243.640M348.840 -245.240L347.240 -243.640"/>
<circle id="pivnica_2_resurvey.2" cx="331.720" cy="-274.320" r="1.131"/>
<path d="M330.920 -275.120L332.520 -273.520M332.520 -275.120L330.920 -273.520"/>
<circle id="pivnica_2_resurvey.3" cx="359.520" cy="-240.720" r="1.131"/>
<path d="M358.720 -241.520L360.320 -239.920M360.320 -241.520L358.720 -239.920"/>
<circle id="pivnica_2_resurvey.4" cx="374.680" cy="-234.920" r="1.131"/>
<path d="M373.880 -235.720L375.480 -234.120M375.480 -235.720L373.880 -234.120"/>
<circle id="pivnica_2_resurvey.5" cx="381.120" cy="-230.680" r="1.131"/>
<path d="M380.320 -231.480L381.920 -229.880M381.920 -231.480L380.320 -229.880"/>
<circle id="pivnica_2_resurvey.6" cx="406.760" cy="-200.000" r="1.131"/>
<path d="M405.960 -200.800L407.560 -199.200M407.560 -200.800L405.960 -199.200"/>
<circle id="pivnica_2_resurvey.7" cx="409.760" cy="-202.840" r="1.131"/>
<path d="M408.960 -203.640L410.560 -202.040M410.560 -203.640L408.960 -202.040"/>
<circle id="pivnica_2_resurvey.8" cx="413.720" cy="-203.840" r="1.131"/>
<path d="M412.920 -204.640L414.520 -203.040M414.520 -204.640L412.920 -203.040"/>
<circle id="pivnica_2_resurvey.9" cx="319.600" cy="-275.200" r="1.131"/>
<path d="M318.800 -276.000L320.400 -274.400M320.400 -276.000L318.800 -274.400"/>
<circle id="pivnica_2_resurvey.10" cx="316.600" cy="-281.160" r="1.131"/>
<path d="M315.800 -281.960L317.400 -280.360M317.400 -281.960L315.800 -280.360"/>
<circle id="pivnica_2_resurvey.11" cx="290.680" cy="-269.840" r="1.131"/>
<path d="M289.880 -270.640L291.480 -269.040M291.480 -270.640L289.880 -269.040"/>
<circle id="pivnica_2_resurvey.12" cx="279.800" cy="-280.200" r="1.131"/>
<path d="M279.000 -281.000L280.600 -279.400M280.600 -281.000L279.000 -279.400"/>
<circle id="pivnica_2_resurvey.13" cx="272.120" cy="-283.560" r="1.131"/>
<path d="M271.320 -284.360L272.920 -282.760M272.920 -284.360L271.320 -282.760"/>
<circle id="pivnica_2_resurvey.14" cx="263.920" cy="-284.280" r="1.131"/>
<path d="M263.120 -285.080L264.720 -283.480M264.720 -285.080L263.120 -283.480"/>
<circle id="pivnica_2_resurvey.15" cx="247.520" cy="-362.840" r="1.131"/>
<path d="M246.720 -363.640L248.320 -362.040M248.320 -363.640L246.720 -362.040"/>
<circle id="pivnica_2_resurvey.16" cx="225.160" cy="-371.440" r="1.131"/>
<path d="M224.360 -372.240L225.960 -370.640M225.960 -372.240L224.360 -370.640"/>
<circle id="pivnica_2_resurvey.17" cx="212.440" cy="-387.440" r="1.131"/>
<path d="M211.640 -388.240L213.240 -386.640M213.240 -388.240L211.640 -386.640"/>
<circle id="pivnica_2_resurvey.18" cx="200.000" cy="-386.520" r="1.131"/>
<path d="M199.200 -387.320L200.800 -385.720M200.800 -387.320L199.200 -385.720"/>
</g>
</g>
</svg>
