0
SECTION
2
HEADER
9
$EXTMIN
10
0.000000
20
0.000000
30
0.000000
9
$EXTMAX
10
238.320000
20
162.980000
30
0.000000
9
$PDMODE
70
3
9
$PDSIZE
40
  0.80
0
ENDSEC
0
SECTION
2
TABLES
0
TABLE
2
LTYPE
70
10
0
LTYPE
2
CONTINUOUS
70
64
3
Continuous
72
65
73
0
40
0.0
0
LTYPE
2
DASHED
70
64
3
Dashed
72
65
73
2
40
2.5
49
1.25
49
-1.25
0
ENDTAB
0
TABLE
2
LAYER
70
10
0
LAYER
2
CentreLine
70
64
62
5
6
CONTINUOUS
0
LAYER
2
Stations
70
64
62
7
6
CONTINUOUS
0
LAYER
2
Labels
70
64
62
7
6
CONTINUOUS
0
LAYER
2
Surface
70
64
62
5
6
DASHED
0
LAYER
2
SurfaceStations
70
64
62
7
6
CONTINUOUS
0
LAYER
2
SurfaceLabels
70
64
62
7
6
CONTINUOUS
0
LAYER
2
Grid
70
64
62
7
6
CONTINUOUS
0
ENDTAB
0
ENDSEC
0
SECTION
2
ENTITIES
0
LINE
8
Grid
10
100.00
20
  0.00
30
0
11
100.00
21
162.98
31
0
0
LINE
8
Grid
10
200.00
20
  0.00
30
0
11
200.00
21
162.98
31
0
0
LINE
8
Grid
10
  0.00
20
100.00
30
0
11
238.32
21
100.00
31
0
0
LINE
8
CentreLine
10
129.66
20
112.98
30
  0.00
11
131.72
21
112.31
31
  0.00
0
LINE
8
CentreLine
10
131.72
20
112.31
30
  0.00
11
138.33
21
111.85
31
  0.00
0
LINE
8
CentreLine
10
138.33
20
111.85
30
  0.00
11
143.93
21
112.44
31
  0.00
0
LINE
8
CentreLine
10
143.93
20
112.44
30
  0.00
11
146.22
21
111.51
31
  0.00
0
LINE
8
CentreLine
10
146.22
20
111.51
30
  0.00
11
152.49
21
110.06
31
  0.00
0
LINE
8
CentreLine
10
152.49
20
110.06
30
  0.00
11
157.68
21
112.06
31
  0.00
0
LINE
8
CentreLine
10
157.68
20
112.06
30
  0.00
11
160.72
21
111.19
31
  0.00
0
LINE
8
CentreLine
10
160.72
20
111.19
30
  0.00
11
167.64
21
111.19
31
  0.00
0
LINE
8
CentreLine
10
167.64
20
111.19
30
  0.00
11
173.69
21
110.97
31
  0.00
0
LINE
8
CentreLine
10
173.69
20
110.97
30
  0.00
11
179.15
21
108.19
31
  0.00
0
LINE
8
CentreLine
10
179.15
20
108.19
30
  0.00
11
184.19
21
106.16
31
  0.00
0
LINE
8
CentreLine
10
184.19
20
106.16
30
  0.00
11
186.67
21
104.60
31
  0.00
0
LINE
8
CentreLine
10
186.67
20
104.60
30
  0.00
11
188.32
21
103.12
31
  0.00
0
LINE
8
CentreLine
10
188.32
20
103.12
30
  0.00
11
188.32
21
 72.66
31
  0.00
0
LINE
8
CentreLine
10
188.32
20
 72.66
30
  0.00
11
182.87
21
 73.33
31
  0.00
0
LINE
8
CentreLine
10
182.87
20
 73.33
30
  0.00
11
176.56
21
 69.54
31
  0.00
0
LINE
8
CentreLine
10
176.56
20
 69.54
30
  0.00
11
172.65
21
 67.10
31
  0.00
0
LINE
8
CentreLine
10
172.65
20
 67.10
30
  0.00
11
163.65
21
 64.17
31
  0.00
0
LINE
8
CentreLine
10
163.65
20
 64.17
30
  0.00
11
159.33
21
 59.84
31
  0.00
0
LINE
8
CentreLine
10
159.33
20
 59.84
30
  0.00
11
155.20
21
 53.73
31
  0.00
0
LINE
8
CentreLine
10
155.20
20
 53.73
30
  0.00
11
168.90
21
 52.29
31
  0.00
0
LINE
8
CentreLine
10
155.20
20
 53.73
30
  0.00
11
148.88
21
 52.50
31
  0.00
0
LINE
8
CentreLine
10
148.88
20
 52.50
30
  0.00
11
146.44
21
 52.84
31
  0.00
0
LINE
8
CentreLine
10
146.44
20
 52.84
30
  0.00
11
140.97
21
 53.71
31
  0.00
0
LINE
8
CentreLine
10
140.97
20
 53.71
30
  0.00
11
135.20
21
 53.71
31
  0.00
0
LINE
8
CentreLine
10
135.20
20
 53.71
30
  0.00
11
126.98
21
 54.00
31
  0.00
0
LINE
8
CentreLine
10
126.98
20
 54.00
30
  0.00
11
124.62
21
 53.32
31
  0.00
0
LINE
8
CentreLine
10
124.62
20
 53.32
30
  0.00
11
112.30
21
 53.75
31
  0.00
0
LINE
8
CentreLine
10
112.30
20
 53.75
30
  0.00
11
106.90
21
 53.56
31
  0.00
0
LINE
8
CentreLine
10
106.90
20
 53.56
30
  0.00
11
103.73
21
 55.04
31
  0.00
0
LINE
8
CentreLine
10
103.73
20
 55.04
30
  0.00
11
101.33
21
 53.92
31
  0.00
0
LINE
8
CentreLine
10
101.33
20
 53.92
30
  0.00
11
 94.84
21
 54.37
31
  0.00
0
LINE
8
CentreLine
10
 94.84
20
 54.37
30
  0.00
11
 88.13
21
 51.93
31
  0.00
0
LINE
8
CentreLine
10
 88.13
20
 51.93
30
  0.00
11
 77.97
21
 50.87
31
  0.00
0
LINE
8
CentreLine
10
 77.97
20
 50.87
30
  0.00
11
 70.36
21
 51.00
31
  0.00
0
LINE
8
CentreLine
10
 70.36
20
 51.00
30
  0.00
11
 62.23
21
 52.73
31
  0.00
0
LINE
8
CentreLine
10
 62.23
20
 52.73
30
  0.00
11
 57.24
21
 53.08
31
  0.00
0
LINE
8
CentreLine
10
 57.24
20
 53.08
30
  0.00
11
 50.00
21
 50.00
31
  0.00
000
ENDSEC
000
EOF
