<?xml version="1.0" encoding="UTF-8" standalone="no"?>
<svg
   xmlns:dc="http://purl.org/dc/elements/1.1/"
   xmlns:cc="http://creativecommons.org/ns#"
   xmlns:rdf="http://www.w3.org/1999/02/22-rdf-syntax-ns#"
   xmlns:svg="http://www.w3.org/2000/svg"
   xmlns="http://www.w3.org/2000/svg"
   xmlns:sodipodi="http://sodipodi.sourceforge.net/DTD/sodipodi-0.dtd"
   xmlns:inkscape="http://www.inkscape.org/namespaces/inkscape"
   version="1.1"
   width="926.880mm"
   height="1062.840mm"
   viewBox="0 0 926.880 1062.840"
   id="svg173"
   sodipodi:docname="zima00_extend.svg"
   inkscape:version="0.92.2 5c3e80d, 2017-08-06">
  <metadata
     id="metadata179">
    <rdf:RDF>
      <cc:Work
         rdf:about="">
        <dc:format>image/svg+xml</dc:format>
        <dc:type
           rdf:resource="http://purl.org/dc/dcmitype/StillImage" />
      </cc:Work>
    </rdf:RDF>
  </metadata>
  <defs
     id="defs177" />
  <sodipodi:namedview
     pagecolor="#ffffff"
     bordercolor="#666666"
     borderopacity="1"
     objecttolerance="10"
     gridtolerance="10"
     guidetolerance="10"
     inkscape:pageopacity="0"
     inkscape:pageshadow="2"
     inkscape:window-width="1250"
     inkscape:window-height="644"
     id="namedview175"
     showgrid="false"
     inkscape:zoom="0.23499932"
     inkscape:cx="2266.832"
     inkscape:cy="1954.8495"
     inkscape:window-x="0"
     inkscape:window-y="0"
     inkscape:window-maximized="0"
     inkscape:current-layer="svg173" />
  <title
     id="title2">zima00</title>
  <g
     transform="translate(5.000 1057.840)"
     id="g171">
    <g
       id="Legs"
       stroke="black"
       fill="none"
       stroke-width="0.4px">
      <path
         d="M260.000 -848.200L200.000 -848.200"
         id="path4" />
      <path
         d="M286.400 -852.840L260.000 -848.200"
         id="path6" />
      <path
         d="M299.800 -842.720L286.400 -852.840"
         id="path8" />
      <path
         d="M321.840 -824.200L299.800 -842.720"
         id="path10" />
      <path
         d="M335.280 -817.080L321.840 -824.200"
         id="path12" />
      <path
         d="M387.080 -812.560L335.280 -817.080"
         id="path14" />
      <path
         d="M409.000 -800.920L387.080 -812.560"
         id="path16" />
      <path
         d="M436.200 -800.920L409.000 -800.920"
         id="path18" />
      <path
         d="M457.760 -800.920L436.200 -800.920"
         id="path20" />
      <path
         d="M457.760 -712.920L457.760 -800.920"
         id="path22" />
      <path
         d="M485.360 -689.760L457.760 -712.920"
         id="path24" />
      <path
         d="M485.360 -614.560L485.360 -689.760"
         id="path26" />
      <path
         d="M535.840 -542.480L485.360 -614.560"
         id="path28" />
      <path
         d="M535.840 -542.480L553.200 -530.320"
         id="path30" />
      <path
         d="M553.200 -530.320L595.440 -526.640"
         id="path32" />
      <path
         d="M595.440 -526.640L622.160 -453.320"
         id="path34" />
      <path
         d="M622.160 -453.320L638.960 -453.320"
         id="path36" />
      <path
         d="M638.960 -453.320L690.880 -391.440"
         id="path38" />
      <path
         d="M690.880 -391.440L690.880 -295.440"
         id="path40" />
      <path
         d="M690.880 -295.440L716.880 -250.400"
         id="path42" />
      <path
         d="M716.880 -250.400L716.880 -200.000"
         id="path44" />
    </g>
    <g
       id="Labels"
       font-size="0.600em">
      <text
         transform="translate(535.84,-542.48)"
         id="text47">9</text>
      <text
         transform="translate(200,-848.2)"
         id="text49">22</text>
      <text
         transform="translate(200.000 -848.200)"
         id="text51">ttt.1</text>
      <text
         transform="translate(535.840 -542.480)"
         id="text53">buckwheat_resurvey.4</text>
      <text
         transform="translate(716.88,-200)"
         id="text55">1</text>
      <text
         transform="translate(716.88,-250.4)"
         id="text57">2</text>
      <text
         transform="translate(690.88,-295.44)"
         id="text59">3</text>
      <text
         transform="translate(690.88,-391.44)"
         id="text61">4</text>
      <text
         transform="translate(638.96,-453.32)"
         id="text63">5</text>
      <text
         transform="translate(622.16,-453.32)"
         id="text65">6</text>
      <text
         transform="translate(595.44,-526.64)"
         id="text67">7</text>
      <text
         transform="translate(553.2,-530.32)"
         id="text69">8</text>
      <text
         transform="translate(485.36,-614.56)"
         id="text71">10</text>
      <text
         transform="translate(485.36,-689.76)"
         id="text73">11</text>
      <text
         transform="translate(457.76,-712.92)"
         id="text75">12</text>
      <text
         transform="translate(457.76,-800.92)"
         id="text77">13</text>
      <text
         transform="translate(436.2,-800.92)"
         id="text79">14</text>
      <text
         transform="translate(409,-800.92)"
         id="text81">15</text>
      <text
         transform="translate(387.08,-812.56)"
         id="text83">16</text>
      <text
         transform="translate(335.28,-817.08)"
         id="text85">17</text>
      <text
         transform="translate(321.84,-824.2)"
         id="text87">18</text>
      <text
         transform="translate(299.8,-842.72)"
         id="text89">19</text>
      <text
         transform="translate(286.4,-852.84)"
         id="text91">20</text>
      <text
         transform="translate(260,-848.2)"
         id="text93">21</text>
    </g>
    <g
       id="Stations"
       stroke="black"
       fill="none"
       stroke-width="0.05px">
      <circle
         id="zima00.9"
         cx="535.840"
         cy="-542.480"
         r="1.131" />
      <path
         d="M535.040 -543.280L536.640 -541.680M536.640 -543.280L535.040 -541.680"
         id="path97" />
      <circle
         id="zima00.22"
         cx="200.000"
         cy="-848.200"
         r="1.131" />
      <path
         d="M199.200 -849.000L200.800 -847.400M200.800 -849.000L199.200 -847.400"
         id="path100" />
      <circle
         id="circle102"
         cx="200.000"
         cy="-848.200"
         r="1.131" />
      <path
         d="M199.200 -849.000L200.800 -847.400M200.800 -849.000L199.200 -847.400"
         id="path104" />
      <circle
         id="circle106"
         cx="535.840"
         cy="-542.480"
         r="1.131" />
      <path
         d="M535.040 -543.280L536.640 -541.680M536.640 -543.280L535.040 -541.680"
         id="path108" />
      <circle
         id="zima00.1"
         cx="716.880"
         cy="-200.000"
         r="1.131" />
      <path
         d="M716.080 -200.800L717.680 -199.200M717.680 -200.800L716.080 -199.200"
         id="path111" />
      <circle
         id="zima00.2"
         cx="716.880"
         cy="-250.400"
         r="1.131" />
      <path
         d="M716.080 -251.200L717.680 -249.600M717.680 -251.200L716.080 -249.600"
         id="path114" />
      <circle
         id="zima00.3"
         cx="690.880"
         cy="-295.440"
         r="1.131" />
      <path
         d="M690.080 -296.240L691.680 -294.640M691.680 -296.240L690.080 -294.640"
         id="path117" />
      <circle
         id="zima00.4"
         cx="690.880"
         cy="-391.440"
         r="1.131" />
      <path
         d="M690.080 -392.240L691.680 -390.640M691.680 -392.240L690.080 -390.640"
         id="path120" />
      <circle
         id="zima00.5"
         cx="638.960"
         cy="-453.320"
         r="1.131" />
      <path
         d="M638.160 -454.120L639.760 -452.520M639.760 -454.120L638.160 -452.520"
         id="path123" />
      <circle
         id="zima00.6"
         cx="622.160"
         cy="-453.320"
         r="1.131" />
      <path
         d="M621.360 -454.120L622.960 -452.520M622.960 -454.120L621.360 -452.520"
         id="path126" />
      <circle
         id="zima00.7"
         cx="595.440"
         cy="-526.640"
         r="1.131" />
      <path
         d="M594.640 -527.440L596.240 -525.840M596.240 -527.440L594.640 -525.840"
         id="path129" />
      <circle
         id="zima00.8"
         cx="553.200"
         cy="-530.320"
         r="1.131" />
      <path
         d="M552.400 -531.120L554.000 -529.520M554.000 -531.120L552.400 -529.520"
         id="path132" />
      <circle
         id="zima00.10"
         cx="485.360"
         cy="-614.560"
         r="1.131" />
      <path
         d="M484.560 -615.360L486.160 -613.760M486.160 -615.360L484.560 -613.760"
         id="path135" />
      <circle
         id="zima00.11"
         cx="485.360"
         cy="-689.760"
         r="1.131" />
      <path
         d="M484.560 -690.560L486.160 -688.960M486.160 -690.560L484.560 -688.960"
         id="path138" />
      <circle
         id="zima00.12"
         cx="457.760"
         cy="-712.920"
         r="1.131" />
      <path
         d="M456.960 -713.720L458.560 -712.120M458.560 -713.720L456.960 -712.120"
         id="path141" />
      <circle
         id="zima00.13"
         cx="457.760"
         cy="-800.920"
         r="1.131" />
      <path
         d="M456.960 -801.720L458.560 -800.120M458.560 -801.720L456.960 -800.120"
         id="path144" />
      <circle
         id="zima00.14"
         cx="436.200"
         cy="-800.920"
         r="1.131" />
      <path
         d="M435.400 -801.720L437.000 -800.120M437.000 -801.720L435.400 -800.120"
         id="path147" />
      <circle
         id="zima00.15"
         cx="409.000"
         cy="-800.920"
         r="1.131" />
      <path
         d="M408.200 -801.720L409.800 -800.120M409.800 -801.720L408.200 -800.120"
         id="path150" />
      <circle
         id="zima00.16"
         cx="387.080"
         cy="-812.560"
         r="1.131" />
      <path
         d="M386.280 -813.360L387.880 -811.760M387.880 -813.360L386.280 -811.760"
         id="path153" />
      <circle
         id="zima00.17"
         cx="335.280"
         cy="-817.080"
         r="1.131" />
      <path
         d="M334.480 -817.880L336.080 -816.280M336.080 -817.880L334.480 -816.280"
         id="path156" />
      <circle
         id="zima00.18"
         cx="321.840"
         cy="-824.200"
         r="1.131" />
      <path
         d="M321.040 -825.000L322.640 -823.400M322.640 -825.000L321.040 -823.400"
         id="path159" />
      <circle
         id="zima00.19"
         cx="299.800"
         cy="-842.720"
         r="1.131" />
      <path
         d="M299.000 -843.520L300.600 -841.920M300.600 -843.520L299.000 -841.920"
         id="path162" />
      <circle
         id="zima00.20"
         cx="286.400"
         cy="-852.840"
         r="1.131" />
      <path
         d="M285.600 -853.640L287.200 -852.040M287.200 -853.640L285.600 -852.040"
         id="path165" />
      <circle
         id="zima00.21"
         cx="260.000"
         cy="-848.200"
         r="1.131" />
      <path
         d="M259.200 -849.000L260.800 -847.400M260.800 -849.000L259.200 -847.400"
         id="path168" />
    </g>
  </g>
</svg>
