<?xml version="1.0" encoding="utf-8" standalone="no"?>
<!-- Generated by Therion 5.5.0+e2caa7d (2020-05-01) -->
<!DOCTYPE svg PUBLIC "-//W3C//DTD SVG 1.1//EN" "http://www.w3.org/Graphics/SVG/1.1/DTD/svg11.dtd">
<svg width="44.263cm" height="25.283cm" viewBox="-29.574 -29.027 1254.693 716.693" xmlns="http://www.w3.org/2000/svg" xmlns:xlink="http://www.w3.org/1999/xlink">
<defs>
<pattern id="patt_0.00002_../../outputs/symbology.svg" patternUnits="userSpaceOnUse" width="2.965" height="10.330" patternTransform="matrix(0.707 0.707 -0.707 0.707 0.000 0.000)">
<g transform="translate(-0.835 -0.835)">
<path fill="#000000" stroke="none" d="M0.835 0.835L1.165 0.835L1.165 1.165L1.165 11.165L0.835 11.165L0.835 10.835Z" />
</g>
</pattern>
<pattern id="patt_0.00023_../../outputs/symbology.svg" patternUnits="userSpaceOnUse" width="9.882" height="9.882" patternTransform="matrix(1.000 0.000 0.000 1.000 0.000 0.000)">
<g transform="translate(-0.268 -0.412)">
<path fill="none" stroke="#000000" stroke-width="0.824" d="M0.679 4.118L5.620 4.118" />
<path fill="none" stroke="#000000" stroke-width="0.824" d="M7.941 5.765L7.941 0.824" />
</g>
</pattern>
<pattern id="patt_0.00024_../../outputs/symbology.svg" patternUnits="userSpaceOnUse" width="3.294" height="3.294" patternTransform="matrix(1.000 0.000 0.000 1.000 0.000 0.000)">
<g transform="translate(-0.580 -0.712)">
<path fill="none" stroke="#000000" stroke-width="0.576" d="M0.868 1.000L1.132 1.000" />
<path fill="none" stroke="#000000" stroke-width="0.576" d="M2.528 2.591L2.767 2.703" />
</g>
</pattern>
<g id="F_aaaaaaa_../../outputs/symbology.svg">
</g>
<g id="G_aaaaaaa_../../outputs/symbology.svg">
</g>
<g id="B_aaaaaaa_../../outputs/symbology.svg">
</g>
<g id="I_aaaaaaa_../../outputs/symbology.svg">
</g>
<g id="E_aaaaaaa_../../outputs/symbology.svg">
<g>
<clipPath id="clip_1_../../outputs/symbology.svg">
  <path d="M343.050 17.360L393.080 17.360L393.080 0.680L343.050 0.680L343.050 17.360Z" />
</clipPath>
<g clip-path="url(#clip_1_../../outputs/symbology.svg)">
<path fill="#ffffff" stroke="none" d="M342.917 1.569L339.838 0.473L340.074 -0.482L338.464 -3.091L341.893 -3.562L341.433 -1.937Z" />
<path fill="none" stroke="#4c4c4c" stroke-width="0.576" stroke-linecap="butt" d="M342.917 1.569L339.838 0.473L340.074 -0.482L338.464 -3.091L341.893 -3.562L341.433 -1.937Z" />
<path fill="#ffffff" stroke="none" d="M338.412 4.917L338.820 4.791L340.754 3.757L341.062 5.286L341.109 6.980L339.530 6.711Z" />
<path fill="none" stroke="#4c4c4c" stroke-width="0.576" stroke-linecap="butt" d="M338.412 4.917L338.820 4.791L340.754 3.757L341.062 5.286L341.109 6.980L339.530 6.711Z" />
<path fill="#ffffff" stroke="none" d="M341.002 5.584L341.243 6.517L340.989 8.341L338.351 7.075L338.577 6.857L339.087 5.271Z" />
<path fill="none" stroke="#4c4c4c" stroke-width="0.576" stroke-linecap="butt" d="M341.002 5.584L341.243 6.517L340.989 8.341L338.351 7.075L338.577 6.857L339.087 5.271Z" />
<path fill="#ffffff" stroke="none" d="M339.035 19.254L337.545 18.493L337.658 16.183L338.820 15.063L340.614 15.893L340.115 16.604Z" />
<path fill="none" stroke="#4c4c4c" stroke-width="0.576" stroke-linecap="butt" d="M339.035 19.254L337.545 18.493L337.658 16.183L338.820 15.063L340.614 15.893L340.115 16.604Z" />
<path fill="#ffffff" stroke="none" d="M344.125 0.419L343.195 0.189L344.403 -2.172L345.126 -2.389L345.784 -1.556L346.406 -0.826Z" />
<path fill="none" stroke="#4c4c4c" stroke-width="0.576" stroke-linecap="butt" d="M344.125 0.419L343.195 0.189L344.403 -2.172L345.126 -2.389L345.784 -1.556L346.406 -0.826Z" />
<path fill="#ffffff" stroke="none" d="M348.146 0.722L348.829 1.206L348.363 1.879L347.725 3.277L347.005 2.057L346.447 1.746Z" />
<path fill="none" stroke="#4c4c4c" stroke-width="0.576" stroke-linecap="butt" d="M348.146 0.722L348.829 1.206L348.363 1.879L347.725 3.277L347.005 2.057L346.447 1.746Z" />
<path fill="#ffffff" stroke="none" d="M348.533 9.414L346.751 10.629L346.385 10.385L345.198 8.463L345.556 7.913L347.692 9.351Z" />
<path fill="none" stroke="#4c4c4c" stroke-width="0.576" stroke-linecap="butt" d="M348.533 9.414L346.751 10.629L346.385 10.385L345.198 8.463L345.556 7.913L347.692 9.351Z" />
<path fill="#ffffff" stroke="none" d="M345.519 9.661L345.895 9.306L346.453 10.478L345.362 12.917L344.961 11.879L344.290 11.094Z" />
<path fill="none" stroke="#4c4c4c" stroke-width="0.576" stroke-linecap="butt" d="M345.519 9.661L345.895 9.306L346.453 10.478L345.362 12.917L344.961 11.879L344.290 11.094Z" />
<path fill="#ffffff" stroke="none" d="M346.795 2.805L347.710 1.760L349.175 0.971L349.676 1.859L349.190 3.573L348.111 3.858Z" />
<path fill="none" stroke="#4c4c4c" stroke-width="0.576" stroke-linecap="butt" d="M346.795 2.805L347.710 1.760L349.175 0.971L349.676 1.859L349.190 3.573L348.111 3.858Z" />
<path fill="#ffffff" stroke="none" d="M346.289 6.558L349.721 6.840L349.988 8.482L350.187 11.019L348.325 11.734L346.586 9.596Z" />
<path fill="none" stroke="#4c4c4c" stroke-width="0.576" stroke-linecap="butt" d="M346.289 6.558L349.721 6.840L349.988 8.482L350.187 11.019L348.325 11.734L346.586 9.596Z" />
<path fill="#ffffff" stroke="none" d="M350.276 11.204L351.340 12.822L350.845 13.686L349.454 14.208L348.074 12.373L348.978 11.539Z" />
<path fill="none" stroke="#4c4c4c" stroke-width="0.576" stroke-linecap="butt" d="M350.276 11.204L351.340 12.822L350.845 13.686L349.454 14.208L348.074 12.373L348.978 11.539Z" />
<path fill="#ffffff" stroke="none" d="M353.083 0.307L352.008 -1.253L353.405 -1.643L354.605 -2.710L355.304 -2.289L354.107 -0.447Z" />
<path fill="none" stroke="#4c4c4c" stroke-width="0.576" stroke-linecap="butt" d="M353.083 0.307L352.008 -1.253L353.405 -1.643L354.605 -2.710L355.304 -2.289L354.107 -0.447Z" />
<path fill="#ffffff" stroke="none" d="M355.240 1.519L357.147 2.127L358.125 4.079L357.119 6.108L356.007 5.650L354.258 2.905Z" />
<path fill="none" stroke="#4c4c4c" stroke-width="0.576" stroke-linecap="butt" d="M355.240 1.519L357.147 2.127L358.125 4.079L357.119 6.108L356.007 5.650L354.258 2.905Z" />
<path fill="#ffffff" stroke="none" d="M354.890 6.968L357.078 6.957L358.103 8.075L357.956 9.867L356.600 11.411L355.115 9.758Z" />
<path fill="none" stroke="#4c4c4c" stroke-width="0.576" stroke-linecap="butt" d="M354.890 6.968L357.078 6.957L358.103 8.075L357.956 9.867L356.600 11.411L355.115 9.758Z" />
<path fill="#ffffff" stroke="none" d="M353.170 12.562L353.656 12.158L354.152 12.319L354.428 12.631L354.270 12.899L353.553 12.662Z" />
<path fill="none" stroke="#4c4c4c" stroke-width="0.576" stroke-linecap="butt" d="M353.170 12.562L353.656 12.158L354.152 12.319L354.428 12.631L354.270 12.899L353.553 12.662Z" />
<path fill="#ffffff" stroke="none" d="M356.783 -4.855L358.127 -4.741L359.249 -3.139L358.732 -2.354L358.748 -1.809L357.328 -2.451Z" />
<path fill="none" stroke="#4c4c4c" stroke-width="0.576" stroke-linecap="butt" d="M356.783 -4.855L358.127 -4.741L359.249 -3.139L358.732 -2.354L358.748 -1.809L357.328 -2.451Z" />
<path fill="#ffffff" stroke="none" d="M362.498 3.225L361.685 5.206L358.951 5.242L357.899 3.722L358.324 2.694L359.879 2.086Z" />
<path fill="none" stroke="#4c4c4c" stroke-width="0.576" stroke-linecap="butt" d="M362.498 3.225L361.685 5.206L358.951 5.242L357.899 3.722L358.324 2.694L359.879 2.086Z" />
<path fill="#ffffff" stroke="none" d="M359.151 7.194L359.519 7.054L361.302 5.827L363.301 5.302L362.429 6.398L361.167 8.339Z" />
<path fill="none" stroke="#4c4c4c" stroke-width="0.576" stroke-linecap="butt" d="M359.151 7.194L359.519 7.054L361.302 5.827L363.301 5.302L362.429 6.398L361.167 8.339Z" />
<path fill="#ffffff" stroke="none" d="M356.943 12.346L358.000 11.618L358.698 13.386L357.406 14.483L356.280 14.782L356.594 12.865Z" />
<path fill="none" stroke="#4c4c4c" stroke-width="0.576" stroke-linecap="butt" d="M356.943 12.346L358.000 11.618L358.698 13.386L357.406 14.483L356.280 14.782L356.594 12.865Z" />
<path fill="#ffffff" stroke="none" d="M366.261 0.367L364.918 0.230L363.119 -0.304L362.977 -4.436L364.357 -4.409L365.957 -3.368Z" />
<path fill="none" stroke="#4c4c4c" stroke-width="0.576" stroke-linecap="butt" d="M366.261 0.367L364.918 0.230L363.119 -0.304L362.977 -4.436L364.357 -4.409L365.957 -3.368Z" />
<path fill="#ffffff" stroke="none" d="M365.190 4.514L364.436 3.881L364.045 2.292L366.941 2.025L367.659 3.760L367.681 4.399Z" />
<path fill="none" stroke="#4c4c4c" stroke-width="0.576" stroke-linecap="butt" d="M365.190 4.514L364.436 3.881L364.045 2.292L366.941 2.025L367.659 3.760L367.681 4.399Z" />
<path fill="#ffffff" stroke="none" d="M365.335 5.834L366.553 6.311L367.516 6.941L366.679 9.221L366.165 9.438L365.440 8.300Z" />
<path fill="none" stroke="#4c4c4c" stroke-width="0.576" stroke-linecap="butt" d="M365.335 5.834L366.553 6.311L367.516 6.941L366.679 9.221L366.165 9.438L365.440 8.300Z" />
<path fill="#ffffff" stroke="none" d="M368.318 11.543L366.644 12.199L364.805 12.265L363.582 12.414L363.544 10.283L365.212 9.480Z" />
<path fill="none" stroke="#4c4c4c" stroke-width="0.576" stroke-linecap="butt" d="M368.318 11.543L366.644 12.199L364.805 12.265L363.582 12.414L363.544 10.283L365.212 9.480Z" />
<path fill="#ffffff" stroke="none" d="M368.062 -4.658L368.291 -3.895L368.262 -2.534L367.187 -2.441L366.354 -2.521L367.187 -4.113Z" />
<path fill="none" stroke="#4c4c4c" stroke-width="0.576" stroke-linecap="butt" d="M368.062 -4.658L368.291 -3.895L368.262 -2.534L367.187 -2.441L366.354 -2.521L367.187 -4.113Z" />
<path fill="#ffffff" stroke="none" d="M370.601 4.206L371.174 4.222L370.774 5.989L370.147 5.903L369.178 5.932L369.190 4.830Z" />
<path fill="none" stroke="#4c4c4c" stroke-width="0.576" stroke-linecap="butt" d="M370.601 4.206L371.174 4.222L370.774 5.989L370.147 5.903L369.178 5.932L369.190 4.830Z" />
<path fill="#ffffff" stroke="none" d="M368.881 10.055L368.362 11.132L367.205 8.098L367.138 5.906L369.484 5.651L369.460 8.933Z" />
<path fill="none" stroke="#4c4c4c" stroke-width="0.576" stroke-linecap="butt" d="M368.881 10.055L368.362 11.132L367.205 8.098L367.138 5.906L369.484 5.651L369.460 8.933Z" />
<path fill="#ffffff" stroke="none" d="M366.117 13.519L367.139 12.304L367.662 12.123L368.767 12.168L369.458 13.231L368.124 14.571Z" />
<path fill="none" stroke="#4c4c4c" stroke-width="0.576" stroke-linecap="butt" d="M366.117 13.519L367.139 12.304L367.662 12.123L368.767 12.168L369.458 13.231L368.124 14.571Z" />
<path fill="#ffffff" stroke="none" d="M370.702 -1.513L368.354 -2.219L370.167 -5.306L373.467 -6.132L374.591 -2.389L372.287 -0.672Z" />
<path fill="none" stroke="#4c4c4c" stroke-width="0.576" stroke-linecap="butt" d="M370.702 -1.513L368.354 -2.219L370.167 -5.306L373.467 -6.132L374.591 -2.389L372.287 -0.672Z" />
<path fill="#ffffff" stroke="none" d="M371.168 9.813L372.362 8.471L375.027 8.087L376.242 9.821L375.817 9.952L374.727 11.322Z" />
<path fill="none" stroke="#4c4c4c" stroke-width="0.576" stroke-linecap="butt" d="M371.168 9.813L372.362 8.471L375.027 8.087L376.242 9.821L375.817 9.952L374.727 11.322Z" />
<path fill="#ffffff" stroke="none" d="M375.218 10.664L375.506 11.631L374.836 11.781L373.800 11.000L373.503 10.528L374.645 10.156Z" />
<path fill="none" stroke="#4c4c4c" stroke-width="0.576" stroke-linecap="butt" d="M375.218 10.664L375.506 11.631L374.836 11.781L373.800 11.000L373.503 10.528L374.645 10.156Z" />
<path fill="#ffffff" stroke="none" d="M378.766 0.287L376.357 0.173L375.619 -0.122L374.763 -2.422L377.558 -3.460L378.787 -2.046Z" />
<path fill="none" stroke="#4c4c4c" stroke-width="0.576" stroke-linecap="butt" d="M378.766 0.287L376.357 0.173L375.619 -0.122L374.763 -2.422L377.558 -3.460L378.787 -2.046Z" />
<path fill="#ffffff" stroke="none" d="M377.406 7.876L377.408 7.259L378.432 6.562L379.639 6.836L379.497 7.904L379.028 8.371Z" />
<path fill="none" stroke="#4c4c4c" stroke-width="0.576" stroke-linecap="butt" d="M377.406 7.876L377.408 7.259L378.432 6.562L379.639 6.836L379.497 7.904L379.028 8.371Z" />
<path fill="#ffffff" stroke="none" d="M376.059 12.211L376.554 11.975L377.167 11.821L378.591 12.800L377.632 12.884L376.372 13.649Z" />
<path fill="none" stroke="#4c4c4c" stroke-width="0.576" stroke-linecap="butt" d="M376.059 12.211L376.554 11.975L377.167 11.821L378.591 12.800L377.632 12.884L376.372 13.649Z" />
<path fill="#ffffff" stroke="none" d="M375.541 15.742L377.061 13.586L378.814 12.986L380.193 15.122L379.500 15.559L378.406 16.419Z" />
<path fill="none" stroke="#4c4c4c" stroke-width="0.576" stroke-linecap="butt" d="M375.541 15.742L377.061 13.586L378.814 12.986L380.193 15.122L379.500 15.559L378.406 16.419Z" />
<path fill="#ffffff" stroke="none" d="M381.879 -4.957L382.944 -4.724L382.421 -3.547L382.432 -2.216L381.747 -2.226L380.817 -2.499Z" />
<path fill="none" stroke="#4c4c4c" stroke-width="0.576" stroke-linecap="butt" d="M381.879 -4.957L382.944 -4.724L382.421 -3.547L382.432 -2.216L381.747 -2.226L380.817 -2.499Z" />
<path fill="#ffffff" stroke="none" d="M382.751 5.634L381.686 6.122L379.545 4.576L378.822 2.142L382.551 1.844L382.680 3.352Z" />
<path fill="none" stroke="#4c4c4c" stroke-width="0.576" stroke-linecap="butt" d="M382.751 5.634L381.686 6.122L379.545 4.576L378.822 2.142L382.551 1.844L382.680 3.352Z" />
<path fill="#ffffff" stroke="none" d="M383.618 7.797L383.177 9.553L381.293 10.034L379.335 9.448L379.763 7.134L380.970 7.579Z" />
<path fill="none" stroke="#4c4c4c" stroke-width="0.576" stroke-linecap="butt" d="M383.618 7.797L383.177 9.553L381.293 10.034L379.335 9.448L379.763 7.134L380.970 7.579Z" />
<path fill="#ffffff" stroke="none" d="M384.459 11.250L383.760 12.954L383.053 13.768L380.297 15.965L380.476 12.796L381.454 12.483Z" />
<path fill="none" stroke="#4c4c4c" stroke-width="0.576" stroke-linecap="butt" d="M384.459 11.250L383.760 12.954L383.053 13.768L380.297 15.965L380.476 12.796L381.454 12.483Z" />
<path fill="#ffffff" stroke="none" d="M385.570 -2.021L386.065 -2.897L386.855 -3.358L389.532 -2.501L389.033 -1.310L386.966 -0.849Z" />
<path fill="none" stroke="#4c4c4c" stroke-width="0.576" stroke-linecap="butt" d="M385.570 -2.021L386.065 -2.897L386.855 -3.358L389.532 -2.501L389.033 -1.310L386.966 -0.849Z" />
<path fill="#ffffff" stroke="none" d="M389.553 7.669L388.818 7.688L388.191 4.624L387.263 3.030L389.985 2.843L390.140 4.857Z" />
<path fill="none" stroke="#4c4c4c" stroke-width="0.576" stroke-linecap="butt" d="M389.553 7.669L388.818 7.688L388.191 4.624L387.263 3.030L389.985 2.843L390.140 4.857Z" />
<path fill="#ffffff" stroke="none" d="M387.254 7.282L387.214 9.092L385.988 9.275L384.081 8.922L384.078 7.657L385.164 7.462Z" />
<path fill="none" stroke="#4c4c4c" stroke-width="0.576" stroke-linecap="butt" d="M387.254 7.282L387.214 9.092L385.988 9.275L384.081 8.922L384.078 7.657L385.164 7.462Z" />
<path fill="#ffffff" stroke="none" d="M387.371 10.474L387.515 11.618L387.469 12.910L386.789 12.954L386.190 12.178L385.452 11.134Z" />
<path fill="none" stroke="#4c4c4c" stroke-width="0.576" stroke-linecap="butt" d="M387.371 10.474L387.515 11.618L387.469 12.910L386.789 12.954L386.190 12.178L385.452 11.134Z" />
<path fill="#ffffff" stroke="none" d="M387.300 -3.390L389.290 -4.825L390.815 -4.304L391.911 -1.678L390.984 -1.979L388.720 -2.208Z" />
<path fill="none" stroke="#4c4c4c" stroke-width="0.576" stroke-linecap="butt" d="M387.300 -3.390L389.290 -4.825L390.815 -4.304L391.911 -1.678L390.984 -1.979L388.720 -2.208Z" />
<path fill="#ffffff" stroke="none" d="M391.516 14.774L392.987 14.300L392.250 16.115L391.399 16.808L390.268 16.699L389.539 14.955Z" />
<path fill="none" stroke="#4c4c4c" stroke-width="0.576" stroke-linecap="butt" d="M391.516 14.774L392.987 14.300L392.250 16.115L391.399 16.808L390.268 16.699L389.539 14.955Z" />
</g>
</g>
<g>
<clipPath id="clip_2_../../outputs/symbology.svg">
  <path d="M509.800 17.360L559.820 17.360L559.820 0.680L509.800 0.680L509.800 17.360Z" />
</clipPath>
<g clip-path="url(#clip_2_../../outputs/symbology.svg)">
<path fill="#ffffff" stroke="none" d="M520.812 6.888L521.121 9.309L518.726 9.678L515.517 9.484L515.398 7.279L517.450 6.380Z" />
<path fill="none" stroke="#4c4c4c" stroke-width="0.576" stroke-linecap="butt" d="M520.812 6.888L521.121 9.309L518.726 9.678L515.517 9.484L515.398 7.279L517.450 6.380Z" />
<path fill="#ffffff" stroke="none" d="M520.563 23.267L517.411 23.312L515.907 19.873L516.102 17.542L519.168 17.727L520.743 19.759Z" />
<path fill="none" stroke="#4c4c4c" stroke-width="0.576" stroke-linecap="butt" d="M520.563 23.267L517.411 23.312L515.907 19.873L516.102 17.542L519.168 17.727L520.743 19.759Z" />
<path fill="#ffffff" stroke="none" d="M526.768 14.994L524.102 12.907L524.705 8.315L528.570 5.353L530.755 8.119L529.551 11.381Z" />
<path fill="none" stroke="#4c4c4c" stroke-width="0.576" stroke-linecap="butt" d="M526.768 14.994L524.102 12.907L524.705 8.315L528.570 5.353L530.755 8.119L529.551 11.381Z" />
<path fill="#ffffff" stroke="none" d="M541.328 10.711L539.749 13.535L536.468 11.726L534.551 8.766L536.837 6.904L539.611 8.311Z" />
<path fill="none" stroke="#4c4c4c" stroke-width="0.576" stroke-linecap="butt" d="M541.328 10.711L539.749 13.535L536.468 11.726L534.551 8.766L536.837 6.904L539.611 8.311Z" />
<path fill="#ffffff" stroke="none" d="M543.555 7.192L546.156 6.646L547.743 9.084L547.672 12.688L545.266 12.403L543.518 11.175Z" />
<path fill="none" stroke="#4c4c4c" stroke-width="0.576" stroke-linecap="butt" d="M543.555 7.192L546.156 6.646L547.743 9.084L547.672 12.688L545.266 12.403L543.518 11.175Z" />
</g>
</g>
<g>
<clipPath id="clip_3_../../outputs/symbology.svg">
  <path d="M426.420 17.360L476.450 17.360L476.450 0.680L426.420 0.680L426.420 17.360Z" />
</clipPath>
<g clip-path="url(#clip_3_../../outputs/symbology.svg)">
<path fill="#ffffff" stroke="none" d="M424.590 -4.019L424.639 -2.977L424.614 -1.316L421.739 -0.258L421.155 -1.236L421.436 -3.245Z" />
<path fill="none" stroke="#4c4c4c" stroke-width="0.576" stroke-linecap="butt" d="M424.590 -4.019L424.639 -2.977L424.614 -1.316L421.739 -0.258L421.155 -1.236L421.436 -3.245Z" />
<path fill="#ffffff" stroke="none" d="M421.021 4.572L421.277 3.043L423.366 3.360L425.558 3.558L424.806 5.198L422.921 6.770Z" />
<path fill="none" stroke="#4c4c4c" stroke-width="0.576" stroke-linecap="butt" d="M421.021 4.572L421.277 3.043L423.366 3.360L425.558 3.558L424.806 5.198L422.921 6.770Z" />
<path fill="#ffffff" stroke="none" d="M423.680 18.650L423.673 16.746L425.334 17.039L427.365 17.908L426.580 19.806L425.632 19.816Z" />
<path fill="none" stroke="#4c4c4c" stroke-width="0.576" stroke-linecap="butt" d="M423.680 18.650L423.673 16.746L425.334 17.039L427.365 17.908L426.580 19.806L425.632 19.816Z" />
<path fill="#ffffff" stroke="none" d="M430.611 -5.469L432.121 -4.931L432.728 -3.224L430.821 -1.275L429.889 -1.960L429.473 -4.446Z" />
<path fill="none" stroke="#4c4c4c" stroke-width="0.576" stroke-linecap="butt" d="M430.611 -5.469L432.121 -4.931L432.728 -3.224L430.821 -1.275L429.889 -1.960L429.473 -4.446Z" />
<path fill="#ffffff" stroke="none" d="M431.199 3.709L430.332 4.485L429.043 4.965L427.702 3.211L427.896 1.980L430.243 2.374Z" />
<path fill="none" stroke="#4c4c4c" stroke-width="0.576" stroke-linecap="butt" d="M431.199 3.709L430.332 4.485L429.043 4.965L427.702 3.211L427.896 1.980L430.243 2.374Z" />
<path fill="#ffffff" stroke="none" d="M430.885 10.713L431.654 10.665L432.264 13.925L431.499 15.028L429.822 14.050L429.826 12.359Z" />
<path fill="none" stroke="#4c4c4c" stroke-width="0.576" stroke-linecap="butt" d="M430.885 10.713L431.654 10.665L432.264 13.925L431.499 15.028L429.822 14.050L429.826 12.359Z" />
<path fill="#ffffff" stroke="none" d="M438.197 6.597L438.520 4.997L439.712 5.059L441.450 5.719L440.724 7.192L439.403 7.317Z" />
<path fill="none" stroke="#4c4c4c" stroke-width="0.576" stroke-linecap="butt" d="M438.197 6.597L438.520 4.997L439.712 5.059L441.450 5.719L440.724 7.192L439.403 7.317Z" />
<path fill="#ffffff" stroke="none" d="M437.760 11.568L436.402 11.958L436.150 9.961L437.617 8.675L439.073 8.658L438.791 9.884Z" />
<path fill="none" stroke="#4c4c4c" stroke-width="0.576" stroke-linecap="butt" d="M437.760 11.568L436.402 11.958L436.150 9.961L437.617 8.675L439.073 8.658L438.791 9.884Z" />
<path fill="#ffffff" stroke="none" d="M446.206 7.396L445.194 10.046L442.103 9.920L440.625 6.462L440.508 3.757L444.246 5.291Z" />
<path fill="none" stroke="#4c4c4c" stroke-width="0.576" stroke-linecap="butt" d="M446.206 7.396L445.194 10.046L442.103 9.920L440.625 6.462L440.508 3.757L444.246 5.291Z" />
<path fill="#ffffff" stroke="none" d="M446.972 10.700L446.852 11.463L445.353 11.933L443.708 10.011L444.267 9.440L446.770 9.247Z" />
<path fill="none" stroke="#4c4c4c" stroke-width="0.576" stroke-linecap="butt" d="M446.972 10.700L446.852 11.463L445.353 11.933L443.708 10.011L444.267 9.440L446.770 9.247Z" />
<path fill="#ffffff" stroke="none" d="M453.734 6.024L452.831 6.983L452.205 6.464L450.373 6.006L450.832 5.392L452.335 4.558Z" />
<path fill="none" stroke="#4c4c4c" stroke-width="0.576" stroke-linecap="butt" d="M453.734 6.024L452.831 6.983L452.205 6.464L450.373 6.006L450.832 5.392L452.335 4.558Z" />
<path fill="#ffffff" stroke="none" d="M454.162 8.755L454.138 9.828L453.005 10.693L451.011 12.395L450.252 9.878L451.606 8.307Z" />
<path fill="none" stroke="#4c4c4c" stroke-width="0.576" stroke-linecap="butt" d="M454.162 8.755L454.138 9.828L453.005 10.693L451.011 12.395L450.252 9.878L451.606 8.307Z" />
<path fill="#ffffff" stroke="none" d="M458.012 6.095L456.646 5.211L456.968 3.614L457.931 1.949L459.130 2.870L459.074 4.641Z" />
<path fill="none" stroke="#4c4c4c" stroke-width="0.576" stroke-linecap="butt" d="M458.012 6.095L456.646 5.211L456.968 3.614L457.931 1.949L459.130 2.870L459.074 4.641Z" />
<path fill="#ffffff" stroke="none" d="M457.706 13.456L457.275 14.979L454.499 13.993L453.410 11.553L455.235 11.478L456.602 11.433Z" />
<path fill="none" stroke="#4c4c4c" stroke-width="0.576" stroke-linecap="butt" d="M457.706 13.456L457.275 14.979L454.499 13.993L453.410 11.553L455.235 11.478L456.602 11.433Z" />
<path fill="#ffffff" stroke="none" d="M462.312 4.121L464.968 3.650L465.901 4.664L466.290 6.645L464.786 7.773L463.219 5.493Z" />
<path fill="none" stroke="#4c4c4c" stroke-width="0.576" stroke-linecap="butt" d="M462.312 4.121L464.968 3.650L465.901 4.664L466.290 6.645L464.786 7.773L463.219 5.493Z" />
<path fill="#ffffff" stroke="none" d="M465.472 11.190L466.230 11.620L464.825 13.387L463.922 13.527L463.045 12.682L463.962 11.610Z" />
<path fill="none" stroke="#4c4c4c" stroke-width="0.576" stroke-linecap="butt" d="M465.472 11.190L466.230 11.620L464.825 13.387L463.922 13.527L463.045 12.682L463.962 11.610Z" />
<path fill="#ffffff" stroke="none" d="M460.061 20.018L460.419 18.733L462.860 17.969L464.970 19.327L462.988 21.249L461.585 21.399Z" />
<path fill="none" stroke="#4c4c4c" stroke-width="0.576" stroke-linecap="butt" d="M460.061 20.018L460.419 18.733L462.860 17.969L464.970 19.327L462.988 21.249L461.585 21.399Z" />
<path fill="#ffffff" stroke="none" d="M473.579 -3.314L474.350 -2.247L471.726 -1.368L470.574 -2.766L470.140 -4.110L471.910 -4.204Z" />
<path fill="none" stroke="#4c4c4c" stroke-width="0.576" stroke-linecap="butt" d="M473.579 -3.314L474.350 -2.247L471.726 -1.368L470.574 -2.766L470.140 -4.110L471.910 -4.204Z" />
<path fill="#ffffff" stroke="none" d="M469.769 3.738L471.089 4.813L468.953 6.077L467.116 6.702L466.589 4.626L467.783 2.751Z" />
<path fill="none" stroke="#4c4c4c" stroke-width="0.576" stroke-linecap="butt" d="M469.769 3.738L471.089 4.813L468.953 6.077L467.116 6.702L466.589 4.626L467.783 2.751Z" />
<path fill="#ffffff" stroke="none" d="M469.048 10.425L468.691 8.761L470.935 8.824L472.515 9.341L471.762 10.725L470.868 10.965Z" />
<path fill="none" stroke="#4c4c4c" stroke-width="0.576" stroke-linecap="butt" d="M469.048 10.425L468.691 8.761L470.935 8.824L472.515 9.341L471.762 10.725L470.868 10.965Z" />
<path fill="#ffffff" stroke="none" d="M478.878 0.515L478.318 0.884L477.263 -1.583L479.026 -3.538L479.725 -3.066L480.348 -0.610Z" />
<path fill="none" stroke="#4c4c4c" stroke-width="0.576" stroke-linecap="butt" d="M478.878 0.515L478.318 0.884L477.263 -1.583L479.026 -3.538L479.725 -3.066L480.348 -0.610Z" />
</g>
</g>
<path fill="#ffffff" stroke="none" d="M259.680 17.360L309.700 17.360L309.700 0.680L259.680 0.680L259.680 17.360Z" />
<path fill="url(#patt_0.00023_../../outputs/symbology.svg)" stroke="none" d="M259.680 17.360L309.700 17.360L309.700 0.680L259.680 0.680L259.680 17.360Z" />
<path fill="#ffffff" stroke="none" d="M176.310 17.360L226.330 17.360L226.330 0.680L176.310 0.680L176.310 17.360Z" />
<path fill="url(#patt_0.00024_../../outputs/symbology.svg)" stroke="none" d="M176.310 17.360L226.330 17.360L226.330 0.680L176.310 0.680L176.310 17.360Z" />
<path fill="#ffffff" stroke="none" d="M92.940 17.360L142.960 17.360L142.960 0.680L92.940 0.680L92.940 17.360Z" />
<path fill="url(#patt_0.00002_../../outputs/symbology.svg)" stroke="none" d="M92.940 17.360L142.960 17.360L142.960 0.680L92.940 0.680L92.940 17.360Z" />
<g>
<clipPath id="clip_4_../../outputs/symbology.svg">
  <path d="M9.570 17.360L59.590 17.360L59.590 0.680L9.570 0.680L9.570 17.360Z" />
</clipPath>
<g clip-path="url(#clip_4_../../outputs/symbology.svg)">
<path fill="none" stroke="#00b2e5" stroke-width="0.576" d="M14.563 5.022L14.563 6.669" />
<path fill="none" stroke="#00b2e5" stroke-width="0.576" d="M14.563 5.022L13.137 5.846" />
<path fill="none" stroke="#00b2e5" stroke-width="0.576" d="M14.563 5.022L13.137 4.199" />
<path fill="none" stroke="#00b2e5" stroke-width="0.576" d="M14.563 5.022L14.563 3.375" />
<path fill="none" stroke="#00b2e5" stroke-width="0.576" d="M14.563 5.022L15.990 4.199" />
<path fill="none" stroke="#00b2e5" stroke-width="0.576" d="M14.563 5.022L15.990 5.846" />
<path fill="none" stroke="#00b2e5" stroke-width="0.576" d="M22.987 6.671L22.987 8.318" />
<path fill="none" stroke="#00b2e5" stroke-width="0.576" d="M22.987 6.671L21.560 7.495" />
<path fill="none" stroke="#00b2e5" stroke-width="0.576" d="M22.987 6.671L21.560 5.847" />
<path fill="none" stroke="#00b2e5" stroke-width="0.576" d="M22.987 6.671L22.987 5.024" />
<path fill="none" stroke="#00b2e5" stroke-width="0.576" d="M22.987 6.671L24.413 5.847" />
<path fill="none" stroke="#00b2e5" stroke-width="0.576" d="M22.987 6.671L24.413 7.495" />
<path fill="none" stroke="#00b2e5" stroke-width="0.576" d="M32.594 7.179L32.594 8.826" />
<path fill="none" stroke="#00b2e5" stroke-width="0.576" d="M32.594 7.179L31.167 8.002" />
<path fill="none" stroke="#00b2e5" stroke-width="0.576" d="M32.594 7.179L31.167 6.355" />
<path fill="none" stroke="#00b2e5" stroke-width="0.576" d="M32.594 7.179L32.594 5.532" />
<path fill="none" stroke="#00b2e5" stroke-width="0.576" d="M32.594 7.179L34.020 6.355" />
<path fill="none" stroke="#00b2e5" stroke-width="0.576" d="M32.594 7.179L34.020 8.002" />
<path fill="none" stroke="#00b2e5" stroke-width="0.576" d="M39.636 6.818L39.636 8.465" />
<path fill="none" stroke="#00b2e5" stroke-width="0.576" d="M39.636 6.818L38.210 7.642" />
<path fill="none" stroke="#00b2e5" stroke-width="0.576" d="M39.636 6.818L38.210 5.994" />
<path fill="none" stroke="#00b2e5" stroke-width="0.576" d="M39.636 6.818L39.636 5.171" />
<path fill="none" stroke="#00b2e5" stroke-width="0.576" d="M39.636 6.818L41.063 5.994" />
<path fill="none" stroke="#00b2e5" stroke-width="0.576" d="M39.636 6.818L41.063 7.642" />
<path fill="none" stroke="#00b2e5" stroke-width="0.576" d="M47.639 8.944L47.639 10.591" />
<path fill="none" stroke="#00b2e5" stroke-width="0.576" d="M47.639 8.944L46.213 9.767" />
<path fill="none" stroke="#00b2e5" stroke-width="0.576" d="M47.639 8.944L46.213 8.120" />
<path fill="none" stroke="#00b2e5" stroke-width="0.576" d="M47.639 8.944L47.639 7.297" />
<path fill="none" stroke="#00b2e5" stroke-width="0.576" d="M47.639 8.944L49.066 8.120" />
<path fill="none" stroke="#00b2e5" stroke-width="0.576" d="M47.639 8.944L49.066 9.767" />
</g>
</g>
<path fill="none" stroke="#000000" stroke-width="0.576" stroke-linecap="butt" d="M343.050 17.360L393.080 17.360L393.080 0.680L343.050 0.680Z" />
<path fill="none" stroke="#000000" stroke-width="0.576" stroke-linecap="butt" d="M509.800 17.360L559.820 17.360L559.820 0.680L509.800 0.680Z" />
<path fill="none" stroke="#000000" stroke-width="0.576" stroke-linecap="butt" d="M426.420 17.360L476.450 17.360L476.450 0.680L426.420 0.680Z" />
<path fill="none" stroke="#000000" stroke-width="0.576" stroke-linecap="butt" d="M259.680 17.360L309.700 17.360L309.700 0.680L259.680 0.680Z" />
<path fill="none" stroke="#000000" stroke-width="0.576" stroke-linecap="butt" d="M176.310 17.360L226.330 17.360L226.330 0.680L176.310 0.680Z" />
<path fill="none" stroke="#000000" stroke-width="0.576" stroke-linecap="butt" d="M92.940 17.360L142.960 17.360L142.960 0.680L92.940 0.680Z" />
<path fill="none" stroke="#000000" stroke-width="0.576" stroke-linecap="butt" d="M9.570 17.360L59.590 17.360L59.590 0.680L9.570 0.680Z" />
<path fill="none" stroke="#d87219" stroke-width="0.824" d="M511.536 137.494C511.976 137.937 512.528 138.252 513.134 138.405C513.681 138.542 514.254 138.542 514.802 138.405C515.408 138.252 515.960 137.937 516.400 137.494L516.391 137.494C515.900 137.780 515.362 137.977 514.802 138.075C514.250 138.172 513.685 138.172 513.134 138.075C512.571 137.977 512.030 137.780 511.536 137.494" />
<path fill="none" stroke="#d87219" stroke-width="0.824" d="M519.872 137.494C520.312 137.937 520.864 138.252 521.470 138.405C522.017 138.542 522.590 138.542 523.138 138.405C523.744 138.252 524.297 137.937 524.736 137.494L524.727 137.494C524.236 137.780 523.698 137.977 523.138 138.075C522.586 138.172 522.022 138.172 521.470 138.075C520.907 137.977 520.366 137.780 519.872 137.494" />
<path fill="none" stroke="#d87219" stroke-width="0.824" d="M528.208 137.494C528.648 137.937 529.201 138.252 529.806 138.405C530.354 138.542 530.927 138.542 531.474 138.405C532.080 138.252 532.633 137.937 533.073 137.494L533.064 137.494C532.572 137.780 532.034 137.977 531.474 138.075C530.922 138.172 530.358 138.172 529.806 138.075C529.244 137.977 528.703 137.780 528.208 137.494" />
<path fill="none" stroke="#d87219" stroke-width="0.824" d="M536.545 137.494C536.984 137.937 537.537 138.252 538.142 138.405C538.690 138.542 539.263 138.542 539.810 138.405C540.416 138.252 540.969 137.937 541.409 137.494L541.400 137.494C540.909 137.780 540.370 137.977 539.810 138.075C539.259 138.172 538.694 138.172 538.142 138.075C537.580 137.977 537.039 137.780 536.545 137.494" />
<path fill="none" stroke="#d87219" stroke-width="0.824" d="M544.881 137.494C545.321 137.937 545.873 138.252 546.479 138.405C547.026 138.542 547.599 138.542 548.147 138.405C548.753 138.252 549.305 137.937 549.745 137.494L549.736 137.494C549.245 137.780 548.707 137.977 548.147 138.075C547.595 138.172 547.030 138.172 546.479 138.075C545.916 137.977 545.375 137.780 544.881 137.494" />
<path fill="none" stroke="#d87219" stroke-width="0.824" d="M553.217 137.494C553.657 137.937 554.209 138.252 554.815 138.405C555.362 138.542 555.935 138.542 556.483 138.405C557.089 138.252 557.642 137.937 558.082 137.494L558.072 137.494C557.581 137.780 557.043 137.977 556.483 138.075C555.931 138.172 555.367 138.172 554.815 138.075C554.252 137.977 553.711 137.780 553.217 137.494" />
<path fill="none" stroke="#d87219" stroke-width="0.824" d="M561.554 137.494C561.993 137.937 562.546 138.252 563.151 138.405C563.699 138.542 564.272 138.542 564.819 138.405C565.425 138.252 565.978 137.937 566.418 137.494L566.409 137.494C565.917 137.780 565.379 137.977 564.819 138.075C564.267 138.172 563.703 138.172 563.151 138.075C562.589 137.977 562.048 137.780 561.554 137.494" />
<path fill="none" stroke="#d87219" stroke-width="0.824" d="M569.890 137.494C570.329 137.937 570.882 138.252 571.487 138.405C572.035 138.542 572.608 138.542 573.155 138.405C573.761 138.252 574.314 137.937 574.754 137.494L574.745 137.494C574.254 137.780 573.715 137.977 573.155 138.075C572.604 138.172 572.039 138.172 571.487 138.075C570.925 137.977 570.384 137.780 569.890 137.494" />
<path fill="#ffffff" stroke="none" d="M434.760 138.240L438.930 146.580L443.100 149.080L447.270 149.500L455.600 149.080L459.770 147.420L451.440 138.240L443.930 136.580Z" />
<path fill="none" stroke="#4c4c4c" stroke-width="0.824" d="M434.760 138.240L438.930 146.580L443.100 149.080L447.270 149.500L455.600 149.080L459.770 147.420L451.440 138.240L443.930 136.580Z" />
<path fill="none" stroke="#000000" stroke-width="0.824" d="M343.050 138.240L409.750 138.240" />
<path fill="none" stroke="#000000" stroke-width="0.824" d="M405.632 139.887L409.750 138.240L405.632 136.593" />
<path fill="none" stroke="#4c4c4c" stroke-width="0.576" d="M259.680 138.240L326.380 138.240" />
<path fill="none" stroke="#b20000" stroke-width="0.576" d="M176.310 138.240L243.010 138.240" />
<path fill="#ffffff" stroke="none" d="M97.107 138.240L92.940 138.240L92.940 140.324L93.773 140.324L94.607 140.324L95.440 140.324L96.274 140.324L97.107 140.324Z" />
<path fill="none" stroke="#00b2e5" stroke-width="0.824" d="M92.940 138.240L159.630 138.240" />
<path fill="none" stroke="#00b2e5" stroke-width="0.824" d="M95.440 138.240L95.440 141.019" />
<path fill="#ffffff" stroke="none" d="M101.275 138.240L97.108 138.240L97.108 140.324L97.942 140.324L98.775 140.324L99.608 140.324L100.442 140.324L101.275 140.324Z" />
<path fill="none" stroke="#00b2e5" stroke-width="0.824" d="M92.940 138.240L159.630 138.240" />
<path fill="none" stroke="#00b2e5" stroke-width="0.824" d="M99.608 138.240L99.608 141.019" />
<path fill="#ffffff" stroke="none" d="M105.443 138.240L101.276 138.240L101.276 140.324L102.110 140.324L102.943 140.324L103.776 140.324L104.610 140.324L105.443 140.324Z" />
<path fill="none" stroke="#00b2e5" stroke-width="0.824" d="M92.940 138.240L159.630 138.240" />
<path fill="none" stroke="#00b2e5" stroke-width="0.824" d="M103.776 138.240L103.776 141.019" />
<path fill="#ffffff" stroke="none" d="M109.611 138.240L105.444 138.240L105.444 140.324L106.278 140.324L107.111 140.324L107.945 140.324L108.778 140.324L109.611 140.324Z" />
<path fill="none" stroke="#00b2e5" stroke-width="0.824" d="M92.940 138.240L159.630 138.240" />
<path fill="none" stroke="#00b2e5" stroke-width="0.824" d="M107.945 138.240L107.945 141.019" />
<path fill="#ffffff" stroke="none" d="M113.780 138.240L109.613 138.240L109.613 140.324L110.446 140.324L111.279 140.324L112.113 140.324L112.946 140.324L113.780 140.324Z" />
<path fill="none" stroke="#00b2e5" stroke-width="0.824" d="M92.940 138.240L159.630 138.240" />
<path fill="none" stroke="#00b2e5" stroke-width="0.824" d="M112.113 138.240L112.113 141.019" />
<path fill="#ffffff" stroke="none" d="M117.947 138.240L113.781 138.240L113.781 140.324L114.614 140.324L115.447 140.324L116.281 140.324L117.114 140.324L117.948 140.324Z" />
<path fill="none" stroke="#00b2e5" stroke-width="0.824" d="M92.940 138.240L159.630 138.240" />
<path fill="none" stroke="#00b2e5" stroke-width="0.824" d="M116.281 138.240L116.281 141.019" />
<path fill="#ffffff" stroke="none" d="M122.116 138.240L117.949 138.240L117.949 140.324L118.782 140.324L119.616 140.324L120.449 140.324L121.282 140.324L122.116 140.324Z" />
<path fill="none" stroke="#00b2e5" stroke-width="0.824" d="M92.940 138.240L159.630 138.240" />
<path fill="none" stroke="#00b2e5" stroke-width="0.824" d="M120.449 138.240L120.449 141.019" />
<path fill="#ffffff" stroke="none" d="M126.284 138.240L122.117 138.240L122.117 140.324L122.950 140.324L123.784 140.324L124.617 140.324L125.451 140.324L126.284 140.324Z" />
<path fill="none" stroke="#00b2e5" stroke-width="0.824" d="M92.940 138.240L159.630 138.240" />
<path fill="none" stroke="#00b2e5" stroke-width="0.824" d="M124.617 138.240L124.617 141.019" />
<path fill="#ffffff" stroke="none" d="M130.452 138.240L126.284 138.240L126.284 140.324L127.118 140.324L127.952 140.324L128.785 140.324L129.619 140.324L130.452 140.324Z" />
<path fill="none" stroke="#00b2e5" stroke-width="0.824" d="M92.940 138.240L159.630 138.240" />
<path fill="none" stroke="#00b2e5" stroke-width="0.824" d="M128.785 138.240L128.785 141.019" />
<path fill="#ffffff" stroke="none" d="M134.620 138.240L130.452 138.240L130.452 140.324L131.287 140.324L132.120 140.324L132.953 140.324L133.787 140.324L134.620 140.324Z" />
<path fill="none" stroke="#00b2e5" stroke-width="0.824" d="M92.940 138.240L159.630 138.240" />
<path fill="none" stroke="#00b2e5" stroke-width="0.824" d="M132.953 138.240L132.953 141.019" />
<path fill="#ffffff" stroke="none" d="M138.788 138.240L134.620 138.240L134.620 140.324L135.455 140.324L136.288 140.324L137.122 140.324L137.955 140.324L138.788 140.324Z" />
<path fill="none" stroke="#00b2e5" stroke-width="0.824" d="M92.940 138.240L159.630 138.240" />
<path fill="none" stroke="#00b2e5" stroke-width="0.824" d="M137.122 138.240L137.122 141.019" />
<path fill="#ffffff" stroke="none" d="M142.957 138.240L138.788 138.240L138.788 140.324L139.623 140.324L140.456 140.324L141.290 140.324L142.123 140.324L142.957 140.324Z" />
<path fill="none" stroke="#00b2e5" stroke-width="0.824" d="M92.940 138.240L159.630 138.240" />
<path fill="none" stroke="#00b2e5" stroke-width="0.824" d="M141.290 138.240L141.290 141.019" />
<path fill="#ffffff" stroke="none" d="M147.125 138.240L142.957 138.240L142.957 140.324L143.791 140.324L144.624 140.324L145.458 140.324L146.291 140.324L147.125 140.324Z" />
<path fill="none" stroke="#00b2e5" stroke-width="0.824" d="M92.940 138.240L159.630 138.240" />
<path fill="none" stroke="#00b2e5" stroke-width="0.824" d="M145.458 138.240L145.458 141.019" />
<path fill="#ffffff" stroke="none" d="M151.293 138.240L147.125 138.240L147.125 140.324L147.959 140.324L148.792 140.324L149.626 140.324L150.459 140.324L151.293 140.324Z" />
<path fill="none" stroke="#00b2e5" stroke-width="0.824" d="M92.940 138.240L159.630 138.240" />
<path fill="none" stroke="#00b2e5" stroke-width="0.824" d="M149.626 138.240L149.626 141.019" />
<path fill="#ffffff" stroke="none" d="M155.461 138.240L151.293 138.240L151.293 140.324L152.127 140.324L152.961 140.324L153.794 140.324L154.627 140.324L155.461 140.324Z" />
<path fill="none" stroke="#00b2e5" stroke-width="0.824" d="M92.940 138.240L159.630 138.240" />
<path fill="none" stroke="#00b2e5" stroke-width="0.824" d="M153.794 138.240L153.794 141.019" />
<path fill="#ffffff" stroke="none" d="M159.629 138.240L155.461 138.240L155.461 140.324L156.295 140.324L157.129 140.324L157.962 140.324L158.796 140.324L159.629 140.324Z" />
<path fill="none" stroke="#00b2e5" stroke-width="0.824" d="M92.940 138.240L159.630 138.240" />
<path fill="none" stroke="#00b2e5" stroke-width="0.824" d="M157.962 138.240L157.962 141.019" />
<path fill="#ffffff" stroke="none" d="M11.654 138.240L15.822 138.240L13.738 142.408Z" />
<path fill="#00b2e5" stroke="none" d="M15.822 138.240L13.738 142.408L11.654 138.240Z" />
<path fill="#ffffff" stroke="none" d="M19.990 138.240L24.159 138.240L22.074 142.408Z" />
<path fill="#00b2e5" stroke="none" d="M24.158 138.240L22.074 142.408L19.990 138.240Z" />
<path fill="#ffffff" stroke="none" d="M28.327 138.240L32.495 138.240L30.411 142.408Z" />
<path fill="#00b2e5" stroke="none" d="M32.495 138.240L30.411 142.408L28.327 138.240Z" />
<path fill="#ffffff" stroke="none" d="M36.663 138.240L40.831 138.240L38.747 142.408Z" />
<path fill="#00b2e5" stroke="none" d="M40.831 138.240L38.747 142.408L36.663 138.240Z" />
<path fill="#ffffff" stroke="none" d="M44.999 138.240L49.167 138.240L47.083 142.408Z" />
<path fill="#00b2e5" stroke="none" d="M49.167 138.240L47.083 142.408L44.999 138.240Z" />
<path fill="#ffffff" stroke="none" d="M53.335 138.240L57.504 138.240L55.419 142.408Z" />
<path fill="#00b2e5" stroke="none" d="M57.503 138.240L55.419 142.408L53.335 138.240Z" />
<path fill="#ffffff" stroke="none" d="M61.672 138.240L65.840 138.240L63.756 142.408Z" />
<path fill="#00b2e5" stroke="none" d="M65.840 138.240L63.756 142.408L61.672 138.240Z" />
<path fill="#ffffff" stroke="none" d="M70.008 138.240L74.176 138.240L72.092 142.408Z" />
<path fill="#00b2e5" stroke="none" d="M74.176 138.240L72.092 142.408L70.008 138.240Z" />
<path fill="none" stroke="#00b2e5" stroke-width="0.824" d="M9.570 138.240L76.260 138.240" />
<path fill="none" stroke="#000000" stroke-width="0.824" d="M509.800 188.270L576.490 188.270" />
<path fill="none" stroke="#000000" stroke-width="0.576" d="M426.420 188.270L426.420 191.564" />
<path fill="none" stroke="#000000" stroke-width="0.576" d="M430.589 188.270L430.589 191.564" />
<path fill="none" stroke="#000000" stroke-width="0.576" d="M434.757 188.270L434.757 191.564" />
<path fill="none" stroke="#000000" stroke-width="0.576" d="M438.926 188.270L438.926 191.564" />
<path fill="none" stroke="#000000" stroke-width="0.576" d="M443.095 188.270L443.095 191.564" />
<path fill="none" stroke="#000000" stroke-width="0.576" d="M447.264 188.270L447.264 191.564" />
<path fill="none" stroke="#000000" stroke-width="0.576" d="M451.433 188.270L451.433 191.564" />
<path fill="none" stroke="#000000" stroke-width="0.576" d="M455.601 188.270L455.601 191.564" />
<path fill="none" stroke="#000000" stroke-width="0.576" d="M459.769 188.270L459.769 191.564" />
<path fill="none" stroke="#000000" stroke-width="0.576" d="M463.938 188.270L463.938 191.564" />
<path fill="none" stroke="#000000" stroke-width="0.576" d="M468.106 188.270L468.106 191.564" />
<path fill="none" stroke="#000000" stroke-width="0.576" d="M472.275 188.270L472.275 191.564" />
<path fill="none" stroke="#000000" stroke-width="0.576" d="M476.444 188.270L476.444 191.564" />
<path fill="none" stroke="#000000" stroke-width="0.576" d="M480.613 188.270L480.613 191.564" />
<path fill="none" stroke="#000000" stroke-width="0.576" d="M484.781 188.270L484.781 191.564" />
<path fill="none" stroke="#000000" stroke-width="0.576" d="M488.950 188.270L488.950 191.564" />
<path fill="none" stroke="#000000" stroke-width="0.576" d="M493.119 188.270L493.119 191.564" />
<path fill="none" stroke="#000000" stroke-width="0.824" d="M426.420 188.270L493.120 188.270" />
<path fill="#ffffff" stroke="none" d="M345.134 188.270L349.303 188.270L347.219 192.439Z" />
<path fill="none" stroke="#000000" stroke-width="0.824" d="M349.303 188.270L347.219 192.439L345.134 188.270" />
<path fill="#ffffff" stroke="none" d="M353.472 188.270L357.641 188.270L355.556 192.439Z" />
<path fill="none" stroke="#000000" stroke-width="0.824" d="M357.641 188.270L355.556 192.439L353.472 188.270" />
<path fill="#ffffff" stroke="none" d="M361.809 188.270L365.978 188.270L363.894 192.439Z" />
<path fill="none" stroke="#000000" stroke-width="0.824" d="M365.978 188.270L363.894 192.439L361.809 188.270" />
<path fill="#ffffff" stroke="none" d="M370.147 188.270L374.316 188.270L372.231 192.439Z" />
<path fill="none" stroke="#000000" stroke-width="0.824" d="M374.316 188.270L372.231 192.439L370.147 188.270" />
<path fill="#ffffff" stroke="none" d="M378.483 188.270L382.652 188.270L380.569 192.439Z" />
<path fill="none" stroke="#000000" stroke-width="0.824" d="M382.652 188.270L380.569 192.439L378.483 188.270" />
<path fill="#ffffff" stroke="none" d="M386.821 188.270L390.990 188.270L388.906 192.439Z" />
<path fill="none" stroke="#000000" stroke-width="0.824" d="M390.990 188.270L388.906 192.439L386.821 188.270" />
<path fill="#ffffff" stroke="none" d="M395.158 188.270L399.327 188.270L397.244 192.439Z" />
<path fill="none" stroke="#000000" stroke-width="0.824" d="M399.327 188.270L397.244 192.439L395.158 188.270" />
<path fill="#ffffff" stroke="none" d="M403.496 188.270L407.665 188.270L405.581 192.439Z" />
<path fill="none" stroke="#000000" stroke-width="0.824" d="M407.665 188.270L405.581 192.439L403.496 188.270" />
<path fill="none" stroke="#000000" stroke-width="0.824" d="M343.050 188.270L409.750 188.270" />
<path fill="#ffffff" stroke="none" d="M261.764 188.270L265.933 188.270L263.849 192.439Z" />
<path fill="#000000" stroke="none" d="M265.933 188.270L263.849 192.439L261.764 188.270Z" />
<path fill="#ffffff" stroke="none" d="M270.102 188.270L274.271 188.270L272.186 192.439Z" />
<path fill="#000000" stroke="none" d="M274.271 188.270L272.186 192.439L270.102 188.270Z" />
<path fill="#ffffff" stroke="none" d="M278.439 188.270L282.608 188.270L280.524 192.439Z" />
<path fill="#000000" stroke="none" d="M282.608 188.270L280.524 192.439L278.439 188.270Z" />
<path fill="#ffffff" stroke="none" d="M286.777 188.270L290.946 188.270L288.861 192.439Z" />
<path fill="#000000" stroke="none" d="M290.946 188.270L288.861 192.439L286.777 188.270Z" />
<path fill="#ffffff" stroke="none" d="M295.114 188.270L299.283 188.270L297.199 192.439Z" />
<path fill="#000000" stroke="none" d="M299.283 188.270L297.199 192.439L295.114 188.270Z" />
<path fill="#ffffff" stroke="none" d="M303.452 188.270L307.621 188.270L305.536 192.439Z" />
<path fill="#000000" stroke="none" d="M307.621 188.270L305.536 192.439L303.452 188.270Z" />
<path fill="#ffffff" stroke="none" d="M311.789 188.270L315.958 188.270L313.874 192.439Z" />
<path fill="#000000" stroke="none" d="M315.958 188.270L313.874 192.439L311.789 188.270Z" />
<path fill="#ffffff" stroke="none" d="M320.127 188.270L324.296 188.270L322.211 192.439Z" />
<path fill="#000000" stroke="none" d="M324.296 188.270L322.211 192.439L320.127 188.270Z" />
<path fill="none" stroke="#000000" stroke-width="0.824" d="M259.680 188.270L326.380 188.270" />
<path fill="#ffffff" stroke="none" d="M180.479 188.270L176.310 188.270L176.310 190.354L177.144 190.354L177.977 190.354L178.811 190.354L179.644 190.354L180.479 190.354Z" />
<path fill="none" stroke="#000000" stroke-width="0.824" d="M176.310 190.354L177.144 190.354L177.977 190.354L178.811 190.354L179.644 190.354L180.479 190.354" />
<path fill="none" stroke="#000000" stroke-width="0.824" d="M178.811 190.354L178.811 193.828" />
<path fill="#ffffff" stroke="none" d="M184.647 188.270L180.479 188.270L180.479 190.354L181.312 190.354L182.146 190.354L182.979 190.354L183.813 190.354L184.647 190.354Z" />
<path fill="none" stroke="#000000" stroke-width="0.824" d="M180.479 190.354L181.312 190.354L182.146 190.354L182.979 190.354L183.813 190.354L184.647 190.354" />
<path fill="none" stroke="#000000" stroke-width="0.824" d="M182.979 190.354L182.979 193.828" />
<path fill="#ffffff" stroke="none" d="M188.816 188.270L184.647 188.270L184.647 190.354L185.481 190.354L186.315 190.354L187.148 190.354L187.982 190.354L188.816 190.354Z" />
<path fill="none" stroke="#000000" stroke-width="0.824" d="M184.647 190.354L185.481 190.354L186.315 190.354L187.148 190.354L187.982 190.354L188.816 190.354" />
<path fill="none" stroke="#000000" stroke-width="0.824" d="M187.148 190.354L187.148 193.828" />
<path fill="#ffffff" stroke="none" d="M192.985 188.270L188.816 188.270L188.816 190.354L189.650 190.354L190.483 190.354L191.317 190.354L192.150 190.354L192.985 190.354Z" />
<path fill="none" stroke="#000000" stroke-width="0.824" d="M188.816 190.354L189.650 190.354L190.483 190.354L191.317 190.354L192.150 190.354L192.985 190.354" />
<path fill="none" stroke="#000000" stroke-width="0.824" d="M191.317 190.354L191.317 193.828" />
<path fill="#ffffff" stroke="none" d="M197.153 188.270L192.985 188.270L192.985 190.354L193.819 190.354L194.652 190.354L195.486 190.354L196.319 190.354L197.154 190.354Z" />
<path fill="none" stroke="#000000" stroke-width="0.824" d="M192.985 190.354L193.819 190.354L194.652 190.354L195.486 190.354L196.319 190.354L197.154 190.354" />
<path fill="none" stroke="#000000" stroke-width="0.824" d="M195.486 190.354L195.486 193.828" />
<path fill="#ffffff" stroke="none" d="M201.323 188.270L197.154 188.270L197.154 190.354L197.987 190.354L198.821 190.354L199.654 190.354L200.488 190.354L201.323 190.354Z" />
<path fill="none" stroke="#000000" stroke-width="0.824" d="M197.154 190.354L197.987 190.354L198.821 190.354L199.654 190.354L200.488 190.354L201.323 190.354" />
<path fill="none" stroke="#000000" stroke-width="0.824" d="M199.654 190.354L199.654 193.828" />
<path fill="#ffffff" stroke="none" d="M205.491 188.270L201.323 188.270L201.323 190.354L202.156 190.354L202.990 190.354L203.823 190.354L204.657 190.354L205.491 190.354Z" />
<path fill="none" stroke="#000000" stroke-width="0.824" d="M201.323 190.354L202.156 190.354L202.990 190.354L203.823 190.354L204.657 190.354L205.491 190.354" />
<path fill="none" stroke="#000000" stroke-width="0.824" d="M203.823 190.354L203.823 193.828" />
<path fill="#ffffff" stroke="none" d="M209.660 188.270L205.491 188.270L205.491 190.354L206.325 190.354L207.158 190.354L207.992 190.354L208.825 190.354L209.660 190.354Z" />
<path fill="none" stroke="#000000" stroke-width="0.824" d="M205.491 190.354L206.325 190.354L207.158 190.354L207.992 190.354L208.825 190.354L209.660 190.354" />
<path fill="none" stroke="#000000" stroke-width="0.824" d="M207.992 190.354L207.992 193.828" />
<path fill="#ffffff" stroke="none" d="M213.829 188.270L209.659 188.270L209.659 190.354L210.494 190.354L211.327 190.354L212.161 190.354L212.994 190.354L213.829 190.354Z" />
<path fill="none" stroke="#000000" stroke-width="0.824" d="M209.659 190.354L210.494 190.354L211.327 190.354L212.161 190.354L212.994 190.354L213.829 190.354" />
<path fill="none" stroke="#000000" stroke-width="0.824" d="M212.161 190.354L212.161 193.828" />
<path fill="#ffffff" stroke="none" d="M217.997 188.270L213.828 188.270L213.828 190.354L214.662 190.354L215.496 190.354L216.329 190.354L217.163 190.354L217.998 190.354Z" />
<path fill="none" stroke="#000000" stroke-width="0.824" d="M213.828 190.354L214.662 190.354L215.496 190.354L216.329 190.354L217.163 190.354L217.998 190.354" />
<path fill="none" stroke="#000000" stroke-width="0.824" d="M216.329 190.354L216.329 193.828" />
<path fill="#ffffff" stroke="none" d="M222.166 188.270L217.996 188.270L217.996 190.354L218.831 190.354L219.665 190.354L220.498 190.354L221.332 190.354L222.166 190.354Z" />
<path fill="none" stroke="#000000" stroke-width="0.824" d="M217.996 190.354L218.831 190.354L219.665 190.354L220.498 190.354L221.332 190.354L222.166 190.354" />
<path fill="none" stroke="#000000" stroke-width="0.824" d="M220.498 190.354L220.498 193.828" />
<path fill="#ffffff" stroke="none" d="M226.335 188.270L222.165 188.270L222.165 190.354L223.000 190.354L223.833 190.354L224.667 190.354L225.500 190.354L226.335 190.354Z" />
<path fill="none" stroke="#000000" stroke-width="0.824" d="M222.165 190.354L223.000 190.354L223.833 190.354L224.667 190.354L225.500 190.354L226.335 190.354" />
<path fill="none" stroke="#000000" stroke-width="0.824" d="M224.667 190.354L224.667 193.828" />
<path fill="#ffffff" stroke="none" d="M230.504 188.270L226.334 188.270L226.334 190.354L227.169 190.354L228.002 190.354L228.836 190.354L229.669 190.354L230.504 190.354Z" />
<path fill="none" stroke="#000000" stroke-width="0.824" d="M226.334 190.354L227.169 190.354L228.002 190.354L228.836 190.354L229.669 190.354L230.504 190.354" />
<path fill="none" stroke="#000000" stroke-width="0.824" d="M228.836 190.354L228.836 193.828" />
<path fill="#ffffff" stroke="none" d="M234.673 188.270L230.503 188.270L230.503 190.354L231.337 190.354L232.171 190.354L233.004 190.354L233.838 190.354L234.673 190.354Z" />
<path fill="none" stroke="#000000" stroke-width="0.824" d="M230.503 190.354L231.337 190.354L232.171 190.354L233.004 190.354L233.838 190.354L234.673 190.354" />
<path fill="none" stroke="#000000" stroke-width="0.824" d="M233.004 190.354L233.004 193.828" />
<path fill="#ffffff" stroke="none" d="M238.841 188.270L234.671 188.270L234.671 190.354L235.506 190.354L236.340 190.354L237.173 190.354L238.007 190.354L238.841 190.354Z" />
<path fill="none" stroke="#000000" stroke-width="0.824" d="M234.671 190.354L235.506 190.354L236.340 190.354L237.173 190.354L238.007 190.354L238.841 190.354" />
<path fill="none" stroke="#000000" stroke-width="0.824" d="M237.173 190.354L237.173 193.828" />
<path fill="#ffffff" stroke="none" d="M243.010 188.270L238.840 188.270L238.840 190.354L239.675 190.354L240.508 190.354L241.342 190.354L242.175 190.354L243.010 190.354Z" />
<path fill="none" stroke="#000000" stroke-width="0.824" d="M238.840 190.354L239.675 190.354L240.508 190.354L241.342 190.354L242.175 190.354L243.010 190.354" />
<path fill="none" stroke="#000000" stroke-width="0.824" d="M241.342 190.354L241.342 193.828" />
<path fill="none" stroke="#000000" stroke-width="1.647" d="M176.310 188.270L243.010 188.270" />
<path fill="#ffffff" stroke="none" d="M17.906 188.270L9.570 188.270L9.570 192.438C9.586 191.445 10.271 190.588 11.237 190.354C11.782 190.222 12.346 190.318 12.904 190.354C13.459 190.390 14.015 190.364 14.572 190.354C15.127 190.344 15.683 190.351 16.238 190.354C16.794 190.357 17.350 190.357 17.906 190.354Z" />
<path fill="none" stroke="#000000" stroke-width="0.824" d="M9.570 190.354L11.237 190.354L12.904 190.354L14.572 190.354L16.238 190.354L17.906 190.354" />
<path fill="#000000" stroke="#000000" stroke-width="0.824" d="M12.904 190.354L14.572 194.522L16.238 190.354L14.572 190.354Z" />
<path fill="none" stroke="#000000" stroke-width="0.824" d="M12.904 190.354L14.572 194.522L16.238 190.354" />
<path fill="#ffffff" stroke="none" d="M26.242 188.270L17.906 188.270L17.906 192.438C17.922 191.445 18.608 190.588 19.573 190.354C20.118 190.222 20.682 190.318 21.240 190.354C21.795 190.390 22.352 190.364 22.908 190.354C23.463 190.344 24.019 190.351 24.575 190.354C25.131 190.357 25.687 190.357 26.242 190.354Z" />
<path fill="none" stroke="#000000" stroke-width="0.824" d="M17.906 190.354L19.573 190.354L21.240 190.354L22.908 190.354L24.575 190.354L26.242 190.354" />
<path fill="#000000" stroke="#000000" stroke-width="0.824" d="M21.240 190.354L22.908 194.522L24.575 190.354L22.908 190.354Z" />
<path fill="none" stroke="#000000" stroke-width="0.824" d="M21.240 190.354L22.908 194.522L24.575 190.354" />
<path fill="#ffffff" stroke="none" d="M34.579 188.270L26.242 188.270L26.242 192.438C26.258 191.445 26.944 190.588 27.909 190.354C28.454 190.222 29.018 190.318 29.576 190.354C30.131 190.390 30.688 190.364 31.244 190.354C31.800 190.344 32.355 190.351 32.911 190.354C33.467 190.357 34.023 190.357 34.579 190.354Z" />
<path fill="none" stroke="#000000" stroke-width="0.824" d="M26.242 190.354L27.909 190.354L29.576 190.354L31.244 190.354L32.911 190.354L34.579 190.354" />
<path fill="#000000" stroke="#000000" stroke-width="0.824" d="M29.576 190.354L31.244 194.522L32.911 190.354L31.244 190.354Z" />
<path fill="none" stroke="#000000" stroke-width="0.824" d="M29.576 190.354L31.244 194.522L32.911 190.354" />
<path fill="#ffffff" stroke="none" d="M42.915 188.270L34.579 188.270L34.579 192.438C34.595 191.445 35.280 190.588 36.246 190.354C36.790 190.222 37.354 190.318 37.912 190.354C38.468 190.390 39.024 190.364 39.580 190.354C40.136 190.344 40.692 190.351 41.247 190.354C41.803 190.357 42.359 190.357 42.915 190.354Z" />
<path fill="none" stroke="#000000" stroke-width="0.824" d="M34.579 190.354L36.246 190.354L37.912 190.354L39.580 190.354L41.247 190.354L42.915 190.354" />
<path fill="#000000" stroke="#000000" stroke-width="0.824" d="M37.912 190.354L39.580 194.522L41.247 190.354L39.580 190.354Z" />
<path fill="none" stroke="#000000" stroke-width="0.824" d="M37.912 190.354L39.580 194.522L41.247 190.354" />
<path fill="#ffffff" stroke="none" d="M51.251 188.270L42.915 188.270L42.915 192.438C42.931 191.445 43.616 190.588 44.582 190.354C45.127 190.222 45.691 190.318 46.249 190.354C46.804 190.390 47.360 190.364 47.917 190.354C48.472 190.344 49.028 190.351 49.583 190.354C50.139 190.357 50.695 190.357 51.251 190.354Z" />
<path fill="none" stroke="#000000" stroke-width="0.824" d="M42.915 190.354L44.582 190.354L46.249 190.354L47.917 190.354L49.583 190.354L51.251 190.354" />
<path fill="#000000" stroke="#000000" stroke-width="0.824" d="M46.249 190.354L47.917 194.522L49.583 190.354L47.917 190.354Z" />
<path fill="none" stroke="#000000" stroke-width="0.824" d="M46.249 190.354L47.917 194.522L49.583 190.354" />
<path fill="#ffffff" stroke="none" d="M59.587 188.270L51.251 188.270L51.251 192.438C51.267 191.445 51.953 190.588 52.918 190.354C53.463 190.222 54.027 190.318 54.585 190.354C55.140 190.390 55.697 190.364 56.253 190.354C56.808 190.344 57.364 190.351 57.920 190.354C58.476 190.357 59.032 190.357 59.588 190.354Z" />
<path fill="none" stroke="#000000" stroke-width="0.824" d="M51.251 190.354L52.918 190.354L54.585 190.354L56.253 190.354L57.920 190.354L59.588 190.354" />
<path fill="#000000" stroke="#000000" stroke-width="0.824" d="M54.585 190.354L56.253 194.522L57.920 190.354L56.253 190.354Z" />
<path fill="none" stroke="#000000" stroke-width="0.824" d="M54.585 190.354L56.253 194.522L57.920 190.354" />
<path fill="#ffffff" stroke="none" d="M67.924 188.270L59.588 188.270L59.588 192.438C59.603 191.445 60.289 190.588 61.254 190.354C61.799 190.222 62.363 190.318 62.921 190.354C63.476 190.390 64.033 190.364 64.589 190.354C65.145 190.344 65.700 190.351 66.256 190.354C66.812 190.357 67.368 190.357 67.924 190.354Z" />
<path fill="none" stroke="#000000" stroke-width="0.824" d="M59.588 190.354L61.254 190.354L62.921 190.354L64.589 190.354L66.256 190.354L67.924 190.354" />
<path fill="#000000" stroke="#000000" stroke-width="0.824" d="M62.921 190.354L64.589 194.522L66.256 190.354L64.589 190.354Z" />
<path fill="none" stroke="#000000" stroke-width="0.824" d="M62.921 190.354L64.589 194.522L66.256 190.354" />
<path fill="#ffffff" stroke="none" d="M76.260 188.270L67.924 188.270L67.924 192.438C67.940 191.445 68.625 190.588 69.591 190.354C70.135 190.222 70.699 190.318 71.257 190.354C71.813 190.390 72.369 190.364 72.925 190.354C73.481 190.344 74.037 190.351 74.592 190.354C75.148 190.357 75.704 190.357 76.260 190.354Z" />
<path fill="none" stroke="#000000" stroke-width="0.824" d="M67.924 190.354L69.591 190.354L71.257 190.354L72.925 190.354L74.592 190.354L76.260 190.354" />
<path fill="#000000" stroke="#000000" stroke-width="0.824" d="M71.257 190.354L72.925 194.522L74.592 190.354L72.925 190.354Z" />
<path fill="none" stroke="#000000" stroke-width="0.824" d="M71.257 190.354L72.925 194.522L74.592 190.354" />
<path fill="none" stroke="#000000" stroke-width="1.647" d="M9.570 188.270L76.260 188.270" />
<path fill="none" stroke="#000000" stroke-width="1.647" d="M92.940 188.270L159.630 188.270" />
<path fill="none" stroke="#000000" stroke-width="0.824" d="M94.174 190.329L96.645 190.329L99.116 190.329L101.587 190.329L104.056 190.329L106.527 190.329L108.998 190.329L111.469 190.329L113.938 190.329L116.409 190.329L118.880 190.329L121.351 190.329L123.820 190.329L126.291 190.329L128.762 190.329L131.232 190.329L133.702 190.329L136.173 190.329L138.644 190.329L141.114 190.329L143.584 190.329L146.055 190.329L148.526 190.329L150.996 190.329L153.466 190.329L155.937 190.329L158.408 190.329" />
<path fill="none" stroke="#000000" stroke-width="0.824" d="M96.468 190.329L96.645 190.329L99.116 190.329L101.056 190.329L98.762 194.917Z" />
<path fill="#ffffff" stroke="none" d="M105.645 190.329L106.527 190.329L108.998 190.329L110.233 190.329L107.939 194.917Z" />
<path fill="none" stroke="#000000" stroke-width="0.824" d="M105.645 190.329L106.527 190.329L108.998 190.329L110.233 190.329L107.939 194.917Z" />
<path fill="#ffffff" stroke="none" d="M114.821 190.329L116.409 190.329L118.880 190.329L119.409 190.329L117.115 194.917Z" />
<path fill="none" stroke="#000000" stroke-width="0.824" d="M114.821 190.329L116.409 190.329L118.880 190.329L119.409 190.329L117.115 194.917Z" />
<path fill="#ffffff" stroke="none" d="M123.997 190.329L126.291 190.329L128.585 190.329L126.291 194.917Z" />
<path fill="none" stroke="#000000" stroke-width="0.824" d="M123.997 190.329L126.291 190.329L128.585 190.329L126.291 194.917Z" />
<path fill="#ffffff" stroke="none" d="M133.173 190.329L133.702 190.329L136.173 190.329L137.761 190.329L135.467 194.917Z" />
<path fill="none" stroke="#000000" stroke-width="0.824" d="M133.173 190.329L133.702 190.329L136.173 190.329L137.761 190.329L135.467 194.917Z" />
<path fill="#ffffff" stroke="none" d="M142.350 190.329L143.584 190.329L146.055 190.329L146.938 190.329L144.644 194.917Z" />
<path fill="none" stroke="#000000" stroke-width="0.824" d="M142.350 190.329L143.584 190.329L146.055 190.329L146.938 190.329L144.644 194.917Z" />
<path fill="#ffffff" stroke="none" d="M151.526 190.329L153.466 190.329L155.937 190.329L156.114 190.329L153.820 194.917Z" />
<path fill="none" stroke="#000000" stroke-width="0.824" d="M151.526 190.329L153.466 190.329L155.937 190.329L156.114 190.329L153.820 194.917Z" />
<path fill="none" stroke="#b24c33" stroke-width="0.824" d="M511.498 234.172C511.498 235.819 513.968 235.819 513.968 234.172C513.968 232.525 516.439 232.525 516.439 234.172" />
<path fill="none" stroke="#b24c33" stroke-width="0.824" d="M519.834 234.172C519.834 235.819 522.304 235.819 522.304 234.172C522.304 232.525 524.775 232.525 524.775 234.172" />
<path fill="none" stroke="#b24c33" stroke-width="0.824" d="M528.170 234.172C528.170 235.819 530.641 235.819 530.641 234.172C530.641 232.525 533.111 232.525 533.111 234.172" />
<path fill="none" stroke="#b24c33" stroke-width="0.824" d="M536.506 234.172C536.506 235.819 538.977 235.819 538.977 234.172C538.977 232.525 541.447 232.525 541.447 234.172" />
<path fill="none" stroke="#b24c33" stroke-width="0.824" d="M544.843 234.172C544.843 235.819 547.313 235.819 547.313 234.172C547.313 232.525 549.784 232.525 549.784 234.172" />
<path fill="none" stroke="#b24c33" stroke-width="0.824" d="M553.179 234.172C553.179 235.819 555.649 235.819 555.649 234.172C555.649 232.525 558.120 232.525 558.120 234.172" />
<path fill="none" stroke="#b24c33" stroke-width="0.824" d="M561.515 234.172C561.515 235.819 563.986 235.819 563.986 234.172C563.986 232.525 566.456 232.525 566.456 234.172" />
<path fill="none" stroke="#b24c33" stroke-width="0.824" d="M569.851 234.172C569.851 235.819 572.322 235.819 572.322 234.172C572.322 232.525 574.792 232.525 574.792 234.172" />
<path fill="none" stroke="#b24c33" stroke-width="1.647" d="M509.800 238.290L576.490 238.290" />
<path fill="#ffffff" stroke="none" d="M426.851 238.290C426.711 237.823 426.900 237.328 427.268 237.002C428.355 236.042 429.976 236.789 429.878 238.068C429.783 239.297 428.162 239.805 427.168 238.802C427.025 238.657 426.910 238.485 426.851 238.290Z" />
<path fill="#b24c33" stroke="none" d="M426.851 238.290C426.711 237.823 426.900 237.328 427.268 237.002C428.355 236.042 429.976 236.789 429.878 238.068C429.783 239.297 428.162 239.805 427.168 238.802C427.025 238.657 426.910 238.485 426.851 238.290Z" />
<path fill="#ffffff" stroke="none" d="M430.067 238.290C429.870 237.835 430.419 237.469 431.034 237.354C431.964 237.179 432.932 237.395 432.887 238.133C432.836 238.949 431.735 238.888 430.743 238.659C430.474 238.597 430.175 238.540 430.067 238.290Z" />
<path fill="#b24c33" stroke="none" d="M430.067 238.290C429.870 237.835 430.419 237.469 431.034 237.354C431.964 237.179 432.932 237.395 432.887 238.133C432.836 238.949 431.735 238.888 430.743 238.659C430.474 238.597 430.175 238.540 430.067 238.290Z" />
<path fill="#ffffff" stroke="none" d="M433.247 238.290C433.232 238.012 433.559 237.909 433.844 237.817C435.163 237.391 436.537 237.291 436.263 238.196C436.038 238.942 435.082 238.367 434.405 238.476C433.884 238.561 433.272 238.746 433.247 238.290Z" />
<path fill="#b24c33" stroke="none" d="M433.247 238.290C433.232 238.012 433.559 237.909 433.844 237.817C435.163 237.391 436.537 237.291 436.263 238.196C436.038 238.942 435.082 238.367 434.405 238.476C433.884 238.561 433.272 238.746 433.247 238.290Z" />
<path fill="#ffffff" stroke="none" d="M436.800 238.290C436.667 237.898 436.787 237.470 437.071 237.167C438.026 236.146 439.644 236.858 439.513 238.098C439.399 239.177 437.983 239.602 437.097 238.742C436.966 238.615 436.859 238.463 436.800 238.290Z" />
<path fill="#b24c33" stroke="none" d="M436.800 238.290C436.667 237.898 436.787 237.470 437.071 237.167C438.026 236.146 439.644 236.858 439.513 238.098C439.399 239.177 437.983 239.602 437.097 238.742C436.966 238.615 436.859 238.463 436.800 238.290Z" />
<path fill="#ffffff" stroke="none" d="M440.045 238.290C439.925 237.964 440.178 237.648 440.480 237.435C441.604 236.641 442.881 237.258 442.685 238.130C442.538 238.784 441.698 238.788 440.953 238.715C440.583 238.679 440.170 238.627 440.045 238.290Z" />
<path fill="#b24c33" stroke="none" d="M440.045 238.290C439.925 237.964 440.178 237.648 440.480 237.435C441.604 236.641 442.881 237.258 442.685 238.130C442.538 238.784 441.698 238.788 440.953 238.715C440.583 238.679 440.170 238.627 440.045 238.290Z" />
<path fill="#ffffff" stroke="none" d="M443.327 238.290C443.202 237.958 443.596 237.725 443.995 237.594C445.111 237.230 446.244 237.386 446.096 238.167C445.950 238.939 444.939 238.544 444.136 238.536C443.813 238.533 443.436 238.579 443.327 238.290Z" />
<path fill="#b24c33" stroke="none" d="M443.327 238.290C443.202 237.958 443.596 237.725 443.995 237.594C445.111 237.230 446.244 237.386 446.096 238.167C445.950 238.939 444.939 238.544 444.136 238.536C443.813 238.533 443.436 238.579 443.327 238.290Z" />
<path fill="#ffffff" stroke="none" d="M446.645 238.290C446.603 237.982 446.918 237.792 447.211 237.644C448.440 237.020 449.617 237.432 449.356 238.179C449.177 238.691 448.503 238.532 447.961 238.590C447.387 238.652 446.715 238.797 446.645 238.290Z" />
<path fill="#b24c33" stroke="none" d="M446.645 238.290C446.603 237.982 446.918 237.792 447.211 237.644C448.440 237.020 449.617 237.432 449.356 238.179C449.177 238.691 448.503 238.532 447.961 238.590C447.387 238.652 446.715 238.797 446.645 238.290Z" />
<path fill="#ffffff" stroke="none" d="M450.148 238.290C450.028 237.815 450.370 237.372 450.828 237.143C451.812 236.651 452.943 237.174 452.923 238.103C452.899 239.146 451.503 239.626 450.505 238.799C450.341 238.663 450.200 238.496 450.148 238.290Z" />
<path fill="#b24c33" stroke="none" d="M450.148 238.290C450.028 237.815 450.370 237.372 450.828 237.143C451.812 236.651 452.943 237.174 452.923 238.103C452.899 239.146 451.503 239.626 450.505 238.799C450.341 238.663 450.200 238.496 450.148 238.290Z" />
<path fill="#ffffff" stroke="none" d="M453.583 238.290C453.818 237.824 453.733 237.220 454.103 236.840C454.830 236.092 456.185 236.713 456.356 238.028C456.757 241.113 452.908 240.743 453.254 238.925C453.300 238.688 453.475 238.504 453.583 238.290Z" />
<path fill="#b24c33" stroke="none" d="M453.583 238.290C453.818 237.824 453.733 237.220 454.103 236.840C454.830 236.092 456.185 236.713 456.356 238.028C456.757 241.113 452.908 240.743 453.254 238.925C453.300 238.688 453.475 238.504 453.583 238.290Z" />
<path fill="#ffffff" stroke="none" d="M456.792 238.290C456.619 237.809 457.090 237.378 457.655 237.221C458.512 236.984 459.384 237.363 459.324 238.070C459.267 238.742 458.426 238.922 457.642 238.789C457.288 238.730 456.911 238.620 456.792 238.290Z" />
<path fill="#b24c33" stroke="none" d="M456.792 238.290C456.619 237.809 457.090 237.378 457.655 237.221C458.512 236.984 459.384 237.363 459.324 238.070C459.267 238.742 458.426 238.922 457.642 238.789C457.288 238.730 456.911 238.620 456.792 238.290Z" />
<path fill="#ffffff" stroke="none" d="M459.936 238.290C459.921 237.909 460.416 237.865 460.830 237.791C461.818 237.617 462.913 237.461 462.726 238.204C462.582 238.776 461.836 238.443 461.278 238.502C460.684 238.564 459.959 238.834 459.936 238.290Z" />
<path fill="#b24c33" stroke="none" d="M459.936 238.290C459.921 237.909 460.416 237.865 460.830 237.791C461.818 237.617 462.913 237.461 462.726 238.204C462.582 238.776 461.836 238.443 461.278 238.502C460.684 238.564 459.959 238.834 459.936 238.290Z" />
<path fill="#ffffff" stroke="none" d="M463.600 238.290C463.807 237.804 463.699 237.194 464.074 236.807C464.795 236.061 466.155 236.697 466.273 238.022C466.521 240.798 463.141 240.482 463.362 238.853C463.390 238.649 463.519 238.479 463.600 238.290Z" />
<path fill="#b24c33" stroke="none" d="M463.600 238.290C463.807 237.804 463.699 237.194 464.074 236.807C464.795 236.061 466.155 236.697 466.273 238.022C466.521 240.798 463.141 240.482 463.362 238.853C463.390 238.649 463.519 238.479 463.600 238.290Z" />
<path fill="#ffffff" stroke="none" d="M466.841 238.290C466.727 237.884 466.755 237.447 466.972 237.086C467.911 235.527 470.285 236.322 470.101 238.092C469.947 239.581 467.965 240.070 467.062 238.768C466.961 238.623 466.889 238.460 466.841 238.290Z" />
<path fill="#b24c33" stroke="none" d="M466.841 238.290C466.727 237.884 466.755 237.447 466.972 237.086C467.911 235.527 470.285 236.322 470.101 238.092C469.947 239.581 467.965 240.070 467.062 238.768C466.961 238.623 466.889 238.460 466.841 238.290Z" />
<path fill="#ffffff" stroke="none" d="M470.047 238.290C469.888 237.927 470.304 237.630 470.750 237.474C471.864 237.083 472.985 237.349 472.840 238.133C472.699 238.896 471.694 238.607 470.863 238.566C470.543 238.551 470.172 238.575 470.047 238.290Z" />
<path fill="#b24c33" stroke="none" d="M470.047 238.290C469.888 237.927 470.304 237.630 470.750 237.474C471.864 237.083 472.985 237.349 472.840 238.133C472.699 238.896 471.694 238.607 470.863 238.566C470.543 238.551 470.172 238.575 470.047 238.290Z" />
<path fill="#ffffff" stroke="none" d="M473.434 238.290C473.265 237.846 473.739 237.472 474.278 237.319C475.250 237.042 476.247 237.378 476.179 238.145C476.108 238.933 475.059 238.984 474.107 238.719C473.833 238.643 473.535 238.553 473.434 238.290Z" />
<path fill="#b24c33" stroke="none" d="M473.434 238.290C473.265 237.846 473.739 237.472 474.278 237.319C475.250 237.042 476.247 237.378 476.179 238.145C476.108 238.933 475.059 238.984 474.107 238.719C473.833 238.643 473.535 238.553 473.434 238.290Z" />
<path fill="#ffffff" stroke="none" d="M476.818 238.290C476.583 237.948 476.738 237.499 477.027 237.172C478.306 235.725 480.298 236.756 479.958 238.089C479.714 239.047 478.439 239.081 477.337 238.634C477.140 238.554 476.938 238.465 476.818 238.290Z" />
<path fill="#b24c33" stroke="none" d="M476.818 238.290C476.583 237.948 476.738 237.499 477.027 237.172C478.306 235.725 480.298 236.756 479.958 238.089C479.714 239.047 478.439 239.081 477.337 238.634C477.140 238.554 476.938 238.465 476.818 238.290Z" />
<path fill="#ffffff" stroke="none" d="M480.135 238.290C479.959 237.873 480.294 237.448 480.734 237.225C481.743 236.714 482.860 237.234 482.770 238.104C482.684 238.936 481.587 239.163 480.633 238.716C480.428 238.619 480.223 238.498 480.135 238.290Z" />
<path fill="#b24c33" stroke="none" d="M480.135 238.290C479.959 237.873 480.294 237.448 480.734 237.225C481.743 236.714 482.860 237.234 482.770 238.104C482.684 238.936 481.587 239.163 480.633 238.716C480.428 238.619 480.223 238.498 480.135 238.290Z" />
<path fill="#ffffff" stroke="none" d="M483.465 238.290C483.256 237.906 483.572 237.476 484.000 237.239C485.087 236.638 486.281 237.214 486.135 238.103C486.003 238.906 484.940 238.978 483.997 238.644C483.789 238.570 483.570 238.484 483.465 238.290Z" />
<path fill="#b24c33" stroke="none" d="M483.465 238.290C483.256 237.906 483.572 237.476 484.000 237.239C485.087 236.638 486.281 237.214 486.135 238.103C486.003 238.906 484.940 238.978 483.997 238.644C483.789 238.570 483.570 238.484 483.465 238.290Z" />
<path fill="#ffffff" stroke="none" d="M486.740 238.290C486.593 237.986 486.813 237.658 487.087 237.426C488.366 236.340 489.933 237.090 489.698 238.121C489.508 238.951 488.415 238.844 487.452 238.654C487.172 238.599 486.863 238.544 486.740 238.290Z" />
<path fill="#b24c33" stroke="none" d="M486.740 238.290C486.593 237.986 486.813 237.658 487.087 237.426C488.366 236.340 489.933 237.090 489.698 238.121C489.508 238.951 488.415 238.844 487.452 238.654C487.172 238.599 486.863 238.544 486.740 238.290Z" />
<path fill="#ffffff" stroke="none" d="M490.197 238.290C490.007 237.879 490.149 237.405 490.453 237.060C491.617 235.743 493.593 236.641 493.366 238.078C493.190 239.198 491.705 239.564 490.608 238.754C490.439 238.629 490.285 238.481 490.197 238.290Z" />
<path fill="#b24c33" stroke="none" d="M490.197 238.290C490.007 237.879 490.149 237.405 490.453 237.060C491.617 235.743 493.593 236.641 493.366 238.078C493.190 239.198 491.705 239.564 490.608 238.754C490.439 238.629 490.285 238.481 490.197 238.290Z" />
<path fill="none" stroke="#d87219" stroke-width="0.824" d="M345.602 233.349L346.837 234.996L348.072 233.349" />
<path fill="none" stroke="#d87219" stroke-width="0.824" d="M349.308 233.349L350.543 234.996L351.778 233.349" />
<path fill="none" stroke="#d87219" stroke-width="0.824" d="M358.942 233.349L360.177 234.996L361.412 233.349" />
<path fill="none" stroke="#d87219" stroke-width="0.824" d="M362.648 233.349L363.883 234.996L365.118 233.349" />
<path fill="none" stroke="#d87219" stroke-width="0.824" d="M372.282 233.349L373.518 234.996L374.753 233.349" />
<path fill="none" stroke="#d87219" stroke-width="0.824" d="M375.988 233.349L377.224 234.996L378.459 233.349" />
<path fill="none" stroke="#d87219" stroke-width="0.824" d="M385.622 233.349L386.857 234.996L388.093 233.349" />
<path fill="none" stroke="#d87219" stroke-width="0.824" d="M389.328 233.349L390.563 234.996L391.799 233.349" />
<path fill="none" stroke="#d87219" stroke-width="0.824" d="M398.962 233.349L400.197 234.996L401.432 233.349" />
<path fill="none" stroke="#d87219" stroke-width="0.824" d="M402.668 233.349L403.903 234.996L405.138 233.349" />
<path fill="none" stroke="#ff7f19" stroke-width="1.647" d="M343.050 238.290L409.750 238.290" />
<path fill="none" stroke="#00b2e5" stroke-width="0.824" d="M262.458 233.349L268.017 233.349" />
<path fill="none" stroke="#00b2e5" stroke-width="0.824" d="M273.575 230.878L273.575 234.996" />
<path fill="none" stroke="#00b2e5" stroke-width="0.824" d="M279.133 233.349L284.693 233.349" />
<path fill="none" stroke="#00b2e5" stroke-width="0.824" d="M290.250 230.878L290.250 234.996" />
<path fill="none" stroke="#00b2e5" stroke-width="0.824" d="M295.808 233.349L301.368 233.349" />
<path fill="none" stroke="#00b2e5" stroke-width="0.824" d="M306.925 230.878L306.925 234.996" />
<path fill="none" stroke="#00b2e5" stroke-width="0.824" d="M312.483 233.349L318.042 233.349" />
<path fill="none" stroke="#00b2e5" stroke-width="0.824" d="M323.601 230.878L323.601 234.996" />
<path fill="none" stroke="#00b2e5" stroke-width="1.647" d="M259.680 238.290L326.380 238.290" />
<path fill="none" stroke="#4c4c4c" stroke-width="0.824" d="M175.758 235.187C175.738 236.368 176.869 237.757 177.382 238.114C178.779 238.662 182.007 238.049 183.349 237.664C184.772 236.948 183.769 235.913 184.312 234.443" />
<path fill="none" stroke="#4c4c4c" stroke-width="0.824" d="M183.314 235.919C184.230 236.627 184.782 236.800 185.129 238.128C187.157 238.882 189.251 238.198 192.499 237.875C192.177 237.859 192.897 235.870 193.153 234.520" />
<path fill="none" stroke="#4c4c4c" stroke-width="0.824" d="M191.915 235.743C192.156 236.141 193.838 237.225 193.279 238.633C195.944 238.753 198.879 237.904 200.163 238.925C201.274 237.900 200.780 235.760 201.766 234.963" />
<path fill="none" stroke="#4c4c4c" stroke-width="0.824" d="M200.779 236.005C201.515 235.832 201.349 237.640 202.803 238.508C205.012 238.195 206.588 238.616 208.240 237.671C209.521 236.548 208.956 236.435 210.231 234.881" />
<path fill="none" stroke="#4c4c4c" stroke-width="0.824" d="M208.570 235.333C209.181 236.596 209.830 237.720 211.035 238.323C212.358 238.817 215.167 238.548 217.146 237.729C217.866 236.978 217.375 235.748 217.625 234.825" />
<path fill="none" stroke="#4c4c4c" stroke-width="0.824" d="M217.021 236.020C217.840 235.963 218.331 237.984 219.409 238.324C220.994 237.970 223.330 237.918 226.130 238.191C225.500 237.835 226.472 236.194 226.033 234.660" />
<path fill="none" stroke="#4c4c4c" stroke-width="0.824" d="M225.101 234.923C225.263 236.737 226.980 237.290 226.969 238.041C228.983 238.875 232.165 238.089 233.662 238.900C233.838 237.819 233.965 236.230 234.324 235.401" />
<path fill="none" stroke="#4c4c4c" stroke-width="0.824" d="M233.446 235.854C234.617 236.617 235.450 238.007 235.125 238.199C237.685 237.690 239.791 238.639 242.651 238.803C241.914 237.679 242.500 236.798 242.399 235.170" />
<path fill="none" stroke="#000000" stroke-width="1.647" stroke-dasharray="14.118,14.118" stroke-dashoffset="0.000" d="M92.940 238.290L159.630 238.290" />
<path fill="none" stroke="#000000" stroke-width="1.647" d="M9.570 238.290L76.260 238.290" />
<path fill="#8dd2c7" stroke="none" d="M454.417 370.497C451.461 373.453 451.461 378.247 454.417 381.203C457.373 384.159 462.167 384.159 465.123 381.203C468.079 378.247 468.079 373.453 465.123 370.497C462.167 367.541 457.373 367.541 454.417 370.497Z" />
<path fill="none" stroke="#000000" stroke-width="0.824" d="M454.417 370.497C451.461 373.453 451.461 378.247 454.417 381.203C457.373 384.159 462.167 384.159 465.123 381.203C468.079 378.247 468.079 373.453 465.123 370.497C462.167 367.541 457.373 367.541 454.417 370.497Z" />
<path fill="#000000" stroke="none" d="M457.299 373.379C455.935 374.744 455.935 376.956 457.299 378.321C458.664 379.685 460.876 379.685 462.241 378.321C463.605 376.956 463.605 374.744 462.241 373.379C460.876 372.015 458.664 372.015 457.299 373.379Z" />
<path fill="none" stroke="#000000" stroke-width="0.824" d="M459.770 368.850L459.770 382.850" />
<path fill="none" stroke="#000000" stroke-width="0.824" d="M452.770 375.850L466.770 375.850" />
<path fill="none" stroke="#000000" stroke-width="0.824" d="M371.459 370.909L371.459 380.791L381.341 380.791L381.341 370.909Z" />
<path fill="#000000" stroke="none" d="M373.106 372.556L373.106 379.144L379.694 379.144L379.694 372.556Z" />
<path fill="none" stroke="#ff7f19" stroke-width="0.824" d="M289.736 372.556C287.917 374.375 287.917 377.325 289.736 379.144C291.555 380.963 294.505 380.963 296.324 379.144C298.143 377.325 298.143 374.375 296.324 372.556C294.505 370.737 291.555 370.737 289.736 372.556Z" />
<path fill="#ff7f19" stroke="none" d="M291.383 374.203C290.473 375.113 290.473 376.587 291.383 377.497C292.293 378.407 293.767 378.407 294.677 377.497C295.587 376.587 295.587 375.113 294.677 374.203C293.767 373.293 292.293 373.293 291.383 374.203Z" />
<path fill="none" stroke="#d87219" stroke-width="0.824" d="M207.190 382.438L209.660 378.320L212.130 382.438" />
<path fill="none" stroke="#d87219" stroke-width="0.824" d="M209.660 378.320L209.660 375.850C208.597 375.850 207.684 375.070 207.684 374.038C207.684 373.006 208.597 372.226 209.660 372.226L209.660 369.262" />
<path fill="none" stroke="#00b2e5" stroke-width="0.824" d="M92.940 375.850L142.960 375.850" />
<path fill="#00b2e5" stroke="none" d="M115.974 377.168L117.950 377.826L119.926 377.168L117.950 380.791Z" />
<path fill="#ffffff" stroke="none" d="M115.974 377.168L117.950 377.826L119.926 377.168L119.926 371.238L115.974 371.238Z" />
<path fill="none" stroke="#00b2e5" stroke-width="0.576" d="M117.950 371.238L117.950 378.320" />
<path fill="none" stroke="#000000" stroke-width="0.824" d="M9.570 375.850L59.590 375.850" />
<path fill="#000000" stroke="none" d="M32.604 377.168L34.580 377.826L36.556 377.168L34.580 380.791Z" />
<path fill="#ffffff" stroke="none" d="M32.604 377.168L34.580 377.826L36.556 377.168L36.556 371.238L32.604 371.238Z" />
<path fill="none" stroke="#000000" stroke-width="0.576" d="M34.580 371.238L34.580 378.320" />
<path fill="none" stroke="#d87219" stroke-width="0.824" d="M543.150 432.468L543.150 419.292" />
<path fill="none" stroke="#d87219" stroke-width="0.824" d="M539.856 432.468C539.856 432.468 539.856 427.528 539.856 427.527C539.856 426.757 540.680 426.355 541.503 426.209C541.503 426.209 543.150 425.880 543.150 425.880" />
<path fill="none" stroke="#d87219" stroke-width="0.824" d="M546.444 419.292C546.444 419.292 546.444 424.232 546.444 424.233C546.444 425.003 545.620 425.405 544.797 425.551C544.797 425.551 543.150 425.880 543.150 425.880" />
<path fill="none" stroke="#0019b2" stroke-width="0.576" d="M459.770 425.880L459.770 428.351" />
<path fill="none" stroke="#0019b2" stroke-width="0.576" d="M459.770 430.821L459.770 433.292" />
<path fill="none" stroke="#0019b2" stroke-width="0.576" d="M459.770 423.410L459.770 420.939" />
<path fill="#0019b2" stroke="none" d="M456.805 423.410L459.770 418.468L462.735 423.410L459.770 422.256Z" />
<path fill="none" stroke="#00b2e5" stroke-width="0.576" d="M376.400 425.880L378.047 425.880" />
<path fill="none" stroke="#00b2e5" stroke-width="0.576" d="M376.400 425.880L377.224 427.306" />
<path fill="none" stroke="#00b2e5" stroke-width="0.576" d="M376.400 425.880L375.576 427.306" />
<path fill="none" stroke="#00b2e5" stroke-width="0.576" d="M376.400 425.880L374.753 425.880" />
<path fill="none" stroke="#00b2e5" stroke-width="0.576" d="M376.400 425.880L375.576 424.454" />
<path fill="none" stroke="#00b2e5" stroke-width="0.576" d="M376.400 425.880L377.224 424.454" />
<path fill="#000000" stroke="none" d="M287.183 428.219L298.877 425.880L287.183 423.541Z" />
<path fill="#000000" stroke="none" d="M210.978 427.856L211.636 425.880L210.978 423.904L214.601 425.880Z" />
<path fill="none" stroke="#000000" stroke-width="0.576" d="M203.895 427.527L205.048 425.880L203.895 424.233" />
<path fill="none" stroke="#000000" stroke-width="0.576" d="M205.542 427.527L206.695 425.880L205.542 424.233" />
<path fill="none" stroke="#000000" stroke-width="0.576" d="M205.048 425.880L212.130 425.880" />
<path fill="none" stroke="#0019b2" stroke-width="0.824" d="M126.290 434.115C126.290 432.751 128.592 432.282 128.266 430.821C127.843 428.926 123.875 430.691 123.820 428.351C123.760 425.810 127.911 427.713 128.431 425.880C129.015 423.824 125.756 423.985 124.972 422.586C124.018 420.883 126.290 419.398 126.290 417.645" />
<path fill="none" stroke="#0019b2" stroke-width="0.824" d="M123.898 422.995C123.535 422.589 123.237 422.168 123.182 421.706C122.952 419.767 125.619 419.264 126.290 417.645C126.961 419.264 125.430 421.506 126.964 422.714C127.330 423.002 127.838 423.089 128.382 423.119Z" />
<path fill="#0019b2" stroke="none" d="M123.898 422.995C123.535 422.589 123.237 422.168 123.182 421.706C122.952 419.767 125.619 419.264 126.290 417.645C126.961 419.264 125.430 421.506 126.964 422.714C127.330 423.002 127.838 423.089 128.382 423.119Z" />
<path fill="none" stroke="#000000" stroke-width="0.576" d="M41.263 427.527L39.516 429.274" />
<path fill="none" stroke="#000000" stroke-width="0.576" d="M41.263 424.233L39.516 422.486" />
<path fill="none" stroke="#000000" stroke-width="0.576" d="M44.557 424.233L46.304 422.486" />
<path fill="none" stroke="#000000" stroke-width="0.576" d="M44.557 427.527L46.304 429.274" />
<path fill="none" stroke="#000000" stroke-width="0.576" d="M41.263 424.233C40.353 425.143 40.353 426.617 41.263 427.527C42.173 428.437 43.647 428.437 44.557 427.527C45.467 426.617 45.467 425.143 44.557 424.233C43.647 423.323 42.173 423.323 41.263 424.233Z" />
<path fill="none" stroke="#d87219" stroke-width="0.824" d="M534.915 479.194L551.385 479.194" />
<path fill="none" stroke="#d87219" stroke-width="0.576" d="M536.562 479.194L536.562 475.900" />
<path fill="none" stroke="#d87219" stroke-width="0.576" d="M541.174 479.194L541.174 471.782" />
<path fill="none" stroke="#d87219" stroke-width="0.576" d="M543.479 479.194L543.479 474.253" />
<path fill="none" stroke="#d87219" stroke-width="0.576" d="M546.938 479.194L546.938 472.771" />
<path fill="none" stroke="#d87219" stroke-width="0.576" d="M548.915 479.194L548.915 473.429" />
<path fill="none" stroke="#ff7f19" stroke-width="0.824" d="M458.123 474.253C457.213 475.163 457.213 476.637 458.123 477.547C459.033 478.457 460.507 478.457 461.417 477.547C462.327 476.637 462.327 475.163 461.417 474.253C460.507 473.343 459.033 473.343 458.123 474.253Z" />
<g>
<text font-family="thss00" font-size="18.753" fill="black" stroke="none" transform="matrix(1.000 0.000 0.000 -1.000 1155.898 611.657)">&#x0;&#x0;&#x0;&#x77;&#x0;&#x0;&#x72;&#x74;&#x65;&#x72;</text>
</g>
<path fill="#ff7f19" stroke="none" d="M374.753 474.253C373.843 475.163 373.843 476.637 374.753 477.547C375.663 478.457 377.137 478.457 378.047 477.547C378.957 476.637 378.957 475.163 378.047 474.253C377.137 473.343 375.663 473.343 374.753 474.253Z" />
<path fill="none" stroke="#4cb23f" stroke-width="0.824" d="M295.500 477.547L293.030 472.606L293.030 480.018" />
<path fill="none" stroke="#4cb23f" stroke-width="0.824" d="M295.171 472.606L293.030 472.606L290.230 478.865" />
<path fill="#ffffff" stroke="none" d="M206.366 472.606L212.954 472.606L212.954 479.194L212.954 472.606Z" />
<path fill="none" stroke="#b24c33" stroke-width="0.576" d="M208.389 474.558L207.190 473.429" />
<path fill="none" stroke="#b24c33" stroke-width="0.576" d="M207.595 478.097L206.366 479.194" />
<path fill="none" stroke="#b24c33" stroke-width="0.576" d="M208.802 476.730L207.190 476.394" />
<path fill="none" stroke="#b24c33" stroke-width="0.576" d="M210.439 476.425L209.660 477.876" />
<path fill="none" stroke="#b24c33" stroke-width="0.576" d="M211.918 480.394L211.307 478.865" />
<path fill="none" stroke="#b24c33" stroke-width="0.576" d="M213.882 475.824L212.625 476.888" />
<path fill="none" stroke="#b24c33" stroke-width="0.576" d="M211.907 474.094L210.484 473.265" />
<path fill="none" stroke="#b24c33" stroke-width="0.576" d="M210.169 481.161L209.989 479.524" />
<path fill="none" stroke="#b20000" stroke-width="0.576" d="M1.230 492.580L1.230 492.580" />
<path fill="none" stroke="#b20000" stroke-width="0.576" d="M1.230 659.320L1.230 659.320" />
<path fill="#ffffff" stroke="none" d="M125.466 475.076C125.012 475.531 125.012 476.269 125.466 476.724C125.921 477.178 126.659 477.178 127.114 476.724C127.568 476.269 127.568 475.531 127.114 475.076C126.659 474.622 125.921 474.622 125.466 475.076Z" />
<path fill="#b20000" stroke="none" d="M125.466 475.076C125.012 475.531 125.012 476.269 125.466 476.724C125.921 477.178 126.659 477.178 127.114 476.724C127.568 476.269 127.568 475.531 127.114 475.076C126.659 474.622 125.921 474.622 125.466 475.076Z" />
<path fill="#ffffff" stroke="none" d="M42.086 475.076C41.632 475.531 41.632 476.269 42.086 476.724C42.541 477.178 43.279 477.178 43.734 476.724C44.188 476.269 44.188 475.531 43.734 475.076C43.279 474.622 42.541 474.622 42.086 475.076Z" />
<path fill="none" stroke="#b20000" stroke-width="0.576" d="M42.086 475.076C41.632 475.531 41.632 476.269 42.086 476.724C42.541 477.178 43.279 477.178 43.734 476.724C44.188 476.269 44.188 475.531 43.734 475.076C43.279 474.622 42.541 474.622 42.086 475.076Z" />
</g>
<g id="X_aaaaaaa_../../outputs/symbology.svg">
<text font-family="thss00" font-size="9.377" fill="black" stroke="none" transform="matrix(1.000 0.000 -0.000 -1.000 334.050 12.036)">&#x75;&#x3a;&#x73;&#x6d;&#x61;&#x6c;&#x6c;&#x62;&#x6c;&#x6f;&#x63;&#x6b;&#x73;</text>
<text font-family="thss00" font-size="9.377" fill="black" stroke="none" transform="matrix(1.000 0.000 -0.000 -1.000 393.000 12.036)">&#x4d;&#x59;</text>
<text font-family="thss00" font-size="9.377" fill="black" stroke="none" transform="matrix(1.000 0.000 -0.000 -1.000 334.050 0.784)">&#x2d;&#x61;&#x74;&#x74;&#x72;</text>
<text font-family="thss00" font-size="9.377" fill="black" stroke="none" transform="matrix(1.000 0.000 -0.000 -1.000 353.356 0.784)">&#x73;&#x63;&#x61;&#x6c;&#x65;</text>
<text font-family="thss00" font-size="9.377" fill="black" stroke="none" transform="matrix(1.000 0.000 -0.000 -1.000 377.876 0.784)">&#x30;&#x2e;&#x37;</text>
<text font-family="thss00" font-size="9.377" fill="black" stroke="none" transform="matrix(1.000 0.000 -0.000 -1.000 500.800 12.036)">&#x75;&#x3a;&#x73;&#x6d;&#x61;&#x6c;&#x6c;&#x62;&#x6c;&#x6f;&#x63;&#x6b;&#x73;</text>
<text font-family="thss00" font-size="9.377" fill="black" stroke="none" transform="matrix(1.000 0.000 -0.000 -1.000 559.750 12.036)">&#x4d;&#x59;</text>
<text font-family="thss00" font-size="9.377" fill="black" stroke="none" transform="matrix(1.000 0.000 -0.000 -1.000 500.800 0.784)">&#x2d;&#x61;&#x74;&#x74;&#x72;</text>
<text font-family="thss00" font-size="9.377" fill="black" stroke="none" transform="matrix(1.000 0.000 -0.000 -1.000 520.106 0.784)">&#x73;&#x63;&#x61;&#x6c;&#x65;</text>
<text font-family="thss00" font-size="9.377" fill="black" stroke="none" transform="matrix(1.000 0.000 -0.000 -1.000 544.626 0.784)">&#x31;&#x2e;&#x35;</text>
<text font-family="thss00" font-size="9.377" fill="black" stroke="none" transform="matrix(1.000 0.000 -0.000 -1.000 417.420 12.036)">&#x75;&#x3a;&#x73;&#x6d;&#x61;&#x6c;&#x6c;&#x62;&#x6c;&#x6f;&#x63;&#x6b;&#x73;</text>
<text font-family="thss00" font-size="9.377" fill="black" stroke="none" transform="matrix(1.000 0.000 -0.000 -1.000 476.370 12.036)">&#x4d;&#x59;</text>
<text font-family="thss00" font-size="9.377" fill="black" stroke="none" transform="matrix(1.000 0.000 -0.000 -1.000 417.420 0.784)">&#x2d;&#x61;&#x74;&#x74;&#x72;</text>
<text font-family="thss00" font-size="9.377" fill="black" stroke="none" transform="matrix(1.000 0.000 -0.000 -1.000 436.726 0.784)">&#x73;&#x63;&#x61;&#x6c;&#x65;</text>
<text font-family="thss00" font-size="9.377" fill="black" stroke="none" transform="matrix(1.000 0.000 -0.000 -1.000 461.246 0.784)">&#x31;</text>
<text font-family="thss00" font-size="9.377" fill="black" stroke="none" transform="matrix(1.000 0.000 -0.000 -1.000 250.680 0.784)">&#x69;&#x63;&#x65;</text>
<text font-family="thss00" font-size="9.377" fill="black" stroke="none" transform="matrix(1.000 0.000 -0.000 -1.000 167.310 2.640)">&#x63;&#x6c;&#x61;&#x79;</text>
<text font-family="thss00" font-size="9.377" fill="black" stroke="none" transform="matrix(1.000 0.000 -0.000 -1.000 83.940 0.784)">&#x77;&#x61;&#x74;&#x65;&#x72;</text>
<text font-family="thss00" font-size="9.377" fill="black" stroke="none" transform="matrix(1.000 0.000 -0.000 -1.000 0.570 0.784)">&#x73;&#x6e;&#x6f;&#x77;</text>
<text font-family="thss00" font-size="9.377" fill="black" stroke="none" transform="matrix(1.000 0.000 -0.000 -1.000 500.800 134.184)">&#x75;&#x3a;&#x77;&#x61;&#x6c;&#x6c;</text>
<text font-family="thss00" font-size="9.377" fill="black" stroke="none" transform="matrix(1.000 0.000 -0.000 -1.000 527.420 134.184)">&#xfb02;&#x6f;&#x77;&#x73;&#x74;&#x6f;&#x6e;&#x65;</text>
<text font-family="thss00" font-size="9.377" fill="black" stroke="none" transform="matrix(1.000 0.000 -0.000 -1.000 569.680 134.184)">&#x4d;&#x59;</text>
<text font-family="thss00" font-size="9.377" fill="black" stroke="none" transform="matrix(1.000 0.000 -0.000 -1.000 417.420 134.184)">&#x72;&#x6f;&#x63;&#x6b;&#x2d;&#x62;&#x6f;&#x72;&#x64;&#x65;&#x72;</text>
<text font-family="thss00" font-size="9.377" fill="black" stroke="none" transform="matrix(1.000 0.000 -0.000 -1.000 334.050 134.184)">&#x61;&#x72;&#x72;&#x6f;&#x77;</text>
<text font-family="thss00" font-size="9.377" fill="black" stroke="none" transform="matrix(1.000 0.000 -0.000 -1.000 250.680 134.184)">&#x75;&#x3a;&#x74;&#x65;&#x78;&#x74;&#x75;&#x72;&#x65;</text>
<text font-family="thss00" font-size="9.377" fill="black" stroke="none" transform="matrix(1.000 0.000 -0.000 -1.000 289.818 134.184)">&#x4d;&#x59;</text>
<text font-family="thss00" font-size="9.377" fill="black" stroke="none" transform="matrix(1.000 0.000 -0.000 -1.000 167.310 136.040)">&#x73;&#x75;&#x72;&#x76;&#x65;&#x79;</text>
<text font-family="thss00" font-size="9.377" fill="black" stroke="none" transform="matrix(1.000 0.000 -0.000 -1.000 83.940 136.040)">&#x75;&#x3a;&#x69;&#x63;&#x65;&#x73;&#x74;&#x65;&#x70;</text>
<text font-family="thss00" font-size="9.377" fill="black" stroke="none" transform="matrix(1.000 0.000 -0.000 -1.000 124.119 136.040)">&#x4d;&#x59;</text>
<text font-family="thss00" font-size="9.377" fill="black" stroke="none" transform="matrix(1.000 0.000 -0.000 -1.000 0.570 136.040)">&#x75;&#x3a;&#x69;&#x63;&#x65;&#x70;&#x69;&#x74;</text>
<text font-family="thss00" font-size="9.377" fill="black" stroke="none" transform="matrix(1.000 0.000 -0.000 -1.000 32.929 136.040)">&#x4d;&#x59;</text>
<text font-family="thss00" font-size="9.377" fill="black" stroke="none" transform="matrix(1.000 0.000 -0.000 -1.000 500.800 186.060)">&#x77;&#x61;&#x6c;&#x6c;&#x3a;&#x75;&#x6e;&#x73;&#x75;&#x72;&#x76;&#x65;&#x79;&#x65;&#x64;</text>
<text font-family="thss00" font-size="9.377" fill="black" stroke="none" transform="matrix(1.000 0.000 -0.000 -1.000 417.420 186.060)">&#xfb02;&#x6f;&#x6f;&#x72;&#x2d;&#x73;&#x74;&#x65;&#x70;</text>
<text font-family="thss00" font-size="9.377" fill="black" stroke="none" transform="matrix(1.000 0.000 -0.000 -1.000 334.050 186.060)">&#x70;&#x69;&#x74;</text>
<text font-family="thss00" font-size="9.377" fill="black" stroke="none" transform="matrix(1.000 0.000 -0.000 -1.000 250.680 186.060)">&#x75;&#x3a;&#x62;&#x69;&#x67;&#x70;&#x69;&#x74;</text>
<text font-family="thss00" font-size="9.377" fill="black" stroke="none" transform="matrix(1.000 0.000 -0.000 -1.000 283.573 186.060)">&#x4d;&#x59;</text>
<text font-family="thss00" font-size="9.377" fill="black" stroke="none" transform="matrix(1.000 0.000 -0.000 -1.000 167.310 186.060)">&#x75;&#x3a;&#x77;&#x61;&#x6c;&#x6c;&#x73;&#x74;&#x65;&#x70;</text>
<text font-family="thss00" font-size="9.377" fill="black" stroke="none" transform="matrix(1.000 0.000 -0.000 -1.000 0.570 186.060)">&#x75;&#x3a;&#x77;&#x61;&#x6c;&#x6c;&#x62;&#x69;&#x67;&#x70;&#x69;&#x74;</text>
<text font-family="thss00" font-size="9.377" fill="black" stroke="none" transform="matrix(1.000 0.000 -0.000 -1.000 83.940 186.060)">&#x77;&#x61;&#x6c;&#x6c;&#x3a;&#x70;&#x69;&#x74;</text>
<text font-family="thss00" font-size="9.377" fill="black" stroke="none" transform="matrix(1.000 0.000 -0.000 -1.000 500.800 236.080)">&#x77;&#x61;&#x6c;&#x6c;&#x3a;&#x63;&#x6c;&#x61;&#x79;</text>
<text font-family="thss00" font-size="9.377" fill="black" stroke="none" transform="matrix(1.000 0.000 -0.000 -1.000 417.420 234.224)">&#x77;&#x61;&#x6c;&#x6c;&#x3a;&#x64;&#x65;&#x62;&#x72;&#x69;&#x73;</text>
<text font-family="thss00" font-size="9.377" fill="black" stroke="none" transform="matrix(1.000 0.000 -0.000 -1.000 334.050 234.224)">&#x77;&#x61;&#x6c;&#x6c;&#x3a;&#xfb02;&#x6f;&#x77;&#x73;&#x74;&#x6f;&#x6e;&#x65;</text>
<text font-family="thss00" font-size="9.377" fill="black" stroke="none" transform="matrix(1.000 0.000 -0.000 -1.000 250.680 234.224)">&#x77;&#x61;&#x6c;&#x6c;&#x3a;&#x69;&#x63;&#x65;</text>
<text font-family="thss00" font-size="9.377" fill="black" stroke="none" transform="matrix(1.000 0.000 -0.000 -1.000 167.310 234.224)">&#x77;&#x61;&#x6c;&#x6c;&#x3a;&#x62;&#x6c;&#x6f;&#x63;&#x6b;&#x73;</text>
<text font-family="thss00" font-size="9.377" fill="black" stroke="none" transform="matrix(1.000 0.000 -0.000 -1.000 83.940 236.080)">&#x77;&#x61;&#x6c;&#x6c;&#x3a;&#x70;&#x72;&#x65;&#x73;&#x75;&#x6d;&#x65;&#x64;</text>
<text font-family="thss00" font-size="9.377" fill="black" stroke="none" transform="matrix(1.000 0.000 -0.000 -1.000 0.570 234.224)">&#x77;&#x61;&#x6c;&#x6c;</text>
<text font-family="thss00" font-size="9.377" fill="black" stroke="none" transform="matrix(1.000 0.000 -0.000 -1.000 417.420 378.876)">&#x75;&#x3a;&#x63;&#x6f;&#x6e;&#x6e;&#x65;&#x63;&#x74;&#x69;&#x6f;&#x6e;&#x6d;&#x61;&#x72;&#x6b;&#x65;&#x72;</text>
<text font-family="thss00" font-size="9.377" fill="black" stroke="none" transform="matrix(1.000 0.000 -0.000 -1.000 502.484 378.876)">&#x4d;&#x59;</text>
<text font-family="thss00" font-size="9.377" fill="black" stroke="none" transform="matrix(1.000 0.000 -0.000 -1.000 417.420 367.624)">&#x2d;&#x61;&#x74;&#x74;&#x72;</text>
<text font-family="thss00" font-size="9.377" fill="black" stroke="none" transform="matrix(1.000 0.000 -0.000 -1.000 436.726 367.624)">&#x63;&#x6f;&#x64;&#x65;</text>
<text font-family="thss00" font-size="9.377" fill="black" stroke="none" transform="matrix(1.000 0.000 -0.000 -1.000 459.690 367.624)">&#x36;</text>
<text font-family="thss00" font-size="9.377" fill="black" stroke="none" transform="matrix(1.000 0.000 -0.000 -1.000 334.050 369.480)">&#x75;&#x3a;&#x6c;&#x6f;&#x67;&#x67;&#x65;&#x72;</text>
<text font-family="thss00" font-size="9.377" fill="black" stroke="none" transform="matrix(1.000 0.000 -0.000 -1.000 370.600 369.480)">&#x4d;&#x59;</text>
<text font-family="thss00" font-size="9.377" fill="black" stroke="none" transform="matrix(1.000 0.000 -0.000 -1.000 250.680 369.480)">&#x70;&#x69;&#x6c;&#x6c;&#x61;&#x72;</text>
<text font-family="thss00" font-size="9.377" fill="black" stroke="none" transform="matrix(1.000 0.000 -0.000 -1.000 167.310 367.624)">&#x63;&#x75;&#x72;&#x74;&#x61;&#x69;&#x6e;</text>
<text font-family="thss00" font-size="9.377" fill="black" stroke="none" transform="matrix(1.000 0.000 -0.000 -1.000 83.940 369.480)">&#x67;&#x72;&#x61;&#x64;&#x69;&#x63;&#x65;&#x26;&#x62;&#x6f;&#x72;&#x64;&#x65;&#x72;</text>
<text font-family="thss00" font-size="9.377" fill="black" stroke="none" transform="matrix(1.000 0.000 -0.000 -1.000 0.570 369.480)">&#x67;&#x72;&#x61;&#x64;&#x69;&#x65;&#x6e;&#x74;&#x26;&#x63;&#x6f;&#x6e;&#x74;&#x6f;&#x75;&#x72;</text>
<text font-family="thss00" font-size="9.377" fill="black" stroke="none" transform="matrix(1.000 0.000 -0.000 -1.000 500.800 417.644)">&#x68;&#x65;&#x6c;&#x69;&#x63;&#x74;&#x69;&#x74;&#x65;</text>
<text font-family="thss00" font-size="9.377" fill="black" stroke="none" transform="matrix(1.000 0.000 -0.000 -1.000 417.420 419.500)">&#x75;&#x3a;&#x77;&#x61;&#x74;&#x65;&#x72;&#x64;&#x72;&#x69;&#x70;</text>
<text font-family="thss00" font-size="9.377" fill="black" stroke="none" transform="matrix(1.000 0.000 -0.000 -1.000 466.488 419.500)">&#x4d;&#x59;</text>
<text font-family="thss00" font-size="9.377" fill="black" stroke="none" transform="matrix(1.000 0.000 -0.000 -1.000 334.050 417.644)">&#x73;&#x6e;&#x6f;&#x77;</text>
<text font-family="thss00" font-size="9.377" fill="black" stroke="none" transform="matrix(1.000 0.000 -0.000 -1.000 250.680 417.644)">&#x65;&#x6e;&#x74;&#x72;&#x61;&#x6e;&#x63;&#x65;</text>
<text font-family="thss00" font-size="9.377" fill="black" stroke="none" transform="matrix(1.000 0.000 -0.000 -1.000 167.310 419.500)">&#x61;&#x69;&#x72;&#x2d;&#x64;&#x72;&#x61;&#x75;&#x67;&#x68;&#x74;</text>
<text font-family="thss00" font-size="9.377" fill="black" stroke="none" transform="matrix(1.000 0.000 -0.000 -1.000 83.940 417.644)">&#x77;&#x61;&#x74;&#x65;&#x72;&#x2d;&#xfb02;&#x6f;&#x77;</text>
<text font-family="thss00" font-size="9.377" fill="black" stroke="none" transform="matrix(1.000 0.000 -0.000 -1.000 8.900 417.644)">&#x61;&#x6e;&#x63;&#x68;&#x6f;&#x72;</text>
<text font-family="thss00" font-size="9.377" fill="black" stroke="none" transform="matrix(1.000 0.000 -0.000 -1.000 500.800 467.674)">&#x73;&#x6f;&#x64;&#x61;&#x2d;&#x73;&#x74;&#x72;&#x61;&#x77;</text>
<text font-family="thss00" font-size="9.377" fill="black" stroke="none" transform="matrix(1.000 0.000 -0.000 -1.000 417.420 467.674)">&#x73;&#x74;&#x61;&#x6c;&#x61;&#x63;&#x74;&#x69;&#x74;&#x65;</text>
<text font-family="thss00" font-size="9.377" fill="black" stroke="none" transform="matrix(1.000 0.000 -0.000 -1.000 334.050 469.530)">&#x73;&#x74;&#x61;&#x6c;&#x61;&#x67;&#x6d;&#x69;&#x74;&#x65;</text>
<text font-family="thss00" font-size="9.377" fill="black" stroke="none" transform="matrix(1.000 0.000 -0.000 -1.000 250.680 469.530)">&#x75;&#x3a;&#x67;&#x72;&#x61;&#x73;&#x73;</text>
<text font-family="thss00" font-size="9.377" fill="black" stroke="none" transform="matrix(1.000 0.000 -0.000 -1.000 284.070 469.530)">&#x4d;&#x59;</text>
<text font-family="thss00" font-size="9.377" fill="black" stroke="none" transform="matrix(1.000 0.000 -0.000 -1.000 167.310 467.674)">&#x64;&#x65;&#x62;&#x72;&#x69;&#x73;</text>
<text font-family="thss00" font-size="9.377" fill="black" stroke="none" transform="matrix(1.000 0.000 -0.000 -1.000 83.940 467.674)">&#x73;&#x74;&#x61;&#x74;&#x69;&#x6f;&#x6e;&#x3a;&#xfb01;&#x78;&#x65;&#x64;</text>
<text font-family="thss00" font-size="9.377" fill="black" stroke="none" transform="matrix(1.000 0.000 -0.000 -1.000 0.570 467.674)">&#x73;&#x74;&#x61;&#x74;&#x69;&#x6f;&#x6e;</text>
</g>
<clipPath id="clip_viewBox">
<path d="M-29.574 -687.666L1225.119 -687.666L1225.119 29.027L-29.574 29.027z" />
</clipPath>
</defs>
<g transform="scale(1,-1)" fill="#000000" stroke="#000000" stroke-linecap="round" stroke-linejoin="round" stroke-miterlimit="10" fill-rule="evenodd" clip-rule="evenodd" clip-path="url(#clip_viewBox)">
<use x="-1.228" y="-659.319" xlink:href="#E_aaaaaaa_../../outputs/symbology.svg" />
<use x="7.772" y="-634.319" xlink:href="#X_aaaaaaa_../../outputs/symbology.svg" />
</g>
</svg>
