<?xml version="1.0" encoding="utf-8" standalone="no"?>
<!-- Generated by Therion 5.5.0+e2caa7d (2020-05-01) -->
<!DOCTYPE svg PUBLIC "-//W3C//DTD SVG 1.1//EN" "http://www.w3.org/Graphics/SVG/1.1/DTD/svg11.dtd">
<svg width="44.792cm" height="25.283cm" viewBox="-29.202 -29.027 1269.693 716.693" xmlns="http://www.w3.org/2000/svg" xmlns:xlink="http://www.w3.org/1999/xlink">
<defs>
<pattern id="patt_0.00002_../../outputs/symbology.svg" patternUnits="userSpaceOnUse" width="2.965" height="10.330" patternTransform="matrix(0.707 0.707 -0.707 0.707 0.000 0.000)">
<g transform="translate(-0.835 -0.835)">
<path fill="#000000" stroke="none" d="M0.835 0.835L1.165 0.835L1.165 1.165L1.165 11.165L0.835 11.165L0.835 10.835Z" />
</g>
</pattern>
<pattern id="patt_0.00023_../../outputs/symbology.svg" patternUnits="userSpaceOnUse" width="9.882" height="9.882" patternTransform="matrix(1.000 0.000 0.000 1.000 0.000 0.000)">
<g transform="translate(-0.268 -0.412)">
<path fill="none" stroke="#000000" stroke-width="0.824" d="M0.679 4.118L5.620 4.118" />
<path fill="none" stroke="#000000" stroke-width="0.824" d="M7.941 5.765L7.941 0.824" />
</g>
</pattern>
<pattern id="patt_0.00024_../../outputs/symbology.svg" patternUnits="userSpaceOnUse" width="3.294" height="3.294" patternTransform="matrix(1.000 0.000 0.000 1.000 0.000 0.000)">
<g transform="translate(-0.580 -0.712)">
<path fill="none" stroke="#000000" stroke-width="0.576" d="M0.868 1.000L1.132 1.000" />
<path fill="none" stroke="#000000" stroke-width="0.576" d="M2.528 2.591L2.767 2.703" />
</g>
</pattern>
<g id="F_aaaaaaa_../../outputs/symbology.svg">
</g>
<g id="G_aaaaaaa_../../outputs/symbology.svg">
</g>
<g id="B_aaaaaaa_../../outputs/symbology.svg">
</g>
<g id="I_aaaaaaa_../../outputs/symbology.svg">
</g>
<g id="E_aaaaaaa_../../outputs/symbology.svg">
<g>
<clipPath id="clip_1_../../outputs/symbology.svg">
  <path d="M342.680 17.360L392.700 17.360L392.700 0.680L342.680 0.680L342.680 17.360Z" />
</clipPath>
<g clip-path="url(#clip_1_../../outputs/symbology.svg)">
<path fill="#ffffff" stroke="none" d="M342.547 1.569L339.468 0.473L339.704 -0.482L338.094 -3.091L341.523 -3.562L341.063 -1.937Z" />
<path fill="none" stroke="#4c4c4c" stroke-width="0.576" stroke-linecap="butt" d="M342.547 1.569L339.468 0.473L339.704 -0.482L338.094 -3.091L341.523 -3.562L341.063 -1.937Z" />
<path fill="#ffffff" stroke="none" d="M338.042 4.917L338.450 4.791L340.384 3.757L340.692 5.286L340.739 6.980L339.160 6.711Z" />
<path fill="none" stroke="#4c4c4c" stroke-width="0.576" stroke-linecap="butt" d="M338.042 4.917L338.450 4.791L340.384 3.757L340.692 5.286L340.739 6.980L339.160 6.711Z" />
<path fill="#ffffff" stroke="none" d="M340.632 5.584L340.873 6.517L340.619 8.341L337.981 7.075L338.207 6.857L338.717 5.271Z" />
<path fill="none" stroke="#4c4c4c" stroke-width="0.576" stroke-linecap="butt" d="M340.632 5.584L340.873 6.517L340.619 8.341L337.981 7.075L338.207 6.857L338.717 5.271Z" />
<path fill="#ffffff" stroke="none" d="M338.665 19.254L337.175 18.493L337.287 16.183L338.450 15.063L340.244 15.893L339.745 16.604Z" />
<path fill="none" stroke="#4c4c4c" stroke-width="0.576" stroke-linecap="butt" d="M338.665 19.254L337.175 18.493L337.287 16.183L338.450 15.063L340.244 15.893L339.745 16.604Z" />
<path fill="#ffffff" stroke="none" d="M343.755 0.419L342.825 0.189L344.033 -2.172L344.756 -2.389L345.414 -1.556L346.036 -0.826Z" />
<path fill="none" stroke="#4c4c4c" stroke-width="0.576" stroke-linecap="butt" d="M343.755 0.419L342.825 0.189L344.033 -2.172L344.756 -2.389L345.414 -1.556L346.036 -0.826Z" />
<path fill="#ffffff" stroke="none" d="M347.776 0.722L348.459 1.206L347.993 1.879L347.355 3.277L346.635 2.057L346.077 1.746Z" />
<path fill="none" stroke="#4c4c4c" stroke-width="0.576" stroke-linecap="butt" d="M347.776 0.722L348.459 1.206L347.993 1.879L347.355 3.277L346.635 2.057L346.077 1.746Z" />
<path fill="#ffffff" stroke="none" d="M348.163 9.414L346.381 10.629L346.015 10.385L344.828 8.463L345.186 7.913L347.322 9.351Z" />
<path fill="none" stroke="#4c4c4c" stroke-width="0.576" stroke-linecap="butt" d="M348.163 9.414L346.381 10.629L346.015 10.385L344.828 8.463L345.186 7.913L347.322 9.351Z" />
<path fill="#ffffff" stroke="none" d="M345.149 9.661L345.525 9.306L346.083 10.478L344.992 12.917L344.591 11.879L343.920 11.094Z" />
<path fill="none" stroke="#4c4c4c" stroke-width="0.576" stroke-linecap="butt" d="M345.149 9.661L345.525 9.306L346.083 10.478L344.992 12.917L344.591 11.879L343.920 11.094Z" />
<path fill="#ffffff" stroke="none" d="M346.425 2.805L347.340 1.760L348.805 0.971L349.306 1.859L348.820 3.573L347.741 3.858Z" />
<path fill="none" stroke="#4c4c4c" stroke-width="0.576" stroke-linecap="butt" d="M346.425 2.805L347.340 1.760L348.805 0.971L349.306 1.859L348.820 3.573L347.741 3.858Z" />
<path fill="#ffffff" stroke="none" d="M345.919 6.558L349.351 6.840L349.618 8.482L349.817 11.019L347.955 11.734L346.216 9.596Z" />
<path fill="none" stroke="#4c4c4c" stroke-width="0.576" stroke-linecap="butt" d="M345.919 6.558L349.351 6.840L349.618 8.482L349.817 11.019L347.955 11.734L346.216 9.596Z" />
<path fill="#ffffff" stroke="none" d="M349.906 11.204L350.970 12.822L350.475 13.686L349.084 14.208L347.704 12.373L348.608 11.539Z" />
<path fill="none" stroke="#4c4c4c" stroke-width="0.576" stroke-linecap="butt" d="M349.906 11.204L350.970 12.822L350.475 13.686L349.084 14.208L347.704 12.373L348.608 11.539Z" />
<path fill="#ffffff" stroke="none" d="M352.713 0.307L351.638 -1.253L353.035 -1.643L354.235 -2.710L354.934 -2.289L353.737 -0.447Z" />
<path fill="none" stroke="#4c4c4c" stroke-width="0.576" stroke-linecap="butt" d="M352.713 0.307L351.638 -1.253L353.035 -1.643L354.235 -2.710L354.934 -2.289L353.737 -0.447Z" />
<path fill="#ffffff" stroke="none" d="M354.870 1.519L356.777 2.127L357.755 4.079L356.749 6.108L355.637 5.650L353.888 2.905Z" />
<path fill="none" stroke="#4c4c4c" stroke-width="0.576" stroke-linecap="butt" d="M354.870 1.519L356.777 2.127L357.755 4.079L356.749 6.108L355.637 5.650L353.888 2.905Z" />
<path fill="#ffffff" stroke="none" d="M354.520 6.968L356.708 6.957L357.733 8.075L357.586 9.867L356.230 11.411L354.745 9.758Z" />
<path fill="none" stroke="#4c4c4c" stroke-width="0.576" stroke-linecap="butt" d="M354.520 6.968L356.708 6.957L357.733 8.075L357.586 9.867L356.230 11.411L354.745 9.758Z" />
<path fill="#ffffff" stroke="none" d="M352.800 12.562L353.286 12.158L353.782 12.319L354.058 12.631L353.900 12.899L353.183 12.662Z" />
<path fill="none" stroke="#4c4c4c" stroke-width="0.576" stroke-linecap="butt" d="M352.800 12.562L353.286 12.158L353.782 12.319L354.058 12.631L353.900 12.899L353.183 12.662Z" />
<path fill="#ffffff" stroke="none" d="M356.413 -4.855L357.757 -4.741L358.879 -3.139L358.362 -2.354L358.378 -1.809L356.958 -2.451Z" />
<path fill="none" stroke="#4c4c4c" stroke-width="0.576" stroke-linecap="butt" d="M356.413 -4.855L357.757 -4.741L358.879 -3.139L358.362 -2.354L358.378 -1.809L356.958 -2.451Z" />
<path fill="#ffffff" stroke="none" d="M362.128 3.225L361.315 5.206L358.581 5.242L357.529 3.722L357.954 2.694L359.509 2.086Z" />
<path fill="none" stroke="#4c4c4c" stroke-width="0.576" stroke-linecap="butt" d="M362.128 3.225L361.315 5.206L358.581 5.242L357.529 3.722L357.954 2.694L359.509 2.086Z" />
<path fill="#ffffff" stroke="none" d="M358.781 7.194L359.149 7.054L360.932 5.827L362.931 5.302L362.059 6.398L360.797 8.339Z" />
<path fill="none" stroke="#4c4c4c" stroke-width="0.576" stroke-linecap="butt" d="M358.781 7.194L359.149 7.054L360.932 5.827L362.931 5.302L362.059 6.398L360.797 8.339Z" />
<path fill="#ffffff" stroke="none" d="M356.573 12.346L357.630 11.618L358.328 13.386L357.036 14.483L355.910 14.782L356.224 12.865Z" />
<path fill="none" stroke="#4c4c4c" stroke-width="0.576" stroke-linecap="butt" d="M356.573 12.346L357.630 11.618L358.328 13.386L357.036 14.483L355.910 14.782L356.224 12.865Z" />
<path fill="#ffffff" stroke="none" d="M365.891 0.367L364.548 0.230L362.749 -0.304L362.607 -4.436L363.987 -4.409L365.587 -3.368Z" />
<path fill="none" stroke="#4c4c4c" stroke-width="0.576" stroke-linecap="butt" d="M365.891 0.367L364.548 0.230L362.749 -0.304L362.607 -4.436L363.987 -4.409L365.587 -3.368Z" />
<path fill="#ffffff" stroke="none" d="M364.820 4.514L364.066 3.881L363.675 2.292L366.571 2.025L367.289 3.760L367.311 4.399Z" />
<path fill="none" stroke="#4c4c4c" stroke-width="0.576" stroke-linecap="butt" d="M364.820 4.514L364.066 3.881L363.675 2.292L366.571 2.025L367.289 3.760L367.311 4.399Z" />
<path fill="#ffffff" stroke="none" d="M364.965 5.834L366.183 6.311L367.146 6.941L366.309 9.221L365.795 9.438L365.070 8.300Z" />
<path fill="none" stroke="#4c4c4c" stroke-width="0.576" stroke-linecap="butt" d="M364.965 5.834L366.183 6.311L367.146 6.941L366.309 9.221L365.795 9.438L365.070 8.300Z" />
<path fill="#ffffff" stroke="none" d="M367.948 11.543L366.274 12.199L364.435 12.265L363.212 12.414L363.174 10.283L364.842 9.480Z" />
<path fill="none" stroke="#4c4c4c" stroke-width="0.576" stroke-linecap="butt" d="M367.948 11.543L366.274 12.199L364.435 12.265L363.212 12.414L363.174 10.283L364.842 9.480Z" />
<path fill="#ffffff" stroke="none" d="M367.691 -4.658L367.921 -3.895L367.892 -2.534L366.817 -2.441L365.984 -2.521L366.817 -4.113Z" />
<path fill="none" stroke="#4c4c4c" stroke-width="0.576" stroke-linecap="butt" d="M367.691 -4.658L367.921 -3.895L367.892 -2.534L366.817 -2.441L365.984 -2.521L366.817 -4.113Z" />
<path fill="#ffffff" stroke="none" d="M370.231 4.206L370.804 4.222L370.404 5.989L369.776 5.903L368.808 5.932L368.820 4.830Z" />
<path fill="none" stroke="#4c4c4c" stroke-width="0.576" stroke-linecap="butt" d="M370.231 4.206L370.804 4.222L370.404 5.989L369.776 5.903L368.808 5.932L368.820 4.830Z" />
<path fill="#ffffff" stroke="none" d="M368.511 10.055L367.992 11.132L366.835 8.098L366.768 5.906L369.114 5.651L369.090 8.933Z" />
<path fill="none" stroke="#4c4c4c" stroke-width="0.576" stroke-linecap="butt" d="M368.511 10.055L367.992 11.132L366.835 8.098L366.768 5.906L369.114 5.651L369.090 8.933Z" />
<path fill="#ffffff" stroke="none" d="M365.747 13.519L366.769 12.304L367.292 12.123L368.397 12.168L369.088 13.231L367.754 14.571Z" />
<path fill="none" stroke="#4c4c4c" stroke-width="0.576" stroke-linecap="butt" d="M365.747 13.519L366.769 12.304L367.292 12.123L368.397 12.168L369.088 13.231L367.754 14.571Z" />
<path fill="#ffffff" stroke="none" d="M370.332 -1.513L367.984 -2.219L369.797 -5.306L373.097 -6.132L374.221 -2.389L371.917 -0.672Z" />
<path fill="none" stroke="#4c4c4c" stroke-width="0.576" stroke-linecap="butt" d="M370.332 -1.513L367.984 -2.219L369.797 -5.306L373.097 -6.132L374.221 -2.389L371.917 -0.672Z" />
<path fill="#ffffff" stroke="none" d="M370.798 9.813L371.992 8.471L374.657 8.087L375.872 9.821L375.447 9.952L374.357 11.322Z" />
<path fill="none" stroke="#4c4c4c" stroke-width="0.576" stroke-linecap="butt" d="M370.798 9.813L371.992 8.471L374.657 8.087L375.872 9.821L375.447 9.952L374.357 11.322Z" />
<path fill="#ffffff" stroke="none" d="M374.848 10.664L375.136 11.631L374.466 11.781L373.430 11.000L373.133 10.528L374.275 10.156Z" />
<path fill="none" stroke="#4c4c4c" stroke-width="0.576" stroke-linecap="butt" d="M374.848 10.664L375.136 11.631L374.466 11.781L373.430 11.000L373.133 10.528L374.275 10.156Z" />
<path fill="#ffffff" stroke="none" d="M378.396 0.287L375.987 0.173L375.249 -0.122L374.393 -2.422L377.188 -3.460L378.417 -2.046Z" />
<path fill="none" stroke="#4c4c4c" stroke-width="0.576" stroke-linecap="butt" d="M378.396 0.287L375.987 0.173L375.249 -0.122L374.393 -2.422L377.188 -3.460L378.417 -2.046Z" />
<path fill="#ffffff" stroke="none" d="M377.036 7.876L377.038 7.259L378.062 6.562L379.269 6.836L379.127 7.904L378.658 8.371Z" />
<path fill="none" stroke="#4c4c4c" stroke-width="0.576" stroke-linecap="butt" d="M377.036 7.876L377.038 7.259L378.062 6.562L379.269 6.836L379.127 7.904L378.658 8.371Z" />
<path fill="#ffffff" stroke="none" d="M375.689 12.211L376.184 11.975L376.797 11.821L378.221 12.800L377.262 12.884L376.002 13.649Z" />
<path fill="none" stroke="#4c4c4c" stroke-width="0.576" stroke-linecap="butt" d="M375.689 12.211L376.184 11.975L376.797 11.821L378.221 12.800L377.262 12.884L376.002 13.649Z" />
<path fill="#ffffff" stroke="none" d="M375.171 15.742L376.691 13.586L378.444 12.986L379.823 15.122L379.130 15.559L378.036 16.419Z" />
<path fill="none" stroke="#4c4c4c" stroke-width="0.576" stroke-linecap="butt" d="M375.171 15.742L376.691 13.586L378.444 12.986L379.823 15.122L379.130 15.559L378.036 16.419Z" />
<path fill="#ffffff" stroke="none" d="M381.509 -4.957L382.574 -4.724L382.051 -3.547L382.062 -2.216L381.377 -2.226L380.447 -2.499Z" />
<path fill="none" stroke="#4c4c4c" stroke-width="0.576" stroke-linecap="butt" d="M381.509 -4.957L382.574 -4.724L382.051 -3.547L382.062 -2.216L381.377 -2.226L380.447 -2.499Z" />
<path fill="#ffffff" stroke="none" d="M382.381 5.634L381.316 6.122L379.175 4.576L378.452 2.142L382.181 1.844L382.310 3.352Z" />
<path fill="none" stroke="#4c4c4c" stroke-width="0.576" stroke-linecap="butt" d="M382.381 5.634L381.316 6.122L379.175 4.576L378.452 2.142L382.181 1.844L382.310 3.352Z" />
<path fill="#ffffff" stroke="none" d="M383.248 7.797L382.807 9.553L380.923 10.034L378.965 9.448L379.393 7.134L380.600 7.579Z" />
<path fill="none" stroke="#4c4c4c" stroke-width="0.576" stroke-linecap="butt" d="M383.248 7.797L382.807 9.553L380.923 10.034L378.965 9.448L379.393 7.134L380.600 7.579Z" />
<path fill="#ffffff" stroke="none" d="M384.089 11.250L383.390 12.954L382.683 13.768L379.927 15.965L380.106 12.796L381.084 12.483Z" />
<path fill="none" stroke="#4c4c4c" stroke-width="0.576" stroke-linecap="butt" d="M384.089 11.250L383.390 12.954L382.683 13.768L379.927 15.965L380.106 12.796L381.084 12.483Z" />
<path fill="#ffffff" stroke="none" d="M385.200 -2.021L385.695 -2.897L386.485 -3.358L389.162 -2.501L388.663 -1.310L386.596 -0.849Z" />
<path fill="none" stroke="#4c4c4c" stroke-width="0.576" stroke-linecap="butt" d="M385.200 -2.021L385.695 -2.897L386.485 -3.358L389.162 -2.501L388.663 -1.310L386.596 -0.849Z" />
<path fill="#ffffff" stroke="none" d="M389.183 7.669L388.448 7.688L387.821 4.624L386.893 3.030L389.615 2.843L389.770 4.857Z" />
<path fill="none" stroke="#4c4c4c" stroke-width="0.576" stroke-linecap="butt" d="M389.183 7.669L388.448 7.688L387.821 4.624L386.893 3.030L389.615 2.843L389.770 4.857Z" />
<path fill="#ffffff" stroke="none" d="M386.884 7.282L386.844 9.092L385.618 9.275L383.711 8.922L383.708 7.657L384.794 7.462Z" />
<path fill="none" stroke="#4c4c4c" stroke-width="0.576" stroke-linecap="butt" d="M386.884 7.282L386.844 9.092L385.618 9.275L383.711 8.922L383.708 7.657L384.794 7.462Z" />
<path fill="#ffffff" stroke="none" d="M387.001 10.474L387.145 11.618L387.099 12.910L386.419 12.954L385.820 12.178L385.082 11.134Z" />
<path fill="none" stroke="#4c4c4c" stroke-width="0.576" stroke-linecap="butt" d="M387.001 10.474L387.145 11.618L387.099 12.910L386.419 12.954L385.820 12.178L385.082 11.134Z" />
<path fill="#ffffff" stroke="none" d="M386.930 -3.390L388.920 -4.825L390.445 -4.304L391.541 -1.678L390.614 -1.979L388.350 -2.208Z" />
<path fill="none" stroke="#4c4c4c" stroke-width="0.576" stroke-linecap="butt" d="M386.930 -3.390L388.920 -4.825L390.445 -4.304L391.541 -1.678L390.614 -1.979L388.350 -2.208Z" />
<path fill="#ffffff" stroke="none" d="M391.146 14.774L392.617 14.300L391.880 16.115L391.029 16.808L389.898 16.699L389.169 14.955Z" />
<path fill="none" stroke="#4c4c4c" stroke-width="0.576" stroke-linecap="butt" d="M391.146 14.774L392.617 14.300L391.880 16.115L391.029 16.808L389.898 16.699L389.169 14.955Z" />
</g>
</g>
<g>
<clipPath id="clip_2_../../outputs/symbology.svg">
  <path d="M509.420 17.360L559.450 17.360L559.450 0.680L509.420 0.680L509.420 17.360Z" />
</clipPath>
<g clip-path="url(#clip_2_../../outputs/symbology.svg)">
<path fill="#ffffff" stroke="none" d="M520.432 6.888L520.741 9.309L518.346 9.678L515.137 9.484L515.018 7.279L517.070 6.380Z" />
<path fill="none" stroke="#4c4c4c" stroke-width="0.576" stroke-linecap="butt" d="M520.432 6.888L520.741 9.309L518.346 9.678L515.137 9.484L515.018 7.279L517.070 6.380Z" />
<path fill="#ffffff" stroke="none" d="M520.183 23.267L517.031 23.312L515.527 19.873L515.722 17.542L518.788 17.727L520.363 19.759Z" />
<path fill="none" stroke="#4c4c4c" stroke-width="0.576" stroke-linecap="butt" d="M520.183 23.267L517.031 23.312L515.527 19.873L515.722 17.542L518.788 17.727L520.363 19.759Z" />
<path fill="#ffffff" stroke="none" d="M526.388 14.994L523.722 12.907L524.325 8.315L528.190 5.353L530.375 8.119L529.171 11.381Z" />
<path fill="none" stroke="#4c4c4c" stroke-width="0.576" stroke-linecap="butt" d="M526.388 14.994L523.722 12.907L524.325 8.315L528.190 5.353L530.375 8.119L529.171 11.381Z" />
<path fill="#ffffff" stroke="none" d="M540.948 10.711L539.369 13.535L536.088 11.726L534.171 8.766L536.457 6.904L539.231 8.311Z" />
<path fill="none" stroke="#4c4c4c" stroke-width="0.576" stroke-linecap="butt" d="M540.948 10.711L539.369 13.535L536.088 11.726L534.171 8.766L536.457 6.904L539.231 8.311Z" />
<path fill="#ffffff" stroke="none" d="M543.175 7.192L545.776 6.646L547.363 9.084L547.292 12.688L544.886 12.403L543.138 11.175Z" />
<path fill="none" stroke="#4c4c4c" stroke-width="0.576" stroke-linecap="butt" d="M543.175 7.192L545.776 6.646L547.363 9.084L547.292 12.688L544.886 12.403L543.138 11.175Z" />
</g>
</g>
<g>
<clipPath id="clip_3_../../outputs/symbology.svg">
  <path d="M426.050 17.360L476.080 17.360L476.080 0.680L426.050 0.680L426.050 17.360Z" />
</clipPath>
<g clip-path="url(#clip_3_../../outputs/symbology.svg)">
<path fill="#ffffff" stroke="none" d="M424.220 -4.019L424.269 -2.977L424.244 -1.316L421.369 -0.258L420.785 -1.236L421.066 -3.245Z" />
<path fill="none" stroke="#4c4c4c" stroke-width="0.576" stroke-linecap="butt" d="M424.220 -4.019L424.269 -2.977L424.244 -1.316L421.369 -0.258L420.785 -1.236L421.066 -3.245Z" />
<path fill="#ffffff" stroke="none" d="M420.651 4.572L420.907 3.043L422.996 3.360L425.188 3.558L424.436 5.198L422.551 6.770Z" />
<path fill="none" stroke="#4c4c4c" stroke-width="0.576" stroke-linecap="butt" d="M420.651 4.572L420.907 3.043L422.996 3.360L425.188 3.558L424.436 5.198L422.551 6.770Z" />
<path fill="#ffffff" stroke="none" d="M423.310 18.650L423.303 16.746L424.964 17.039L426.995 17.908L426.210 19.806L425.262 19.816Z" />
<path fill="none" stroke="#4c4c4c" stroke-width="0.576" stroke-linecap="butt" d="M423.310 18.650L423.303 16.746L424.964 17.039L426.995 17.908L426.210 19.806L425.262 19.816Z" />
<path fill="#ffffff" stroke="none" d="M430.241 -5.469L431.751 -4.931L432.358 -3.224L430.451 -1.275L429.519 -1.960L429.103 -4.446Z" />
<path fill="none" stroke="#4c4c4c" stroke-width="0.576" stroke-linecap="butt" d="M430.241 -5.469L431.751 -4.931L432.358 -3.224L430.451 -1.275L429.519 -1.960L429.103 -4.446Z" />
<path fill="#ffffff" stroke="none" d="M430.829 3.709L429.962 4.485L428.674 4.965L427.332 3.211L427.526 1.980L429.873 2.374Z" />
<path fill="none" stroke="#4c4c4c" stroke-width="0.576" stroke-linecap="butt" d="M430.829 3.709L429.962 4.485L428.674 4.965L427.332 3.211L427.526 1.980L429.873 2.374Z" />
<path fill="#ffffff" stroke="none" d="M430.515 10.713L431.284 10.665L431.894 13.925L431.129 15.028L429.452 14.050L429.456 12.359Z" />
<path fill="none" stroke="#4c4c4c" stroke-width="0.576" stroke-linecap="butt" d="M430.515 10.713L431.284 10.665L431.894 13.925L431.129 15.028L429.452 14.050L429.456 12.359Z" />
<path fill="#ffffff" stroke="none" d="M437.827 6.597L438.150 4.997L439.342 5.059L441.080 5.719L440.354 7.192L439.033 7.317Z" />
<path fill="none" stroke="#4c4c4c" stroke-width="0.576" stroke-linecap="butt" d="M437.827 6.597L438.150 4.997L439.342 5.059L441.080 5.719L440.354 7.192L439.033 7.317Z" />
<path fill="#ffffff" stroke="none" d="M437.390 11.568L436.032 11.958L435.780 9.961L437.247 8.675L438.703 8.658L438.421 9.884Z" />
<path fill="none" stroke="#4c4c4c" stroke-width="0.576" stroke-linecap="butt" d="M437.390 11.568L436.032 11.958L435.780 9.961L437.247 8.675L438.703 8.658L438.421 9.884Z" />
<path fill="#ffffff" stroke="none" d="M445.836 7.396L444.824 10.046L441.733 9.920L440.255 6.462L440.138 3.757L443.876 5.291Z" />
<path fill="none" stroke="#4c4c4c" stroke-width="0.576" stroke-linecap="butt" d="M445.836 7.396L444.824 10.046L441.733 9.920L440.255 6.462L440.138 3.757L443.876 5.291Z" />
<path fill="#ffffff" stroke="none" d="M446.602 10.700L446.482 11.463L444.983 11.933L443.338 10.011L443.897 9.440L446.400 9.247Z" />
<path fill="none" stroke="#4c4c4c" stroke-width="0.576" stroke-linecap="butt" d="M446.602 10.700L446.482 11.463L444.983 11.933L443.338 10.011L443.897 9.440L446.400 9.247Z" />
<path fill="#ffffff" stroke="none" d="M453.364 6.024L452.461 6.983L451.835 6.464L450.003 6.006L450.462 5.392L451.965 4.558Z" />
<path fill="none" stroke="#4c4c4c" stroke-width="0.576" stroke-linecap="butt" d="M453.364 6.024L452.461 6.983L451.835 6.464L450.003 6.006L450.462 5.392L451.965 4.558Z" />
<path fill="#ffffff" stroke="none" d="M453.792 8.755L453.768 9.828L452.635 10.693L450.641 12.395L449.882 9.878L451.236 8.307Z" />
<path fill="none" stroke="#4c4c4c" stroke-width="0.576" stroke-linecap="butt" d="M453.792 8.755L453.768 9.828L452.635 10.693L450.641 12.395L449.882 9.878L451.236 8.307Z" />
<path fill="#ffffff" stroke="none" d="M457.642 6.095L456.276 5.211L456.598 3.614L457.561 1.949L458.760 2.870L458.704 4.641Z" />
<path fill="none" stroke="#4c4c4c" stroke-width="0.576" stroke-linecap="butt" d="M457.642 6.095L456.276 5.211L456.598 3.614L457.561 1.949L458.760 2.870L458.704 4.641Z" />
<path fill="#ffffff" stroke="none" d="M457.336 13.456L456.905 14.979L454.129 13.993L453.040 11.553L454.865 11.478L456.232 11.433Z" />
<path fill="none" stroke="#4c4c4c" stroke-width="0.576" stroke-linecap="butt" d="M457.336 13.456L456.905 14.979L454.129 13.993L453.040 11.553L454.865 11.478L456.232 11.433Z" />
<path fill="#ffffff" stroke="none" d="M461.942 4.121L464.598 3.650L465.531 4.664L465.920 6.645L464.416 7.773L462.849 5.493Z" />
<path fill="none" stroke="#4c4c4c" stroke-width="0.576" stroke-linecap="butt" d="M461.942 4.121L464.598 3.650L465.531 4.664L465.920 6.645L464.416 7.773L462.849 5.493Z" />
<path fill="#ffffff" stroke="none" d="M465.102 11.190L465.860 11.620L464.455 13.387L463.552 13.527L462.675 12.682L463.592 11.610Z" />
<path fill="none" stroke="#4c4c4c" stroke-width="0.576" stroke-linecap="butt" d="M465.102 11.190L465.860 11.620L464.455 13.387L463.552 13.527L462.675 12.682L463.592 11.610Z" />
<path fill="#ffffff" stroke="none" d="M459.691 20.018L460.049 18.733L462.490 17.969L464.600 19.327L462.618 21.249L461.215 21.399Z" />
<path fill="none" stroke="#4c4c4c" stroke-width="0.576" stroke-linecap="butt" d="M459.691 20.018L460.049 18.733L462.490 17.969L464.600 19.327L462.618 21.249L461.215 21.399Z" />
<path fill="#ffffff" stroke="none" d="M473.209 -3.314L473.980 -2.247L471.356 -1.368L470.204 -2.766L469.770 -4.110L471.540 -4.204Z" />
<path fill="none" stroke="#4c4c4c" stroke-width="0.576" stroke-linecap="butt" d="M473.209 -3.314L473.980 -2.247L471.356 -1.368L470.204 -2.766L469.770 -4.110L471.540 -4.204Z" />
<path fill="#ffffff" stroke="none" d="M469.399 3.738L470.719 4.813L468.583 6.077L466.746 6.702L466.219 4.626L467.413 2.751Z" />
<path fill="none" stroke="#4c4c4c" stroke-width="0.576" stroke-linecap="butt" d="M469.399 3.738L470.719 4.813L468.583 6.077L466.746 6.702L466.219 4.626L467.413 2.751Z" />
<path fill="#ffffff" stroke="none" d="M468.678 10.425L468.321 8.761L470.565 8.824L472.145 9.341L471.392 10.725L470.498 10.965Z" />
<path fill="none" stroke="#4c4c4c" stroke-width="0.576" stroke-linecap="butt" d="M468.678 10.425L468.321 8.761L470.565 8.824L472.145 9.341L471.392 10.725L470.498 10.965Z" />
<path fill="#ffffff" stroke="none" d="M478.508 0.515L477.948 0.884L476.893 -1.583L478.656 -3.538L479.355 -3.066L479.978 -0.610Z" />
<path fill="none" stroke="#4c4c4c" stroke-width="0.576" stroke-linecap="butt" d="M478.508 0.515L477.948 0.884L476.893 -1.583L478.656 -3.538L479.355 -3.066L479.978 -0.610Z" />
</g>
</g>
<path fill="#ffffff" stroke="none" d="M259.310 17.360L309.330 17.360L309.330 0.680L259.310 0.680L259.310 17.360Z" />
<path fill="url(#patt_0.00023_../../outputs/symbology.svg)" stroke="none" d="M259.310 17.360L309.330 17.360L309.330 0.680L259.310 0.680L259.310 17.360Z" />
<path fill="#ffffff" stroke="none" d="M175.940 17.360L225.960 17.360L225.960 0.680L175.940 0.680L175.940 17.360Z" />
<path fill="url(#patt_0.00024_../../outputs/symbology.svg)" stroke="none" d="M175.940 17.360L225.960 17.360L225.960 0.680L175.940 0.680L175.940 17.360Z" />
<path fill="#ffffff" stroke="none" d="M92.570 17.360L142.590 17.360L142.590 0.680L92.570 0.680L92.570 17.360Z" />
<path fill="url(#patt_0.00002_../../outputs/symbology.svg)" stroke="none" d="M92.570 17.360L142.590 17.360L142.590 0.680L92.570 0.680L92.570 17.360Z" />
<g>
<clipPath id="clip_4_../../outputs/symbology.svg">
  <path d="M9.190 17.360L59.220 17.360L59.220 0.680L9.190 0.680L9.190 17.360Z" />
</clipPath>
<g clip-path="url(#clip_4_../../outputs/symbology.svg)">
<path fill="none" stroke="#00b2e5" stroke-width="0.576" d="M14.183 5.022L14.183 6.669" />
<path fill="none" stroke="#00b2e5" stroke-width="0.576" d="M14.183 5.022L12.757 5.846" />
<path fill="none" stroke="#00b2e5" stroke-width="0.576" d="M14.183 5.022L12.757 4.199" />
<path fill="none" stroke="#00b2e5" stroke-width="0.576" d="M14.183 5.022L14.183 3.375" />
<path fill="none" stroke="#00b2e5" stroke-width="0.576" d="M14.183 5.022L15.610 4.199" />
<path fill="none" stroke="#00b2e5" stroke-width="0.576" d="M14.183 5.022L15.610 5.846" />
<path fill="none" stroke="#00b2e5" stroke-width="0.576" d="M22.607 6.671L22.607 8.318" />
<path fill="none" stroke="#00b2e5" stroke-width="0.576" d="M22.607 6.671L21.180 7.495" />
<path fill="none" stroke="#00b2e5" stroke-width="0.576" d="M22.607 6.671L21.180 5.847" />
<path fill="none" stroke="#00b2e5" stroke-width="0.576" d="M22.607 6.671L22.607 5.024" />
<path fill="none" stroke="#00b2e5" stroke-width="0.576" d="M22.607 6.671L24.033 5.847" />
<path fill="none" stroke="#00b2e5" stroke-width="0.576" d="M22.607 6.671L24.033 7.495" />
<path fill="none" stroke="#00b2e5" stroke-width="0.576" d="M32.214 7.179L32.214 8.826" />
<path fill="none" stroke="#00b2e5" stroke-width="0.576" d="M32.214 7.179L30.787 8.002" />
<path fill="none" stroke="#00b2e5" stroke-width="0.576" d="M32.214 7.179L30.787 6.355" />
<path fill="none" stroke="#00b2e5" stroke-width="0.576" d="M32.214 7.179L32.214 5.532" />
<path fill="none" stroke="#00b2e5" stroke-width="0.576" d="M32.214 7.179L33.640 6.355" />
<path fill="none" stroke="#00b2e5" stroke-width="0.576" d="M32.214 7.179L33.640 8.002" />
<path fill="none" stroke="#00b2e5" stroke-width="0.576" d="M39.256 6.818L39.256 8.465" />
<path fill="none" stroke="#00b2e5" stroke-width="0.576" d="M39.256 6.818L37.830 7.642" />
<path fill="none" stroke="#00b2e5" stroke-width="0.576" d="M39.256 6.818L37.830 5.994" />
<path fill="none" stroke="#00b2e5" stroke-width="0.576" d="M39.256 6.818L39.256 5.171" />
<path fill="none" stroke="#00b2e5" stroke-width="0.576" d="M39.256 6.818L40.683 5.994" />
<path fill="none" stroke="#00b2e5" stroke-width="0.576" d="M39.256 6.818L40.683 7.642" />
<path fill="none" stroke="#00b2e5" stroke-width="0.576" d="M47.259 8.944L47.259 10.591" />
<path fill="none" stroke="#00b2e5" stroke-width="0.576" d="M47.259 8.944L45.833 9.767" />
<path fill="none" stroke="#00b2e5" stroke-width="0.576" d="M47.259 8.944L45.833 8.120" />
<path fill="none" stroke="#00b2e5" stroke-width="0.576" d="M47.259 8.944L47.259 7.297" />
<path fill="none" stroke="#00b2e5" stroke-width="0.576" d="M47.259 8.944L48.686 8.120" />
<path fill="none" stroke="#00b2e5" stroke-width="0.576" d="M47.259 8.944L48.686 9.767" />
</g>
</g>
<path fill="none" stroke="#000000" stroke-width="0.576" stroke-linecap="butt" d="M342.680 17.360L392.700 17.360L392.700 0.680L342.680 0.680Z" />
<path fill="none" stroke="#000000" stroke-width="0.576" stroke-linecap="butt" d="M509.420 17.360L559.450 17.360L559.450 0.680L509.420 0.680Z" />
<path fill="none" stroke="#000000" stroke-width="0.576" stroke-linecap="butt" d="M426.050 17.360L476.080 17.360L476.080 0.680L426.050 0.680Z" />
<path fill="none" stroke="#000000" stroke-width="0.576" stroke-linecap="butt" d="M259.310 17.360L309.330 17.360L309.330 0.680L259.310 0.680Z" />
<path fill="none" stroke="#000000" stroke-width="0.576" stroke-linecap="butt" d="M175.940 17.360L225.960 17.360L225.960 0.680L175.940 0.680Z" />
<path fill="none" stroke="#000000" stroke-width="0.576" stroke-linecap="butt" d="M92.570 17.360L142.590 17.360L142.590 0.680L92.570 0.680Z" />
<path fill="none" stroke="#000000" stroke-width="0.576" stroke-linecap="butt" d="M9.190 17.360L59.220 17.360L59.220 0.680L9.190 0.680Z" />
<path fill="none" stroke="#d87219" stroke-width="0.824" d="M511.156 137.494C511.596 137.937 512.148 138.252 512.754 138.405C513.302 138.542 513.875 138.542 514.422 138.405C515.028 138.252 515.581 137.937 516.021 137.494L516.012 137.494C515.521 137.780 514.982 137.977 514.422 138.075C513.870 138.172 513.306 138.172 512.754 138.075C512.191 137.977 511.651 137.780 511.156 137.494" />
<path fill="none" stroke="#d87219" stroke-width="0.824" d="M519.494 137.494C519.933 137.937 520.486 138.252 521.092 138.405C521.639 138.542 522.212 138.542 522.760 138.405C523.366 138.252 523.919 137.937 524.359 137.494L524.350 137.494C523.858 137.780 523.320 137.977 522.760 138.075C522.208 138.172 521.644 138.172 521.092 138.075C520.529 137.977 519.988 137.780 519.494 137.494" />
<path fill="none" stroke="#d87219" stroke-width="0.824" d="M527.831 137.494C528.271 137.937 528.823 138.252 529.429 138.405C529.977 138.542 530.550 138.542 531.097 138.405C531.703 138.252 532.256 137.937 532.696 137.494L532.687 137.494C532.196 137.780 531.657 137.977 531.097 138.075C530.545 138.172 529.981 138.172 529.429 138.075C528.866 137.977 528.326 137.780 527.831 137.494" />
<path fill="none" stroke="#d87219" stroke-width="0.824" d="M536.169 137.494C536.608 137.937 537.161 138.252 537.767 138.405C538.314 138.542 538.887 138.542 539.435 138.405C540.041 138.252 540.594 137.937 541.034 137.494L541.025 137.494C540.533 137.780 539.995 137.977 539.435 138.075C538.883 138.172 538.319 138.172 537.767 138.075C537.204 137.977 536.663 137.780 536.169 137.494" />
<path fill="none" stroke="#d87219" stroke-width="0.824" d="M544.505 137.494C544.945 137.937 545.498 138.252 546.104 138.405C546.652 138.542 547.225 138.542 547.772 138.405C548.378 138.252 548.931 137.937 549.370 137.494L549.362 137.494C548.871 137.780 548.332 137.977 547.772 138.075C547.220 138.172 546.656 138.172 546.104 138.075C545.541 137.977 545.000 137.780 544.505 137.494" />
<path fill="none" stroke="#d87219" stroke-width="0.824" d="M552.843 137.494C553.283 137.937 553.836 138.252 554.442 138.405C554.989 138.542 555.562 138.542 556.110 138.405C556.716 138.252 557.268 137.937 557.708 137.494L557.700 137.494C557.208 137.780 556.670 137.977 556.110 138.075C555.558 138.172 554.994 138.172 554.442 138.075C553.879 137.977 553.337 137.780 552.843 137.494" />
<path fill="none" stroke="#d87219" stroke-width="0.824" d="M561.180 137.494C561.620 137.937 562.173 138.252 562.779 138.405C563.327 138.542 563.900 138.542 564.447 138.405C565.053 138.252 565.606 137.937 566.045 137.494L566.037 137.494C565.546 137.780 565.007 137.977 564.447 138.075C563.895 138.172 563.331 138.172 562.779 138.075C562.216 137.977 561.675 137.780 561.180 137.494" />
<path fill="none" stroke="#d87219" stroke-width="0.824" d="M569.518 137.494C569.958 137.937 570.511 138.252 571.117 138.405C571.664 138.542 572.237 138.542 572.785 138.405C573.390 138.252 573.943 137.937 574.383 137.494L574.375 137.494C573.883 137.780 573.345 137.977 572.785 138.075C572.233 138.172 571.669 138.172 571.117 138.075C570.554 137.977 570.012 137.780 569.518 137.494" />
<path fill="#ffffff" stroke="none" d="M434.390 138.240L438.560 146.580L442.730 149.080L446.900 149.500L455.230 149.080L459.400 147.420L451.060 138.240L443.560 136.580Z" />
<path fill="none" stroke="#4c4c4c" stroke-width="0.824" d="M434.390 138.240L438.560 146.580L442.730 149.080L446.900 149.500L455.230 149.080L459.400 147.420L451.060 138.240L443.560 136.580Z" />
<path fill="none" stroke="#000000" stroke-width="0.824" d="M342.680 138.240L409.380 138.240" />
<path fill="none" stroke="#000000" stroke-width="0.824" d="M405.262 139.887L409.380 138.240L405.262 136.593" />
<path fill="none" stroke="#4c4c4c" stroke-width="0.576" d="M259.310 138.240L326.010 138.240" />
<path fill="none" stroke="#b20000" stroke-width="0.576" d="M175.940 138.240L242.630 138.240" />
<path fill="#ffffff" stroke="none" d="M96.737 138.240L92.570 138.240L92.570 140.324L93.403 140.324L94.237 140.324L95.070 140.324L95.904 140.324L96.737 140.324Z" />
<path fill="none" stroke="#00b2e5" stroke-width="0.824" d="M92.570 138.240L159.260 138.240" />
<path fill="none" stroke="#00b2e5" stroke-width="0.824" d="M95.070 138.240L95.070 141.019" />
<path fill="#ffffff" stroke="none" d="M100.905 138.240L96.738 138.240L96.738 140.324L97.572 140.324L98.405 140.324L99.238 140.324L100.072 140.324L100.905 140.324Z" />
<path fill="none" stroke="#00b2e5" stroke-width="0.824" d="M92.570 138.240L159.260 138.240" />
<path fill="none" stroke="#00b2e5" stroke-width="0.824" d="M99.238 138.240L99.238 141.019" />
<path fill="#ffffff" stroke="none" d="M105.073 138.240L100.906 138.240L100.906 140.324L101.740 140.324L102.573 140.324L103.407 140.324L104.240 140.324L105.073 140.324Z" />
<path fill="none" stroke="#00b2e5" stroke-width="0.824" d="M92.570 138.240L159.260 138.240" />
<path fill="none" stroke="#00b2e5" stroke-width="0.824" d="M103.407 138.240L103.407 141.019" />
<path fill="#ffffff" stroke="none" d="M109.241 138.240L105.074 138.240L105.074 140.324L105.908 140.324L106.741 140.324L107.575 140.324L108.408 140.324L109.241 140.324Z" />
<path fill="none" stroke="#00b2e5" stroke-width="0.824" d="M92.570 138.240L159.260 138.240" />
<path fill="none" stroke="#00b2e5" stroke-width="0.824" d="M107.575 138.240L107.575 141.019" />
<path fill="#ffffff" stroke="none" d="M113.410 138.240L109.242 138.240L109.242 140.324L110.076 140.324L110.909 140.324L111.743 140.324L112.576 140.324L113.410 140.324Z" />
<path fill="none" stroke="#00b2e5" stroke-width="0.824" d="M92.570 138.240L159.260 138.240" />
<path fill="none" stroke="#00b2e5" stroke-width="0.824" d="M111.743 138.240L111.743 141.019" />
<path fill="#ffffff" stroke="none" d="M117.577 138.240L113.411 138.240L113.411 140.324L114.244 140.324L115.077 140.324L115.911 140.324L116.744 140.324L117.578 140.324Z" />
<path fill="none" stroke="#00b2e5" stroke-width="0.824" d="M92.570 138.240L159.260 138.240" />
<path fill="none" stroke="#00b2e5" stroke-width="0.824" d="M115.911 138.240L115.911 141.019" />
<path fill="#ffffff" stroke="none" d="M121.746 138.240L117.579 138.240L117.579 140.324L118.412 140.324L119.246 140.324L120.079 140.324L120.912 140.324L121.746 140.324Z" />
<path fill="none" stroke="#00b2e5" stroke-width="0.824" d="M92.570 138.240L159.260 138.240" />
<path fill="none" stroke="#00b2e5" stroke-width="0.824" d="M120.079 138.240L120.079 141.019" />
<path fill="#ffffff" stroke="none" d="M125.914 138.240L121.747 138.240L121.747 140.324L122.580 140.324L123.414 140.324L124.247 140.324L125.081 140.324L125.914 140.324Z" />
<path fill="none" stroke="#00b2e5" stroke-width="0.824" d="M92.570 138.240L159.260 138.240" />
<path fill="none" stroke="#00b2e5" stroke-width="0.824" d="M124.247 138.240L124.247 141.019" />
<path fill="#ffffff" stroke="none" d="M130.082 138.240L125.914 138.240L125.914 140.324L126.748 140.324L127.582 140.324L128.415 140.324L129.249 140.324L130.082 140.324Z" />
<path fill="none" stroke="#00b2e5" stroke-width="0.824" d="M92.570 138.240L159.260 138.240" />
<path fill="none" stroke="#00b2e5" stroke-width="0.824" d="M128.415 138.240L128.415 141.019" />
<path fill="#ffffff" stroke="none" d="M134.250 138.240L130.082 138.240L130.082 140.324L130.917 140.324L131.750 140.324L132.583 140.324L133.417 140.324L134.250 140.324Z" />
<path fill="none" stroke="#00b2e5" stroke-width="0.824" d="M92.570 138.240L159.260 138.240" />
<path fill="none" stroke="#00b2e5" stroke-width="0.824" d="M132.583 138.240L132.583 141.019" />
<path fill="#ffffff" stroke="none" d="M138.418 138.240L134.250 138.240L134.250 140.324L135.085 140.324L135.918 140.324L136.752 140.324L137.585 140.324L138.418 140.324Z" />
<path fill="none" stroke="#00b2e5" stroke-width="0.824" d="M92.570 138.240L159.260 138.240" />
<path fill="none" stroke="#00b2e5" stroke-width="0.824" d="M136.752 138.240L136.752 141.019" />
<path fill="#ffffff" stroke="none" d="M142.587 138.240L138.418 138.240L138.418 140.324L139.253 140.324L140.086 140.324L140.920 140.324L141.753 140.324L142.587 140.324Z" />
<path fill="none" stroke="#00b2e5" stroke-width="0.824" d="M92.570 138.240L159.260 138.240" />
<path fill="none" stroke="#00b2e5" stroke-width="0.824" d="M140.920 138.240L140.920 141.019" />
<path fill="#ffffff" stroke="none" d="M146.755 138.240L142.587 138.240L142.587 140.324L143.421 140.324L144.254 140.324L145.088 140.324L145.921 140.324L146.755 140.324Z" />
<path fill="none" stroke="#00b2e5" stroke-width="0.824" d="M92.570 138.240L159.260 138.240" />
<path fill="none" stroke="#00b2e5" stroke-width="0.824" d="M145.088 138.240L145.088 141.019" />
<path fill="#ffffff" stroke="none" d="M150.923 138.240L146.755 138.240L146.755 140.324L147.589 140.324L148.422 140.324L149.256 140.324L150.089 140.324L150.923 140.324Z" />
<path fill="none" stroke="#00b2e5" stroke-width="0.824" d="M92.570 138.240L159.260 138.240" />
<path fill="none" stroke="#00b2e5" stroke-width="0.824" d="M149.256 138.240L149.256 141.019" />
<path fill="#ffffff" stroke="none" d="M155.091 138.240L150.923 138.240L150.923 140.324L151.757 140.324L152.591 140.324L153.424 140.324L154.257 140.324L155.091 140.324Z" />
<path fill="none" stroke="#00b2e5" stroke-width="0.824" d="M92.570 138.240L159.260 138.240" />
<path fill="none" stroke="#00b2e5" stroke-width="0.824" d="M153.424 138.240L153.424 141.019" />
<path fill="#ffffff" stroke="none" d="M159.259 138.240L155.091 138.240L155.091 140.324L155.925 140.324L156.759 140.324L157.592 140.324L158.426 140.324L159.259 140.324Z" />
<path fill="none" stroke="#00b2e5" stroke-width="0.824" d="M92.570 138.240L159.260 138.240" />
<path fill="none" stroke="#00b2e5" stroke-width="0.824" d="M157.592 138.240L157.592 141.019" />
<path fill="#ffffff" stroke="none" d="M11.274 138.240L15.443 138.240L13.359 142.409Z" />
<path fill="#00b2e5" stroke="none" d="M15.443 138.240L13.359 142.409L11.274 138.240Z" />
<path fill="#ffffff" stroke="none" d="M19.612 138.240L23.781 138.240L21.696 142.409Z" />
<path fill="#00b2e5" stroke="none" d="M23.781 138.240L21.696 142.409L19.612 138.240Z" />
<path fill="#ffffff" stroke="none" d="M27.949 138.240L32.118 138.240L30.034 142.409Z" />
<path fill="#00b2e5" stroke="none" d="M32.118 138.240L30.034 142.409L27.949 138.240Z" />
<path fill="#ffffff" stroke="none" d="M36.287 138.240L40.456 138.240L38.371 142.409Z" />
<path fill="#00b2e5" stroke="none" d="M40.456 138.240L38.371 142.409L36.287 138.240Z" />
<path fill="#ffffff" stroke="none" d="M44.623 138.240L48.792 138.240L46.709 142.409Z" />
<path fill="#00b2e5" stroke="none" d="M48.792 138.240L46.709 142.409L44.623 138.240Z" />
<path fill="#ffffff" stroke="none" d="M52.961 138.240L57.130 138.240L55.046 142.409Z" />
<path fill="#00b2e5" stroke="none" d="M57.130 138.240L55.046 142.409L52.961 138.240Z" />
<path fill="#ffffff" stroke="none" d="M61.298 138.240L65.467 138.240L63.384 142.409Z" />
<path fill="#00b2e5" stroke="none" d="M65.467 138.240L63.384 142.409L61.298 138.240Z" />
<path fill="#ffffff" stroke="none" d="M69.636 138.240L73.805 138.240L71.721 142.409Z" />
<path fill="#00b2e5" stroke="none" d="M73.805 138.240L71.721 142.409L69.636 138.240Z" />
<path fill="none" stroke="#00b2e5" stroke-width="0.824" d="M9.190 138.240L75.890 138.240" />
<path fill="none" stroke="#000000" stroke-width="0.824" d="M509.420 188.270L576.120 188.270" />
<path fill="none" stroke="#000000" stroke-width="0.576" d="M426.050 188.270L426.050 191.564" />
<path fill="none" stroke="#000000" stroke-width="0.576" d="M430.219 188.270L430.219 191.564" />
<path fill="none" stroke="#000000" stroke-width="0.576" d="M434.388 188.270L434.388 191.564" />
<path fill="none" stroke="#000000" stroke-width="0.576" d="M438.556 188.270L438.556 191.564" />
<path fill="none" stroke="#000000" stroke-width="0.576" d="M442.725 188.270L442.725 191.564" />
<path fill="none" stroke="#000000" stroke-width="0.576" d="M446.894 188.270L446.894 191.564" />
<path fill="none" stroke="#000000" stroke-width="0.576" d="M451.063 188.270L451.063 191.564" />
<path fill="none" stroke="#000000" stroke-width="0.576" d="M455.231 188.270L455.231 191.564" />
<path fill="none" stroke="#000000" stroke-width="0.576" d="M459.399 188.270L459.399 191.564" />
<path fill="none" stroke="#000000" stroke-width="0.576" d="M463.568 188.270L463.568 191.564" />
<path fill="none" stroke="#000000" stroke-width="0.576" d="M467.736 188.270L467.736 191.564" />
<path fill="none" stroke="#000000" stroke-width="0.576" d="M471.905 188.270L471.905 191.564" />
<path fill="none" stroke="#000000" stroke-width="0.576" d="M476.074 188.270L476.074 191.564" />
<path fill="none" stroke="#000000" stroke-width="0.576" d="M480.243 188.270L480.243 191.564" />
<path fill="none" stroke="#000000" stroke-width="0.576" d="M484.411 188.270L484.411 191.564" />
<path fill="none" stroke="#000000" stroke-width="0.576" d="M488.580 188.270L488.580 191.564" />
<path fill="none" stroke="#000000" stroke-width="0.576" d="M492.749 188.270L492.749 191.564" />
<path fill="none" stroke="#000000" stroke-width="0.824" d="M426.050 188.270L492.750 188.270" />
<path fill="#ffffff" stroke="none" d="M344.764 188.270L348.933 188.270L346.849 192.439Z" />
<path fill="none" stroke="#000000" stroke-width="0.824" d="M348.933 188.270L346.849 192.439L344.764 188.270" />
<path fill="#ffffff" stroke="none" d="M353.102 188.270L357.271 188.270L355.186 192.439Z" />
<path fill="none" stroke="#000000" stroke-width="0.824" d="M357.271 188.270L355.186 192.439L353.102 188.270" />
<path fill="#ffffff" stroke="none" d="M361.439 188.270L365.608 188.270L363.524 192.439Z" />
<path fill="none" stroke="#000000" stroke-width="0.824" d="M365.608 188.270L363.524 192.439L361.439 188.270" />
<path fill="#ffffff" stroke="none" d="M369.777 188.270L373.946 188.270L371.861 192.439Z" />
<path fill="none" stroke="#000000" stroke-width="0.824" d="M373.946 188.270L371.861 192.439L369.777 188.270" />
<path fill="#ffffff" stroke="none" d="M378.114 188.270L382.283 188.270L380.199 192.439Z" />
<path fill="none" stroke="#000000" stroke-width="0.824" d="M382.283 188.270L380.199 192.439L378.114 188.270" />
<path fill="#ffffff" stroke="none" d="M386.452 188.270L390.621 188.270L388.536 192.439Z" />
<path fill="none" stroke="#000000" stroke-width="0.824" d="M390.621 188.270L388.536 192.439L386.452 188.270" />
<path fill="#ffffff" stroke="none" d="M394.789 188.270L398.958 188.270L396.874 192.439Z" />
<path fill="none" stroke="#000000" stroke-width="0.824" d="M398.958 188.270L396.874 192.439L394.789 188.270" />
<path fill="#ffffff" stroke="none" d="M403.127 188.270L407.296 188.270L405.211 192.439Z" />
<path fill="none" stroke="#000000" stroke-width="0.824" d="M407.296 188.270L405.211 192.439L403.127 188.270" />
<path fill="none" stroke="#000000" stroke-width="0.824" d="M342.680 188.270L409.380 188.270" />
<path fill="#ffffff" stroke="none" d="M261.394 188.270L265.563 188.270L263.479 192.439Z" />
<path fill="#000000" stroke="none" d="M265.563 188.270L263.479 192.439L261.394 188.270Z" />
<path fill="#ffffff" stroke="none" d="M269.732 188.270L273.901 188.270L271.816 192.439Z" />
<path fill="#000000" stroke="none" d="M273.901 188.270L271.816 192.439L269.732 188.270Z" />
<path fill="#ffffff" stroke="none" d="M278.069 188.270L282.238 188.270L280.154 192.439Z" />
<path fill="#000000" stroke="none" d="M282.238 188.270L280.154 192.439L278.069 188.270Z" />
<path fill="#ffffff" stroke="none" d="M286.407 188.270L290.576 188.270L288.491 192.439Z" />
<path fill="#000000" stroke="none" d="M290.576 188.270L288.491 192.439L286.407 188.270Z" />
<path fill="#ffffff" stroke="none" d="M294.743 188.270L298.912 188.270L296.829 192.439Z" />
<path fill="#000000" stroke="none" d="M298.912 188.270L296.829 192.439L294.743 188.270Z" />
<path fill="#ffffff" stroke="none" d="M303.081 188.270L307.250 188.270L305.166 192.439Z" />
<path fill="#000000" stroke="none" d="M307.250 188.270L305.166 192.439L303.081 188.270Z" />
<path fill="#ffffff" stroke="none" d="M311.418 188.270L315.587 188.270L313.504 192.439Z" />
<path fill="#000000" stroke="none" d="M315.587 188.270L313.504 192.439L311.418 188.270Z" />
<path fill="#ffffff" stroke="none" d="M319.756 188.270L323.925 188.270L321.841 192.439Z" />
<path fill="#000000" stroke="none" d="M323.925 188.270L321.841 192.439L319.756 188.270Z" />
<path fill="none" stroke="#000000" stroke-width="0.824" d="M259.310 188.270L326.010 188.270" />
<path fill="#ffffff" stroke="none" d="M180.107 188.270L175.940 188.270L175.940 190.354L176.773 190.354L177.607 190.354L178.440 190.354L179.274 190.354L180.107 190.354Z" />
<path fill="none" stroke="#000000" stroke-width="0.824" d="M175.940 190.354L176.773 190.354L177.607 190.354L178.440 190.354L179.274 190.354L180.107 190.354" />
<path fill="none" stroke="#000000" stroke-width="0.824" d="M178.440 190.354L178.440 193.827" />
<path fill="#ffffff" stroke="none" d="M184.275 188.270L180.108 188.270L180.108 190.354L180.942 190.354L181.775 190.354L182.608 190.354L183.442 190.354L184.275 190.354Z" />
<path fill="none" stroke="#000000" stroke-width="0.824" d="M180.108 190.354L180.942 190.354L181.775 190.354L182.608 190.354L183.442 190.354L184.275 190.354" />
<path fill="none" stroke="#000000" stroke-width="0.824" d="M182.608 190.354L182.608 193.827" />
<path fill="#ffffff" stroke="none" d="M188.443 188.270L184.276 188.270L184.276 190.354L185.110 190.354L185.943 190.354L186.776 190.354L187.610 190.354L188.443 190.354Z" />
<path fill="none" stroke="#000000" stroke-width="0.824" d="M184.276 190.354L185.110 190.354L185.943 190.354L186.776 190.354L187.610 190.354L188.443 190.354" />
<path fill="none" stroke="#000000" stroke-width="0.824" d="M186.776 190.354L186.776 193.827" />
<path fill="#ffffff" stroke="none" d="M192.611 188.270L188.444 188.270L188.444 190.354L189.278 190.354L190.111 190.354L190.945 190.354L191.778 190.354L192.611 190.354Z" />
<path fill="none" stroke="#000000" stroke-width="0.824" d="M188.444 190.354L189.278 190.354L190.111 190.354L190.945 190.354L191.778 190.354L192.611 190.354" />
<path fill="none" stroke="#000000" stroke-width="0.824" d="M190.945 190.354L190.945 193.827" />
<path fill="#ffffff" stroke="none" d="M196.780 188.270L192.613 188.270L192.613 190.354L193.446 190.354L194.279 190.354L195.113 190.354L195.946 190.354L196.780 190.354Z" />
<path fill="none" stroke="#000000" stroke-width="0.824" d="M192.613 190.354L193.446 190.354L194.279 190.354L195.113 190.354L195.946 190.354L196.780 190.354" />
<path fill="none" stroke="#000000" stroke-width="0.824" d="M195.113 190.354L195.113 193.827" />
<path fill="#ffffff" stroke="none" d="M200.947 188.270L196.781 188.270L196.781 190.354L197.614 190.354L198.447 190.354L199.281 190.354L200.114 190.354L200.948 190.354Z" />
<path fill="none" stroke="#000000" stroke-width="0.824" d="M196.781 190.354L197.614 190.354L198.447 190.354L199.281 190.354L200.114 190.354L200.948 190.354" />
<path fill="none" stroke="#000000" stroke-width="0.824" d="M199.281 190.354L199.281 193.827" />
<path fill="#ffffff" stroke="none" d="M205.116 188.270L200.949 188.270L200.949 190.354L201.782 190.354L202.616 190.354L203.449 190.354L204.282 190.354L205.116 190.354Z" />
<path fill="none" stroke="#000000" stroke-width="0.824" d="M200.949 190.354L201.782 190.354L202.616 190.354L203.449 190.354L204.282 190.354L205.116 190.354" />
<path fill="none" stroke="#000000" stroke-width="0.824" d="M203.449 190.354L203.449 193.827" />
<path fill="#ffffff" stroke="none" d="M209.284 188.270L205.117 188.270L205.117 190.354L205.950 190.354L206.784 190.354L207.617 190.354L208.451 190.354L209.284 190.354Z" />
<path fill="none" stroke="#000000" stroke-width="0.824" d="M205.117 190.354L205.950 190.354L206.784 190.354L207.617 190.354L208.451 190.354L209.284 190.354" />
<path fill="none" stroke="#000000" stroke-width="0.824" d="M207.617 190.354L207.617 193.827" />
<path fill="#ffffff" stroke="none" d="M213.452 188.270L209.284 188.270L209.284 190.354L210.118 190.354L210.952 190.354L211.785 190.354L212.619 190.354L213.452 190.354Z" />
<path fill="none" stroke="#000000" stroke-width="0.824" d="M209.284 190.354L210.118 190.354L210.952 190.354L211.785 190.354L212.619 190.354L213.452 190.354" />
<path fill="none" stroke="#000000" stroke-width="0.824" d="M211.785 190.354L211.785 193.827" />
<path fill="#ffffff" stroke="none" d="M217.620 188.270L213.452 188.270L213.452 190.354L214.287 190.354L215.120 190.354L215.953 190.354L216.787 190.354L217.620 190.354Z" />
<path fill="none" stroke="#000000" stroke-width="0.824" d="M213.452 190.354L214.287 190.354L215.120 190.354L215.953 190.354L216.787 190.354L217.620 190.354" />
<path fill="none" stroke="#000000" stroke-width="0.824" d="M215.953 190.354L215.953 193.827" />
<path fill="#ffffff" stroke="none" d="M221.788 188.270L217.620 188.270L217.620 190.354L218.455 190.354L219.288 190.354L220.122 190.354L220.955 190.354L221.788 190.354Z" />
<path fill="none" stroke="#000000" stroke-width="0.824" d="M217.620 190.354L218.455 190.354L219.288 190.354L220.122 190.354L220.955 190.354L221.788 190.354" />
<path fill="none" stroke="#000000" stroke-width="0.824" d="M220.122 190.354L220.122 193.827" />
<path fill="#ffffff" stroke="none" d="M225.957 188.270L221.788 188.270L221.788 190.354L222.623 190.354L223.456 190.354L224.290 190.354L225.123 190.354L225.957 190.354Z" />
<path fill="none" stroke="#000000" stroke-width="0.824" d="M221.788 190.354L222.623 190.354L223.456 190.354L224.290 190.354L225.123 190.354L225.957 190.354" />
<path fill="none" stroke="#000000" stroke-width="0.824" d="M224.290 190.354L224.290 193.827" />
<path fill="#ffffff" stroke="none" d="M230.125 188.270L225.957 188.270L225.957 190.354L226.791 190.354L227.624 190.354L228.458 190.354L229.291 190.354L230.125 190.354Z" />
<path fill="none" stroke="#000000" stroke-width="0.824" d="M225.957 190.354L226.791 190.354L227.624 190.354L228.458 190.354L229.291 190.354L230.125 190.354" />
<path fill="none" stroke="#000000" stroke-width="0.824" d="M228.458 190.354L228.458 193.827" />
<path fill="#ffffff" stroke="none" d="M234.293 188.270L230.125 188.270L230.125 190.354L230.959 190.354L231.792 190.354L232.626 190.354L233.459 190.354L234.293 190.354Z" />
<path fill="none" stroke="#000000" stroke-width="0.824" d="M230.125 190.354L230.959 190.354L231.792 190.354L232.626 190.354L233.459 190.354L234.293 190.354" />
<path fill="none" stroke="#000000" stroke-width="0.824" d="M232.626 190.354L232.626 193.827" />
<path fill="#ffffff" stroke="none" d="M238.461 188.270L234.293 188.270L234.293 190.354L235.127 190.354L235.961 190.354L236.794 190.354L237.627 190.354L238.461 190.354Z" />
<path fill="none" stroke="#000000" stroke-width="0.824" d="M234.293 190.354L235.127 190.354L235.961 190.354L236.794 190.354L237.627 190.354L238.461 190.354" />
<path fill="none" stroke="#000000" stroke-width="0.824" d="M236.794 190.354L236.794 193.827" />
<path fill="#ffffff" stroke="none" d="M242.629 188.270L238.461 188.270L238.461 190.354L239.295 190.354L240.129 190.354L240.962 190.354L241.796 190.354L242.629 190.354Z" />
<path fill="none" stroke="#000000" stroke-width="0.824" d="M238.461 190.354L239.295 190.354L240.129 190.354L240.962 190.354L241.796 190.354L242.629 190.354" />
<path fill="none" stroke="#000000" stroke-width="0.824" d="M240.962 190.354L240.962 193.827" />
<path fill="none" stroke="#000000" stroke-width="1.647" d="M175.940 188.270L242.630 188.270" />
<path fill="#ffffff" stroke="none" d="M17.526 188.270L9.190 188.270L9.190 192.439C9.206 191.445 9.891 190.588 10.857 190.354C11.402 190.222 11.966 190.319 12.524 190.354C13.079 190.390 13.636 190.364 14.192 190.354C14.748 190.345 15.304 190.351 15.859 190.354C16.415 190.358 16.971 190.358 17.526 190.354Z" />
<path fill="none" stroke="#000000" stroke-width="0.824" d="M9.190 190.354L10.857 190.354L12.524 190.354L14.192 190.354L15.859 190.354L17.526 190.354" />
<path fill="#000000" stroke="#000000" stroke-width="0.824" d="M12.524 190.354L14.192 194.523L15.859 190.354L14.192 190.354Z" />
<path fill="none" stroke="#000000" stroke-width="0.824" d="M12.524 190.354L14.192 194.523L15.859 190.354" />
<path fill="#ffffff" stroke="none" d="M25.864 188.270L17.528 188.270L17.528 192.439C17.543 191.445 18.229 190.588 19.195 190.354C19.740 190.222 20.304 190.319 20.862 190.354C21.417 190.390 21.974 190.364 22.530 190.354C23.085 190.345 23.641 190.351 24.197 190.354C24.753 190.358 25.308 190.358 25.864 190.354Z" />
<path fill="none" stroke="#000000" stroke-width="0.824" d="M17.528 190.354L19.195 190.354L20.862 190.354L22.530 190.354L24.197 190.354L25.864 190.354" />
<path fill="#000000" stroke="#000000" stroke-width="0.824" d="M20.862 190.354L22.530 194.523L24.197 190.354L22.530 190.354Z" />
<path fill="none" stroke="#000000" stroke-width="0.824" d="M20.862 190.354L22.530 194.523L24.197 190.354" />
<path fill="#ffffff" stroke="none" d="M34.201 188.270L25.865 188.270L25.865 192.439C25.881 191.445 26.566 190.588 27.532 190.354C28.077 190.222 28.641 190.319 29.199 190.354C29.754 190.390 30.311 190.364 30.867 190.354C31.423 190.345 31.979 190.351 32.534 190.354C33.090 190.358 33.646 190.358 34.201 190.354Z" />
<path fill="none" stroke="#000000" stroke-width="0.824" d="M25.865 190.354L27.532 190.354L29.199 190.354L30.867 190.354L32.534 190.354L34.201 190.354" />
<path fill="#000000" stroke="#000000" stroke-width="0.824" d="M29.199 190.354L30.867 194.523L32.534 190.354L30.867 190.354Z" />
<path fill="none" stroke="#000000" stroke-width="0.824" d="M29.199 190.354L30.867 194.523L32.534 190.354" />
<path fill="#ffffff" stroke="none" d="M42.539 188.270L34.203 188.270L34.203 192.439C34.218 191.445 34.904 190.588 35.870 190.354C36.415 190.222 36.979 190.319 37.537 190.354C38.092 190.390 38.649 190.364 39.205 190.354C39.760 190.345 40.316 190.351 40.872 190.354C41.428 190.358 41.983 190.358 42.539 190.354Z" />
<path fill="none" stroke="#000000" stroke-width="0.824" d="M34.203 190.354L35.870 190.354L37.537 190.354L39.205 190.354L40.872 190.354L42.539 190.354" />
<path fill="#000000" stroke="#000000" stroke-width="0.824" d="M37.537 190.354L39.205 194.523L40.872 190.354L39.205 190.354Z" />
<path fill="none" stroke="#000000" stroke-width="0.824" d="M37.537 190.354L39.205 194.523L40.872 190.354" />
<path fill="#ffffff" stroke="none" d="M50.877 188.270L42.539 188.270L42.539 192.439C42.555 191.445 43.241 190.588 44.207 190.354C44.752 190.223 45.316 190.319 45.874 190.354C46.429 190.390 46.986 190.364 47.542 190.354C48.098 190.345 48.654 190.351 49.209 190.354C49.765 190.358 50.321 190.358 50.876 190.354Z" />
<path fill="none" stroke="#000000" stroke-width="0.824" d="M42.539 190.354L44.207 190.354L45.874 190.354L47.542 190.354L49.209 190.354L50.876 190.354" />
<path fill="#000000" stroke="#000000" stroke-width="0.824" d="M45.874 190.354L47.542 194.523L49.209 190.354L47.542 190.354Z" />
<path fill="none" stroke="#000000" stroke-width="0.824" d="M45.874 190.354L47.542 194.523L49.209 190.354" />
<path fill="#ffffff" stroke="none" d="M59.214 188.270L50.876 188.270L50.876 192.439C50.893 191.445 51.579 190.588 52.545 190.354C53.090 190.223 53.654 190.319 54.212 190.354C54.767 190.390 55.324 190.364 55.880 190.354C56.435 190.345 56.991 190.351 57.547 190.354C58.103 190.358 58.658 190.358 59.214 190.354Z" />
<path fill="none" stroke="#000000" stroke-width="0.824" d="M50.876 190.354L52.545 190.354L54.212 190.354L55.880 190.354L57.547 190.354L59.214 190.354" />
<path fill="#000000" stroke="#000000" stroke-width="0.824" d="M54.212 190.354L55.880 194.523L57.547 190.354L55.880 190.354Z" />
<path fill="none" stroke="#000000" stroke-width="0.824" d="M54.212 190.354L55.880 194.523L57.547 190.354" />
<path fill="#ffffff" stroke="none" d="M67.551 188.270L59.214 188.270L59.214 192.439C59.230 191.445 59.916 190.588 60.882 190.354C61.427 190.222 61.991 190.319 62.549 190.354C63.104 190.390 63.661 190.364 64.217 190.354C64.773 190.345 65.329 190.351 65.884 190.354C66.440 190.358 66.996 190.358 67.551 190.354Z" />
<path fill="none" stroke="#000000" stroke-width="0.824" d="M59.214 190.354L60.882 190.354L62.549 190.354L64.217 190.354L65.884 190.354L67.551 190.354" />
<path fill="#000000" stroke="#000000" stroke-width="0.824" d="M62.549 190.354L64.217 194.523L65.884 190.354L64.217 190.354Z" />
<path fill="none" stroke="#000000" stroke-width="0.824" d="M62.549 190.354L64.217 194.523L65.884 190.354" />
<path fill="#ffffff" stroke="none" d="M75.889 188.270L67.551 188.270L67.551 192.439C67.568 191.445 68.254 190.588 69.220 190.354C69.765 190.223 70.329 190.319 70.887 190.354C71.442 190.390 71.999 190.364 72.555 190.354C73.110 190.345 73.666 190.351 74.222 190.354C74.778 190.358 75.333 190.358 75.889 190.354Z" />
<path fill="none" stroke="#000000" stroke-width="0.824" d="M67.551 190.354L69.220 190.354L70.887 190.354L72.555 190.354L74.222 190.354L75.889 190.354" />
<path fill="#000000" stroke="#000000" stroke-width="0.824" d="M70.887 190.354L72.555 194.523L74.222 190.354L72.555 190.354Z" />
<path fill="none" stroke="#000000" stroke-width="0.824" d="M70.887 190.354L72.555 194.523L74.222 190.354" />
<path fill="none" stroke="#000000" stroke-width="1.647" d="M9.190 188.270L75.890 188.270" />
<path fill="none" stroke="#000000" stroke-width="1.647" d="M92.570 188.270L159.260 188.270" />
<path fill="none" stroke="#000000" stroke-width="0.824" d="M93.804 190.329L96.275 190.329L98.746 190.329L101.217 190.329L103.686 190.329L106.157 190.329L108.628 190.329L111.099 190.329L113.568 190.329L116.039 190.329L118.510 190.329L120.981 190.329L123.450 190.329L125.921 190.329L128.392 190.329L130.862 190.329L133.332 190.329L135.803 190.329L138.274 190.329L140.744 190.329L143.214 190.329L145.685 190.329L148.156 190.329L150.626 190.329L153.096 190.329L155.567 190.329L158.038 190.329" />
<path fill="none" stroke="#000000" stroke-width="0.824" d="M96.098 190.329L96.275 190.329L98.746 190.329L100.687 190.329L98.392 194.917Z" />
<path fill="#ffffff" stroke="none" d="M105.275 190.329L106.157 190.329L108.628 190.329L109.863 190.329L107.569 194.917Z" />
<path fill="none" stroke="#000000" stroke-width="0.824" d="M105.275 190.329L106.157 190.329L108.628 190.329L109.863 190.329L107.569 194.917Z" />
<path fill="#ffffff" stroke="none" d="M114.451 190.329L116.039 190.329L118.510 190.329L119.039 190.329L116.745 194.917Z" />
<path fill="none" stroke="#000000" stroke-width="0.824" d="M114.451 190.329L116.039 190.329L118.510 190.329L119.039 190.329L116.745 194.917Z" />
<path fill="#ffffff" stroke="none" d="M123.627 190.329L125.921 190.329L128.215 190.329L125.921 194.917Z" />
<path fill="none" stroke="#000000" stroke-width="0.824" d="M123.627 190.329L125.921 190.329L128.215 190.329L125.921 194.917Z" />
<path fill="#ffffff" stroke="none" d="M132.803 190.329L133.332 190.329L135.803 190.329L137.391 190.329L135.097 194.917Z" />
<path fill="none" stroke="#000000" stroke-width="0.824" d="M132.803 190.329L133.332 190.329L135.803 190.329L137.391 190.329L135.097 194.917Z" />
<path fill="#ffffff" stroke="none" d="M141.980 190.329L143.214 190.329L145.685 190.329L146.568 190.329L144.274 194.917Z" />
<path fill="none" stroke="#000000" stroke-width="0.824" d="M141.980 190.329L143.214 190.329L145.685 190.329L146.568 190.329L144.274 194.917Z" />
<path fill="#ffffff" stroke="none" d="M151.156 190.329L153.096 190.329L155.567 190.329L155.744 190.329L153.450 194.917Z" />
<path fill="none" stroke="#000000" stroke-width="0.824" d="M151.156 190.329L153.096 190.329L155.567 190.329L155.744 190.329L153.450 194.917Z" />
<path fill="none" stroke="#b24c33" stroke-width="0.824" d="M511.118 234.172C511.118 235.819 513.589 235.819 513.589 234.172C513.589 232.525 516.059 232.525 516.059 234.172" />
<path fill="none" stroke="#b24c33" stroke-width="0.824" d="M519.456 234.172C519.456 235.819 521.926 235.819 521.926 234.172C521.926 232.525 524.397 232.525 524.397 234.172" />
<path fill="none" stroke="#b24c33" stroke-width="0.824" d="M527.793 234.172C527.793 235.819 530.264 235.819 530.264 234.172C530.264 232.525 532.734 232.525 532.734 234.172" />
<path fill="none" stroke="#b24c33" stroke-width="0.824" d="M536.131 234.172C536.131 235.819 538.601 235.819 538.601 234.172C538.601 232.525 541.072 232.525 541.072 234.172" />
<path fill="none" stroke="#b24c33" stroke-width="0.824" d="M544.467 234.172C544.467 235.819 546.938 235.819 546.938 234.172C546.938 232.525 549.408 232.525 549.408 234.172" />
<path fill="none" stroke="#b24c33" stroke-width="0.824" d="M552.805 234.172C552.805 235.819 555.275 235.819 555.275 234.172C555.275 232.525 557.746 232.525 557.746 234.172" />
<path fill="none" stroke="#b24c33" stroke-width="0.824" d="M561.142 234.172C561.142 235.819 563.613 235.819 563.613 234.172C563.613 232.525 566.083 232.525 566.083 234.172" />
<path fill="none" stroke="#b24c33" stroke-width="0.824" d="M569.480 234.172C569.480 235.819 571.950 235.819 571.950 234.172C571.950 232.525 574.421 232.525 574.421 234.172" />
<path fill="none" stroke="#b24c33" stroke-width="1.647" d="M509.420 238.290L576.120 238.290" />
<path fill="#ffffff" stroke="none" d="M426.481 238.290C426.341 237.823 426.530 237.328 426.898 237.002C427.985 236.042 429.606 236.789 429.508 238.068C429.413 239.297 427.792 239.805 426.798 238.802C426.655 238.657 426.540 238.485 426.481 238.290Z" />
<path fill="#b24c33" stroke="none" d="M426.481 238.290C426.341 237.823 426.530 237.328 426.898 237.002C427.985 236.042 429.606 236.789 429.508 238.068C429.413 239.297 427.792 239.805 426.798 238.802C426.655 238.657 426.540 238.485 426.481 238.290Z" />
<path fill="#ffffff" stroke="none" d="M429.697 238.290C429.500 237.835 430.049 237.469 430.664 237.354C431.594 237.179 432.562 237.395 432.517 238.133C432.466 238.949 431.365 238.888 430.373 238.659C430.104 238.597 429.805 238.540 429.697 238.290Z" />
<path fill="#b24c33" stroke="none" d="M429.697 238.290C429.500 237.835 430.049 237.469 430.664 237.354C431.594 237.179 432.562 237.395 432.517 238.133C432.466 238.949 431.365 238.888 430.373 238.659C430.104 238.597 429.805 238.540 429.697 238.290Z" />
<path fill="#ffffff" stroke="none" d="M432.877 238.290C432.862 238.012 433.189 237.909 433.474 237.817C434.793 237.391 436.167 237.291 435.893 238.196C435.668 238.942 434.712 238.367 434.035 238.476C433.514 238.561 432.902 238.746 432.877 238.290Z" />
<path fill="#b24c33" stroke="none" d="M432.877 238.290C432.862 238.012 433.189 237.909 433.474 237.817C434.793 237.391 436.167 237.291 435.893 238.196C435.668 238.942 434.712 238.367 434.035 238.476C433.514 238.561 432.902 238.746 432.877 238.290Z" />
<path fill="#ffffff" stroke="none" d="M436.430 238.290C436.297 237.898 436.417 237.470 436.701 237.167C437.656 236.146 439.274 236.858 439.143 238.098C439.029 239.177 437.613 239.602 436.727 238.742C436.596 238.615 436.489 238.463 436.430 238.290Z" />
<path fill="#b24c33" stroke="none" d="M436.430 238.290C436.297 237.898 436.417 237.470 436.701 237.167C437.656 236.146 439.274 236.858 439.143 238.098C439.029 239.177 437.613 239.602 436.727 238.742C436.596 238.615 436.489 238.463 436.430 238.290Z" />
<path fill="#ffffff" stroke="none" d="M439.675 238.290C439.555 237.964 439.808 237.648 440.110 237.435C441.234 236.641 442.511 237.258 442.315 238.130C442.168 238.784 441.328 238.788 440.583 238.715C440.213 238.679 439.800 238.627 439.675 238.290Z" />
<path fill="#b24c33" stroke="none" d="M439.675 238.290C439.555 237.964 439.808 237.648 440.110 237.435C441.234 236.641 442.511 237.258 442.315 238.130C442.168 238.784 441.328 238.788 440.583 238.715C440.213 238.679 439.800 238.627 439.675 238.290Z" />
<path fill="#ffffff" stroke="none" d="M442.957 238.290C442.832 237.958 443.226 237.725 443.625 237.594C444.741 237.230 445.874 237.386 445.726 238.167C445.580 238.939 444.569 238.544 443.766 238.536C443.444 238.533 443.066 238.579 442.957 238.290Z" />
<path fill="#b24c33" stroke="none" d="M442.957 238.290C442.832 237.958 443.226 237.725 443.625 237.594C444.741 237.230 445.874 237.386 445.726 238.167C445.580 238.939 444.569 238.544 443.766 238.536C443.444 238.533 443.066 238.579 442.957 238.290Z" />
<path fill="#ffffff" stroke="none" d="M446.275 238.290C446.233 237.982 446.548 237.792 446.841 237.644C448.070 237.020 449.247 237.432 448.986 238.179C448.807 238.691 448.133 238.532 447.591 238.590C447.017 238.652 446.345 238.797 446.275 238.290Z" />
<path fill="#b24c33" stroke="none" d="M446.275 238.290C446.233 237.982 446.548 237.792 446.841 237.644C448.070 237.020 449.247 237.432 448.986 238.179C448.807 238.691 448.133 238.532 447.591 238.590C447.017 238.652 446.345 238.797 446.275 238.290Z" />
<path fill="#ffffff" stroke="none" d="M449.778 238.290C449.658 237.815 450.000 237.372 450.458 237.143C451.442 236.651 452.573 237.174 452.553 238.103C452.529 239.146 451.133 239.626 450.135 238.799C449.971 238.663 449.830 238.496 449.778 238.290Z" />
<path fill="#b24c33" stroke="none" d="M449.778 238.290C449.658 237.815 450.000 237.372 450.458 237.143C451.442 236.651 452.573 237.174 452.553 238.103C452.529 239.146 451.133 239.626 450.135 238.799C449.971 238.663 449.830 238.496 449.778 238.290Z" />
<path fill="#ffffff" stroke="none" d="M453.213 238.290C453.448 237.824 453.363 237.220 453.733 236.840C454.460 236.092 455.815 236.713 455.986 238.028C456.387 241.113 452.538 240.743 452.884 238.925C452.930 238.688 453.105 238.504 453.213 238.290Z" />
<path fill="#b24c33" stroke="none" d="M453.213 238.290C453.448 237.824 453.363 237.220 453.733 236.840C454.460 236.092 455.815 236.713 455.986 238.028C456.387 241.113 452.538 240.743 452.884 238.925C452.930 238.688 453.105 238.504 453.213 238.290Z" />
<path fill="#ffffff" stroke="none" d="M456.422 238.290C456.249 237.809 456.720 237.378 457.285 237.221C458.142 236.984 459.014 237.363 458.954 238.070C458.897 238.742 458.056 238.922 457.272 238.789C456.918 238.730 456.541 238.620 456.422 238.290Z" />
<path fill="#b24c33" stroke="none" d="M456.422 238.290C456.249 237.809 456.720 237.378 457.285 237.221C458.142 236.984 459.014 237.363 458.954 238.070C458.897 238.742 458.056 238.922 457.272 238.789C456.918 238.730 456.541 238.620 456.422 238.290Z" />
<path fill="#ffffff" stroke="none" d="M459.566 238.290C459.551 237.909 460.046 237.865 460.460 237.791C461.448 237.617 462.543 237.461 462.356 238.204C462.212 238.776 461.466 238.443 460.908 238.502C460.314 238.564 459.589 238.834 459.566 238.290Z" />
<path fill="#b24c33" stroke="none" d="M459.566 238.290C459.551 237.909 460.046 237.865 460.460 237.791C461.448 237.617 462.543 237.461 462.356 238.204C462.212 238.776 461.466 238.443 460.908 238.502C460.314 238.564 459.589 238.834 459.566 238.290Z" />
<path fill="#ffffff" stroke="none" d="M463.230 238.290C463.437 237.804 463.329 237.194 463.704 236.807C464.425 236.061 465.785 236.697 465.903 238.022C466.151 240.798 462.771 240.482 462.992 238.853C463.020 238.649 463.149 238.479 463.230 238.290Z" />
<path fill="#b24c33" stroke="none" d="M463.230 238.290C463.437 237.804 463.329 237.194 463.704 236.807C464.425 236.061 465.785 236.697 465.903 238.022C466.151 240.798 462.771 240.482 462.992 238.853C463.020 238.649 463.149 238.479 463.230 238.290Z" />
<path fill="#ffffff" stroke="none" d="M466.471 238.290C466.357 237.884 466.385 237.447 466.602 237.086C467.541 235.527 469.915 236.322 469.731 238.092C469.577 239.581 467.595 240.070 466.692 238.768C466.591 238.623 466.519 238.460 466.471 238.290Z" />
<path fill="#b24c33" stroke="none" d="M466.471 238.290C466.357 237.884 466.385 237.447 466.602 237.086C467.541 235.527 469.915 236.322 469.731 238.092C469.577 239.581 467.595 240.070 466.692 238.768C466.591 238.623 466.519 238.460 466.471 238.290Z" />
<path fill="#ffffff" stroke="none" d="M469.677 238.290C469.518 237.927 469.934 237.630 470.380 237.474C471.494 237.083 472.615 237.349 472.470 238.133C472.329 238.896 471.324 238.607 470.493 238.566C470.173 238.551 469.802 238.575 469.677 238.290Z" />
<path fill="#b24c33" stroke="none" d="M469.677 238.290C469.518 237.927 469.934 237.630 470.380 237.474C471.494 237.083 472.615 237.349 472.470 238.133C472.329 238.896 471.324 238.607 470.493 238.566C470.173 238.551 469.802 238.575 469.677 238.290Z" />
<path fill="#ffffff" stroke="none" d="M473.064 238.290C472.895 237.846 473.369 237.472 473.908 237.319C474.880 237.042 475.877 237.378 475.809 238.145C475.738 238.933 474.689 238.984 473.737 238.719C473.463 238.643 473.165 238.553 473.064 238.290Z" />
<path fill="#b24c33" stroke="none" d="M473.064 238.290C472.895 237.846 473.369 237.472 473.908 237.319C474.880 237.042 475.877 237.378 475.809 238.145C475.738 238.933 474.689 238.984 473.737 238.719C473.463 238.643 473.165 238.553 473.064 238.290Z" />
<path fill="#ffffff" stroke="none" d="M476.448 238.290C476.213 237.948 476.368 237.499 476.657 237.172C477.936 235.725 479.928 236.756 479.588 238.089C479.344 239.047 478.069 239.081 476.967 238.634C476.770 238.554 476.568 238.465 476.448 238.290Z" />
<path fill="#b24c33" stroke="none" d="M476.448 238.290C476.213 237.948 476.368 237.499 476.657 237.172C477.936 235.725 479.928 236.756 479.588 238.089C479.344 239.047 478.069 239.081 476.967 238.634C476.770 238.554 476.568 238.465 476.448 238.290Z" />
<path fill="#ffffff" stroke="none" d="M479.765 238.290C479.589 237.873 479.924 237.448 480.364 237.225C481.373 236.714 482.490 237.234 482.400 238.104C482.314 238.936 481.217 239.163 480.263 238.716C480.058 238.619 479.853 238.498 479.765 238.290Z" />
<path fill="#b24c33" stroke="none" d="M479.765 238.290C479.589 237.873 479.924 237.448 480.364 237.225C481.373 236.714 482.490 237.234 482.400 238.104C482.314 238.936 481.217 239.163 480.263 238.716C480.058 238.619 479.853 238.498 479.765 238.290Z" />
<path fill="#ffffff" stroke="none" d="M483.095 238.290C482.886 237.906 483.202 237.476 483.630 237.239C484.717 236.638 485.911 237.214 485.765 238.103C485.633 238.906 484.570 238.978 483.627 238.644C483.419 238.570 483.200 238.484 483.095 238.290Z" />
<path fill="#b24c33" stroke="none" d="M483.095 238.290C482.886 237.906 483.202 237.476 483.630 237.239C484.717 236.638 485.911 237.214 485.765 238.103C485.633 238.906 484.570 238.978 483.627 238.644C483.419 238.570 483.200 238.484 483.095 238.290Z" />
<path fill="#ffffff" stroke="none" d="M486.370 238.290C486.223 237.986 486.443 237.658 486.717 237.426C487.996 236.340 489.563 237.090 489.328 238.121C489.138 238.951 488.045 238.844 487.082 238.654C486.802 238.599 486.493 238.544 486.370 238.290Z" />
<path fill="#b24c33" stroke="none" d="M486.370 238.290C486.223 237.986 486.443 237.658 486.717 237.426C487.996 236.340 489.563 237.090 489.328 238.121C489.138 238.951 488.045 238.844 487.082 238.654C486.802 238.599 486.493 238.544 486.370 238.290Z" />
<path fill="#ffffff" stroke="none" d="M489.827 238.290C489.637 237.879 489.779 237.405 490.083 237.060C491.247 235.743 493.223 236.641 492.996 238.078C492.820 239.198 491.335 239.564 490.238 238.754C490.069 238.629 489.915 238.481 489.827 238.290Z" />
<path fill="#b24c33" stroke="none" d="M489.827 238.290C489.637 237.879 489.779 237.405 490.083 237.060C491.247 235.743 493.223 236.641 492.996 238.078C492.820 239.198 491.335 239.564 490.238 238.754C490.069 238.629 489.915 238.481 489.827 238.290Z" />
<path fill="none" stroke="#d87219" stroke-width="0.824" d="M345.232 233.349L346.467 234.996L347.702 233.349" />
<path fill="none" stroke="#d87219" stroke-width="0.824" d="M348.938 233.349L350.173 234.996L351.408 233.349" />
<path fill="none" stroke="#d87219" stroke-width="0.824" d="M358.572 233.349L359.807 234.996L361.042 233.349" />
<path fill="none" stroke="#d87219" stroke-width="0.824" d="M362.277 233.349L363.513 234.996L364.748 233.349" />
<path fill="none" stroke="#d87219" stroke-width="0.824" d="M371.911 233.349L373.147 234.996L374.382 233.349" />
<path fill="none" stroke="#d87219" stroke-width="0.824" d="M375.617 233.349L376.853 234.996L378.088 233.349" />
<path fill="none" stroke="#d87219" stroke-width="0.824" d="M385.252 233.349L386.487 234.996L387.723 233.349" />
<path fill="none" stroke="#d87219" stroke-width="0.824" d="M388.958 233.349L390.193 234.996L391.429 233.349" />
<path fill="none" stroke="#d87219" stroke-width="0.824" d="M398.592 233.349L399.827 234.996L401.062 233.349" />
<path fill="none" stroke="#d87219" stroke-width="0.824" d="M402.298 233.349L403.533 234.996L404.768 233.349" />
<path fill="none" stroke="#ff7f19" stroke-width="1.647" d="M342.680 238.290L409.380 238.290" />
<path fill="none" stroke="#00b2e5" stroke-width="0.824" d="M262.088 233.349L267.647 233.349" />
<path fill="none" stroke="#00b2e5" stroke-width="0.824" d="M273.205 230.878L273.205 234.996" />
<path fill="none" stroke="#00b2e5" stroke-width="0.824" d="M278.763 233.349L284.323 233.349" />
<path fill="none" stroke="#00b2e5" stroke-width="0.824" d="M289.880 230.878L289.880 234.996" />
<path fill="none" stroke="#00b2e5" stroke-width="0.824" d="M295.438 233.349L300.998 233.349" />
<path fill="none" stroke="#00b2e5" stroke-width="0.824" d="M306.555 230.878L306.555 234.996" />
<path fill="none" stroke="#00b2e5" stroke-width="0.824" d="M312.113 233.349L317.672 233.349" />
<path fill="none" stroke="#00b2e5" stroke-width="0.824" d="M323.231 230.878L323.231 234.996" />
<path fill="none" stroke="#00b2e5" stroke-width="1.647" d="M259.310 238.290L326.010 238.290" />
<path fill="none" stroke="#4c4c4c" stroke-width="0.824" d="M175.388 235.187C175.368 236.368 176.499 237.757 177.012 238.114C178.409 238.662 181.636 238.049 182.978 237.664C184.400 236.948 183.398 235.913 183.941 234.443" />
<path fill="none" stroke="#4c4c4c" stroke-width="0.824" d="M182.942 235.919C183.859 236.627 184.411 236.800 184.758 238.128C186.785 238.882 188.879 238.198 192.126 237.875C191.804 237.859 192.524 235.870 192.781 234.520" />
<path fill="none" stroke="#4c4c4c" stroke-width="0.824" d="M191.543 235.743C191.783 236.141 193.465 237.225 192.907 238.633C195.571 238.753 198.506 237.904 199.790 238.925C200.901 237.900 200.406 235.760 201.392 234.963" />
<path fill="none" stroke="#4c4c4c" stroke-width="0.824" d="M200.405 236.005C201.141 235.832 200.975 237.640 202.429 238.508C204.638 238.195 206.214 238.616 207.865 237.671C209.146 236.548 208.581 236.435 209.856 234.881" />
<path fill="none" stroke="#4c4c4c" stroke-width="0.824" d="M208.195 235.333C208.806 236.596 209.455 237.720 210.660 238.323C211.983 238.817 214.792 238.548 216.770 237.729C217.490 236.978 216.999 235.748 217.249 234.825" />
<path fill="none" stroke="#4c4c4c" stroke-width="0.824" d="M216.644 236.020C217.464 235.963 217.954 237.984 219.032 238.324C220.617 237.970 222.953 237.918 225.753 238.191C225.123 237.835 226.095 236.194 225.655 234.660" />
<path fill="none" stroke="#4c4c4c" stroke-width="0.824" d="M224.723 234.923C224.886 236.737 226.602 237.290 226.592 238.041C228.605 238.875 231.787 238.089 233.283 238.900C233.460 237.819 233.587 236.230 233.945 235.401" />
<path fill="none" stroke="#4c4c4c" stroke-width="0.824" d="M233.067 235.854C234.239 236.617 235.071 238.007 234.746 238.199C237.306 237.690 239.411 238.639 242.271 238.803C241.534 237.679 242.120 236.798 242.019 235.170" />
<path fill="none" stroke="#000000" stroke-width="1.647" stroke-dasharray="14.118,14.118" stroke-dashoffset="0.000" d="M92.570 238.290L159.260 238.290" />
<path fill="none" stroke="#000000" stroke-width="1.647" d="M9.190 238.290L75.890 238.290" />
<path fill="#8dd2c7" stroke="none" d="M454.047 370.497C451.091 373.453 451.091 378.247 454.047 381.203C457.003 384.159 461.797 384.159 464.753 381.203C467.709 378.247 467.709 373.453 464.753 370.497C461.797 367.541 457.003 367.541 454.047 370.497Z" />
<path fill="none" stroke="#000000" stroke-width="0.824" d="M454.047 370.497C451.091 373.453 451.091 378.247 454.047 381.203C457.003 384.159 461.797 384.159 464.753 381.203C467.709 378.247 467.709 373.453 464.753 370.497C461.797 367.541 457.003 367.541 454.047 370.497Z" />
<path fill="#000000" stroke="none" d="M456.929 373.379C455.565 374.744 455.565 376.956 456.929 378.321C458.294 379.685 460.506 379.685 461.871 378.321C463.235 376.956 463.235 374.744 461.871 373.379C460.506 372.015 458.294 372.015 456.929 373.379Z" />
<path fill="none" stroke="#000000" stroke-width="0.824" d="M459.400 368.850L459.400 382.850" />
<path fill="none" stroke="#000000" stroke-width="0.824" d="M452.400 375.850L466.400 375.850" />
<path fill="none" stroke="#000000" stroke-width="0.824" d="M371.089 370.909L371.089 380.791L380.971 380.791L380.971 370.909Z" />
<path fill="#000000" stroke="none" d="M372.736 372.556L372.736 379.144L379.324 379.144L379.324 372.556Z" />
<path fill="none" stroke="#ff7f19" stroke-width="0.824" d="M289.366 372.556C287.547 374.375 287.547 377.325 289.366 379.144C291.185 380.963 294.135 380.963 295.954 379.144C297.773 377.325 297.773 374.375 295.954 372.556C294.135 370.737 291.185 370.737 289.366 372.556Z" />
<path fill="#ff7f19" stroke="none" d="M291.013 374.203C290.103 375.113 290.103 376.587 291.013 377.497C291.923 378.407 293.397 378.407 294.307 377.497C295.217 376.587 295.217 375.113 294.307 374.203C293.397 373.293 291.923 373.293 291.013 374.203Z" />
<path fill="none" stroke="#d87219" stroke-width="0.824" d="M206.820 382.438L209.290 378.320L211.760 382.438" />
<path fill="none" stroke="#d87219" stroke-width="0.824" d="M209.290 378.320L209.290 375.850C208.227 375.850 207.314 375.070 207.314 374.038C207.314 373.006 208.227 372.226 209.290 372.226L209.290 369.262" />
<path fill="none" stroke="#00b2e5" stroke-width="0.824" d="M92.570 375.850L142.590 375.850" />
<path fill="#00b2e5" stroke="none" d="M115.604 377.168L117.580 377.826L119.556 377.168L117.580 380.791Z" />
<path fill="#ffffff" stroke="none" d="M115.604 377.168L117.580 377.826L119.556 377.168L119.556 371.238L115.604 371.238Z" />
<path fill="none" stroke="#00b2e5" stroke-width="0.576" d="M117.580 371.238L117.580 378.320" />
<path fill="none" stroke="#000000" stroke-width="0.824" d="M9.190 375.850L59.220 375.850" />
<path fill="#000000" stroke="none" d="M32.224 377.168L34.200 377.826L36.176 377.168L34.200 380.791Z" />
<path fill="#ffffff" stroke="none" d="M32.224 377.168L34.200 377.826L36.176 377.168L36.176 371.238L32.224 371.238Z" />
<path fill="none" stroke="#000000" stroke-width="0.576" d="M34.200 371.238L34.200 378.320" />
<path fill="none" stroke="#d87219" stroke-width="0.824" d="M542.770 432.468L542.770 419.292" />
<path fill="none" stroke="#d87219" stroke-width="0.824" d="M539.476 432.468C539.476 432.468 539.476 427.528 539.476 427.527C539.476 426.757 540.300 426.355 541.123 426.209C541.123 426.209 542.770 425.880 542.770 425.880" />
<path fill="none" stroke="#d87219" stroke-width="0.824" d="M546.064 419.292C546.064 419.292 546.064 424.232 546.064 424.233C546.064 425.003 545.240 425.405 544.417 425.551C544.417 425.551 542.770 425.880 542.770 425.880" />
<path fill="none" stroke="#0019b2" stroke-width="0.576" d="M459.400 425.880L459.400 428.351" />
<path fill="none" stroke="#0019b2" stroke-width="0.576" d="M459.400 430.821L459.400 433.292" />
<path fill="none" stroke="#0019b2" stroke-width="0.576" d="M459.400 423.410L459.400 420.939" />
<path fill="#0019b2" stroke="none" d="M456.435 423.410L459.400 418.468L462.365 423.410L459.400 422.256Z" />
<path fill="none" stroke="#00b2e5" stroke-width="0.576" d="M376.030 425.880L377.677 425.880" />
<path fill="none" stroke="#00b2e5" stroke-width="0.576" d="M376.030 425.880L376.854 427.306" />
<path fill="none" stroke="#00b2e5" stroke-width="0.576" d="M376.030 425.880L375.206 427.306" />
<path fill="none" stroke="#00b2e5" stroke-width="0.576" d="M376.030 425.880L374.383 425.880" />
<path fill="none" stroke="#00b2e5" stroke-width="0.576" d="M376.030 425.880L375.206 424.454" />
<path fill="none" stroke="#00b2e5" stroke-width="0.576" d="M376.030 425.880L376.854 424.454" />
<path fill="#000000" stroke="none" d="M286.813 428.219L298.507 425.880L286.813 423.541Z" />
<path fill="#000000" stroke="none" d="M210.608 427.856L211.266 425.880L210.608 423.904L214.231 425.880Z" />
<path fill="none" stroke="#000000" stroke-width="0.576" d="M203.525 427.527L204.678 425.880L203.525 424.233" />
<path fill="none" stroke="#000000" stroke-width="0.576" d="M205.172 427.527L206.325 425.880L205.172 424.233" />
<path fill="none" stroke="#000000" stroke-width="0.576" d="M204.678 425.880L211.760 425.880" />
<path fill="none" stroke="#0019b2" stroke-width="0.824" d="M125.910 434.115C125.910 432.751 128.212 432.282 127.886 430.821C127.463 428.926 123.495 430.691 123.440 428.351C123.380 425.810 127.531 427.713 128.051 425.880C128.635 423.824 125.376 423.985 124.592 422.586C123.638 420.883 125.910 419.398 125.910 417.645" />
<path fill="none" stroke="#0019b2" stroke-width="0.824" d="M123.518 422.995C123.155 422.589 122.857 422.168 122.802 421.706C122.572 419.767 125.239 419.264 125.910 417.645C126.581 419.264 125.050 421.506 126.584 422.714C126.950 423.002 127.458 423.089 128.002 423.119Z" />
<path fill="#0019b2" stroke="none" d="M123.518 422.995C123.155 422.589 122.857 422.168 122.802 421.706C122.572 419.767 125.239 419.264 125.910 417.645C126.581 419.264 125.050 421.506 126.584 422.714C126.950 423.002 127.458 423.089 128.002 423.119Z" />
<path fill="none" stroke="#000000" stroke-width="0.576" d="M40.893 427.527L39.146 429.274" />
<path fill="none" stroke="#000000" stroke-width="0.576" d="M40.893 424.233L39.146 422.486" />
<path fill="none" stroke="#000000" stroke-width="0.576" d="M44.187 424.233L45.934 422.486" />
<path fill="none" stroke="#000000" stroke-width="0.576" d="M44.187 427.527L45.934 429.274" />
<path fill="none" stroke="#000000" stroke-width="0.576" d="M40.893 424.233C39.983 425.143 39.983 426.617 40.893 427.527C41.803 428.437 43.277 428.437 44.187 427.527C45.097 426.617 45.097 425.143 44.187 424.233C43.277 423.323 41.803 423.323 40.893 424.233Z" />
<path fill="none" stroke="#d87219" stroke-width="0.824" d="M534.535 479.194L551.005 479.194" />
<path fill="none" stroke="#d87219" stroke-width="0.576" d="M536.182 479.194L536.182 475.900" />
<path fill="none" stroke="#d87219" stroke-width="0.576" d="M540.794 479.194L540.794 471.782" />
<path fill="none" stroke="#d87219" stroke-width="0.576" d="M543.099 479.194L543.099 474.253" />
<path fill="none" stroke="#d87219" stroke-width="0.576" d="M546.558 479.194L546.558 472.771" />
<path fill="none" stroke="#d87219" stroke-width="0.576" d="M548.535 479.194L548.535 473.429" />
<path fill="none" stroke="#ff7f19" stroke-width="0.824" d="M457.753 474.253C456.843 475.163 456.843 476.637 457.753 477.547C458.663 478.457 460.137 478.457 461.047 477.547C461.957 476.637 461.957 475.163 461.047 474.253C460.137 473.343 458.663 473.343 457.753 474.253Z" />
<text font-family="thss00" font-size="9.377" fill="black" stroke="none" transform="matrix(1.000 0.000 -0.000 -1.000 1140.131 614.280)">&#x55;&#x73;&#x65;&#x72;</text>
<text font-family="thss00" font-size="9.377" fill="black" stroke="none" transform="matrix(1.000 0.000 -0.000 -1.000 1162.560 614.280)">&#x64;&#x65;&#xfb01;&#x6e;&#x65;&#x64;</text>
<text font-family="thss00" font-size="9.377" fill="black" stroke="none" transform="matrix(1.000 0.000 -0.000 -1.000 1195.969 614.280)">&#x6c;&#x76;&#x6c;</text>
<text font-family="thss00" font-size="9.377" fill="black" stroke="none" transform="matrix(1.000 0.000 -0.000 -1.000 1207.446 614.280)">&#x31;</text>
<path fill="#ff7f19" stroke="none" d="M374.383 474.253C373.473 475.163 373.473 476.637 374.383 477.547C375.293 478.457 376.767 478.457 377.677 477.547C378.587 476.637 378.587 475.163 377.677 474.253C376.767 473.343 375.293 473.343 374.383 474.253Z" />
<path fill="none" stroke="#4cb23f" stroke-width="0.824" d="M295.130 477.547L292.660 472.606L292.660 480.018" />
<path fill="none" stroke="#4cb23f" stroke-width="0.824" d="M294.801 472.606L292.660 472.606L289.860 478.865" />
<path fill="#ffffff" stroke="none" d="M205.996 472.606L212.584 472.606L212.584 479.194L212.584 472.606Z" />
<path fill="none" stroke="#b24c33" stroke-width="0.576" d="M208.019 474.558L206.820 473.429" />
<path fill="none" stroke="#b24c33" stroke-width="0.576" d="M207.225 478.097L205.996 479.194" />
<path fill="none" stroke="#b24c33" stroke-width="0.576" d="M208.432 476.730L206.820 476.394" />
<path fill="none" stroke="#b24c33" stroke-width="0.576" d="M210.069 476.425L209.290 477.876" />
<path fill="none" stroke="#b24c33" stroke-width="0.576" d="M211.548 480.394L210.937 478.865" />
<path fill="none" stroke="#b24c33" stroke-width="0.576" d="M213.512 475.824L212.255 476.888" />
<path fill="none" stroke="#b24c33" stroke-width="0.576" d="M211.537 474.094L210.114 473.265" />
<path fill="none" stroke="#b24c33" stroke-width="0.576" d="M209.799 481.161L209.619 479.524" />
<path fill="none" stroke="#b20000" stroke-width="0.576" d="M0.860 492.580L0.860 492.580" />
<path fill="none" stroke="#b20000" stroke-width="0.576" d="M0.860 659.320L0.860 659.320" />
<path fill="#ffffff" stroke="none" d="M125.086 475.076C124.632 475.531 124.632 476.269 125.086 476.724C125.541 477.178 126.279 477.178 126.734 476.724C127.188 476.269 127.188 475.531 126.734 475.076C126.279 474.622 125.541 474.622 125.086 475.076Z" />
<path fill="#b20000" stroke="none" d="M125.086 475.076C124.632 475.531 124.632 476.269 125.086 476.724C125.541 477.178 126.279 477.178 126.734 476.724C127.188 476.269 127.188 475.531 126.734 475.076C126.279 474.622 125.541 474.622 125.086 475.076Z" />
<path fill="#ffffff" stroke="none" d="M41.716 475.076C41.262 475.531 41.262 476.269 41.716 476.724C42.171 477.178 42.909 477.178 43.364 476.724C43.818 476.269 43.818 475.531 43.364 475.076C42.909 474.622 42.171 474.622 41.716 475.076Z" />
<path fill="none" stroke="#b20000" stroke-width="0.576" d="M41.716 475.076C41.262 475.531 41.262 476.269 41.716 476.724C42.171 477.178 42.909 477.178 43.364 476.724C43.818 476.269 43.818 475.531 43.364 475.076C42.909 474.622 42.171 474.622 41.716 475.076Z" />
</g>
<g id="X_aaaaaaa_../../outputs/symbology.svg">
<text font-family="thss00" font-size="9.377" fill="black" stroke="none" transform="matrix(1.000 0.000 -0.000 -1.000 333.680 12.036)">&#x75;&#x3a;&#x73;&#x6d;&#x61;&#x6c;&#x6c;&#x62;&#x6c;&#x6f;&#x63;&#x6b;&#x73;</text>
<text font-family="thss00" font-size="9.377" fill="black" stroke="none" transform="matrix(1.000 0.000 -0.000 -1.000 392.630 12.036)">&#x4d;&#x59;</text>
<text font-family="thss00" font-size="9.377" fill="black" stroke="none" transform="matrix(1.000 0.000 -0.000 -1.000 333.680 0.784)">&#x2d;&#x61;&#x74;&#x74;&#x72;</text>
<text font-family="thss00" font-size="9.377" fill="black" stroke="none" transform="matrix(1.000 0.000 -0.000 -1.000 352.986 0.784)">&#x73;&#x63;&#x61;&#x6c;&#x65;</text>
<text font-family="thss00" font-size="9.377" fill="black" stroke="none" transform="matrix(1.000 0.000 -0.000 -1.000 377.506 0.784)">&#x30;&#x2e;&#x37;</text>
<text font-family="thss00" font-size="9.377" fill="black" stroke="none" transform="matrix(1.000 0.000 -0.000 -1.000 500.420 12.036)">&#x75;&#x3a;&#x73;&#x6d;&#x61;&#x6c;&#x6c;&#x62;&#x6c;&#x6f;&#x63;&#x6b;&#x73;</text>
<text font-family="thss00" font-size="9.377" fill="black" stroke="none" transform="matrix(1.000 0.000 -0.000 -1.000 559.370 12.036)">&#x4d;&#x59;</text>
<text font-family="thss00" font-size="9.377" fill="black" stroke="none" transform="matrix(1.000 0.000 -0.000 -1.000 500.420 0.784)">&#x2d;&#x61;&#x74;&#x74;&#x72;</text>
<text font-family="thss00" font-size="9.377" fill="black" stroke="none" transform="matrix(1.000 0.000 -0.000 -1.000 519.726 0.784)">&#x73;&#x63;&#x61;&#x6c;&#x65;</text>
<text font-family="thss00" font-size="9.377" fill="black" stroke="none" transform="matrix(1.000 0.000 -0.000 -1.000 544.246 0.784)">&#x31;&#x2e;&#x35;</text>
<text font-family="thss00" font-size="9.377" fill="black" stroke="none" transform="matrix(1.000 0.000 -0.000 -1.000 417.050 12.036)">&#x75;&#x3a;&#x73;&#x6d;&#x61;&#x6c;&#x6c;&#x62;&#x6c;&#x6f;&#x63;&#x6b;&#x73;</text>
<text font-family="thss00" font-size="9.377" fill="black" stroke="none" transform="matrix(1.000 0.000 -0.000 -1.000 476.000 12.036)">&#x4d;&#x59;</text>
<text font-family="thss00" font-size="9.377" fill="black" stroke="none" transform="matrix(1.000 0.000 -0.000 -1.000 417.050 0.784)">&#x2d;&#x61;&#x74;&#x74;&#x72;</text>
<text font-family="thss00" font-size="9.377" fill="black" stroke="none" transform="matrix(1.000 0.000 -0.000 -1.000 436.356 0.784)">&#x73;&#x63;&#x61;&#x6c;&#x65;</text>
<text font-family="thss00" font-size="9.377" fill="black" stroke="none" transform="matrix(1.000 0.000 -0.000 -1.000 460.876 0.784)">&#x31;</text>
<text font-family="thss00" font-size="9.377" fill="black" stroke="none" transform="matrix(1.000 0.000 -0.000 -1.000 250.310 0.784)">&#x69;&#x63;&#x65;</text>
<text font-family="thss00" font-size="9.377" fill="black" stroke="none" transform="matrix(1.000 0.000 -0.000 -1.000 166.940 2.640)">&#x63;&#x6c;&#x61;&#x79;</text>
<text font-family="thss00" font-size="9.377" fill="black" stroke="none" transform="matrix(1.000 0.000 -0.000 -1.000 83.570 0.784)">&#x77;&#x61;&#x74;&#x65;&#x72;</text>
<text font-family="thss00" font-size="9.377" fill="black" stroke="none" transform="matrix(1.000 0.000 -0.000 -1.000 0.190 0.784)">&#x73;&#x6e;&#x6f;&#x77;</text>
<text font-family="thss00" font-size="9.377" fill="black" stroke="none" transform="matrix(1.000 0.000 -0.000 -1.000 500.420 134.184)">&#x75;&#x3a;&#x77;&#x61;&#x6c;&#x6c;</text>
<text font-family="thss00" font-size="9.377" fill="black" stroke="none" transform="matrix(1.000 0.000 -0.000 -1.000 527.040 134.184)">&#xfb02;&#x6f;&#x77;&#x73;&#x74;&#x6f;&#x6e;&#x65;</text>
<text font-family="thss00" font-size="9.377" fill="black" stroke="none" transform="matrix(1.000 0.000 -0.000 -1.000 569.300 134.184)">&#x4d;&#x59;</text>
<text font-family="thss00" font-size="9.377" fill="black" stroke="none" transform="matrix(1.000 0.000 -0.000 -1.000 417.050 134.184)">&#x72;&#x6f;&#x63;&#x6b;&#x2d;&#x62;&#x6f;&#x72;&#x64;&#x65;&#x72;</text>
<text font-family="thss00" font-size="9.377" fill="black" stroke="none" transform="matrix(1.000 0.000 -0.000 -1.000 333.680 134.184)">&#x61;&#x72;&#x72;&#x6f;&#x77;</text>
<text font-family="thss00" font-size="9.377" fill="black" stroke="none" transform="matrix(1.000 0.000 -0.000 -1.000 250.310 134.184)">&#x75;&#x3a;&#x74;&#x65;&#x78;&#x74;&#x75;&#x72;&#x65;</text>
<text font-family="thss00" font-size="9.377" fill="black" stroke="none" transform="matrix(1.000 0.000 -0.000 -1.000 289.448 134.184)">&#x4d;&#x59;</text>
<text font-family="thss00" font-size="9.377" fill="black" stroke="none" transform="matrix(1.000 0.000 -0.000 -1.000 166.940 136.040)">&#x73;&#x75;&#x72;&#x76;&#x65;&#x79;</text>
<text font-family="thss00" font-size="9.377" fill="black" stroke="none" transform="matrix(1.000 0.000 -0.000 -1.000 83.570 136.040)">&#x75;&#x3a;&#x69;&#x63;&#x65;&#x73;&#x74;&#x65;&#x70;</text>
<text font-family="thss00" font-size="9.377" fill="black" stroke="none" transform="matrix(1.000 0.000 -0.000 -1.000 123.749 136.040)">&#x4d;&#x59;</text>
<text font-family="thss00" font-size="9.377" fill="black" stroke="none" transform="matrix(1.000 0.000 -0.000 -1.000 0.190 136.040)">&#x75;&#x3a;&#x69;&#x63;&#x65;&#x70;&#x69;&#x74;</text>
<text font-family="thss00" font-size="9.377" fill="black" stroke="none" transform="matrix(1.000 0.000 -0.000 -1.000 32.549 136.040)">&#x4d;&#x59;</text>
<text font-family="thss00" font-size="9.377" fill="black" stroke="none" transform="matrix(1.000 0.000 -0.000 -1.000 500.420 186.060)">&#x77;&#x61;&#x6c;&#x6c;&#x3a;&#x75;&#x6e;&#x73;&#x75;&#x72;&#x76;&#x65;&#x79;&#x65;&#x64;</text>
<text font-family="thss00" font-size="9.377" fill="black" stroke="none" transform="matrix(1.000 0.000 -0.000 -1.000 417.050 186.060)">&#xfb02;&#x6f;&#x6f;&#x72;&#x2d;&#x73;&#x74;&#x65;&#x70;</text>
<text font-family="thss00" font-size="9.377" fill="black" stroke="none" transform="matrix(1.000 0.000 -0.000 -1.000 333.680 186.060)">&#x70;&#x69;&#x74;</text>
<text font-family="thss00" font-size="9.377" fill="black" stroke="none" transform="matrix(1.000 0.000 -0.000 -1.000 250.310 186.060)">&#x75;&#x3a;&#x62;&#x69;&#x67;&#x70;&#x69;&#x74;</text>
<text font-family="thss00" font-size="9.377" fill="black" stroke="none" transform="matrix(1.000 0.000 -0.000 -1.000 283.203 186.060)">&#x4d;&#x59;</text>
<text font-family="thss00" font-size="9.377" fill="black" stroke="none" transform="matrix(1.000 0.000 -0.000 -1.000 166.940 186.060)">&#x75;&#x3a;&#x77;&#x61;&#x6c;&#x6c;&#x73;&#x74;&#x65;&#x70;</text>
<text font-family="thss00" font-size="9.377" fill="black" stroke="none" transform="matrix(1.000 0.000 -0.000 -1.000 0.190 186.060)">&#x75;&#x3a;&#x77;&#x61;&#x6c;&#x6c;&#x62;&#x69;&#x67;&#x70;&#x69;&#x74;</text>
<text font-family="thss00" font-size="9.377" fill="black" stroke="none" transform="matrix(1.000 0.000 -0.000 -1.000 83.570 186.060)">&#x77;&#x61;&#x6c;&#x6c;&#x3a;&#x70;&#x69;&#x74;</text>
<text font-family="thss00" font-size="9.377" fill="black" stroke="none" transform="matrix(1.000 0.000 -0.000 -1.000 500.420 236.080)">&#x77;&#x61;&#x6c;&#x6c;&#x3a;&#x63;&#x6c;&#x61;&#x79;</text>
<text font-family="thss00" font-size="9.377" fill="black" stroke="none" transform="matrix(1.000 0.000 -0.000 -1.000 417.050 234.224)">&#x77;&#x61;&#x6c;&#x6c;&#x3a;&#x64;&#x65;&#x62;&#x72;&#x69;&#x73;</text>
<text font-family="thss00" font-size="9.377" fill="black" stroke="none" transform="matrix(1.000 0.000 -0.000 -1.000 333.680 234.224)">&#x77;&#x61;&#x6c;&#x6c;&#x3a;&#xfb02;&#x6f;&#x77;&#x73;&#x74;&#x6f;&#x6e;&#x65;</text>
<text font-family="thss00" font-size="9.377" fill="black" stroke="none" transform="matrix(1.000 0.000 -0.000 -1.000 250.310 234.224)">&#x77;&#x61;&#x6c;&#x6c;&#x3a;&#x69;&#x63;&#x65;</text>
<text font-family="thss00" font-size="9.377" fill="black" stroke="none" transform="matrix(1.000 0.000 -0.000 -1.000 166.940 234.224)">&#x77;&#x61;&#x6c;&#x6c;&#x3a;&#x62;&#x6c;&#x6f;&#x63;&#x6b;&#x73;</text>
<text font-family="thss00" font-size="9.377" fill="black" stroke="none" transform="matrix(1.000 0.000 -0.000 -1.000 83.570 236.080)">&#x77;&#x61;&#x6c;&#x6c;&#x3a;&#x70;&#x72;&#x65;&#x73;&#x75;&#x6d;&#x65;&#x64;</text>
<text font-family="thss00" font-size="9.377" fill="black" stroke="none" transform="matrix(1.000 0.000 -0.000 -1.000 0.190 234.224)">&#x77;&#x61;&#x6c;&#x6c;</text>
<text font-family="thss00" font-size="9.377" fill="black" stroke="none" transform="matrix(1.000 0.000 -0.000 -1.000 417.050 378.876)">&#x75;&#x3a;&#x63;&#x6f;&#x6e;&#x6e;&#x65;&#x63;&#x74;&#x69;&#x6f;&#x6e;&#x6d;&#x61;&#x72;&#x6b;&#x65;&#x72;</text>
<text font-family="thss00" font-size="9.377" fill="black" stroke="none" transform="matrix(1.000 0.000 -0.000 -1.000 502.114 378.876)">&#x4d;&#x59;</text>
<text font-family="thss00" font-size="9.377" fill="black" stroke="none" transform="matrix(1.000 0.000 -0.000 -1.000 417.050 367.624)">&#x2d;&#x61;&#x74;&#x74;&#x72;</text>
<text font-family="thss00" font-size="9.377" fill="black" stroke="none" transform="matrix(1.000 0.000 -0.000 -1.000 436.356 367.624)">&#x63;&#x6f;&#x64;&#x65;</text>
<text font-family="thss00" font-size="9.377" fill="black" stroke="none" transform="matrix(1.000 0.000 -0.000 -1.000 459.320 367.624)">&#x36;</text>
<text font-family="thss00" font-size="9.377" fill="black" stroke="none" transform="matrix(1.000 0.000 -0.000 -1.000 333.680 369.480)">&#x75;&#x3a;&#x6c;&#x6f;&#x67;&#x67;&#x65;&#x72;</text>
<text font-family="thss00" font-size="9.377" fill="black" stroke="none" transform="matrix(1.000 0.000 -0.000 -1.000 370.230 369.480)">&#x4d;&#x59;</text>
<text font-family="thss00" font-size="9.377" fill="black" stroke="none" transform="matrix(1.000 0.000 -0.000 -1.000 250.310 369.480)">&#x70;&#x69;&#x6c;&#x6c;&#x61;&#x72;</text>
<text font-family="thss00" font-size="9.377" fill="black" stroke="none" transform="matrix(1.000 0.000 -0.000 -1.000 166.940 367.624)">&#x63;&#x75;&#x72;&#x74;&#x61;&#x69;&#x6e;</text>
<text font-family="thss00" font-size="9.377" fill="black" stroke="none" transform="matrix(1.000 0.000 -0.000 -1.000 83.570 369.480)">&#x67;&#x72;&#x61;&#x64;&#x69;&#x63;&#x65;&#x26;&#x62;&#x6f;&#x72;&#x64;&#x65;&#x72;</text>
<text font-family="thss00" font-size="9.377" fill="black" stroke="none" transform="matrix(1.000 0.000 -0.000 -1.000 0.190 369.480)">&#x67;&#x72;&#x61;&#x64;&#x69;&#x65;&#x6e;&#x74;&#x26;&#x63;&#x6f;&#x6e;&#x74;&#x6f;&#x75;&#x72;</text>
<text font-family="thss00" font-size="9.377" fill="black" stroke="none" transform="matrix(1.000 0.000 -0.000 -1.000 500.420 417.644)">&#x68;&#x65;&#x6c;&#x69;&#x63;&#x74;&#x69;&#x74;&#x65;</text>
<text font-family="thss00" font-size="9.377" fill="black" stroke="none" transform="matrix(1.000 0.000 -0.000 -1.000 417.050 419.500)">&#x75;&#x3a;&#x77;&#x61;&#x74;&#x65;&#x72;&#x64;&#x72;&#x69;&#x70;</text>
<text font-family="thss00" font-size="9.377" fill="black" stroke="none" transform="matrix(1.000 0.000 -0.000 -1.000 466.118 419.500)">&#x4d;&#x59;</text>
<text font-family="thss00" font-size="9.377" fill="black" stroke="none" transform="matrix(1.000 0.000 -0.000 -1.000 333.680 417.644)">&#x73;&#x6e;&#x6f;&#x77;</text>
<text font-family="thss00" font-size="9.377" fill="black" stroke="none" transform="matrix(1.000 0.000 -0.000 -1.000 250.310 417.644)">&#x65;&#x6e;&#x74;&#x72;&#x61;&#x6e;&#x63;&#x65;</text>
<text font-family="thss00" font-size="9.377" fill="black" stroke="none" transform="matrix(1.000 0.000 -0.000 -1.000 166.940 419.500)">&#x61;&#x69;&#x72;&#x2d;&#x64;&#x72;&#x61;&#x75;&#x67;&#x68;&#x74;</text>
<text font-family="thss00" font-size="9.377" fill="black" stroke="none" transform="matrix(1.000 0.000 -0.000 -1.000 83.570 417.644)">&#x77;&#x61;&#x74;&#x65;&#x72;&#x2d;&#xfb02;&#x6f;&#x77;</text>
<text font-family="thss00" font-size="9.377" fill="black" stroke="none" transform="matrix(1.000 0.000 -0.000 -1.000 8.530 417.644)">&#x61;&#x6e;&#x63;&#x68;&#x6f;&#x72;</text>
<text font-family="thss00" font-size="9.377" fill="black" stroke="none" transform="matrix(1.000 0.000 -0.000 -1.000 500.420 467.674)">&#x73;&#x6f;&#x64;&#x61;&#x2d;&#x73;&#x74;&#x72;&#x61;&#x77;</text>
<text font-family="thss00" font-size="9.377" fill="black" stroke="none" transform="matrix(1.000 0.000 -0.000 -1.000 417.050 467.674)">&#x73;&#x74;&#x61;&#x6c;&#x61;&#x63;&#x74;&#x69;&#x74;&#x65;</text>
<text font-family="thss00" font-size="9.377" fill="black" stroke="none" transform="matrix(1.000 0.000 -0.000 -1.000 333.680 469.530)">&#x73;&#x74;&#x61;&#x6c;&#x61;&#x67;&#x6d;&#x69;&#x74;&#x65;</text>
<text font-family="thss00" font-size="9.377" fill="black" stroke="none" transform="matrix(1.000 0.000 -0.000 -1.000 250.310 469.530)">&#x75;&#x3a;&#x67;&#x72;&#x61;&#x73;&#x73;</text>
<text font-family="thss00" font-size="9.377" fill="black" stroke="none" transform="matrix(1.000 0.000 -0.000 -1.000 283.700 469.530)">&#x4d;&#x59;</text>
<text font-family="thss00" font-size="9.377" fill="black" stroke="none" transform="matrix(1.000 0.000 -0.000 -1.000 166.940 467.674)">&#x64;&#x65;&#x62;&#x72;&#x69;&#x73;</text>
<text font-family="thss00" font-size="9.377" fill="black" stroke="none" transform="matrix(1.000 0.000 -0.000 -1.000 83.570 467.674)">&#x73;&#x74;&#x61;&#x74;&#x69;&#x6f;&#x6e;&#x3a;&#xfb01;&#x78;&#x65;&#x64;</text>
<text font-family="thss00" font-size="9.377" fill="black" stroke="none" transform="matrix(1.000 0.000 -0.000 -1.000 0.190 467.674)">&#x73;&#x74;&#x61;&#x74;&#x69;&#x6f;&#x6e;</text>
</g>
<clipPath id="clip_viewBox">
<path d="M-29.202 -687.666L1240.491 -687.666L1240.491 29.027L-29.202 29.027z" />
</clipPath>
</defs>
<g transform="scale(1,-1)" fill="#000000" stroke="#000000" stroke-linecap="round" stroke-linejoin="round" stroke-miterlimit="10" fill-rule="evenodd" clip-rule="evenodd" clip-path="url(#clip_viewBox)">
<use x="-0.856" y="-659.319" xlink:href="#E_aaaaaaa_../../outputs/symbology.svg" />
<use x="8.144" y="-634.319" xlink:href="#X_aaaaaaa_../../outputs/symbology.svg" />
</g>
</svg>
