<?xml version="1.0" encoding="utf-8" standalone="no"?>
<!-- Generated by Therion 5.5.0+e2caa7d (2020-05-01) -->
<!DOCTYPE svg PUBLIC "-//W3C//DTD SVG 1.1//EN" "http://www.w3.org/Graphics/SVG/1.1/DTD/svg11.dtd">
<svg width="22.955cm" height="11.807cm" viewBox="-33.713 129.421 650.693 334.693" xmlns="http://www.w3.org/2000/svg" xmlns:xlink="http://www.w3.org/1999/xlink">
<defs>
<g id="F_aaaaaaa_/Users/AchilleTalon/Documents/GitHub/migovec-survey-data/configs/automation/../../outputs/symbology.svg">
<g>
<clipPath id="clip_1_/Users/AchilleTalon/Documents/GitHub/migovec-survey-data/configs/automation/../../outputs/symbology.svg">
  <path d="M8.700 -162.720C8.700 -179.393 8.700 -196.067 8.700 -212.740C30.933 -212.740 53.167 -212.740 75.400 -212.740C80.960 -212.740 86.520 -212.740 92.080 -212.740C114.310 -212.740 136.540 -212.740 158.770 -212.740C297.723 -196.067 436.677 -179.393 575.630 -162.720C553.400 -162.720 531.170 -162.720 508.940 -162.720C503.380 -162.720 497.820 -162.720 492.260 -162.720C470.027 -162.720 447.793 -162.720 425.560 -162.720C420.003 -162.720 414.447 -162.720 408.890 -162.720C386.657 -162.720 364.423 -162.720 342.190 -162.720C336.633 -162.720 331.077 -162.720 325.520 -162.720C303.287 -162.720 281.053 -162.720 258.820 -162.720C253.263 -162.720 247.707 -162.720 242.150 -162.720C219.917 -162.720 197.683 -162.720 175.450 -162.720C169.890 -162.720 164.330 -162.720 158.770 -162.720C136.540 -162.720 114.310 -162.720 92.080 -162.720C86.520 -162.720 80.960 -162.720 75.400 -162.720C53.167 -162.720 30.933 -162.720 8.700 -162.720" />
</clipPath>
<g clip-path="url(#clip_1_/Users/AchilleTalon/Documents/GitHub/migovec-survey-data/configs/automation/../../outputs/symbology.svg)">
<path fill="#ffffff" stroke="none" d="M163.816 0.726L170.404 0.726L170.404 7.314L170.404 0.726Z" />
<path fill="none" stroke="#b24c33" stroke-width="0.576" d="M165.615 2.877L164.640 1.550" />
<path fill="none" stroke="#b24c33" stroke-width="0.576" d="M165.223 6.458L163.816 7.314" />
<path fill="none" stroke="#b24c33" stroke-width="0.576" d="M166.286 4.552L164.640 4.514" />
<path fill="none" stroke="#b24c33" stroke-width="0.576" d="M168.139 4.711L167.110 5.996" />
<path fill="none" stroke="#b24c33" stroke-width="0.576" d="M169.081 8.600L168.757 6.985" />
<path fill="none" stroke="#b24c33" stroke-width="0.576" d="M171.118 3.734L170.075 5.008" />
<path fill="none" stroke="#b24c33" stroke-width="0.576" d="M169.183 2.458L167.934 1.385" />
<path fill="none" stroke="#b24c33" stroke-width="0.576" d="M167.912 9.221L167.439 7.644" />
<path fill="none" stroke="#b20000" stroke-width="0.576" d="M0.370 4.020L0.370 4.020" />
<path fill="none" stroke="#b20000" stroke-width="0.576" d="M0.370 170.770L0.370 170.770" />
</g>
</g>
</g>
<g id="G_aaaaaaa_/Users/AchilleTalon/Documents/GitHub/migovec-survey-data/configs/automation/../../outputs/symbology.svg">
</g>
<g id="B_aaaaaaa_/Users/AchilleTalon/Documents/GitHub/migovec-survey-data/configs/automation/../../outputs/symbology.svg">
<path fill="none" stroke="#000000" stroke-width="0.576" d="M0.700 51.280L67.400 51.280" />
<path fill="none" stroke="#000000" stroke-width="0.576" d="M84.080 51.280L150.770 51.280" />
<path fill="none" stroke="#000000" stroke-width="0.576" d="M167.450 51.280L234.150 51.280" />
<path fill="none" stroke="#000000" stroke-width="0.576" d="M250.820 51.280L317.520 51.280" />
<path fill="none" stroke="#000000" stroke-width="0.576" d="M334.190 51.280L400.890 51.280" />
<path fill="none" stroke="#000000" stroke-width="0.576" d="M417.560 51.280L484.260 51.280" />
<path fill="none" stroke="#000000" stroke-width="0.576" d="M500.940 51.280L567.630 51.280" />
<path fill="none" stroke="#000000" stroke-width="0.576" d="M150.770 1.260L84.080 1.260" />
<path fill="none" stroke="#000000" stroke-width="0.576" d="M67.400 1.260L0.700 1.260" />
</g>
<g id="I_aaaaaaa_/Users/AchilleTalon/Documents/GitHub/migovec-survey-data/configs/automation/../../outputs/symbology.svg">
<path fill="inherit" stroke="none" d="M0.700 50.280C0.700 33.607 0.700 16.933 0.700 0.260C22.933 0.260 45.167 0.260 67.400 0.260C72.960 0.260 78.520 0.260 84.080 0.260C106.310 0.260 128.540 0.260 150.770 0.260C289.723 16.933 428.677 33.607 567.630 50.280C545.400 50.280 523.170 50.280 500.940 50.280C495.380 50.280 489.820 50.280 484.260 50.280C462.027 50.280 439.793 50.280 417.560 50.280C412.003 50.280 406.447 50.280 400.890 50.280C378.657 50.280 356.423 50.280 334.190 50.280C328.633 50.280 323.077 50.280 317.520 50.280C295.287 50.280 273.053 50.280 250.820 50.280C245.263 50.280 239.707 50.280 234.150 50.280C211.917 50.280 189.683 50.280 167.450 50.280C161.890 50.280 156.330 50.280 150.770 50.280C128.540 50.280 106.310 50.280 84.080 50.280C78.520 50.280 72.960 50.280 67.400 50.280C45.167 50.280 22.933 50.280 0.700 50.280Z" />
</g>
<g id="E_aaaaaaa_/Users/AchilleTalon/Documents/GitHub/migovec-survey-data/configs/automation/../../outputs/symbology.svg">
<path fill="#ffffff" stroke="none" d="M522.276 2.230L513.940 2.230L513.940 6.398C513.956 5.405 514.641 4.548 515.607 4.314C516.152 4.182 516.716 4.278 517.274 4.314C517.829 4.350 518.385 4.324 518.942 4.314C519.497 4.304 520.053 4.311 520.608 4.314C521.164 4.317 521.720 4.317 522.276 4.314Z" />
<path fill="none" stroke="#000000" stroke-width="0.824" d="M513.940 4.314L515.607 4.314L517.274 4.314L518.942 4.314L520.608 4.314L522.276 4.314" />
<path fill="#000000" stroke="#000000" stroke-width="0.824" d="M517.274 4.314L518.942 8.482L520.608 4.314L518.942 4.314Z" />
<path fill="none" stroke="#000000" stroke-width="0.824" d="M517.274 4.314L518.942 8.482L520.608 4.314" />
<path fill="#ffffff" stroke="none" d="M530.612 2.230L522.276 2.230L522.276 6.398C522.292 5.405 522.978 4.548 523.943 4.314C524.488 4.182 525.052 4.278 525.610 4.314C526.165 4.350 526.722 4.324 527.278 4.314C527.833 4.304 528.389 4.311 528.945 4.314C529.501 4.317 530.057 4.317 530.612 4.314Z" />
<path fill="none" stroke="#000000" stroke-width="0.824" d="M522.276 4.314L523.943 4.314L525.610 4.314L527.278 4.314L528.945 4.314L530.612 4.314" />
<path fill="#000000" stroke="#000000" stroke-width="0.824" d="M525.610 4.314L527.278 8.482L528.945 4.314L527.278 4.314Z" />
<path fill="none" stroke="#000000" stroke-width="0.824" d="M525.610 4.314L527.278 8.482L528.945 4.314" />
<path fill="#ffffff" stroke="none" d="M538.949 2.230L530.612 2.230L530.612 6.398C530.628 5.405 531.314 4.548 532.279 4.314C532.824 4.182 533.388 4.278 533.946 4.314C534.501 4.350 535.058 4.324 535.614 4.314C536.170 4.304 536.725 4.311 537.281 4.314C537.837 4.317 538.393 4.317 538.949 4.314Z" />
<path fill="none" stroke="#000000" stroke-width="0.824" d="M530.612 4.314L532.279 4.314L533.946 4.314L535.614 4.314L537.281 4.314L538.949 4.314" />
<path fill="#000000" stroke="#000000" stroke-width="0.824" d="M533.946 4.314L535.614 8.482L537.281 4.314L535.614 4.314Z" />
<path fill="none" stroke="#000000" stroke-width="0.824" d="M533.946 4.314L535.614 8.482L537.281 4.314" />
<path fill="#ffffff" stroke="none" d="M547.285 2.230L538.949 2.230L538.949 6.398C538.965 5.405 539.650 4.548 540.616 4.314C541.160 4.182 541.725 4.278 542.282 4.314C542.838 4.350 543.394 4.324 543.950 4.314C544.506 4.304 545.062 4.311 545.617 4.314C546.173 4.317 546.729 4.317 547.285 4.314Z" />
<path fill="none" stroke="#000000" stroke-width="0.824" d="M538.949 4.314L540.616 4.314L542.282 4.314L543.950 4.314L545.617 4.314L547.285 4.314" />
<path fill="#000000" stroke="#000000" stroke-width="0.824" d="M542.282 4.314L543.950 8.482L545.617 4.314L543.950 4.314Z" />
<path fill="none" stroke="#000000" stroke-width="0.824" d="M542.282 4.314L543.950 8.482L545.617 4.314" />
<path fill="#ffffff" stroke="none" d="M555.621 2.230L547.285 2.230L547.285 6.398C547.301 5.405 547.986 4.548 548.952 4.314C549.497 4.182 550.061 4.278 550.619 4.314C551.174 4.350 551.730 4.324 552.287 4.314C552.842 4.304 553.398 4.311 553.953 4.314C554.509 4.317 555.065 4.317 555.621 4.314Z" />
<path fill="none" stroke="#000000" stroke-width="0.824" d="M547.285 4.314L548.952 4.314L550.619 4.314L552.287 4.314L553.953 4.314L555.621 4.314" />
<path fill="#000000" stroke="#000000" stroke-width="0.824" d="M550.619 4.314L552.287 8.482L553.953 4.314L552.287 4.314Z" />
<path fill="none" stroke="#000000" stroke-width="0.824" d="M550.619 4.314L552.287 8.482L553.953 4.314" />
<path fill="#ffffff" stroke="none" d="M563.957 2.230L555.621 2.230L555.621 6.398C555.637 5.405 556.323 4.548 557.288 4.314C557.833 4.182 558.397 4.278 558.955 4.314C559.510 4.350 560.067 4.324 560.623 4.314C561.178 4.304 561.734 4.311 562.290 4.314C562.846 4.317 563.402 4.317 563.958 4.314Z" />
<path fill="none" stroke="#000000" stroke-width="0.824" d="M555.621 4.314L557.288 4.314L558.955 4.314L560.623 4.314L562.290 4.314L563.958 4.314" />
<path fill="#000000" stroke="#000000" stroke-width="0.824" d="M558.955 4.314L560.623 8.482L562.290 4.314L560.623 4.314Z" />
<path fill="none" stroke="#000000" stroke-width="0.824" d="M558.955 4.314L560.623 8.482L562.290 4.314" />
<path fill="#ffffff" stroke="none" d="M572.294 2.230L563.958 2.230L563.958 6.398C563.973 5.405 564.659 4.548 565.624 4.314C566.169 4.182 566.733 4.278 567.291 4.314C567.846 4.350 568.403 4.324 568.959 4.314C569.515 4.304 570.070 4.311 570.626 4.314C571.182 4.317 571.738 4.317 572.294 4.314Z" />
<path fill="none" stroke="#000000" stroke-width="0.824" d="M563.958 4.314L565.624 4.314L567.291 4.314L568.959 4.314L570.626 4.314L572.294 4.314" />
<path fill="#000000" stroke="#000000" stroke-width="0.824" d="M567.291 4.314L568.959 8.482L570.626 4.314L568.959 4.314Z" />
<path fill="none" stroke="#000000" stroke-width="0.824" d="M567.291 4.314L568.959 8.482L570.626 4.314" />
<path fill="#ffffff" stroke="none" d="M580.630 2.230L572.294 2.230L572.294 6.398C572.310 5.405 572.995 4.548 573.961 4.314C574.505 4.182 575.069 4.278 575.627 4.314C576.183 4.350 576.739 4.324 577.295 4.314C577.851 4.304 578.407 4.311 578.962 4.314C579.518 4.317 580.074 4.317 580.630 4.314Z" />
<path fill="none" stroke="#000000" stroke-width="0.824" d="M572.294 4.314L573.961 4.314L575.627 4.314L577.295 4.314L578.962 4.314L580.630 4.314" />
<path fill="#000000" stroke="#000000" stroke-width="0.824" d="M575.627 4.314L577.295 8.482L578.962 4.314L577.295 4.314Z" />
<path fill="none" stroke="#000000" stroke-width="0.824" d="M575.627 4.314L577.295 8.482L578.962 4.314" />
<path fill="none" stroke="#000000" stroke-width="1.647" d="M513.940 2.230L580.630 2.230" />
<path fill="#ffffff" stroke="none" d="M434.729 2.230L430.560 2.230L430.560 4.314L431.394 4.314L432.227 4.314L433.061 4.314L433.894 4.314L434.729 4.314Z" />
<path fill="none" stroke="#00b2e5" stroke-width="0.824" d="M430.560 2.230L497.260 2.230" />
<path fill="none" stroke="#00b2e5" stroke-width="0.824" d="M433.061 2.230L433.061 5.009" />
<path fill="#ffffff" stroke="none" d="M438.897 2.230L434.729 2.230L434.729 4.314L435.562 4.314L436.396 4.314L437.229 4.314L438.063 4.314L438.898 4.314Z" />
<path fill="none" stroke="#00b2e5" stroke-width="0.824" d="M430.560 2.230L497.260 2.230" />
<path fill="none" stroke="#00b2e5" stroke-width="0.824" d="M437.229 2.230L437.229 5.009" />
<path fill="#ffffff" stroke="none" d="M443.066 2.230L438.898 2.230L438.898 4.314L439.731 4.314L440.565 4.314L441.398 4.314L442.232 4.314L443.066 4.314Z" />
<path fill="none" stroke="#00b2e5" stroke-width="0.824" d="M430.560 2.230L497.260 2.230" />
<path fill="none" stroke="#00b2e5" stroke-width="0.824" d="M441.398 2.230L441.398 5.009" />
<path fill="#ffffff" stroke="none" d="M447.235 2.230L443.066 2.230L443.066 4.314L443.900 4.314L444.733 4.314L445.567 4.314L446.400 4.314L447.235 4.314Z" />
<path fill="none" stroke="#00b2e5" stroke-width="0.824" d="M430.560 2.230L497.260 2.230" />
<path fill="none" stroke="#00b2e5" stroke-width="0.824" d="M445.567 2.230L445.567 5.009" />
<path fill="#ffffff" stroke="none" d="M451.403 2.230L447.235 2.230L447.235 4.314L448.069 4.314L448.902 4.314L449.736 4.314L450.569 4.314L451.404 4.314Z" />
<path fill="none" stroke="#00b2e5" stroke-width="0.824" d="M430.560 2.230L497.260 2.230" />
<path fill="none" stroke="#00b2e5" stroke-width="0.824" d="M449.736 2.230L449.736 5.009" />
<path fill="#ffffff" stroke="none" d="M455.573 2.230L451.404 2.230L451.404 4.314L452.237 4.314L453.071 4.314L453.904 4.314L454.738 4.314L455.573 4.314Z" />
<path fill="none" stroke="#00b2e5" stroke-width="0.824" d="M430.560 2.230L497.260 2.230" />
<path fill="none" stroke="#00b2e5" stroke-width="0.824" d="M453.904 2.230L453.904 5.009" />
<path fill="#ffffff" stroke="none" d="M459.741 2.230L455.573 2.230L455.573 4.314L456.406 4.314L457.240 4.314L458.073 4.314L458.907 4.314L459.741 4.314Z" />
<path fill="none" stroke="#00b2e5" stroke-width="0.824" d="M430.560 2.230L497.260 2.230" />
<path fill="none" stroke="#00b2e5" stroke-width="0.824" d="M458.073 2.230L458.073 5.009" />
<path fill="#ffffff" stroke="none" d="M463.910 2.230L459.741 2.230L459.741 4.314L460.575 4.314L461.408 4.314L462.242 4.314L463.075 4.314L463.910 4.314Z" />
<path fill="none" stroke="#00b2e5" stroke-width="0.824" d="M430.560 2.230L497.260 2.230" />
<path fill="none" stroke="#00b2e5" stroke-width="0.824" d="M462.242 2.230L462.242 5.009" />
<path fill="#ffffff" stroke="none" d="M468.079 2.230L463.909 2.230L463.909 4.314L464.744 4.314L465.577 4.314L466.411 4.314L467.244 4.314L468.079 4.314Z" />
<path fill="none" stroke="#00b2e5" stroke-width="0.824" d="M430.560 2.230L497.260 2.230" />
<path fill="none" stroke="#00b2e5" stroke-width="0.824" d="M466.411 2.230L466.411 5.009" />
<path fill="#ffffff" stroke="none" d="M472.247 2.230L468.078 2.230L468.078 4.314L468.912 4.314L469.746 4.314L470.579 4.314L471.413 4.314L472.248 4.314Z" />
<path fill="none" stroke="#00b2e5" stroke-width="0.824" d="M430.560 2.230L497.260 2.230" />
<path fill="none" stroke="#00b2e5" stroke-width="0.824" d="M470.579 2.230L470.579 5.009" />
<path fill="#ffffff" stroke="none" d="M476.416 2.230L472.246 2.230L472.246 4.314L473.081 4.314L473.915 4.314L474.748 4.314L475.582 4.314L476.416 4.314Z" />
<path fill="none" stroke="#00b2e5" stroke-width="0.824" d="M430.560 2.230L497.260 2.230" />
<path fill="none" stroke="#00b2e5" stroke-width="0.824" d="M474.748 2.230L474.748 5.009" />
<path fill="#ffffff" stroke="none" d="M480.585 2.230L476.415 2.230L476.415 4.314L477.250 4.314L478.083 4.314L478.917 4.314L479.750 4.314L480.585 4.314Z" />
<path fill="none" stroke="#00b2e5" stroke-width="0.824" d="M430.560 2.230L497.260 2.230" />
<path fill="none" stroke="#00b2e5" stroke-width="0.824" d="M478.917 2.230L478.917 5.009" />
<path fill="#ffffff" stroke="none" d="M484.754 2.230L480.584 2.230L480.584 4.314L481.419 4.314L482.252 4.314L483.086 4.314L483.919 4.314L484.754 4.314Z" />
<path fill="none" stroke="#00b2e5" stroke-width="0.824" d="M430.560 2.230L497.260 2.230" />
<path fill="none" stroke="#00b2e5" stroke-width="0.824" d="M483.086 2.230L483.086 5.009" />
<path fill="#ffffff" stroke="none" d="M488.923 2.230L484.753 2.230L484.753 4.314L485.587 4.314L486.421 4.314L487.254 4.314L488.088 4.314L488.923 4.314Z" />
<path fill="none" stroke="#00b2e5" stroke-width="0.824" d="M430.560 2.230L497.260 2.230" />
<path fill="none" stroke="#00b2e5" stroke-width="0.824" d="M487.254 2.230L487.254 5.009" />
<path fill="#ffffff" stroke="none" d="M493.091 2.230L488.921 2.230L488.921 4.314L489.756 4.314L490.590 4.314L491.423 4.314L492.257 4.314L493.091 4.314Z" />
<path fill="none" stroke="#00b2e5" stroke-width="0.824" d="M430.560 2.230L497.260 2.230" />
<path fill="none" stroke="#00b2e5" stroke-width="0.824" d="M491.423 2.230L491.423 5.009" />
<path fill="#ffffff" stroke="none" d="M497.260 2.230L493.090 2.230L493.090 4.314L493.925 4.314L494.758 4.314L495.592 4.314L496.425 4.314L497.260 4.314Z" />
<path fill="none" stroke="#00b2e5" stroke-width="0.824" d="M430.560 2.230L497.260 2.230" />
<path fill="none" stroke="#00b2e5" stroke-width="0.824" d="M495.592 2.230L495.592 5.009" />
<path fill="#ffffff" stroke="none" d="M349.274 2.230L353.443 2.230L351.359 6.399Z" />
<path fill="#00b2e5" stroke="none" d="M353.443 2.230L351.359 6.399L349.274 2.230Z" />
<path fill="#ffffff" stroke="none" d="M357.612 2.230L361.781 2.230L359.696 6.399Z" />
<path fill="#00b2e5" stroke="none" d="M361.781 2.230L359.696 6.399L357.612 2.230Z" />
<path fill="#ffffff" stroke="none" d="M365.949 2.230L370.118 2.230L368.034 6.399Z" />
<path fill="#00b2e5" stroke="none" d="M370.118 2.230L368.034 6.399L365.949 2.230Z" />
<path fill="#ffffff" stroke="none" d="M374.287 2.230L378.456 2.230L376.371 6.399Z" />
<path fill="#00b2e5" stroke="none" d="M378.456 2.230L376.371 6.399L374.287 2.230Z" />
<path fill="#ffffff" stroke="none" d="M382.623 2.230L386.792 2.230L384.709 6.399Z" />
<path fill="#00b2e5" stroke="none" d="M386.792 2.230L384.709 6.399L382.623 2.230Z" />
<path fill="#ffffff" stroke="none" d="M390.961 2.230L395.130 2.230L393.046 6.399Z" />
<path fill="#00b2e5" stroke="none" d="M395.130 2.230L393.046 6.399L390.961 2.230Z" />
<path fill="#ffffff" stroke="none" d="M399.298 2.230L403.467 2.230L401.384 6.399Z" />
<path fill="#00b2e5" stroke="none" d="M403.467 2.230L401.384 6.399L399.298 2.230Z" />
<path fill="#ffffff" stroke="none" d="M407.636 2.230L411.805 2.230L409.721 6.399Z" />
<path fill="#00b2e5" stroke="none" d="M411.805 2.230L409.721 6.399L407.636 2.230Z" />
<path fill="none" stroke="#00b2e5" stroke-width="0.824" d="M347.190 2.230L413.890 2.230" />
<path fill="#ffffff" stroke="none" d="M267.989 2.230L263.820 2.230L263.820 4.314L264.654 4.314L265.487 4.314L266.321 4.314L267.154 4.314L267.989 4.314Z" />
<path fill="none" stroke="#000000" stroke-width="0.824" d="M263.820 4.314L264.654 4.314L265.487 4.314L266.321 4.314L267.154 4.314L267.989 4.314" />
<path fill="none" stroke="#000000" stroke-width="0.824" d="M266.321 4.314L266.321 7.788" />
<path fill="#ffffff" stroke="none" d="M272.157 2.230L267.989 2.230L267.989 4.314L268.822 4.314L269.656 4.314L270.489 4.314L271.323 4.314L272.158 4.314Z" />
<path fill="none" stroke="#000000" stroke-width="0.824" d="M267.989 4.314L268.822 4.314L269.656 4.314L270.489 4.314L271.323 4.314L272.158 4.314" />
<path fill="none" stroke="#000000" stroke-width="0.824" d="M270.489 4.314L270.489 7.788" />
<path fill="#ffffff" stroke="none" d="M276.326 2.230L272.158 2.230L272.158 4.314L272.991 4.314L273.825 4.314L274.658 4.314L275.492 4.314L276.326 4.314Z" />
<path fill="none" stroke="#000000" stroke-width="0.824" d="M272.158 4.314L272.991 4.314L273.825 4.314L274.658 4.314L275.492 4.314L276.326 4.314" />
<path fill="none" stroke="#000000" stroke-width="0.824" d="M274.658 4.314L274.658 7.788" />
<path fill="#ffffff" stroke="none" d="M280.495 2.230L276.326 2.230L276.326 4.314L277.160 4.314L277.993 4.314L278.827 4.314L279.660 4.314L280.495 4.314Z" />
<path fill="none" stroke="#000000" stroke-width="0.824" d="M276.326 4.314L277.160 4.314L277.993 4.314L278.827 4.314L279.660 4.314L280.495 4.314" />
<path fill="none" stroke="#000000" stroke-width="0.824" d="M278.827 4.314L278.827 7.788" />
<path fill="#ffffff" stroke="none" d="M284.663 2.230L280.495 2.230L280.495 4.314L281.329 4.314L282.162 4.314L282.996 4.314L283.829 4.314L284.664 4.314Z" />
<path fill="none" stroke="#000000" stroke-width="0.824" d="M280.495 4.314L281.329 4.314L282.162 4.314L282.996 4.314L283.829 4.314L284.664 4.314" />
<path fill="none" stroke="#000000" stroke-width="0.824" d="M282.996 4.314L282.996 7.788" />
<path fill="#ffffff" stroke="none" d="M288.833 2.230L284.664 2.230L284.664 4.314L285.497 4.314L286.331 4.314L287.164 4.314L287.998 4.314L288.833 4.314Z" />
<path fill="none" stroke="#000000" stroke-width="0.824" d="M284.664 4.314L285.497 4.314L286.331 4.314L287.164 4.314L287.998 4.314L288.833 4.314" />
<path fill="none" stroke="#000000" stroke-width="0.824" d="M287.164 4.314L287.164 7.788" />
<path fill="#ffffff" stroke="none" d="M293.002 2.230L288.833 2.230L288.833 4.314L289.666 4.314L290.500 4.314L291.333 4.314L292.167 4.314L293.001 4.314Z" />
<path fill="none" stroke="#000000" stroke-width="0.824" d="M288.833 4.314L289.666 4.314L290.500 4.314L291.333 4.314L292.167 4.314L293.001 4.314" />
<path fill="none" stroke="#000000" stroke-width="0.824" d="M291.333 4.314L291.333 7.788" />
<path fill="#ffffff" stroke="none" d="M297.170 2.230L293.001 2.230L293.001 4.314L293.835 4.314L294.668 4.314L295.502 4.314L296.335 4.314L297.170 4.314Z" />
<path fill="none" stroke="#000000" stroke-width="0.824" d="M293.001 4.314L293.835 4.314L294.668 4.314L295.502 4.314L296.335 4.314L297.170 4.314" />
<path fill="none" stroke="#000000" stroke-width="0.824" d="M295.502 4.314L295.502 7.788" />
<path fill="#ffffff" stroke="none" d="M301.339 2.230L297.169 2.230L297.169 4.314L298.004 4.314L298.837 4.314L299.671 4.314L300.504 4.314L301.339 4.314Z" />
<path fill="none" stroke="#000000" stroke-width="0.824" d="M297.169 4.314L298.004 4.314L298.837 4.314L299.671 4.314L300.504 4.314L301.339 4.314" />
<path fill="none" stroke="#000000" stroke-width="0.824" d="M299.671 4.314L299.671 7.788" />
<path fill="#ffffff" stroke="none" d="M305.507 2.230L301.338 2.230L301.338 4.314L302.172 4.314L303.006 4.314L303.839 4.314L304.673 4.314L305.508 4.314Z" />
<path fill="none" stroke="#000000" stroke-width="0.824" d="M301.338 4.314L302.172 4.314L303.006 4.314L303.839 4.314L304.673 4.314L305.508 4.314" />
<path fill="none" stroke="#000000" stroke-width="0.824" d="M303.839 4.314L303.839 7.788" />
<path fill="#ffffff" stroke="none" d="M309.676 2.230L305.506 2.230L305.506 4.314L306.341 4.314L307.175 4.314L308.008 4.314L308.842 4.314L309.676 4.314Z" />
<path fill="none" stroke="#000000" stroke-width="0.824" d="M305.506 4.314L306.341 4.314L307.175 4.314L308.008 4.314L308.842 4.314L309.676 4.314" />
<path fill="none" stroke="#000000" stroke-width="0.824" d="M308.008 4.314L308.008 7.788" />
<path fill="#ffffff" stroke="none" d="M313.845 2.230L309.675 2.230L309.675 4.314L310.510 4.314L311.343 4.314L312.177 4.314L313.010 4.314L313.845 4.314Z" />
<path fill="none" stroke="#000000" stroke-width="0.824" d="M309.675 4.314L310.510 4.314L311.343 4.314L312.177 4.314L313.010 4.314L313.845 4.314" />
<path fill="none" stroke="#000000" stroke-width="0.824" d="M312.177 4.314L312.177 7.788" />
<path fill="#ffffff" stroke="none" d="M318.014 2.230L313.844 2.230L313.844 4.314L314.679 4.314L315.512 4.314L316.346 4.314L317.179 4.314L318.014 4.314Z" />
<path fill="none" stroke="#000000" stroke-width="0.824" d="M313.844 4.314L314.679 4.314L315.512 4.314L316.346 4.314L317.179 4.314L318.014 4.314" />
<path fill="none" stroke="#000000" stroke-width="0.824" d="M316.346 4.314L316.346 7.788" />
<path fill="#ffffff" stroke="none" d="M322.183 2.230L318.013 2.230L318.013 4.314L318.847 4.314L319.681 4.314L320.514 4.314L321.348 4.314L322.183 4.314Z" />
<path fill="none" stroke="#000000" stroke-width="0.824" d="M318.013 4.314L318.847 4.314L319.681 4.314L320.514 4.314L321.348 4.314L322.183 4.314" />
<path fill="none" stroke="#000000" stroke-width="0.824" d="M320.514 4.314L320.514 7.788" />
<path fill="#ffffff" stroke="none" d="M326.351 2.230L322.181 2.230L322.181 4.314L323.016 4.314L323.850 4.314L324.683 4.314L325.517 4.314L326.351 4.314Z" />
<path fill="none" stroke="#000000" stroke-width="0.824" d="M322.181 4.314L323.016 4.314L323.850 4.314L324.683 4.314L325.517 4.314L326.351 4.314" />
<path fill="none" stroke="#000000" stroke-width="0.824" d="M324.683 4.314L324.683 7.788" />
<path fill="#ffffff" stroke="none" d="M330.520 2.230L326.350 2.230L326.350 4.314L327.185 4.314L328.018 4.314L328.852 4.314L329.685 4.314L330.520 4.314Z" />
<path fill="none" stroke="#000000" stroke-width="0.824" d="M326.350 4.314L327.185 4.314L328.018 4.314L328.852 4.314L329.685 4.314L330.520 4.314" />
<path fill="none" stroke="#000000" stroke-width="0.824" d="M328.852 4.314L328.852 7.788" />
<path fill="none" stroke="#000000" stroke-width="1.647" d="M263.820 2.230L330.520 2.230" />
<path fill="#ffffff" stroke="none" d="M182.534 2.230L186.703 2.230L184.619 6.399Z" />
<path fill="#000000" stroke="none" d="M186.703 2.230L184.619 6.399L182.534 2.230Z" />
<path fill="#ffffff" stroke="none" d="M190.872 2.230L195.041 2.230L192.956 6.399Z" />
<path fill="#000000" stroke="none" d="M195.041 2.230L192.956 6.399L190.872 2.230Z" />
<path fill="#ffffff" stroke="none" d="M199.209 2.230L203.378 2.230L201.294 6.399Z" />
<path fill="#000000" stroke="none" d="M203.378 2.230L201.294 6.399L199.209 2.230Z" />
<path fill="#ffffff" stroke="none" d="M207.547 2.230L211.716 2.230L209.631 6.399Z" />
<path fill="#000000" stroke="none" d="M211.716 2.230L209.631 6.399L207.547 2.230Z" />
<path fill="#ffffff" stroke="none" d="M215.883 2.230L220.052 2.230L217.969 6.399Z" />
<path fill="#000000" stroke="none" d="M220.052 2.230L217.969 6.399L215.883 2.230Z" />
<path fill="#ffffff" stroke="none" d="M224.221 2.230L228.390 2.230L226.306 6.399Z" />
<path fill="#000000" stroke="none" d="M228.390 2.230L226.306 6.399L224.221 2.230Z" />
<path fill="#ffffff" stroke="none" d="M232.558 2.230L236.727 2.230L234.644 6.399Z" />
<path fill="#000000" stroke="none" d="M236.727 2.230L234.644 6.399L232.558 2.230Z" />
<path fill="#ffffff" stroke="none" d="M240.896 2.230L245.065 2.230L242.981 6.399Z" />
<path fill="#000000" stroke="none" d="M245.065 2.230L242.981 6.399L240.896 2.230Z" />
<path fill="none" stroke="#000000" stroke-width="0.824" d="M180.450 2.230L247.150 2.230" />
<path fill="none" stroke="#000000" stroke-width="0.824" d="M97.080 2.230L163.770 2.230" />
<path fill="none" stroke="#000000" stroke-width="0.824" d="M159.652 3.877L163.770 2.230L159.652 0.583" />
<path fill="#ffffff" stroke="none" d="M15.784 2.230L19.953 2.230L17.869 6.399Z" />
<path fill="none" stroke="#000000" stroke-width="0.824" d="M19.953 2.230L17.869 6.399L15.784 2.230" />
<path fill="#ffffff" stroke="none" d="M24.122 2.230L28.291 2.230L26.206 6.399Z" />
<path fill="none" stroke="#000000" stroke-width="0.824" d="M28.291 2.230L26.206 6.399L24.122 2.230" />
<path fill="#ffffff" stroke="none" d="M32.459 2.230L36.628 2.230L34.544 6.399Z" />
<path fill="none" stroke="#000000" stroke-width="0.824" d="M36.628 2.230L34.544 6.399L32.459 2.230" />
<path fill="#ffffff" stroke="none" d="M40.797 2.230L44.966 2.230L42.881 6.399Z" />
<path fill="none" stroke="#000000" stroke-width="0.824" d="M44.966 2.230L42.881 6.399L40.797 2.230" />
<path fill="#ffffff" stroke="none" d="M49.133 2.230L53.302 2.230L51.219 6.399Z" />
<path fill="none" stroke="#000000" stroke-width="0.824" d="M53.302 2.230L51.219 6.399L49.133 2.230" />
<path fill="#ffffff" stroke="none" d="M57.471 2.230L61.640 2.230L59.556 6.399Z" />
<path fill="none" stroke="#000000" stroke-width="0.824" d="M61.640 2.230L59.556 6.399L57.471 2.230" />
<path fill="#ffffff" stroke="none" d="M65.808 2.230L69.977 2.230L67.894 6.399Z" />
<path fill="none" stroke="#000000" stroke-width="0.824" d="M69.977 2.230L67.894 6.399L65.808 2.230" />
<path fill="#ffffff" stroke="none" d="M74.146 2.230L78.315 2.230L76.231 6.399Z" />
<path fill="none" stroke="#000000" stroke-width="0.824" d="M78.315 2.230L76.231 6.399L74.146 2.230" />
<path fill="none" stroke="#000000" stroke-width="0.824" d="M13.700 2.230L80.400 2.230" />
<path fill="none" stroke="#d87219" stroke-width="0.824" d="M515.676 51.514C516.116 51.957 516.668 52.272 517.274 52.425C517.821 52.562 518.394 52.562 518.942 52.425C519.548 52.272 520.100 51.957 520.540 51.514L520.531 51.514C520.040 51.800 519.502 51.997 518.942 52.095C518.390 52.192 517.825 52.192 517.274 52.095C516.711 51.997 516.170 51.800 515.676 51.514" />
<path fill="none" stroke="#d87219" stroke-width="0.824" d="M524.012 51.514C524.452 51.957 525.004 52.272 525.610 52.425C526.157 52.562 526.730 52.562 527.278 52.425C527.884 52.272 528.437 51.957 528.876 51.514L528.867 51.514C528.376 51.800 527.838 51.997 527.278 52.095C526.726 52.192 526.162 52.192 525.610 52.095C525.047 51.997 524.506 51.800 524.012 51.514" />
<path fill="none" stroke="#d87219" stroke-width="0.824" d="M532.349 51.514C532.788 51.957 533.341 52.272 533.946 52.425C534.494 52.562 535.067 52.562 535.614 52.425C536.220 52.272 536.773 51.957 537.213 51.514L537.204 51.514C536.712 51.800 536.174 51.997 535.614 52.095C535.062 52.192 534.498 52.192 533.946 52.095C533.384 51.997 532.843 51.800 532.349 51.514" />
<path fill="none" stroke="#d87219" stroke-width="0.824" d="M540.685 51.514C541.124 51.957 541.677 52.272 542.282 52.425C542.830 52.562 543.403 52.562 543.950 52.425C544.556 52.272 545.109 51.957 545.549 51.514L545.540 51.514C545.049 51.800 544.510 51.997 543.950 52.095C543.399 52.192 542.834 52.192 542.282 52.095C541.720 51.997 541.179 51.800 540.685 51.514" />
<path fill="none" stroke="#d87219" stroke-width="0.824" d="M549.021 51.514C549.461 51.957 550.013 52.272 550.619 52.425C551.166 52.562 551.739 52.562 552.287 52.425C552.893 52.272 553.445 51.957 553.885 51.514L553.876 51.514C553.385 51.800 552.847 51.997 552.287 52.095C551.735 52.192 551.170 52.192 550.619 52.095C550.056 51.997 549.515 51.800 549.021 51.514" />
<path fill="none" stroke="#d87219" stroke-width="0.824" d="M557.357 51.514C557.797 51.957 558.349 52.272 558.955 52.425C559.502 52.562 560.075 52.562 560.623 52.425C561.229 52.272 561.782 51.957 562.222 51.514L562.212 51.514C561.721 51.800 561.183 51.997 560.623 52.095C560.071 52.192 559.507 52.192 558.955 52.095C558.392 51.997 557.851 51.800 557.357 51.514" />
<path fill="none" stroke="#d87219" stroke-width="0.824" d="M565.694 51.514C566.133 51.957 566.686 52.272 567.291 52.425C567.839 52.562 568.412 52.562 568.959 52.425C569.565 52.272 570.118 51.957 570.558 51.514L570.549 51.514C570.057 51.800 569.519 51.997 568.959 52.095C568.407 52.192 567.843 52.192 567.291 52.095C566.729 51.997 566.188 51.800 565.694 51.514" />
<path fill="none" stroke="#d87219" stroke-width="0.824" d="M574.030 51.514C574.469 51.957 575.022 52.272 575.627 52.425C576.175 52.562 576.748 52.562 577.295 52.425C577.901 52.272 578.454 51.957 578.894 51.514L578.885 51.514C578.394 51.800 577.855 51.997 577.295 52.095C576.744 52.192 576.179 52.192 575.627 52.095C575.065 51.997 574.524 51.800 574.030 51.514" />
<path fill="none" stroke="#000000" stroke-width="0.576" d="M430.560 52.260L430.560 55.554" />
<path fill="none" stroke="#000000" stroke-width="0.576" d="M434.729 52.260L434.729 55.554" />
<path fill="none" stroke="#000000" stroke-width="0.576" d="M438.898 52.260L438.898 55.554" />
<path fill="none" stroke="#000000" stroke-width="0.576" d="M443.066 52.260L443.066 55.554" />
<path fill="none" stroke="#000000" stroke-width="0.576" d="M447.235 52.260L447.235 55.554" />
<path fill="none" stroke="#000000" stroke-width="0.576" d="M451.404 52.260L451.404 55.554" />
<path fill="none" stroke="#000000" stroke-width="0.576" d="M455.573 52.260L455.573 55.554" />
<path fill="none" stroke="#000000" stroke-width="0.576" d="M459.741 52.260L459.741 55.554" />
<path fill="none" stroke="#000000" stroke-width="0.576" d="M463.909 52.260L463.909 55.554" />
<path fill="none" stroke="#000000" stroke-width="0.576" d="M468.078 52.260L468.078 55.554" />
<path fill="none" stroke="#000000" stroke-width="0.576" d="M472.246 52.260L472.246 55.554" />
<path fill="none" stroke="#000000" stroke-width="0.576" d="M476.415 52.260L476.415 55.554" />
<path fill="none" stroke="#000000" stroke-width="0.576" d="M480.584 52.260L480.584 55.554" />
<path fill="none" stroke="#000000" stroke-width="0.576" d="M484.753 52.260L484.753 55.554" />
<path fill="none" stroke="#000000" stroke-width="0.576" d="M488.921 52.260L488.921 55.554" />
<path fill="none" stroke="#000000" stroke-width="0.576" d="M493.090 52.260L493.090 55.554" />
<path fill="none" stroke="#000000" stroke-width="0.576" d="M497.259 52.260L497.259 55.554" />
<path fill="none" stroke="#000000" stroke-width="0.824" d="M430.560 52.260L497.260 52.260" />
<path fill="none" stroke="#4c4c4c" stroke-width="0.576" d="M347.190 52.260L413.890 52.260" />
<path fill="#ffffff" stroke="none" d="M272.160 52.260L276.330 56.420L280.490 58.930L284.660 59.340L293.000 58.930L297.170 57.260L288.830 52.260L281.330 50.590Z" />
<path fill="none" stroke="#4c4c4c" stroke-width="0.824" d="M272.160 52.260L276.330 56.420L280.490 58.930L284.660 59.340L293.000 58.930L297.170 57.260L288.830 52.260L281.330 50.590Z" />
<path fill="none" stroke="#b20000" stroke-width="0.576" d="M180.450 52.260L247.150 52.260" />
<path fill="none" stroke="#000000" stroke-width="0.824" d="M97.080 52.260L163.770 52.260" />
<path fill="none" stroke="#000000" stroke-width="1.647" stroke-dasharray="14.118,14.118" stroke-dashoffset="0.000" d="M13.700 52.260L80.400 52.260" />
<path fill="none" stroke="#a58c19" stroke-width="0.824" d="M515.638 98.162C515.638 99.809 518.108 99.809 518.108 98.162C518.108 96.515 520.579 96.515 520.579 98.162" />
<path fill="none" stroke="#a58c19" stroke-width="0.824" d="M523.974 98.162C523.974 99.809 526.444 99.809 526.444 98.162C526.444 96.515 528.915 96.515 528.915 98.162" />
<path fill="none" stroke="#a58c19" stroke-width="0.824" d="M532.310 98.162C532.310 99.809 534.781 99.809 534.781 98.162C534.781 96.515 537.251 96.515 537.251 98.162" />
<path fill="none" stroke="#a58c19" stroke-width="0.824" d="M540.646 98.162C540.646 99.809 543.117 99.809 543.117 98.162C543.117 96.515 545.587 96.515 545.587 98.162" />
<path fill="none" stroke="#a58c19" stroke-width="0.824" d="M548.983 98.162C548.983 99.809 551.453 99.809 551.453 98.162C551.453 96.515 553.924 96.515 553.924 98.162" />
<path fill="none" stroke="#a58c19" stroke-width="0.824" d="M557.319 98.162C557.319 99.809 559.789 99.809 559.789 98.162C559.789 96.515 562.260 96.515 562.260 98.162" />
<path fill="none" stroke="#a58c19" stroke-width="0.824" d="M565.655 98.162C565.655 99.809 568.126 99.809 568.126 98.162C568.126 96.515 570.596 96.515 570.596 98.162" />
<path fill="none" stroke="#a58c19" stroke-width="0.824" d="M573.991 98.162C573.991 99.809 576.462 99.809 576.462 98.162C576.462 96.515 578.932 96.515 578.932 98.162" />
<path fill="none" stroke="#a58c19" stroke-width="1.647" d="M513.940 102.280L580.630 102.280" />
<path fill="#ffffff" stroke="none" d="M430.926 102.280C430.817 101.860 431.041 101.437 431.403 101.183C432.362 100.511 433.615 101.131 433.542 102.146C433.459 103.297 431.850 103.697 431.076 102.592C431.009 102.497 430.955 102.393 430.926 102.280Z" />
<path fill="#b24c33" stroke="none" d="M430.926 102.280C430.817 101.860 431.041 101.437 431.403 101.183C432.362 100.511 433.615 101.131 433.542 102.146C433.459 103.297 431.850 103.697 431.076 102.592C431.009 102.497 430.955 102.393 430.926 102.280Z" />
<path fill="#ffffff" stroke="none" d="M434.154 102.280C433.996 101.840 434.573 101.592 435.154 101.500C436.131 101.347 437.175 101.403 437.090 102.157C437.000 102.957 435.939 102.623 435.076 102.586C434.708 102.570 434.274 102.613 434.154 102.280Z" />
<path fill="#b24c33" stroke="none" d="M434.154 102.280C433.996 101.840 434.573 101.592 435.154 101.500C436.131 101.347 437.175 101.403 437.090 102.157C437.000 102.957 435.939 102.623 435.076 102.586C434.708 102.570 434.274 102.613 434.154 102.280Z" />
<path fill="#ffffff" stroke="none" d="M437.596 102.280C437.401 101.875 437.711 101.438 438.126 101.181C439.306 100.448 440.672 101.078 440.538 102.094C440.415 103.027 439.162 103.202 438.082 102.679C437.887 102.585 437.689 102.475 437.596 102.280Z" />
<path fill="#b24c33" stroke="none" d="M437.596 102.280C437.401 101.875 437.711 101.438 438.126 101.181C439.306 100.448 440.672 101.078 440.538 102.094C440.415 103.027 439.162 103.202 438.082 102.679C437.887 102.585 437.689 102.475 437.596 102.280Z" />
<path fill="#ffffff" stroke="none" d="M440.823 102.280C440.660 101.812 441.287 101.567 441.923 101.505C442.746 101.425 443.620 101.530 443.536 102.170C443.447 102.840 442.559 102.600 441.833 102.583C441.430 102.573 440.951 102.646 440.823 102.280Z" />
<path fill="#b24c33" stroke="none" d="M440.823 102.280C440.660 101.812 441.287 101.567 441.923 101.505C442.746 101.425 443.620 101.530 443.536 102.170C443.447 102.840 442.559 102.600 441.833 102.583C441.430 102.573 440.951 102.646 440.823 102.280Z" />
<path fill="#ffffff" stroke="none" d="M444.188 102.280C444.031 101.890 444.460 101.566 444.935 101.417C445.876 101.121 446.821 101.429 446.711 102.123C446.607 102.773 445.753 102.692 445.010 102.623C444.682 102.593 444.308 102.577 444.188 102.280Z" />
<path fill="#b24c33" stroke="none" d="M444.188 102.280C444.031 101.890 444.460 101.566 444.935 101.417C445.876 101.121 446.821 101.429 446.711 102.123C446.607 102.773 445.753 102.692 445.010 102.623C444.682 102.593 444.308 102.577 444.188 102.280Z" />
<path fill="#ffffff" stroke="none" d="M447.632 102.280C447.503 101.812 447.798 101.352 448.226 101.091C449.268 100.456 450.543 101.060 450.495 102.091C450.444 103.199 448.953 103.680 447.955 102.766C447.809 102.632 447.684 102.471 447.632 102.280Z" />
<path fill="#b24c33" stroke="none" d="M447.632 102.280C447.503 101.812 447.798 101.352 448.226 101.091C449.268 100.456 450.543 101.060 450.495 102.091C450.444 103.199 448.953 103.680 447.955 102.766C447.809 102.632 447.684 102.471 447.632 102.280Z" />
<path fill="#ffffff" stroke="none" d="M450.921 102.280C450.790 101.875 451.067 101.477 451.437 101.228C452.528 100.493 453.886 101.058 453.832 102.090C453.779 103.122 452.377 103.526 451.299 102.735C451.136 102.616 450.984 102.473 450.921 102.280Z" />
<path fill="#b24c33" stroke="none" d="M450.921 102.280C450.790 101.875 451.067 101.477 451.437 101.228C452.528 100.493 453.886 101.058 453.832 102.090C453.779 103.122 452.377 103.526 451.299 102.735C451.136 102.616 450.984 102.473 450.921 102.280Z" />
<path fill="#ffffff" stroke="none" d="M454.187 102.280C454.036 101.861 454.534 101.568 455.052 101.433C456.089 101.163 457.163 101.343 457.080 102.124C456.995 102.915 455.941 102.735 455.036 102.641C454.694 102.605 454.300 102.593 454.187 102.280Z" />
<path fill="#b24c33" stroke="none" d="M454.187 102.280C454.036 101.861 454.534 101.568 455.052 101.433C456.089 101.163 457.163 101.343 457.080 102.124C456.995 102.915 455.941 102.735 455.036 102.641C454.694 102.605 454.300 102.593 454.187 102.280Z" />
<path fill="#ffffff" stroke="none" d="M457.553 102.280C457.365 101.803 457.937 101.429 458.580 101.342C459.392 101.232 460.228 101.471 460.188 102.130C460.144 102.863 459.165 102.881 458.275 102.685C457.984 102.621 457.661 102.553 457.553 102.280Z" />
<path fill="#b24c33" stroke="none" d="M457.553 102.280C457.365 101.803 457.937 101.429 458.580 101.342C459.392 101.232 460.228 101.471 460.188 102.130C460.144 102.863 459.165 102.881 458.275 102.685C457.984 102.621 457.661 102.553 457.553 102.280Z" />
<path fill="#ffffff" stroke="none" d="M460.878 102.280C460.710 101.920 461.060 101.573 461.464 101.372C462.654 100.779 463.904 101.234 463.763 102.121C463.631 102.957 462.518 102.846 461.533 102.629C461.275 102.572 460.988 102.517 460.878 102.280Z" />
<path fill="#b24c33" stroke="none" d="M460.878 102.280C460.710 101.920 461.060 101.573 461.464 101.372C462.654 100.779 463.904 101.234 463.763 102.121C463.631 102.957 462.518 102.846 461.533 102.629C461.275 102.572 460.988 102.517 460.878 102.280Z" />
<path fill="#ffffff" stroke="none" d="M464.305 102.280C464.388 101.824 464.573 101.379 464.940 101.098C465.867 100.388 467.210 100.954 467.332 102.103C467.559 104.252 464.612 104.599 464.286 102.779C464.257 102.614 464.274 102.445 464.305 102.280Z" />
<path fill="#b24c33" stroke="none" d="M464.305 102.280C464.388 101.824 464.573 101.379 464.940 101.098C465.867 100.388 467.210 100.954 467.332 102.103C467.559 104.252 464.612 104.599 464.286 102.779C464.257 102.614 464.274 102.445 464.305 102.280Z" />
<path fill="#ffffff" stroke="none" d="M467.534 102.280C467.388 101.998 467.523 101.671 467.723 101.412C468.999 99.753 471.004 100.939 470.544 102.126C470.278 102.812 469.380 102.705 468.602 102.665C468.188 102.643 467.721 102.640 467.534 102.280Z" />
<path fill="#b24c33" stroke="none" d="M467.534 102.280C467.388 101.998 467.523 101.671 467.723 101.412C468.999 99.753 471.004 100.939 470.544 102.126C470.278 102.812 469.380 102.705 468.602 102.665C468.188 102.643 467.721 102.640 467.534 102.280Z" />
<path fill="#ffffff" stroke="none" d="M470.866 102.280C470.718 101.958 470.996 101.635 471.320 101.421C472.568 100.599 473.930 101.203 473.724 102.121C473.548 102.903 472.518 102.748 471.622 102.623C471.325 102.581 470.990 102.548 470.866 102.280Z" />
<path fill="#b24c33" stroke="none" d="M470.866 102.280C470.718 101.958 470.996 101.635 471.320 101.421C472.568 100.599 473.930 101.203 473.724 102.121C473.548 102.903 472.518 102.748 471.622 102.623C471.325 102.581 470.990 102.548 470.866 102.280Z" />
<path fill="#ffffff" stroke="none" d="M474.318 102.280C474.380 101.796 474.617 101.345 475.020 101.071C475.985 100.416 477.289 100.965 477.415 102.073C477.645 104.106 474.815 104.599 474.339 102.780C474.296 102.617 474.296 102.447 474.318 102.280Z" />
<path fill="#b24c33" stroke="none" d="M474.318 102.280C474.380 101.796 474.617 101.345 475.020 101.071C475.985 100.416 477.289 100.965 477.415 102.073C477.645 104.106 474.815 104.599 474.339 102.780C474.296 102.617 474.296 102.447 474.318 102.280Z" />
<path fill="#ffffff" stroke="none" d="M477.656 102.280C477.548 101.823 477.770 101.365 478.137 101.065C479.208 100.186 480.739 100.825 480.723 102.029C480.707 103.342 478.933 103.931 477.925 102.778C477.799 102.634 477.699 102.466 477.656 102.280Z" />
<path fill="#b24c33" stroke="none" d="M477.656 102.280C477.548 101.823 477.770 101.365 478.137 101.065C479.208 100.186 480.739 100.825 480.723 102.029C480.707 103.342 478.933 103.931 477.925 102.778C477.799 102.634 477.699 102.466 477.656 102.280Z" />
<path fill="#ffffff" stroke="none" d="M480.892 102.280C480.723 101.795 481.303 101.444 481.937 101.359C482.720 101.254 483.541 101.453 483.536 102.103C483.530 102.846 482.534 102.935 481.609 102.714C481.315 102.643 480.990 102.560 480.892 102.280Z" />
<path fill="#b24c33" stroke="none" d="M480.892 102.280C480.723 101.795 481.303 101.444 481.937 101.359C482.720 101.254 483.541 101.453 483.536 102.103C483.530 102.846 482.534 102.935 481.609 102.714C481.315 102.643 480.990 102.560 480.892 102.280Z" />
<path fill="#ffffff" stroke="none" d="M484.240 102.280C484.048 101.929 484.352 101.544 484.742 101.321C485.869 100.675 487.093 101.232 486.935 102.112C486.792 102.906 485.737 102.876 484.799 102.607C484.582 102.544 484.348 102.478 484.240 102.280Z" />
<path fill="#b24c33" stroke="none" d="M484.240 102.280C484.048 101.929 484.352 101.544 484.742 101.321C485.869 100.675 487.093 101.232 486.935 102.112C486.792 102.906 485.737 102.876 484.799 102.607C484.582 102.544 484.348 102.478 484.240 102.280Z" />
<path fill="#ffffff" stroke="none" d="M487.459 102.280C487.359 101.935 487.798 101.765 488.213 101.668C489.371 101.399 490.625 101.278 490.491 102.154C490.354 103.044 489.202 102.455 488.352 102.502C487.985 102.523 487.554 102.609 487.459 102.280Z" />
<path fill="#b24c33" stroke="none" d="M487.459 102.280C487.359 101.935 487.798 101.765 488.213 101.668C489.371 101.399 490.625 101.278 490.491 102.154C490.354 103.044 489.202 102.455 488.352 102.502C487.985 102.523 487.554 102.609 487.459 102.280Z" />
<path fill="#ffffff" stroke="none" d="M491.044 102.280C491.171 101.810 491.174 101.285 491.499 100.918C492.331 99.980 493.976 100.631 494.057 102.094C494.201 104.685 490.914 104.564 490.934 102.788C490.936 102.614 490.999 102.448 491.044 102.280Z" />
<path fill="#b24c33" stroke="none" d="M491.044 102.280C491.171 101.810 491.174 101.285 491.499 100.918C492.331 99.980 493.976 100.631 494.057 102.094C494.201 104.685 490.914 104.564 490.934 102.788C490.936 102.614 490.999 102.448 491.044 102.280Z" />
<path fill="#ffffff" stroke="none" d="M494.142 102.280C494.034 101.878 494.563 101.712 495.059 101.627C496.062 101.457 497.151 101.406 497.038 102.174C496.924 102.940 495.920 102.517 495.150 102.540C494.736 102.552 494.243 102.655 494.142 102.280Z" />
<path fill="#b24c33" stroke="none" d="M494.142 102.280C494.034 101.878 494.563 101.712 495.059 101.627C496.062 101.457 497.151 101.406 497.038 102.174C496.924 102.940 495.920 102.517 495.150 102.540C494.736 102.552 494.243 102.655 494.142 102.280Z" />
<path fill="none" stroke="#d87219" stroke-width="0.824" d="M349.742 97.339L350.977 98.986L352.212 97.339" />
<path fill="none" stroke="#d87219" stroke-width="0.824" d="M353.448 97.339L354.683 98.986L355.918 97.339" />
<path fill="none" stroke="#d87219" stroke-width="0.824" d="M363.082 97.339L364.317 98.986L365.552 97.339" />
<path fill="none" stroke="#d87219" stroke-width="0.824" d="M366.788 97.339L368.023 98.986L369.258 97.339" />
<path fill="none" stroke="#d87219" stroke-width="0.824" d="M376.422 97.339L377.658 98.986L378.893 97.339" />
<path fill="none" stroke="#d87219" stroke-width="0.824" d="M380.128 97.339L381.364 98.986L382.599 97.339" />
<path fill="none" stroke="#d87219" stroke-width="0.824" d="M389.762 97.339L390.997 98.986L392.233 97.339" />
<path fill="none" stroke="#d87219" stroke-width="0.824" d="M393.468 97.339L394.703 98.986L395.939 97.339" />
<path fill="none" stroke="#d87219" stroke-width="0.824" d="M403.102 97.339L404.337 98.986L405.572 97.339" />
<path fill="none" stroke="#d87219" stroke-width="0.824" d="M406.808 97.339L408.043 98.986L409.278 97.339" />
<path fill="none" stroke="#ff7f19" stroke-width="1.647" d="M347.190 102.280L413.890 102.280" />
<path fill="none" stroke="#00b2e5" stroke-width="0.824" d="M266.599 97.339L272.157 97.339" />
<path fill="none" stroke="#00b2e5" stroke-width="0.824" d="M277.716 94.868L277.716 98.986" />
<path fill="none" stroke="#00b2e5" stroke-width="0.824" d="M283.274 97.339L288.833 97.339" />
<path fill="none" stroke="#00b2e5" stroke-width="0.824" d="M294.390 94.868L294.390 98.986" />
<path fill="none" stroke="#00b2e5" stroke-width="0.824" d="M299.948 97.339L305.508 97.339" />
<path fill="none" stroke="#00b2e5" stroke-width="0.824" d="M311.065 94.868L311.065 98.986" />
<path fill="none" stroke="#00b2e5" stroke-width="0.824" d="M316.623 97.339L322.182 97.339" />
<path fill="none" stroke="#00b2e5" stroke-width="0.824" d="M327.741 94.868L327.741 98.986" />
<path fill="none" stroke="#00b2e5" stroke-width="1.647" d="M263.820 102.280L330.520 102.280" />
<path fill="none" stroke="#4c4c4c" stroke-width="0.824" d="M179.953 99.393C179.514 100.448 181.307 100.885 181.725 102.218C183.697 101.793 185.712 102.334 187.381 102.181C187.646 101.890 188.432 99.830 188.201 99.034" />
<path fill="none" stroke="#4c4c4c" stroke-width="0.824" d="M187.885 100.075C189.007 100.599 189.369 101.864 189.338 102.815C191.484 102.418 193.735 102.054 196.063 102.583C196.139 101.058 196.444 99.548 196.947 98.935" />
<path fill="none" stroke="#4c4c4c" stroke-width="0.824" d="M196.517 98.943C196.474 100.650 197.340 101.134 197.808 102.568C200.521 102.150 202.882 102.662 205.177 101.795C204.714 101.061 204.654 100.826 205.904 99.562" />
<path fill="none" stroke="#4c4c4c" stroke-width="0.824" d="M204.258 99.181C205.359 100.560 205.140 101.001 206.650 102.523C208.277 101.746 210.394 102.628 213.257 101.955C213.817 101.262 213.683 100.253 213.559 98.807" />
<path fill="none" stroke="#4c4c4c" stroke-width="0.824" d="M212.754 100.130C213.680 100.064 213.899 101.364 214.944 101.705C216.209 101.956 219.466 102.152 220.760 102.909C221.920 101.468 221.937 100.566 222.210 98.522" />
<path fill="none" stroke="#4c4c4c" stroke-width="0.824" d="M220.739 99.447C221.403 100.463 222.129 101.236 222.513 101.650C224.750 102.650 227.568 101.941 229.904 102.855C230.063 101.619 230.828 100.020 230.113 99.622" />
<path fill="none" stroke="#4c4c4c" stroke-width="0.824" d="M228.946 99.418C230.238 100.731 231.126 100.779 230.882 102.127C233.153 101.662 236.132 102.238 237.859 102.678C238.281 101.116 238.434 99.594 239.193 99.532" />
<path fill="none" stroke="#4c4c4c" stroke-width="0.824" d="M237.111 99.451C238.160 100.118 238.423 101.212 239.014 102.475C241.575 101.847 244.181 102.039 245.682 102.779C246.952 100.725 246.411 100.188 247.545 98.525" />
<path fill="none" stroke="#000000" stroke-width="1.647" d="M97.080 102.280L163.770 102.280" />
<path fill="none" stroke="#000000" stroke-width="0.824" d="M98.314 104.339L100.785 104.339L103.256 104.339L105.727 104.339L108.196 104.339L110.667 104.339L113.138 104.339L115.609 104.339L118.078 104.339L120.549 104.339L123.020 104.339L125.491 104.339L127.960 104.339L130.431 104.339L132.902 104.339L135.372 104.339L137.842 104.339L140.313 104.339L142.784 104.339L145.254 104.339L147.724 104.339L150.195 104.339L152.666 104.339L155.136 104.339L157.606 104.339L160.077 104.339L162.548 104.339" />
<path fill="none" stroke="#000000" stroke-width="0.824" d="M100.608 104.339L100.785 104.339L103.256 104.339L105.196 104.339L102.902 108.927Z" />
<path fill="#ffffff" stroke="none" d="M109.785 104.339L110.667 104.339L113.138 104.339L114.373 104.339L112.079 108.927Z" />
<path fill="none" stroke="#000000" stroke-width="0.824" d="M109.785 104.339L110.667 104.339L113.138 104.339L114.373 104.339L112.079 108.927Z" />
<path fill="#ffffff" stroke="none" d="M118.961 104.339L120.549 104.339L123.020 104.339L123.549 104.339L121.255 108.927Z" />
<path fill="none" stroke="#000000" stroke-width="0.824" d="M118.961 104.339L120.549 104.339L123.020 104.339L123.549 104.339L121.255 108.927Z" />
<path fill="#ffffff" stroke="none" d="M128.137 104.339L130.431 104.339L132.725 104.339L130.431 108.927Z" />
<path fill="none" stroke="#000000" stroke-width="0.824" d="M128.137 104.339L130.431 104.339L132.725 104.339L130.431 108.927Z" />
<path fill="#ffffff" stroke="none" d="M137.313 104.339L137.842 104.339L140.313 104.339L141.901 104.339L139.607 108.927Z" />
<path fill="none" stroke="#000000" stroke-width="0.824" d="M137.313 104.339L137.842 104.339L140.313 104.339L141.901 104.339L139.607 108.927Z" />
<path fill="#ffffff" stroke="none" d="M146.490 104.339L147.724 104.339L150.195 104.339L151.078 104.339L148.784 108.927Z" />
<path fill="none" stroke="#000000" stroke-width="0.824" d="M146.490 104.339L147.724 104.339L150.195 104.339L151.078 104.339L148.784 108.927Z" />
<path fill="#ffffff" stroke="none" d="M155.666 104.339L157.606 104.339L160.077 104.339L160.254 104.339L157.960 108.927Z" />
<path fill="none" stroke="#000000" stroke-width="0.824" d="M155.666 104.339L157.606 104.339L160.077 104.339L160.254 104.339L157.960 108.927Z" />
<path fill="none" stroke="#000000" stroke-width="1.647" d="M13.700 102.280L80.400 102.280" />
<path fill="#00b2e5" stroke="none" d="M90.058 179.286L90.716 177.310L90.058 175.334L93.681 177.310Z" />
<path fill="#ffffff" stroke="none" d="M90.058 179.286L90.716 177.310L90.058 175.334L84.128 175.334L84.128 179.286Z" />
<path fill="none" stroke="#00b2e5" stroke-width="0.576" d="M84.128 177.310L91.210 177.310" />
<path fill="#000000" stroke="none" d="M6.688 179.286L7.346 177.310L6.688 175.334L10.311 177.310Z" />
<path fill="#ffffff" stroke="none" d="M6.688 179.286L7.346 177.310L6.688 175.334L0.758 175.334L0.758 179.286Z" />
<path fill="none" stroke="#000000" stroke-width="0.576" d="M0.758 177.310L7.840 177.310" />
<path fill="none" stroke="#d87219" stroke-width="0.824" d="M505.600 225.588L505.600 212.412" />
<path fill="none" stroke="#d87219" stroke-width="0.824" d="M502.306 225.588C502.306 225.588 502.306 220.648 502.306 220.647C502.306 219.877 503.130 219.475 503.953 219.329C503.953 219.329 505.600 219.000 505.600 219.000" />
<path fill="none" stroke="#d87219" stroke-width="0.824" d="M508.894 212.412C508.894 212.412 508.894 217.352 508.894 217.353C508.894 218.123 508.070 218.525 507.247 218.671C507.247 218.671 505.600 219.000 505.600 219.000" />
<path fill="none" stroke="#0019b2" stroke-width="0.576" d="M422.230 219.000L422.230 221.470" />
<path fill="none" stroke="#0019b2" stroke-width="0.576" d="M422.230 223.941L422.230 226.412" />
<path fill="none" stroke="#0019b2" stroke-width="0.576" d="M422.230 216.530L422.230 214.059" />
<path fill="#0019b2" stroke="none" d="M419.265 216.530L422.230 211.588L425.195 216.530L422.230 215.376Z" />
<path fill="none" stroke="#00b2e5" stroke-width="0.576" d="M338.850 219.000L340.497 219.000" />
<path fill="none" stroke="#00b2e5" stroke-width="0.576" d="M338.850 219.000L339.674 220.426" />
<path fill="none" stroke="#00b2e5" stroke-width="0.576" d="M338.850 219.000L338.026 220.426" />
<path fill="none" stroke="#00b2e5" stroke-width="0.576" d="M338.850 219.000L337.203 219.000" />
<path fill="none" stroke="#00b2e5" stroke-width="0.576" d="M338.850 219.000L338.026 217.574" />
<path fill="none" stroke="#00b2e5" stroke-width="0.576" d="M338.850 219.000L339.674 217.574" />
<path fill="#000000" stroke="none" d="M249.633 221.339L261.327 219.000L249.633 216.661Z" />
<path fill="#000000" stroke="none" d="M173.428 220.976L174.086 219.000L173.428 217.024L177.051 219.000Z" />
<path fill="none" stroke="#000000" stroke-width="0.576" d="M166.345 220.647L167.498 219.000L166.345 217.353" />
<path fill="none" stroke="#000000" stroke-width="0.576" d="M167.992 220.647L169.145 219.000L167.992 217.353" />
<path fill="none" stroke="#000000" stroke-width="0.576" d="M167.498 219.000L174.580 219.000" />
<path fill="none" stroke="#0019b2" stroke-width="0.824" d="M88.740 227.235C88.740 225.871 91.042 225.402 90.716 223.941C90.293 222.046 86.325 223.811 86.270 221.470C86.210 218.930 90.361 220.833 90.881 219.000C91.465 216.944 88.206 217.105 87.422 215.706C86.468 214.003 88.740 212.518 88.740 210.765" />
<path fill="none" stroke="#0019b2" stroke-width="0.824" d="M86.348 216.115C85.985 215.709 85.687 215.288 85.632 214.826C85.402 212.887 88.069 212.384 88.740 210.765C89.411 212.384 87.880 214.626 89.414 215.834C89.780 216.122 90.288 216.209 90.832 216.239Z" />
<path fill="#0019b2" stroke="none" d="M86.348 216.115C85.985 215.709 85.687 215.288 85.632 214.826C85.402 212.887 88.069 212.384 88.740 210.765C89.411 212.384 87.880 214.626 89.414 215.834C89.780 216.122 90.288 216.209 90.832 216.239Z" />
<path fill="none" stroke="#000000" stroke-width="0.576" d="M3.723 220.647L1.976 222.394" />
<path fill="none" stroke="#000000" stroke-width="0.576" d="M3.723 217.353L1.976 215.606" />
<path fill="none" stroke="#000000" stroke-width="0.576" d="M7.017 217.353L8.764 215.606" />
<path fill="none" stroke="#000000" stroke-width="0.576" d="M7.017 220.647L8.764 222.394" />
<path fill="none" stroke="#000000" stroke-width="0.576" d="M3.723 217.353C2.813 218.263 2.813 219.737 3.723 220.647C4.633 221.557 6.107 221.557 7.017 220.647C7.927 219.737 7.927 218.263 7.017 217.353C6.107 216.443 4.633 216.443 3.723 217.353Z" />
<path fill="none" stroke="#d87219" stroke-width="0.824" d="M497.365 272.314L513.835 272.314" />
<path fill="none" stroke="#d87219" stroke-width="0.576" d="M499.012 272.314L499.012 269.020" />
<path fill="none" stroke="#d87219" stroke-width="0.576" d="M503.624 272.314L503.624 264.902" />
<path fill="none" stroke="#d87219" stroke-width="0.576" d="M505.929 272.314L505.929 267.373" />
<path fill="none" stroke="#d87219" stroke-width="0.576" d="M509.388 272.314L509.388 265.891" />
<path fill="none" stroke="#d87219" stroke-width="0.576" d="M511.365 272.314L511.365 266.550" />
<path fill="none" stroke="#ff7f19" stroke-width="0.824" d="M420.583 267.373C419.673 268.283 419.673 269.757 420.583 270.667C421.493 271.577 422.967 271.577 423.877 270.667C424.787 269.757 424.787 268.283 423.877 267.373C422.967 266.463 421.493 266.463 420.583 267.373Z" />
<path fill="#ff7f19" stroke="none" d="M337.203 267.373C336.293 268.283 336.293 269.757 337.203 270.667C338.113 271.577 339.587 271.577 340.497 270.667C341.407 269.757 341.407 268.283 340.497 267.373C339.587 266.463 338.113 266.463 337.203 267.373Z" />
<path fill="none" stroke="#4cb23f" stroke-width="0.824" d="M257.950 270.667L255.480 265.726L255.480 273.138" />
<path fill="none" stroke="#4cb23f" stroke-width="0.824" d="M257.621 265.726L255.480 265.726L252.680 271.985" />
<path fill="#ffffff" stroke="none" d="M87.916 268.196C87.462 268.651 87.462 269.389 87.916 269.844C88.371 270.298 89.109 270.298 89.564 269.844C90.018 269.389 90.018 268.651 89.564 268.196C89.109 267.742 88.371 267.742 87.916 268.196Z" />
<path fill="#b20000" stroke="none" d="M87.916 268.196C87.462 268.651 87.462 269.389 87.916 269.844C88.371 270.298 89.109 270.298 89.564 269.844C90.018 269.389 90.018 268.651 89.564 268.196C89.109 267.742 88.371 267.742 87.916 268.196Z" />
<path fill="#ffffff" stroke="none" d="M4.546 268.196C4.092 268.651 4.092 269.389 4.546 269.844C5.001 270.298 5.739 270.298 6.194 269.844C6.648 269.389 6.648 268.651 6.194 268.196C5.739 267.742 5.001 267.742 4.546 268.196Z" />
<path fill="none" stroke="#b20000" stroke-width="0.576" d="M4.546 268.196C4.092 268.651 4.092 269.389 4.546 269.844C5.001 270.298 5.739 270.298 6.194 269.844C6.648 269.389 6.648 268.651 6.194 268.196C5.739 267.742 5.001 267.742 4.546 268.196Z" />
</g>
<g id="X_aaaaaaa_/Users/AchilleTalon/Documents/GitHub/migovec-survey-data/configs/automation/../../outputs/symbology.svg">
<text font-family="cmss10" font-size="9.377" fill="black" stroke="none" transform="matrix(1.000 0.000 -0.000 -1.000 500.940 2.733)">&#x75;&#x3a;&#x77;</text>
<text font-family="cmss10" font-size="9.377" fill="black" stroke="none" transform="matrix(1.000 0.000 -0.000 -1.000 514.536 2.733)">&#x61;&#x6c;&#x6c;&#x62;&#x69;&#x67;&#x70;&#x69;&#x74;</text>
<text font-family="cmss10" font-size="9.377" fill="black" stroke="none" transform="matrix(1.000 0.000 -0.000 -1.000 417.560 2.733)">&#x75;&#x3a;&#x69;&#x63;&#x65;&#x73;&#x74;&#x65;&#x70;</text>
<text font-family="cmss10" font-size="9.377" fill="black" stroke="none" transform="matrix(1.000 0.000 -0.000 -1.000 454.702 2.733)">&#x4d;&#x59;</text>
<text font-family="cmss10" font-size="9.377" fill="black" stroke="none" transform="matrix(1.000 0.000 -0.000 -1.000 334.190 2.733)">&#x75;&#x3a;&#x69;&#x63;&#x65;&#x70;&#x69;&#x74;</text>
<text font-family="cmss10" font-size="9.377" fill="black" stroke="none" transform="matrix(1.000 0.000 -0.000 -1.000 365.810 2.733)">&#x4d;&#x59;</text>
<text font-family="cmss10" font-size="9.377" fill="black" stroke="none" transform="matrix(1.000 0.000 -0.000 -1.000 250.820 2.733)">&#x75;&#x3a;&#x77;</text>
<text font-family="cmss10" font-size="9.377" fill="black" stroke="none" transform="matrix(1.000 0.000 -0.000 -1.000 264.416 2.733)">&#x61;&#x6c;&#x6c;&#x73;&#x74;&#x65;&#x70;</text>
<text font-family="cmss10" font-size="9.377" fill="black" stroke="none" transform="matrix(1.000 0.000 -0.000 -1.000 167.450 2.733)">&#x75;&#x3a;&#x62;&#x69;&#x67;&#x70;&#x69;&#x74;</text>
<text font-family="cmss10" font-size="9.377" fill="black" stroke="none" transform="matrix(1.000 0.000 -0.000 -1.000 200.268 2.733)">&#x4d;&#x59;</text>
<text font-family="cmss10" font-size="9.377" fill="black" stroke="none" transform="matrix(1.000 0.000 -0.000 -1.000 84.080 0.910)">&#x61;</text>
<text font-family="cmss10" font-size="9.377" fill="black" stroke="none" transform="matrix(1.000 0.000 -0.000 -1.000 88.326 0.910)">&#x72;&#x72;&#x6f;</text>
<text font-family="cmss10" font-size="9.377" fill="black" stroke="none" transform="matrix(1.000 0.000 -0.000 -1.000 99.161 0.910)">&#x77;</text>
<text font-family="cmss10" font-size="9.377" fill="black" stroke="none" transform="matrix(1.000 0.000 -0.000 -1.000 0.700 2.733)">&#x70;&#x69;&#x74;</text>
<text font-family="cmss10" font-size="9.377" fill="black" stroke="none" transform="matrix(1.000 0.000 -0.000 -1.000 500.940 50.930)">&#x75;&#x3a;&#x77;</text>
<text font-family="cmss10" font-size="9.377" fill="black" stroke="none" transform="matrix(1.000 0.000 -0.000 -1.000 514.536 50.930)">&#x61;&#x6c;&#x6c;</text>
<text font-family="cmss10" font-size="9.377" fill="black" stroke="none" transform="matrix(1.000 0.000 -0.000 -1.000 526.648 50.930)">&#xfb02;&#x6f;</text>
<text font-family="cmss10" font-size="9.377" fill="black" stroke="none" transform="matrix(1.000 0.000 -0.000 -1.000 536.102 50.930)">&#x77;&#x73;&#x74;&#x6f;&#x6e;&#x65;</text>
<text font-family="cmss10" font-size="9.377" fill="black" stroke="none" transform="matrix(1.000 0.000 -0.000 -1.000 566.316 50.930)">&#x4d;&#x59;</text>
<text font-family="cmss10" font-size="9.377" fill="black" stroke="none" transform="matrix(1.000 0.000 -0.000 -1.000 417.560 52.753)">&#xfb02;&#x6f;</text>
<text font-family="cmss10" font-size="9.377" fill="black" stroke="none" transform="matrix(1.000 0.000 -0.000 -1.000 427.536 52.753)">&#x6f;</text>
<text font-family="cmss10" font-size="9.377" fill="black" stroke="none" transform="matrix(1.000 0.000 -0.000 -1.000 431.964 52.753)">&#x72;&#x2d;&#x73;&#x74;&#x65;&#x70;</text>
<text font-family="cmss10" font-size="9.377" fill="black" stroke="none" transform="matrix(1.000 0.000 -0.000 -1.000 334.190 50.930)">&#x75;&#x3a;&#x74;&#x65;&#x78;&#x74;&#x75;&#x72;&#x65;</text>
<text font-family="cmss10" font-size="9.377" fill="black" stroke="none" transform="matrix(1.000 0.000 -0.000 -1.000 372.243 50.930)">&#x4d;&#x59;</text>
<text font-family="cmss10" font-size="9.377" fill="black" stroke="none" transform="matrix(1.000 0.000 -0.000 -1.000 250.820 50.930)">&#x72;&#x6f;</text>
<text font-family="cmss10" font-size="9.377" fill="black" stroke="none" transform="matrix(1.000 0.000 -0.000 -1.000 258.973 50.930)">&#x63;&#x6b;&#x2d;&#x62;</text>
<text font-family="cmss10" font-size="9.377" fill="black" stroke="none" transform="matrix(1.000 0.000 -0.000 -1.000 275.955 50.930)">&#x6f;</text>
<text font-family="cmss10" font-size="9.377" fill="black" stroke="none" transform="matrix(1.000 0.000 -0.000 -1.000 280.382 50.930)">&#x72;&#x64;&#x65;&#x72;</text>
<text font-family="cmss10" font-size="9.377" fill="black" stroke="none" transform="matrix(1.000 0.000 -0.000 -1.000 167.450 52.753)">&#x73;&#x75;&#x72;&#x76;&#x65;&#x79;</text>
<text font-family="cmss10" font-size="9.377" fill="black" stroke="none" transform="matrix(1.000 0.000 -0.000 -1.000 84.080 52.753)">&#x77;</text>
<text font-family="cmss10" font-size="9.377" fill="black" stroke="none" transform="matrix(1.000 0.000 -0.000 -1.000 90.227 52.753)">&#x61;&#x6c;&#x6c;&#x3a;&#x75;&#x6e;&#x73;&#x75;&#x72;&#x76;&#x65;&#x79;</text>
<text font-family="cmss10" font-size="9.377" fill="black" stroke="none" transform="matrix(1.000 0.000 -0.000 -1.000 135.703 52.753)">&#x65;&#x64;</text>
<text font-family="cmss10" font-size="9.377" fill="black" stroke="none" transform="matrix(1.000 0.000 -0.000 -1.000 0.700 52.753)">&#x77;</text>
<text font-family="cmss10" font-size="9.377" fill="black" stroke="none" transform="matrix(1.000 0.000 -0.000 -1.000 6.847 52.753)">&#x61;&#x6c;&#x6c;&#x3a;&#x70;</text>
<text font-family="cmss10" font-size="9.377" fill="black" stroke="none" transform="matrix(1.000 0.000 -0.000 -1.000 23.022 52.753)">&#x72;&#x65;&#x73;&#x75;&#x6d;&#x65;&#x64;</text>
<text font-family="cmss10" font-size="9.377" fill="black" stroke="none" transform="matrix(1.000 0.000 -0.000 -1.000 500.940 102.773)">&#x77;</text>
<text font-family="cmss10" font-size="9.377" fill="black" stroke="none" transform="matrix(1.000 0.000 -0.000 -1.000 507.087 102.773)">&#x61;&#x6c;&#x6c;&#x3a;&#x63;&#x6c;&#x61;</text>
<text font-family="cmss10" font-size="9.377" fill="black" stroke="none" transform="matrix(1.000 0.000 -0.000 -1.000 529.330 102.773)">&#x79;</text>
<text font-family="cmss10" font-size="9.377" fill="black" stroke="none" transform="matrix(1.000 0.000 -0.000 -1.000 417.560 100.950)">&#x77;</text>
<text font-family="cmss10" font-size="9.377" fill="black" stroke="none" transform="matrix(1.000 0.000 -0.000 -1.000 423.707 100.950)">&#x61;&#x6c;&#x6c;&#x3a;&#x64;&#x65;&#x62;</text>
<text font-family="cmss10" font-size="9.377" fill="black" stroke="none" transform="matrix(1.000 0.000 -0.000 -1.000 448.893 100.950)">&#x72;&#x69;&#x73;</text>
<text font-family="cmss10" font-size="9.377" fill="black" stroke="none" transform="matrix(1.000 0.000 -0.000 -1.000 334.190 100.950)">&#x77;</text>
<text font-family="cmss10" font-size="9.377" fill="black" stroke="none" transform="matrix(1.000 0.000 -0.000 -1.000 340.337 100.950)">&#x61;&#x6c;&#x6c;&#x3a;&#xfb02;&#x6f;</text>
<text font-family="cmss10" font-size="9.377" fill="black" stroke="none" transform="matrix(1.000 0.000 -0.000 -1.000 361.382 100.950)">&#x77;&#x73;&#x74;&#x6f;&#x6e;&#x65;</text>
<text font-family="cmss10" font-size="9.377" fill="black" stroke="none" transform="matrix(1.000 0.000 -0.000 -1.000 250.820 100.950)">&#x77;</text>
<text font-family="cmss10" font-size="9.377" fill="black" stroke="none" transform="matrix(1.000 0.000 -0.000 -1.000 256.967 100.950)">&#x61;&#x6c;&#x6c;&#x3a;&#x69;&#x63;&#x65;</text>
<text font-family="cmss10" font-size="9.377" fill="black" stroke="none" transform="matrix(1.000 0.000 -0.000 -1.000 167.450 100.950)">&#x77;</text>
<text font-family="cmss10" font-size="9.377" fill="black" stroke="none" transform="matrix(1.000 0.000 -0.000 -1.000 173.597 100.950)">&#x61;&#x6c;&#x6c;&#x3a;&#x62;&#x6c;&#x6f;</text>
<text font-family="cmss10" font-size="9.377" fill="black" stroke="none" transform="matrix(1.000 0.000 -0.000 -1.000 197.221 100.950)">&#x63;&#x6b;&#x73;</text>
<text font-family="cmss10" font-size="9.377" fill="black" stroke="none" transform="matrix(1.000 0.000 -0.000 -1.000 84.080 102.773)">&#x77;</text>
<text font-family="cmss10" font-size="9.377" fill="black" stroke="none" transform="matrix(1.000 0.000 -0.000 -1.000 90.227 102.773)">&#x61;&#x6c;&#x6c;&#x3a;&#x70;&#x69;&#x74;</text>
<text font-family="cmss10" font-size="9.377" fill="black" stroke="none" transform="matrix(1.000 0.000 -0.000 -1.000 0.700 100.950)">&#x77;</text>
<text font-family="cmss10" font-size="9.377" fill="black" stroke="none" transform="matrix(1.000 0.000 -0.000 -1.000 6.847 100.950)">&#x61;&#x6c;&#x6c;</text>
<text font-family="cmss10" font-size="9.377" fill="black" stroke="none" transform="matrix(1.000 0.000 -0.000 -1.000 84.080 152.803)">&#x75;&#x3a;&#x67;&#x72;&#x61;&#x64;&#x69;&#x63;&#x65;</text>
<text font-family="cmss10" font-size="9.377" fill="black" stroke="none" transform="matrix(1.000 0.000 -0.000 -1.000 122.472 152.803)">&#x4d;&#x59;</text>
<text font-family="cmss10" font-size="9.377" fill="black" stroke="none" transform="matrix(1.000 0.000 -0.000 -1.000 0.700 152.803)">&#x67;&#x72;&#x61;&#x64;&#x69;&#x65;&#x6e;&#x74;</text>
<text font-family="cmss10" font-size="9.377" fill="black" stroke="none" transform="matrix(1.000 0.000 -0.000 -1.000 500.940 201.000)">&#x68;&#x65;&#x6c;&#x69;&#x63;&#x74;&#x69;&#x74;&#x65;</text>
<text font-family="cmss10" font-size="9.377" fill="black" stroke="none" transform="matrix(1.000 0.000 -0.000 -1.000 417.560 202.823)">&#x75;&#x3a;&#x77;</text>
<text font-family="cmss10" font-size="9.377" fill="black" stroke="none" transform="matrix(1.000 0.000 -0.000 -1.000 431.156 202.823)">&#x61;&#x74;&#x65;&#x72;&#x64;&#x72;&#x69;&#x70;</text>
<text font-family="cmss10" font-size="9.377" fill="black" stroke="none" transform="matrix(1.000 0.000 -0.000 -1.000 464.677 202.823)">&#x4d;&#x59;</text>
<text font-family="cmss10" font-size="9.377" fill="black" stroke="none" transform="matrix(1.000 0.000 -0.000 -1.000 334.190 201.000)">&#x73;&#x6e;&#x6f;</text>
<text font-family="cmss10" font-size="9.377" fill="black" stroke="none" transform="matrix(1.000 0.000 -0.000 -1.000 347.057 201.000)">&#x77;</text>
<text font-family="cmss10" font-size="9.377" fill="black" stroke="none" transform="matrix(1.000 0.000 -0.000 -1.000 250.820 201.000)">&#x65;&#x6e;&#x74;&#x72;&#x61;&#x6e;&#x63;&#x65;</text>
<text font-family="cmss10" font-size="9.377" fill="black" stroke="none" transform="matrix(1.000 0.000 -0.000 -1.000 167.450 202.823)">&#x61;&#x69;&#x72;&#x2d;&#x64;&#x72;&#x61;&#x75;&#x67;&#x68;&#x74;</text>
<text font-family="cmss10" font-size="9.377" fill="black" stroke="none" transform="matrix(1.000 0.000 -0.000 -1.000 84.080 201.000)">&#x77;</text>
<text font-family="cmss10" font-size="9.377" fill="black" stroke="none" transform="matrix(1.000 0.000 -0.000 -1.000 90.227 201.000)">&#x61;&#x74;&#x65;&#x72;&#x2d;&#xfb02;&#x6f;</text>
<text font-family="cmss10" font-size="9.377" fill="black" stroke="none" transform="matrix(1.000 0.000 -0.000 -1.000 118.070 201.000)">&#x77;</text>
<text font-family="cmss10" font-size="9.377" fill="black" stroke="none" transform="matrix(1.000 0.000 -0.000 -1.000 9.040 201.000)">&#x61;&#x6e;&#x63;&#x68;&#x6f;</text>
<text font-family="cmss10" font-size="9.377" fill="black" stroke="none" transform="matrix(1.000 0.000 -0.000 -1.000 31.830 201.000)">&#x72;</text>
<text font-family="cmss10" font-size="9.377" fill="black" stroke="none" transform="matrix(1.000 0.000 -0.000 -1.000 500.940 251.020)">&#x73;&#x6f;</text>
<text font-family="cmss10" font-size="9.377" fill="black" stroke="none" transform="matrix(1.000 0.000 -0.000 -1.000 509.483 251.020)">&#x64;&#x61;&#x2d;&#x73;&#x74;&#x72;&#x61;</text>
<text font-family="cmss10" font-size="9.377" fill="black" stroke="none" transform="matrix(1.000 0.000 -0.000 -1.000 536.389 251.020)">&#x77;</text>
<text font-family="cmss10" font-size="9.377" fill="black" stroke="none" transform="matrix(1.000 0.000 -0.000 -1.000 417.560 251.020)">&#x73;&#x74;&#x61;&#x6c;&#x61;&#x63;&#x74;&#x69;&#x74;&#x65;</text>
<text font-family="cmss10" font-size="9.377" fill="black" stroke="none" transform="matrix(1.000 0.000 -0.000 -1.000 334.190 252.843)">&#x73;&#x74;&#x61;&#x6c;&#x61;&#x67;&#x6d;&#x69;&#x74;&#x65;</text>
<text font-family="cmss10" font-size="9.377" fill="black" stroke="none" transform="matrix(1.000 0.000 -0.000 -1.000 250.820 252.843)">&#x75;&#x3a;&#x67;&#x72;&#x61;&#x73;&#x73;</text>
<text font-family="cmss10" font-size="9.377" fill="black" stroke="none" transform="matrix(1.000 0.000 -0.000 -1.000 280.981 252.843)">&#x4d;&#x59;</text>
<text font-family="cmss10" font-size="9.377" fill="black" stroke="none" transform="matrix(1.000 0.000 -0.000 -1.000 167.450 251.020)">&#x64;&#x65;&#x62;</text>
<text font-family="cmss10" font-size="9.377" fill="black" stroke="none" transform="matrix(1.000 0.000 -0.000 -1.000 181.046 251.020)">&#x72;&#x69;&#x73;</text>
<text font-family="cmss10" font-size="9.377" fill="black" stroke="none" transform="matrix(1.000 0.000 -0.000 -1.000 84.080 251.020)">&#x73;&#x74;&#x61;&#x74;&#x69;&#x6f;&#x6e;&#x3a;&#xfb01;&#x78;&#x65;&#x64;</text>
<text font-family="cmss10" font-size="9.377" fill="black" stroke="none" transform="matrix(1.000 0.000 -0.000 -1.000 0.700 251.020)">&#x73;&#x74;&#x61;&#x74;&#x69;&#x6f;&#x6e;</text>
</g>
<clipPath id="clip_viewBox">
<path d="M-33.713 -464.113L616.980 -464.113L616.980 -129.421L-33.713 -129.421z" />
</clipPath>
</defs>
<g transform="scale(1,-1)" fill="#000000" stroke="#000000" stroke-linecap="round" stroke-linejoin="round" stroke-miterlimit="10" fill-rule="evenodd" clip-rule="evenodd" clip-path="url(#clip_viewBox)">
<g fill="#ffffff">
<use x="7.633" y="-383.767" xlink:href="#I_aaaaaaa_/Users/AchilleTalon/Documents/GitHub/migovec-survey-data/configs/automation/../../outputs/symbology.svg" />
</g>
<use x="-0.367" y="-170.767" xlink:href="#F_aaaaaaa_/Users/AchilleTalon/Documents/GitHub/migovec-survey-data/configs/automation/../../outputs/symbology.svg" />
<use x="-5.367" y="-435.767" xlink:href="#E_aaaaaaa_/Users/AchilleTalon/Documents/GitHub/migovec-survey-data/configs/automation/../../outputs/symbology.svg" />
<use x="7.633" y="-417.767" xlink:href="#X_aaaaaaa_/Users/AchilleTalon/Documents/GitHub/migovec-survey-data/configs/automation/../../outputs/symbology.svg" />
</g>
</svg>
