<?xml version="1.0" encoding="UTF-8" standalone="no"?>
<svg
   xmlns:dc="http://purl.org/dc/elements/1.1/"
   xmlns:cc="http://creativecommons.org/ns#"
   xmlns:rdf="http://www.w3.org/1999/02/22-rdf-syntax-ns#"
   xmlns:svg="http://www.w3.org/2000/svg"
   xmlns="http://www.w3.org/2000/svg"
   xmlns:sodipodi="http://sodipodi.sourceforge.net/DTD/sodipodi-0.dtd"
   xmlns:inkscape="http://www.inkscape.org/namespaces/inkscape"
   version="1.1"
   width="815.080mm"
   height="528.680mm"
   viewBox="0 0 815.080 528.680"
   id="svg181"
   sodipodi:docname="hammerhead2_extend.svg"
   inkscape:version="0.92.2 5c3e80d, 2017-08-06">
  <metadata
     id="metadata187">
    <rdf:RDF>
      <cc:Work
         rdf:about="">
        <dc:format>image/svg+xml</dc:format>
        <dc:type
           rdf:resource="http://purl.org/dc/dcmitype/StillImage" />
      </cc:Work>
    </rdf:RDF>
  </metadata>
  <defs
     id="defs185" />
  <sodipodi:namedview
     pagecolor="#ffffff"
     bordercolor="#666666"
     borderopacity="1"
     objecttolerance="10"
     gridtolerance="10"
     guidetolerance="10"
     inkscape:pageopacity="0"
     inkscape:pageshadow="2"
     inkscape:window-width="1388"
     inkscape:window-height="737"
     id="namedview183"
     showgrid="false"
     inkscape:zoom="0.29747621"
     inkscape:cx="1828.385"
     inkscape:cy="1166.5961"
     inkscape:window-x="0"
     inkscape:window-y="0"
     inkscape:window-maximized="0"
     inkscape:current-layer="svg181" />
  <title
     id="title2">hammerhead2</title>
  <g
     id="g2685">
    <path
       inkscape:connector-curvature="0"
       id="path4"
       d="m 584.91267,227.84 32.6,-22.84"
       style="fill:none;stroke:#000000;stroke-width:0.40000001px" />
    <path
       inkscape:connector-curvature="0"
       id="path6"
       d="m 584.91267,227.84 -17.16,-10.32"
       style="fill:none;stroke:#000000;stroke-width:0.40000001px" />
    <path
       inkscape:connector-curvature="0"
       id="path8"
       d="m 567.75267,217.52 -41.88,12.84"
       style="fill:none;stroke:#000000;stroke-width:0.40000001px" />
    <path
       inkscape:connector-curvature="0"
       id="path10"
       d="m 525.87267,230.36 -9,-6.8"
       style="fill:none;stroke:#000000;stroke-width:0.40000001px" />
    <path
       inkscape:connector-curvature="0"
       id="path12"
       d="M 516.87267,223.56 V 256"
       style="fill:none;stroke:#000000;stroke-width:0.40000001px" />
    <path
       inkscape:connector-curvature="0"
       id="path14"
       d="m 516.87267,256 -33.68,-2.36"
       style="fill:none;stroke:#000000;stroke-width:0.40000001px" />
    <path
       inkscape:connector-curvature="0"
       id="path16"
       d="m 483.19267,253.64 -13.44,1.88"
       style="fill:none;stroke:#000000;stroke-width:0.40000001px" />
    <path
       inkscape:connector-curvature="0"
       id="path18"
       d="m 469.75267,255.52 -11.6,-0.4"
       style="fill:none;stroke:#000000;stroke-width:0.40000001px" />
    <path
       inkscape:connector-curvature="0"
       id="path20"
       d="m 458.15267,255.12 -30.48,62.56"
       style="fill:none;stroke:#000000;stroke-width:0.40000001px" />
    <path
       inkscape:connector-curvature="0"
       id="path22"
       d="m 427.67267,317.68 -16.64,-5.08"
       style="fill:none;stroke:#000000;stroke-width:0.40000001px" />
    <path
       inkscape:connector-curvature="0"
       id="path24"
       d="m 411.03267,312.6 -14,-2.72"
       style="fill:none;stroke:#000000;stroke-width:0.40000001px" />
    <path
       inkscape:connector-curvature="0"
       id="path26"
       d="m 397.03267,309.88 -32.36,-7.48"
       style="fill:none;stroke:#000000;stroke-width:0.40000001px" />
    <path
       inkscape:connector-curvature="0"
       id="path28"
       d="m 364.67267,302.4 -23.88,-10.6"
       style="fill:none;stroke:#000000;stroke-width:0.40000001px" />
    <path
       inkscape:connector-curvature="0"
       id="path30"
       d="m 344.73526,365.88336 16.12,13.52"
       style="fill:none;stroke:#000000;stroke-width:0.40000001px" />
    <path
       inkscape:connector-curvature="0"
       id="path32"
       d="m 360.85526,379.40336 15.48,5.04"
       style="fill:none;stroke:#000000;stroke-width:0.40000001px" />
    <path
       inkscape:connector-curvature="0"
       id="path34"
       d="m 376.33526,384.44336 33.2,-1.16"
       style="fill:none;stroke:#000000;stroke-width:0.40000001px" />
    <path
       inkscape:connector-curvature="0"
       id="path36"
       d="m 409.53526,383.28336 11.76,0.4"
       style="fill:none;stroke:#000000;stroke-width:0.40000001px" />
    <path
       inkscape:connector-curvature="0"
       id="path38"
       d="m 340.79267,291.8 -20,6.48"
       style="fill:none;stroke:#000000;stroke-width:0.40000001px" />
    <path
       inkscape:connector-curvature="0"
       id="path40"
       d="m 320.79267,298.28 -7.4,8.24"
       style="fill:none;stroke:#000000;stroke-width:0.40000001px" />
    <path
       inkscape:connector-curvature="0"
       id="path42"
       d="m 313.39267,306.52 -35.4,5.6"
       style="fill:none;stroke:#000000;stroke-width:0.40000001px" />
    <path
       inkscape:connector-curvature="0"
       id="path44"
       d="m 277.99267,312.12 -65.56,11.56"
       style="fill:none;stroke:#000000;stroke-width:0.40000001px" />
    <path
       inkscape:connector-curvature="0"
       id="path46"
       d="m 584.91267,227.84 -19,12.8"
       style="fill:none;stroke:#000000;stroke-width:0.40000001px" />
    <path
       inkscape:connector-curvature="0"
       id="path48"
       d="m 565.91267,240.64 v 33.28"
       style="fill:none;stroke:#000000;stroke-width:0.40000001px" />
    <text
       y="227.84"
       x="-584.91266"
       id="text51"
       transform="scale(-1,1)"
       style="font-size:3.5277777px;">2</text>
    <text
       y="227.84"
       x="-584.91266"
       id="text53"
       transform="scale(-1,1)"
       style="font-size:3.5277777px;">hammerhead.1</text>
    <text
       y="205"
       x="-617.5127"
       id="text55"
       transform="scale(-1,1)"
       style="font-size:3.5277777px;">1</text>
    <text
       y="240.64"
       x="-565.91266"
       id="text57"
       transform="scale(-1,1)"
       style="font-size:3.5277777px;">3</text>
    <text
       y="273.92001"
       x="-565.91266"
       id="text59"
       transform="scale(-1,1)"
       style="font-size:3.5277777px;">4</text>
    <text
       y="217.52"
       x="-567.75269"
       id="text61"
       transform="scale(-1,1)"
       style="font-size:3.5277777px;">5</text>
    <text
       y="230.36"
       x="-525.87268"
       id="text63"
       transform="scale(-1,1)"
       style="font-size:3.5277777px;">6</text>
    <text
       y="223.56"
       x="-516.87268"
       id="text65"
       transform="scale(-1,1)"
       style="font-size:3.5277777px;">7</text>
    <text
       y="256"
       x="-516.87268"
       id="text67"
       transform="scale(-1,1)"
       style="font-size:3.5277777px;">8</text>
    <text
       y="253.64"
       x="-483.19266"
       id="text69"
       transform="scale(-1,1)"
       style="font-size:3.5277777px;">9</text>
    <text
       y="255.52"
       x="-469.75266"
       id="text71"
       transform="scale(-1,1)"
       style="font-size:3.5277777px;">10</text>
    <text
       y="255.12"
       x="-458.15268"
       id="text73"
       transform="scale(-1,1)"
       style="font-size:3.5277777px;">11</text>
    <text
       y="317.67999"
       x="-427.67267"
       id="text75"
       transform="scale(-1,1)"
       style="font-size:3.5277777px;">12</text>
    <text
       y="323.67999"
       x="-212.43266"
       id="text77"
       transform="scale(-1,1)"
       style="font-size:3.5277777px;">13</text>
    <text
       y="312.12"
       x="-277.99268"
       id="text79"
       transform="scale(-1,1)"
       style="font-size:3.5277777px;">14</text>
    <text
       y="306.51999"
       x="-313.39267"
       id="text81"
       transform="scale(-1,1)"
       style="font-size:3.5277777px;">15</text>
    <text
       y="298.28"
       x="-320.79266"
       id="text83"
       transform="scale(-1,1)"
       style="font-size:3.5277777px;">16</text>
    <text
       y="291.79999"
       x="-340.79266"
       id="text85"
       transform="scale(-1,1)"
       style="font-size:3.5277777px;">17</text>
    <text
       y="302.39999"
       x="-364.67267"
       id="text87"
       transform="scale(-1,1)"
       style="font-size:3.5277777px;">18</text>
    <text
       y="309.88"
       x="-397.03268"
       id="text89"
       transform="scale(-1,1)"
       style="font-size:3.5277777px;">19</text>
    <text
       y="312.60001"
       x="-411.03268"
       id="text91"
       transform="scale(-1,1)"
       style="font-size:3.5277777px;">20</text>
    <text
       y="379.40326"
       x="360.85529"
       id="text93"
       style="font-size:3.52777767px">21</text>
    <text
       y="384.44324"
       x="376.3353"
       id="text95"
       style="font-size:3.52777767px">22</text>
    <text
       y="383.28326"
       x="409.53528"
       id="text97"
       style="font-size:3.52777767px">23</text>
    <text
       y="383.68326"
       x="421.29529"
       id="text99"
       style="font-size:3.52777767px">24</text>
    <circle
       transform="scale(-1,1)"
       r="1.131"
       cy="227.84"
       cx="-584.91266"
       id="hammerhead2.2"
       style="fill:none;stroke:#000000;stroke-width:0.05px" />
    <path
       inkscape:connector-curvature="0"
       id="path103"
       d="m 585.71267,227.04 -1.6,1.6 m 0,-1.6 1.6,1.6"
       style="fill:none;stroke:#000000;stroke-width:0.05px" />
    <circle
       transform="scale(-1,1)"
       r="1.131"
       cy="227.84"
       cx="-584.91266"
       id="circle105"
       style="fill:none;stroke:#000000;stroke-width:0.05px" />
    <path
       inkscape:connector-curvature="0"
       id="path107"
       d="m 585.71267,227.04 -1.6,1.6 m 0,-1.6 1.6,1.6"
       style="fill:none;stroke:#000000;stroke-width:0.05px" />
    <circle
       transform="scale(-1,1)"
       r="1.131"
       cy="205"
       cx="-617.5127"
       id="hammerhead2.1"
       style="fill:none;stroke:#000000;stroke-width:0.05px" />
    <path
       inkscape:connector-curvature="0"
       id="path110"
       d="m 618.31267,204.2 -1.6,1.6 m 0,-1.6 1.6,1.6"
       style="fill:none;stroke:#000000;stroke-width:0.05px" />
    <circle
       transform="scale(-1,1)"
       r="1.131"
       cy="240.63998"
       cx="-565.91266"
       id="hammerhead2.3"
       style="fill:none;stroke:#000000;stroke-width:0.05px" />
    <path
       inkscape:connector-curvature="0"
       id="path113"
       d="m 566.71267,239.84 -1.6,1.6 m 0,-1.6 1.6,1.6"
       style="fill:none;stroke:#000000;stroke-width:0.05px" />
    <circle
       transform="scale(-1,1)"
       r="1.131"
       cy="273.92001"
       cx="-565.91266"
       id="hammerhead2.4"
       style="fill:none;stroke:#000000;stroke-width:0.05px" />
    <path
       inkscape:connector-curvature="0"
       id="path116"
       d="m 566.71267,273.12 -1.6,1.6 m 0,-1.6 1.6,1.6"
       style="fill:none;stroke:#000000;stroke-width:0.05px" />
    <circle
       transform="scale(-1,1)"
       r="1.131"
       cy="217.51999"
       cx="-567.75269"
       id="hammerhead2.5"
       style="fill:none;stroke:#000000;stroke-width:0.05px" />
    <path
       inkscape:connector-curvature="0"
       id="path119"
       d="m 568.55267,216.72 -1.6,1.6 m 0,-1.6 1.6,1.6"
       style="fill:none;stroke:#000000;stroke-width:0.05px" />
    <circle
       transform="scale(-1,1)"
       r="1.131"
       cy="230.35999"
       cx="-525.87268"
       id="hammerhead2.6"
       style="fill:none;stroke:#000000;stroke-width:0.05px" />
    <path
       inkscape:connector-curvature="0"
       id="path122"
       d="m 526.67267,229.56 -1.6,1.6 m 0,-1.6 1.6,1.6"
       style="fill:none;stroke:#000000;stroke-width:0.05px" />
    <circle
       transform="scale(-1,1)"
       r="1.131"
       cy="223.56"
       cx="-516.87268"
       id="hammerhead2.7"
       style="fill:none;stroke:#000000;stroke-width:0.05px" />
    <path
       inkscape:connector-curvature="0"
       id="path125"
       d="m 517.67267,222.76 -1.6,1.6 m 0,-1.6 1.6,1.6"
       style="fill:none;stroke:#000000;stroke-width:0.05px" />
    <circle
       transform="scale(-1,1)"
       r="1.131"
       cy="256"
       cx="-516.87268"
       id="hammerhead2.8"
       style="fill:none;stroke:#000000;stroke-width:0.05px" />
    <path
       inkscape:connector-curvature="0"
       id="path128"
       d="m 517.67267,255.2 -1.6,1.6 m 0,-1.6 1.6,1.6"
       style="fill:none;stroke:#000000;stroke-width:0.05px" />
    <circle
       transform="scale(-1,1)"
       r="1.131"
       cy="253.63998"
       cx="-483.19266"
       id="hammerhead2.9"
       style="fill:none;stroke:#000000;stroke-width:0.05px" />
    <path
       inkscape:connector-curvature="0"
       id="path131"
       d="m 483.99267,252.84 -1.6,1.6 m 0,-1.6 1.6,1.6"
       style="fill:none;stroke:#000000;stroke-width:0.05px" />
    <circle
       transform="scale(-1,1)"
       r="1.131"
       cy="255.51999"
       cx="-469.75266"
       id="hammerhead2.10"
       style="fill:none;stroke:#000000;stroke-width:0.05px" />
    <path
       inkscape:connector-curvature="0"
       id="path134"
       d="m 470.55267,254.72 -1.6,1.6 m 0,-1.6 1.6,1.6"
       style="fill:none;stroke:#000000;stroke-width:0.05px" />
    <circle
       transform="scale(-1,1)"
       r="1.131"
       cy="255.12"
       cx="-458.15268"
       id="hammerhead2.11"
       style="fill:none;stroke:#000000;stroke-width:0.05px" />
    <path
       inkscape:connector-curvature="0"
       id="path137"
       d="m 458.95267,254.32 -1.6,1.6 m 0,-1.6 1.6,1.6"
       style="fill:none;stroke:#000000;stroke-width:0.05px" />
    <circle
       transform="scale(-1,1)"
       r="1.131"
       cy="317.67999"
       cx="-427.67267"
       id="hammerhead2.12"
       style="fill:none;stroke:#000000;stroke-width:0.05px" />
    <path
       inkscape:connector-curvature="0"
       id="path140"
       d="m 428.47267,316.88 -1.6,1.6 m 0,-1.6 1.6,1.6"
       style="fill:none;stroke:#000000;stroke-width:0.05px" />
    <circle
       transform="scale(-1,1)"
       r="1.131"
       cy="323.67999"
       cx="-212.43265"
       id="hammerhead2.13"
       style="fill:none;stroke:#000000;stroke-width:0.05px" />
    <path
       inkscape:connector-curvature="0"
       id="path143"
       d="m 213.23267,322.88 -1.6,1.6 m 0,-1.6 1.6,1.6"
       style="fill:none;stroke:#000000;stroke-width:0.05px" />
    <circle
       transform="scale(-1,1)"
       r="1.131"
       cy="312.12"
       cx="-277.99265"
       id="hammerhead2.14"
       style="fill:none;stroke:#000000;stroke-width:0.05px" />
    <path
       inkscape:connector-curvature="0"
       id="path146"
       d="m 278.79267,311.32 -1.6,1.6 m 0,-1.6 1.6,1.6"
       style="fill:none;stroke:#000000;stroke-width:0.05px" />
    <circle
       transform="scale(-1,1)"
       r="1.131"
       cy="306.51999"
       cx="-313.39267"
       id="hammerhead2.15"
       style="fill:none;stroke:#000000;stroke-width:0.05px" />
    <path
       inkscape:connector-curvature="0"
       id="path149"
       d="m 314.19267,305.72 -1.6,1.6 m 0,-1.6 1.6,1.6"
       style="fill:none;stroke:#000000;stroke-width:0.05px" />
    <circle
       transform="scale(-1,1)"
       r="1.131"
       cy="298.28"
       cx="-320.79266"
       id="hammerhead2.16"
       style="fill:none;stroke:#000000;stroke-width:0.05px" />
    <path
       inkscape:connector-curvature="0"
       id="path152"
       d="m 321.59267,297.48 -1.6,1.6 m 0,-1.6 1.6,1.6"
       style="fill:none;stroke:#000000;stroke-width:0.05px" />
    <circle
       transform="scale(-1,1)"
       r="1.131"
       cy="291.79999"
       cx="-340.79266"
       id="hammerhead2.17"
       style="fill:none;stroke:#000000;stroke-width:0.05px" />
    <path
       inkscape:connector-curvature="0"
       id="path155"
       d="m 341.59267,291 -1.6,1.6 m 0,-1.6 1.6,1.6"
       style="fill:none;stroke:#000000;stroke-width:0.05px" />
    <circle
       transform="scale(-1,1)"
       r="1.131"
       cy="302.39999"
       cx="-364.67267"
       id="hammerhead2.18"
       style="fill:none;stroke:#000000;stroke-width:0.05px" />
    <path
       inkscape:connector-curvature="0"
       id="path158"
       d="m 365.47267,301.6 -1.6,1.6 m 0,-1.6 1.6,1.6"
       style="fill:none;stroke:#000000;stroke-width:0.05px" />
    <circle
       transform="scale(-1,1)"
       r="1.131"
       cy="309.88"
       cx="-397.03265"
       id="hammerhead2.19"
       style="fill:none;stroke:#000000;stroke-width:0.05px" />
    <path
       inkscape:connector-curvature="0"
       id="path161"
       d="m 397.83267,309.08 -1.6,1.6 m 0,-1.6 1.6,1.6"
       style="fill:none;stroke:#000000;stroke-width:0.05px" />
    <circle
       transform="scale(-1,1)"
       r="1.131"
       cy="312.60001"
       cx="-411.03265"
       id="hammerhead2.20"
       style="fill:none;stroke:#000000;stroke-width:0.05px" />
    <path
       inkscape:connector-curvature="0"
       id="path164"
       d="m 411.83267,311.8 -1.6,1.6 m 0,-1.6 1.6,1.6"
       style="fill:none;stroke:#000000;stroke-width:0.05px" />
    <circle
       r="1.131"
       cy="379.40326"
       cx="360.85529"
       id="hammerhead2.21"
       style="fill:none;stroke:#000000;stroke-width:0.05px" />
    <path
       inkscape:connector-curvature="0"
       id="path167"
       d="m 360.05526,378.60336 1.6,1.6 m 0,-1.6 -1.6,1.6"
       style="fill:none;stroke:#000000;stroke-width:0.05px" />
    <circle
       r="1.131"
       cy="384.44324"
       cx="376.3353"
       id="hammerhead2.22"
       style="fill:none;stroke:#000000;stroke-width:0.05px" />
    <path
       inkscape:connector-curvature="0"
       id="path170"
       d="m 375.53526,383.64336 1.6,1.6 m 0,-1.6 -1.6,1.6"
       style="fill:none;stroke:#000000;stroke-width:0.05px" />
    <circle
       r="1.131"
       cy="383.28326"
       cx="409.53531"
       id="hammerhead2.23"
       style="fill:none;stroke:#000000;stroke-width:0.05px" />
    <path
       inkscape:connector-curvature="0"
       id="path173"
       d="m 408.73526,382.48336 1.6,1.6 m 0,-1.6 -1.6,1.6"
       style="fill:none;stroke:#000000;stroke-width:0.05px" />
    <circle
       r="1.131"
       cy="383.68326"
       cx="421.29532"
       id="hammerhead2.24"
       style="fill:none;stroke:#000000;stroke-width:0.05px" />
    <path
       inkscape:connector-curvature="0"
       id="path176"
       d="m 420.49526,382.88336 1.6,1.6 m 0,-1.6 -1.6,1.6"
       style="fill:none;stroke:#000000;stroke-width:0.05px" />
  </g>
</svg>
