0
SECTION
2
HEADER
9
$EXTMIN
10
0.000000
20
0.000000
30
0.000000
9
$EXTMAX
10
152.160000
20
152.670000
30
0.000000
9
$PDMODE
70
3
9
$PDSIZE
40
  0.80
0
ENDSEC
0
SECTION
2
TABLES
0
TABLE
2
LTYPE
70
10
0
LTYPE
2
CONTINUOUS
70
64
3
Continuous
72
65
73
0
40
0.0
0
LTYPE
2
DASHED
70
64
3
Dashed
72
65
73
2
40
2.5
49
1.25
49
-1.25
0
ENDTAB
0
TABLE
2
LAYER
70
10
0
LAYER
2
CentreLine
70
64
62
5
6
CONTINUOUS
0
LAYER
2
Stations
70
64
62
7
6
CONTINUOUS
0
LAYER
2
Labels
70
64
62
7
6
CONTINUOUS
0
LAYER
2
Surface
70
64
62
5
6
DASHED
0
LAYER
2
SurfaceStations
70
64
62
7
6
CONTINUOUS
0
LAYER
2
SurfaceLabels
70
64
62
7
6
CONTINUOUS
0
LAYER
2
Grid
70
64
62
7
6
CONTINUOUS
0
ENDTAB
0
ENDSEC
0
SECTION
2
ENTITIES
0
LINE
8
Grid
10
100.00
20
  0.00
30
0
11
100.00
21
152.67
31
0
0
LINE
8
Grid
10
  0.00
20
100.00
30
0
11
152.16
21
100.00
31
0
0
LINE
8
CentreLine
10
 62.09
20
101.64
30
  0.00
11
 64.50
21
 92.00
31
  0.00
0
LINE
8
CentreLine
10
 64.50
20
 92.00
30
  0.00
11
 62.15
21
 92.05
31
  0.00
0
LINE
8
CentreLine
10
 62.15
20
 92.05
30
  0.00
11
 59.01
21
 93.71
31
  0.00
0
LINE
8
CentreLine
10
 59.01
20
 93.71
30
  0.00
11
 56.52
21
 95.34
31
  0.00
0
LINE
8
CentreLine
10
 56.52
20
 95.34
30
  0.00
11
 59.93
21
 94.92
31
  0.00
0
LINE
8
CentreLine
10
 59.93
20
 94.92
30
  0.00
11
 59.93
21
 93.32
31
  0.00
0
LINE
8
CentreLine
10
 59.93
20
 93.32
30
  0.00
11
 62.60
21
 92.13
31
  0.00
0
LINE
8
CentreLine
10
 62.60
20
 92.13
30
  0.00
11
 66.88
21
 90.74
31
  0.00
0
LINE
8
CentreLine
10
 62.60
20
 92.13
30
  0.00
11
 62.60
21
 85.70
31
  0.00
0
LINE
8
CentreLine
10
 59.93
20
 94.92
30
  0.00
11
 56.27
21
 93.94
31
  0.00
0
LINE
8
CentreLine
10
 56.27
20
 93.94
30
  0.00
11
 51.41
21
 89.55
31
  0.00
0
LINE
8
CentreLine
10
 59.93
20
 94.92
30
  0.00
11
 50.00
21
102.67
31
  0.00
0
LINE
8
CentreLine
10
 62.09
20
101.64
30
  0.00
11
 62.09
21
 90.93
31
  0.00
0
LINE
8
CentreLine
10
 62.09
20
 90.93
30
  0.00
11
 65.21
21
 90.93
31
  0.00
0
LINE
8
CentreLine
10
 65.21
20
 90.93
30
  0.00
11
 65.21
21
 70.52
31
  0.00
0
LINE
8
CentreLine
10
 65.21
20
 70.52
30
  0.00
11
 73.97
21
 74.98
31
  0.00
0
LINE
8
CentreLine
10
 73.97
20
 74.98
30
  0.00
11
 77.25
21
 73.98
31
  0.00
0
LINE
8
CentreLine
10
 77.25
20
 73.98
30
  0.00
11
 77.25
21
 77.70
31
  0.00
0
LINE
8
CentreLine
10
 77.25
20
 77.70
30
  0.00
11
 81.78
21
 79.17
31
  0.00
0
LINE
8
CentreLine
10
 81.78
20
 79.17
30
  0.00
11
 83.15
21
 80.40
31
  0.00
0
LINE
8
CentreLine
10
 83.15
20
 80.40
30
  0.00
11
 84.46
21
 80.24
31
  0.00
0
LINE
8
CentreLine
10
 84.46
20
 80.24
30
  0.00
11
 90.19
21
 79.53
31
  0.00
0
LINE
8
CentreLine
10
 90.19
20
 79.53
30
  0.00
11
 91.91
21
 79.35
31
  0.00
0
LINE
8
CentreLine
10
 91.91
20
 79.35
30
  0.00
11
 94.53
21
 79.17
31
  0.00
0
LINE
8
CentreLine
10
 94.53
20
 79.17
30
  0.00
11
 96.91
21
 78.40
31
  0.00
0
LINE
8
CentreLine
10
 96.91
20
 78.40
30
  0.00
11
100.34
21
 76.17
31
  0.00
0
LINE
8
CentreLine
10
100.34
20
 76.17
30
  0.00
11
100.34
21
 71.14
31
  0.00
0
LINE
8
CentreLine
10
100.34
20
 71.14
30
  0.00
11
 96.87
21
 73.94
31
  0.00
0
LINE
8
CentreLine
10
 96.87
20
 73.94
30
  0.00
11
 90.98
21
 71.91
31
  0.00
0
LINE
8
CentreLine
10
 90.98
20
 71.91
30
  0.00
11
102.16
21
 55.33
31
  0.00
0
LINE
8
CentreLine
10
 90.98
20
 71.91
30
  0.00
11
 97.35
21
 62.47
31
  0.00
0
LINE
8
CentreLine
10
 90.98
20
 71.91
30
  0.00
11
 85.34
21
 75.16
31
  0.00
0
LINE
8
CentreLine
10
 90.98
20
 71.91
30
  0.00
11
 86.86
21
 73.17
31
  0.00
0
LINE
8
CentreLine
10
100.34
20
 71.14
30
  0.00
11
 96.58
21
 72.51
31
  0.00
0
LINE
8
CentreLine
10
 65.21
20
 70.52
30
  0.00
11
 77.64
21
 73.62
31
  0.00
0
LINE
8
CentreLine
10
 65.21
20
 70.52
30
  0.00
11
 61.91
21
 69.76
31
  0.00
0
LINE
8
CentreLine
10
 61.91
20
 69.76
30
  0.00
11
 61.91
21
 63.59
31
  0.00
0
LINE
8
CentreLine
10
 65.21
20
 70.52
30
  0.00
11
 63.25
21
 69.25
31
  0.00
0
LINE
8
CentreLine
10
 63.25
20
 69.25
30
  0.00
11
 63.25
21
 64.93
31
  0.00
0
LINE
8
CentreLine
10
 65.21
20
 70.52
30
  0.00
11
 74.26
21
 74.55
31
  0.00
0
LINE
8
CentreLine
10
 74.26
20
 74.55
30
  0.00
11
 76.45
21
 66.37
31
  0.00
0
LINE
8
CentreLine
10
 76.45
20
 66.37
30
  0.00
11
 78.85
21
 64.69
31
  0.00
0
LINE
8
CentreLine
10
 78.85
20
 64.69
30
  0.00
11
 82.13
21
 62.72
31
  0.00
0
LINE
8
CentreLine
10
 82.13
20
 62.72
30
  0.00
11
 83.31
21
 62.89
31
  0.00
0
LINE
8
CentreLine
10
 83.31
20
 62.89
30
  0.00
11
 82.27
21
 61.65
31
  0.00
0
LINE
8
CentreLine
10
 82.27
20
 61.65
30
  0.00
11
 79.37
21
 60.17
31
  0.00
0
LINE
8
CentreLine
10
 79.37
20
 60.17
30
  0.00
11
 80.68
21
 60.15
31
  0.00
0
LINE
8
CentreLine
10
 80.68
20
 60.15
30
  0.00
11
 82.59
21
 59.45
31
  0.00
0
LINE
8
CentreLine
10
 82.59
20
 59.45
30
  0.00
11
 83.52
21
 58.96
31
  0.00
0
LINE
8
CentreLine
10
 83.52
20
 58.96
30
  0.00
11
 85.93
21
 54.79
31
  0.00
0
LINE
8
CentreLine
10
 85.93
20
 54.79
30
  0.00
11
 91.05
21
 53.42
31
  0.00
0
LINE
8
CentreLine
10
 83.52
20
 58.96
30
  0.00
11
 86.40
21
 51.07
31
  0.00
0
LINE
8
CentreLine
10
 86.40
20
 51.07
30
  0.00
11
 89.49
21
 50.00
31
  0.00
000
ENDSEC
000
EOF
