<?xml version="1.0" encoding="ISO-8859-1"?>
<svg version="1.1" baseProfile="full"
xmlns="http://www.w3.org/2000/svg"
xmlns:xlink="http://www.w3.org/1999/xlink"
xmlns:ev="http://www.w3.org/2001/xml-events"
width="538.320mm" height="504.280mm"
viewBox="0 0 538.320 504.280">
<title>octarine_core</title>
<g transform="translate(5.000 499.280)">
<g id="Legs" stroke="black" fill="none" stroke-width="0.4px">
<path d="M200.000 -294.280L206.680 -293.880"/>
<path d="M206.680 -293.880L211.240 -259.000"/>
<path d="M211.240 -259.000L217.840 -263.000"/>
<path d="M217.840 -263.000L244.560 -259.840"/>
<path d="M244.560 -259.840L254.400 -261.240"/>
<path d="M254.400 -261.240L262.960 -257.040"/>
<path d="M262.960 -257.040L268.520 -248.800"/>
<path d="M268.520 -248.800L288.920 -243.840"/>
<path d="M288.920 -243.840L293.560 -243.880"/>
<path d="M293.560 -243.880L302.080 -230.240"/>
<path d="M302.080 -230.240L310.320 -222.120"/>
<path d="M310.320 -222.120L317.600 -216.240"/>
<path d="M317.600 -216.240L322.680 -211.200"/>
<path d="M322.680 -211.200L328.320 -200.000"/>
</g>
<g id="Labels" font-size="0.600em">
<text transform="translate(200.000 -294.280)">octarine_core.0</text>
<text transform="translate(328.320 -200.000)">octarine_core.15</text>
<text transform="translate(200.000 -294.280)">octarine.0</text>
<text transform="translate(328.320 -200.000)">bath.14</text>
<text transform="translate(206.680 -293.880)">octarine_core.1</text>
<text transform="translate(211.240 -259.000)">octarine_core.3</text>
<text transform="translate(217.840 -263.000)">octarine_core.4</text>
<text transform="translate(244.560 -259.840)">octarine_core.5</text>
<text transform="translate(254.400 -261.240)">octarine_core.6</text>
<text transform="translate(262.960 -257.040)">octarine_core.7</text>
<text transform="translate(268.520 -248.800)">octarine_core.8</text>
<text transform="translate(288.920 -243.840)">octarine_core.9</text>
<text transform="translate(293.560 -243.880)">octarine_core.10</text>
<text transform="translate(302.080 -230.240)">octarine_core.11</text>
<text transform="translate(310.320 -222.120)">octarine_core.12</text>
<text transform="translate(317.600 -216.240)">octarine_core.13</text>
<text transform="translate(322.680 -211.200)">octarine_core.14</text>
</g>
<g id="Stations" stroke="black" fill="none" stroke-width="0.05px">
<circle id="octarine_core.0" cx="200.000" cy="-294.280" r="1.131"/>
<path d="M199.200 -295.080L200.800 -293.480M200.800 -295.080L199.200 -293.480"/>
<circle id="octarine_core.15" cx="328.320" cy="-200.000" r="1.131"/>
<path d="M327.520 -200.800L329.120 -199.200M329.120 -200.800L327.520 -199.200"/>
<circle id="octarine_core.0" cx="200.000" cy="-294.280" r="1.131"/>
<path d="M199.200 -295.080L200.800 -293.480M200.800 -295.080L199.200 -293.480"/>
<circle id="octarine_core.15" cx="328.320" cy="-200.000" r="1.131"/>
<path d="M327.520 -200.800L329.120 -199.200M329.120 -200.800L327.520 -199.200"/>
<circle id="octarine_core.1" cx="206.680" cy="-293.880" r="1.131"/>
<path d="M205.880 -294.680L207.480 -293.080M207.480 -294.680L205.880 -293.080"/>
<circle id="octarine_core.3" cx="211.240" cy="-259.000" r="1.131"/>
<path d="M210.440 -259.800L212.040 -258.200M212.040 -259.800L210.440 -258.200"/>
<circle id="octarine_core.4" cx="217.840" cy="-263.000" r="1.131"/>
<path d="M217.040 -263.800L218.640 -262.200M218.640 -263.800L217.040 -262.200"/>
<circle id="octarine_core.5" cx="244.560" cy="-259.840" r="1.131"/>
<path d="M243.760 -260.640L245.360 -259.040M245.360 -260.640L243.760 -259.040"/>
<circle id="octarine_core.6" cx="254.400" cy="-261.240" r="1.131"/>
<path d="M253.600 -262.040L255.200 -260.440M255.200 -262.040L253.600 -260.440"/>
<circle id="octarine_core.7" cx="262.960" cy="-257.040" r="1.131"/>
<path d="M262.160 -257.840L263.760 -256.240M263.760 -257.840L262.160 -256.240"/>
<circle id="octarine_core.8" cx="268.520" cy="-248.800" r="1.131"/>
<path d="M267.720 -249.600L269.320 -248.000M269.320 -249.600L267.720 -248.000"/>
<circle id="octarine_core.9" cx="288.920" cy="-243.840" r="1.131"/>
<path d="M288.120 -244.640L289.720 -243.040M289.720 -244.640L288.120 -243.040"/>
<circle id="octarine_core.10" cx="293.560" cy="-243.880" r="1.131"/>
<path d="M292.760 -244.680L294.360 -243.080M294.360 -244.680L292.760 -243.080"/>
<circle id="octarine_core.11" cx="302.080" cy="-230.240" r="1.131"/>
<path d="M301.280 -231.040L302.880 -229.440M302.880 -231.040L301.280 -229.440"/>
<circle id="octarine_core.12" cx="310.320" cy="-222.120" r="1.131"/>
<path d="M309.520 -222.920L311.120 -221.320M311.120 -222.920L309.520 -221.320"/>
<circle id="octarine_core.13" cx="317.600" cy="-216.240" r="1.131"/>
<path d="M316.800 -217.040L318.400 -215.440M318.400 -217.040L316.800 -215.440"/>
<circle id="octarine_core.14" cx="322.680" cy="-211.200" r="1.131"/>
<path d="M321.880 -212.000L323.480 -210.400M323.480 -212.000L321.880 -210.400"/>
</g>
</g>
</svg>
