<?xml version="1.0" encoding="UTF-8" standalone="no"?>
<svg
   xmlns:dc="http://purl.org/dc/elements/1.1/"
   xmlns:cc="http://creativecommons.org/ns#"
   xmlns:rdf="http://www.w3.org/1999/02/22-rdf-syntax-ns#"
   xmlns:svg="http://www.w3.org/2000/svg"
   xmlns="http://www.w3.org/2000/svg"
   xmlns:sodipodi="http://sodipodi.sourceforge.net/DTD/sodipodi-0.dtd"
   xmlns:inkscape="http://www.inkscape.org/namespaces/inkscape"
   version="1.1"
   width="613.320mm"
   height="631.000mm"
   viewBox="0 0 613.320 631.000"
   id="svg153"
   sodipodi:docname="doubletime_extend.svg"
   inkscape:version="0.92.2 5c3e80d, 2017-08-06">
  <metadata
     id="metadata159">
    <rdf:RDF>
      <cc:Work
         rdf:about="">
        <dc:format>image/svg+xml</dc:format>
        <dc:type
           rdf:resource="http://purl.org/dc/dcmitype/StillImage" />
      </cc:Work>
    </rdf:RDF>
  </metadata>
  <defs
     id="defs157" />
  <sodipodi:namedview
     pagecolor="#ffffff"
     bordercolor="#666666"
     borderopacity="1"
     objecttolerance="10"
     gridtolerance="10"
     guidetolerance="10"
     inkscape:pageopacity="0"
     inkscape:pageshadow="2"
     inkscape:window-width="1355"
     inkscape:window-height="702"
     id="namedview155"
     showgrid="false"
     inkscape:zoom="0.55978353"
     inkscape:cx="1096.3908"
     inkscape:cy="1240.4186"
     inkscape:window-x="0"
     inkscape:window-y="0"
     inkscape:window-maximized="0"
     inkscape:current-layer="svg153" />
  <title
     id="title2">doubletime</title>
  <g
     transform="translate(5.000 626.000)"
     id="g151">
    <g
       id="Legs"
       stroke="black"
       fill="none"
       stroke-width="0.4px">
      <path
         d="M212.600 -411.800L200.000 -421.000"
         id="path4" />
      <path
         d="M225.360 -392.200L212.600 -411.800"
         id="path6" />
      <path
         d="M240.240 -390.080L225.360 -392.200"
         id="path8" />
      <path
         d="M249.240 -391.680L240.240 -390.080"
         id="path10" />
      <path
         d="M266.160 -380.240L249.240 -391.680"
         id="path12" />
      <path
         d="M270.320 -372.120L266.160 -380.240"
         id="path14" />
      <path
         d="M273.120 -369.560L270.320 -372.120"
         id="path16" />
      <path
         d="M284.200 -370.160L273.120 -369.560"
         id="path18" />
      <path
         d="M287.160 -364.760L284.200 -370.160"
         id="path20" />
      <path
         d="M292.360 -356.440L287.160 -364.760"
         id="path22" />
      <path
         d="M296.920 -352.040L292.360 -356.440"
         id="path24" />
      <path
         d="M304.560 -327.000L296.920 -352.040"
         id="path26" />
      <path
         d="M322.240 -328.520L304.560 -327.000"
         id="path28" />
      <path
         d="M330.200 -315.280L322.240 -328.520"
         id="path30" />
      <path
         d="M343.000 -302.480L330.200 -315.280"
         id="path32" />
      <path
         d="M358.160 -300.080L343.000 -302.480"
         id="path34" />
      <path
         d="M369.360 -290.000L358.160 -300.080"
         id="path36" />
      <path
         d="M369.360 -200.000L369.360 -290.000"
         id="path38" />
      <path
         d="M403.320 -232.800L369.360 -200.000"
         id="path40" />
    </g>
    <g
       id="Labels"
       font-size="0.600em">
      <text
         transform="translate(200,-421)"
         id="text43">20</text>
      <text
         transform="translate(200.000 -421.000)"
         id="text45">monatip4.50</text>
      <text
         transform="translate(403.32,-232.8)"
         id="text47">1</text>
      <text
         transform="translate(369.36,-200)"
         id="text49">2</text>
      <text
         transform="translate(369.36,-290)"
         id="text51">3</text>
      <text
         transform="translate(358.16,-300.08)"
         id="text53">4</text>
      <text
         transform="translate(343,-302.48)"
         id="text55">5</text>
      <text
         transform="translate(330.2,-315.28)"
         id="text57">6</text>
      <text
         transform="translate(322.24,-328.52)"
         id="text59">7</text>
      <text
         transform="translate(304.56,-327)"
         id="text61">8</text>
      <text
         transform="translate(296.92,-352.04)"
         id="text63">9</text>
      <text
         transform="translate(292.36,-356.44)"
         id="text65">10</text>
      <text
         transform="translate(287.16,-364.76)"
         id="text67">11</text>
      <text
         transform="translate(284.2,-370.16)"
         id="text69">12</text>
      <text
         transform="translate(273.12,-369.56)"
         id="text71">13</text>
      <text
         transform="translate(270.32,-372.12)"
         id="text73">14</text>
      <text
         transform="translate(266.16,-380.24)"
         id="text75">15</text>
      <text
         transform="translate(249.24,-391.68)"
         id="text77">16</text>
      <text
         transform="translate(240.24,-390.08)"
         id="text79">17</text>
      <text
         transform="translate(225.36,-392.2)"
         id="text81">18</text>
      <text
         transform="translate(212.6,-411.8)"
         id="text83">19</text>
    </g>
    <g
       id="Stations"
       stroke="black"
       fill="none"
       stroke-width="0.05px">
      <circle
         id="doubletime.20"
         cx="200.000"
         cy="-421.000"
         r="1.131" />
      <path
         d="M199.200 -421.800L200.800 -420.200M200.800 -421.800L199.200 -420.200"
         id="path87" />
      <circle
         id="circle89"
         cx="200.000"
         cy="-421.000"
         r="1.131" />
      <path
         d="M199.200 -421.800L200.800 -420.200M200.800 -421.800L199.200 -420.200"
         id="path91" />
      <circle
         id="doubletime.1"
         cx="403.320"
         cy="-232.800"
         r="1.131" />
      <path
         d="M402.520 -233.600L404.120 -232.000M404.120 -233.600L402.520 -232.000"
         id="path94" />
      <circle
         id="doubletime.2"
         cx="369.360"
         cy="-200.000"
         r="1.131" />
      <path
         d="M368.560 -200.800L370.160 -199.200M370.160 -200.800L368.560 -199.200"
         id="path97" />
      <circle
         id="doubletime.3"
         cx="369.360"
         cy="-290.000"
         r="1.131" />
      <path
         d="M368.560 -290.800L370.160 -289.200M370.160 -290.800L368.560 -289.200"
         id="path100" />
      <circle
         id="doubletime.4"
         cx="358.160"
         cy="-300.080"
         r="1.131" />
      <path
         d="M357.360 -300.880L358.960 -299.280M358.960 -300.880L357.360 -299.280"
         id="path103" />
      <circle
         id="doubletime.5"
         cx="343.000"
         cy="-302.480"
         r="1.131" />
      <path
         d="M342.200 -303.280L343.800 -301.680M343.800 -303.280L342.200 -301.680"
         id="path106" />
      <circle
         id="doubletime.6"
         cx="330.200"
         cy="-315.280"
         r="1.131" />
      <path
         d="M329.400 -316.080L331.000 -314.480M331.000 -316.080L329.400 -314.480"
         id="path109" />
      <circle
         id="doubletime.7"
         cx="322.240"
         cy="-328.520"
         r="1.131" />
      <path
         d="M321.440 -329.320L323.040 -327.720M323.040 -329.320L321.440 -327.720"
         id="path112" />
      <circle
         id="doubletime.8"
         cx="304.560"
         cy="-327.000"
         r="1.131" />
      <path
         d="M303.760 -327.800L305.360 -326.200M305.360 -327.800L303.760 -326.200"
         id="path115" />
      <circle
         id="doubletime.9"
         cx="296.920"
         cy="-352.040"
         r="1.131" />
      <path
         d="M296.120 -352.840L297.720 -351.240M297.720 -352.840L296.120 -351.240"
         id="path118" />
      <circle
         id="doubletime.10"
         cx="292.360"
         cy="-356.440"
         r="1.131" />
      <path
         d="M291.560 -357.240L293.160 -355.640M293.160 -357.240L291.560 -355.640"
         id="path121" />
      <circle
         id="doubletime.11"
         cx="287.160"
         cy="-364.760"
         r="1.131" />
      <path
         d="M286.360 -365.560L287.960 -363.960M287.960 -365.560L286.360 -363.960"
         id="path124" />
      <circle
         id="doubletime.12"
         cx="284.200"
         cy="-370.160"
         r="1.131" />
      <path
         d="M283.400 -370.960L285.000 -369.360M285.000 -370.960L283.400 -369.360"
         id="path127" />
      <circle
         id="doubletime.13"
         cx="273.120"
         cy="-369.560"
         r="1.131" />
      <path
         d="M272.320 -370.360L273.920 -368.760M273.920 -370.360L272.320 -368.760"
         id="path130" />
      <circle
         id="doubletime.14"
         cx="270.320"
         cy="-372.120"
         r="1.131" />
      <path
         d="M269.520 -372.920L271.120 -371.320M271.120 -372.920L269.520 -371.320"
         id="path133" />
      <circle
         id="doubletime.15"
         cx="266.160"
         cy="-380.240"
         r="1.131" />
      <path
         d="M265.360 -381.040L266.960 -379.440M266.960 -381.040L265.360 -379.440"
         id="path136" />
      <circle
         id="doubletime.16"
         cx="249.240"
         cy="-391.680"
         r="1.131" />
      <path
         d="M248.440 -392.480L250.040 -390.880M250.040 -392.480L248.440 -390.880"
         id="path139" />
      <circle
         id="doubletime.17"
         cx="240.240"
         cy="-390.080"
         r="1.131" />
      <path
         d="M239.440 -390.880L241.040 -389.280M241.040 -390.880L239.440 -389.280"
         id="path142" />
      <circle
         id="doubletime.18"
         cx="225.360"
         cy="-392.200"
         r="1.131" />
      <path
         d="M224.560 -393.000L226.160 -391.400M226.160 -393.000L224.560 -391.400"
         id="path145" />
      <circle
         id="doubletime.19"
         cx="212.600"
         cy="-411.800"
         r="1.131" />
      <path
         d="M211.800 -412.600L213.400 -411.000M213.400 -412.600L211.800 -411.000"
         id="path148" />
    </g>
  </g>
</svg>
