<?xml version="1.0" encoding="UTF-8" standalone="no"?>
<svg
   xmlns:dc="http://purl.org/dc/elements/1.1/"
   xmlns:cc="http://creativecommons.org/ns#"
   xmlns:rdf="http://www.w3.org/1999/02/22-rdf-syntax-ns#"
   xmlns:svg="http://www.w3.org/2000/svg"
   xmlns="http://www.w3.org/2000/svg"
   xmlns:sodipodi="http://sodipodi.sourceforge.net/DTD/sodipodi-0.dtd"
   xmlns:inkscape="http://www.inkscape.org/namespaces/inkscape"
   version="1.1"
   width="545.400mm"
   height="467.160mm"
   viewBox="0 0 545.400 467.160"
   id="svg69"
   sodipodi:docname="mud_moses_extend.svg"
   inkscape:version="0.92.2 5c3e80d, 2017-08-06">
  <metadata
     id="metadata75">
    <rdf:RDF>
      <cc:Work
         rdf:about="">
        <dc:format>image/svg+xml</dc:format>
        <dc:type
           rdf:resource="http://purl.org/dc/dcmitype/StillImage" />
      </cc:Work>
    </rdf:RDF>
  </metadata>
  <defs
     id="defs73" />
  <sodipodi:namedview
     pagecolor="#ffffff"
     bordercolor="#666666"
     borderopacity="1"
     objecttolerance="10"
     gridtolerance="10"
     guidetolerance="10"
     inkscape:pageopacity="0"
     inkscape:pageshadow="2"
     inkscape:window-width="1074"
     inkscape:window-height="641"
     id="namedview71"
     showgrid="false"
     inkscape:zoom="0.53464908"
     inkscape:cx="1079.0643"
     inkscape:cy="720.02117"
     inkscape:window-x="0"
     inkscape:window-y="0"
     inkscape:window-maximized="0"
     inkscape:current-layer="g67" />
  <title
     id="title2">mud_moses</title>
  <g
     transform="translate(5.000 462.160)"
     id="g67">
    <g
       id="Labels"
       font-size="0.600em" />
    <g
       id="g925">
      <g
         stroke-width="0.4px"
         fill="none"
         stroke="black"
         id="Legs">
        <path
           id="path4"
           d="M217.800 -253.360L200.000 -257.160" />
        <path
           id="path6"
           d="M248.800 -231.680L217.800 -253.360" />
        <path
           id="path8"
           d="M265.920 -221.360L248.800 -231.680" />
        <path
           id="path10"
           d="M288.840 -205.320L265.920 -221.360" />
        <path
           id="path12"
           d="M308.800 -201.800L288.840 -205.320" />
        <path
           id="path14"
           d="M325.880 -200.000L308.800 -201.800" />
        <path
           id="path16"
           d="M335.400 -208.600L325.880 -200.000" />
      </g>
      <text
         id="text19"
         transform="translate(335.40001,-208.6)"
         style="">1</text>
      <text
         id="text23"
         transform="translate(325.88001,-200)"
         style="">2</text>
      <text
         id="text25"
         transform="translate(308.8,-201.8)"
         style="">3</text>
      <text
         id="text27"
         transform="translate(288.83999,-205.32)"
         style="">4</text>
      <text
         id="text29"
         transform="translate(265.92001,-221.36)"
         style="">5</text>
      <text
         id="text31"
         transform="translate(248.8,-231.68)"
         style="">6</text>
      <text
         id="text33"
         transform="translate(217.8,-253.36)"
         style="">7</text>
      <text
         id="text35"
         transform="translate(200,-257.16)"
         style="">8</text>
      <g
         stroke-width="0.05px"
         fill="none"
         stroke="black"
         id="Stations">
        <circle
           r="1.131"
           cy="-208.600"
           cx="335.400"
           id="mud_moses.1" />
        <path
           id="path39"
           d="M334.600 -209.400L336.200 -207.800M336.200 -209.400L334.600 -207.800" />
        <circle
           r="1.131"
           cy="-208.600"
           cx="335.400"
           id="circle41" />
        <path
           id="path43"
           d="M334.600 -209.400L336.200 -207.800M336.200 -209.400L334.600 -207.800" />
        <circle
           r="1.131"
           cy="-200.000"
           cx="325.880"
           id="mud_moses.2" />
        <path
           id="path46"
           d="M325.080 -200.800L326.680 -199.200M326.680 -200.800L325.080 -199.200" />
        <circle
           r="1.131"
           cy="-201.800"
           cx="308.800"
           id="mud_moses.3" />
        <path
           id="path49"
           d="M308.000 -202.600L309.600 -201.000M309.600 -202.600L308.000 -201.000" />
        <circle
           r="1.131"
           cy="-205.320"
           cx="288.840"
           id="mud_moses.4" />
        <path
           id="path52"
           d="M288.040 -206.120L289.640 -204.520M289.640 -206.120L288.040 -204.520" />
        <circle
           r="1.131"
           cy="-221.360"
           cx="265.920"
           id="mud_moses.5" />
        <path
           id="path55"
           d="M265.120 -222.160L266.720 -220.560M266.720 -222.160L265.120 -220.560" />
        <circle
           r="1.131"
           cy="-231.680"
           cx="248.800"
           id="mud_moses.6" />
        <path
           id="path58"
           d="M248.000 -232.480L249.600 -230.880M249.600 -232.480L248.000 -230.880" />
        <circle
           r="1.131"
           cy="-253.360"
           cx="217.800"
           id="mud_moses.7" />
        <path
           id="path61"
           d="M217.000 -254.160L218.600 -252.560M218.600 -254.160L217.000 -252.560" />
        <circle
           r="1.131"
           cy="-257.160"
           cx="200.000"
           id="mud_moses.8" />
        <path
           id="path64"
           d="M199.200 -257.960L200.800 -256.360M200.800 -257.960L199.200 -256.360" />
      </g>
    </g>
  </g>
</svg>
